#N canvas 0 22 1280 752 10;
#N canvas 0 50 450 278 (subpatch) 0;
#X array array1 237239 float 2;
#X coords 0 1 237239 -1 200 140 1 0 0;
#X restore 458 438 graph;
#X obj 41 -18 soundfiler;
#X floatatom 41 11 10 0 0 0 - - -;
#X obj 120 609 throw~ outL;
#X obj 215 610 throw~ outR;
#X obj 44 -92 loadbang;
#X obj 913 201 loadbang;
#X obj 1163 404 * 100;
#X obj 1163 426 i;
#X obj 1163 492 s screenLine4;
#X obj 1032 424 i;
#X obj 1032 493 s screenLine3;
#X obj 888 428 i;
#X obj 888 494 s screenLine2;
#X obj 744 428 i;
#X obj 743 494 s screenLine1;
#X obj 744 382 r knob1;
#X obj 1032 379 r knob3;
#X obj 1032 400 * 1000;
#X obj 1163 381 r knob4;
#X obj 888 379 r knob2;
#X obj 744 450 change -1;
#X obj 888 450 change -1;
#X obj 1032 449 change -1;
#X obj 1163 448 change -1;
#X msg 44 -61 read -resize flute.wav array1;
#X obj 162 504 tabread4~ array1;
#X obj 41 43 s size;
#X obj 163 429 phasor~;
#X obj 162 458 *~ \$1;
#X obj 263 416 r size;
#N canvas 665 312 450 300 12th 0;
#X obj 57 17 inlet;
#X obj 286 258 outlet;
#X obj 57 48 sel 1 2 3 4 5 6 7 8 9 10 11 12;
#X msg 57 149 1;
#X msg 70 124 1.059;
#X msg 86 99 1.12;
#X msg 101 75 1.187;
#X msg 115 152 1.258;
#X msg 130 126 1.332;
#X msg 145 99 1.41;
#X msg 159 75 1.494;
#X msg 176 153 1.582;
#X msg 190 129 1.675;
#X msg 204 100 1.774;
#X msg 219 75 1.878;
#X obj 286 190 pack;
#X obj 307 138 r lag;
#X floatatom 17 51 5 0 0 0 - - -;
#X connect 0 0 2 0;
#X connect 0 0 17 0;
#X connect 2 0 3 0;
#X connect 2 1 4 0;
#X connect 2 2 5 0;
#X connect 2 3 6 0;
#X connect 2 4 7 0;
#X connect 2 5 8 0;
#X connect 2 6 9 0;
#X connect 2 7 10 0;
#X connect 2 8 11 0;
#X connect 2 9 12 0;
#X connect 2 10 13 0;
#X connect 2 11 14 0;
#X connect 3 0 15 0;
#X connect 4 0 15 0;
#X connect 5 0 15 0;
#X connect 6 0 15 0;
#X connect 7 0 15 0;
#X connect 8 0 15 0;
#X connect 9 0 15 0;
#X connect 10 0 15 0;
#X connect 11 0 15 0;
#X connect 12 0 15 0;
#X connect 13 0 15 0;
#X connect 14 0 15 0;
#X connect 15 0 1 0;
#X connect 16 0 15 1;
#X restore 164 238 pd 12th root;
#X floatatom 128 119 5 0 0 0 - - -;
#N canvas 461 366 450 300 12th 0;
#X obj 57 17 inlet;
#X obj 286 258 outlet;
#X obj 57 48 sel 1 2 3 4 5 6 7 8 9 10 11 12;
#X msg 57 149 1;
#X msg 70 124 1.059;
#X msg 86 99 1.12;
#X msg 101 75 1.187;
#X msg 115 152 1.258;
#X msg 130 126 1.332;
#X msg 145 99 1.41;
#X msg 159 75 1.494;
#X msg 176 153 1.582;
#X msg 190 129 1.675;
#X msg 204 100 1.774;
#X msg 219 75 1.878;
#X obj 286 190 / 2;
#X obj 287 218 pack;
#X obj 312 152 r lag;
#X connect 0 0 2 0;
#X connect 2 0 3 0;
#X connect 2 1 4 0;
#X connect 2 2 5 0;
#X connect 2 3 6 0;
#X connect 2 4 7 0;
#X connect 2 5 8 0;
#X connect 2 6 9 0;
#X connect 2 7 10 0;
#X connect 2 8 11 0;
#X connect 2 9 12 0;
#X connect 2 10 13 0;
#X connect 2 11 14 0;
#X connect 3 0 15 0;
#X connect 4 0 15 0;
#X connect 5 0 15 0;
#X connect 6 0 15 0;
#X connect 7 0 15 0;
#X connect 8 0 15 0;
#X connect 9 0 15 0;
#X connect 10 0 15 0;
#X connect 11 0 15 0;
#X connect 12 0 15 0;
#X connect 13 0 15 0;
#X connect 14 0 15 0;
#X connect 15 0 16 0;
#X connect 16 0 1 0;
#X connect 17 0 16 1;
#X restore 59 230 pd 12th root;
#X obj 202 326 osc~;
#X obj 163 397 +~;
#X floatatom 274 249 5 0 0 0 - - -;
#X obj 203 301 sig~;
#X obj 200 380 *~;
#X floatatom 355 309 5 0 0 0 - - -;
#X obj 356 338 / 10000;
#X floatatom 360 73 5 0 0 0 - - -;
#X obj 234 196 s~ press;
#X obj 163 539 *~;
#X obj 268 505 r~ press;
#X obj 163 280 line~;
#X obj 164 208 - 71;
#X obj 617 125 r aux;
#X floatatom 616 226 5 0 0 0 - - -;
#X obj 617 156 sel 1;
#X obj 618 194 counter 5;
#X obj 615 252 sel 0 1 2 3 4 5;
#X obj 614 353 s v1;
#X obj 629 327 s v2;
#X obj 643 304 s v3;
#X obj 658 279 s v4;
#X obj 669 355 s v5;
#X obj 684 328 s v6;
#X obj 128 -89 r v1;
#X obj 255 -89 r v2;
#X msg 466 -58 read -resize strings.wav array1;
#X obj 465 -86 r v3;
#X msg 256 -61 read -resize violin.wav array1;
#X obj 678 -87 r v4;
#X msg 679 -59 read -resize cello.wav array1;
#X msg 881 -61 read -resize choir.wav array1;
#X obj 880 -89 r v5;
#X obj 1079 -90 r v6;
#X obj 361 41 r env;
#X msg 1032 470 3: Envelope \$1 ms;
#X obj 1104 449 s env;
#X obj 744 406 * 500;
#X msg 743 471 1: Lag \$1 ms;
#X obj 795 428 s lag;
#X obj 201 353 +~;
#X obj 240 329 osc~;
#X obj 241 304 sig~;
#X msg 1080 -62 read -resize FMpad.wav array1;
#X obj 888 403 * 100;
#X obj 941 427 s warb;
#X obj 363 234 r warb;
#X obj 355 266 * 20;
#X obj 356 287 min 10;
#X obj 270 278 / 0.2;
#X msg 888 471 2: Warble \$1 %;
#X obj 280 535 r verb;
#X msg 1163 470 4: Reverb \$1 %;
#X obj 1211 418 s verb;
#X msg 915 231 \; screenLine1 1: Lag \; screenLine2 2: Warble \; screenLine3
3: Envelope \; screenLine4 4: Reverb \; screenLine5 Aux: Voice \;;
#X obj 942 399 + 0.2;
#X floatatom 125 202 5 0 0 0 - - -;
#X obj 61 208 - 59;
#N canvas 503 22 1280 752 verb 0;
#X obj 196 33 inlet;
#X obj 62 610 outlet~;
#X obj 51 34 inlet~;
#X obj 104 328 *~ 0;
#X obj 175 127 exp;
#X floatatom 174 160 5 0 0 0 - - -;
#X obj 160 187 -0.9;
#X obj 176 98 * 2.25;
#X obj 212 189 / 10;
#X obj 124 224 * 2;
#X obj 125 255 min 10;
#X floatatom 152 288 5 0 0 0 - - -;
#X obj 361 463 - 10;
#X floatatom 361 497 5 0 0 0 - - -;
#X obj 361 534 abs;
#X obj 362 570 / 9;
#X floatatom 364 601 5 0 0 0 - - -;
#X obj 174 475 rev3~ 0 90 500 10;
#X obj 247 421 * 10;
#X obj 200 419 * 40;
#X obj 200 443 + 60;
#X obj 63 569 *~ 0.3;
#X obj 247 443 + 85;
#X connect 0 0 7 0;
#X connect 2 0 3 0;
#X connect 3 0 17 0;
#X connect 3 0 17 1;
#X connect 4 0 5 0;
#X connect 5 0 6 0;
#X connect 5 0 8 0;
#X connect 6 0 9 0;
#X connect 6 0 12 0;
#X connect 7 0 4 0;
#X connect 8 0 18 0;
#X connect 8 0 19 0;
#X connect 9 0 10 0;
#X connect 10 0 3 1;
#X connect 10 0 11 0;
#X connect 12 0 13 0;
#X connect 13 0 14 0;
#X connect 14 0 15 0;
#X connect 15 0 16 0;
#X connect 16 0 21 1;
#X connect 17 0 21 0;
#X connect 17 1 21 0;
#X connect 18 0 22 0;
#X connect 19 0 20 0;
#X connect 20 0 17 2;
#X connect 21 0 1 0;
#X connect 22 0 17 3;
#X restore 216 552 pd verb;
#X obj 132 81 noteinmono;
#X floatatom 175 118 5 0 0 0 - - -;
#X obj 265 169 line~;
#X obj 334 140 pack 0 100;
#X obj 334 121 bng 15 250 50 0 empty empty empty 17 7 0 10 -262144
-1 -1;
#X obj 263 131 pack 1 100;
#X obj 266 91 sel 100;
#X obj 730 236 s led;
#X obj 727 202 + 1;
#X msg 557 200 0;
#X obj 552 148 loadbang;
#X obj 159 581 *~ 1.25;
#X obj 1121 76 s screenLine5;
#X msg 182 -16 Aux: Flute;
#X msg 364 -16 Aux: Violin;
#X msg 572 -19 Aux: Strings;
#X msg 780 -17 Aux: Cello;
#X msg 974 -18 Aux: Choir;
#X msg 1114 -17 Aux: FM Pad;
#X obj 127 171 moses 72;
#X floatatom 259 442 8 0 0 0 - - -;
#X obj 261 471 bng 15 250 50 0 empty empty empty 17 7 0 10 -262144
-1 -1;
#X obj 328 441 delay 50;
#X obj 162 480 +~;
#X obj 473 72 r size;
#X obj 473 112 / 44100;
#X floatatom 473 153 5 0 0 0 - - -;
#X obj 130 338 *~;
#X obj 461 207 / \$1;
#X msg 445 180 1;
#X floatatom 460 240 5 0 0 0 - - -;
#X obj 461 282 s tune;
#X obj 160 321 r tune;
#X obj 360 100 + 10;
#X connect 1 0 2 0;
#X connect 2 0 27 0;
#X connect 5 0 25 0;
#X connect 6 0 88 0;
#X connect 7 0 8 0;
#X connect 8 0 24 0;
#X connect 10 0 23 0;
#X connect 10 0 70 0;
#X connect 12 0 22 0;
#X connect 14 0 21 0;
#X connect 16 0 71 0;
#X connect 17 0 18 0;
#X connect 18 0 10 0;
#X connect 19 0 7 0;
#X connect 19 0 87 0;
#X connect 20 0 78 0;
#X connect 20 0 89 0;
#X connect 21 0 72 0;
#X connect 22 0 84 0;
#X connect 23 0 69 0;
#X connect 24 0 86 0;
#X connect 25 0 1 0;
#X connect 26 0 43 0;
#X connect 28 0 29 0;
#X connect 29 0 116 0;
#X connect 30 0 113 0;
#X connect 31 0 45 0;
#X connect 32 0 112 0;
#X connect 33 0 45 0;
#X connect 34 0 74 0;
#X connect 35 0 28 0;
#X connect 36 0 83 0;
#X connect 36 0 37 0;
#X connect 37 0 34 0;
#X connect 38 0 35 1;
#X connect 39 0 40 0;
#X connect 40 0 38 1;
#X connect 41 0 126 0;
#X connect 43 0 92 0;
#X connect 43 0 104 0;
#X connect 44 0 43 1;
#X connect 45 0 120 0;
#X connect 46 0 31 0;
#X connect 47 0 49 0;
#X connect 48 0 51 0;
#X connect 48 0 101 0;
#X connect 49 0 50 0;
#X connect 50 0 48 0;
#X connect 51 0 52 0;
#X connect 51 1 53 0;
#X connect 51 2 54 0;
#X connect 51 3 55 0;
#X connect 51 4 56 0;
#X connect 51 5 57 0;
#X connect 58 0 25 0;
#X connect 58 0 106 0;
#X connect 59 0 62 0;
#X connect 59 0 107 0;
#X connect 60 0 1 0;
#X connect 61 0 60 0;
#X connect 61 0 108 0;
#X connect 62 0 1 0;
#X connect 63 0 64 0;
#X connect 63 0 109 0;
#X connect 64 0 1 0;
#X connect 65 0 1 0;
#X connect 66 0 65 0;
#X connect 66 0 110 0;
#X connect 67 0 77 0;
#X connect 67 0 111 0;
#X connect 68 0 41 0;
#X connect 69 0 11 0;
#X connect 71 0 14 0;
#X connect 71 0 73 0;
#X connect 72 0 15 0;
#X connect 74 0 38 0;
#X connect 75 0 74 1;
#X connect 76 0 75 0;
#X connect 77 0 1 0;
#X connect 78 0 12 0;
#X connect 80 0 81 0;
#X connect 80 0 36 0;
#X connect 81 0 82 0;
#X connect 82 0 39 0;
#X connect 83 0 76 0;
#X connect 84 0 13 0;
#X connect 85 0 92 1;
#X connect 86 0 9 0;
#X connect 89 0 79 0;
#X connect 91 0 33 0;
#X connect 92 0 104 0;
#X connect 93 0 32 0;
#X connect 93 1 94 0;
#X connect 94 0 99 0;
#X connect 95 0 42 0;
#X connect 96 0 95 0;
#X connect 97 0 96 0;
#X connect 98 0 95 0;
#X connect 99 0 98 0;
#X connect 99 1 97 0;
#X connect 101 0 100 0;
#X connect 102 0 48 0;
#X connect 103 0 102 0;
#X connect 104 0 3 0;
#X connect 104 0 4 0;
#X connect 106 0 105 0;
#X connect 107 0 105 0;
#X connect 108 0 105 0;
#X connect 109 0 105 0;
#X connect 110 0 105 0;
#X connect 111 0 105 0;
#X connect 112 0 90 0;
#X connect 112 0 91 0;
#X connect 112 1 46 0;
#X connect 113 0 29 1;
#X connect 113 0 114 0;
#X connect 114 0 115 0;
#X connect 115 0 113 0;
#X connect 116 0 26 0;
#X connect 117 0 118 0;
#X connect 118 0 119 0;
#X connect 119 0 121 1;
#X connect 119 0 122 0;
#X connect 120 0 35 0;
#X connect 121 0 123 0;
#X connect 122 0 121 0;
#X connect 123 0 124 0;
#X connect 125 0 120 1;
#X connect 126 0 96 1;
#X connect 126 0 98 1;
