#N canvas 1025 389 458 474 10;
#X obj 58 175 phasor~;
#X obj 126 45 loadbang;
#X obj 126 66 random 100;
#X obj 126 108 + 0.97;
#X obj 57 38 inlet~;
#X obj 294 64 loadbang;
#X obj 294 85 random 100;
#X obj 295 127 + 0.47;
#X obj 222 179 phasor~;
#X text 292 164 half frequency;
#X obj 59 415 outlet~;
#X obj 58 134 *~ 1;
#X obj 226 153 *~ 1;
#X obj 58 196 *~ 2051;
#X obj 222 200 *~ 2051;
#X obj 126 87 * 0.0006;
#X obj 295 106 * 0.0006;
#X obj 59 273 delwrite~ \$0-del 11;
#X obj 59 388 delread~ \$0-del;
#X obj 60 314 loadbang;
#X obj 60 335 random 100;
#X obj 60 356 * 0.1;
#X obj 59 231 tabread4~ sawtooth;
#X obj 219 227 tabread4~ sawtooth;
#X obj 59 252 *~ 0.125;
#X connect 0 0 13 0;
#X connect 1 0 2 0;
#X connect 2 0 15 0;
#X connect 3 0 11 1;
#X connect 4 0 11 0;
#X connect 4 0 12 0;
#X connect 5 0 6 0;
#X connect 6 0 16 0;
#X connect 7 0 12 1;
#X connect 8 0 14 0;
#X connect 11 0 0 0;
#X connect 12 0 8 0;
#X connect 13 0 22 0;
#X connect 14 0 23 0;
#X connect 15 0 3 0;
#X connect 16 0 7 0;
#X connect 18 0 10 0;
#X connect 19 0 20 0;
#X connect 20 0 21 0;
#X connect 21 0 18 0;
#X connect 22 0 24 0;
#X connect 23 0 24 0;
#X connect 24 0 17 0;
