#N canvas -8 -8 1536 821 10;
#X obj 364 212 sig~;
#X obj 227 385 *~ 1;
#X obj 532 263 lop~ 5;
#X obj 534 232 sig~;
#X obj 525 400 *~;
#X obj 154 76 inlet~;
#X obj 339 123 inlet;
#X obj 503 153 inlet;
#X obj 437 669 *~ 1;
#X obj 362 712 outlet~;
#X obj 363 325 vd~ \$0del 5000;
#X obj 157 558 delwrite~ \$0del 5000;
#X obj 363 264 lop~ \$1;
#X obj 658 178 inlet;
#X obj 775 217 inlet;
#X obj 63 227 vibe, f 14;
#X obj 104 309 *~ 0.3;
#X msg 107 189 1.25;
#X msg 149 189 1;
#X obj 507 639 *~ 0.6;
#X obj 570 473 BobFilter, f 18;
#X obj 804 338 loadbang;
#X msg 818 382 70;
#X msg 783 371 0.9;
#X connect 0 0 12 0;
#X connect 1 0 11 0;
#X connect 1 0 8 0;
#X connect 2 0 4 1;
#X connect 3 0 2 0;
#X connect 4 0 11 0;
#X connect 4 0 20 0;
#X connect 5 0 1 0;
#X connect 5 0 15 0;
#X connect 6 0 0 0;
#X connect 7 0 3 0;
#X connect 8 0 9 0;
#X connect 10 0 4 0;
#X connect 12 0 10 0;
#X connect 13 0 20 1;
#X connect 14 0 20 2;
#X connect 15 0 16 0;
#X connect 16 0 1 0;
#X connect 17 0 15 1;
#X connect 18 0 15 2;
#X connect 19 0 8 0;
#X connect 20 0 19 0;
#X connect 21 0 23 0;
#X connect 21 0 22 0;
#X connect 22 0 20 2;
#X connect 23 0 20 1;
