#N canvas 0 54 1024 546 10;
#X obj 168 404 spigot;
#X obj 218 404 spigot;
#X obj 343 344 noise~;
#X text 1102 433 <filtros pasa banda;
#X obj 385 311 mtof;
#X obj 425 311 mtof;
#X obj 465 311 mtof;
#X obj 505 311 mtof;
#X obj 545 311 mtof;
#X obj 585 311 mtof;
#X obj 625 311 mtof;
#X obj 665 311 mtof;
#N canvas 0 87 450 300 RandomPitch 0;
#X obj 15 59 random 128;
#X obj 85 59 random 128;
#X obj 155 59 random 128;
#X obj 225 59 random 128;
#X obj 45 79 random 128;
#X obj 115 79 random 128;
#X obj 185 79 random 128;
#X obj 255 79 random 128;
#X obj 9 166 outlet;
#X obj 51 166 outlet;
#X obj 93 166 outlet;
#X obj 135 166 outlet;
#X obj 177 166 outlet;
#X obj 219 166 outlet;
#X obj 261 166 outlet;
#X obj 303 166 outlet;
#X obj 336 19 inlet;
#X connect 0 0 8 0;
#X connect 1 0 10 0;
#X connect 2 0 12 0;
#X connect 3 0 14 0;
#X connect 4 0 9 0;
#X connect 5 0 11 0;
#X connect 6 0 13 0;
#X connect 7 0 15 0;
#X connect 16 0 0 0;
#X connect 16 0 4 0;
#X connect 16 0 1 0;
#X connect 16 0 5 0;
#X connect 16 0 2 0;
#X connect 16 0 6 0;
#X connect 16 0 3 0;
#X connect 16 0 7 0;
#X restore 551 66 pd RandomPitch;
#N canvas 0 87 450 300 RandomRateLfo 0;
#X obj 15 59 random 128;
#X obj 85 59 random 128;
#X obj 155 59 random 128;
#X obj 225 59 random 128;
#X obj 45 79 random 128;
#X obj 115 79 random 128;
#X obj 185 79 random 128;
#X obj 255 79 random 128;
#X obj 9 166 outlet;
#X obj 51 166 outlet;
#X obj 93 166 outlet;
#X obj 135 166 outlet;
#X obj 177 166 outlet;
#X obj 219 166 outlet;
#X obj 261 166 outlet;
#X obj 303 166 outlet;
#X obj 128 16 inlet;
#X connect 0 0 8 0;
#X connect 1 0 10 0;
#X connect 2 0 12 0;
#X connect 3 0 14 0;
#X connect 4 0 9 0;
#X connect 5 0 11 0;
#X connect 6 0 13 0;
#X connect 7 0 15 0;
#X connect 16 0 0 0;
#X connect 16 0 4 0;
#X connect 16 0 1 0;
#X connect 16 0 5 0;
#X connect 16 0 2 0;
#X connect 16 0 6 0;
#X connect 16 0 3 0;
#X connect 16 0 7 0;
#X restore 782 286 pd RandomRateLfo;
#N canvas 218 202 450 300 Randomfrecuencia 0;
#X obj 9 166 outlet;
#X obj 51 166 outlet;
#X obj 93 166 outlet;
#X obj 135 166 outlet;
#X obj 177 166 outlet;
#X obj 219 166 outlet;
#X obj 261 166 outlet;
#X obj 303 166 outlet;
#X obj 336 19 inlet;
#X obj 15 59 random 18000;
#X obj 95 59 random 18000;
#X obj 175 59 random 18000;
#X obj 255 59 random 18000;
#X obj 25 89 random 18000;
#X obj 105 89 random 18000;
#X obj 185 89 random 18000;
#X obj 265 89 random 18000;
#X connect 8 0 9 0;
#X connect 8 0 10 0;
#X connect 8 0 11 0;
#X connect 8 0 12 0;
#X connect 8 0 13 0;
#X connect 8 0 14 0;
#X connect 8 0 15 0;
#X connect 8 0 16 0;
#X connect 9 0 0 0;
#X connect 10 0 2 0;
#X connect 11 0 4 0;
#X connect 12 0 6 0;
#X connect 13 0 1 0;
#X connect 14 0 3 0;
#X connect 15 0 5 0;
#X connect 16 0 7 0;
#X restore 711 66 pd Randomfrecuencia;
#X obj 761 707 outlet~;
#X obj 772 626 line~;
#X obj 712 627 *~;
#X obj 822 656 line~;
#X obj 762 657 *~;
#X msg 913 643 \$1 20;
#N canvas 176 158 687 427 ModulacionDeAmplificacion 0;
#X obj 8 11 inlet~;
#X obj 9 226 *~;
#X obj 285 378 outlet~;
#X obj 52 11 inlet;
#X obj 88 11 inlet~;
#X obj 132 11 inlet;
#X obj 168 11 inlet~;
#X obj 212 11 inlet;
#X obj 248 11 inlet~;
#X obj 292 11 inlet;
#X obj 328 11 inlet~;
#X obj 372 11 inlet;
#X obj 408 11 inlet~;
#X obj 452 11 inlet;
#X obj 488 11 inlet~;
#X obj 532 11 inlet;
#X obj 568 11 inlet~;
#X obj 612 11 inlet;
#X obj 23 79 osc~;
#X obj 23 119 +~ 1;
#X obj 23 140 *~ 0.5;
#X obj 23 99 *~ 1;
#X obj 89 226 *~;
#X obj 103 79 osc~;
#X obj 103 119 +~ 1;
#X obj 103 140 *~ 0.5;
#X obj 103 99 *~ 1;
#X obj 169 226 *~;
#X obj 183 79 osc~;
#X obj 183 119 +~ 1;
#X obj 183 140 *~ 0.5;
#X obj 183 99 *~ 1;
#X obj 249 226 *~;
#X obj 263 79 osc~;
#X obj 263 119 +~ 1;
#X obj 263 140 *~ 0.5;
#X obj 263 99 *~ 1;
#X obj 329 226 *~;
#X obj 343 79 osc~;
#X obj 343 119 +~ 1;
#X obj 343 140 *~ 0.5;
#X obj 343 99 *~ 1;
#X obj 409 226 *~;
#X obj 423 79 osc~;
#X obj 423 119 +~ 1;
#X obj 423 140 *~ 0.5;
#X obj 423 99 *~ 1;
#X obj 489 226 *~;
#X obj 503 79 osc~;
#X obj 503 119 +~ 1;
#X obj 503 140 *~ 0.5;
#X obj 503 99 *~ 1;
#X obj 569 226 *~;
#X obj 583 79 osc~;
#X obj 583 119 +~ 1;
#X obj 583 140 *~ 0.5;
#X obj 583 99 *~ 1;
#X obj 23 59 / 510;
#X obj 103 59 / 510;
#X obj 183 59 / 510;
#X obj 263 59 / 510;
#X obj 343 59 / 510;
#X obj 423 59 / 510;
#X obj 503 59 / 510;
#X obj 583 59 / 510;
#X connect 0 0 1 0;
#X connect 1 0 2 0;
#X connect 3 0 57 0;
#X connect 4 0 22 0;
#X connect 5 0 58 0;
#X connect 6 0 27 0;
#X connect 7 0 59 0;
#X connect 8 0 32 0;
#X connect 9 0 60 0;
#X connect 10 0 37 0;
#X connect 11 0 61 0;
#X connect 12 0 42 0;
#X connect 13 0 62 0;
#X connect 14 0 47 0;
#X connect 15 0 63 0;
#X connect 16 0 52 0;
#X connect 17 0 64 0;
#X connect 18 0 21 0;
#X connect 19 0 20 0;
#X connect 20 0 1 1;
#X connect 21 0 19 0;
#X connect 22 0 2 0;
#X connect 23 0 26 0;
#X connect 24 0 25 0;
#X connect 25 0 22 1;
#X connect 26 0 24 0;
#X connect 27 0 2 0;
#X connect 28 0 31 0;
#X connect 29 0 30 0;
#X connect 30 0 27 1;
#X connect 31 0 29 0;
#X connect 32 0 2 0;
#X connect 33 0 36 0;
#X connect 34 0 35 0;
#X connect 35 0 32 1;
#X connect 36 0 34 0;
#X connect 37 0 2 0;
#X connect 38 0 41 0;
#X connect 39 0 40 0;
#X connect 40 0 37 1;
#X connect 41 0 39 0;
#X connect 42 0 2 0;
#X connect 43 0 46 0;
#X connect 44 0 45 0;
#X connect 45 0 42 1;
#X connect 46 0 44 0;
#X connect 47 0 2 0;
#X connect 48 0 51 0;
#X connect 49 0 50 0;
#X connect 50 0 47 1;
#X connect 51 0 49 0;
#X connect 52 0 2 0;
#X connect 53 0 56 0;
#X connect 54 0 55 0;
#X connect 55 0 52 1;
#X connect 56 0 54 0;
#X connect 57 0 18 0;
#X connect 58 0 23 0;
#X connect 59 0 28 0;
#X connect 60 0 33 0;
#X connect 61 0 38 0;
#X connect 62 0 43 0;
#X connect 63 0 48 0;
#X connect 64 0 53 0;
#X restore 635 564 pd ModulacionDeAmplificacion;
#X obj 439 434 bp~ 200 100;
#X obj 513 434 bp~ 300 100;
#X obj 586 434 bp~ 400 100;
#X obj 659 434 bp~ 550 100;
#X obj 732 434 bp~ 620 200;
#X obj 805 434 bp~ 680 200;
#X obj 878 434 bp~ 700 300;
#X obj 951 434 bp~ 800 300;
#X obj 168 374 t b b;
#X obj 218 373 t b b;
#X obj 104 104 cnv 15 102 102 empty empty empty 2 12 0 14 -262144 -66577
0;
#X obj 133 24 loadbang;
#X msg 133 46 1;
#X obj 106 163 cnv 10 27 27 empty empty empty 2 30 1 18 -33289 -1 0
;
#X obj 107 164 bng 25 250 50 0 empty empty ? 9 14 1 14 -3707 -33289
-1;
#X obj 110 148 cnv 10 10 10 empty empty atonal/tonal 2 5 1 9 -262144
-1 0;
#X obj 154 289 sel 1;
#X obj 152 314 t b b;
#X msg 179 338 0;
#X msg 143 338 1;
#X obj 222 314 t b b;
#X msg 249 338 0;
#X msg 213 338 1;
#X obj 102 198 cnv 10 10 10 empty empty ~out 0 6 1 9 -262144 -1 0;
#X obj 62 47 delay 20;
#X obj 112 120 cnv 8 8 8 empty empty ATMOS 2 5 1 13 -262144 -33289
0;
#X msg 233 62 100;
#X msg 829 622 0 \, 0.5 750;
#X obj 127 135 cnv 10 22 12 empty empty empty 2 7 1 9 -3707 -1 0;
#X obj 128 136 hradio 10 1 0 2 empty empty empty 0 -8 0 10 -3707 -33289
-1 1;
#X obj 913 620 / 16;
#X obj 173 123 vsl 30 64 0 127 0 0 empty empty amp 6 74 1 9 -66577
-3707 -1 5800 1;
#X obj 103 103 cnv 10 104 10 empty empty empty 20 12 0 14 -228856 -66577
0;
#X obj 102 103 cnv 10 10 10 empty empty trigIN 0 6 1 9 -228856 -1 0
;
#X obj 176 103 cnv 10 10 10 empty empty cvAMP 0 6 1 9 -228856 -1 0
;
#X obj 307 27 inlet TRIGGER_IN;
#X obj 497 27 inlet~ CV_AMP;
#X obj 233 615 preset_atmos;
#X obj 136 165 bng 10 250 50 0 empty empty save 12 6 1 9 -3707 -1 -1
;
#X obj 136 178 bng 10 250 50 0 empty empty open 12 6 1 9 -3707 -1 -1
;
#X obj 823 681 +~;
#X connect 0 0 14 0;
#X connect 1 0 12 0;
#X connect 2 0 22 0;
#X connect 2 0 23 0;
#X connect 2 0 24 0;
#X connect 2 0 25 0;
#X connect 2 0 26 0;
#X connect 2 0 27 0;
#X connect 2 0 28 0;
#X connect 2 0 29 0;
#X connect 4 0 22 1;
#X connect 4 0 59 1;
#X connect 5 0 23 1;
#X connect 5 0 59 2;
#X connect 6 0 24 1;
#X connect 6 0 59 3;
#X connect 7 0 25 1;
#X connect 7 0 59 4;
#X connect 8 0 26 1;
#X connect 8 0 59 5;
#X connect 9 0 27 1;
#X connect 9 0 59 6;
#X connect 10 0 28 1;
#X connect 10 0 59 7;
#X connect 11 0 29 1;
#X connect 11 0 59 8;
#X connect 12 0 4 0;
#X connect 12 1 5 0;
#X connect 12 2 6 0;
#X connect 12 3 7 0;
#X connect 12 4 8 0;
#X connect 12 5 9 0;
#X connect 12 6 10 0;
#X connect 12 7 11 0;
#X connect 13 0 21 1;
#X connect 13 0 59 9;
#X connect 13 1 21 3;
#X connect 13 1 59 10;
#X connect 13 2 21 5;
#X connect 13 2 59 11;
#X connect 13 3 21 7;
#X connect 13 3 59 12;
#X connect 13 4 21 9;
#X connect 13 4 59 13;
#X connect 13 5 21 11;
#X connect 13 5 59 14;
#X connect 13 6 21 13;
#X connect 13 6 59 15;
#X connect 13 7 21 15;
#X connect 13 7 59 16;
#X connect 14 0 22 1;
#X connect 14 0 59 1;
#X connect 14 1 23 1;
#X connect 14 1 59 2;
#X connect 14 2 24 1;
#X connect 14 2 59 3;
#X connect 14 3 25 1;
#X connect 14 3 59 4;
#X connect 14 4 26 1;
#X connect 14 4 59 5;
#X connect 14 5 27 1;
#X connect 14 5 59 6;
#X connect 14 6 28 1;
#X connect 14 6 59 7;
#X connect 14 7 29 1;
#X connect 14 7 59 8;
#X connect 16 0 17 1;
#X connect 17 0 19 0;
#X connect 18 0 62 0;
#X connect 19 0 15 0;
#X connect 20 0 18 0;
#X connect 21 0 17 0;
#X connect 22 0 21 0;
#X connect 23 0 21 2;
#X connect 24 0 21 4;
#X connect 25 0 21 6;
#X connect 26 0 21 8;
#X connect 27 0 21 10;
#X connect 28 0 21 12;
#X connect 29 0 21 14;
#X connect 30 0 0 0;
#X connect 30 1 49 0;
#X connect 31 0 1 0;
#X connect 31 1 49 0;
#X connect 33 0 34 0;
#X connect 33 0 46 0;
#X connect 33 0 48 0;
#X connect 34 0 38 0;
#X connect 36 0 13 0;
#X connect 36 0 30 0;
#X connect 36 0 31 0;
#X connect 38 0 39 0;
#X connect 38 1 42 0;
#X connect 39 0 41 0;
#X connect 39 1 40 0;
#X connect 40 0 0 1;
#X connect 41 0 1 1;
#X connect 42 0 44 0;
#X connect 42 1 43 0;
#X connect 43 0 1 1;
#X connect 44 0 0 1;
#X connect 46 0 36 0;
#X connect 48 0 53 0;
#X connect 49 0 16 0;
#X connect 51 0 38 0;
#X connect 52 0 20 0;
#X connect 53 0 52 0;
#X connect 53 0 59 17;
#X connect 57 0 36 0;
#X connect 58 0 62 1;
#X connect 59 0 22 1;
#X connect 59 1 23 1;
#X connect 59 2 24 1;
#X connect 59 3 25 1;
#X connect 59 4 26 1;
#X connect 59 5 27 1;
#X connect 59 6 28 1;
#X connect 59 7 29 1;
#X connect 59 8 21 1;
#X connect 59 9 21 3;
#X connect 59 10 21 5;
#X connect 59 11 21 7;
#X connect 59 12 21 9;
#X connect 59 13 21 11;
#X connect 59 14 21 13;
#X connect 59 15 21 15;
#X connect 59 16 53 0;
#X connect 60 0 59 0;
#X connect 61 0 59 18;
#X connect 62 0 19 1;
#X coords 0 -1 1 1 110 110 2 100 100;
