#N canvas 5 50 1905 1020 10;
#X obj 104 104 cnv 15 100 94 empty empty empty 20 12 0 14 -245500 -66577
0;
#X obj 209 104 cnv 15 200 45 empty empty empty 20 12 0 14 -3707 -66577
0;
#X obj 209 153 cnv 15 200 45 empty empty empty 20 12 0 14 -3707 -66577
0;
#X obj 432 104 cnv 15 40 94 empty empty empty 20 12 0 14 -13330 -66577
0;
#X obj 261 104 cnv 15 100 94 empty empty empty 20 12 0 14 -3707 -66577
0;
#X obj 219 126 hradio 10 1 0 12 empty empty empty 0 -8 0 10 -66577
-3707 -1 0;
#X obj 352 124 hradio 10 1 0 5 empty empty empty 0 -8 0 10 -66577 -3707
-1 1;
#X obj 96 421 phasor~;
#X obj 26 222 loadbang;
#X obj 107 115 vsl 15 24 1 24 0 0 empty empty empty 0 -9 0 10 -66577
-3707 -1 2100 1;
#X floatatom 107 145 2 0 0 0 - - -, f 2;
#X floatatom 127 145 2 0 0 0 - - -, f 2;
#X floatatom 147 145 2 0 0 0 - - -, f 2;
#X floatatom 167 145 2 0 0 0 - - -, f 2;
#X obj 324 427 phasor~;
#X obj 384 426 phasor~;
#X obj 444 426 phasor~;
#X obj 504 427 phasor~;
#X obj 95 658 *~;
#X obj 265 658 *~;
#X obj 324 406 +;
#X obj 384 406 +;
#X obj 444 406 +;
#X obj 504 407 +;
#X obj 342 386 * 1;
#X obj 402 386 * 2;
#X obj 462 386 * 3;
#X obj 519 383 * 4;
#X obj 186 115 vsl 15 24 0 2 0 0 empty empty empty 0 -9 0 10 -66577
-3707 -1 0 1;
#X obj 112 610 line~;
#X msg 112 590 \$1 20;
#X obj 162 610 line~;
#X msg 162 590 \$1 20;
#X obj 413 115 vsl 15 64 0 127 0 0 empty empty empty 0 -9 0 10 -66577
-3707 -1 4961 1;
#X obj 123 517 - 127;
#X obj 123 538 / -127;
#X obj 179 537 / 127;
#X obj 435 115 vsl 15 64 0 127 0 0 empty empty empty 0 -9 0 10 -66577
-3707 -1 4961 1;
#X obj 454 115 vsl 15 28 0 1 0 0 empty empty empty 0 -9 0 10 -66577
-3707 -1 2700 1;
#X obj 369 731 mtof;
#X obj 546 660 snapshot~;
#X msg 487 545 1;
#X obj 454 151 vsl 15 28 0 27 0 0 empty empty empty 0 -9 0 10 -66577
-3707 -1 400 1;
#X obj 369 753 +;
#X obj 475 681 t b b b;
#X obj 506 705 f;
#X obj 187 994 r onseq;
#X obj 39 738 mod 16;
#X obj 165 850 select 0 1 2 3 4 5 6 7 8 9 10 11 12 13 14 15;
#X obj 214 176 vradio 10 1 0 2 empty empty empty 0 -8 0 10 -66577 -3707
-1 0;
#X obj 226 176 vradio 10 1 0 2 empty empty empty 0 -8 0 10 -66577 -3707
-1 0;
#X obj 238 176 vradio 10 1 0 2 empty empty empty 0 -8 0 10 -66577 -3707
-1 1;
#X obj 250 176 vradio 10 1 0 2 empty empty empty 0 -8 0 10 -66577 -3707
-1 0;
#X obj 262 176 vradio 10 1 0 2 empty empty empty 0 -8 0 10 -66577 -3707
-1 0;
#X obj 274 176 vradio 10 1 0 2 empty empty empty 0 -8 0 10 -66577 -3707
-1 1;
#X obj 286 176 vradio 10 1 0 2 empty empty empty 0 -8 0 10 -66577 -3707
-1 1;
#X obj 298 176 vradio 10 1 0 2 empty empty empty 0 -8 0 10 -66577 -3707
-1 0;
#X obj 310 176 vradio 10 1 0 2 empty empty empty 0 -8 0 10 -66577 -3707
-1 1;
#X obj 322 176 vradio 10 1 0 2 empty empty empty 0 -8 0 10 -66577 -3707
-1 1;
#X obj 334 176 vradio 10 1 0 2 empty empty empty 0 -8 0 10 -66577 -3707
-1 0;
#X obj 346 176 vradio 10 1 0 2 empty empty empty 0 -8 0 10 -66577 -3707
-1 1;
#X obj 358 176 vradio 10 1 0 2 empty empty empty 0 -8 0 10 -66577 -3707
-1 0;
#X obj 370 176 vradio 10 1 0 2 empty empty empty 0 -8 0 10 -66577 -3707
-1 1;
#X obj 382 176 vradio 10 1 0 2 empty empty empty 0 -8 0 10 -66577 -3707
-1 1;
#X obj 394 176 vradio 10 1 0 2 empty empty empty 0 -8 0 10 -66577 -3707
-1 1;
#X obj 76 1000 line~;
#X obj 57 1020 *~;
#X obj 127 115 vsl 15 24 1 24 0 0 empty empty empty 0 -9 0 10 -66577
-3707 -1 1700 1;
#X obj 147 115 vsl 15 24 1 24 0 0 empty empty empty 0 -9 0 10 -66577
-3707 -1 400 1;
#X obj 167 115 vsl 15 24 1 24 0 0 empty empty empty 0 -9 0 10 -66577
-3707 -1 0 1;
#X obj 220 113 cnv 8 8 10 empty empty empty 20 12 0 14 -253822 -66577
0;
#X obj 230 113 cnv 8 8 10 empty empty empty 20 12 0 14 -66577 -66577
0;
#X obj 240 113 cnv 8 8 10 empty empty empty 20 12 0 14 -253822 -66577
0;
#X obj 250 113 cnv 8 8 10 empty empty empty 20 12 0 14 -66577 -66577
0;
#X obj 260 113 cnv 8 8 10 empty empty empty 20 12 0 14 -253822 -66577
0;
#X obj 270 113 cnv 8 8 10 empty empty empty 20 12 0 14 -253822 -66577
0;
#X obj 280 113 cnv 8 8 10 empty empty empty 20 12 0 14 -66577 -66577
0;
#X obj 290 113 cnv 8 8 10 empty empty empty 20 12 0 14 -253822 -66577
0;
#X obj 300 113 cnv 8 8 10 empty empty empty 20 12 0 14 -66577 -66577
0;
#X obj 310 113 cnv 8 8 10 empty empty empty 20 12 0 14 -253822 -66577
0;
#X obj 320 113 cnv 8 8 10 empty empty empty 20 12 0 14 -66577 -66577
0;
#X obj 330 113 cnv 8 8 10 empty empty empty 20 12 0 14 -253822 -66577
0;
#X obj 116 1020 line~;
#X obj 97 1040 *~;
#X msg 116 1001 \$1 20;
#X obj 476 115 vsl 30 64 0 127 0 0 empty empty empty 0 -9 0 10 -66577
-3707 -1 4961 1;
#X obj 116 979 / 127;
#X obj 545 616 osc~;
#X obj 545 638 +~ 1;
#X obj 655 7 loadbang;
#X obj 215 201 bng 8 250 50 0 empty empty empty 17 7 0 10 -66577 -3707
-1;
#X obj 226 202 cnv 6 10 6 empty empty gate 0 4 1 9 -262144 -1 0;
#X obj 219 139 cnv 6 10 6 empty empty 1st.tone 0 4 1 9 -3707 -1 0;
#X obj 385 139 cnv 6 10 6 empty empty oct 0 4 1 9 -3707 -1 0;
#X obj 413 187 cnv 6 10 6 empty empty mix 0 4 1 9 -262144 -1 0;
#X obj 436 187 cnv 6 10 6 empty empty BP 0 4 1 9 -13330 -3707 0;
#X obj 483 187 cnv 6 10 6 empty empty amp 0 4 1 9 -262144 -1 0;
#N canvas 349 222 450 300 creaciondeacorde 0;
#X obj 14 12 inlet;
#X obj 14 247 unpack 0 0 0 0;
#X obj 14 272 outlet;
#X obj 64 272 outlet;
#X obj 114 272 outlet;
#X obj 164 272 outlet;
#X msg 14 75 4 7 11 12;
#X msg 29 98 3 7 10 12;
#X msg 45 120 4 7 11 14;
#X msg 59 141 3 7 10 14;
#X msg 128 74 2 3 7 10;
#X msg 147 96 2 3 5 10;
#X msg 165 119 3 5 8 10;
#X msg 186 140 2 7 11 14;
#X msg 202 161 2 3 5 8;
#X msg 218 182 5 7 10 13;
#X msg 221 75 6 9 11 16;
#X msg 244 99 7 9 16 23;
#X msg 263 121 3 5 10 14;
#X msg 280 144 3 8 14 19;
#X msg 300 166 5 9 11 14;
#X msg 310 185 8 13 15 16;
#X obj 14 34 select 0 1 2 3 4 5 6 7 8 9 10 11 12 13 14 15 16 17;
#X msg 323 207 5 12 15 19;
#X connect 0 0 22 0;
#X connect 1 0 2 0;
#X connect 1 1 3 0;
#X connect 1 2 4 0;
#X connect 1 3 5 0;
#X connect 6 0 1 0;
#X connect 7 0 1 0;
#X connect 8 0 1 0;
#X connect 9 0 1 0;
#X connect 10 0 1 0;
#X connect 11 0 1 0;
#X connect 12 0 1 0;
#X connect 13 0 1 0;
#X connect 14 0 1 0;
#X connect 15 0 1 0;
#X connect 16 0 1 0;
#X connect 17 0 1 0;
#X connect 18 0 1 0;
#X connect 19 0 1 0;
#X connect 20 0 1 0;
#X connect 21 0 1 0;
#X connect 22 1 6 0;
#X connect 22 2 7 0;
#X connect 22 3 8 0;
#X connect 22 4 9 0;
#X connect 22 5 10 0;
#X connect 22 6 11 0;
#X connect 22 7 12 0;
#X connect 22 8 13 0;
#X connect 22 9 14 0;
#X connect 22 10 15 0;
#X connect 22 11 16 0;
#X connect 22 12 17 0;
#X connect 22 13 18 0;
#X connect 22 14 19 0;
#X connect 22 15 20 0;
#X connect 22 16 21 0;
#X connect 22 17 23 0;
#X connect 23 0 1 0;
#X restore 107 58 pd creaciondeacorde;
#X floatatom 187 177 2 0 17 0 - - -, f 2;
#X obj 186 168 cnv 6 10 6 empty empty type 0 4 1 9 -253822 -1 0;
#N canvas 348 159 655 308 randomchord 0;
#X obj 8 8 inlet;
#X obj 10 270 outlet;
#X obj 60 270 outlet;
#X obj 110 270 outlet;
#X obj 160 270 outlet;
#X obj 6 98 random 24;
#X obj 6 120 + 1;
#X obj 76 98 random 24;
#X obj 76 120 + 1;
#X obj 146 98 random 24;
#X obj 146 120 + 1;
#X obj 216 98 random 24;
#X obj 216 120 + 1;
#X connect 0 0 5 0;
#X connect 0 0 7 0;
#X connect 0 0 9 0;
#X connect 0 0 11 0;
#X connect 5 0 6 0;
#X connect 6 0 1 0;
#X connect 7 0 8 0;
#X connect 8 0 2 0;
#X connect 9 0 10 0;
#X connect 10 0 3 0;
#X connect 11 0 12 0;
#X connect 12 0 4 0;
#X restore 230 57 pd randomchord;
#X obj 188 154 bng 10 250 50 0 empty empty empty 17 7 0 10 -66577 -3707
-1;
#X obj 187 145 cnv 6 10 6 empty empty rnd 0 4 1 9 -253822 -1 0;
#X obj 546 685 *;
#X obj 546 707 pow 2;
#X obj 351 114 cnv 6 10 6 empty empty c 0 4 1 12 -3707 -1 0;
#X floatatom 296 143 2 1 12 0 - - -, f 2;
#X floatatom 312 143 2 1 12 0 - - -, f 2;
#X obj 9 56 spigot;
#X floatatom 328 143 2 1 12 0 - - -, f 2;
#X floatatom 344 143 2 1 12 0 - - -, f 2;
#X obj 9 34 mod 4;
#X obj 9 76 select 0 1 2 3;
#X obj 264 146 tgl 10 0 empty empty empty 17 7 0 10 -66577 -3707 -1
0 1;
#X obj 276 148 cnv 6 14 6 empty empty seq 0 4 1 9 -3707 -1 0;
#X obj 361 114 cnv 6 10 6 empty empty o 0 4 1 12 -3707 -1 0;
#X obj 372 114 cnv 6 10 6 empty empty r 0 4 1 12 -3707 -1 0;
#X obj 381 114 cnv 6 10 6 empty empty a 0 4 1 12 -3707 -1 0;
#X obj 391 114 cnv 6 10 6 empty empty l 0 4 1 12 -3707 -1 0;
#X obj 10 10 f;
#X obj 38 11 + 1;
#X floatatom 296 159 2 1 12 0 - - -, f 2;
#X floatatom 312 159 2 1 12 0 - - -, f 2;
#X floatatom 328 159 2 1 12 0 - - -, f 2;
#X floatatom 344 159 2 1 12 0 - - -, f 2;
#X obj 9 136 spigot;
#X obj 9 114 mod 4;
#X obj 9 156 select 0 1 2 3;
#X obj 264 160 tgl 10 0 empty empty empty 17 7 0 10 -66577 -3707 -1
1 1;
#X obj 276 162 cnv 6 14 6 empty empty tch 0 4 1 9 -3707 -1 0;
#X obj 187 1022 select 0 1;
#X msg 187 1046 0;
#X msg 217 1046 1;
#X obj 371 65 f;
#X obj 401 65 f;
#X obj 431 65 f;
#X obj 461 65 f;
#X obj 491 65 f;
#X obj 521 65 f;
#X obj 551 65 f;
#X obj 581 65 f;
#N canvas 297 221 543 303 randomgatesequence16steps 0;
#X obj 16 17 inlet;
#X obj 18 63 random 2;
#X obj 78 63 random 2;
#X obj 138 63 random 2;
#X obj 198 63 random 2;
#X obj 258 63 random 2;
#X obj 318 63 random 2;
#X obj 378 63 random 2;
#X obj 438 63 random 2;
#X obj 28 83 random 2;
#X obj 88 83 random 2;
#X obj 148 83 random 2;
#X obj 208 83 random 2;
#X obj 268 83 random 2;
#X obj 328 83 random 2;
#X obj 388 83 random 2;
#X obj 448 83 random 2;
#X obj 13 155 outlet;
#X obj 55 155 outlet;
#X obj 97 155 outlet;
#X obj 139 155 outlet;
#X obj 181 155 outlet;
#X obj 223 155 outlet;
#X obj 265 155 outlet;
#X obj 307 155 outlet;
#X obj 33 175 outlet;
#X obj 75 175 outlet;
#X obj 117 175 outlet;
#X obj 159 175 outlet;
#X obj 201 175 outlet;
#X obj 243 175 outlet;
#X obj 285 175 outlet;
#X obj 327 175 outlet;
#X connect 0 0 1 0;
#X connect 0 0 2 0;
#X connect 0 0 9 0;
#X connect 0 0 10 0;
#X connect 0 0 3 0;
#X connect 0 0 4 0;
#X connect 0 0 5 0;
#X connect 0 0 6 0;
#X connect 0 0 7 0;
#X connect 0 0 8 0;
#X connect 0 0 11 0;
#X connect 0 0 12 0;
#X connect 0 0 13 0;
#X connect 0 0 14 0;
#X connect 0 0 15 0;
#X connect 0 0 16 0;
#X connect 1 0 17 0;
#X connect 2 0 18 0;
#X connect 3 0 19 0;
#X connect 4 0 20 0;
#X connect 5 0 21 0;
#X connect 6 0 22 0;
#X connect 7 0 23 0;
#X connect 8 0 24 0;
#X connect 9 0 25 0;
#X connect 10 0 26 0;
#X connect 11 0 27 0;
#X connect 12 0 28 0;
#X connect 13 0 29 0;
#X connect 14 0 30 0;
#X connect 15 0 31 0;
#X connect 16 0 32 0;
#X restore 149 27 pd randomgatesequence16steps;
#X obj 215 165 bng 8 250 50 0 empty empty empty 17 7 0 10 -66577 -3707
-1;
#X obj 226 166 cnv 6 10 6 empty empty rndg 0 4 1 9 -3707 -1 0;
#X floatatom 390 159 2 1 16 0 - - -, f 2;
#X obj 374 163 cnv 6 10 6 empty empty rdx 0 4 1 9 -3707 -1 0;
#X obj 456 187 cnv 6 10 6 empty empty lfo 0 4 1 9 -13330 -3707 0;
#X obj 104 202 cnv 6 10 6 empty empty mixout 0 4 1 9 -262144 -1 0;
#X obj 97 1060 *~ 1;
#X obj 39 713 r pscorchea;
#X obj 298 987 t f b;
#X obj 324 1022 f;
#X floatatom 107 177 4 20 1000 0 - - -, f 4;
#X obj 285 1060 pack f f;
#X text 203 560 comment;
#X obj 476 649 metro 20;
#X msg 369 708 \$1 40;
#N canvas 320 217 675 300 selectornota 0;
#X obj 7 12 inlet fundamental;
#X obj 127 12 inlet octava;
#X obj 583 12 inlet trigger;
#X obj 127 35 sel 0 1 2 3 4;
#X obj 7 35 + 60;
#X obj 7 101 f;
#X msg 125 65 -36;
#X msg 155 65 -24;
#X msg 185 65 -12;
#X msg 215 65 0;
#X msg 245 65 12;
#X obj 299 12 inlet 2da;
#X obj 360 12 inlet 3ra;
#X obj 421 12 inlet 4ta;
#X obj 482 12 inlet 5ta;
#X obj 19 254 outlet fundamental;
#X obj 19 230 mtof;
#X obj 92 151 +;
#X obj 232 193 +;
#X obj 282 193 +;
#X obj 332 193 +;
#X obj 382 193 +;
#X obj 139 230 mtof;
#X obj 259 230 mtof;
#X obj 379 230 mtof;
#X obj 499 230 mtof;
#X obj 139 254 outlet 2da;
#X obj 259 254 outlet 3ra;
#X obj 379 254 outlet 4ta;
#X obj 499 254 outlet 5ta;
#X msg 583 34 bang;
#X connect 0 0 4 0;
#X connect 1 0 3 0;
#X connect 2 0 30 0;
#X connect 3 0 6 0;
#X connect 3 1 7 0;
#X connect 3 2 8 0;
#X connect 3 3 9 0;
#X connect 3 4 10 0;
#X connect 4 0 5 1;
#X connect 5 0 17 0;
#X connect 6 0 17 1;
#X connect 7 0 17 1;
#X connect 8 0 17 1;
#X connect 9 0 17 1;
#X connect 10 0 17 1;
#X connect 11 0 18 1;
#X connect 12 0 19 1;
#X connect 13 0 20 1;
#X connect 14 0 21 1;
#X connect 16 0 15 0;
#X connect 17 0 18 0;
#X connect 17 0 19 0;
#X connect 17 0 20 0;
#X connect 17 0 21 0;
#X connect 17 0 16 0;
#X connect 18 0 22 0;
#X connect 19 0 23 0;
#X connect 20 0 24 0;
#X connect 21 0 25 0;
#X connect 22 0 26 0;
#X connect 23 0 27 0;
#X connect 24 0 28 0;
#X connect 25 0 29 0;
#X connect 30 0 5 0;
#X restore 63 345 pd selectornota;
#X obj 23 263 t b b b b b b b;
#X msg 167 226 5;
#X obj 265 701 bp~ 500 8;
#X obj 96 464 *~ 0.1;
#X obj 96 442 *~ 1;
#X obj 504 471 *~ 0.1;
#X obj 504 449 *~ 1;
#X obj 444 470 *~ 0.1;
#X obj 444 448 *~ 1;
#X obj 384 470 *~ 0.1;
#X obj 384 448 *~ 1;
#X obj 324 470 *~ 0.1;
#X obj 324 448 *~ 1;
#X obj 109 163 tgl 10 0 empty empty empty 17 7 0 10 -66577 -3707 -1
1 1;
#X obj 129 163 tgl 10 0 empty empty empty 17 7 0 10 -66577 -3707 -1
1 1;
#X obj 149 163 tgl 10 0 empty empty empty 17 7 0 10 -66577 -3707 -1
1 1;
#X obj 169 163 tgl 10 0 empty empty empty 17 7 0 10 -66577 -3707 -1
1 1;
#X msg 61 111 1;
#X obj 135 181 cnv 6 10 6 empty empty ml 0 4 1 9 -253822 -1 0;
#X obj 397 112 cnv 6 10 6 empty empty v1 0 4 1 9 -3707 -1 0;
#X msg 365 33 16;
#X msg 399 34 100;
#X obj 165 872 f;
#X obj 184 892 f;
#X obj 203 912 f;
#X obj 222 932 f;
#X obj 241 872 f;
#X obj 260 892 f;
#X obj 279 912 f;
#X obj 298 932 f;
#X obj 317 872 f;
#X obj 336 892 f;
#X obj 355 912 f;
#X obj 374 932 f;
#X obj 393 872 f;
#X obj 412 892 f;
#X obj 431 912 f;
#X obj 450 932 f;
#X obj 96 1089 outlet~;
#X obj 265 747 *~ 8;
#X msg 47 190 20;
#X obj 159 176 cnv 6 10 6 empty empty save 0 4 1 9 -253822 -1 0;
#X obj 159 186 cnv 6 10 6 empty empty open 0 4 1 9 -253822 -1 0;
#X obj 149 176 bng 8 250 50 0 empty empty empty 17 7 0 10 -66577 -3707
-1;
#X obj 149 186 bng 8 250 50 0 empty empty empty 17 7 0 10 -66577 -3707
-1;
#X obj 499 309 preset_coral;
#X obj 39 767 + 0;
#X msg 96 742 0;
#X obj 141 732 f;
#X obj 142 754 + 1;
#X obj 39 790 mod 16;
#X obj 142 776 mod 15;
#X obj 215 155 bng 8 250 50 0 empty empty empty 17 7 0 10 -66577 -3707
-1;
#X obj 226 156 cnv 6 10 6 empty empty +1 0 4 1 9 -3707 -1 0;
#X obj 239 155 bng 8 250 50 0 empty empty empty 17 7 0 10 -66577 -3707
-1;
#X obj 250 156 cnv 6 10 6 empty empty 0 0 4 1 9 -3707 -1 0;
#X obj 648 74 r notes;
#X obj 648 100 unpack;
#X floatatom 648 129 5 0 0 0 - - -, f 5;
#X obj 644 155 sel 60 61 62 63 64;
#X obj 644 178 bng 8 250 50 0 empty empty empty 17 7 0 10 -262144 -1
-1;
#X obj 649 183 bng 8 250 50 0 empty empty empty 17 7 0 10 -262144 -1
-1;
#X obj 782 197 bng 8 250 50 0 empty empty empty 17 7 0 10 -262144 -1
-1;
#X obj 972 238 bng 8 250 50 0 empty empty empty 17 7 0 10 -262144 -1
-1;
#X obj 703 214 bng 8 250 50 0 empty empty empty 17 7 0 10 -262144 -1
-1;
#X msg 332 34 1;
#X msg 436 36 4;
#X obj 844 162 spigot;
#X obj 907 126 tgl 15 0 empty empty empty 17 7 0 10 -262144 -1 -1 0
1;
#X obj 841 204 tgl 15 0 empty empty empty 17 7 0 10 -262144 -1 -1 0
1;
#X obj 1009 269 spigot;
#X obj 1072 233 tgl 15 0 empty empty empty 17 7 0 10 -262144 -1 -1
0 1;
#X obj 1006 311 tgl 15 0 empty empty empty 17 7 0 10 -262144 -1 -1
1 1;
#X connect 5 0 157 0;
#X connect 5 0 203 23;
#X connect 6 0 157 1;
#X connect 6 0 203 24;
#X connect 7 0 162 0;
#X connect 8 0 41 0;
#X connect 8 0 158 0;
#X connect 8 0 198 0;
#X connect 8 0 175 0;
#X connect 9 0 10 0;
#X connect 9 0 203 17;
#X connect 10 0 157 2;
#X connect 11 0 157 3;
#X connect 14 0 170 0;
#X connect 15 0 168 0;
#X connect 16 0 166 0;
#X connect 17 0 164 0;
#X connect 18 0 66 0;
#X connect 19 0 160 0;
#X connect 20 0 14 0;
#X connect 21 0 15 0;
#X connect 22 0 16 0;
#X connect 23 0 17 0;
#X connect 24 0 20 1;
#X connect 25 0 21 1;
#X connect 26 0 22 1;
#X connect 27 0 23 1;
#X connect 28 0 27 0;
#X connect 28 0 26 0;
#X connect 28 0 25 0;
#X connect 28 0 24 0;
#X connect 28 0 203 21;
#X connect 29 0 18 1;
#X connect 30 0 29 0;
#X connect 31 0 19 1;
#X connect 32 0 31 0;
#X connect 33 0 34 0;
#X connect 33 0 36 0;
#X connect 33 0 203 26;
#X connect 34 0 35 0;
#X connect 35 0 30 0;
#X connect 36 0 32 0;
#X connect 37 0 156 0;
#X connect 37 0 203 27;
#X connect 38 0 87 0;
#X connect 38 0 203 29;
#X connect 39 0 43 0;
#X connect 40 0 103 0;
#X connect 41 0 49 0;
#X connect 41 0 52 0;
#X connect 41 0 59 0;
#X connect 41 0 60 0;
#X connect 41 0 155 0;
#X connect 42 0 103 1;
#X connect 42 0 203 28;
#X connect 43 0 160 1;
#X connect 44 0 37 0;
#X connect 44 1 45 0;
#X connect 44 2 40 0;
#X connect 45 0 43 1;
#X connect 46 0 130 0;
#X connect 47 0 204 0;
#X connect 48 0 90 0;
#X connect 48 0 119 0;
#X connect 48 0 180 0;
#X connect 48 1 181 0;
#X connect 48 2 182 0;
#X connect 48 3 183 0;
#X connect 48 4 184 0;
#X connect 48 5 185 0;
#X connect 48 6 186 0;
#X connect 48 7 187 0;
#X connect 48 8 188 0;
#X connect 48 9 189 0;
#X connect 48 10 190 0;
#X connect 48 11 191 0;
#X connect 48 12 192 0;
#X connect 48 13 193 0;
#X connect 48 14 194 0;
#X connect 48 15 195 0;
#X connect 49 0 180 1;
#X connect 49 0 203 1;
#X connect 50 0 181 1;
#X connect 50 0 203 2;
#X connect 51 0 182 1;
#X connect 51 0 203 3;
#X connect 52 0 183 1;
#X connect 52 0 203 4;
#X connect 53 0 184 1;
#X connect 53 0 203 5;
#X connect 54 0 185 1;
#X connect 54 0 203 6;
#X connect 55 0 186 1;
#X connect 55 0 203 7;
#X connect 56 0 187 1;
#X connect 56 0 203 8;
#X connect 57 0 188 1;
#X connect 57 0 203 9;
#X connect 58 0 189 1;
#X connect 58 0 203 10;
#X connect 59 0 190 1;
#X connect 59 0 203 11;
#X connect 60 0 191 1;
#X connect 60 0 203 12;
#X connect 61 0 192 1;
#X connect 61 0 203 13;
#X connect 62 0 193 1;
#X connect 62 0 203 14;
#X connect 63 0 194 1;
#X connect 63 0 203 15;
#X connect 64 0 195 1;
#X connect 64 0 203 16;
#X connect 65 0 66 1;
#X connect 66 0 83 0;
#X connect 67 0 11 0;
#X connect 67 0 203 18;
#X connect 68 0 12 0;
#X connect 68 0 157 4;
#X connect 68 0 203 19;
#X connect 69 0 13 0;
#X connect 69 0 157 5;
#X connect 69 0 203 20;
#X connect 82 0 83 1;
#X connect 83 0 148 0;
#X connect 84 0 82 0;
#X connect 85 0 86 0;
#X connect 86 0 84 0;
#X connect 87 0 88 0;
#X connect 88 0 40 0;
#X connect 89 0 223 0;
#X connect 89 0 178 0;
#X connect 89 0 179 0;
#X connect 89 0 224 0;
#X connect 97 0 9 0;
#X connect 97 1 67 0;
#X connect 97 2 68 0;
#X connect 97 3 69 0;
#X connect 98 0 97 0;
#X connect 100 0 9 0;
#X connect 100 1 67 0;
#X connect 100 2 68 0;
#X connect 100 3 69 0;
#X connect 101 0 100 0;
#X connect 103 0 104 0;
#X connect 104 0 45 1;
#X connect 106 0 133 1;
#X connect 106 0 203 32;
#X connect 107 0 134 1;
#X connect 107 0 203 33;
#X connect 108 0 112 0;
#X connect 109 0 135 1;
#X connect 109 0 203 34;
#X connect 110 0 136 1;
#X connect 110 0 203 35;
#X connect 111 0 108 0;
#X connect 112 0 133 0;
#X connect 112 1 134 0;
#X connect 112 2 135 0;
#X connect 112 3 136 0;
#X connect 113 0 108 1;
#X connect 113 0 203 30;
#X connect 119 0 120 0;
#X connect 119 0 111 0;
#X connect 119 0 126 0;
#X connect 120 0 119 1;
#X connect 121 0 137 1;
#X connect 121 0 203 36;
#X connect 122 0 138 1;
#X connect 122 0 203 37;
#X connect 123 0 139 1;
#X connect 123 0 203 38;
#X connect 124 0 140 1;
#X connect 124 0 203 39;
#X connect 125 0 127 0;
#X connect 126 0 125 0;
#X connect 127 0 137 0;
#X connect 127 1 138 0;
#X connect 127 2 139 0;
#X connect 127 3 140 0;
#X connect 128 0 125 1;
#X connect 128 0 203 31;
#X connect 130 0 131 0;
#X connect 130 1 132 0;
#X connect 131 0 148 1;
#X connect 132 0 148 1;
#X connect 133 0 5 0;
#X connect 134 0 5 0;
#X connect 135 0 5 0;
#X connect 136 0 5 0;
#X connect 137 0 98 0;
#X connect 138 0 98 0;
#X connect 139 0 98 0;
#X connect 140 0 98 0;
#X connect 141 0 49 0;
#X connect 141 1 50 0;
#X connect 141 2 51 0;
#X connect 141 3 52 0;
#X connect 141 4 53 0;
#X connect 141 5 54 0;
#X connect 141 6 55 0;
#X connect 141 7 56 0;
#X connect 141 8 57 0;
#X connect 141 9 58 0;
#X connect 141 10 59 0;
#X connect 141 11 60 0;
#X connect 141 12 61 0;
#X connect 141 13 62 0;
#X connect 141 14 63 0;
#X connect 141 15 64 0;
#X connect 142 0 141 0;
#X connect 144 0 47 1;
#X connect 144 0 203 25;
#X connect 148 0 196 0;
#X connect 149 0 47 0;
#X connect 149 0 157 6;
#X connect 150 0 153 0;
#X connect 150 1 151 0;
#X connect 151 0 153 1;
#X connect 152 0 151 1;
#X connect 152 0 203 22;
#X connect 153 0 65 0;
#X connect 155 0 44 0;
#X connect 156 0 39 0;
#X connect 157 0 7 0;
#X connect 157 1 20 0;
#X connect 157 2 21 0;
#X connect 157 3 22 0;
#X connect 157 4 23 0;
#X connect 158 0 5 0;
#X connect 158 1 6 0;
#X connect 158 2 9 0;
#X connect 158 3 67 0;
#X connect 158 4 68 0;
#X connect 158 5 69 0;
#X connect 158 6 159 0;
#X connect 159 0 98 0;
#X connect 160 0 197 0;
#X connect 161 0 18 0;
#X connect 161 0 19 0;
#X connect 162 0 161 0;
#X connect 163 0 18 0;
#X connect 163 0 19 0;
#X connect 164 0 163 0;
#X connect 165 0 18 0;
#X connect 165 0 19 0;
#X connect 166 0 165 0;
#X connect 167 0 18 0;
#X connect 167 0 19 0;
#X connect 168 0 167 0;
#X connect 169 0 18 0;
#X connect 169 0 19 0;
#X connect 170 0 169 0;
#X connect 171 0 170 1;
#X connect 172 0 168 1;
#X connect 173 0 166 1;
#X connect 174 0 164 1;
#X connect 175 0 171 0;
#X connect 175 0 172 0;
#X connect 175 0 173 0;
#X connect 175 0 174 0;
#X connect 178 0 144 0;
#X connect 179 0 33 0;
#X connect 179 0 85 0;
#X connect 179 0 37 0;
#X connect 180 0 150 0;
#X connect 181 0 150 0;
#X connect 182 0 150 0;
#X connect 183 0 150 0;
#X connect 184 0 150 0;
#X connect 185 0 150 0;
#X connect 186 0 150 0;
#X connect 187 0 150 0;
#X connect 188 0 150 0;
#X connect 189 0 150 0;
#X connect 190 0 150 0;
#X connect 191 0 150 0;
#X connect 192 0 150 0;
#X connect 193 0 150 0;
#X connect 194 0 150 0;
#X connect 195 0 150 0;
#X connect 197 0 66 0;
#X connect 198 0 152 0;
#X connect 201 0 203 0;
#X connect 202 0 203 40;
#X connect 203 0 49 0;
#X connect 203 1 50 0;
#X connect 203 2 51 0;
#X connect 203 3 52 0;
#X connect 203 4 53 0;
#X connect 203 5 54 0;
#X connect 203 6 55 0;
#X connect 203 7 56 0;
#X connect 203 8 57 0;
#X connect 203 9 58 0;
#X connect 203 10 59 0;
#X connect 203 11 60 0;
#X connect 203 12 61 0;
#X connect 203 13 62 0;
#X connect 203 14 63 0;
#X connect 203 15 64 0;
#X connect 203 16 9 0;
#X connect 203 17 67 0;
#X connect 203 18 68 0;
#X connect 203 19 69 0;
#X connect 203 20 28 0;
#X connect 203 21 152 0;
#X connect 203 22 5 0;
#X connect 203 23 6 0;
#X connect 203 24 144 0;
#X connect 203 25 33 0;
#X connect 203 26 37 0;
#X connect 203 27 42 0;
#X connect 203 28 38 0;
#X connect 203 29 113 0;
#X connect 203 30 128 0;
#X connect 203 31 106 0;
#X connect 203 32 107 0;
#X connect 203 33 109 0;
#X connect 203 34 110 0;
#X connect 203 35 121 0;
#X connect 203 36 122 0;
#X connect 203 37 123 0;
#X connect 203 38 124 0;
#X connect 204 0 208 0;
#X connect 205 0 204 1;
#X connect 206 0 207 0;
#X connect 207 0 206 1;
#X connect 207 0 209 0;
#X connect 208 0 48 0;
#X connect 209 0 204 1;
#X connect 210 0 206 0;
#X connect 212 0 205 0;
#X connect 214 0 215 0;
#X connect 215 0 216 0;
#X connect 216 0 217 0;
#X connect 217 0 218 0;
#X connect 217 1 219 0;
#X connect 217 2 220 0;
#X connect 217 3 221 0;
#X connect 217 4 222 0;
#X connect 218 0 142 0;
#X connect 219 0 101 0;
#X connect 220 0 225 0;
#X connect 220 0 226 0;
#X connect 221 0 228 0;
#X connect 221 0 229 0;
#X connect 222 0 210 0;
#X connect 223 0 6 0;
#X connect 224 0 5 0;
#X connect 224 0 42 0;
#X connect 224 0 38 0;
#X connect 225 0 227 0;
#X connect 226 0 225 1;
#X connect 227 0 113 0;
#X connect 228 0 230 0;
#X connect 229 0 228 1;
#X connect 230 0 128 0;
#X coords 0 -1 1 1 410 112 2 100 100;
