#N canvas 0 54 1024 546 10;
#X obj 360 345 outlet~;
#N canvas 279 144 559 450 dronegenerator 0;
#X obj 7 8 inlet;
#X obj 48 8 inlet;
#X obj 89 8 inlet;
#X obj 128 8 inlet;
#X obj 170 8 inlet;
#X obj 106 195 osc~;
#X obj 106 173 mtof;
#X obj 106 217 *~ 50;
#X obj 106 239 clip~ -0.5 0.5;
#X obj 106 334 *~;
#X obj 230 239 line~;
#X msg 230 180 0 \, 1 \$1;
#X msg 297 180 0 \$1;
#X obj 230 157 f;
#X obj 297 157 f;
#X obj 230 68 metro;
#X obj 428 53 t b f;
#X obj 428 101 +;
#X msg 410 76 0;
#X floatatom 428 123 5 0 0 0 - - -, f 5;
#X obj 498 53 t b f;
#X floatatom 498 123 5 0 0 0 - - -, f 5;
#X msg 480 76 100;
#X obj 498 101 -;
#X obj 426 211 *;
#X obj 426 246 / 100;
#X floatatom 426 268 5 0 0 0 - - -, f 5;
#X obj 307 74 t b f;
#X obj 506 211 *;
#X obj 506 246 / 100;
#X floatatom 506 268 5 0 0 0 - - -, f 5;
#X obj 297 127 delay;
#X obj 310 291 line;
#X msg 310 270 0 \, 101 \$1;
#X obj 310 251 f;
#X obj 105 285 vcf~;
#X obj 118 265 mtof;
#X obj 106 368 outlet~;
#X obj 170 367 outlet;
#X obj 216 8 inlet;
#X obj 219 367 outlet;
#X connect 0 0 6 0;
#X connect 1 0 15 1;
#X connect 1 0 27 0;
#X connect 1 0 34 1;
#X connect 2 0 35 2;
#X connect 3 0 36 0;
#X connect 4 0 16 0;
#X connect 4 0 20 0;
#X connect 5 0 7 0;
#X connect 6 0 5 0;
#X connect 7 0 8 0;
#X connect 8 0 35 0;
#X connect 9 0 37 0;
#X connect 10 0 9 1;
#X connect 11 0 10 0;
#X connect 12 0 10 0;
#X connect 13 0 11 0;
#X connect 14 0 12 0;
#X connect 15 0 13 0;
#X connect 15 0 31 0;
#X connect 15 0 34 0;
#X connect 16 0 18 0;
#X connect 16 1 17 1;
#X connect 17 0 19 0;
#X connect 18 0 17 0;
#X connect 19 0 24 0;
#X connect 20 0 22 0;
#X connect 20 1 23 1;
#X connect 21 0 28 0;
#X connect 22 0 23 0;
#X connect 23 0 21 0;
#X connect 24 0 25 0;
#X connect 25 0 26 0;
#X connect 26 0 13 1;
#X connect 26 0 31 1;
#X connect 27 0 38 0;
#X connect 27 1 24 1;
#X connect 27 1 28 1;
#X connect 28 0 29 0;
#X connect 29 0 30 0;
#X connect 30 0 14 1;
#X connect 31 0 14 0;
#X connect 32 0 40 0;
#X connect 33 0 32 0;
#X connect 34 0 33 0;
#X connect 35 0 9 0;
#X connect 36 0 35 1;
#X connect 39 0 15 0;
#X restore 31 202 pd dronegenerator;
#N canvas 282 139 559 450 dronegenerator 0;
#X obj 7 8 inlet;
#X obj 48 8 inlet;
#X obj 89 8 inlet;
#X obj 128 8 inlet;
#X obj 170 8 inlet;
#X obj 106 195 osc~;
#X obj 106 173 mtof;
#X obj 106 217 *~ 50;
#X obj 106 239 clip~ -0.5 0.5;
#X obj 106 334 *~;
#X obj 230 239 line~;
#X msg 230 180 0 \, 1 \$1;
#X msg 297 180 0 \$1;
#X obj 230 157 f;
#X obj 297 157 f;
#X obj 230 68 metro;
#X obj 428 53 t b f;
#X obj 428 101 +;
#X msg 410 76 0;
#X floatatom 428 123 5 0 0 0 - - -, f 5;
#X obj 498 53 t b f;
#X floatatom 498 123 5 0 0 0 - - -, f 5;
#X msg 480 76 100;
#X obj 498 101 -;
#X obj 426 211 *;
#X obj 426 246 / 100;
#X floatatom 426 268 5 0 0 0 - - -, f 5;
#X obj 307 74 t b f;
#X obj 506 211 *;
#X obj 506 246 / 100;
#X floatatom 506 268 5 0 0 0 - - -, f 5;
#X obj 297 127 delay;
#X obj 310 291 line;
#X msg 310 270 0 \, 101 \$1;
#X obj 310 251 f;
#X obj 105 285 vcf~;
#X obj 118 265 mtof;
#X obj 106 368 outlet~;
#X obj 170 367 outlet;
#X obj 216 8 inlet;
#X obj 219 367 outlet;
#X connect 0 0 6 0;
#X connect 1 0 15 1;
#X connect 1 0 27 0;
#X connect 1 0 34 1;
#X connect 2 0 35 2;
#X connect 3 0 36 0;
#X connect 4 0 16 0;
#X connect 4 0 20 0;
#X connect 5 0 7 0;
#X connect 6 0 5 0;
#X connect 7 0 8 0;
#X connect 8 0 35 0;
#X connect 9 0 37 0;
#X connect 10 0 9 1;
#X connect 11 0 10 0;
#X connect 12 0 10 0;
#X connect 13 0 11 0;
#X connect 14 0 12 0;
#X connect 15 0 13 0;
#X connect 15 0 31 0;
#X connect 15 0 34 0;
#X connect 16 0 18 0;
#X connect 16 1 17 1;
#X connect 17 0 19 0;
#X connect 18 0 17 0;
#X connect 19 0 24 0;
#X connect 20 0 22 0;
#X connect 20 1 23 1;
#X connect 21 0 28 0;
#X connect 22 0 23 0;
#X connect 23 0 21 0;
#X connect 24 0 25 0;
#X connect 25 0 26 0;
#X connect 26 0 13 1;
#X connect 26 0 31 1;
#X connect 27 0 38 0;
#X connect 27 1 24 1;
#X connect 27 1 28 1;
#X connect 28 0 29 0;
#X connect 29 0 30 0;
#X connect 30 0 14 1;
#X connect 31 0 14 0;
#X connect 32 0 40 0;
#X connect 33 0 32 0;
#X connect 34 0 33 0;
#X connect 35 0 9 0;
#X connect 36 0 35 1;
#X connect 39 0 15 0;
#X restore 145 202 pd dronegenerator;
#N canvas 282 139 559 450 dronegenerator 0;
#X obj 7 8 inlet;
#X obj 48 8 inlet;
#X obj 89 8 inlet;
#X obj 128 8 inlet;
#X obj 170 8 inlet;
#X obj 106 195 osc~;
#X obj 106 173 mtof;
#X obj 106 217 *~ 50;
#X obj 106 239 clip~ -0.5 0.5;
#X obj 106 334 *~;
#X obj 230 239 line~;
#X msg 230 180 0 \, 1 \$1;
#X msg 297 180 0 \$1;
#X obj 230 157 f;
#X obj 297 157 f;
#X obj 230 68 metro;
#X obj 428 53 t b f;
#X obj 428 101 +;
#X msg 410 76 0;
#X floatatom 428 123 5 0 0 0 - - -, f 5;
#X obj 498 53 t b f;
#X floatatom 498 123 5 0 0 0 - - -, f 5;
#X msg 480 76 100;
#X obj 498 101 -;
#X obj 426 211 *;
#X obj 426 246 / 100;
#X floatatom 426 268 5 0 0 0 - - -, f 5;
#X obj 307 74 t b f;
#X obj 506 211 *;
#X obj 506 246 / 100;
#X floatatom 506 268 5 0 0 0 - - -, f 5;
#X obj 297 127 delay;
#X obj 310 291 line;
#X msg 310 270 0 \, 101 \$1;
#X obj 310 251 f;
#X obj 105 285 vcf~;
#X obj 118 265 mtof;
#X obj 106 368 outlet~;
#X obj 170 367 outlet;
#X obj 216 8 inlet;
#X obj 219 367 outlet;
#X connect 0 0 6 0;
#X connect 1 0 15 1;
#X connect 1 0 27 0;
#X connect 1 0 34 1;
#X connect 2 0 35 2;
#X connect 3 0 36 0;
#X connect 4 0 16 0;
#X connect 4 0 20 0;
#X connect 5 0 7 0;
#X connect 6 0 5 0;
#X connect 7 0 8 0;
#X connect 8 0 35 0;
#X connect 9 0 37 0;
#X connect 10 0 9 1;
#X connect 11 0 10 0;
#X connect 12 0 10 0;
#X connect 13 0 11 0;
#X connect 14 0 12 0;
#X connect 15 0 13 0;
#X connect 15 0 31 0;
#X connect 15 0 34 0;
#X connect 16 0 18 0;
#X connect 16 1 17 1;
#X connect 17 0 19 0;
#X connect 18 0 17 0;
#X connect 19 0 24 0;
#X connect 20 0 22 0;
#X connect 20 1 23 1;
#X connect 21 0 28 0;
#X connect 22 0 23 0;
#X connect 23 0 21 0;
#X connect 24 0 25 0;
#X connect 25 0 26 0;
#X connect 26 0 13 1;
#X connect 26 0 31 1;
#X connect 27 0 38 0;
#X connect 27 1 24 1;
#X connect 27 1 28 1;
#X connect 28 0 29 0;
#X connect 29 0 30 0;
#X connect 30 0 14 1;
#X connect 31 0 14 0;
#X connect 32 0 40 0;
#X connect 33 0 32 0;
#X connect 34 0 33 0;
#X connect 35 0 9 0;
#X connect 36 0 35 1;
#X connect 39 0 15 0;
#X restore 259 202 pd dronegenerator;
#N canvas 282 139 559 450 dronegenerator 0;
#X obj 7 8 inlet;
#X obj 48 8 inlet;
#X obj 89 8 inlet;
#X obj 128 8 inlet;
#X obj 170 8 inlet;
#X obj 106 195 osc~;
#X obj 106 173 mtof;
#X obj 106 217 *~ 50;
#X obj 106 239 clip~ -0.5 0.5;
#X obj 106 334 *~;
#X obj 230 239 line~;
#X msg 230 180 0 \, 1 \$1;
#X msg 297 180 0 \$1;
#X obj 230 157 f;
#X obj 297 157 f;
#X obj 230 68 metro;
#X obj 428 53 t b f;
#X obj 428 101 +;
#X msg 410 76 0;
#X floatatom 428 123 5 0 0 0 - - -, f 5;
#X obj 498 53 t b f;
#X floatatom 498 123 5 0 0 0 - - -, f 5;
#X msg 480 76 100;
#X obj 498 101 -;
#X obj 426 211 *;
#X obj 426 246 / 100;
#X floatatom 426 268 5 0 0 0 - - -, f 5;
#X obj 307 74 t b f;
#X obj 506 211 *;
#X obj 506 246 / 100;
#X floatatom 506 268 5 0 0 0 - - -, f 5;
#X obj 297 127 delay;
#X obj 310 291 line;
#X msg 310 270 0 \, 101 \$1;
#X obj 310 251 f;
#X obj 105 285 vcf~;
#X obj 118 265 mtof;
#X obj 106 368 outlet~;
#X obj 170 367 outlet;
#X obj 216 8 inlet;
#X obj 219 367 outlet;
#X connect 0 0 6 0;
#X connect 1 0 15 1;
#X connect 1 0 27 0;
#X connect 1 0 34 1;
#X connect 2 0 35 2;
#X connect 3 0 36 0;
#X connect 4 0 16 0;
#X connect 4 0 20 0;
#X connect 5 0 7 0;
#X connect 6 0 5 0;
#X connect 7 0 8 0;
#X connect 8 0 35 0;
#X connect 9 0 37 0;
#X connect 10 0 9 1;
#X connect 11 0 10 0;
#X connect 12 0 10 0;
#X connect 13 0 11 0;
#X connect 14 0 12 0;
#X connect 15 0 13 0;
#X connect 15 0 31 0;
#X connect 15 0 34 0;
#X connect 16 0 18 0;
#X connect 16 1 17 1;
#X connect 17 0 19 0;
#X connect 18 0 17 0;
#X connect 19 0 24 0;
#X connect 20 0 22 0;
#X connect 20 1 23 1;
#X connect 21 0 28 0;
#X connect 22 0 23 0;
#X connect 23 0 21 0;
#X connect 24 0 25 0;
#X connect 25 0 26 0;
#X connect 26 0 13 1;
#X connect 26 0 31 1;
#X connect 27 0 38 0;
#X connect 27 1 24 1;
#X connect 27 1 28 1;
#X connect 28 0 29 0;
#X connect 29 0 30 0;
#X connect 30 0 14 1;
#X connect 31 0 14 0;
#X connect 32 0 40 0;
#X connect 33 0 32 0;
#X connect 34 0 33 0;
#X connect 35 0 9 0;
#X connect 36 0 35 1;
#X connect 39 0 15 0;
#X restore 373 202 pd dronegenerator;
#N canvas 282 139 559 450 dronegenerator 0;
#X obj 7 8 inlet;
#X obj 48 8 inlet;
#X obj 89 8 inlet;
#X obj 128 8 inlet;
#X obj 170 8 inlet;
#X obj 106 195 osc~;
#X obj 106 173 mtof;
#X obj 106 217 *~ 50;
#X obj 106 239 clip~ -0.5 0.5;
#X obj 106 334 *~;
#X obj 230 239 line~;
#X msg 230 180 0 \, 1 \$1;
#X msg 297 180 0 \$1;
#X obj 230 157 f;
#X obj 297 157 f;
#X obj 230 68 metro;
#X obj 428 53 t b f;
#X obj 428 101 +;
#X msg 410 76 0;
#X floatatom 428 123 5 0 0 0 - - -, f 5;
#X obj 498 53 t b f;
#X floatatom 498 123 5 0 0 0 - - -, f 5;
#X msg 480 76 100;
#X obj 498 101 -;
#X obj 426 211 *;
#X obj 426 246 / 100;
#X floatatom 426 268 5 0 0 0 - - -, f 5;
#X obj 307 74 t b f;
#X obj 506 211 *;
#X obj 506 246 / 100;
#X floatatom 506 268 5 0 0 0 - - -, f 5;
#X obj 297 127 delay;
#X obj 310 291 line;
#X msg 310 270 0 \, 101 \$1;
#X obj 310 251 f;
#X obj 105 285 vcf~;
#X obj 118 265 mtof;
#X obj 106 368 outlet~;
#X obj 170 367 outlet;
#X obj 216 8 inlet;
#X obj 219 367 outlet;
#X connect 0 0 6 0;
#X connect 1 0 15 1;
#X connect 1 0 27 0;
#X connect 1 0 34 1;
#X connect 2 0 35 2;
#X connect 3 0 36 0;
#X connect 4 0 16 0;
#X connect 4 0 20 0;
#X connect 5 0 7 0;
#X connect 6 0 5 0;
#X connect 7 0 8 0;
#X connect 8 0 35 0;
#X connect 9 0 37 0;
#X connect 10 0 9 1;
#X connect 11 0 10 0;
#X connect 12 0 10 0;
#X connect 13 0 11 0;
#X connect 14 0 12 0;
#X connect 15 0 13 0;
#X connect 15 0 31 0;
#X connect 15 0 34 0;
#X connect 16 0 18 0;
#X connect 16 1 17 1;
#X connect 17 0 19 0;
#X connect 18 0 17 0;
#X connect 19 0 24 0;
#X connect 20 0 22 0;
#X connect 20 1 23 1;
#X connect 21 0 28 0;
#X connect 22 0 23 0;
#X connect 23 0 21 0;
#X connect 24 0 25 0;
#X connect 25 0 26 0;
#X connect 26 0 13 1;
#X connect 26 0 31 1;
#X connect 27 0 38 0;
#X connect 27 1 24 1;
#X connect 27 1 28 1;
#X connect 28 0 29 0;
#X connect 29 0 30 0;
#X connect 30 0 14 1;
#X connect 31 0 14 0;
#X connect 32 0 40 0;
#X connect 33 0 32 0;
#X connect 34 0 33 0;
#X connect 35 0 9 0;
#X connect 36 0 35 1;
#X connect 39 0 15 0;
#X restore 487 202 pd dronegenerator;
#X obj 361 312 *~;
#X obj 444 284 line~;
#X msg 471 263 \$1 20;
#X obj 33 -58 loadbang;
#X msg 33 -37 2;
#X obj 30 7 cnv 8 360 160 empty empty empty 20 12 0 14 -1 -66577 0
;
#X obj 95 19 cnv 8 108 135 empty empty empty 20 12 0 14 -3707 -66577
0;
#X obj 99 20 hsl 101 15 0 100 0 0 empty empty empty -2 -8 0 10 -1 -3707
-1 0 1;
#X obj 99 47 hsl 101 15 0 100 0 0 empty empty empty -2 -8 0 10 -1 -3707
-1 0 1;
#X obj 99 37 hsl 101 8 0 100 0 0 empty empty empty -2 -8 0 10 -1 -3707
-1 0 1;
#X obj 99 64 hsl 101 8 0 100 0 0 empty empty empty -2 -8 0 10 -1 -3707
-1 0 1;
#X obj 99 74 hsl 101 15 0 100 0 0 empty empty empty -2 -8 0 10 -1 -3707
-1 0 1;
#X obj 99 101 hsl 101 15 0 100 0 0 empty empty empty -2 -8 0 10 -1
-3707 -1 0 1;
#X obj 99 91 hsl 101 8 0 100 0 0 empty empty empty -2 -8 0 10 -1 -3707
-1 0 1;
#X obj 99 118 hsl 101 8 0 100 0 0 empty empty empty -2 -8 0 10 -1 -3707
-1 0 1;
#X obj 99 128 hsl 101 15 0 100 0 0 empty empty empty -2 -8 0 10 -1
-3707 -1 0 1;
#X obj 99 145 hsl 101 8 0 100 0 0 empty empty empty -2 -8 0 10 -1 -3707
-1 0 1;
#X obj 206 19 cnv 8 71 135 empty empty empty 20 12 0 14 -3707 -66577
0;
#X obj 210 20 hsl 64 15 0 127 0 0 empty empty empty -2 -8 0 10 -1 -3707
-1 6300 1;
#X msg 61 -37 127;
#X obj 210 37 hsl 64 8 0 10 0 0 empty empty empty -2 -8 0 10 -1 -3707
-1 1260 1;
#X obj 210 47 hsl 64 15 0 127 0 0 empty empty empty -2 -8 0 10 -1 -3707
-1 6300 1;
#X obj 210 64 hsl 64 8 0 10 0 0 empty empty empty -2 -8 0 10 -1 -3707
-1 1260 1;
#X obj 210 74 hsl 64 15 0 127 0 0 empty empty empty -2 -8 0 10 -1 -3707
-1 6300 1;
#X obj 210 91 hsl 64 8 0 10 0 0 empty empty empty -2 -8 0 10 -1 -3707
-1 1260 1;
#X obj 210 101 hsl 64 15 0 127 0 0 empty empty empty -2 -8 0 10 -1
-3707 -1 6300 1;
#X obj 210 118 hsl 64 8 0 10 0 0 empty empty empty -2 -8 0 10 -1 -3707
-1 1260 1;
#X obj 210 128 hsl 64 15 0 127 0 0 empty empty empty -2 -8 0 10 -1
-3707 -1 6300 1;
#X obj 210 145 hsl 64 8 0 10 0 0 empty empty empty -2 -8 0 10 -1 -3707
-1 1260 1;
#X obj 36 19 cnv 8 56 135 empty empty empty 20 12 0 14 -3707 -66577
0;
#X floatatom 37 20 3 0 127 0 - - -, f 3;
#X floatatom 59 20 5 100 10000 0 - - -, f 5;
#X floatatom 37 47 3 0 127 0 - - -, f 3;
#X floatatom 59 47 5 100 10000 0 - - -, f 5;
#X floatatom 37 74 3 0 127 0 - - -, f 3;
#X floatatom 59 74 5 100 10000 0 - - -, f 5;
#X floatatom 37 101 3 0 127 0 - - -, f 3;
#X floatatom 59 101 5 100 10000 0 - - -, f 5;
#X floatatom 37 128 3 0 127 0 - - -, f 3;
#X floatatom 59 128 5 100 10000 0 - - -, f 5;
#N canvas 513 130 450 300 randompitch 0;
#X obj 26 42 inlet;
#X obj 66 42 inlet;
#X obj 106 42 inlet;
#X obj 146 42 inlet;
#X obj 186 42 inlet;
#X obj 26 100 random 128;
#X obj 66 130 random 128;
#X obj 106 160 random 128;
#X obj 146 190 random 128;
#X obj 186 220 random 128;
#X obj 17 273 outlet;
#X obj 67 273 outlet;
#X obj 117 273 outlet;
#X obj 167 273 outlet;
#X obj 217 273 outlet;
#X connect 0 0 5 0;
#X connect 1 0 6 0;
#X connect 2 0 7 0;
#X connect 3 0 8 0;
#X connect 4 0 9 0;
#X connect 5 0 10 0;
#X connect 6 0 11 0;
#X connect 7 0 12 0;
#X connect 8 0 13 0;
#X connect 9 0 14 0;
#X restore 177 -41 pd randompitch;
#X obj 37 36 bng 9 250 50 0 empty empty empty 17 7 0 10 -1 -3707 -1
;
#X obj 37 63 bng 9 250 50 0 empty empty empty 17 7 0 10 -1 -3707 -1
;
#X obj 37 90 bng 9 250 50 0 empty empty empty 17 7 0 10 -1 -3707 -1
;
#X obj 37 117 bng 9 250 50 0 empty empty empty 17 7 0 10 -1 -3707 -1
;
#X obj 37 144 bng 9 250 50 0 empty empty empty 17 7 0 10 -1 -3707 -1
;
#X obj 48 36 bng 9 250 50 0 empty empty empty 17 7 0 10 -1 -3707 -1
;
#X obj 48 63 bng 9 250 50 0 empty empty empty 17 7 0 10 -1 -3707 -1
;
#X obj 48 90 bng 9 250 50 0 empty empty empty 17 7 0 10 -1 -3707 -1
;
#X obj 48 117 bng 9 250 50 0 empty empty empty 17 7 0 10 -1 -3707 -1
;
#N canvas 0 82 450 300 randomtime 0;
#X obj 32 41 inlet;
#X obj 72 41 inlet;
#X obj 112 41 inlet;
#X obj 152 41 inlet;
#X obj 192 41 inlet;
#X obj 28 82 random 10001;
#X obj 68 112 random 10001;
#X obj 108 142 random 10001;
#X obj 148 172 random 10001;
#X obj 188 202 random 10001;
#X obj 18 257 outlet;
#X obj 68 257 outlet;
#X obj 118 257 outlet;
#X obj 168 257 outlet;
#X obj 218 257 outlet;
#X connect 0 0 5 0;
#X connect 1 0 6 0;
#X connect 2 0 7 0;
#X connect 3 0 8 0;
#X connect 4 0 9 0;
#X connect 5 0 10 0;
#X connect 6 0 11 0;
#X connect 7 0 12 0;
#X connect 8 0 13 0;
#X connect 9 0 14 0;
#X restore 407 -42 pd randomtime;
#X obj 59 36 bng 9 250 50 0 empty empty empty 17 7 0 10 -1 -3707 -1
;
#X obj 70 36 bng 9 250 50 0 empty empty empty 17 7 0 10 -1 -3707 -1
;
#X obj 59 63 bng 9 250 50 0 empty empty empty 17 7 0 10 -1 -3707 -1
;
#X obj 70 63 bng 9 250 50 0 empty empty empty 17 7 0 10 -1 -3707 -1
;
#X obj 59 90 bng 9 250 50 0 empty empty empty 17 7 0 10 -1 -3707 -1
;
#X obj 70 90 bng 9 250 50 0 empty empty empty 17 7 0 10 -1 -3707 -1
;
#X obj 59 117 bng 9 250 50 0 empty empty empty 17 7 0 10 -1 -3707 -1
;
#X obj 70 117 bng 9 250 50 0 empty empty empty 17 7 0 10 -1 -3707 -1
;
#X obj 59 144 bng 9 250 50 0 empty empty empty 17 7 0 10 -1 -3707 -1
;
#X obj 603 202 / 127;
#X msg 93 -37 100;
#X obj 280 48 cnv 15 32 71 empty empty empty 20 12 0 14 -3707 -66577
0;
#X obj 281 51 vsl 30 64 0 127 0 0 empty empty empty 0 -9 0 10 -1 -3707
-1 4961 1;
#X obj 289 19 cnv 8 12 12 empty empty empty 20 12 0 14 -3707 -66577
0;
#X obj 290 20 tgl 10 0 empty empty empty 17 7 0 10 -1 -3707 -1 0 1
;
#X obj 286 120 cnv 10 10 10 empty empty amp 2 5 1 9 -1 -3707 0;
#X obj 288 33 cnv 10 10 10 empty empty on 2 5 1 9 -1 -3707 0;
#X obj 95 8 cnv 10 10 10 empty empty atack/decay 2 5 1 9 -1 -3707 0
;
#X obj 206 8 cnv 10 10 10 empty empty cutoff/res 2 5 1 9 -1 -3707 0
;
#X obj 34 8 cnv 10 10 10 empty empty pitch/time 2 5 1 9 -1 -3707 0
;
#X obj 82 36 cnv 8 9 9 empty empty A 2 5 1 8 -1 -3707 0;
#X obj 30 157 cnv 10 10 10 empty empty mixout 2 5 1 9 -1 -162280 0
;
#X obj 82 63 cnv 8 9 9 empty empty B 2 5 1 8 -1 -3707 0;
#X obj 82 90 cnv 8 9 9 empty empty C 2 5 1 8 -1 -3707 0;
#X obj 82 117 cnv 8 9 9 empty empty D 2 5 1 8 -1 -3707 0;
#X obj 82 144 cnv 8 9 9 empty empty E 2 5 1 8 -1 -3707 0;
#N canvas 0 82 450 300 randomatackdecay 0;
#X obj 190 26 inlet;
#X obj 52 73 random 101;
#X obj 122 73 random 101;
#X obj 192 73 random 101;
#X obj 262 73 random 101;
#X obj 332 73 random 101;
#X obj 54 188 outlet;
#X obj 104 188 outlet;
#X obj 154 188 outlet;
#X obj 204 188 outlet;
#X obj 254 188 outlet;
#X connect 0 0 1 0;
#X connect 0 0 2 0;
#X connect 0 0 3 0;
#X connect 0 0 4 0;
#X connect 0 0 5 0;
#X connect 1 0 6 0;
#X connect 2 0 7 0;
#X connect 3 0 8 0;
#X connect 4 0 9 0;
#X connect 5 0 10 0;
#X restore 274 -41 pd randomatackdecay;
#N canvas 0 82 450 300 randomcutoff 0;
#X obj 141 20 inlet;
#X obj 18 77 random 128;
#X obj 88 77 random 128;
#X obj 158 77 random 128;
#X obj 228 77 random 128;
#X obj 298 77 random 128;
#X obj 20 141 outlet;
#X obj 80 141 outlet;
#X obj 140 141 outlet;
#X obj 200 141 outlet;
#X obj 260 141 outlet;
#X connect 0 0 1 0;
#X connect 0 0 2 0;
#X connect 0 0 3 0;
#X connect 0 0 4 0;
#X connect 0 0 5 0;
#X connect 1 0 6 0;
#X connect 2 0 7 0;
#X connect 3 0 8 0;
#X connect 4 0 9 0;
#X connect 5 0 10 0;
#X restore 501 -42 pd randomcutoff;
#N canvas 0 82 450 300 randomresonancia 0;
#X obj 126 15 inlet;
#X obj 24 72 random 11;
#X obj 94 72 random 11;
#X obj 164 72 random 11;
#X obj 234 72 random 11;
#X obj 304 72 random 11;
#X obj 22 175 outlet;
#X obj 72 175 outlet;
#X obj 122 175 outlet;
#X obj 172 175 outlet;
#X obj 222 175 outlet;
#X connect 0 0 1 0;
#X connect 0 0 2 0;
#X connect 0 0 3 0;
#X connect 0 0 4 0;
#X connect 0 0 5 0;
#X connect 1 0 6 0;
#X connect 2 0 7 0;
#X connect 3 0 8 0;
#X connect 4 0 9 0;
#X connect 5 0 10 0;
#X restore 549 15 pd randomresonancia;
#X obj 290 135 cnv 8 12 12 empty empty empty 20 12 0 14 -3707 -66577
0;
#X obj 291 136 bng 10 250 50 0 empty empty empty 17 7 0 10 -1 -3707
-1;
#X obj 548 72 t b b b b b;
#X obj 287 148 cnv 10 10 10 empty empty rnd 2 5 1 9 -1 -3707 0;
#X obj 321 72 cnv 10 10 10 empty empty droner 2 5 1 18 -1 -162280 0
;
#N canvas 0 54 1024 546 save_and_import_presets_from_every_micro_machine
0;
#X obj 5 84 inlet;
#X obj 42 84 inlet;
#X obj 79 84 inlet;
#X obj 116 84 inlet;
#X obj 153 84 inlet;
#X text 3 67 ------------------------------;
#X text 54 56 pitch 1 to 5;
#X obj 195 84 inlet;
#X obj 232 84 inlet;
#X obj 269 84 inlet;
#X obj 306 84 inlet;
#X obj 343 84 inlet;
#X text 193 67 ------------------------------;
#X text 224 56 envelope time 1 to 5;
#X obj 385 84 inlet;
#X obj 422 84 inlet;
#X obj 459 84 inlet;
#X obj 496 84 inlet;
#X obj 533 84 inlet;
#X text 383 67 ------------------------------;
#X text 414 56 attack/decay 1 to 5;
#X obj 575 84 inlet;
#X obj 612 84 inlet;
#X obj 649 84 inlet;
#X obj 686 84 inlet;
#X obj 723 84 inlet;
#X text 573 67 ------------------------------;
#X text 619 56 cutoff 1 to 5;
#X obj 765 84 inlet;
#X obj 802 84 inlet;
#X obj 839 84 inlet;
#X obj 876 84 inlet;
#X obj 913 84 inlet;
#X text 763 67 ------------------------------;
#X text 809 56 resonance 1 to 5;
#X obj 960 84 inlet;
#X text 951 63 amp master;
#X obj 5 129 f;
#X obj 30 129 f;
#X obj 55 129 f;
#X obj 80 129 f;
#X obj 105 129 f;
#X obj 195 129 f;
#X obj 220 129 f;
#X obj 245 129 f;
#X obj 270 129 f;
#X obj 295 129 f;
#X obj 385 129 f;
#X obj 410 129 f;
#X obj 435 129 f;
#X obj 460 129 f;
#X obj 485 129 f;
#X obj 575 129 f;
#X obj 600 129 f;
#X obj 625 129 f;
#X obj 650 129 f;
#X obj 675 129 f;
#X obj 765 129 f;
#X obj 790 129 f;
#X obj 815 129 f;
#X obj 840 129 f;
#X obj 865 129 f;
#X obj 960 129 f;
#X obj 383 346 textfile;
#X obj 445 279 f;
#X obj 474 279 + 1;
#X msg 343 266 clear;
#X msg 445 310 write droner_preset\$1.txt cr;
#X msg 5 157 add \$1;
#X msg 29 177 add \$1;
#X msg 55 197 add \$1;
#X msg 80 217 add \$1;
#X msg 105 237 add \$1;
#X msg 195 157 add \$1;
#X msg 220 177 add \$1;
#X msg 245 197 add \$1;
#X msg 270 217 add \$1;
#X msg 295 237 add \$1;
#X msg 385 157 add \$1;
#X msg 410 177 add \$1;
#X msg 435 197 add \$1;
#X msg 460 217 add \$1;
#X msg 485 237 add \$1;
#X msg 575 157 add \$1;
#X msg 600 177 add \$1;
#X msg 625 197 add \$1;
#X msg 650 217 add \$1;
#X msg 675 237 add \$1;
#X msg 765 157 add \$1;
#X msg 790 177 add \$1;
#X msg 815 197 add \$1;
#X msg 840 217 add \$1;
#X msg 865 237 add \$1;
#X msg 945 157 add \$1;
#X obj 301 16 t b b b b b b b b b b b b b b b b b b b b b b b b b b
b b;
#X obj 1000 84 inlet;
#X obj 720 309 openpanel;
#X obj 720 403 textfile;
#X msg 720 331 read \$1;
#X msg 761 375 rewind;
#X obj 734 353 t b b;
#X obj 1040 84 inlet;
#X obj 402 437 unpack f f f f f f f f f f f f f f f f f f f f f f f
f f f;
#X obj 6 505 outlet;
#X obj 48 505 outlet;
#X obj 90 505 outlet;
#X obj 132 505 outlet;
#X obj 174 505 outlet;
#X obj 216 505 outlet;
#X obj 258 505 outlet;
#X obj 300 505 outlet;
#X obj 342 505 outlet;
#X obj 384 505 outlet;
#X obj 426 505 outlet;
#X obj 468 505 outlet;
#X obj 510 505 outlet;
#X obj 552 505 outlet;
#X obj 594 505 outlet;
#X obj 636 505 outlet;
#X obj 678 505 outlet;
#X obj 720 505 outlet;
#X obj 762 505 outlet;
#X obj 804 505 outlet;
#X obj 846 505 outlet;
#X obj 888 505 outlet;
#X obj 930 505 outlet;
#X obj 972 505 outlet;
#X obj 1014 505 outlet;
#X obj 1056 505 outlet;
#X connect 0 0 37 1;
#X connect 1 0 38 1;
#X connect 2 0 39 1;
#X connect 3 0 40 1;
#X connect 4 0 41 1;
#X connect 7 0 42 1;
#X connect 8 0 43 1;
#X connect 9 0 44 1;
#X connect 10 0 45 1;
#X connect 11 0 46 1;
#X connect 14 0 47 1;
#X connect 15 0 48 1;
#X connect 16 0 49 1;
#X connect 17 0 50 1;
#X connect 18 0 51 1;
#X connect 21 0 52 1;
#X connect 22 0 53 1;
#X connect 23 0 54 1;
#X connect 24 0 55 1;
#X connect 25 0 56 1;
#X connect 28 0 57 1;
#X connect 29 0 58 1;
#X connect 30 0 59 1;
#X connect 31 0 60 1;
#X connect 32 0 61 1;
#X connect 35 0 62 1;
#X connect 37 0 68 0;
#X connect 38 0 69 0;
#X connect 39 0 70 0;
#X connect 40 0 71 0;
#X connect 41 0 72 0;
#X connect 42 0 73 0;
#X connect 43 0 74 0;
#X connect 44 0 75 0;
#X connect 45 0 76 0;
#X connect 46 0 77 0;
#X connect 47 0 78 0;
#X connect 48 0 79 0;
#X connect 49 0 80 0;
#X connect 50 0 81 0;
#X connect 51 0 82 0;
#X connect 52 0 83 0;
#X connect 53 0 84 0;
#X connect 54 0 85 0;
#X connect 55 0 86 0;
#X connect 56 0 87 0;
#X connect 57 0 88 0;
#X connect 58 0 89 0;
#X connect 59 0 90 0;
#X connect 60 0 91 0;
#X connect 61 0 92 0;
#X connect 62 0 93 0;
#X connect 64 0 65 0;
#X connect 64 0 67 0;
#X connect 65 0 64 1;
#X connect 66 0 63 0;
#X connect 67 0 63 0;
#X connect 68 0 63 0;
#X connect 69 0 63 0;
#X connect 70 0 63 0;
#X connect 71 0 63 0;
#X connect 72 0 63 0;
#X connect 73 0 63 0;
#X connect 74 0 63 0;
#X connect 75 0 63 0;
#X connect 76 0 63 0;
#X connect 77 0 63 0;
#X connect 78 0 63 0;
#X connect 79 0 63 0;
#X connect 80 0 63 0;
#X connect 81 0 63 0;
#X connect 82 0 63 0;
#X connect 83 0 63 0;
#X connect 84 0 63 0;
#X connect 85 0 63 0;
#X connect 86 0 63 0;
#X connect 87 0 63 0;
#X connect 88 0 63 0;
#X connect 89 0 63 0;
#X connect 90 0 63 0;
#X connect 91 0 63 0;
#X connect 92 0 63 0;
#X connect 93 0 63 0;
#X connect 94 0 64 0;
#X connect 94 1 62 0;
#X connect 94 2 61 0;
#X connect 94 3 60 0;
#X connect 94 4 59 0;
#X connect 94 5 58 0;
#X connect 94 6 57 0;
#X connect 94 7 56 0;
#X connect 94 8 55 0;
#X connect 94 9 54 0;
#X connect 94 10 53 0;
#X connect 94 11 52 0;
#X connect 94 12 51 0;
#X connect 94 13 50 0;
#X connect 94 14 49 0;
#X connect 94 15 48 0;
#X connect 94 16 47 0;
#X connect 94 17 46 0;
#X connect 94 18 45 0;
#X connect 94 19 44 0;
#X connect 94 20 43 0;
#X connect 94 21 42 0;
#X connect 94 22 41 0;
#X connect 94 23 40 0;
#X connect 94 24 39 0;
#X connect 94 25 38 0;
#X connect 94 26 37 0;
#X connect 94 27 66 0;
#X connect 95 0 94 0;
#X connect 96 0 98 0;
#X connect 97 0 102 0;
#X connect 98 0 97 0;
#X connect 98 0 100 0;
#X connect 99 0 97 0;
#X connect 100 0 97 0;
#X connect 100 1 99 0;
#X connect 101 0 96 0;
#X connect 102 0 103 0;
#X connect 102 1 104 0;
#X connect 102 2 105 0;
#X connect 102 3 106 0;
#X connect 102 4 107 0;
#X connect 102 5 108 0;
#X connect 102 6 109 0;
#X connect 102 7 110 0;
#X connect 102 8 111 0;
#X connect 102 9 112 0;
#X connect 102 10 113 0;
#X connect 102 11 114 0;
#X connect 102 12 115 0;
#X connect 102 13 116 0;
#X connect 102 14 117 0;
#X connect 102 15 118 0;
#X connect 102 16 119 0;
#X connect 102 17 120 0;
#X connect 102 18 121 0;
#X connect 102 19 122 0;
#X connect 102 20 123 0;
#X connect 102 21 124 0;
#X connect 102 22 125 0;
#X connect 102 23 126 0;
#X connect 102 24 127 0;
#X connect 102 25 128 0;
#X restore 191 390 pd save_and_import_presets_from_every_micro_machine
;
#X obj 315 90 cnv 8 12 12 empty empty save 15 6 1 9 -3707 -3707 0;
#X obj 316 91 bng 10 250 50 0 empty empty empty 17 7 0 10 -1 -3707
-1;
#X obj 352 90 cnv 8 12 12 empty empty open 15 6 1 9 -3707 -3707 0;
#X obj 353 91 bng 10 250 50 0 empty empty empty 17 7 0 10 -1 -3707
-1;
#X connect 1 0 6 0;
#X connect 1 1 13 0;
#X connect 1 2 15 0;
#X connect 2 0 6 0;
#X connect 2 1 14 0;
#X connect 2 2 16 0;
#X connect 3 0 6 0;
#X connect 3 1 17 0;
#X connect 3 2 19 0;
#X connect 4 0 6 0;
#X connect 4 1 18 0;
#X connect 4 2 20 0;
#X connect 5 0 6 0;
#X connect 5 1 21 0;
#X connect 5 2 22 0;
#X connect 6 0 0 0;
#X connect 7 0 6 1;
#X connect 8 0 7 0;
#X connect 9 0 10 0;
#X connect 9 0 25 0;
#X connect 9 0 67 0;
#X connect 10 0 26 0;
#X connect 10 0 28 0;
#X connect 10 0 30 0;
#X connect 10 0 32 0;
#X connect 10 0 34 0;
#X connect 13 0 1 4;
#X connect 13 0 91 10;
#X connect 14 0 2 4;
#X connect 14 0 91 11;
#X connect 17 0 3 4;
#X connect 17 0 91 12;
#X connect 18 0 4 4;
#X connect 18 0 91 13;
#X connect 21 0 5 4;
#X connect 21 0 91 14;
#X connect 24 0 1 3;
#X connect 24 0 91 15;
#X connect 25 0 24 0;
#X connect 25 0 27 0;
#X connect 25 0 29 0;
#X connect 25 0 31 0;
#X connect 25 0 33 0;
#X connect 26 0 1 2;
#X connect 26 0 91 20;
#X connect 27 0 2 3;
#X connect 27 0 91 16;
#X connect 28 0 2 2;
#X connect 28 0 91 21;
#X connect 29 0 3 3;
#X connect 29 0 91 17;
#X connect 30 0 3 2;
#X connect 30 0 91 22;
#X connect 31 0 4 3;
#X connect 31 0 91 18;
#X connect 32 0 4 2;
#X connect 32 0 91 23;
#X connect 33 0 5 3;
#X connect 33 0 91 19;
#X connect 34 0 5 2;
#X connect 34 0 91 24;
#X connect 36 0 1 0;
#X connect 36 0 91 0;
#X connect 37 0 1 1;
#X connect 37 0 91 5;
#X connect 38 0 2 0;
#X connect 38 0 91 1;
#X connect 39 0 2 1;
#X connect 39 0 91 6;
#X connect 40 0 3 0;
#X connect 40 0 91 2;
#X connect 41 0 3 1;
#X connect 41 0 91 7;
#X connect 42 0 4 0;
#X connect 42 0 91 3;
#X connect 43 0 4 1;
#X connect 43 0 91 8;
#X connect 44 0 5 0;
#X connect 44 0 91 4;
#X connect 45 0 5 1;
#X connect 45 0 91 9;
#X connect 46 0 36 0;
#X connect 46 1 38 0;
#X connect 46 2 40 0;
#X connect 46 3 42 0;
#X connect 46 4 44 0;
#X connect 47 0 46 0;
#X connect 48 0 46 1;
#X connect 49 0 46 2;
#X connect 50 0 46 3;
#X connect 51 0 46 4;
#X connect 52 0 47 0;
#X connect 52 0 48 0;
#X connect 53 0 47 0;
#X connect 53 0 48 0;
#X connect 53 0 49 0;
#X connect 54 0 47 0;
#X connect 54 0 48 0;
#X connect 54 0 49 0;
#X connect 54 0 50 0;
#X connect 55 0 47 0;
#X connect 55 0 48 0;
#X connect 55 0 49 0;
#X connect 55 0 50 0;
#X connect 55 0 51 0;
#X connect 56 0 37 0;
#X connect 56 1 39 0;
#X connect 56 2 41 0;
#X connect 56 3 43 0;
#X connect 56 4 45 0;
#X connect 57 0 56 0;
#X connect 58 0 57 0;
#X connect 58 0 59 0;
#X connect 59 0 56 1;
#X connect 60 0 59 0;
#X connect 60 0 57 0;
#X connect 60 0 61 0;
#X connect 61 0 56 2;
#X connect 62 0 61 0;
#X connect 62 0 57 0;
#X connect 62 0 59 0;
#X connect 62 0 63 0;
#X connect 63 0 56 3;
#X connect 64 0 63 0;
#X connect 64 0 57 0;
#X connect 64 0 59 0;
#X connect 64 0 61 0;
#X connect 64 0 65 0;
#X connect 65 0 56 4;
#X connect 66 0 8 0;
#X connect 67 0 69 0;
#X connect 69 0 66 0;
#X connect 69 0 91 25;
#X connect 71 0 5 5;
#X connect 71 0 4 5;
#X connect 71 0 3 5;
#X connect 71 0 2 5;
#X connect 71 0 1 5;
#X connect 83 0 13 0;
#X connect 83 1 14 0;
#X connect 83 2 17 0;
#X connect 83 3 18 0;
#X connect 83 4 21 0;
#X connect 84 0 24 0;
#X connect 84 1 27 0;
#X connect 84 2 29 0;
#X connect 84 3 31 0;
#X connect 84 4 33 0;
#X connect 85 0 26 0;
#X connect 85 1 28 0;
#X connect 85 2 30 0;
#X connect 85 3 32 0;
#X connect 85 4 34 0;
#X connect 87 0 88 0;
#X connect 88 0 85 0;
#X connect 88 1 84 0;
#X connect 88 2 83 0;
#X connect 88 3 64 0;
#X connect 88 4 55 0;
#X connect 91 0 36 0;
#X connect 91 1 38 0;
#X connect 91 2 40 0;
#X connect 91 3 42 0;
#X connect 91 4 44 0;
#X connect 91 5 37 0;
#X connect 91 6 39 0;
#X connect 91 7 41 0;
#X connect 91 8 43 0;
#X connect 91 9 45 0;
#X connect 91 10 13 0;
#X connect 91 11 14 0;
#X connect 91 12 17 0;
#X connect 91 13 18 0;
#X connect 91 14 21 0;
#X connect 91 15 24 0;
#X connect 91 16 27 0;
#X connect 91 17 29 0;
#X connect 91 18 31 0;
#X connect 91 19 33 0;
#X connect 91 20 26 0;
#X connect 91 21 28 0;
#X connect 91 22 30 0;
#X connect 91 23 32 0;
#X connect 91 24 34 0;
#X connect 91 25 69 0;
#X connect 93 0 91 26;
#X connect 95 0 91 27;
#X coords 0 -1 1 1 364 164 2 28 5;
