#N canvas 11 50 1905 1020 10;
#X obj 103 103 cnv 15 234 104 empty empty empty 20 12 0 14 -262144
-66577 0;
#X obj 102 108 cnv 10 10 10 empty empty ETONOISE 2 5 1 10 -262144 -1
0;
#X obj 4 213 osc~;
#X obj 30 340 noise~;
#X floatatom 177 105 5 20 20000 0 - - -, f 5;
#X floatatom 233 105 5 0 127 0 - - -, f 5;
#X obj 105 124 vradio 10 1 0 3 empty empty empty 0 -8 0 10 -66577 -3707
-1 0;
#X obj 4 235 *~;
#X obj 30 404 *~;
#X obj 389 359 sel 0 1 2;
#X obj 115 124 vradio 10 1 0 3 empty empty empty 0 -8 0 10 -66577 -3707
-1 2;
#X obj 125 124 vradio 10 1 0 3 empty empty empty 0 -8 0 10 -66577 -3707
-1 1;
#X obj 135 124 vradio 10 1 0 3 empty empty empty 0 -8 0 10 -66577 -3707
-1 2;
#X obj 145 124 vradio 10 1 0 3 empty empty empty 0 -8 0 10 -66577 -3707
-1 1;
#X obj 155 124 vradio 10 1 0 3 empty empty empty 0 -8 0 10 -66577 -3707
-1 1;
#X obj 165 124 vradio 10 1 0 3 empty empty empty 0 -8 0 10 -66577 -3707
-1 0;
#X obj 175 124 vradio 10 1 0 3 empty empty empty 0 -8 0 10 -66577 -3707
-1 1;
#X obj 185 124 vradio 10 1 0 3 empty empty empty 0 -8 0 10 -66577 -3707
-1 1;
#X obj 195 124 vradio 10 1 0 3 empty empty empty 0 -8 0 10 -66577 -3707
-1 2;
#X obj 205 124 vradio 10 1 0 3 empty empty empty 0 -8 0 10 -66577 -3707
-1 0;
#X obj 215 124 vradio 10 1 0 3 empty empty empty 0 -8 0 10 -66577 -3707
-1 2;
#X obj 225 124 vradio 10 1 0 3 empty empty empty 0 -8 0 10 -66577 -3707
-1 2;
#X obj 235 124 vradio 10 1 0 3 empty empty empty 0 -8 0 10 -66577 -3707
-1 2;
#X obj 245 124 vradio 10 1 0 3 empty empty empty 0 -8 0 10 -66577 -3707
-1 1;
#X obj 255 124 vradio 10 1 0 3 empty empty empty 0 -8 0 10 -66577 -3707
-1 0;
#X obj 389 395 t b b;
#X msg 389 434 1;
#X msg 416 434 0;
#X obj 449 395 t b b;
#X msg 449 434 1;
#X msg 476 434 0;
#X obj 509 395 t b b;
#X msg 536 434 0;
#X msg 509 434 0;
#X obj 383 41 mod 16;
#X obj 383 63 sel 0 1 2 3 4 5 6 7 8 9 10 11 12 13 14 15;
#X obj 232 284 f;
#X obj 256 284 f;
#X obj 280 284 f;
#X obj 304 284 f;
#X obj 328 284 f;
#X obj 352 284 f;
#X obj 376 284 f;
#X obj 400 284 f;
#X obj 424 284 f;
#X obj 448 284 f;
#X obj 472 284 f;
#X obj 496 284 f;
#X obj 520 284 f;
#X obj 544 284 f;
#X obj 568 284 f;
#X obj 592 284 f;
#X obj 337 -51 r onseq;
#X obj 120 426 *~;
#X obj 268 126 vsl 30 64 0 127 0 0 empty empty empty 0 -9 0 10 -66577
-3707 -1 5300 1;
#X obj 120 448 outlet~;
#X obj 105 155 bng 10 100 50 0 empty empty empty 17 7 0 10 -1 -3707
-1;
#X obj 115 155 bng 10 100 50 0 empty empty empty 17 7 0 10 -1 -3707
-1;
#X obj 125 155 bng 10 100 50 0 empty empty empty 17 7 0 10 -1 -3707
-1;
#X obj 135 155 bng 10 100 50 0 empty empty empty 17 7 0 10 -1 -3707
-1;
#X obj 145 155 bng 10 100 50 0 empty empty empty 17 7 0 10 -1 -3707
-1;
#X obj 155 155 bng 10 100 50 0 empty empty empty 17 7 0 10 -1 -3707
-1;
#X obj 165 155 bng 10 100 50 0 empty empty empty 17 7 0 10 -1 -3707
-1;
#X obj 175 155 bng 10 100 50 0 empty empty empty 17 7 0 10 -1 -3707
-1;
#X obj 185 155 bng 10 100 50 0 empty empty empty 17 7 0 10 -1 -3707
-1;
#X obj 195 155 bng 10 100 50 0 empty empty empty 17 7 0 10 -1 -3707
-1;
#X obj 205 155 bng 10 100 50 0 empty empty empty 17 7 0 10 -1 -3707
-1;
#X obj 215 155 bng 10 100 50 0 empty empty empty 17 7 0 10 -1 -3707
-1;
#X obj 225 155 bng 10 100 50 0 empty empty empty 17 7 0 10 -1 -3707
-1;
#X obj 235 155 bng 10 100 50 0 empty empty empty 17 7 0 10 -1 -3707
-1;
#X obj 245 155 bng 10 100 50 0 empty empty empty 17 7 0 10 -1 -3707
-1;
#X obj 255 155 bng 10 100 50 0 empty empty empty 17 7 0 10 -1 -3707
-1;
#X obj 105 154 cnv 4 160 4 empty empty empty 20 12 0 14 -1 -66577 0
;
#X obj 105 162 cnv 3 160 3 empty empty empty 20 12 0 14 -1 -66577 0
;
#X obj 337 -26 sel 0;
#X obj 105 166 hradio 10 1 0 16 empty empty empty 0 -8 0 10 -66577
-4032 -1 10;
#X obj 688 -20 + 1;
#X obj 91 -62 loadbang;
#X msg 66 -39 15;
#N canvas 256 142 736 309 randomstepsetonoise16 0;
#X obj 15 45 random 3;
#X obj 75 45 random 3;
#X obj 135 45 random 3;
#X obj 195 45 random 3;
#X obj 25 65 random 3;
#X obj 85 65 random 3;
#X obj 145 65 random 3;
#X obj 205 65 random 3;
#X obj 35 85 random 3;
#X obj 95 85 random 3;
#X obj 155 85 random 3;
#X obj 215 85 random 3;
#X obj 45 105 random 3;
#X obj 105 105 random 3;
#X obj 165 105 random 3;
#X obj 225 105 random 3;
#X obj 13 7 inlet;
#X obj 5 236 outlet;
#X obj 47 236 outlet;
#X obj 89 236 outlet;
#X obj 131 236 outlet;
#X obj 173 236 outlet;
#X obj 215 236 outlet;
#X obj 257 236 outlet;
#X obj 299 236 outlet;
#X obj 341 236 outlet;
#X obj 383 236 outlet;
#X obj 425 236 outlet;
#X obj 467 236 outlet;
#X obj 509 236 outlet;
#X obj 551 236 outlet;
#X obj 593 236 outlet;
#X obj 635 236 outlet;
#X obj 88 7 inlet;
#X obj 148 9 inlet;
#X obj 213 9 inlet;
#X connect 0 0 17 0;
#X connect 1 0 18 0;
#X connect 2 0 19 0;
#X connect 3 0 20 0;
#X connect 4 0 21 0;
#X connect 5 0 22 0;
#X connect 6 0 23 0;
#X connect 7 0 24 0;
#X connect 8 0 25 0;
#X connect 9 0 26 0;
#X connect 10 0 27 0;
#X connect 11 0 28 0;
#X connect 12 0 29 0;
#X connect 13 0 30 0;
#X connect 14 0 31 0;
#X connect 15 0 32 0;
#X connect 16 0 0 0;
#X connect 16 0 1 0;
#X connect 16 0 2 0;
#X connect 16 0 3 0;
#X connect 16 0 4 0;
#X connect 16 0 5 0;
#X connect 16 0 6 0;
#X connect 16 0 7 0;
#X connect 16 0 8 0;
#X connect 16 0 9 0;
#X connect 16 0 10 0;
#X connect 16 0 11 0;
#X connect 16 0 12 0;
#X connect 16 0 13 0;
#X connect 16 0 14 0;
#X connect 16 0 15 0;
#X connect 33 0 0 0;
#X connect 33 0 1 0;
#X connect 33 0 2 0;
#X connect 33 0 3 0;
#X connect 33 0 4 0;
#X connect 33 0 5 0;
#X connect 33 0 6 0;
#X connect 33 0 7 0;
#X connect 34 0 8 0;
#X connect 34 0 9 0;
#X connect 34 0 10 0;
#X connect 34 0 11 0;
#X connect 34 0 12 0;
#X connect 34 0 13 0;
#X connect 34 0 14 0;
#X connect 34 0 15 0;
#X connect 35 0 2 0;
#X connect 35 0 3 0;
#X connect 35 0 6 0;
#X connect 35 0 7 0;
#X connect 35 0 10 0;
#X connect 35 0 11 0;
#X connect 35 0 14 0;
#X connect 35 0 15 0;
#X restore 15 5 pd randomstepsetonoise16;
#X obj 105 183 bng 10 250 50 0 empty empty empty 17 7 0 10 -66577 -3707
-1;
#X obj 115 183 bng 10 250 50 0 empty empty empty 17 7 0 10 -66577 -3707
-1;
#X obj 125 183 bng 10 250 50 0 empty empty empty 17 7 0 10 -66577 -3707
-1;
#X obj 135 183 bng 10 250 50 0 empty empty empty 17 7 0 10 -66577 -3707
-1;
#X obj 3 107 random 18000;
#X obj 3 87 t b;
#X obj 3 129 spigot;
#X obj 245 183 tgl 10 0 empty empty empty 17 7 0 10 -66577 -3707 -1
0 1;
#X obj 255 183 tgl 10 0 empty empty empty 17 7 0 10 -66577 -3707 -1
1 1;
#X obj 114 214 t b;
#X obj 114 256 spigot;
#X obj 624 121 spigot;
#X obj 176 183 hradio 10 1 0 5 empty empty empty 0 -8 0 10 -66577 -3707
-1 1;
#X obj 687 249 select 0 1 2 3 4;
#X obj 705 282 t b b;
#X obj 745 282 t b b;
#X obj 785 282 t b b;
#X obj 825 282 t b b;
#X obj 674 121 spigot;
#X obj 724 121 spigot;
#X obj 774 121 spigot;
#X msg 721 311 0;
#X msg 694 311 1;
#X msg 775 311 0;
#X msg 748 311 1;
#X msg 828 311 0;
#X msg 801 311 1;
#X msg 882 311 0;
#X msg 855 311 1;
#X msg 649 310 0;
#X msg 704 94 1;
#X obj 688 2 t f f;
#X obj 688 41 select 16;
#X obj 737 22 - 1;
#X obj 79 339 mtof;
#X obj 114 234 random 128;
#X obj 156 108 cnv 10 10 10 empty empty ~sin 2 5 1 9 -262144 -1 0;
#X obj 211 108 cnv 10 10 10 empty empty noiz 2 5 1 9 -262144 -1 0;
#X obj 146 183 cnv 10 10 10 empty empty rnd 1 5 1 9 -262144 -1 0;
#X obj 227 183 cnv 10 10 10 empty empty seq 1 5 1 9 -262144 -1 0;
#X obj 275 108 cnv 10 10 10 empty empty mix 1 5 1 9 -262144 -1 0;
#X msg 127 -38 60;
#X obj 30 429 *~;
#X obj 54 429 line~;
#X msg 57 409 \$1 20;
#X obj 125 367 / 127;
#X obj 4 257 *~;
#X obj 29 259 line~;
#X msg 33 236 \$1 20;
#X obj 39 215 / 127;
#X obj 302 127 vsl 15 64 0 127 0 0 empty empty empty 0 -9 0 10 -66577
-3707 -1 5700 1;
#X obj 319 126 vsl 15 64 0 127 0 0 empty empty empty 0 -9 0 10 -66577
-3707 -1 1587 1;
#X msg 157 -38 117;
#X obj 176 448 outlet~;
#X obj 226 448 outlet~;
#X msg 33 -39 127;
#X obj 135 404 / 127;
#X msg 97 -39 100;
#X obj 101 202 cnv 4 10 4 empty empty mixout 2 3 1 9 -262144 -1 0;
#X obj 203 202 cnv 4 10 4 empty empty outsin 2 3 1 9 -262144 -1 0;
#X obj 303 202 cnv 4 10 4 empty empty outnoiz 2 3 1 9 -262144 -1 0
;
#X obj 301 108 cnv 10 10 10 empty empty sin 1 5 1 9 -262144 -1 0;
#X obj 321 108 cnv 10 10 10 empty empty nz 1 5 1 9 -262144 -1 0;
#X obj 65 185 f;
#X obj 42 160 sel 0;
#X obj 165 380 f;
#X obj 123 341 sel 0;
#X obj 189 354 mtof;
#X obj 221 7 random 16;
#X obj 220 -15 spigot;
#X obj 164 183 tgl 10 0 empty empty empty 17 7 0 10 -66577 -3707 -1
1 1;
#X obj 220 -36 select 15;
#X obj 219 31 t f f;
#X obj 383 3 r pscorchea;
#X obj 51 365 hip~;
#X obj 37 384 *~ 0.2;
#X obj -10 362 bp~ 500 4;
#X obj 837 30 r notes;
#X obj 837 56 unpack;
#X floatatom 837 85 5 0 0 0 - - -, f 5;
#X obj 847 140 bng 8 250 50 0 empty empty empty 17 7 0 10 -262144 -1
-1;
#X obj 861 136 bng 8 250 50 0 empty empty empty 17 7 0 10 -262144 -1
-1;
#X obj 876 150 bng 8 250 50 0 empty empty empty 17 7 0 10 -262144 -1
-1;
#X obj 885 159 bng 8 250 50 0 empty empty empty 17 7 0 10 -262144 -1
-1;
#X obj 939 171 bng 8 250 50 0 empty empty empty 17 7 0 10 -262144 -1
-1;
#X obj 833 111 sel 77 78 79 80 81 82 83;
#X obj 975 166 bng 8 250 50 0 empty empty empty 17 7 0 10 -262144 -1
-1;
#X obj 998 153 bng 8 250 50 0 empty empty empty 17 7 0 10 -262144 -1
-1;
#X obj 991 277 spigot;
#X obj 1054 241 tgl 15 0 empty empty empty 17 7 0 10 -262144 -1 -1
0 1;
#X obj 988 319 tgl 15 0 empty empty empty 17 7 0 10 -262144 -1 -1 1
1;
#X obj 980 207 spigot;
#X obj 1043 171 tgl 15 0 empty empty empty 17 7 0 10 -262144 -1 -1
0 1;
#X obj 977 249 tgl 15 0 empty empty empty 17 7 0 10 -262144 -1 -1 0
1;
#X obj 1086 225 spigot;
#X obj 1149 189 tgl 15 0 empty empty empty 17 7 0 10 -262144 -1 -1
0 1;
#X obj 1083 267 tgl 15 0 empty empty empty 17 7 0 10 -262144 -1 -1
1 1;
#X msg 6 -41 32;
#X connect 2 0 7 0;
#X connect 3 0 154 0;
#X connect 3 0 156 0;
#X connect 4 0 2 0;
#X connect 4 0 143 1;
#X connect 5 0 114 0;
#X connect 5 0 147 0;
#X connect 6 0 36 1;
#X connect 7 0 126 0;
#X connect 8 0 122 0;
#X connect 9 0 25 0;
#X connect 9 1 28 0;
#X connect 9 2 31 0;
#X connect 10 0 37 1;
#X connect 11 0 38 1;
#X connect 12 0 39 1;
#X connect 13 0 40 1;
#X connect 14 0 41 1;
#X connect 15 0 42 1;
#X connect 16 0 43 1;
#X connect 17 0 44 1;
#X connect 18 0 45 1;
#X connect 19 0 46 1;
#X connect 20 0 47 1;
#X connect 21 0 48 1;
#X connect 22 0 49 1;
#X connect 23 0 50 1;
#X connect 24 0 51 1;
#X connect 25 0 26 0;
#X connect 25 1 27 0;
#X connect 26 0 7 1;
#X connect 27 0 8 1;
#X connect 28 0 29 0;
#X connect 28 1 30 0;
#X connect 29 0 8 1;
#X connect 30 0 7 1;
#X connect 31 0 33 0;
#X connect 31 1 32 0;
#X connect 32 0 7 1;
#X connect 33 0 8 1;
#X connect 34 0 35 0;
#X connect 34 0 85 0;
#X connect 34 0 89 0;
#X connect 34 0 112 0;
#X connect 34 0 151 0;
#X connect 35 0 36 0;
#X connect 35 0 56 0;
#X connect 35 1 37 0;
#X connect 35 1 57 0;
#X connect 35 2 38 0;
#X connect 35 2 58 0;
#X connect 35 3 39 0;
#X connect 35 3 59 0;
#X connect 35 4 40 0;
#X connect 35 4 60 0;
#X connect 35 5 41 0;
#X connect 35 5 61 0;
#X connect 35 6 42 0;
#X connect 35 6 62 0;
#X connect 35 7 43 0;
#X connect 35 7 63 0;
#X connect 35 8 44 0;
#X connect 35 8 64 0;
#X connect 35 9 45 0;
#X connect 35 9 65 0;
#X connect 35 10 46 0;
#X connect 35 10 66 0;
#X connect 35 11 47 0;
#X connect 35 11 67 0;
#X connect 35 12 48 0;
#X connect 35 12 68 0;
#X connect 35 13 49 0;
#X connect 35 13 69 0;
#X connect 35 14 50 0;
#X connect 35 14 70 0;
#X connect 35 15 51 0;
#X connect 35 15 71 0;
#X connect 36 0 9 0;
#X connect 37 0 9 0;
#X connect 38 0 9 0;
#X connect 39 0 9 0;
#X connect 40 0 9 0;
#X connect 41 0 9 0;
#X connect 42 0 9 0;
#X connect 43 0 9 0;
#X connect 44 0 9 0;
#X connect 45 0 9 0;
#X connect 46 0 9 0;
#X connect 47 0 9 0;
#X connect 48 0 9 0;
#X connect 49 0 9 0;
#X connect 50 0 9 0;
#X connect 51 0 9 0;
#X connect 52 0 74 0;
#X connect 53 0 55 0;
#X connect 54 0 136 0;
#X connect 56 0 75 0;
#X connect 74 0 31 0;
#X connect 75 0 76 0;
#X connect 76 0 111 0;
#X connect 77 0 78 0;
#X connect 77 0 137 0;
#X connect 77 0 121 0;
#X connect 77 0 132 0;
#X connect 77 0 135 0;
#X connect 77 0 80 0;
#X connect 77 0 177 0;
#X connect 78 0 75 0;
#X connect 79 0 6 0;
#X connect 79 1 10 0;
#X connect 79 2 11 0;
#X connect 79 3 12 0;
#X connect 79 4 13 0;
#X connect 79 5 14 0;
#X connect 79 6 15 0;
#X connect 79 7 16 0;
#X connect 79 8 17 0;
#X connect 79 9 18 0;
#X connect 79 10 19 0;
#X connect 79 11 20 0;
#X connect 79 12 21 0;
#X connect 79 13 22 0;
#X connect 79 14 23 0;
#X connect 79 15 24 0;
#X connect 80 0 79 0;
#X connect 81 0 79 1;
#X connect 82 0 79 2;
#X connect 83 0 79 3;
#X connect 84 0 86 0;
#X connect 85 0 84 0;
#X connect 86 0 2 0;
#X connect 87 0 86 1;
#X connect 87 0 144 0;
#X connect 88 0 90 1;
#X connect 88 0 146 0;
#X connect 89 0 115 0;
#X connect 90 0 114 0;
#X connect 91 0 80 0;
#X connect 92 0 93 0;
#X connect 93 0 109 0;
#X connect 93 1 94 0;
#X connect 93 2 95 0;
#X connect 93 3 96 0;
#X connect 93 4 97 0;
#X connect 94 0 102 0;
#X connect 94 1 101 0;
#X connect 95 0 104 0;
#X connect 95 1 103 0;
#X connect 96 0 106 0;
#X connect 96 1 105 0;
#X connect 97 0 108 0;
#X connect 97 1 107 0;
#X connect 98 0 81 0;
#X connect 99 0 82 0;
#X connect 100 0 83 0;
#X connect 101 0 98 1;
#X connect 101 0 99 1;
#X connect 101 0 100 1;
#X connect 102 0 91 1;
#X connect 103 0 91 1;
#X connect 103 0 99 1;
#X connect 103 0 100 1;
#X connect 104 0 98 1;
#X connect 105 0 91 1;
#X connect 105 0 98 1;
#X connect 105 0 100 1;
#X connect 106 0 99 1;
#X connect 107 0 91 1;
#X connect 107 0 98 1;
#X connect 107 0 99 1;
#X connect 108 0 100 1;
#X connect 109 0 91 1;
#X connect 109 0 98 1;
#X connect 109 0 99 1;
#X connect 109 0 100 1;
#X connect 110 0 91 0;
#X connect 110 0 98 0;
#X connect 110 0 99 0;
#X connect 110 0 100 0;
#X connect 111 0 34 1;
#X connect 111 1 113 0;
#X connect 112 0 110 0;
#X connect 113 0 112 1;
#X connect 114 0 154 1;
#X connect 114 0 156 1;
#X connect 115 0 90 0;
#X connect 121 0 4 0;
#X connect 122 0 53 0;
#X connect 122 0 134 0;
#X connect 123 0 122 1;
#X connect 124 0 123 0;
#X connect 125 0 124 0;
#X connect 126 0 53 0;
#X connect 126 0 133 0;
#X connect 127 0 126 1;
#X connect 128 0 127 0;
#X connect 129 0 128 0;
#X connect 130 0 129 0;
#X connect 131 0 125 0;
#X connect 132 0 5 0;
#X connect 135 0 130 0;
#X connect 136 0 53 1;
#X connect 137 0 54 0;
#X connect 143 0 2 0;
#X connect 144 0 143 0;
#X connect 145 0 156 1;
#X connect 146 0 145 0;
#X connect 147 0 145 1;
#X connect 148 0 152 0;
#X connect 149 0 148 0;
#X connect 150 0 149 1;
#X connect 151 0 149 0;
#X connect 152 0 151 1;
#X connect 152 1 75 0;
#X connect 153 0 34 0;
#X connect 154 0 155 0;
#X connect 155 0 8 0;
#X connect 156 0 8 0;
#X connect 157 0 158 0;
#X connect 158 0 159 0;
#X connect 159 0 165 0;
#X connect 160 0 80 0;
#X connect 161 0 81 0;
#X connect 162 0 82 0;
#X connect 163 0 83 0;
#X connect 164 0 168 0;
#X connect 164 0 169 0;
#X connect 165 0 160 0;
#X connect 165 1 161 0;
#X connect 165 2 162 0;
#X connect 165 3 163 0;
#X connect 165 4 164 0;
#X connect 165 5 166 0;
#X connect 165 6 167 0;
#X connect 166 0 172 0;
#X connect 166 0 171 0;
#X connect 167 0 175 0;
#X connect 167 0 174 0;
#X connect 168 0 170 0;
#X connect 169 0 168 1;
#X connect 170 0 150 0;
#X connect 171 0 173 0;
#X connect 172 0 171 1;
#X connect 173 0 87 0;
#X connect 174 0 176 0;
#X connect 175 0 174 1;
#X connect 176 0 88 0;
#X connect 177 0 131 0;
#X coords 0 -1 1 1 240 110 2 100 100;
