#N canvas 0 54 1024 546 10;
#X obj 65 27 inlet~ audio1;
#X obj 64 293 *~;
#X obj 503 103 cnv 8 236 41 empty empty G-16 198 28 1 16 -1 -66577
0;
#X obj 505 120 cnv 8 192 22 empty empty empty 20 12 0 14 -3707 -66577
0;
#X obj 506 121 vradio 10 1 0 2 empty empty empty 0 -8 0 10 -1 -3707
-1 0;
#X obj 518 121 vradio 10 1 0 2 empty empty empty 0 -8 0 10 -1 -3707
-1 0;
#X obj 530 121 vradio 10 1 0 2 empty empty empty 0 -8 0 10 -1 -3707
-1 0;
#X obj 542 121 vradio 10 1 0 2 empty empty empty 0 -8 0 10 -1 -3707
-1 0;
#X obj 554 121 vradio 10 1 0 2 empty empty empty 0 -8 0 10 -1 -3707
-1 0;
#X obj 566 121 vradio 10 1 0 2 empty empty empty 0 -8 0 10 -1 -3707
-1 0;
#X obj 578 121 vradio 10 1 0 2 empty empty empty 0 -8 0 10 -1 -3707
-1 0;
#X obj 590 121 vradio 10 1 0 2 empty empty empty 0 -8 0 10 -1 -3707
-1 0;
#X obj 602 121 vradio 10 1 0 2 empty empty empty 0 -8 0 10 -1 -3707
-1 0;
#X obj 614 121 vradio 10 1 0 2 empty empty empty 0 -8 0 10 -1 -3707
-1 0;
#X obj 626 121 vradio 10 1 0 2 empty empty empty 0 -8 0 10 -1 -3707
-1 0;
#X obj 638 121 vradio 10 1 0 2 empty empty empty 0 -8 0 10 -1 -3707
-1 0;
#X obj 650 121 vradio 10 1 0 2 empty empty empty 0 -8 0 10 -1 -3707
-1 0;
#X obj 662 121 vradio 10 1 0 2 empty empty empty 0 -8 0 10 -1 -3707
-1 0;
#X obj 674 121 vradio 10 1 0 2 empty empty empty 0 -8 0 10 -1 -3707
-1 0;
#X obj 686 121 vradio 10 1 0 2 empty empty empty 0 -8 0 10 -1 -3707
-1 0;
#N canvas 128 244 726 300 entradaDeGatesParaSecuenciadorDeAmp 0;
#X obj 107 8 inlet;
#X obj 144 8 inlet;
#X obj 181 8 inlet;
#X obj 218 8 inlet;
#X obj 255 8 inlet;
#X obj 292 8 inlet;
#X obj 329 8 inlet;
#X obj 366 8 inlet;
#X obj 403 8 inlet;
#X obj 440 8 inlet;
#X obj 477 8 inlet;
#X obj 514 8 inlet;
#X obj 551 8 inlet;
#X obj 588 8 inlet;
#X obj 625 8 inlet;
#X obj 662 8 inlet;
#X obj 106 121 f;
#X obj 130 121 f;
#X obj 154 121 f;
#X obj 178 121 f;
#X obj 202 121 f;
#X obj 226 121 f;
#X obj 250 121 f;
#X obj 274 121 f;
#X obj 298 121 f;
#X obj 322 121 f;
#X obj 346 121 f;
#X obj 370 121 f;
#X obj 394 121 f;
#X obj 418 121 f;
#X obj 442 121 f;
#X obj 466 121 f;
#X obj 263 181 outlet;
#X obj 17 58 sel 0 1 2 3 4 5 6 7 8 9 10 11 12 13 14 15;
#X obj 17 7 inlet;
#X connect 0 0 16 1;
#X connect 1 0 17 1;
#X connect 2 0 18 1;
#X connect 3 0 19 1;
#X connect 4 0 20 1;
#X connect 5 0 21 1;
#X connect 6 0 22 1;
#X connect 7 0 23 1;
#X connect 8 0 24 1;
#X connect 9 0 25 1;
#X connect 10 0 26 1;
#X connect 11 0 27 1;
#X connect 12 0 28 1;
#X connect 13 0 29 1;
#X connect 14 0 30 1;
#X connect 15 0 31 1;
#X connect 16 0 32 0;
#X connect 17 0 32 0;
#X connect 18 0 32 0;
#X connect 19 0 32 0;
#X connect 20 0 32 0;
#X connect 21 0 32 0;
#X connect 22 0 32 0;
#X connect 23 0 32 0;
#X connect 24 0 32 0;
#X connect 25 0 32 0;
#X connect 26 0 32 0;
#X connect 27 0 32 0;
#X connect 28 0 32 0;
#X connect 29 0 32 0;
#X connect 30 0 32 0;
#X connect 31 0 32 0;
#X connect 33 0 16 0;
#X connect 33 1 17 0;
#X connect 33 2 18 0;
#X connect 33 3 19 0;
#X connect 33 4 20 0;
#X connect 33 5 21 0;
#X connect 33 6 22 0;
#X connect 33 7 23 0;
#X connect 33 8 24 0;
#X connect 33 9 25 0;
#X connect 33 10 26 0;
#X connect 33 11 27 0;
#X connect 33 12 28 0;
#X connect 33 13 29 0;
#X connect 33 14 30 0;
#X connect 33 15 31 0;
#X connect 34 0 33 0;
#X restore 443 327 pd entradaDeGatesParaSecuenciadorDeAmp;
#X msg 443 349 \$1 20;
#X obj 443 371 line~;
#N canvas 237 291 604 300 recibepulsos 0;
#X obj 216 -4 inlet;
#X obj 7 272 outlet;
#X obj 216 22 sel 0 1 2 3 4;
#X obj 142 186 spigot;
#X obj 205 186 spigot;
#X obj 276 186 spigot;
#X obj 351 186 spigot;
#X obj 428 186 spigot;
#X msg 13 60 1 0 0 0 0;
#X obj 13 82 unpack f f f f f;
#X msg 123 60 1 0 0 0 0;
#X obj 123 82 unpack f f f f f;
#X msg 233 60 1 0 0 0 0;
#X obj 233 82 unpack f f f f f;
#X msg 343 60 1 0 0 0 0;
#X obj 343 82 unpack f f f f f;
#X msg 453 60 1 0 0 0 0;
#X obj 453 82 unpack f f f f f;
#X obj 428 164 r pfusa;
#X obj 351 164 r pscorchea;
#X obj 276 164 r pbardiv12;
#X obj 205 164 r pcorchea;
#X obj 142 164 r pnegra;
#X connect 0 0 2 0;
#X connect 2 0 8 0;
#X connect 2 1 10 0;
#X connect 2 2 12 0;
#X connect 2 3 14 0;
#X connect 2 4 16 0;
#X connect 3 0 1 0;
#X connect 4 0 1 0;
#X connect 5 0 1 0;
#X connect 6 0 1 0;
#X connect 7 0 1 0;
#X connect 8 0 9 0;
#X connect 9 0 3 1;
#X connect 9 1 7 1;
#X connect 9 2 6 1;
#X connect 9 3 5 1;
#X connect 9 4 4 1;
#X connect 10 0 11 0;
#X connect 11 0 4 1;
#X connect 11 1 7 1;
#X connect 11 2 6 1;
#X connect 11 3 5 1;
#X connect 11 4 3 1;
#X connect 12 0 13 0;
#X connect 13 0 5 1;
#X connect 13 1 7 1;
#X connect 13 2 6 1;
#X connect 13 3 4 1;
#X connect 13 4 3 1;
#X connect 14 0 15 0;
#X connect 15 0 6 1;
#X connect 15 1 7 1;
#X connect 15 2 5 1;
#X connect 15 3 4 1;
#X connect 15 4 3 1;
#X connect 16 0 17 0;
#X connect 17 0 7 1;
#X connect 17 1 6 1;
#X connect 17 2 5 1;
#X connect 17 3 4 1;
#X connect 17 4 3 1;
#X connect 18 0 7 0;
#X connect 19 0 6 0;
#X connect 20 0 5 0;
#X connect 21 0 4 0;
#X connect 22 0 3 0;
#X restore 332 59 pd recibepulsos;
#X obj 645 105 cnv 8 52 12 empty empty empty 20 12 0 14 -3707 -66577
0;
#X obj 646 106 hradio 10 1 0 5 empty empty tmp -18 5 1 9 -66577 -3707
-3707 3;
#X obj 326 183 mod 16;
#X obj 64 315 outlet~;
#X obj 565 105 cnv 8 48 12 empty empty rnd -16 6 1 9 -3707 -3707 0
;
#N canvas 70 153 784 300 RandomGateParaAudio16Salidas 0;
#X obj 5 11 inlet;
#X obj 45 11 inlet;
#X obj 85 11 inlet;
#X obj 5 209 outlet;
#X obj 47 209 outlet;
#X obj 89 209 outlet;
#X obj 131 209 outlet;
#X obj 173 209 outlet;
#X obj 215 209 outlet;
#X obj 257 209 outlet;
#X obj 299 209 outlet;
#X obj 341 209 outlet;
#X obj 383 209 outlet;
#X obj 425 209 outlet;
#X obj 467 209 outlet;
#X obj 509 209 outlet;
#X obj 551 209 outlet;
#X obj 593 209 outlet;
#X obj 635 209 outlet;
#X obj 136 11 inlet;
#X obj 5 80 random 2;
#X obj 15 100 random 2;
#X obj 60 80 random 2;
#X obj 70 100 random 2;
#X obj 115 80 random 2;
#X obj 125 100 random 2;
#X obj 170 80 random 2;
#X obj 180 100 random 2;
#X obj 225 80 random 2;
#X obj 235 100 random 2;
#X obj 280 80 random 2;
#X obj 290 100 random 2;
#X obj 335 80 random 2;
#X obj 345 100 random 2;
#X obj 390 80 random 2;
#X obj 400 100 random 2;
#X connect 0 0 20 0;
#X connect 0 0 21 0;
#X connect 0 0 22 0;
#X connect 0 0 23 0;
#X connect 0 0 24 0;
#X connect 0 0 25 0;
#X connect 0 0 26 0;
#X connect 0 0 27 0;
#X connect 0 0 28 0;
#X connect 0 0 29 0;
#X connect 0 0 30 0;
#X connect 0 0 31 0;
#X connect 0 0 32 0;
#X connect 0 0 33 0;
#X connect 0 0 34 0;
#X connect 0 0 35 0;
#X connect 1 0 20 0;
#X connect 1 0 21 0;
#X connect 1 0 22 0;
#X connect 1 0 23 0;
#X connect 1 0 24 0;
#X connect 1 0 25 0;
#X connect 1 0 26 0;
#X connect 1 0 27 0;
#X connect 2 0 28 0;
#X connect 2 0 29 0;
#X connect 2 0 30 0;
#X connect 2 0 31 0;
#X connect 2 0 32 0;
#X connect 2 0 33 0;
#X connect 2 0 34 0;
#X connect 2 0 35 0;
#X connect 19 0 24 0;
#X connect 19 0 25 0;
#X connect 19 0 26 0;
#X connect 19 0 27 0;
#X connect 19 0 32 0;
#X connect 19 0 33 0;
#X connect 19 0 34 0;
#X connect 19 0 35 0;
#X connect 20 0 3 0;
#X connect 21 0 4 0;
#X connect 22 0 5 0;
#X connect 23 0 6 0;
#X connect 24 0 7 0;
#X connect 25 0 8 0;
#X connect 26 0 9 0;
#X connect 27 0 10 0;
#X connect 28 0 11 0;
#X connect 29 0 12 0;
#X connect 30 0 13 0;
#X connect 31 0 14 0;
#X connect 32 0 15 0;
#X connect 33 0 16 0;
#X connect 34 0 17 0;
#X connect 35 0 18 0;
#X restore 559 29 pd RandomGateParaAudio16Salidas;
#X obj 590 106 bng 10 250 50 0 empty empty empty 17 7 0 10 -66577 -3707
-1;
#X obj 578 106 bng 10 250 50 0 empty empty empty 17 7 0 10 -66577 -3707
-1;
#X obj 566 106 bng 10 250 50 0 empty empty empty 17 7 0 10 -66577 -3707
-1;
#X obj 522 106 nbx 2 10 1 16 0 0 empty empty rdx -16 5 1 9 -1 -3707
-3707 16 256;
#X obj 414 13 loadbang;
#X msg 417 34 16;
#X msg 450 34 3;
#X obj 602 106 bng 10 250 50 0 empty empty empty 17 7 0 10 -66577 -3707
-1;
#X obj 701 105 cnv 8 12 12 empty empty init 14 6 1 9 -3707 -3707 0
;
#X obj 702 106 bng 10 250 50 0 empty empty empty 17 7 0 10 -1 -3707
-1;
#X obj 327 222 sel 0;
#X connect 0 0 1 0;
#X connect 1 0 27 0;
#X connect 4 0 20 1;
#X connect 5 0 20 2;
#X connect 6 0 20 3;
#X connect 7 0 20 4;
#X connect 8 0 20 5;
#X connect 9 0 20 6;
#X connect 10 0 20 7;
#X connect 11 0 20 8;
#X connect 12 0 20 9;
#X connect 13 0 20 10;
#X connect 14 0 20 11;
#X connect 15 0 20 12;
#X connect 16 0 20 13;
#X connect 17 0 20 14;
#X connect 18 0 20 15;
#X connect 19 0 20 16;
#X connect 20 0 21 0;
#X connect 21 0 22 0;
#X connect 22 0 1 1;
#X connect 23 0 26 0;
#X connect 25 0 23 0;
#X connect 26 0 20 0;
#X connect 26 0 40 0;
#X connect 29 0 4 0;
#X connect 29 1 5 0;
#X connect 29 2 6 0;
#X connect 29 3 7 0;
#X connect 29 4 8 0;
#X connect 29 5 9 0;
#X connect 29 6 10 0;
#X connect 29 7 11 0;
#X connect 29 8 12 0;
#X connect 29 9 13 0;
#X connect 29 10 14 0;
#X connect 29 11 15 0;
#X connect 29 12 16 0;
#X connect 29 13 17 0;
#X connect 29 14 18 0;
#X connect 29 15 19 0;
#X connect 30 0 29 2;
#X connect 31 0 29 1;
#X connect 32 0 29 0;
#X connect 33 0 26 1;
#X connect 34 0 35 0;
#X connect 34 0 36 0;
#X connect 35 0 33 0;
#X connect 36 0 25 0;
#X connect 37 0 29 3;
#X connect 40 0 39 0;
#X coords 0 -1 1 1 242 47 2 500 100;
