#N canvas 0 54 1024 546 10;
#X obj 103 103 cnv 8 300 104 empty empty empty 20 12 0 14 -1 -66577
0;
#X obj 104 127 bng 10 100 50 0 empty empty empty 17 7 0 10 -1 -3707
-1;
#X obj 104 139 bng 10 100 50 0 empty empty empty 17 7 0 10 -1 -3707
-1;
#X obj 104 151 bng 10 100 50 0 empty empty empty 17 7 0 10 -1 -3707
-1;
#X obj 104 163 bng 10 100 50 0 empty empty empty 17 7 0 10 -1 -3707
-1;
#X obj 115 127 bng 10 250 50 0 empty empty s1 12 6 1 10 -3707 -1 -3707
;
#X obj 115 139 bng 10 250 50 0 empty empty s2 12 6 1 10 -3707 -1 -3707
;
#X obj 115 151 bng 10 250 50 0 empty empty s3 12 6 1 10 -3707 -1 -3707
;
#X obj 115 163 bng 10 250 50 0 empty empty s4 12 6 1 10 -3707 -1 -3707
;
#X obj 320 243 openpanel;
#X obj 320 287 soundfiler;
#X obj 490 243 openpanel;
#X obj 490 287 soundfiler;
#X obj 660 243 openpanel;
#X obj 660 287 soundfiler;
#X obj 750 193 openpanel;
#X obj 750 237 soundfiler;
#X obj 254 526 *~;
#X obj 332 487 line~;
#X msg 332 457 \$1 20;
#X obj 523 615 outlet~;
#X obj 477 581 *~ 1;
#X obj 457 518 *~;
#X obj 482 459 line~;
#X msg 482 437 \$1 20;
#X obj 614 524 *~;
#X obj 632 497 line~;
#X msg 632 477 \$1 20;
#X obj 764 522 *~;
#X obj 802 497 line~;
#X msg 802 467 \$1 20;
#X obj 573 615 outlet~;
#X obj 623 615 outlet~;
#X obj 673 615 outlet~;
#X obj 464 614 outlet~;
#X obj 331 436 / 127;
#X obj 482 415 / 127;
#X obj 631 456 / 127;
#X obj 800 447 / 127;
#X obj 180 14 loadbang;
#X obj 142 125 cnv 8 52 60 empty empty empty 20 12 0 14 -3707 -66577
0;
#X obj 146 126 hsl 45 10 0 127 0 0 empty empty empty -2 -8 0 10 -1
-3707 -1 4400 1;
#X obj 146 138 hsl 45 10 0 127 0 0 empty empty empty -2 -8 0 10 -1
-3707 -1 3465 1;
#X obj 146 150 hsl 45 10 0 127 0 0 empty empty empty -2 -8 0 10 -1
-3707 -1 3465 1;
#X obj 146 162 hsl 45 10 0 127 0 0 empty empty empty -2 -8 0 10 -1
-3707 -1 3465 1;
#N canvas 278 236 641 304 sampler01 0;
#N canvas 0 82 450 250 (subpatch) 0;
#X array m1 86272 float 2;
#X coords 0 -1 86272 1 100 70 2 0 0;
#X restore 16 22 graph;
#N canvas 0 82 450 250 (subpatch) 0;
#X array m2 87168 float 2;
#X coords 0 1 87168 -1 100 70 1 0 0;
#X restore 123 22 graph;
#N canvas 0 50 450 250 (subpatch) 0;
#X array m3 86784 float 2;
#X coords 0 1 86784 -1 100 70 1 0 0;
#X restore 229 22 graph;
#N canvas 0 82 450 250 (subpatch) 0;
#X array m4 70592 float 2;
#X coords 0 1 70592 -1 100 70 1 0 0;
#X restore 333 22 graph;
#N canvas 0 82 450 250 (subpatch) 0;
#X array m5 88576 float 0;
#X coords 0 1 88575 -1 100 70 1 0 0;
#X restore 437 22 graph;
#X restore 105 226 pd sampler01;
#X obj 156 113 cnv 10 10 10 empty empty amp 2 5 1 9 -1 -3707 0;
#X obj 114 113 cnv 10 10 10 empty empty open 2 5 1 9 -1 -3707 0;
#N canvas 0 82 541 300 distfilter 0;
#X obj 143 86 clip~ -1 1;
#X obj 144 64 *~ 1;
#X obj 192 118 hip~ 2000;
#X obj 53 118 vcf~ 120 2;
#X obj 123 118 bp~ 500 2;
#X obj 83 210 *~ 1;
#X obj 153 210 *~ 1;
#X obj 222 210 *~ 1;
#X obj 40 19 inlet~;
#X obj 97 19 inlet;
#X obj 58 72 mtof;
#X obj 144 19 inlet;
#X obj 185 19 inlet;
#X obj 152 251 outlet~;
#X obj 225 19 inlet;
#X obj 313 71 select 0 1 2;
#X obj 313 93 t b b;
#X obj 356 93 t b b;
#X obj 413 91 t b b;
#X msg 296 118 1;
#X msg 326 118 0;
#X msg 356 118 1;
#X msg 386 118 0;
#X msg 414 118 1;
#X msg 444 118 0;
#X connect 0 0 3 0;
#X connect 0 0 4 0;
#X connect 0 0 2 0;
#X connect 1 0 0 0;
#X connect 2 0 7 0;
#X connect 3 0 5 0;
#X connect 4 0 6 0;
#X connect 5 0 13 0;
#X connect 6 0 13 0;
#X connect 7 0 13 0;
#X connect 8 0 1 0;
#X connect 9 0 1 1;
#X connect 10 0 3 1;
#X connect 10 0 4 1;
#X connect 10 0 2 1;
#X connect 11 0 10 0;
#X connect 12 0 3 2;
#X connect 12 0 4 2;
#X connect 14 0 15 0;
#X connect 15 0 16 0;
#X connect 15 1 17 0;
#X connect 15 2 18 0;
#X connect 16 0 19 0;
#X connect 16 1 20 0;
#X connect 17 0 21 0;
#X connect 17 1 22 0;
#X connect 18 0 23 0;
#X connect 18 1 24 0;
#X connect 19 0 5 1;
#X connect 20 0 6 1;
#X connect 20 0 7 1;
#X connect 21 0 6 1;
#X connect 22 0 7 1;
#X connect 22 0 5 1;
#X connect 23 0 7 1;
#X connect 24 0 6 1;
#X connect 24 0 5 1;
#X restore 257 373 pd distfilter;
#X obj 252 125 cnv 8 27 60 empty empty empty 20 12 0 14 -3707 -66577
0;
#X obj 256 126 hsl 20 10 1 20 0 0 empty empty empty -2 -8 0 10 -1 -3707
-1 0 1;
#X obj 254 113 cnv 10 10 10 empty empty sat 2 5 1 9 -1 -3707 0;
#X obj 282 125 cnv 8 111 60 empty empty empty 20 12 0 14 -3707 -66577
0;
#X obj 283 126 hradio 10 1 0 3 empty empty empty 0 -8 0 10 -1 -3707
-1 1;
#X obj 318 126 hsl 45 10 0 127 0 0 empty empty empty -2 -8 0 10 -1
-3707 -1 4400 1;
#X obj 370 126 hsl 20 10 0 9 0 0 empty empty empty -2 -8 0 10 -1 -3707
-1 0 1;
#X obj 281 113 cnv 10 10 10 empty empty type 2 5 1 9 -1 -3707 0;
#X obj 313 113 cnv 10 10 10 empty empty cutoff 2 5 1 9 -1 -3707 0;
#X obj 366 113 cnv 10 10 10 empty empty res 2 5 1 9 -1 -3707 0;
#X msg 231 39 0;
#X msg 264 39 127;
#X msg 297 39 1;
#X obj 256 138 hsl 20 10 1 20 0 0 empty empty empty -2 -8 0 10 -1 -3707
-1 0 1;
#X obj 256 150 hsl 20 10 1 20 0 0 empty empty empty -2 -8 0 10 -1 -3707
-1 0 1;
#X obj 256 162 hsl 20 10 1 20 0 0 empty empty empty -2 -8 0 10 -1 -3707
-1 0 1;
#X obj 283 138 hradio 10 1 0 3 empty empty empty 0 -8 0 10 -1 -3707
-1 1;
#X obj 318 138 hsl 45 10 0 127 0 0 empty empty empty -2 -8 0 10 -1
-3707 -1 4400 1;
#X obj 370 138 hsl 20 10 0 9 0 0 empty empty empty -2 -8 0 10 -1 -3707
-1 0 1;
#X obj 283 150 hradio 10 1 0 3 empty empty empty 0 -8 0 10 -1 -3707
-1 1;
#X obj 318 150 hsl 45 10 0 127 0 0 empty empty empty -2 -8 0 10 -1
-3707 -1 4400 1;
#X obj 370 150 hsl 20 10 0 9 0 0 empty empty empty -2 -8 0 10 -1 -3707
-1 0 1;
#X obj 283 162 hradio 10 1 0 3 empty empty empty 0 -8 0 10 -1 -3707
-1 1;
#X obj 318 162 hsl 45 10 0 127 0 0 empty empty empty -2 -8 0 10 -1
-3707 -1 4400 1;
#X obj 370 162 hsl 20 10 0 9 0 0 empty empty empty -2 -8 0 10 -1 -3707
-1 0 1;
#N canvas 0 87 541 300 distfilter 0;
#X obj 143 86 clip~ -1 1;
#X obj 144 64 *~ 1;
#X obj 192 118 hip~ 2000;
#X obj 53 118 vcf~ 120 2;
#X obj 123 118 bp~ 500 2;
#X obj 83 210 *~ 1;
#X obj 153 210 *~ 1;
#X obj 222 210 *~ 1;
#X obj 40 19 inlet~;
#X obj 97 19 inlet;
#X obj 58 72 mtof;
#X obj 144 19 inlet;
#X obj 185 19 inlet;
#X obj 152 251 outlet~;
#X obj 225 19 inlet;
#X obj 313 71 select 0 1 2;
#X obj 313 93 t b b;
#X obj 356 93 t b b;
#X obj 413 91 t b b;
#X msg 296 118 1;
#X msg 326 118 0;
#X msg 356 118 1;
#X msg 386 118 0;
#X msg 414 118 1;
#X msg 444 118 0;
#X connect 0 0 3 0;
#X connect 0 0 4 0;
#X connect 0 0 2 0;
#X connect 1 0 0 0;
#X connect 2 0 7 0;
#X connect 3 0 5 0;
#X connect 4 0 6 0;
#X connect 5 0 13 0;
#X connect 6 0 13 0;
#X connect 7 0 13 0;
#X connect 8 0 1 0;
#X connect 9 0 1 1;
#X connect 10 0 3 1;
#X connect 10 0 4 1;
#X connect 10 0 2 1;
#X connect 11 0 10 0;
#X connect 12 0 3 2;
#X connect 12 0 4 2;
#X connect 14 0 15 0;
#X connect 15 0 16 0;
#X connect 15 1 17 0;
#X connect 15 2 18 0;
#X connect 16 0 19 0;
#X connect 16 1 20 0;
#X connect 17 0 21 0;
#X connect 17 1 22 0;
#X connect 18 0 23 0;
#X connect 18 1 24 0;
#X connect 19 0 5 1;
#X connect 20 0 6 1;
#X connect 20 0 7 1;
#X connect 21 0 6 1;
#X connect 22 0 7 1;
#X connect 22 0 5 1;
#X connect 23 0 7 1;
#X connect 24 0 6 1;
#X connect 24 0 5 1;
#X restore 457 393 pd distfilter;
#N canvas 0 82 541 300 distfilter 0;
#X obj 143 86 clip~ -1 1;
#X obj 144 64 *~ 1;
#X obj 192 118 hip~ 2000;
#X obj 53 118 vcf~ 120 2;
#X obj 123 118 bp~ 500 2;
#X obj 83 210 *~ 1;
#X obj 153 210 *~ 1;
#X obj 222 210 *~ 1;
#X obj 40 19 inlet~;
#X obj 97 19 inlet;
#X obj 58 72 mtof;
#X obj 144 19 inlet;
#X obj 185 19 inlet;
#X obj 152 251 outlet~;
#X obj 225 19 inlet;
#X obj 313 71 select 0 1 2;
#X obj 313 93 t b b;
#X obj 356 93 t b b;
#X obj 413 91 t b b;
#X msg 296 118 1;
#X msg 326 118 0;
#X msg 356 118 1;
#X msg 386 118 0;
#X msg 414 118 1;
#X msg 444 118 0;
#X connect 0 0 3 0;
#X connect 0 0 4 0;
#X connect 0 0 2 0;
#X connect 1 0 0 0;
#X connect 2 0 7 0;
#X connect 3 0 5 0;
#X connect 4 0 6 0;
#X connect 5 0 13 0;
#X connect 6 0 13 0;
#X connect 7 0 13 0;
#X connect 8 0 1 0;
#X connect 9 0 1 1;
#X connect 10 0 3 1;
#X connect 10 0 4 1;
#X connect 10 0 2 1;
#X connect 11 0 10 0;
#X connect 12 0 3 2;
#X connect 12 0 4 2;
#X connect 14 0 15 0;
#X connect 15 0 16 0;
#X connect 15 1 17 0;
#X connect 15 2 18 0;
#X connect 16 0 19 0;
#X connect 16 1 20 0;
#X connect 17 0 21 0;
#X connect 17 1 22 0;
#X connect 18 0 23 0;
#X connect 18 1 24 0;
#X connect 19 0 5 1;
#X connect 20 0 6 1;
#X connect 20 0 7 1;
#X connect 21 0 6 1;
#X connect 22 0 7 1;
#X connect 22 0 5 1;
#X connect 23 0 7 1;
#X connect 24 0 6 1;
#X connect 24 0 5 1;
#X restore 587 393 pd distfilter;
#N canvas 0 82 541 300 distfilter 0;
#X obj 143 86 clip~ -1 1;
#X obj 144 64 *~ 1;
#X obj 192 118 hip~ 2000;
#X obj 53 118 vcf~ 120 2;
#X obj 123 118 bp~ 500 2;
#X obj 83 210 *~ 1;
#X obj 153 210 *~ 1;
#X obj 222 210 *~ 1;
#X obj 40 19 inlet~;
#X obj 97 19 inlet;
#X obj 58 72 mtof;
#X obj 144 19 inlet;
#X obj 185 19 inlet;
#X obj 152 251 outlet~;
#X obj 225 19 inlet;
#X obj 313 71 select 0 1 2;
#X obj 313 93 t b b;
#X obj 356 93 t b b;
#X obj 413 91 t b b;
#X msg 296 118 1;
#X msg 326 118 0;
#X msg 356 118 1;
#X msg 386 118 0;
#X msg 414 118 1;
#X msg 444 118 0;
#X connect 0 0 3 0;
#X connect 0 0 4 0;
#X connect 0 0 2 0;
#X connect 1 0 0 0;
#X connect 2 0 7 0;
#X connect 3 0 5 0;
#X connect 4 0 6 0;
#X connect 5 0 13 0;
#X connect 6 0 13 0;
#X connect 7 0 13 0;
#X connect 8 0 1 0;
#X connect 9 0 1 1;
#X connect 10 0 3 1;
#X connect 10 0 4 1;
#X connect 10 0 2 1;
#X connect 11 0 10 0;
#X connect 12 0 3 2;
#X connect 12 0 4 2;
#X connect 14 0 15 0;
#X connect 15 0 16 0;
#X connect 15 1 17 0;
#X connect 15 2 18 0;
#X connect 16 0 19 0;
#X connect 16 1 20 0;
#X connect 17 0 21 0;
#X connect 17 1 22 0;
#X connect 18 0 23 0;
#X connect 18 1 24 0;
#X connect 19 0 5 1;
#X connect 20 0 6 1;
#X connect 20 0 7 1;
#X connect 21 0 6 1;
#X connect 22 0 7 1;
#X connect 22 0 5 1;
#X connect 23 0 7 1;
#X connect 24 0 6 1;
#X connect 24 0 5 1;
#X restore 737 393 pd distfilter;
#X obj 402 10 inlet;
#X obj 438 10 inlet;
#X obj 474 10 inlet;
#X obj 510 10 inlet;
#X obj 852 143 openpanel;
#X obj 852 187 soundfiler;
#X obj 906 522 *~;
#X obj 984 497 line~;
#X msg 984 467 \$1 20;
#X obj 982 447 / 127;
#N canvas 0 82 541 300 distfilter 0;
#X obj 143 86 clip~ -1 1;
#X obj 144 64 *~ 1;
#X obj 192 118 hip~ 2000;
#X obj 53 118 vcf~ 120 2;
#X obj 123 118 bp~ 500 2;
#X obj 83 210 *~ 1;
#X obj 153 210 *~ 1;
#X obj 222 210 *~ 1;
#X obj 40 19 inlet~;
#X obj 97 19 inlet;
#X obj 58 72 mtof;
#X obj 144 19 inlet;
#X obj 185 19 inlet;
#X obj 152 251 outlet~;
#X obj 225 19 inlet;
#X obj 313 71 select 0 1 2;
#X obj 313 93 t b b;
#X obj 356 93 t b b;
#X obj 413 91 t b b;
#X msg 296 118 1;
#X msg 326 118 0;
#X msg 356 118 1;
#X msg 386 118 0;
#X msg 414 118 1;
#X msg 444 118 0;
#X connect 0 0 3 0;
#X connect 0 0 4 0;
#X connect 0 0 2 0;
#X connect 1 0 0 0;
#X connect 2 0 7 0;
#X connect 3 0 5 0;
#X connect 4 0 6 0;
#X connect 5 0 13 0;
#X connect 6 0 13 0;
#X connect 7 0 13 0;
#X connect 8 0 1 0;
#X connect 9 0 1 1;
#X connect 10 0 3 1;
#X connect 10 0 4 1;
#X connect 10 0 2 1;
#X connect 11 0 10 0;
#X connect 12 0 3 2;
#X connect 12 0 4 2;
#X connect 14 0 15 0;
#X connect 15 0 16 0;
#X connect 15 1 17 0;
#X connect 15 2 18 0;
#X connect 16 0 19 0;
#X connect 16 1 20 0;
#X connect 17 0 21 0;
#X connect 17 1 22 0;
#X connect 18 0 23 0;
#X connect 18 1 24 0;
#X connect 19 0 5 1;
#X connect 20 0 6 1;
#X connect 20 0 7 1;
#X connect 21 0 6 1;
#X connect 22 0 7 1;
#X connect 22 0 5 1;
#X connect 23 0 7 1;
#X connect 24 0 6 1;
#X connect 24 0 5 1;
#X restore 879 393 pd distfilter;
#X obj 115 175 bng 10 250 50 0 empty empty s5 12 6 1 10 -3707 -1 -3707
;
#X obj 146 174 hsl 45 10 0 127 0 0 empty empty empty -2 -8 0 10 -1
-3707 -1 3465 1;
#X obj 256 174 hsl 20 10 1 20 0 0 empty empty empty -2 -8 0 10 -1 -3707
-1 0 1;
#X obj 283 174 hradio 10 1 0 3 empty empty empty 0 -8 0 10 -1 -3707
-1 1;
#X obj 318 174 hsl 45 10 0 127 0 0 empty empty empty -2 -8 0 10 -1
-3707 -1 4400 1;
#X obj 370 174 hsl 20 10 0 9 0 0 empty empty empty -2 -8 0 10 -1 -3707
-1 0 1;
#X obj 104 175 bng 10 100 50 0 empty empty empty 17 7 0 10 -1 -3707
-1;
#X obj 547 11 inlet;
#X obj 723 615 outlet~;
#X obj 103 103 cnv 10 10 10 empty empty g1in 2 5 1 9 -1 -162280 0;
#X obj 332 103 cnv 10 10 10 empty empty g5in 2 5 1 9 -1 -162280 0;
#X obj 209 103 cnv 10 10 10 empty empty g3in 2 5 1 9 -1 -162280 0;
#X obj 271 103 cnv 10 10 10 empty empty g4in 2 5 1 9 -1 -162280 0;
#X obj 149 103 cnv 10 10 10 empty empty g2in 2 5 1 9 -1 -162280 0;
#X obj 103 197 cnv 10 10 10 empty empty mix 2 5 1 9 -1 -162280 0;
#X obj 380 197 cnv 10 10 10 empty empty 5out 2 5 1 9 -1 -162280 0;
#X obj 149 197 cnv 10 10 10 empty empty 1out 2 5 1 9 -1 -162280 0;
#X obj 210 197 cnv 10 10 10 empty empty 2out 2 5 1 9 -1 -162280 0;
#X obj 271 197 cnv 10 10 10 empty empty 3out 2 5 1 9 -1 -162280 0;
#X obj 330 197 cnv 10 10 10 empty empty 4out 2 5 1 9 -1 -162280 0;
#X obj 350 187 cnv 10 10 10 empty empty microfile 2 5 1 10 -1 -3707
0;
#X msg 490 265 read -resize \$1 m2;
#X msg 660 265 read -resize \$1 m3;
#X msg 750 215 read -resize \$1 m4;
#X msg 852 165 read -resize \$1 m5;
#X obj 464 350 tabplay~ m2;
#X obj 614 350 tabplay~ m3;
#X obj 734 350 tabplay~ m4;
#X obj 876 343 tabplay~ m5;
#X msg 320 265 read -resize \$1 m1;
#X obj 322 345 tabplay~ m1;
#X msg 180 36 100;
#X obj 642 10 inlet;
#N canvas 296 199 675 300 distribuidordebang 0;
#X obj 8 13 inlet;
#X obj 48 13 inlet;
#X obj 88 13 inlet;
#X obj 128 13 inlet;
#X obj 168 13 inlet;
#X obj 278 13 inlet;
#X obj 7 131 spigot;
#X obj 50 131 spigot;
#X obj 97 151 spigot;
#X obj 140 151 spigot;
#X obj 187 171 spigot;
#X obj 230 171 spigot;
#X obj 277 191 spigot;
#X obj 320 191 spigot;
#X obj 367 211 spigot;
#X obj 410 211 spigot;
#X obj 278 38 random 5;
#X obj 278 60 sel 0 1 2 3 4;
#X obj 3 273 outlet;
#X obj 53 273 outlet;
#X obj 103 273 outlet;
#X obj 153 273 outlet;
#X obj 203 273 outlet;
#X obj 422 12 inlet;
#X obj 422 34 sel 0;
#X obj 422 57 t b b;
#X obj 492 57 t b b;
#X msg 422 76 1;
#X msg 449 76 0;
#X msg 492 76 1;
#X msg 519 76 0;
#X connect 0 0 6 0;
#X connect 1 0 8 0;
#X connect 2 0 10 0;
#X connect 3 0 12 0;
#X connect 4 0 14 0;
#X connect 5 0 16 0;
#X connect 6 0 18 0;
#X connect 7 0 18 0;
#X connect 8 0 19 0;
#X connect 9 0 19 0;
#X connect 10 0 20 0;
#X connect 11 0 20 0;
#X connect 12 0 21 0;
#X connect 13 0 21 0;
#X connect 14 0 22 0;
#X connect 15 0 22 0;
#X connect 16 0 17 0;
#X connect 17 0 7 0;
#X connect 17 1 9 0;
#X connect 17 2 11 0;
#X connect 17 3 13 0;
#X connect 17 4 15 0;
#X connect 23 0 24 0;
#X connect 24 0 25 0;
#X connect 24 1 26 0;
#X connect 25 0 27 0;
#X connect 25 1 28 0;
#X connect 26 0 29 0;
#X connect 26 1 30 0;
#X connect 27 0 7 1;
#X connect 27 0 9 1;
#X connect 27 0 11 1;
#X connect 27 0 13 1;
#X connect 27 0 15 1;
#X connect 28 0 6 1;
#X connect 28 0 8 1;
#X connect 28 0 10 1;
#X connect 28 0 12 1;
#X connect 28 0 14 1;
#X connect 29 0 6 1;
#X connect 29 0 8 1;
#X connect 29 0 10 1;
#X connect 29 0 12 1;
#X connect 29 0 14 1;
#X connect 30 0 7 1;
#X connect 30 0 9 1;
#X connect 30 0 11 1;
#X connect 30 0 13 1;
#X connect 30 0 15 1;
#X restore 402 45 pd distribuidordebang;
#X obj 142 185 cnv 11 20 11 empty empty empty 20 12 0 14 -3707 -66577
0;
#X obj 143 186 hradio 9 1 0 2 empty empty empty 0 -8 0 10 -1 -3707
-1 1;
#X obj 109 186 cnv 10 10 10 empty empty rnd.in 2 5 1 9 -1 -3707 0;
#X obj 163 186 cnv 10 10 10 empty empty gate 2 5 1 9 -1 -3707 0;
#X obj 373 103 cnv 10 10 10 empty empty rnd.in 2 5 1 9 -1 -162280 0
;
#X obj 229 504 *~;
#X obj 243 482 line~;
#X msg 243 461 0 \$1;
#X obj 197 125 cnv 8 52 60 empty empty empty 20 12 0 14 -3707 -66577
0;
#X obj 201 126 hsl 45 10 0 127 0 0 empty empty empty -2 -8 0 10 -1
-3707 -1 1200 1;
#X obj 201 138 hsl 45 10 0 127 0 0 empty empty empty -2 -8 0 10 -1
-3707 -1 3465 1;
#X obj 201 150 hsl 45 10 0 127 0 0 empty empty empty -2 -8 0 10 -1
-3707 -1 3465 1;
#X obj 201 162 hsl 45 10 0 127 0 0 empty empty empty -2 -8 0 10 -1
-3707 -1 3465 1;
#X obj 197 113 cnv 10 10 10 empty empty decay 2 5 1 9 -1 -3707 0;
#X obj 201 174 hsl 45 10 0 127 0 0 empty empty empty -2 -8 0 10 -1
-3707 -1 3465 1;
#X obj 244 398 pow 1.5;
#X obj 244 420 + 20;
#X obj 244 442 f;
#X obj 337 314 t b b;
#X obj 389 504 *~;
#X obj 403 482 line~;
#X msg 403 461 0 \$1;
#X obj 404 398 pow 1.5;
#X obj 404 420 + 20;
#X obj 404 442 f;
#X obj 477 314 t b b;
#X obj 519 524 *~;
#X obj 533 502 line~;
#X msg 533 481 0 \$1;
#X obj 534 418 pow 1.5;
#X obj 534 440 + 20;
#X obj 534 462 f;
#X obj 679 524 *~;
#X obj 693 502 line~;
#X msg 693 481 0 \$1;
#X obj 694 418 pow 1.5;
#X obj 694 440 + 20;
#X obj 694 462 f;
#X obj 829 524 *~;
#X obj 843 502 line~;
#X msg 843 481 0 \$1;
#X obj 844 418 pow 1.5;
#X obj 844 440 + 20;
#X obj 844 462 f;
#X obj 617 314 t b b;
#X obj 747 314 t b b;
#X obj 887 314 t b b;
#X msg 166 398 1 20;
#X msg 356 393 1 20;
#X msg 494 483 1 20;
#X msg 656 414 1 20;
#X msg 752 426 1 20;
#X obj 167 424 delay 20;
#X obj 347 414 delay 20;
#X obj 477 504 delay 20;
#X obj 634 434 delay 20;
#X obj 744 454 delay 20;
#X connect 5 0 9 0;
#X connect 6 0 11 0;
#X connect 7 0 13 0;
#X connect 8 0 15 0;
#X connect 9 0 117 0;
#X connect 11 0 109 0;
#X connect 13 0 110 0;
#X connect 15 0 111 0;
#X connect 17 0 21 0;
#X connect 17 0 20 0;
#X connect 18 0 17 1;
#X connect 19 0 18 0;
#X connect 21 0 34 0;
#X connect 22 0 21 0;
#X connect 22 0 31 0;
#X connect 23 0 22 1;
#X connect 24 0 23 0;
#X connect 25 0 21 0;
#X connect 25 0 32 0;
#X connect 26 0 25 1;
#X connect 27 0 26 0;
#X connect 28 0 21 0;
#X connect 28 0 33 0;
#X connect 29 0 28 1;
#X connect 30 0 29 0;
#X connect 35 0 19 0;
#X connect 36 0 24 0;
#X connect 37 0 27 0;
#X connect 38 0 30 0;
#X connect 39 0 119 0;
#X connect 39 0 59 0;
#X connect 39 0 60 0;
#X connect 39 0 61 0;
#X connect 41 0 35 0;
#X connect 42 0 36 0;
#X connect 43 0 37 0;
#X connect 44 0 38 0;
#X connect 48 0 127 0;
#X connect 50 0 48 1;
#X connect 53 0 48 4;
#X connect 54 0 48 2;
#X connect 55 0 48 3;
#X connect 59 0 55 0;
#X connect 59 0 67 0;
#X connect 59 0 70 0;
#X connect 59 0 73 0;
#X connect 59 0 93 0;
#X connect 60 0 54 0;
#X connect 60 0 66 0;
#X connect 60 0 69 0;
#X connect 60 0 72 0;
#X connect 60 0 92 0;
#X connect 61 0 53 0;
#X connect 61 0 50 0;
#X connect 61 0 62 0;
#X connect 61 0 63 0;
#X connect 61 0 64 0;
#X connect 61 0 65 0;
#X connect 61 0 68 0;
#X connect 61 0 71 0;
#X connect 61 0 90 0;
#X connect 61 0 91 0;
#X connect 61 0 123 0;
#X connect 62 0 74 1;
#X connect 63 0 75 1;
#X connect 64 0 76 1;
#X connect 65 0 74 4;
#X connect 66 0 74 2;
#X connect 67 0 74 3;
#X connect 68 0 75 4;
#X connect 69 0 75 2;
#X connect 70 0 75 3;
#X connect 71 0 76 4;
#X connect 72 0 76 2;
#X connect 73 0 76 3;
#X connect 74 0 141 0;
#X connect 75 0 148 0;
#X connect 76 0 154 0;
#X connect 77 0 121 0;
#X connect 78 0 121 1;
#X connect 79 0 121 2;
#X connect 80 0 121 3;
#X connect 81 0 112 0;
#X connect 83 0 21 0;
#X connect 83 0 96 0;
#X connect 84 0 83 1;
#X connect 85 0 84 0;
#X connect 86 0 85 0;
#X connect 87 0 160 0;
#X connect 88 0 81 0;
#X connect 89 0 86 0;
#X connect 90 0 87 1;
#X connect 91 0 87 4;
#X connect 92 0 87 2;
#X connect 93 0 87 3;
#X connect 95 0 121 4;
#X connect 109 0 12 0;
#X connect 110 0 14 0;
#X connect 111 0 16 0;
#X connect 112 0 82 0;
#X connect 113 0 74 0;
#X connect 114 0 75 0;
#X connect 115 0 76 0;
#X connect 116 0 87 0;
#X connect 117 0 10 0;
#X connect 118 0 48 0;
#X connect 119 0 41 0;
#X connect 119 0 42 0;
#X connect 119 0 43 0;
#X connect 119 0 44 0;
#X connect 119 0 89 0;
#X connect 119 0 131 0;
#X connect 119 0 132 0;
#X connect 119 0 133 0;
#X connect 119 0 134 0;
#X connect 119 0 136 0;
#X connect 120 0 121 5;
#X connect 121 0 1 0;
#X connect 121 0 140 0;
#X connect 121 1 2 0;
#X connect 121 1 147 0;
#X connect 121 2 3 0;
#X connect 121 2 166 0;
#X connect 121 3 4 0;
#X connect 121 3 167 0;
#X connect 121 4 94 0;
#X connect 121 4 168 0;
#X connect 123 0 121 6;
#X connect 127 0 17 0;
#X connect 128 0 127 1;
#X connect 129 0 128 0;
#X connect 131 0 137 0;
#X connect 132 0 144 0;
#X connect 133 0 151 0;
#X connect 134 0 157 0;
#X connect 136 0 163 0;
#X connect 137 0 138 0;
#X connect 138 0 139 1;
#X connect 139 0 129 0;
#X connect 140 0 174 0;
#X connect 140 1 118 0;
#X connect 140 1 169 0;
#X connect 141 0 22 0;
#X connect 142 0 141 1;
#X connect 143 0 142 0;
#X connect 144 0 145 0;
#X connect 145 0 146 1;
#X connect 146 0 143 0;
#X connect 147 0 175 0;
#X connect 147 1 113 0;
#X connect 147 1 170 0;
#X connect 148 0 25 0;
#X connect 149 0 148 1;
#X connect 150 0 149 0;
#X connect 151 0 152 0;
#X connect 152 0 153 1;
#X connect 153 0 150 0;
#X connect 154 0 28 0;
#X connect 155 0 154 1;
#X connect 156 0 155 0;
#X connect 157 0 158 0;
#X connect 158 0 159 1;
#X connect 159 0 156 0;
#X connect 160 0 83 0;
#X connect 161 0 160 1;
#X connect 162 0 161 0;
#X connect 163 0 164 0;
#X connect 164 0 165 1;
#X connect 165 0 162 0;
#X connect 166 0 176 0;
#X connect 166 1 114 0;
#X connect 166 1 171 0;
#X connect 167 0 177 0;
#X connect 167 1 115 0;
#X connect 167 1 172 0;
#X connect 168 0 178 0;
#X connect 168 1 116 0;
#X connect 168 1 173 0;
#X connect 169 0 128 0;
#X connect 170 0 142 0;
#X connect 171 0 149 0;
#X connect 172 0 155 0;
#X connect 173 0 161 0;
#X connect 174 0 139 0;
#X connect 175 0 146 0;
#X connect 176 0 153 0;
#X connect 177 0 159 0;
#X connect 178 0 165 0;
#X coords 0 -1 1 1 306 110 1 100 100;
