#N canvas 4 50 1905 1020 10;
#X obj 103 103 cnv 15 422 116 empty empty empty 20 12 0 14 -1 -66577
0;
#X obj 105 115 cnv 8 34 83 empty empty empty 20 12 0 14 -3707 -66577
0;
#X obj 33 58 inlet~;
#X obj 106 130 vsl 15 64 0 63 0 0 empty empty 1 5 60 1 10 -1 -3707
-3707 4971 1;
#X obj 123 130 vsl 15 28 0 27 0 0 empty empty empty 0 -9 0 10 -1 -3707
-1 0 1;
#X obj 123 166 vsl 15 28 0 27 0 0 empty empty empty 0 -9 0 10 -1 -3707
-1 0 1;
#X obj 109 116 hsl 27 10 0 1 0 0 empty empty empty -2 -8 0 10 -1 -3707
-1 1300 1;
#X obj 393 4 loadbang;
#X msg 423 26 40;
#N canvas 462 215 455 331 mixerchannel 0;
#X obj 11 13 inlet~;
#X obj 76 12 inlet;
#X obj 116 12 inlet;
#X obj 156 12 inlet;
#X obj 196 12 inlet;
#X obj 236 12 inlet;
#X obj 9 272 outlet~;
#X obj 59 272 outlet~;
#X obj 109 272 outlet~;
#X obj 159 272 outlet~;
#X obj 17 144 *~;
#X obj 70 119 line~;
#X msg 70 99 \$1 20;
#X obj 70 79 / 63;
#X obj 117 196 *~;
#X obj 147 196 *~;
#X obj 120 119 line~;
#X msg 120 99 \$1 20;
#X obj 161 119 line~;
#X msg 161 99 \$1 20;
#X obj 120 79 / 27;
#X obj 161 79 / 27;
#X msg 220 99 \$1 20;
#X msg 261 79 \$1 20;
#X obj 220 59 / -1;
#X obj 261 59 / 1;
#X obj 220 79 + 1;
#X obj 220 119 line~;
#X obj 261 99 line~;
#X obj 17 236 *~;
#X obj 47 236 *~;
#X obj 14 78 *~;
#X msg 311 79 \$1 20;
#X obj 311 99 line~;
#X obj 306 12 inlet;
#X obj 306 34 sel 1;
#X msg 306 56 0;
#X msg 338 56 1;
#X obj 354 12 loadbang;
#X connect 0 0 31 0;
#X connect 1 0 13 0;
#X connect 2 0 20 0;
#X connect 3 0 21 0;
#X connect 4 0 24 0;
#X connect 5 0 25 0;
#X connect 10 0 14 0;
#X connect 10 0 15 0;
#X connect 10 0 29 0;
#X connect 10 0 30 0;
#X connect 11 0 10 1;
#X connect 12 0 11 0;
#X connect 13 0 12 0;
#X connect 14 0 8 0;
#X connect 15 0 9 0;
#X connect 16 0 14 1;
#X connect 17 0 16 0;
#X connect 18 0 15 1;
#X connect 19 0 18 0;
#X connect 20 0 17 0;
#X connect 21 0 19 0;
#X connect 22 0 27 0;
#X connect 23 0 28 0;
#X connect 24 0 26 0;
#X connect 25 0 23 0;
#X connect 26 0 22 0;
#X connect 27 0 29 1;
#X connect 28 0 30 1;
#X connect 29 0 6 0;
#X connect 30 0 7 0;
#X connect 31 0 10 0;
#X connect 32 0 33 0;
#X connect 33 0 31 1;
#X connect 34 0 35 0;
#X connect 35 0 36 0;
#X connect 35 1 37 0;
#X connect 36 0 32 0;
#X connect 37 0 32 0;
#X connect 38 0 37 0;
#X restore 31 268 pd mixerchannel;
#X obj 133 58 inlet~;
#N canvas 465 210 450 300 mixerchannel 0;
#X obj 11 13 inlet~;
#X obj 76 12 inlet;
#X obj 116 12 inlet;
#X obj 156 12 inlet;
#X obj 196 12 inlet;
#X obj 236 12 inlet;
#X obj 9 272 outlet~;
#X obj 59 272 outlet~;
#X obj 109 272 outlet~;
#X obj 159 272 outlet~;
#X obj 17 144 *~;
#X obj 70 119 line~;
#X msg 70 99 \$1 20;
#X obj 70 79 / 63;
#X obj 117 196 *~;
#X obj 147 196 *~;
#X obj 120 119 line~;
#X msg 120 99 \$1 20;
#X obj 161 119 line~;
#X msg 161 99 \$1 20;
#X obj 120 79 / 27;
#X obj 161 79 / 27;
#X msg 220 99 \$1 20;
#X msg 261 79 \$1 20;
#X obj 220 59 / -1;
#X obj 261 59 / 1;
#X obj 220 79 + 1;
#X obj 220 119 line~;
#X obj 261 99 line~;
#X obj 17 236 *~;
#X obj 47 236 *~;
#X obj 17 94 *~;
#X msg 311 79 \$1 20;
#X obj 311 99 line~;
#X obj 306 12 inlet;
#X obj 306 34 sel 1;
#X msg 306 56 0;
#X msg 338 56 1;
#X obj 354 12 loadbang;
#X connect 0 0 31 0;
#X connect 1 0 13 0;
#X connect 2 0 20 0;
#X connect 3 0 21 0;
#X connect 4 0 24 0;
#X connect 5 0 25 0;
#X connect 10 0 14 0;
#X connect 10 0 15 0;
#X connect 10 0 29 0;
#X connect 10 0 30 0;
#X connect 11 0 10 1;
#X connect 12 0 11 0;
#X connect 13 0 12 0;
#X connect 14 0 8 0;
#X connect 15 0 9 0;
#X connect 16 0 14 1;
#X connect 17 0 16 0;
#X connect 18 0 15 1;
#X connect 19 0 18 0;
#X connect 20 0 17 0;
#X connect 21 0 19 0;
#X connect 22 0 27 0;
#X connect 23 0 28 0;
#X connect 24 0 26 0;
#X connect 25 0 23 0;
#X connect 26 0 22 0;
#X connect 27 0 29 1;
#X connect 28 0 30 1;
#X connect 29 0 6 0;
#X connect 30 0 7 0;
#X connect 31 0 10 0;
#X connect 32 0 33 0;
#X connect 33 0 31 1;
#X connect 34 0 35 0;
#X connect 35 0 36 0;
#X connect 35 1 37 0;
#X connect 36 0 32 0;
#X connect 37 0 32 0;
#X connect 38 0 37 0;
#X restore 134 265 pd mixerchannel;
#X obj 233 58 inlet~;
#N canvas 465 210 450 300 mixerchannel 0;
#X obj 11 13 inlet~;
#X obj 76 12 inlet;
#X obj 116 12 inlet;
#X obj 156 12 inlet;
#X obj 196 12 inlet;
#X obj 236 12 inlet;
#X obj 9 272 outlet~;
#X obj 59 272 outlet~;
#X obj 109 272 outlet~;
#X obj 159 272 outlet~;
#X obj 17 144 *~;
#X obj 70 119 line~;
#X msg 70 99 \$1 20;
#X obj 70 79 / 63;
#X obj 117 196 *~;
#X obj 147 196 *~;
#X obj 120 119 line~;
#X msg 120 99 \$1 20;
#X obj 161 119 line~;
#X msg 161 99 \$1 20;
#X obj 120 79 / 27;
#X obj 161 79 / 27;
#X msg 220 99 \$1 20;
#X msg 261 79 \$1 20;
#X obj 220 59 / -1;
#X obj 261 59 / 1;
#X obj 220 79 + 1;
#X obj 220 119 line~;
#X obj 261 99 line~;
#X obj 17 236 *~;
#X obj 47 236 *~;
#X msg 311 79 \$1 20;
#X obj 311 99 line~;
#X obj 306 12 inlet;
#X obj 306 34 sel 1;
#X msg 306 56 0;
#X msg 338 56 1;
#X obj 354 12 loadbang;
#X obj 27 104 *~;
#X connect 0 0 38 0;
#X connect 1 0 13 0;
#X connect 2 0 20 0;
#X connect 3 0 21 0;
#X connect 4 0 24 0;
#X connect 5 0 25 0;
#X connect 10 0 14 0;
#X connect 10 0 15 0;
#X connect 10 0 29 0;
#X connect 10 0 30 0;
#X connect 11 0 10 1;
#X connect 12 0 11 0;
#X connect 13 0 12 0;
#X connect 14 0 8 0;
#X connect 15 0 9 0;
#X connect 16 0 14 1;
#X connect 17 0 16 0;
#X connect 18 0 15 1;
#X connect 19 0 18 0;
#X connect 20 0 17 0;
#X connect 21 0 19 0;
#X connect 22 0 27 0;
#X connect 23 0 28 0;
#X connect 24 0 26 0;
#X connect 25 0 23 0;
#X connect 26 0 22 0;
#X connect 27 0 29 1;
#X connect 28 0 30 1;
#X connect 29 0 6 0;
#X connect 30 0 7 0;
#X connect 31 0 32 0;
#X connect 32 0 38 1;
#X connect 33 0 34 0;
#X connect 34 0 35 0;
#X connect 34 1 36 0;
#X connect 35 0 31 0;
#X connect 36 0 31 0;
#X connect 37 0 36 0;
#X connect 38 0 10 0;
#X restore 234 265 pd mixerchannel;
#X obj 333 58 inlet~;
#N canvas 462 215 450 300 mixerchannel 0;
#X obj 11 13 inlet~;
#X obj 76 12 inlet;
#X obj 116 12 inlet;
#X obj 156 12 inlet;
#X obj 196 12 inlet;
#X obj 236 12 inlet;
#X obj 9 272 outlet~;
#X obj 59 272 outlet~;
#X obj 109 272 outlet~;
#X obj 159 272 outlet~;
#X obj 17 144 *~;
#X obj 70 119 line~;
#X msg 70 99 \$1 20;
#X obj 70 79 / 63;
#X obj 117 196 *~;
#X obj 147 196 *~;
#X obj 120 119 line~;
#X msg 120 99 \$1 20;
#X obj 161 119 line~;
#X msg 161 99 \$1 20;
#X obj 120 79 / 27;
#X obj 161 79 / 27;
#X msg 220 99 \$1 20;
#X msg 261 79 \$1 20;
#X obj 220 59 / -1;
#X obj 261 59 / 1;
#X obj 220 79 + 1;
#X obj 220 119 line~;
#X obj 261 99 line~;
#X obj 17 236 *~;
#X obj 47 236 *~;
#X obj 17 144 *~;
#X obj 24 104 *~;
#X msg 301 79 \$1 20;
#X obj 301 99 line~;
#X obj 296 12 inlet;
#X obj 296 34 sel 1;
#X msg 296 56 0;
#X msg 326 57 1;
#X obj 359 12 loadbang;
#X connect 0 0 32 0;
#X connect 1 0 13 0;
#X connect 2 0 20 0;
#X connect 3 0 21 0;
#X connect 4 0 24 0;
#X connect 5 0 25 0;
#X connect 10 0 14 0;
#X connect 10 0 15 0;
#X connect 10 0 29 0;
#X connect 10 0 30 0;
#X connect 11 0 10 1;
#X connect 12 0 11 0;
#X connect 13 0 12 0;
#X connect 14 0 8 0;
#X connect 15 0 9 0;
#X connect 16 0 14 1;
#X connect 17 0 16 0;
#X connect 18 0 15 1;
#X connect 19 0 18 0;
#X connect 20 0 17 0;
#X connect 21 0 19 0;
#X connect 22 0 27 0;
#X connect 23 0 28 0;
#X connect 24 0 26 0;
#X connect 25 0 23 0;
#X connect 26 0 22 0;
#X connect 27 0 29 1;
#X connect 28 0 30 1;
#X connect 29 0 6 0;
#X connect 30 0 7 0;
#X connect 32 0 10 0;
#X connect 33 0 34 0;
#X connect 34 0 32 1;
#X connect 35 0 36 0;
#X connect 36 0 37 0;
#X connect 36 1 38 0;
#X connect 37 0 33 0;
#X connect 38 0 33 0;
#X connect 39 0 38 0;
#X restore 334 265 pd mixerchannel;
#X obj 433 58 inlet~;
#N canvas 465 210 450 300 mixerchannel 0;
#X obj 11 13 inlet~;
#X obj 76 12 inlet;
#X obj 116 12 inlet;
#X obj 156 12 inlet;
#X obj 196 12 inlet;
#X obj 236 12 inlet;
#X obj 9 272 outlet~;
#X obj 59 272 outlet~;
#X obj 109 272 outlet~;
#X obj 159 272 outlet~;
#X obj 17 144 *~;
#X obj 70 119 line~;
#X msg 70 99 \$1 20;
#X obj 70 79 / 63;
#X obj 117 196 *~;
#X obj 147 196 *~;
#X obj 120 119 line~;
#X msg 120 99 \$1 20;
#X obj 161 119 line~;
#X msg 161 99 \$1 20;
#X obj 120 79 / 27;
#X obj 161 79 / 27;
#X msg 220 99 \$1 20;
#X msg 261 79 \$1 20;
#X obj 220 59 / -1;
#X obj 261 59 / 1;
#X obj 220 79 + 1;
#X obj 220 119 line~;
#X obj 261 99 line~;
#X obj 17 236 *~;
#X obj 47 236 *~;
#X msg 301 79 \$1 20;
#X obj 301 99 line~;
#X obj 296 12 inlet;
#X obj 296 34 sel 1;
#X msg 296 56 0;
#X msg 326 57 1;
#X obj 359 12 loadbang;
#X obj 16 115 *~;
#X connect 0 0 38 0;
#X connect 1 0 13 0;
#X connect 2 0 20 0;
#X connect 3 0 21 0;
#X connect 4 0 24 0;
#X connect 5 0 25 0;
#X connect 10 0 14 0;
#X connect 10 0 15 0;
#X connect 10 0 29 0;
#X connect 10 0 30 0;
#X connect 11 0 10 1;
#X connect 12 0 11 0;
#X connect 13 0 12 0;
#X connect 14 0 8 0;
#X connect 15 0 9 0;
#X connect 16 0 14 1;
#X connect 17 0 16 0;
#X connect 18 0 15 1;
#X connect 19 0 18 0;
#X connect 20 0 17 0;
#X connect 21 0 19 0;
#X connect 22 0 27 0;
#X connect 23 0 28 0;
#X connect 24 0 26 0;
#X connect 25 0 23 0;
#X connect 26 0 22 0;
#X connect 27 0 29 1;
#X connect 28 0 30 1;
#X connect 29 0 6 0;
#X connect 30 0 7 0;
#X connect 31 0 32 0;
#X connect 32 0 38 1;
#X connect 33 0 34 0;
#X connect 34 0 35 0;
#X connect 34 1 36 0;
#X connect 35 0 31 0;
#X connect 36 0 31 0;
#X connect 37 0 36 0;
#X connect 38 0 10 0;
#X restore 434 265 pd mixerchannel;
#X obj 533 58 inlet~;
#N canvas 465 210 450 300 mixerchannel 0;
#X obj 11 13 inlet~;
#X obj 76 12 inlet;
#X obj 116 12 inlet;
#X obj 156 12 inlet;
#X obj 196 12 inlet;
#X obj 236 12 inlet;
#X obj 9 272 outlet~;
#X obj 59 272 outlet~;
#X obj 109 272 outlet~;
#X obj 159 272 outlet~;
#X obj 17 144 *~;
#X obj 70 119 line~;
#X msg 70 99 \$1 20;
#X obj 70 79 / 63;
#X obj 117 196 *~;
#X obj 147 196 *~;
#X obj 120 119 line~;
#X msg 120 99 \$1 20;
#X obj 161 119 line~;
#X msg 161 99 \$1 20;
#X obj 120 79 / 27;
#X obj 161 79 / 27;
#X msg 220 99 \$1 20;
#X msg 261 79 \$1 20;
#X obj 220 59 / -1;
#X obj 261 59 / 1;
#X obj 220 79 + 1;
#X obj 220 119 line~;
#X obj 261 99 line~;
#X obj 17 236 *~;
#X obj 47 236 *~;
#X msg 301 79 \$1 20;
#X obj 301 99 line~;
#X obj 296 12 inlet;
#X obj 296 34 sel 1;
#X msg 296 56 0;
#X msg 326 57 1;
#X obj 359 12 loadbang;
#X obj 8 79 *~;
#X connect 0 0 38 0;
#X connect 1 0 13 0;
#X connect 2 0 20 0;
#X connect 3 0 21 0;
#X connect 4 0 24 0;
#X connect 5 0 25 0;
#X connect 10 0 14 0;
#X connect 10 0 15 0;
#X connect 10 0 29 0;
#X connect 10 0 30 0;
#X connect 11 0 10 1;
#X connect 12 0 11 0;
#X connect 13 0 12 0;
#X connect 14 0 8 0;
#X connect 15 0 9 0;
#X connect 16 0 14 1;
#X connect 17 0 16 0;
#X connect 18 0 15 1;
#X connect 19 0 18 0;
#X connect 20 0 17 0;
#X connect 21 0 19 0;
#X connect 22 0 27 0;
#X connect 23 0 28 0;
#X connect 24 0 26 0;
#X connect 25 0 23 0;
#X connect 26 0 22 0;
#X connect 27 0 29 1;
#X connect 28 0 30 1;
#X connect 29 0 6 0;
#X connect 30 0 7 0;
#X connect 31 0 32 0;
#X connect 32 0 38 1;
#X connect 33 0 34 0;
#X connect 34 0 35 0;
#X connect 34 1 36 0;
#X connect 35 0 31 0;
#X connect 36 0 31 0;
#X connect 37 0 36 0;
#X connect 38 0 10 0;
#X restore 534 265 pd mixerchannel;
#X obj 633 58 inlet~;
#N canvas 465 210 450 300 mixerchannel 0;
#X obj 11 13 inlet~;
#X obj 76 12 inlet;
#X obj 116 12 inlet;
#X obj 156 12 inlet;
#X obj 196 12 inlet;
#X obj 236 12 inlet;
#X obj 9 272 outlet~;
#X obj 59 272 outlet~;
#X obj 109 272 outlet~;
#X obj 159 272 outlet~;
#X obj 17 144 *~;
#X obj 70 119 line~;
#X msg 70 99 \$1 20;
#X obj 70 79 / 63;
#X obj 117 196 *~;
#X obj 147 196 *~;
#X obj 120 119 line~;
#X msg 120 99 \$1 20;
#X obj 161 119 line~;
#X msg 161 99 \$1 20;
#X obj 120 79 / 27;
#X obj 161 79 / 27;
#X msg 220 99 \$1 20;
#X msg 261 79 \$1 20;
#X obj 220 59 / -1;
#X obj 261 59 / 1;
#X obj 220 79 + 1;
#X obj 220 119 line~;
#X obj 261 99 line~;
#X obj 17 236 *~;
#X obj 47 236 *~;
#X msg 301 79 \$1 20;
#X obj 301 99 line~;
#X obj 296 12 inlet;
#X obj 296 34 sel 1;
#X msg 296 56 0;
#X msg 326 57 1;
#X obj 359 12 loadbang;
#X obj 13 90 *~;
#X connect 0 0 38 0;
#X connect 1 0 13 0;
#X connect 2 0 20 0;
#X connect 3 0 21 0;
#X connect 4 0 24 0;
#X connect 5 0 25 0;
#X connect 10 0 14 0;
#X connect 10 0 15 0;
#X connect 10 0 29 0;
#X connect 10 0 30 0;
#X connect 11 0 10 1;
#X connect 12 0 11 0;
#X connect 13 0 12 0;
#X connect 14 0 8 0;
#X connect 15 0 9 0;
#X connect 16 0 14 1;
#X connect 17 0 16 0;
#X connect 18 0 15 1;
#X connect 19 0 18 0;
#X connect 20 0 17 0;
#X connect 21 0 19 0;
#X connect 22 0 27 0;
#X connect 23 0 28 0;
#X connect 24 0 26 0;
#X connect 25 0 23 0;
#X connect 26 0 22 0;
#X connect 27 0 29 1;
#X connect 28 0 30 1;
#X connect 29 0 6 0;
#X connect 30 0 7 0;
#X connect 31 0 32 0;
#X connect 32 0 38 1;
#X connect 33 0 34 0;
#X connect 34 0 35 0;
#X connect 34 1 36 0;
#X connect 35 0 31 0;
#X connect 36 0 31 0;
#X connect 37 0 36 0;
#X connect 38 0 10 0;
#X restore 634 265 pd mixerchannel;
#X obj 733 58 inlet~;
#N canvas 465 210 450 300 mixerchannel 0;
#X obj 11 13 inlet~;
#X obj 76 12 inlet;
#X obj 116 12 inlet;
#X obj 156 12 inlet;
#X obj 196 12 inlet;
#X obj 236 12 inlet;
#X obj 9 272 outlet~;
#X obj 59 272 outlet~;
#X obj 109 272 outlet~;
#X obj 159 272 outlet~;
#X obj 17 144 *~;
#X obj 70 119 line~;
#X msg 70 99 \$1 20;
#X obj 70 79 / 63;
#X obj 117 196 *~;
#X obj 147 196 *~;
#X obj 120 119 line~;
#X msg 120 99 \$1 20;
#X obj 161 119 line~;
#X msg 161 99 \$1 20;
#X obj 120 79 / 27;
#X obj 161 79 / 27;
#X msg 220 99 \$1 20;
#X msg 261 79 \$1 20;
#X obj 220 59 / -1;
#X obj 261 59 / 1;
#X obj 220 79 + 1;
#X obj 220 119 line~;
#X obj 261 99 line~;
#X obj 17 236 *~;
#X obj 47 236 *~;
#X msg 301 79 \$1 20;
#X obj 301 99 line~;
#X obj 296 12 inlet;
#X obj 296 34 sel 1;
#X msg 296 56 0;
#X msg 326 57 1;
#X obj 359 12 loadbang;
#X obj 17 94 *~;
#X connect 0 0 38 0;
#X connect 1 0 13 0;
#X connect 2 0 20 0;
#X connect 3 0 21 0;
#X connect 4 0 24 0;
#X connect 5 0 25 0;
#X connect 10 0 14 0;
#X connect 10 0 15 0;
#X connect 10 0 29 0;
#X connect 10 0 30 0;
#X connect 11 0 10 1;
#X connect 12 0 11 0;
#X connect 13 0 12 0;
#X connect 14 0 8 0;
#X connect 15 0 9 0;
#X connect 16 0 14 1;
#X connect 17 0 16 0;
#X connect 18 0 15 1;
#X connect 19 0 18 0;
#X connect 20 0 17 0;
#X connect 21 0 19 0;
#X connect 22 0 27 0;
#X connect 23 0 28 0;
#X connect 24 0 26 0;
#X connect 25 0 23 0;
#X connect 26 0 22 0;
#X connect 27 0 29 1;
#X connect 28 0 30 1;
#X connect 29 0 6 0;
#X connect 30 0 7 0;
#X connect 31 0 32 0;
#X connect 32 0 38 1;
#X connect 33 0 34 0;
#X connect 34 0 35 0;
#X connect 34 1 36 0;
#X connect 35 0 31 0;
#X connect 36 0 31 0;
#X connect 37 0 36 0;
#X connect 38 0 10 0;
#X restore 734 265 pd mixerchannel;
#X obj 680 206 / 63;
#X msg 680 225 \$1 20;
#X obj 680 244 line~;
#X obj 414 390 *~;
#X obj 444 390 *~;
#X obj 425 436 dac~;
#N canvas 486 138 450 300 delaymixer 0;
#X obj 51 30 delwrite~ echomix 3000;
#X obj 90 116 vd~ echomix;
#X obj 90 138 *~;
#X obj 90 160 *~;
#X obj 90 182 hip~ 5;
#X obj 90 204 outlet~;
#X obj 50 8 inlet~;
#X obj 222 9 inlet;
#X obj 262 9 inlet;
#X obj 302 9 inlet;
#X connect 1 0 2 0;
#X connect 2 0 3 0;
#X connect 2 0 0 0;
#X connect 3 0 4 0;
#X connect 4 0 5 0;
#X connect 6 0 0 0;
#X connect 7 0 1 0;
#X connect 8 0 2 1;
#X connect 9 0 3 1;
#X restore 603 396 pd delaymixer;
#N canvas 0 114 825 460 reverbtexture 0;
#X obj 25 24 inlet~;
#X obj 250 398 outlet~;
#X obj 317 24 inlet;
#X obj 357 24 inlet;
#X obj 397 24 inlet;
#X obj 340 398 outlet~;
#X obj 285 185 +~;
#X obj 335 185 +~;
#X obj 402 225 +~;
#X obj 449 225 -~;
#X obj 282 225 +~;
#X obj 329 225 -~;
#X obj 283 262 +~;
#X obj 329 262 +~;
#X obj 388 261 -~;
#X obj 435 261 -~;
#X obj 273 284 *~ 0.4;
#X obj 319 284 *~ 0.37;
#X obj 378 283 *~ 0.333;
#X obj 435 283 *~ 0.3;
#X obj 435 305 delwrite~ \$0-D 1000;
#X obj 377 325 delwrite~ \$0-C 1000;
#X obj 318 345 delwrite~ \$0-B 1000;
#X obj 273 365 delwrite~ \$0-A 1000;
#X obj 284 124 lop~;
#X obj 317 56 mtof;
#X msg 317 78 \$1 20;
#X obj 317 100 line;
#X obj 450 90 vd~ \$0-A 101;
#X obj 480 114 vd~ \$0-B 143;
#X obj 511 137 vd~ \$0-C 165;
#X obj 491 71 * 1.01;
#X obj 537 95 * 1.43;
#X obj 572 117 * 1.65;
#X obj 597 139 * 1.77;
#X obj 549 158 vd~ \$0-D 177;
#X obj 284 146 hip~;
#X obj 357 56 mtof;
#X msg 357 78 \$1 20;
#X obj 357 100 line;
#X connect 0 0 24 0;
#X connect 2 0 25 0;
#X connect 3 0 37 0;
#X connect 4 0 31 0;
#X connect 4 0 32 0;
#X connect 4 0 33 0;
#X connect 4 0 34 0;
#X connect 6 0 10 0;
#X connect 6 0 11 0;
#X connect 6 0 1 0;
#X connect 7 0 10 1;
#X connect 7 0 11 1;
#X connect 7 0 5 0;
#X connect 8 0 14 1;
#X connect 8 0 12 1;
#X connect 9 0 15 1;
#X connect 9 0 13 1;
#X connect 10 0 12 0;
#X connect 10 0 14 0;
#X connect 11 0 13 0;
#X connect 11 0 15 0;
#X connect 12 0 16 0;
#X connect 13 0 17 0;
#X connect 14 0 18 0;
#X connect 15 0 19 0;
#X connect 16 0 23 0;
#X connect 17 0 22 0;
#X connect 18 0 21 0;
#X connect 19 0 20 0;
#X connect 24 0 36 0;
#X connect 25 0 26 0;
#X connect 26 0 27 0;
#X connect 27 0 24 1;
#X connect 28 0 6 1;
#X connect 29 0 7 1;
#X connect 30 0 8 0;
#X connect 30 0 9 0;
#X connect 31 0 28 0;
#X connect 32 0 29 0;
#X connect 33 0 30 0;
#X connect 34 0 35 0;
#X connect 35 0 8 1;
#X connect 35 0 9 1;
#X connect 36 0 6 0;
#X connect 36 0 7 0;
#X connect 37 0 38 0;
#X connect 38 0 39 0;
#X connect 39 0 36 1;
#X restore 705 397 pd reverbtexture;
#X msg 393 26 0.5;
#X obj 142 115 cnv 8 34 83 empty empty empty 20 12 0 14 -3707 -66577
0;
#X obj 143 130 vsl 15 64 0 63 0 0 empty empty 2 5 60 1 10 -1 -3707
-3707 0 1;
#X obj 160 130 vsl 15 28 0 27 0 0 empty empty empty 0 -9 0 10 -1 -3707
-1 0 1;
#X obj 160 166 vsl 15 28 0 27 0 0 empty empty empty 0 -9 0 10 -1 -3707
-1 0 1;
#X obj 146 116 hsl 27 10 0 1 0 0 empty empty empty -2 -8 0 10 -1 -3707
-1 1300 1;
#X obj 179 115 cnv 8 34 83 empty empty empty 20 12 0 14 -3707 -66577
0;
#X obj 180 130 vsl 15 64 0 63 0 0 empty empty 3 5 60 1 10 -1 -3707
-3707 0 1;
#X obj 197 130 vsl 15 28 0 27 0 0 empty empty empty 0 -9 0 10 -1 -3707
-1 0 1;
#X obj 197 166 vsl 15 28 0 27 0 0 empty empty empty 0 -9 0 10 -1 -3707
-1 0 1;
#X obj 183 116 hsl 27 10 0 1 0 0 empty empty empty -2 -8 0 10 -1 -3707
-1 1300 1;
#X obj 216 115 cnv 8 34 83 empty empty empty 20 12 0 14 -3707 -66577
0;
#X obj 217 130 vsl 15 64 0 63 0 0 empty empty 4 5 60 1 10 -1 -3707
-3707 4000 1;
#X obj 234 130 vsl 15 28 0 27 0 0 empty empty empty 0 -9 0 10 -1 -3707
-1 0 1;
#X obj 234 166 vsl 15 28 0 27 0 0 empty empty empty 0 -9 0 10 -1 -3707
-1 0 1;
#X obj 220 116 hsl 27 10 0 1 0 0 empty empty empty -2 -8 0 10 -1 -3707
-1 1300 1;
#X obj 253 115 cnv 8 34 83 empty empty empty 20 12 0 14 -3707 -66577
0;
#X obj 254 130 vsl 15 64 0 63 0 0 empty empty 5 5 60 1 10 -1 -3707
-3707 4000 1;
#X obj 271 130 vsl 15 28 0 27 0 0 empty empty empty 0 -9 0 10 -1 -3707
-1 0 1;
#X obj 271 166 vsl 15 28 0 27 0 0 empty empty empty 0 -9 0 10 -1 -3707
-1 0 1;
#X obj 257 116 hsl 27 10 0 1 0 0 empty empty empty -2 -8 0 10 -1 -3707
-1 1300 1;
#X obj 290 115 cnv 8 34 83 empty empty empty 20 12 0 14 -3707 -66577
0;
#X obj 291 130 vsl 15 64 0 63 0 0 empty empty 6 5 60 1 10 -1 -3707
-3707 4000 1;
#X obj 308 130 vsl 15 28 0 27 0 0 empty empty empty 0 -9 0 10 -1 -3707
-1 0 1;
#X obj 308 166 vsl 15 28 0 27 0 0 empty empty empty 0 -9 0 10 -1 -3707
-1 0 1;
#X obj 294 116 hsl 27 10 0 1 0 0 empty empty empty -2 -8 0 10 -1 -3707
-1 1300 1;
#X obj 327 115 cnv 8 34 83 empty empty empty 20 12 0 14 -3707 -66577
0;
#X obj 328 130 vsl 15 64 0 63 0 0 empty empty 7 5 60 1 10 -1 -3707
-3707 4000 1;
#X obj 345 130 vsl 15 28 0 27 0 0 empty empty empty 0 -9 0 10 -1 -3707
-1 0 1;
#X obj 345 166 vsl 15 28 0 27 0 0 empty empty empty 0 -9 0 10 -1 -3707
-1 0 1;
#X obj 331 116 hsl 27 10 0 1 0 0 empty empty empty -2 -8 0 10 -1 -3707
-1 1300 1;
#X obj 364 115 cnv 8 34 83 empty empty empty 20 12 0 14 -3707 -66577
0;
#X obj 365 130 vsl 15 64 0 63 0 0 empty empty 8 5 60 1 10 -1 -3707
-3707 4000 1;
#X obj 382 130 vsl 15 28 0 27 0 0 empty empty empty 0 -9 0 10 -1 -3707
-1 0 1;
#X obj 382 166 vsl 15 28 0 27 0 0 empty empty empty 0 -9 0 10 -1 -3707
-1 0 1;
#X obj 368 116 hsl 27 10 0 1 0 0 empty empty empty -2 -8 0 10 -1 -3707
-1 1300 1;
#X obj 407 115 cnv 8 68 83 empty empty empty 20 12 0 14 -3707 -66577
0;
#X obj 408 134 vsl 15 60 0.05 0.95 0 0 empty empty empty 0 -9 0 10
-1 -3707 -1 1639 1;
#X obj 425 134 vsl 15 60 0 1 0 0 empty empty empty 0 -9 0 10 -1 -3707
-1 4130 1;
#X floatatom 408 116 5 40 5000 0 - - -, f 5;
#X obj 442 134 vsl 15 60 0 127 0 0 empty empty empty 0 -9 0 10 -1 -3707
-1 4646 1;
#X obj 459 134 vsl 15 60 0 127 0 0 empty empty empty 0 -9 0 10 -1 -3707
-1 0 1;
#X floatatom 442 116 5 1 80 0 - - -, f 5;
#X obj 485 127 cnv 10 32 71 empty empty empty 20 12 0 14 -3707 -66577
0;
#X obj 486 130 vsl 30 64 0 63 0 0 empty empty empty 0 -9 0 10 -1 -3707
-1 4000 1;
#X obj 413 200 cnv 8 10 8 empty empty echo 2 5 1 9 -1 -3707 0;
#X obj 443 200 cnv 8 10 8 empty empty reverb 2 5 1 9 -1 -3707 0;
#X obj 485 200 cnv 8 10 8 empty empty master 2 5 1 9 -1 -3707 0;
#X obj 484 115 cnv 8 10 8 empty empty mixout 2 5 1 9 -1 -3707 0;
#X msg 459 26 300;
#X msg 522 26 0.7;
#X msg 568 125 0.3;
#X obj 103 103 cnv 8 10 8 empty empty in1 2 5 1 9 -1 -3707 0;
#X obj 509 103 cnv 8 10 8 empty empty in8 2 5 1 9 -1 -3707 0;
#X obj 155 103 cnv 8 10 8 empty empty in2 2 5 1 9 -1 -3707 0;
#X obj 215 103 cnv 8 10 8 empty empty in3 2 5 1 9 -1 -3707 0;
#X obj 275 103 cnv 8 10 8 empty empty in4 2 5 1 9 -1 -3707 0;
#X obj 335 103 cnv 8 10 8 empty empty in5 2 5 1 9 -1 -3707 0;
#X obj 395 103 cnv 8 10 8 empty empty in6 2 5 1 9 -1 -3707 0;
#X obj 455 103 cnv 8 10 8 empty empty in7 2 5 1 9 -1 -3707 0;
#X obj 124 201 cnv 12 12 12 empty empty empty -9 6 1 9 -3707 -3707
0;
#X obj 125 202 tgl 10 0 empty empty m -9 6 1 9 -1 -3707 -3707 0 1;
#X obj 384 201 cnv 12 12 12 empty empty empty -9 6 1 9 -3707 -3707
0;
#X obj 385 202 tgl 10 0 empty empty m -9 6 1 9 -1 -3707 -3707 0 1;
#X obj 347 201 cnv 12 12 12 empty empty empty -9 6 1 9 -3707 -3707
0;
#X obj 348 202 tgl 10 0 empty empty m -9 6 1 9 -1 -3707 -3707 0 1;
#X obj 310 201 cnv 12 12 12 empty empty empty -9 6 1 9 -3707 -3707
0;
#X obj 311 202 tgl 10 0 empty empty m -9 6 1 9 -1 -3707 -3707 0 1;
#X obj 273 201 cnv 12 12 12 empty empty empty -9 6 1 9 -3707 -3707
0;
#X obj 274 202 tgl 10 0 empty empty m -9 6 1 9 -1 -3707 -3707 0 1;
#X obj 237 201 cnv 12 12 12 empty empty empty -9 6 1 9 -3707 -3707
0;
#X obj 238 202 tgl 10 0 empty empty m -9 6 1 9 -1 -3707 -3707 0 1;
#X obj 199 201 cnv 12 12 12 empty empty empty -9 6 1 9 -3707 -3707
0;
#X obj 200 202 tgl 10 0 empty empty m -9 6 1 9 -1 -3707 -3707 0 1;
#X obj 162 201 cnv 12 12 12 empty empty empty -9 6 1 9 -3707 -3707
0;
#X obj 163 202 tgl 10 0 empty empty m -9 6 1 9 -1 -3707 -3707 0 1;
#X obj 197 436 send~ leftmixer;
#X obj 301 436 send~ rightmixer;
#X msg 491 26 72;
#X msg 598 126 0.8;
#X msg 559 25 100;
#X msg 593 25 0;
#X obj 520 466 throw~ outR;
#X obj 412 465 throw~ outL;
#X obj 914 57 r knob1;
#X obj 920 92 override;
#X obj 1115 91 override;
#X obj 1111 124 * 100;
#X obj 1109 56 r knob2;
#X obj 931 251 override;
#X obj 927 284 * 100;
#X obj 925 216 r knob3;
#X obj 916 125 * 100;
#X obj 837 107 * 63;
#X obj 1047 111 * 63;
#X obj 863 240 * 63;
#X msg 876 163 \; screenLine1 1: STABBER \$1 % \;;
#X msg 1108 150 \; screenLine2 2: SEQUENCER \$1 % \;;
#X msg 922 317 \; screenLine3 3: NOISER \$1 % \;;
#X connect 2 0 9 0;
#X connect 3 0 9 1;
#X connect 4 0 9 2;
#X connect 5 0 9 3;
#X connect 6 0 9 4;
#X connect 6 0 9 5;
#X connect 7 0 32 0;
#X connect 7 0 8 0;
#X connect 7 0 81 0;
#X connect 7 0 110 0;
#X connect 7 0 82 0;
#X connect 7 0 83 0;
#X connect 7 0 111 0;
#X connect 7 0 112 0;
#X connect 7 0 113 0;
#X connect 8 0 3 0;
#X connect 8 0 34 0;
#X connect 8 0 39 0;
#X connect 8 0 44 0;
#X connect 8 0 49 0;
#X connect 8 0 54 0;
#X connect 8 0 59 0;
#X connect 8 0 64 0;
#X connect 8 0 76 0;
#X connect 9 0 27 0;
#X connect 9 1 28 0;
#X connect 9 2 30 0;
#X connect 9 3 31 0;
#X connect 10 0 11 0;
#X connect 11 0 27 0;
#X connect 11 1 28 0;
#X connect 11 2 30 0;
#X connect 11 3 31 0;
#X connect 12 0 13 0;
#X connect 13 0 27 0;
#X connect 13 1 28 0;
#X connect 13 2 30 0;
#X connect 13 3 31 0;
#X connect 14 0 15 0;
#X connect 15 0 27 0;
#X connect 15 1 28 0;
#X connect 15 2 30 0;
#X connect 15 3 31 0;
#X connect 16 0 17 0;
#X connect 17 0 27 0;
#X connect 17 1 28 0;
#X connect 17 2 30 0;
#X connect 17 3 31 0;
#X connect 18 0 19 0;
#X connect 19 0 27 0;
#X connect 19 1 28 0;
#X connect 19 2 30 0;
#X connect 19 3 31 0;
#X connect 20 0 21 0;
#X connect 21 0 27 0;
#X connect 21 1 28 0;
#X connect 21 2 30 0;
#X connect 21 3 31 0;
#X connect 22 0 23 0;
#X connect 23 0 27 0;
#X connect 23 1 28 0;
#X connect 23 2 30 0;
#X connect 23 3 31 0;
#X connect 24 0 25 0;
#X connect 25 0 26 0;
#X connect 26 0 27 1;
#X connect 26 0 28 1;
#X connect 27 0 29 0;
#X connect 27 0 108 0;
#X connect 27 0 115 0;
#X connect 28 0 29 1;
#X connect 28 0 109 0;
#X connect 28 0 114 0;
#X connect 30 0 27 0;
#X connect 30 0 28 0;
#X connect 31 0 27 0;
#X connect 31 1 28 0;
#X connect 32 0 6 0;
#X connect 32 0 37 0;
#X connect 32 0 42 0;
#X connect 32 0 47 0;
#X connect 32 0 52 0;
#X connect 32 0 57 0;
#X connect 32 0 62 0;
#X connect 32 0 67 0;
#X connect 34 0 11 1;
#X connect 35 0 11 2;
#X connect 36 0 11 3;
#X connect 37 0 11 4;
#X connect 37 0 11 5;
#X connect 39 0 13 1;
#X connect 40 0 13 2;
#X connect 41 0 13 3;
#X connect 42 0 13 4;
#X connect 42 0 13 5;
#X connect 44 0 15 1;
#X connect 45 0 15 2;
#X connect 46 0 15 3;
#X connect 47 0 15 4;
#X connect 47 0 15 5;
#X connect 49 0 17 1;
#X connect 50 0 17 2;
#X connect 51 0 17 3;
#X connect 52 0 17 4;
#X connect 52 0 17 5;
#X connect 54 0 19 1;
#X connect 55 0 19 2;
#X connect 56 0 19 3;
#X connect 57 0 19 4;
#X connect 57 0 19 5;
#X connect 59 0 21 1;
#X connect 60 0 21 2;
#X connect 61 0 21 3;
#X connect 62 0 21 4;
#X connect 62 0 21 5;
#X connect 64 0 23 1;
#X connect 65 0 23 2;
#X connect 66 0 23 3;
#X connect 67 0 23 4;
#X connect 67 0 23 5;
#X connect 69 0 30 2;
#X connect 70 0 30 3;
#X connect 71 0 30 1;
#X connect 72 0 31 1;
#X connect 73 0 31 2;
#X connect 74 0 31 3;
#X connect 76 0 24 0;
#X connect 81 0 71 0;
#X connect 82 0 70 0;
#X connect 82 0 73 0;
#X connect 83 0 69 0;
#X connect 93 0 9 6;
#X connect 95 0 23 6;
#X connect 97 0 21 6;
#X connect 99 0 19 6;
#X connect 101 0 17 6;
#X connect 103 0 15 6;
#X connect 105 0 13 6;
#X connect 107 0 11 6;
#X connect 110 0 74 0;
#X connect 111 0 72 0;
#X connect 112 0 74 0;
#X connect 112 0 72 0;
#X connect 113 0 73 0;
#X connect 116 0 117 0;
#X connect 116 0 125 0;
#X connect 117 0 124 0;
#X connect 118 0 119 0;
#X connect 119 0 129 0;
#X connect 120 0 118 0;
#X connect 120 0 126 0;
#X connect 121 0 122 0;
#X connect 122 0 130 0;
#X connect 123 0 121 0;
#X connect 123 0 127 0;
#X connect 124 0 128 0;
#X connect 125 0 3 0;
#X connect 126 0 34 0;
#X connect 127 0 39 0;
#X coords 0 -1 1 1 428 122 1 100 100;
