#N canvas 0 54 1024 546 10;
#X obj 103 103 cnv 15 99 106 empty empty empty 20 12 0 14 -3707 -66577
0;
#X obj 319 -9 inlet~;
#X obj 393 255 *~;
#X obj 345 302 outlet~;
#X obj 419 139 osc~;
#X obj 419 183 +~ 1;
#X obj 420 210 *~ 0.5;
#X obj 490 182 line~;
#X obj 419 161 *~;
#X msg 490 158 \$1 20;
#X obj 490 136 / 127;
#X obj 174 315 * 1;
#X obj 173 275 t b f;
#X obj 105 132 vsl 30 64 0 127 0 0 empty empty empty 0 -9 0 10 -66577
-3707 -1 0 1;
#X obj 137 132 vsl 30 64 1 128 0 0 empty empty empty 0 -9 0 10 -66577
-3707 -1 0 1;
#X obj 169 132 vsl 30 64 1 128 0 0 empty empty empty 0 -9 0 10 -66577
-3707 -1 0 1;
#X obj 109 201 cnv 8 24 8 empty empty amp 2 4 1 9 -3707 -1 0;
#X obj 142 201 cnv 8 22 8 empty empty rate 2 4 1 9 -3707 -1 0;
#X obj 171 201 cnv 8 26 8 empty empty multi 2 4 1 9 -3707 -1 0;
#X obj 105 115 cnv 12 94 12 empty empty modAM 2 7 1 9 -66577 -3707
0;
#X obj 188 116 tgl 10 0 empty empty on -12 5 1 9 -3707 -1 -3707 1 1
;
#X obj 17 30 loadbang;
#X msg 17 52 1;
#X obj 258 87 *~;
#X obj 298 87 *~;
#X obj 165 -18 sel 0 1;
#X msg 146 8 1 0;
#X msg 176 8 1 0;
#X obj 121 33 unpack f f;
#X obj 200 33 unpack f f;
#X obj 103 104 cnv 8 8 8 empty empty ~in 2 4 1 9 -3707 -1 0;
#X obj 129 104 cnv 8 8 8 empty empty cvAMP 2 4 1 9 -3707 -1 0;
#X obj 163 104 cnv 8 8 8 empty empty cvFREQ 2 4 1 9 -3707 -1 0;
#X obj 489 207 +~;
#X obj 363 -9 inlet~ modAMP;
#X obj 174 379 +~;
#X obj 453 -9 inlet~ modRATE;
#X obj 453 13 *~ 128;
#X msg 174 336 \$1 20;
#X obj 174 358 line;
#X connect 1 0 23 0;
#X connect 1 0 24 0;
#X connect 2 0 3 0;
#X connect 4 0 8 0;
#X connect 5 0 6 0;
#X connect 6 0 2 1;
#X connect 7 0 33 0;
#X connect 8 0 5 0;
#X connect 9 0 7 0;
#X connect 10 0 9 0;
#X connect 11 0 38 0;
#X connect 12 0 14 0;
#X connect 12 1 11 1;
#X connect 13 0 10 0;
#X connect 14 0 11 0;
#X connect 15 0 12 0;
#X connect 20 0 25 0;
#X connect 21 0 22 0;
#X connect 22 0 20 0;
#X connect 23 0 3 0;
#X connect 24 0 2 0;
#X connect 25 0 26 0;
#X connect 25 1 27 0;
#X connect 26 0 28 0;
#X connect 27 0 29 0;
#X connect 28 0 23 1;
#X connect 28 1 24 1;
#X connect 29 0 24 1;
#X connect 29 1 23 1;
#X connect 33 0 8 1;
#X connect 34 0 33 1;
#X connect 35 0 4 0;
#X connect 36 0 37 0;
#X connect 37 0 35 1;
#X connect 38 0 39 0;
#X connect 39 0 35 0;
#X coords 0 -1 1 1 104 112 2 100 100;
