#N canvas 0 54 1024 546 10;
#X obj 103 103 cnv 15 67 106 empty empty empty 20 12 0 14 -3707 -66577
0;
#X obj 307 48 inlet~;
#X obj 281 448 outlet~;
#X obj 105 132 vsl 30 64 0 127 0 0 empty empty empty 0 -9 0 10 -66577
-3707 -1 1100 1;
#X obj 137 132 vsl 30 64 1 128 0 0 empty empty empty 0 -9 0 10 -66577
-3707 -1 0 1;
#X obj 110 201 cnv 8 24 8 empty empty freq 2 4 1 9 -3707 -1 0;
#X obj 141 201 cnv 8 24 8 empty empty reso 2 4 1 9 -3707 -1 0;
#X obj 105 115 cnv 12 62 12 empty empty modcrack 2 7 1 9 -66577 -3707
0;
#X obj 156 116 tgl 10 0 empty empty empty -12 5 1 9 -3707 -1 -3707
1 1;
#X obj 107 30 loadbang;
#X msg 107 52 1;
#X obj 258 87 *~;
#X obj 298 87 *~;
#X obj 215 -28 sel 0 1;
#X msg 196 -2 1 0;
#X msg 226 -2 1 0;
#X obj 171 23 unpack f f;
#X obj 250 23 unpack f f;
#X obj 366 196 hip~;
#X obj 366 174 clip~ -1 1;
#X obj 661 235 mtof;
#X obj 661 276 line;
#X obj 365 151 bp~ 1000 20;
#X obj 366 328 clip~ -1 1;
#X obj 366 298 *~;
#X obj 446 196 hip~;
#X obj 446 174 clip~ -1 1;
#X obj 445 151 bp~ 1000 20;
#X obj 446 328 clip~ -1 1;
#X obj 446 298 *~;
#X obj 407 371 *~;
#X obj 420 397 *~;
#X obj 447 371 *~;
#X obj 446 112 *~ 4;
#X obj 366 112 *~ 8;
#X obj 434 425 clip~ -1 1;
#X msg 661 255 \$1 100;
#X obj 661 129 random 128;
#X obj 661 151 spigot;
#X obj 661 88 r pscorchea;
#X obj 661 108 t b;
#X obj 717 193 f;
#X obj 717 171 sel 0;
#X obj 614 88 > 100;
#X obj 103 104 cnv 8 8 8 empty empty ~in 2 4 1 9 -3707 -1 0;
#X obj 137 104 cnv 8 8 8 empty empty cvFRQ 2 4 1 9 -3707 -1 0;
#X obj 374 -11 inlet~ FREQ;
#X obj 402 23 *~ 100;
#X obj 403 246 line~;
#X msg 402 227 \$1 20;
#X obj 398 275 +~;
#X connect 1 0 11 0;
#X connect 1 0 12 0;
#X connect 3 0 20 0;
#X connect 3 0 41 1;
#X connect 3 0 49 0;
#X connect 4 0 22 2;
#X connect 4 0 27 2;
#X connect 4 0 43 0;
#X connect 8 0 13 0;
#X connect 9 0 10 0;
#X connect 10 0 8 0;
#X connect 11 0 2 0;
#X connect 12 0 34 0;
#X connect 12 0 33 0;
#X connect 13 0 14 0;
#X connect 13 1 15 0;
#X connect 14 0 16 0;
#X connect 15 0 17 0;
#X connect 16 0 11 1;
#X connect 16 1 12 1;
#X connect 17 0 12 1;
#X connect 17 1 11 1;
#X connect 18 0 24 0;
#X connect 19 0 18 0;
#X connect 20 0 36 0;
#X connect 21 0 18 1;
#X connect 21 0 22 1;
#X connect 21 0 27 1;
#X connect 21 0 25 1;
#X connect 22 0 19 0;
#X connect 23 0 30 0;
#X connect 23 0 32 0;
#X connect 24 0 23 0;
#X connect 25 0 29 0;
#X connect 26 0 25 0;
#X connect 27 0 26 0;
#X connect 28 0 30 1;
#X connect 28 0 32 1;
#X connect 29 0 28 0;
#X connect 30 0 31 0;
#X connect 31 0 35 0;
#X connect 32 0 31 1;
#X connect 33 0 27 0;
#X connect 34 0 22 0;
#X connect 35 0 2 0;
#X connect 36 0 21 0;
#X connect 37 0 38 0;
#X connect 38 0 20 0;
#X connect 39 0 40 0;
#X connect 40 0 37 0;
#X connect 41 0 20 0;
#X connect 42 0 41 0;
#X connect 43 0 38 1;
#X connect 43 0 42 0;
#X connect 46 0 47 0;
#X connect 47 0 50 1;
#X connect 48 0 50 0;
#X connect 49 0 48 0;
#X connect 50 0 24 1;
#X connect 50 0 29 1;
#X coords 0 -1 1 1 72 112 2 100 100;
