#N canvas 0 54 1024 546 10;
#X obj 103 103 cnv 15 67 106 empty empty empty 20 12 0 14 -3707 -66577
0;
#X obj 105 132 vsl 30 64 1 64 0 0 empty empty empty 0 -9 0 10 -66577
-3707 -1 6300 1;
#X obj 137 132 vsl 30 64 1 100 0 0 empty empty empty 0 -9 0 10 -66577
-3707 -1 5900 1;
#X obj 111 201 cnv 8 24 6 empty empty inA 2 4 1 9 -3707 -1 0;
#X obj 105 115 cnv 12 62 12 empty empty CROSS 2 7 1 9 -66577 -3707
0;
#X obj 28 79 inlet~;
#X obj 131 297 *~;
#X obj 188 79 inlet~;
#X obj 188 241 *~;
#X obj 254 251 line~;
#X msg 254 231 \$1 20;
#X obj 131 409 outlet~;
#X obj 131 319 *~;
#X obj 174 311 line~;
#X msg 174 288 \$1 20;
#X obj 143 201 cnv 8 24 6 empty empty inB 2 4 1 9 -3707 -1 0;
#X obj 156 116 tgl 10 0 empty empty on -12 5 1 9 -3707 -1 -3707 1 1
;
#X obj 30 -14 loadbang;
#X msg 30 8 1;
#X obj 336 190 *~;
#X obj 433 189 *~;
#X obj 468 28 sel 0 1;
#X msg 449 54 1 0;
#X msg 479 54 1 0;
#X obj 424 79 unpack f f;
#X obj 503 79 unpack f f;
#X obj 463 189 *~;
#X obj 154 104 cnv 8 8 6 empty empty cv1 0 4 1 9 -3707 -1 0;
#X obj 104 104 cnv 8 8 6 empty empty ~inA 0 4 1 9 -3707 -1 0;
#X obj 128 104 cnv 8 8 6 empty empty ~inB 0 4 1 9 -3707 -1 0;
#X obj 266 304 +~;
#X obj 322 78 inlet~ MOD;
#X obj 96 220 / 64;
#X obj 140 220 / 10;
#X connect 1 0 32 0;
#X connect 2 0 33 0;
#X connect 5 0 19 0;
#X connect 5 0 20 0;
#X connect 6 0 12 0;
#X connect 7 0 19 0;
#X connect 7 0 26 0;
#X connect 8 0 6 1;
#X connect 9 0 30 0;
#X connect 10 0 9 0;
#X connect 12 0 11 0;
#X connect 13 0 12 1;
#X connect 14 0 13 0;
#X connect 16 0 21 0;
#X connect 17 0 18 0;
#X connect 18 0 16 0;
#X connect 19 0 11 0;
#X connect 20 0 6 0;
#X connect 21 0 22 0;
#X connect 21 1 23 0;
#X connect 22 0 24 0;
#X connect 23 0 25 0;
#X connect 24 0 19 1;
#X connect 24 1 20 1;
#X connect 24 1 26 1;
#X connect 25 0 20 1;
#X connect 25 0 26 1;
#X connect 25 1 19 1;
#X connect 26 0 8 0;
#X connect 30 0 8 1;
#X connect 31 0 30 1;
#X connect 32 0 14 0;
#X connect 33 0 10 0;
#X coords 0 -1 1 1 72 112 2 100 100;
