#N canvas 0 54 1024 546 10;
#X obj 103 103 cnv 15 139 106 empty empty empty 20 12 0 14 -3707 -66577
0;
#X obj 305 -6 inlet~;
#X obj 240 362 outlet~;
#X obj 104 131 cnv 8 24 8 empty empty freq 2 4 1 9 -3707 -1 0;
#X obj 206 177 cnv 8 22 8 empty empty factor 2 4 1 9 -3707 -1 0;
#X obj 105 115 cnv 12 134 12 empty empty modCRUSH 2 7 1 9 -66577 -3707
0;
#X obj 279 191 samphold~;
#X obj 381 128 phasor~;
#X obj 401 61 t b f, f 6;
#X obj 384 290 bp~ 5000 8;
#X obj 322 256 samphold~;
#X obj 391 253 samphold~;
#X obj 340 290 hip~;
#X obj 429 187 noise~;
#X obj 277 219 *~ 0.8;
#X obj 273 327 *~;
#X obj 303 327 *~;
#X obj 320 362 outlet~;
#X msg 204 263 \$1 20;
#X obj 205 284 line~;
#X obj 205 243 / 127;
#X obj 108 141 hsl 128 30 100 2000 0 0 empty empty empty -2 -8 0 10
-66577 -3707 -1 0 1;
#X obj 105 175 hradio 10 1 0 10 empty empty empty 0 -8 0 10 -66577
-3707 -1 0;
#X obj 402 41 + 1;
#X obj 108 189 hsl 128 15 0 127 0 0 empty empty empty -2 -8 0 10 -66577
-3707 -1 12700 1;
#X obj 397 93 * 1;
#X obj 125 39 loadbang;
#X msg 125 61 127;
#X obj 228 116 tgl 10 0 empty empty on -12 5 1 9 -3707 -1 -3707 1 1
;
#X msg 161 60 1;
#X obj 255 68 *~;
#X obj 295 68 *~;
#X obj 215 -118 sel 0 1;
#X msg 196 -92 1 0;
#X msg 226 -92 1 0;
#X obj 171 -67 unpack f f;
#X obj 250 -67 unpack f f;
#X obj 104 103 cnv 8 8 8 empty empty ~in 0 4 1 9 -3707 -1 0;
#X obj 134 103 cnv 8 8 8 empty empty cvFREQ 0 4 1 9 -3707 -1 0;
#X obj 179 103 cnv 8 8 8 empty empty cvFCT 0 4 1 9 -3707 -1 0;
#X obj 211 103 cnv 8 8 8 empty empty cvAMP 0 4 1 9 -3707 -1 0;
#N canvas 240 257 450 300 entradasModulacion 0;
#X obj 61 111 inlet~;
#X obj 61 133 snapshot~;
#X obj 61 155 * 2000;
#X obj 61 177 outlet;
#X obj 211 111 inlet~;
#X obj 211 133 snapshot~;
#X obj 211 207 outlet;
#X obj 211 155 * 10;
#X obj 222 181 i;
#X obj 162 52 metro 20;
#X obj 162 6 loadbang;
#X msg 162 28 1;
#X connect 0 0 1 0;
#X connect 1 0 2 0;
#X connect 2 0 3 0;
#X connect 4 0 5 0;
#X connect 5 0 7 0;
#X connect 7 0 8 0;
#X connect 8 0 6 0;
#X connect 9 0 1 0;
#X connect 9 0 5 0;
#X connect 10 0 11 0;
#X connect 11 0 9 0;
#X restore 470 8 pd entradasModulacion;
#X obj 349 -112 inlet~ ModFreq;
#X obj 458 -113 inlet~ ModFactor;
#X obj 196 317 +~;
#X obj 562 -112 inlet~ ModAmp;
#X obj 562 -90 *~ 127;
#X obj 600 136 +;
#X obj 600 80 f;
#X obj 654 90 t b f;
#X obj 710 136 +;
#X obj 710 80 f;
#X obj 764 90 t b f;
#X connect 1 0 30 0;
#X connect 1 0 31 0;
#X connect 6 0 14 0;
#X connect 7 0 6 1;
#X connect 8 0 21 0;
#X connect 8 1 25 1;
#X connect 9 0 16 0;
#X connect 10 0 12 0;
#X connect 11 0 9 0;
#X connect 12 0 15 0;
#X connect 13 0 10 1;
#X connect 13 0 11 1;
#X connect 14 0 15 0;
#X connect 14 0 16 0;
#X connect 15 0 2 0;
#X connect 16 0 17 0;
#X connect 18 0 19 0;
#X connect 19 0 44 0;
#X connect 20 0 18 0;
#X connect 21 0 48 1;
#X connect 21 0 47 0;
#X connect 22 0 51 1;
#X connect 22 0 50 0;
#X connect 23 0 8 0;
#X connect 24 0 20 0;
#X connect 25 0 7 0;
#X connect 25 0 12 1;
#X connect 25 0 9 1;
#X connect 26 0 27 0;
#X connect 26 0 29 0;
#X connect 27 0 24 0;
#X connect 28 0 32 0;
#X connect 29 0 28 0;
#X connect 30 0 2 0;
#X connect 30 0 17 0;
#X connect 31 0 11 0;
#X connect 31 0 10 0;
#X connect 31 0 6 0;
#X connect 32 0 33 0;
#X connect 32 1 34 0;
#X connect 33 0 35 0;
#X connect 34 0 36 0;
#X connect 35 0 30 1;
#X connect 35 1 31 1;
#X connect 36 0 31 1;
#X connect 36 1 30 1;
#X connect 41 0 49 0;
#X connect 41 1 52 0;
#X connect 42 0 41 0;
#X connect 43 0 41 1;
#X connect 44 0 15 1;
#X connect 44 0 16 1;
#X connect 45 0 46 0;
#X connect 46 0 44 1;
#X connect 47 0 25 0;
#X connect 48 0 47 0;
#X connect 49 0 48 0;
#X connect 49 1 47 1;
#X connect 50 0 23 0;
#X connect 51 0 50 0;
#X connect 52 0 51 0;
#X connect 52 1 50 1;
#X coords 0 -1 1 1 144 112 2 100 100;
