#N canvas 0 54 1024 546 10;
#X obj 103 103 cnv 15 86 106 empty empty empty 20 12 0 14 -3707 -66577
0;
#X obj 125 198 cnv 8 12 8 empty empty cut 2 4 1 9 -3707 -1 0;
#X obj 105 115 cnv 12 81 12 empty empty moddrips 2 7 1 9 -66577 -3707
0;
#X obj 176 44 inlet~;
#X obj 577 353 bp~ 100 100;
#X obj 577 397 outlet~;
#X obj 377 -11 r pscorchea;
#X obj 377 63 select 0 1 2 3;
#X obj 603 328 line;
#X obj 378 145 *;
#X floatatom 105 195 3 0 127 0 - - -, f 3;
#X obj 409 119 mtof;
#X obj 273 -26 loadbang;
#X msg 273 -4 44;
#X obj 378 111 + 1;
#X obj 105 130 bng 15 250 50 0 empty empty empty 17 7 0 10 -1 -3707
-1;
#X obj 121 130 bng 15 250 50 0 empty empty empty 17 7 0 10 -1 -3707
-1;
#X obj 137 130 bng 15 250 50 0 empty empty empty 17 7 0 10 -1 -3707
-1;
#X obj 153 130 bng 15 250 50 0 empty empty empty 17 7 0 10 -1 -3707
-1;
#X obj 105 146 bng 15 250 50 0 empty empty empty 17 7 0 10 -1 -3707
-1;
#X obj 121 146 bng 15 250 50 0 empty empty empty 17 7 0 10 -1 -3707
-1;
#X obj 137 146 bng 15 250 50 0 empty empty empty 17 7 0 10 -1 -3707
-1;
#X obj 153 146 bng 15 250 50 0 empty empty empty 17 7 0 10 -1 -3707
-1;
#X obj 105 162 bng 15 250 50 0 empty empty empty 17 7 0 10 -1 -3707
-1;
#X obj 121 162 bng 15 250 50 0 empty empty empty 17 7 0 10 -1 -3707
-1;
#X obj 137 162 bng 15 250 50 0 empty empty empty 17 7 0 10 -1 -3707
-1;
#X obj 153 162 bng 15 250 50 0 empty empty empty 17 7 0 10 -1 -3707
-1;
#X obj 105 178 bng 15 250 50 0 empty empty empty 17 7 0 10 -1 -3707
-1;
#X obj 121 178 bng 15 250 50 0 empty empty empty 17 7 0 10 -1 -3707
-1;
#X obj 137 178 bng 15 250 50 0 empty empty empty 17 7 0 10 -1 -3707
-1;
#X obj 153 178 bng 15 250 50 0 empty empty empty 17 7 0 10 -1 -3707
-1;
#X obj 378 89 random 16;
#X obj 226 197 sel 0 1 2 3 4 5 6 7 8 9 10 11 12 13 14 15 16;
#X msg 377 11 bang;
#X obj 577 375 *~ 1;
#X obj 377 41 random 20;
#X obj 602 285 pack f f;
#X floatatom 148 195 3 20 500 0 - - -, f 3;
#X msg 602 307 \$1 \$2;
#X obj 171 132 vsl 15 50 3 27 0 0 empty empty empty 0 -9 0 10 -66577
-3707 -1 3471 1;
#X obj 428 21 int;
#X obj 169 187 cnv 8 18 8 empty empty rnd 2 4 1 9 -3707 -1 0;
#X obj 169 198 cnv 8 16 8 empty empty env 2 4 1 9 -3707 -1 0;
#X msg 302 -4 20;
#X obj 103 104 cnv 8 12 8 empty empty ~in 0 4 1 9 -3707 -1 0;
#X obj 126 104 cnv 8 12 8 empty empty cvC 0 4 1 9 -3707 -1 0;
#X obj 150 104 cnv 8 12 8 empty empty cvE 0 4 1 9 -3707 -1 0;
#X obj 172 104 cnv 8 12 8 empty empty cvR 0 4 1 9 -3707 -1 0;
#X obj 510 56 inlet~ CUT;
#X obj 510 78 snapshot~;
#X obj 510 100 * 127;
#X obj 591 56 inlet~ ENV;
#X obj 591 78 snapshot~;
#X obj 591 100 * 500;
#X obj 668 56 inlet~ RND;
#X obj 668 78 snapshot~;
#X obj 668 100 * 27;
#X obj 510 186 +;
#X obj 510 130 f;
#X obj 544 130 t b f;
#X obj 590 186 +;
#X obj 590 130 f;
#X obj 624 130 t b f;
#X obj 670 186 +;
#X obj 670 130 f;
#X obj 704 130 t b f;
#X obj 519 210 i;
#X obj 600 21 metro 20;
#X msg 600 0 1;
#X connect 3 0 4 0;
#X connect 4 0 34 0;
#X connect 6 0 33 0;
#X connect 7 0 31 0;
#X connect 7 1 31 0;
#X connect 7 2 31 0;
#X connect 7 3 31 0;
#X connect 8 0 4 1;
#X connect 9 0 36 0;
#X connect 10 0 58 1;
#X connect 10 0 57 0;
#X connect 11 0 9 1;
#X connect 12 0 13 0;
#X connect 12 0 43 0;
#X connect 12 0 68 0;
#X connect 13 0 10 0;
#X connect 14 0 9 0;
#X connect 14 0 32 0;
#X connect 31 0 14 0;
#X connect 32 1 15 0;
#X connect 32 2 16 0;
#X connect 32 3 17 0;
#X connect 32 4 18 0;
#X connect 32 5 19 0;
#X connect 32 6 20 0;
#X connect 32 7 21 0;
#X connect 32 8 22 0;
#X connect 32 9 23 0;
#X connect 32 10 24 0;
#X connect 32 11 25 0;
#X connect 32 12 26 0;
#X connect 32 13 27 0;
#X connect 32 14 28 0;
#X connect 32 15 29 0;
#X connect 32 16 30 0;
#X connect 33 0 35 0;
#X connect 34 0 5 0;
#X connect 35 0 7 0;
#X connect 36 0 38 0;
#X connect 37 0 60 0;
#X connect 37 0 61 1;
#X connect 38 0 8 0;
#X connect 39 0 64 1;
#X connect 39 0 63 0;
#X connect 40 0 35 1;
#X connect 43 0 37 0;
#X connect 43 0 39 0;
#X connect 48 0 49 0;
#X connect 49 0 50 0;
#X connect 50 0 59 0;
#X connect 51 0 52 0;
#X connect 52 0 53 0;
#X connect 53 0 62 0;
#X connect 54 0 55 0;
#X connect 55 0 56 0;
#X connect 56 0 65 0;
#X connect 57 0 66 0;
#X connect 58 0 57 0;
#X connect 59 0 58 0;
#X connect 59 1 57 1;
#X connect 60 0 36 1;
#X connect 61 0 60 0;
#X connect 62 0 61 0;
#X connect 62 1 60 1;
#X connect 63 0 40 0;
#X connect 64 0 63 0;
#X connect 65 0 64 0;
#X connect 65 1 63 1;
#X connect 66 0 11 0;
#X connect 67 0 49 0;
#X connect 67 0 52 0;
#X connect 67 0 55 0;
#X connect 68 0 67 0;
#X coords 0 -1 1 1 91 112 2 100 100;
