#N canvas 0 54 1024 546 10;
#X obj 103 103 cnv 15 99 106 empty empty empty 20 12 0 14 -3707 -66577
0;
#X obj 354 -8 inlet~;
#X obj 403 315 *~;
#X obj 355 362 outlet~;
#X obj 105 132 vsl 30 64 0 127 0 0 empty empty empty 0 -9 0 10 -66577
-3707 -1 3175 1;
#X obj 137 132 vsl 30 64 0 127 0 0 empty empty empty 0 -9 0 10 -66577
-3707 -1 992 1;
#X obj 169 132 vsl 30 64 0 127 0 0 empty empty empty 0 -9 0 10 -66577
-3707 -1 6300 1;
#X obj 105 201 cnv 8 24 8 empty empty attack 2 4 1 9 -3707 -1 0;
#X obj 137 201 cnv 8 22 8 empty empty decay 2 4 1 9 -3707 -1 0;
#X obj 173 201 cnv 8 26 8 empty empty amp 2 4 1 9 -3707 -1 0;
#X obj 105 115 cnv 12 94 12 empty empty modENV 2 7 1 9 -66577 -3707
0;
#X obj 188 116 tgl 10 0 empty empty on -12 5 1 9 -3707 -1 -3707 1 1
;
#X obj 107 30 loadbang;
#X msg 107 52 1;
#X obj 258 87 *~;
#X obj 298 87 *~;
#X obj 215 -28 sel 0 1;
#X msg 196 -2 1 0;
#X msg 226 -2 1 0;
#X obj 171 23 unpack f f;
#X obj 250 23 unpack f f;
#X obj 486 -9 inlet trigger;
#X obj 487 48 pow 2;
#X obj 527 48 pow 2;
#X obj 567 48 / 127;
#X obj 463 133 f;
#X obj 524 222 f;
#X obj 573 93 f;
#X obj 468 184 delay;
#X obj 489 88 t f f;
#X obj 570 245 pack f f;
#X msg 570 267 \$1 \$2;
#X obj 570 289 line~;
#X msg 612 267 0 \$1;
#X obj 148 116 bng 10 250 50 0 empty empty empty 17 7 0 10 -66577 -3707
-1;
#X msg 10 56 64 20 127;
#X obj 10 78 unpack f f f;
#X obj 463 155 t b b f;
#X obj 104 104 cnv 8 24 8 empty empty ~in 2 4 1 9 -3707 -1 0;
#X obj 173 104 cnv 8 26 8 empty empty trigIN 2 4 1 9 -3707 -1 0;
#X obj 415 -9 inlet~ MOD;
#X obj 668 72 snapshot~;
#X obj 668 94 sel 1;
#X obj 132 104 cnv 8 26 8 empty empty cv>trig 2 4 1 9 -3707 -1 0;
#X floatatom 720 127 5 0 0 0 - - -, f 5;
#X obj 671 38 r shots;
#X obj 766 53 threshold~ 0.9 100 0.9 100;
#X connect 1 0 14 0;
#X connect 1 0 15 0;
#X connect 2 0 3 0;
#X connect 4 0 22 0;
#X connect 5 0 23 0;
#X connect 6 0 24 0;
#X connect 11 0 16 0;
#X connect 12 0 13 0;
#X connect 12 0 35 0;
#X connect 13 0 11 0;
#X connect 14 0 3 0;
#X connect 15 0 2 0;
#X connect 16 0 17 0;
#X connect 16 1 18 0;
#X connect 17 0 19 0;
#X connect 18 0 20 0;
#X connect 19 0 14 1;
#X connect 19 1 15 1;
#X connect 20 0 15 1;
#X connect 20 1 14 1;
#X connect 21 0 34 0;
#X connect 21 0 25 0;
#X connect 22 0 29 0;
#X connect 23 0 26 1;
#X connect 24 0 27 1;
#X connect 25 0 37 0;
#X connect 26 0 33 0;
#X connect 27 0 30 0;
#X connect 28 0 26 0;
#X connect 29 0 25 1;
#X connect 29 1 28 1;
#X connect 30 0 31 0;
#X connect 31 0 32 0;
#X connect 32 0 2 1;
#X connect 33 0 32 0;
#X connect 35 0 36 0;
#X connect 36 0 4 0;
#X connect 36 1 5 0;
#X connect 36 2 6 0;
#X connect 37 0 27 0;
#X connect 37 1 28 0;
#X connect 37 2 30 1;
#X connect 40 0 41 0;
#X connect 40 0 46 0;
#X connect 41 0 42 0;
#X connect 41 0 44 0;
#X connect 45 0 41 0;
#X connect 46 0 25 0;
#X connect 46 0 34 0;
#X coords 0 -1 1 1 104 112 2 100 100;
