#N canvas 0 102 651 439 10;
#X obj 202 98 delwrite~ \$0sd 50;
#X obj 199 151 vd~ \$0sd 50;
#X obj 85 201 outlet~ left;
#X obj 196 204 outlet~ right;
#X obj 193 40 loadbang;
#X msg 193 62 30;
#X obj 102 103 cnv 10 81 44 empty empty in 2 5 1 9 -3707 -1 0;
#X obj 102 137 cnv 10 10 10 empty empty outL 2 7 1 9 -3707 -1 0;
#X obj 160 137 cnv 10 10 10 empty empty outR 2 7 1 9 -3707 -1 0;
#X obj 103 119 cnv 12 78 12 empty empty modEXPAN 14 7 1 9 -66577 -3707
0;
#X obj 171 104 tgl 10 0 empty empty on -12 5 1 9 -3707 -1 -1 0 1;
#X msg 347 70 1;
#X obj 284 -1 *~;
#X obj 324 -1 *~;
#X obj 455 -10 sel 0 1;
#X msg 436 16 1 0;
#X msg 466 16 1 0;
#X obj 411 41 unpack f f;
#X obj 490 41 unpack f f;
#X obj 71 42 inlet~;
#X connect 1 0 3 0;
#X connect 4 0 5 0;
#X connect 4 0 11 0;
#X connect 5 0 1 0;
#X connect 10 0 14 0;
#X connect 11 0 10 0;
#X connect 12 0 3 0;
#X connect 13 0 0 0;
#X connect 14 0 15 0;
#X connect 14 1 16 0;
#X connect 15 0 17 0;
#X connect 16 0 18 0;
#X connect 17 0 12 1;
#X connect 17 1 13 1;
#X connect 18 0 13 1;
#X connect 18 1 12 1;
#X connect 19 0 2 0;
#X connect 19 0 12 0;
#X connect 19 0 13 0;
#X coords 0 -1 1 1 85 50 1 100 100;
