#N canvas 0 54 1024 546 10;
#X obj 103 103 cnv 15 99 106 empty empty empty 20 12 0 14 -3707 -66577
0;
#X obj 354 58 inlet~;
#X obj 345 352 outlet~;
#X obj 105 132 vsl 30 64 0 127 0 0 empty empty empty 0 -9 0 10 -66577
-3707 -1 5500 1;
#X obj 137 132 vsl 30 64 0 127 0 0 empty empty empty 0 -9 0 10 -66577
-3707 -1 4300 1;
#X obj 169 132 vsl 30 64 1 65 0 0 empty empty empty 0 -9 0 10 -66577
-3707 -1 3500 1;
#X obj 113 201 cnv 8 24 8 empty empty fm 2 4 1 9 -3707 -1 0;
#X obj 137 201 cnv 8 22 8 empty empty cutoff 2 4 1 9 -3707 -1 0;
#X obj 173 201 cnv 8 26 8 empty empty mod 2 4 1 9 -3707 -1 0;
#X obj 105 115 cnv 12 94 12 empty empty modFLUX 2 7 1 9 -66577 -3707
0;
#X obj 188 116 tgl 10 0 empty empty on -12 5 1 9 -3707 -1 -3707 1 1
;
#X obj 107 30 loadbang;
#X msg 107 52 1;
#X obj 258 87 *~;
#X obj 298 87 *~;
#X obj 215 -28 sel 0 1;
#X msg 196 -2 1 0;
#X msg 226 -2 1 0;
#X obj 171 23 unpack f f;
#X obj 250 23 unpack f f;
#X obj 103 104 cnv 8 8 8 empty empty ~in 2 4 1 9 -3707 -1 0;
#X obj 119 104 cnv 8 8 8 empty empty cvFM 2 4 1 9 -3707 -1 0;
#X obj 175 104 cnv 8 8 8 empty empty cvMD 2 4 1 9 -3707 -1 0;
#X obj 363 -9 inlet~ modAMP;
#X obj 543 -9 inlet~ modRATE;
#X obj 73 239 * 100;
#X obj 130 231 mtof;
#X obj 363 264 vcf~ 20 1;
#X obj 361 115 osc~;
#X obj 361 137 *~;
#X obj 371 193 +~;
#X obj 387 24 *~ 50;
#X obj 360 325 *~ 10;
#X obj 191 221 pow 2;
#X obj 73 294 line~;
#X msg 74 274 \$1 20;
#X obj 123 294 line~;
#X msg 124 274 \$1 20;
#X obj 183 294 line~;
#X msg 184 274 \$1 20;
#X obj 71 326 +~;
#X obj 362 95 +~;
#X obj 543 24 *~ 1000;
#X obj 391 223 +~;
#X obj 456 -9 inlet~ modCUT;
#X obj 456 13 *~ 10000;
#X obj 145 104 cnv 8 8 8 empty empty cvCUT 2 4 1 9 -3707 -1 0;
#X connect 1 0 13 0;
#X connect 1 0 14 0;
#X connect 3 0 25 0;
#X connect 4 0 26 0;
#X connect 5 0 33 0;
#X connect 10 0 15 0;
#X connect 11 0 12 0;
#X connect 12 0 10 0;
#X connect 13 0 32 0;
#X connect 14 0 27 0;
#X connect 15 0 16 0;
#X connect 15 1 17 0;
#X connect 16 0 18 0;
#X connect 17 0 19 0;
#X connect 18 0 13 1;
#X connect 18 1 14 1;
#X connect 19 0 14 1;
#X connect 19 1 13 1;
#X connect 23 0 31 0;
#X connect 24 0 42 0;
#X connect 25 0 35 0;
#X connect 26 0 37 0;
#X connect 27 0 32 0;
#X connect 28 0 29 0;
#X connect 29 0 30 1;
#X connect 30 0 43 0;
#X connect 31 0 40 1;
#X connect 32 0 2 0;
#X connect 33 0 39 0;
#X connect 34 0 40 0;
#X connect 35 0 34 0;
#X connect 36 0 30 0;
#X connect 37 0 36 0;
#X connect 38 0 41 0;
#X connect 39 0 38 0;
#X connect 40 0 29 1;
#X connect 41 0 28 0;
#X connect 42 0 41 1;
#X connect 43 0 27 1;
#X connect 44 0 45 0;
#X connect 45 0 43 1;
#X coords 0 -1 1 1 104 112 2 100 100;
