#N canvas 0 54 1024 546 10;
#X obj 131 293 *~;
#X obj 167 293 noise~;
#X obj 167 317 snapshot~;
#X obj 232 292 metro;
#X obj 258 264 random 100;
#X obj 347 293 noise~;
#X obj 347 317 snapshot~;
#X obj 412 292 metro;
#X obj 438 264 random 100;
#X obj 311 293 *~;
#X obj 88 -21 inlet~;
#X obj 104 104 cnv 15 99 105 empty empty empty 20 12 0 14 -3707 -66577
0;
#X obj 220 31 loadbang;
#X obj 106 115 cnv 12 94 12 empty empty modFRACTA 2 7 1 9 -66577 -3707
0;
#X obj 106 132 vsl 30 64 0 1 0 0 empty empty empty 0 -9 0 10 -66577
-3707 -1 3150 1;
#X obj 138 132 vsl 30 64 50 1000 0 0 empty empty empty 0 -9 0 10 -66577
-3707 -1 332 1;
#X obj 170 132 vsl 30 64 50 1000 0 0 empty empty empty 0 -9 0 10 -66577
-3707 -1 332 1;
#X obj 106 201 cnv 8 24 8 empty empty bal.LR 2 4 1 9 -3707 -1 0;
#X obj 143 201 cnv 8 22 8 empty empty rndL 2 4 1 9 -3707 -1 0;
#X obj 172 201 cnv 8 26 8 empty empty rndR 2 4 1 9 -3707 -1 0;
#X obj 131 405 *~;
#X obj 311 405 *~;
#X obj 28 266 / -1;
#X obj 28 288 + 1;
#X msg 108 63 0.5;
#X obj 185 385 line~;
#X obj 337 385 line~;
#X msg 185 365 \$1 20;
#X msg 337 365 \$1 20;
#X obj 130 436 outlet~;
#X obj 310 436 outlet~;
#X msg 146 63 100;
#X obj 189 116 tgl 10 0 empty empty on -12 5 1 9 -3707 -1 -3707 1 1
;
#X obj 488 87 *~;
#X obj 528 87 *~;
#X obj 445 -28 sel 0 1;
#X msg 426 -2 1 0;
#X msg 456 -2 1 0;
#X obj 401 23 unpack f f;
#X obj 480 23 unpack f f;
#X msg 183 63 1;
#X obj 105 105 cnv 8 8 8 empty empty in~ 2 4 1 9 -3707 -1 0;
#X obj 170 105 cnv 8 8 8 empty empty cvBAL 2 4 1 9 -3707 -1 0;
#X obj 577 -14 inlet~;
#X obj 538 266 /~ -1;
#X obj 538 288 +~ 1;
#X obj 177 407 +~;
#X obj 366 407 +~;
#X connect 0 0 20 0;
#X connect 1 0 2 0;
#X connect 2 0 0 1;
#X connect 3 0 2 0;
#X connect 3 0 4 0;
#X connect 4 0 3 1;
#X connect 5 0 6 0;
#X connect 6 0 9 1;
#X connect 7 0 6 0;
#X connect 7 0 8 0;
#X connect 8 0 7 1;
#X connect 9 0 21 0;
#X connect 10 0 33 0;
#X connect 10 0 34 0;
#X connect 12 0 3 0;
#X connect 12 0 7 0;
#X connect 12 0 24 0;
#X connect 12 0 31 0;
#X connect 12 0 40 0;
#X connect 14 0 22 0;
#X connect 14 0 28 0;
#X connect 15 0 4 1;
#X connect 16 0 8 1;
#X connect 20 0 29 0;
#X connect 21 0 30 0;
#X connect 22 0 23 0;
#X connect 23 0 27 0;
#X connect 24 0 14 0;
#X connect 25 0 46 0;
#X connect 26 0 47 0;
#X connect 27 0 25 0;
#X connect 28 0 26 0;
#X connect 31 0 15 0;
#X connect 31 0 16 0;
#X connect 32 0 35 0;
#X connect 33 0 29 0;
#X connect 33 0 30 0;
#X connect 34 0 0 0;
#X connect 34 0 9 0;
#X connect 35 0 36 0;
#X connect 35 1 37 0;
#X connect 36 0 38 0;
#X connect 37 0 39 0;
#X connect 38 0 33 1;
#X connect 38 1 34 1;
#X connect 39 0 34 1;
#X connect 39 1 33 1;
#X connect 40 0 32 0;
#X connect 43 0 44 0;
#X connect 43 0 47 1;
#X connect 44 0 45 0;
#X connect 45 0 46 1;
#X connect 46 0 20 1;
#X connect 47 0 21 1;
#X coords 0 -1 1 1 106 112 2 100 100;
