#N canvas 0 102 681 416 10;
#X obj 103 103 cnv 15 102 106 empty empty empty 20 12 0 14 -3707 -66577
0;
#X obj 105 115 cnv 12 98 12 empty empty modFM 2 7 1 9 -66577 -3707
0;
#X obj 317 126 osc~;
#X obj 428 161 *~;
#X obj 360 12 inlet~;
#X obj 317 101 +~;
#X obj 361 79 *~;
#X floatatom 105 131 5 0 127 0 - - -, f 5;
#X obj 201 66 mtof;
#X floatatom 105 167 5 0 50 3 - - -, f 5;
#X obj 476 130 line~;
#X msg 476 109 \$1 20;
#X obj 320 319 outlet~;
#X obj 476 89 / 50;
#X obj 140 132 cnv 15 30 16 empty empty pitch 2 7 1 9 -3707 -1 0;
#X obj 141 171 cnv 8 30 8 empty empty fm 2 4 1 9 -3707 -1 0;
#X obj 173 132 vsl 30 64 0 50 0 0 empty empty empty 0 -9 0 10 -66577
-3707 -1 0 1;
#X floatatom 105 149 5 0 0 0 - - -, f 5;
#X obj 141 151 cnv 15 30 16 empty empty hz 2 7 1 9 -3707 -1 0;
#X obj 118 257 *;
#X obj 142 228 t b f;
#X obj 176 200 cnv 8 24 8 empty empty amp 2 4 1 9 -3707 -1 0;
#X obj 291 179 phasor~;
#X obj 528 161 *~;
#X obj 576 130 line~;
#X msg 576 109 \$1 20;
#X obj 576 89 / 50;
#X obj 420 238 *~;
#X obj 510 238 *~;
#X obj 138 186 vradio 10 1 0 2 empty empty empty 0 -8 0 10 -66577 -3707
-1 1;
#X obj 584 278 select 0 1;
#X obj 575 325 t b b;
#X obj 625 325 t b b;
#X msg 441 210 0;
#X msg 531 210 0;
#X msg 471 210 1;
#X msg 561 210 1;
#X obj 60 -13 loadbang;
#X msg 61 10 1;
#X obj 149 186 cnv 8 20 8 empty empty saw 2 4 1 9 -3707 -1 0;
#X obj 149 197 cnv 8 20 8 empty empty sin 2 4 1 9 -3707 -1 0;
#X obj 104 191 cnv 8 30 8 empty empty carrier 2 4 1 9 -3707 -1 0;
#X obj 192 116 tgl 10 0 empty empty on -12 5 1 9 -3707 -1 -3707 1 1
;
#X obj 258 87 *~;
#X obj 298 87 *~;
#X obj 215 -28 sel 0 1;
#X msg 196 -2 1 0;
#X msg 226 -2 1 0;
#X obj 171 23 unpack f f;
#X obj 250 23 unpack f f;
#X obj 104 103 cnv 8 8 8 empty empty in~ 2 4 1 9 -3707 -1 0;
#X obj 127 103 cnv 8 8 8 empty empty cvP 2 4 1 9 -3707 -1 0;
#X obj 149 103 cnv 8 8 8 empty empty cvFM 2 4 1 9 -3707 -1 0;
#X obj 174 103 cnv 8 8 8 empty empty cvAmp 2 4 1 9 -3707 -1 0;
#X obj 408 12 inlet~ modPitch;
#X obj 505 12 inlet~ modFM;
#X obj 584 12 inlet~ modAMP;
#X obj 505 34 *~ 50;
#X obj 465 158 +~;
#X obj 565 158 +~;
#X obj 398 63 +~;
#X msg 118 280 \$1 20;
#X obj 408 34 *~ 2000;
#X obj 336 62 +~;
#X connect 2 0 3 0;
#X connect 3 0 27 0;
#X connect 4 0 44 0;
#X connect 4 0 43 0;
#X connect 5 0 2 0;
#X connect 5 0 22 0;
#X connect 6 0 5 1;
#X connect 7 0 8 0;
#X connect 7 0 19 0;
#X connect 8 0 63 0;
#X connect 9 0 20 0;
#X connect 10 0 58 0;
#X connect 11 0 10 0;
#X connect 13 0 11 0;
#X connect 16 0 13 0;
#X connect 16 0 26 0;
#X connect 17 0 63 0;
#X connect 19 0 61 0;
#X connect 20 0 7 0;
#X connect 20 1 19 1;
#X connect 22 0 23 0;
#X connect 23 0 28 0;
#X connect 24 0 59 0;
#X connect 25 0 24 0;
#X connect 26 0 25 0;
#X connect 27 0 12 0;
#X connect 28 0 12 0;
#X connect 29 0 30 0;
#X connect 30 0 31 0;
#X connect 30 1 32 0;
#X connect 31 0 36 0;
#X connect 31 1 33 0;
#X connect 32 0 35 0;
#X connect 32 1 34 0;
#X connect 33 0 27 1;
#X connect 34 0 28 1;
#X connect 35 0 27 1;
#X connect 36 0 28 1;
#X connect 37 0 38 0;
#X connect 38 0 29 0;
#X connect 38 0 42 0;
#X connect 42 0 45 0;
#X connect 43 0 12 0;
#X connect 44 0 6 0;
#X connect 45 0 46 0;
#X connect 45 1 47 0;
#X connect 46 0 48 0;
#X connect 47 0 49 0;
#X connect 48 0 43 1;
#X connect 48 1 44 1;
#X connect 49 0 44 1;
#X connect 49 1 43 1;
#X connect 54 0 62 0;
#X connect 55 0 57 0;
#X connect 56 0 58 1;
#X connect 56 0 59 1;
#X connect 57 0 60 1;
#X connect 58 0 3 1;
#X connect 59 0 23 1;
#X connect 60 0 6 1;
#X connect 61 0 60 0;
#X connect 62 0 63 1;
#X connect 63 0 5 0;
#X coords 0 -1 1 1 108 112 2 100 100;
