#N canvas 0 54 1024 546 10;
#X text 1102 433 <filtros pasa banda;
#X obj 385 211 mtof;
#X obj 425 211 mtof;
#X obj 465 211 mtof;
#X obj 505 211 mtof;
#X obj 545 211 mtof;
#X obj 585 211 mtof;
#X obj 625 211 mtof;
#X obj 665 211 mtof;
#N canvas 0 92 450 300 RandomPitch 0;
#X obj 15 59 random 128;
#X obj 85 59 random 128;
#X obj 155 59 random 128;
#X obj 225 59 random 128;
#X obj 45 79 random 128;
#X obj 115 79 random 128;
#X obj 185 79 random 128;
#X obj 255 79 random 128;
#X obj 9 166 outlet;
#X obj 51 166 outlet;
#X obj 93 166 outlet;
#X obj 135 166 outlet;
#X obj 177 166 outlet;
#X obj 219 166 outlet;
#X obj 261 166 outlet;
#X obj 303 166 outlet;
#X obj 336 19 inlet;
#X connect 0 0 8 0;
#X connect 1 0 10 0;
#X connect 2 0 12 0;
#X connect 3 0 14 0;
#X connect 4 0 9 0;
#X connect 5 0 11 0;
#X connect 6 0 13 0;
#X connect 7 0 15 0;
#X connect 16 0 0 0;
#X connect 16 0 4 0;
#X connect 16 0 1 0;
#X connect 16 0 5 0;
#X connect 16 0 2 0;
#X connect 16 0 6 0;
#X connect 16 0 3 0;
#X connect 16 0 7 0;
#X restore 381 66 pd RandomPitch;
#N canvas 0 92 450 300 RandomRateLfo 0;
#X obj 15 59 random 128;
#X obj 85 59 random 128;
#X obj 155 59 random 128;
#X obj 225 59 random 128;
#X obj 45 79 random 128;
#X obj 115 79 random 128;
#X obj 185 79 random 128;
#X obj 255 79 random 128;
#X obj 9 166 outlet;
#X obj 51 166 outlet;
#X obj 93 166 outlet;
#X obj 135 166 outlet;
#X obj 177 166 outlet;
#X obj 219 166 outlet;
#X obj 261 166 outlet;
#X obj 303 166 outlet;
#X obj 336 19 inlet;
#X connect 0 0 8 0;
#X connect 1 0 10 0;
#X connect 2 0 12 0;
#X connect 3 0 14 0;
#X connect 4 0 9 0;
#X connect 5 0 11 0;
#X connect 6 0 13 0;
#X connect 7 0 15 0;
#X connect 16 0 0 0;
#X connect 16 0 4 0;
#X connect 16 0 1 0;
#X connect 16 0 5 0;
#X connect 16 0 2 0;
#X connect 16 0 6 0;
#X connect 16 0 3 0;
#X connect 16 0 7 0;
#X restore 782 286 pd RandomRateLfo;
#X obj 763 707 outlet~;
#X obj 772 626 line~;
#X obj 712 627 *~;
#X obj 822 656 line~;
#X obj 762 657 *~;
#X msg 913 643 \$1 20;
#X obj 439 434 bp~ 200 100;
#X obj 513 434 bp~ 300 100;
#X obj 586 434 bp~ 400 100;
#X obj 659 434 bp~ 550 100;
#X obj 732 434 bp~ 620 200;
#X obj 805 434 bp~ 680 200;
#X obj 878 434 bp~ 700 300;
#X obj 951 434 bp~ 800 300;
#X obj 104 104 cnv 15 78 104 empty empty empty 20 12 0 14 -228856 -66577
0;
#X obj 133 24 loadbang;
#X obj 104 198 cnv 10 10 10 empty empty out 0 7 1 9 -228856 -1 0;
#X obj 117 184 cnv 4 4 4 empty empty GARDEN 2 5 1 11 -228856 -3707
0;
#X msg 35 112 100;
#X obj 562 464 *~ 1;
#X obj 612 464 *~ 1;
#X obj 662 464 *~ 1;
#X obj 712 464 *~ 1;
#X obj 762 464 *~ 1;
#X obj 812 464 *~ 1;
#X obj 862 464 *~ 1;
#X obj 912 464 *~ 1;
#X obj 128 128 cnv 10 30 30 empty empty empty 20 12 0 14 -33289 -66577
0;
#X obj 129 129 bng 28 250 50 0 empty empty ? 10 15 1 15 -1 -3707 -66577
;
#X obj 112 166 hsl 64 11 0 127 0 0 empty empty amp 20 5 1 9 -33289
-3707 -228856 4961 1;
#X obj 573 268 inlet~;
#X obj 104 104 cnv 10 10 10 empty empty in 0 5 1 9 -228856 -1 0;
#X obj 197 167 t b b b;
#N canvas 176 158 687 427 ModulacionDeAmplificacion 0;
#X obj 8 11 inlet~;
#X obj 9 226 *~;
#X obj 285 378 outlet~;
#X obj 52 11 inlet;
#X obj 88 11 inlet~;
#X obj 132 11 inlet;
#X obj 168 11 inlet~;
#X obj 212 11 inlet;
#X obj 248 11 inlet~;
#X obj 292 11 inlet;
#X obj 328 11 inlet~;
#X obj 372 11 inlet;
#X obj 408 11 inlet~;
#X obj 452 11 inlet;
#X obj 488 11 inlet~;
#X obj 532 11 inlet;
#X obj 568 11 inlet~;
#X obj 612 11 inlet;
#X obj 23 79 osc~;
#X obj 23 119 +~ 1;
#X obj 23 140 *~ 0.5;
#X obj 23 99 *~ 1;
#X obj 89 226 *~;
#X obj 103 79 osc~;
#X obj 103 119 +~ 1;
#X obj 103 140 *~ 0.5;
#X obj 103 99 *~ 1;
#X obj 169 226 *~;
#X obj 183 79 osc~;
#X obj 183 119 +~ 1;
#X obj 183 140 *~ 0.5;
#X obj 183 99 *~ 1;
#X obj 249 226 *~;
#X obj 263 79 osc~;
#X obj 263 119 +~ 1;
#X obj 263 140 *~ 0.5;
#X obj 263 99 *~ 1;
#X obj 329 226 *~;
#X obj 343 79 osc~;
#X obj 343 119 +~ 1;
#X obj 343 140 *~ 0.5;
#X obj 343 99 *~ 1;
#X obj 409 226 *~;
#X obj 423 79 osc~;
#X obj 423 119 +~ 1;
#X obj 423 140 *~ 0.5;
#X obj 423 99 *~ 1;
#X obj 489 226 *~;
#X obj 503 79 osc~;
#X obj 503 119 +~ 1;
#X obj 503 140 *~ 0.5;
#X obj 503 99 *~ 1;
#X obj 569 226 *~;
#X obj 583 79 osc~;
#X obj 583 119 +~ 1;
#X obj 583 140 *~ 0.5;
#X obj 583 99 *~ 1;
#X obj 23 59 / 510;
#X obj 103 59 / 510;
#X obj 183 59 / 510;
#X obj 263 59 / 510;
#X obj 343 59 / 510;
#X obj 423 59 / 510;
#X obj 503 59 / 510;
#X obj 583 59 / 510;
#X connect 0 0 1 0;
#X connect 1 0 2 0;
#X connect 3 0 57 0;
#X connect 4 0 22 0;
#X connect 5 0 58 0;
#X connect 6 0 27 0;
#X connect 7 0 59 0;
#X connect 8 0 32 0;
#X connect 9 0 60 0;
#X connect 10 0 37 0;
#X connect 11 0 61 0;
#X connect 12 0 42 0;
#X connect 13 0 62 0;
#X connect 14 0 47 0;
#X connect 15 0 63 0;
#X connect 16 0 52 0;
#X connect 17 0 64 0;
#X connect 18 0 21 0;
#X connect 19 0 20 0;
#X connect 20 0 1 1;
#X connect 21 0 19 0;
#X connect 22 0 2 0;
#X connect 23 0 26 0;
#X connect 24 0 25 0;
#X connect 25 0 22 1;
#X connect 26 0 24 0;
#X connect 27 0 2 0;
#X connect 28 0 31 0;
#X connect 29 0 30 0;
#X connect 30 0 27 1;
#X connect 31 0 29 0;
#X connect 32 0 2 0;
#X connect 33 0 36 0;
#X connect 34 0 35 0;
#X connect 35 0 32 1;
#X connect 36 0 34 0;
#X connect 37 0 2 0;
#X connect 38 0 41 0;
#X connect 39 0 40 0;
#X connect 40 0 37 1;
#X connect 41 0 39 0;
#X connect 42 0 2 0;
#X connect 43 0 46 0;
#X connect 44 0 45 0;
#X connect 45 0 42 1;
#X connect 46 0 44 0;
#X connect 47 0 2 0;
#X connect 48 0 51 0;
#X connect 49 0 50 0;
#X connect 50 0 47 1;
#X connect 51 0 49 0;
#X connect 52 0 2 0;
#X connect 53 0 56 0;
#X connect 54 0 55 0;
#X connect 55 0 52 1;
#X connect 56 0 54 0;
#X connect 57 0 18 0;
#X connect 58 0 23 0;
#X connect 59 0 28 0;
#X connect 60 0 33 0;
#X connect 61 0 38 0;
#X connect 62 0 43 0;
#X connect 63 0 48 0;
#X connect 64 0 53 0;
#X restore 635 514 pd ModulacionDeAmplificacion;
#X obj 133 46 t b b;
#X obj 765 29 inlet;
#X obj 154 104 cnv 6 10 10 empty empty gatein 0 5 1 9 -228856 -1 0
;
#X msg 822 566 0 \, 0.1 250;
#X obj 869 586 delay 250;
#X msg 832 606 0.5 100;
#X obj 762 686 clip~ -1 1;
#X connect 1 0 17 1;
#X connect 2 0 18 1;
#X connect 3 0 19 1;
#X connect 4 0 20 1;
#X connect 5 0 21 1;
#X connect 6 0 22 1;
#X connect 7 0 23 1;
#X connect 8 0 24 1;
#X connect 9 0 1 0;
#X connect 9 1 2 0;
#X connect 9 2 3 0;
#X connect 9 3 4 0;
#X connect 9 4 5 0;
#X connect 9 5 6 0;
#X connect 9 6 7 0;
#X connect 9 7 8 0;
#X connect 10 0 44 1;
#X connect 10 1 44 3;
#X connect 10 2 44 5;
#X connect 10 3 44 7;
#X connect 10 4 44 9;
#X connect 10 5 44 11;
#X connect 10 6 44 13;
#X connect 10 7 44 15;
#X connect 12 0 13 1;
#X connect 13 0 15 0;
#X connect 14 0 15 1;
#X connect 15 0 51 0;
#X connect 16 0 14 0;
#X connect 17 0 30 0;
#X connect 18 0 31 0;
#X connect 19 0 32 0;
#X connect 20 0 33 0;
#X connect 21 0 34 0;
#X connect 22 0 35 0;
#X connect 23 0 36 0;
#X connect 24 0 37 0;
#X connect 26 0 45 0;
#X connect 29 0 40 0;
#X connect 30 0 44 0;
#X connect 31 0 44 2;
#X connect 32 0 44 4;
#X connect 33 0 44 6;
#X connect 34 0 44 8;
#X connect 35 0 44 10;
#X connect 36 0 44 12;
#X connect 37 0 44 14;
#X connect 39 0 43 0;
#X connect 40 0 16 0;
#X connect 41 0 17 0;
#X connect 41 0 18 0;
#X connect 41 0 19 0;
#X connect 41 0 20 0;
#X connect 41 0 21 0;
#X connect 41 0 22 0;
#X connect 41 0 23 0;
#X connect 41 0 24 0;
#X connect 43 0 9 0;
#X connect 43 1 10 0;
#X connect 43 2 48 0;
#X connect 43 2 49 0;
#X connect 44 0 13 0;
#X connect 45 0 39 0;
#X connect 45 1 29 0;
#X connect 46 0 39 0;
#X connect 48 0 12 0;
#X connect 49 0 50 0;
#X connect 50 0 12 0;
#X connect 51 0 11 0;
#X coords 0 -1 1 1 86 112 2 100 100;
