#N canvas 0 54 1024 546 10;
#X obj 71 215 phasor~ 1;
#X floatatom 71 125 5 0 0 0 - - -, f 5;
#X obj 212 12 loadbang;
#X msg 185 124 0;
#X obj 156 215 phasor~ 1;
#X obj 156 163 + 0.2;
#X obj 266 215 phasor~ 1;
#X obj 376 215 phasor~ 1;
#X obj 266 163 + 0.3;
#X obj 376 163 + 0.5;
#X obj 213 75 random 4;
#X obj 213 97 sel 0 1 2 3;
#X obj 213 55 metro 200;
#X msg 212 33 1;
#X msg 225 124 0;
#X msg 265 124 0;
#X obj 71 237 hip~ 10000;
#X obj 156 237 hip~ 12000;
#X obj 266 237 hip~ 14000;
#X obj 376 237 hip~ 16000;
#X obj 507 278 / 64;
#X obj 804 166 random 18000;
#X obj 803 115 random 4;
#X obj 803 137 sel 0 1 2 3;
#X obj 803 95 metro 200;
#X obj 370 -47 snapshot~;
#X obj 749 245 hip~ 10000;
#X obj 248 -78 phasor~;
#X obj 414 22 pipe 700;
#X obj 404 2 pipe 500;
#X obj 394 -18 pipe 200;
#X obj 82 268 *~;
#X obj 156 259 *~;
#X obj 266 259 *~;
#X obj 376 259 *~;
#X obj 113 100 * 100;
#X obj 217 391 outlet~;
#X obj 227 305 clip~ -0.9 1;
#X obj 244 341 *~ 40;
#X obj 893 335 line~;
#X msg 574 376 0;
#X obj 403 376 threshold~ 0.8 50 0.7 50;
#X obj 893 250 f;
#X obj 923 250 f;
#X obj 893 272 pack f 1 f;
#X msg 893 294 \$1 \, \$2 \$3;
#X msg 418 352 set \$1 50 \$1 50;
#X obj 54 -60 inlet~;
#X obj 749 307 *~;
#X obj 403 398 t b b;
#X obj 687 135 noise~;
#X obj 687 157 *~ 0.008;
#X obj 804 188 moses 8000;
#X obj 758 277 bp~ 10000 4;
#X obj 503 103 cnv 15 116 106 empty empty empty 20 12 0 14 -3707 -66577
0;
#X obj 506 131 vsl 30 64 0 127 0 0 empty empty empty 0 -9 0 10 -66577
-3707 -1 1500 1;
#X obj 539 131 vsl 30 64 0 0.5 0 0 empty empty empty 0 -9 0 10 -66577
-4032 -1 3600 1;
#X obj 572 131 vsl 30 64 10 1000 0 0 empty empty empty 0 -9 0 10 -66577
-4032 -1 2200 1;
#X obj 549 200 cnv 8 8 8 empty empty lvl 0 5 1 9 -3707 -1 0;
#X obj 580 200 cnv 8 8 8 empty empty time 0 5 1 9 -3707 -1 0;
#X obj 509 200 cnv 8 8 8 empty empty factor 0 5 1 9 -3707 -1 0;
#X obj 605 139 vradio 10 1 0 4 empty empty empty 0 -8 0 10 -66577 -3707
-1 1;
#X obj 608 181 cnv 4 4 8 empty empty ? 0 5 1 9 -3707 -1 0;
#X obj 733 52 + 1;
#X obj 506 114 cnv 12 110 12 empty empty modGITCH 2 7 1 9 -66577 -3707
0;
#X obj 507 -6 inlet~ factor;
#X obj 507 16 *~ 2;
#X obj 80 182 +~;
#X obj 170 192 +~;
#X obj 280 192 +~;
#X obj 390 192 +~;
#X obj 893 363 +~;
#X obj 616 -7 inlet~ level;
#X obj 616 15 /~ 2;
#X obj 504 104 cnv 8 8 8 empty empty in~ 0 5 1 9 -3707 -1 0;
#X obj 540 104 cnv 8 8 8 empty empty cvFACT 0 5 1 9 -3707 -1 0;
#X obj 586 104 cnv 8 8 8 empty empty cvAMP 0 5 1 9 -3707 -1 0;
#X connect 0 0 16 0;
#X connect 1 0 5 0;
#X connect 1 0 8 0;
#X connect 1 0 9 0;
#X connect 1 0 27 0;
#X connect 1 0 35 0;
#X connect 1 0 67 0;
#X connect 2 0 13 0;
#X connect 2 0 46 0;
#X connect 3 0 4 1;
#X connect 4 0 17 0;
#X connect 5 0 68 0;
#X connect 6 0 18 0;
#X connect 7 0 19 0;
#X connect 8 0 69 0;
#X connect 9 0 70 0;
#X connect 10 0 11 0;
#X connect 11 0 3 0;
#X connect 11 1 14 0;
#X connect 11 2 15 0;
#X connect 12 0 10 0;
#X connect 12 0 25 0;
#X connect 13 0 12 0;
#X connect 13 0 24 0;
#X connect 13 0 61 0;
#X connect 14 0 6 1;
#X connect 15 0 7 1;
#X connect 16 0 31 0;
#X connect 17 0 32 0;
#X connect 18 0 33 0;
#X connect 19 0 34 0;
#X connect 20 0 1 0;
#X connect 21 0 52 0;
#X connect 22 0 23 0;
#X connect 23 0 21 0;
#X connect 24 0 22 0;
#X connect 25 0 28 0;
#X connect 25 0 29 0;
#X connect 25 0 30 0;
#X connect 25 0 31 1;
#X connect 26 0 53 0;
#X connect 27 0 25 0;
#X connect 28 0 34 1;
#X connect 29 0 33 1;
#X connect 30 0 32 1;
#X connect 31 0 37 0;
#X connect 31 0 41 0;
#X connect 32 0 37 0;
#X connect 33 0 37 0;
#X connect 34 0 37 0;
#X connect 35 0 12 1;
#X connect 35 0 24 1;
#X connect 37 0 38 0;
#X connect 38 0 36 0;
#X connect 39 0 71 0;
#X connect 40 0 41 1;
#X connect 41 0 49 0;
#X connect 41 1 40 0;
#X connect 42 0 44 0;
#X connect 43 0 44 2;
#X connect 44 0 45 0;
#X connect 45 0 39 0;
#X connect 46 0 41 0;
#X connect 47 0 26 0;
#X connect 48 0 38 0;
#X connect 49 0 42 0;
#X connect 49 1 43 0;
#X connect 50 0 51 0;
#X connect 51 0 26 0;
#X connect 52 1 26 1;
#X connect 52 1 53 1;
#X connect 53 0 48 0;
#X connect 55 0 20 0;
#X connect 56 0 42 1;
#X connect 57 0 43 1;
#X connect 61 0 63 0;
#X connect 63 0 22 1;
#X connect 65 0 66 0;
#X connect 66 0 67 1;
#X connect 66 0 68 1;
#X connect 66 0 69 1;
#X connect 66 0 70 1;
#X connect 67 0 0 0;
#X connect 68 0 4 0;
#X connect 69 0 6 0;
#X connect 70 0 7 0;
#X connect 71 0 48 1;
#X connect 72 0 73 0;
#X connect 73 0 71 1;
#X coords 0 -1 1 1 122 112 2 500 100;
