#N canvas 0 54 1024 546 10;
#X obj 103 103 cnv 15 102 106 empty empty empty 20 12 0 14 -3707 -66577
0;
#X obj 104 131 cnv 8 24 8 empty empty delay 2 4 1 9 -3707 -1 0;
#X obj 132 131 cnv 8 22 8 empty empty feedback 2 4 1 9 -3707 -1 0;
#X obj 105 115 cnv 12 97 12 empty empty modJETONE 2 7 1 9 -66577 -3707
0;
#X obj 191 116 tgl 10 0 empty empty on -12 5 1 9 -3707 -1 -3707 1 1
;
#X obj 421 278 vd~ \$0mndf;
#X floatatom 105 141 4 1 127 0 - - -, f 4;
#X obj 436 228 delwrite~ \$0mndf 2;
#X obj 576 320 / 127;
#X obj 136 141 hsl 64 14 0 127 0 0 empty empty empty -2 -8 0 10 -66577
-3707 -1 0 1;
#X obj 462 41 inlet~;
#X obj 786 330 / 127;
#X floatatom 105 158 4 1 127 0 - - -, f 4;
#X obj 646 228 delwrite~ \$0mndf2 3;
#X obj 644 265 vd~ \$0mndf2;
#X obj 996 330 / 127;
#X obj 856 228 delwrite~ \$0mndf3 4;
#X obj 854 265 vd~ \$0mndf3;
#X floatatom 105 175 4 1 127 0 - - -, f 4;
#X obj 976 170 / 127;
#X obj 834 125 vd~ \$0mndf4;
#X obj 836 88 delwrite~ \$0mndf4 5;
#X floatatom 105 192 4 1 127 0 - - -, f 4;
#X obj 136 158 hsl 64 14 0 127 0 0 empty empty empty -2 -8 0 10 -66577
-3707 -1 0 1;
#X obj 136 175 hsl 64 14 0 127 0 0 empty empty empty -2 -8 0 10 -66577
-3707 -1 0 1;
#X obj 136 192 hsl 64 14 0 127 0 0 empty empty empty -2 -8 0 10 -66577
-3707 -1 0 1;
#X obj 775 470 *~;
#X obj 843 469 *~;
#X obj 380 398 t f f;
#X msg 377 422 1;
#X msg 407 422 0;
#X obj 460 398 t f f;
#X msg 457 422 1;
#X msg 487 422 0;
#X obj 400 359 sel 1;
#X obj 191 35 loadbang;
#X msg 191 57 1;
#X obj 793 503 outlet~;
#X msg 582 340 \$1 20;
#X obj 587 361 line~;
#X obj 584 388 +~;
#X obj 523 380 *~;
#X obj 522 19 inlet~ cvAMP1;
#X obj 733 330 *~;
#X msg 786 350 \$1 20;
#X obj 791 371 line~;
#X obj 788 398 +~;
#X obj 612 19 inlet~ cvAMP2;
#X obj 943 330 *~;
#X msg 996 350 \$1 20;
#X obj 1001 371 line~;
#X obj 998 398 +~;
#X obj 702 19 inlet~ cvAMP3;
#X obj 923 190 *~;
#X msg 976 190 \$1 20;
#X obj 981 211 line~;
#X obj 978 238 +~;
#X obj 792 19 inlet~ cvAMP4;
#X obj 104 103 cnv 8 8 8 empty empty in~ 2 4 1 9 -3707 -1 0;
#X obj 123 103 cnv 8 8 8 empty empty cv1 2 4 1 9 -3707 -1 0;
#X obj 144 103 cnv 8 8 8 empty empty cv2 2 4 1 9 -3707 -1 0;
#X obj 165 103 cnv 8 8 8 empty empty cv3 2 4 1 9 -3707 -1 0;
#X obj 186 103 cnv 8 8 8 empty empty cv4 2 4 1 9 -3707 -1 0;
#X obj 153 274 expr 44100/$f1;
#X obj 153 252 mtof;
#X obj 153 324 expr 44100/$f1;
#X obj 153 302 mtof;
#X obj 153 374 expr 44100/$f1;
#X obj 153 352 mtof;
#X obj 153 424 expr 44100/$f1;
#X obj 153 402 mtof;
#X msg 230 58 60;
#X msg 259 58 62;
#X msg 289 58 63;
#X msg 319 58 67;
#X connect 4 0 34 0;
#X connect 5 0 26 0;
#X connect 5 0 41 0;
#X connect 6 0 64 0;
#X connect 8 0 38 0;
#X connect 9 0 8 0;
#X connect 10 0 7 0;
#X connect 10 0 13 0;
#X connect 10 0 16 0;
#X connect 10 0 21 0;
#X connect 10 0 27 0;
#X connect 11 0 44 0;
#X connect 12 0 66 0;
#X connect 14 0 26 0;
#X connect 14 0 43 0;
#X connect 15 0 49 0;
#X connect 17 0 48 0;
#X connect 18 0 68 0;
#X connect 19 0 54 0;
#X connect 20 0 53 0;
#X connect 22 0 70 0;
#X connect 23 0 11 0;
#X connect 24 0 15 0;
#X connect 25 0 19 0;
#X connect 26 0 37 0;
#X connect 27 0 37 0;
#X connect 28 0 29 0;
#X connect 28 1 30 0;
#X connect 29 0 26 1;
#X connect 30 0 27 1;
#X connect 31 0 32 0;
#X connect 31 1 33 0;
#X connect 32 0 27 1;
#X connect 33 0 26 1;
#X connect 34 0 28 0;
#X connect 34 1 31 0;
#X connect 35 0 36 0;
#X connect 35 0 71 0;
#X connect 35 0 72 0;
#X connect 35 0 73 0;
#X connect 35 0 74 0;
#X connect 36 0 4 0;
#X connect 38 0 39 0;
#X connect 39 0 40 0;
#X connect 40 0 41 1;
#X connect 41 0 7 0;
#X connect 42 0 40 1;
#X connect 43 0 13 0;
#X connect 44 0 45 0;
#X connect 45 0 46 0;
#X connect 46 0 43 1;
#X connect 47 0 46 1;
#X connect 48 0 16 0;
#X connect 48 0 26 0;
#X connect 49 0 50 0;
#X connect 50 0 51 0;
#X connect 51 0 48 1;
#X connect 52 0 51 1;
#X connect 53 0 21 0;
#X connect 53 0 26 0;
#X connect 54 0 55 0;
#X connect 55 0 56 0;
#X connect 56 0 53 1;
#X connect 57 0 56 1;
#X connect 63 0 5 0;
#X connect 64 0 63 0;
#X connect 65 0 14 0;
#X connect 66 0 65 0;
#X connect 67 0 17 0;
#X connect 68 0 67 0;
#X connect 69 0 20 0;
#X connect 70 0 69 0;
#X connect 71 0 6 0;
#X connect 72 0 12 0;
#X connect 73 0 18 0;
#X connect 74 0 22 0;
#X coords 0 -1 1 1 108 112 2 100 100;
