#N canvas 0 54 1024 546 10;
#X obj 103 103 cnv 15 101 106 empty empty empty 20 12 0 14 -3707 -66577
0;
#X obj 105 132 vsl 30 64 0 127 0 0 empty empty empty 0 -9 0 10 -66577
-3707 -1 4075 1;
#X obj 137 132 vsl 15 64 1 64 0 0 empty empty empty 0 -9 0 10 -66577
-3707 -1 900 1;
#X obj 171 132 vsl 30 64 0 127 0 0 empty empty empty 0 -9 0 10 -66577
-3707 -1 5361 1;
#X obj 106 201 cnv 8 24 8 empty empty cutoff 2 4 1 9 -3707 -1 0;
#X obj 136 201 cnv 8 22 8 empty empty res 2 4 1 9 -3707 -1 0;
#X obj 175 201 cnv 8 10 8 empty empty amp 2 4 1 9 -3707 -1 0;
#X obj 105 115 cnv 12 96 12 empty empty modPASS 2 7 1 9 -66577 -3707
0;
#X obj 190 116 tgl 10 0 empty empty on -12 5 1 9 -3707 -1 -3707 1 1
;
#X obj 103 104 cnv 8 8 8 empty empty ~in 2 4 1 9 -3707 -1 0;
#X obj 165 104 cnv 8 8 8 empty empty cvFREQ 2 4 1 9 -3707 -1 0;
#X obj 291 11 inlet~;
#X obj 291 33 vcf~;
#X obj 291 55 vcf~;
#X obj 291 77 vcf~;
#X obj 291 99 vcf~;
#X obj 291 121 vcf~;
#X obj 296 340 outlet~;
#X obj 435 156 mtof;
#X msg 435 178 \$1 20;
#X obj 435 200 line~;
#X obj 560 287 i;
#X obj 560 309 + 1;
#X obj 299 154 *~;
#X msg 249 182 \$1 20;
#X obj 249 204 line~;
#X obj 454 9 inlet~ MODCUTOFF;
#X obj 455 52 *~;
#X msg 485 36 \$1 20;
#X obj 485 58 line~;
#X obj 154 222 pow 2;
#X obj 435 220 +~;
#X obj 249 160 / 32;
#X obj 67 30 loadbang;
#X msg 67 53 1;
#X obj 218 297 *~;
#X obj 258 297 *~;
#X obj 175 -28 sel 0 1;
#X msg 156 -2 1 0;
#X msg 186 -2 1 0;
#X obj 131 23 unpack f f;
#X obj 210 23 unpack f f;
#X obj 560 265 / 6.4;
#X obj 154 132 vsl 15 64 0 127 0 0 empty empty empty 0 -9 0 10 -66577
-3707 -1 2600 1;
#X obj 152 201 cnv 8 10 8 empty empty mod 2 4 1 9 -3707 -1 0;
#X msg 97 53 100;
#X msg 128 53 64;
#X msg 158 53 10;
#X connect 1 0 18 0;
#X connect 2 0 42 0;
#X connect 3 0 32 0;
#X connect 8 0 37 0;
#X connect 11 0 12 0;
#X connect 11 0 35 0;
#X connect 12 0 13 0;
#X connect 13 0 14 0;
#X connect 14 0 15 0;
#X connect 15 0 16 0;
#X connect 16 0 23 0;
#X connect 18 0 19 0;
#X connect 19 0 20 0;
#X connect 20 0 31 0;
#X connect 21 0 22 0;
#X connect 22 0 12 2;
#X connect 22 0 13 2;
#X connect 22 0 14 2;
#X connect 22 0 15 2;
#X connect 22 0 16 2;
#X connect 23 0 36 0;
#X connect 24 0 25 0;
#X connect 25 0 23 1;
#X connect 26 0 27 0;
#X connect 27 0 31 1;
#X connect 28 0 29 0;
#X connect 29 0 27 1;
#X connect 30 0 28 0;
#X connect 31 0 12 1;
#X connect 31 0 13 1;
#X connect 31 0 14 1;
#X connect 31 0 15 1;
#X connect 31 0 16 1;
#X connect 32 0 24 0;
#X connect 33 0 34 0;
#X connect 33 0 45 0;
#X connect 33 0 46 0;
#X connect 33 0 47 0;
#X connect 34 0 8 0;
#X connect 35 0 17 0;
#X connect 36 0 17 0;
#X connect 37 0 38 0;
#X connect 37 1 39 0;
#X connect 38 0 40 0;
#X connect 39 0 41 0;
#X connect 40 0 35 1;
#X connect 40 1 36 1;
#X connect 41 0 36 1;
#X connect 41 1 35 1;
#X connect 42 0 21 0;
#X connect 43 0 30 0;
#X connect 45 0 3 0;
#X connect 46 0 1 0;
#X connect 47 0 2 0;
#X coords 0 -1 1 1 106 112 2 100 100;
