#N canvas 0 54 1024 546 10;
#X obj 104 104 cnv 15 125 104 empty empty empty 20 12 0 14 -1 -66577
0;
#X obj 398 225 osc~;
#X obj 398 247 *~ 50;
#X obj 398 269 clip~ -1 1;
#X obj 398 291 *~;
#X obj 538 225 osc~;
#X obj 538 247 *~ 50;
#X obj 538 269 clip~ -1 1;
#X obj 538 291 *~;
#X obj 472 343 +~;
#X msg 724 103 0;
#X obj 678 195 osc~;
#X obj 678 217 *~ 50;
#X obj 678 239 clip~ -1 1;
#X obj 678 261 *~;
#X obj 818 195 osc~;
#X obj 818 217 *~ 50;
#X obj 818 239 clip~ -1 1;
#X obj 818 261 *~;
#X obj 752 313 +~;
#X obj 622 383 +~;
#X obj 598 44 t b;
#X obj 469 248 / 63;
#X obj 609 248 / 63;
#X obj 749 218 / 63;
#X obj 889 218 / 63;
#X obj 832 415 clip~ -1 1;
#X obj 598 24 expr (60000/$f1);
#X obj 349 66 expr (1000/$f1);
#X obj 489 66 expr (1000/$f1)/2;
#X obj 629 66 expr (1000/$f1)/4;
#X obj 769 66 expr (1000/$f1)/8;
#X obj 856 551 outlet~;
#X obj 744 9 inlet gatephase;
#X obj 153 6 loadbang;
#X msg 183 28 101;
#X msg 155 29 20;
#X obj 111 126 cnv 15 68 71 empty empty empty 20 12 0 14 -3707 -66577
0;
#X obj 112 129 vsl 15 64 0 63 0 0 empty empty empty 0 -9 0 10 -1 -3707
-1 2900 1;
#X obj 129 129 vsl 15 64 0 63 0 0 empty empty empty 0 -9 0 10 -1 -3707
-1 1500 1;
#X obj 146 129 vsl 15 64 0 63 0 0 empty empty empty 0 -9 0 10 -1 -3707
-1 2200 1;
#X obj 163 129 vsl 15 64 0 63 0 0 empty empty empty 0 -9 0 10 -1 -3707
-1 600 1;
#X obj 187 110 cnv 15 34 87 empty empty empty 20 12 0 14 -3707 -66577
0;
#X obj 188 129 vsl 15 64 1 64 0 0 empty empty empty 0 -9 0 10 -1 -3707
-1 6300 1;
#X msg 214 28 64;
#X obj 205 129 vsl 15 64 1 64 0 0 empty empty empty 0 -9 0 10 -1 -3707
-1 400 1;
#X obj 834 488 *~;
#X obj 860 469 line~;
#X msg 860 447 \$1 20;
#X floatatom 188 111 3 1 999 0 - - -, f 3;
#X obj 188 198 cnv 8 10 10 empty empty ang 0 5 1 9 -1 -3707 0;
#X obj 206 198 cnv 8 10 10 empty empty amp 0 5 1 9 -1 -3707 0;
#X obj 161 114 cnv 8 10 10 empty empty bpm> 0 5 1 9 -1 -3707 0;
#X obj 111 114 cnv 8 10 10 empty empty MODREST 0 5 1 9 -1 -3707 0;
#X obj 105 104 cnv 8 10 10 empty empty sync 0 5 1 9 -1 -3707 0;
#X obj 210 113 bng 10 250 50 0 empty empty empty 17 7 0 10 -1 -3707
-1;
#X connect 1 0 2 0;
#X connect 2 0 3 0;
#X connect 3 0 4 0;
#X connect 4 0 9 0;
#X connect 5 0 6 0;
#X connect 6 0 7 0;
#X connect 7 0 8 0;
#X connect 8 0 9 1;
#X connect 9 0 20 0;
#X connect 10 0 1 1;
#X connect 10 0 5 1;
#X connect 10 0 11 1;
#X connect 10 0 15 1;
#X connect 11 0 12 0;
#X connect 12 0 13 0;
#X connect 13 0 14 0;
#X connect 14 0 19 0;
#X connect 15 0 16 0;
#X connect 16 0 17 0;
#X connect 17 0 18 0;
#X connect 18 0 19 1;
#X connect 19 0 20 1;
#X connect 20 0 26 0;
#X connect 21 0 10 0;
#X connect 22 0 4 1;
#X connect 23 0 8 1;
#X connect 24 0 14 1;
#X connect 25 0 18 1;
#X connect 26 0 46 0;
#X connect 27 0 21 0;
#X connect 27 0 28 0;
#X connect 27 0 29 0;
#X connect 27 0 30 0;
#X connect 27 0 31 0;
#X connect 28 0 1 0;
#X connect 29 0 5 0;
#X connect 30 0 11 0;
#X connect 31 0 15 0;
#X connect 33 0 10 0;
#X connect 33 0 55 0;
#X connect 34 0 35 0;
#X connect 34 0 44 0;
#X connect 34 0 36 0;
#X connect 35 0 49 0;
#X connect 36 0 39 0;
#X connect 38 0 22 0;
#X connect 39 0 23 0;
#X connect 40 0 24 0;
#X connect 41 0 25 0;
#X connect 43 0 2 1;
#X connect 43 0 6 1;
#X connect 43 0 12 1;
#X connect 43 0 16 1;
#X connect 44 0 43 0;
#X connect 45 0 48 0;
#X connect 46 0 32 0;
#X connect 47 0 46 1;
#X connect 48 0 47 0;
#X connect 49 0 27 0;
#X coords 0 -1 1 1 133 112 2 100 100;
