#N canvas 256 151 759 436 10;
#X obj 103 103 cnv 15 99 106 empty empty empty 20 12 0 14 -3707 -66577
0;
#X obj 284 0 inlet~;
#X obj 281 109 *~;
#X obj 316 89 *~;
#X obj 355 88 line~;
#X msg 355 67 \$1 20;
#X obj 355 47 / 127;
#X obj 315 55 osc~;
#X obj 266 162 outlet~;
#X obj 162 365 * 1;
#X obj 197 265 / 12;
#X obj 134 33 loadbang;
#X obj 204 327 t b f;
#X msg 131 69 127;
#X obj 105 132 vsl 30 64 0 127 0 0 empty empty empty 0 -9 0 10 -66577
-3707 -1 6300 1;
#X obj 137 132 vsl 30 64 1 120 0 0 empty empty empty 0 -9 0 10 -66577
-3707 -1 0 1;
#X obj 169 132 vsl 30 64 1 120 0 0 empty empty empty 0 -9 0 10 -66577
-3707 -1 0 1;
#X obj 108 201 cnv 8 24 8 empty empty amp 2 4 1 9 -3707 -1 0;
#X obj 143 201 cnv 8 24 8 empty empty rate 2 4 1 9 -3707 -1 0;
#X obj 172 201 cnv 8 26 8 empty empty multi 2 4 1 9 -3707 -1 0;
#X obj 105 115 cnv 12 94 12 empty empty modRING 2 7 1 9 -66577 -3707
0;
#X obj 188 116 tgl 10 0 empty empty on -12 5 1 9 -3707 -1 -3707 1 1
;
#X msg 417 52 1;
#X obj 648 117 *~;
#X obj 240 67 *~;
#X obj 605 2 sel 0 1;
#X msg 586 28 1 0;
#X msg 616 28 1 0;
#X obj 561 53 unpack f f;
#X obj 640 53 unpack f f;
#X obj 350 116 +~;
#X obj 392 -23 inlet~ modAMP;
#X obj 486 -24 inlet~ modRATE;
#X obj 313 36 +~;
#X obj 486 -2 *~ 120;
#X obj 104 105 cnv 8 8 8 empty empty in~ 2 4 1 9 -3707 -1 0;
#X obj 128 105 cnv 8 8 8 empty empty cvAMP 2 4 1 9 -3707 -1 0;
#X obj 162 105 cnv 8 8 8 empty empty cvRATE 2 4 1 9 -3707 -1 0;
#X connect 1 0 23 0;
#X connect 1 0 24 0;
#X connect 2 0 8 0;
#X connect 3 0 2 1;
#X connect 4 0 30 0;
#X connect 5 0 4 0;
#X connect 6 0 5 0;
#X connect 7 0 3 0;
#X connect 9 0 33 0;
#X connect 10 0 12 0;
#X connect 11 0 13 0;
#X connect 11 0 22 0;
#X connect 12 0 15 0;
#X connect 12 1 9 1;
#X connect 13 0 14 0;
#X connect 14 0 6 0;
#X connect 15 0 9 0;
#X connect 16 0 10 0;
#X connect 21 0 25 0;
#X connect 22 0 21 0;
#X connect 23 0 8 0;
#X connect 24 0 2 0;
#X connect 25 0 26 0;
#X connect 25 1 27 0;
#X connect 26 0 28 0;
#X connect 27 0 29 0;
#X connect 28 0 23 1;
#X connect 28 1 24 1;
#X connect 29 0 24 1;
#X connect 29 1 23 1;
#X connect 30 0 3 1;
#X connect 31 0 30 1;
#X connect 32 0 34 0;
#X connect 33 0 7 0;
#X connect 34 0 33 1;
#X coords 0 -1 1 1 104 112 2 100 100;
