#N canvas 0 54 1024 546 10;
#X obj 388 304 clip~ -1 0;
#X obj 388 326 *~;
#X obj 475 304 osc~;
#X obj 475 326 *~;
#X obj 512 326 line~;
#X msg 512 304 \$1 20;
#X obj 520 280 / 127;
#X obj 388 354 clip~ -1 0;
#X obj 105 252 inlet~;
#X obj 456 240 * 100;
#X obj 237 472 outlet~;
#X obj 106 336 *~;
#X obj 173 336 *~;
#X obj 230 336 line~;
#X msg 230 314 \$1 20;
#X obj 238 290 / 127;
#X obj 106 314 clip~ 0 1;
#X obj 106 364 clip~ 0 1;
#X obj 284 290 * 10;
#X obj 173 314 osc~;
#X obj 103 103 cnv 15 101 106 empty empty empty 20 12 0 14 -3707 -66577
0;
#X obj 105 132 vsl 30 64 0 127 0 0 empty empty freq 7 50 1 9 -66577
-3707 -3707 2500 1;
#X obj 137 132 vsl 15 64 1 128 0 0 empty empty a 5 50 1 9 -66577 -3707
-3707 4200 1;
#X obj 171 132 vsl 30 64 0 127 0 0 empty empty freq 7 50 1 9 -66577
-3707 -3707 2600 1;
#X obj 111 201 cnv 8 24 8 empty empty +phase 2 4 1 9 -3707 -1 0;
#X obj 105 115 cnv 12 96 12 empty empty modR2 2 7 1 9 -66577 -3707
0;
#X obj 190 116 tgl 10 0 empty empty on -12 5 1 9 -3707 -1 -3707 1 1
;
#X obj 103 104 cnv 8 8 8 empty empty ~in 2 4 1 9 -3707 -1 0;
#X obj 129 104 cnv 8 8 8 empty empty cvFRQ1 2 4 1 9 -3707 -1 0;
#X obj 154 132 vsl 15 64 1 128 0 0 empty empty a 5 50 1 9 -66577 -3707
-3707 6200 1;
#X obj 160 201 cnv 8 24 8 empty empty --phase 2 4 1 9 -3707 -1 0;
#X obj 295 53 inlet~ MOD1;
#X obj 375 53 inlet~ MOD2;
#X obj 218 437 *~;
#X obj 258 437 *~;
#X obj 175 22 sel 0 1;
#X msg 156 48 1 0;
#X msg 186 48 1 0;
#X obj 131 73 unpack f f;
#X obj 210 73 unpack f f;
#X obj 18 22 loadbang;
#X msg 19 47 1;
#X obj 166 104 cnv 8 8 8 empty empty cvFRQ2 2 4 1 9 -3707 -1 0;
#X msg 54 47 128;
#X msg 84 47 64;
#X obj 171 292 +~;
#X obj 475 279 +~;
#X obj 375 75 *~ 10000;
#X obj 295 75 *~ 1000;
#X connect 0 0 1 0;
#X connect 1 0 7 0;
#X connect 2 0 3 0;
#X connect 3 0 1 1;
#X connect 4 0 3 1;
#X connect 5 0 4 0;
#X connect 6 0 5 0;
#X connect 7 0 34 0;
#X connect 8 0 0 0;
#X connect 8 0 16 0;
#X connect 8 0 33 0;
#X connect 9 0 46 0;
#X connect 11 0 17 0;
#X connect 12 0 11 1;
#X connect 13 0 12 1;
#X connect 14 0 13 0;
#X connect 15 0 14 0;
#X connect 16 0 11 0;
#X connect 17 0 34 0;
#X connect 19 0 12 0;
#X connect 21 0 45 0;
#X connect 22 0 15 0;
#X connect 23 0 9 0;
#X connect 26 0 35 0;
#X connect 29 0 6 0;
#X connect 31 0 48 0;
#X connect 32 0 47 0;
#X connect 33 0 10 0;
#X connect 34 0 10 0;
#X connect 35 0 36 0;
#X connect 35 1 37 0;
#X connect 36 0 38 0;
#X connect 37 0 39 0;
#X connect 38 0 33 1;
#X connect 38 1 34 1;
#X connect 39 0 34 1;
#X connect 39 1 33 1;
#X connect 40 0 41 0;
#X connect 40 0 43 0;
#X connect 40 0 44 0;
#X connect 41 0 26 0;
#X connect 43 0 29 0;
#X connect 44 0 22 0;
#X connect 45 0 19 0;
#X connect 46 0 2 0;
#X connect 47 0 46 1;
#X connect 48 0 45 1;
#X coords 0 -1 1 1 107 112 2 100 100;
