#N canvas 0 54 1024 546 10;
#X obj 103 103 cnv 15 67 106 empty empty empty 20 12 0 14 -3707 -66577
0;
#X obj 307 48 inlet~;
#X obj 280 164 *~;
#X obj 281 238 outlet~;
#X obj 355 75 osc~;
#X obj 355 119 +~ 1;
#X obj 356 146 *~ 0.5;
#X obj 426 118 line~;
#X obj 355 97 *~;
#X msg 426 94 \$1 20;
#X obj 105 132 vsl 30 64 0 127 0 0 empty empty empty 0 -9 0 10 -66577
-3707 -1 0 1;
#X obj 426 72 / 127;
#X obj 137 132 vsl 30 64 1 20 0 0 empty empty empty 0 -9 0 10 -66577
-3707 -1 0 1;
#X obj 108 201 cnv 8 24 8 empty empty amp 2 4 1 9 -3707 -1 0;
#X obj 141 201 cnv 8 24 8 empty empty rate 2 4 1 9 -3707 -1 0;
#X obj 105 115 cnv 12 62 12 empty empty tremolo 2 7 1 9 -66577 -3707
0;
#X obj 156 116 tgl 10 0 empty empty on -12 5 1 9 -3707 -1 -3707 1 1
;
#X obj 107 30 loadbang;
#X msg 107 52 1;
#X obj 258 87 *~;
#X obj 298 87 *~;
#X obj 215 -28 sel 0 1;
#X msg 196 -2 1 0;
#X msg 226 -2 1 0;
#X obj 171 23 unpack f f;
#X obj 250 23 unpack f f;
#X obj 427 -15 inlet~ modAMP;
#X obj 523 -15 inlet~ modRATE;
#X obj 426 142 +~;
#X obj 362 56 +~;
#X obj 523 7 *~ 20;
#X obj 104 105 cnv 8 8 8 empty empty in~ 2 4 1 9 -3707 -1 0;
#X obj 125 105 cnv 8 8 8 empty empty cvA 2 4 1 9 -3707 -1 0;
#X obj 149 105 cnv 8 8 8 empty empty cvR 2 4 1 9 -3707 -1 0;
#X connect 1 0 19 0;
#X connect 1 0 20 0;
#X connect 2 0 3 0;
#X connect 4 0 8 0;
#X connect 5 0 6 0;
#X connect 6 0 2 1;
#X connect 7 0 28 0;
#X connect 8 0 5 0;
#X connect 9 0 7 0;
#X connect 10 0 11 0;
#X connect 11 0 9 0;
#X connect 12 0 29 0;
#X connect 16 0 21 0;
#X connect 17 0 18 0;
#X connect 18 0 16 0;
#X connect 19 0 3 0;
#X connect 20 0 2 0;
#X connect 21 0 22 0;
#X connect 21 1 23 0;
#X connect 22 0 24 0;
#X connect 23 0 25 0;
#X connect 24 0 19 1;
#X connect 24 1 20 1;
#X connect 25 0 20 1;
#X connect 25 1 19 1;
#X connect 26 0 28 1;
#X connect 27 0 30 0;
#X connect 28 0 8 1;
#X connect 29 0 4 0;
#X connect 30 0 29 1;
#X coords 0 -1 1 1 72 112 2 100 100;
