#N canvas 42 141 671 409 10;
#X obj 103 103 cnv 15 99 106 empty empty empty 20 12 0 14 -3707 -66577
0;
#X obj 105 115 cnv 12 94 12 empty empty modTRASH 2 7 1 9 -66577 -3707
0;
#X obj 107 199 cnv 8 24 8 empty empty drive 2 6 1 9 -3707 -1 0;
#X obj 354 85 clip~ -0.2 0.2;
#X obj 355 -39 inlet~;
#X obj 105 132 vsl 30 64 0 127 0 0 empty empty empty 0 -9 0 10 -66577
-3707 -1 0 1;
#X msg 418 -5 \$1 20;
#X obj 418 16 line~;
#X obj 355 56 *~;
#X obj 355 33 *~ 1;
#X obj 355 184 *~;
#X obj 169 132 vsl 30 64 0 127 0 0 empty empty empty 0 -9 0 10 -66577
-3707 -1 6300 1;
#X msg 418 135 \$1 20;
#X obj 418 156 line~;
#X obj 419 113 / 64;
#X obj 355 248 outlet~;
#X obj 137 132 vsl 30 21 0 20 0 0 empty empty empty 0 -9 0 10 -66577
-3707 -1 2000 1;
#X obj 137 175 vsl 30 21 -20 0 0 0 empty empty empty 0 -9 0 10 -66577
-3707 -1 0 1;
#X obj 244 159 / 20;
#X obj 284 159 / 20;
#X obj 356 222 clip~ -1 1;
#X obj 100 20 loadbang;
#X msg 100 42 2;
#X msg 144 42 127;
#X obj 140 160 cnv 8 24 8 empty empty limit 2 6 1 9 -3707 -1 0;
#X obj 175 201 cnv 6 24 6 empty empty out 2 4 1 9 -3707 -1 0;
#X obj 188 116 tgl 10 0 empty empty on -12 5 1 9 -3707 -1 -3707 1 1
;
#X msg 181 42 1;
#X obj 258 27 *~;
#X obj 355 10 *~;
#X obj 215 -88 sel 0 1;
#X msg 196 -62 1 0;
#X msg 226 -62 1 0;
#X obj 171 -37 unpack f f;
#X obj 250 -37 unpack f f;
#X obj 415 40 +~;
#X obj 473 -70 inlet~ modDRIVE;
#X obj 570 -70 inlet~ modOUT;
#X obj 570 -48 *~ 64;
#X obj 417 180 +~;
#X obj 104 104 cnv 8 8 8 empty empty in~ 2 6 1 9 -3707 -1 0;
#X obj 125 104 cnv 8 8 8 empty empty cvDRIVE 2 6 1 9 -3707 -1 0;
#X obj 167 104 cnv 8 8 8 empty empty cvAMP 2 6 1 9 -3707 -1 0;
#X obj 473 -48 *~ 10;
#X connect 3 0 10 0;
#X connect 4 0 28 0;
#X connect 4 0 29 0;
#X connect 5 0 6 0;
#X connect 6 0 7 0;
#X connect 7 0 35 0;
#X connect 8 0 3 0;
#X connect 9 0 8 0;
#X connect 10 0 20 0;
#X connect 11 0 14 0;
#X connect 12 0 13 0;
#X connect 13 0 39 0;
#X connect 14 0 12 0;
#X connect 16 0 18 0;
#X connect 17 0 19 0;
#X connect 18 0 3 2;
#X connect 19 0 3 1;
#X connect 20 0 15 0;
#X connect 21 0 22 0;
#X connect 21 0 23 0;
#X connect 21 0 27 0;
#X connect 22 0 5 0;
#X connect 23 0 11 0;
#X connect 26 0 30 0;
#X connect 27 0 26 0;
#X connect 28 0 15 0;
#X connect 29 0 9 0;
#X connect 30 0 31 0;
#X connect 30 1 32 0;
#X connect 31 0 33 0;
#X connect 32 0 34 0;
#X connect 33 0 28 1;
#X connect 33 1 29 1;
#X connect 34 0 29 1;
#X connect 34 1 28 1;
#X connect 35 0 8 1;
#X connect 36 0 43 0;
#X connect 37 0 38 0;
#X connect 38 0 39 1;
#X connect 39 0 10 1;
#X connect 43 0 35 1;
#X coords 0 -1 1 1 104 112 2 100 100;
