#N canvas 0 54 1024 546 10;
#X obj 104 104 cnv 15 252 104 empty empty empty 20 12 0 14 -1 -66577
0;
#X obj 142 110 cnv 15 160 71 empty empty empty 20 12 0 14 -3707 -66577
0;
#X obj 143 113 vsl 8 64 0 127 0 0 empty empty empty 0 -9 0 10 -1 -3707
-1 496 1;
#X obj 153 113 vsl 8 64 0 127 0 0 empty empty empty 0 -9 0 10 -1 -3707
-1 3125 1;
#X obj 163 113 vsl 8 64 0 127 0 0 empty empty empty 0 -9 0 10 -1 -3707
-1 992 1;
#X obj 173 113 vsl 8 64 0 127 0 0 empty empty empty 0 -9 0 10 -1 -3707
-1 3125 1;
#X obj 183 113 vsl 8 64 0 127 0 0 empty empty empty 0 -9 0 10 -1 -3707
-1 1488 1;
#X obj 193 113 vsl 8 64 0 127 0 0 empty empty empty 0 -9 0 10 -1 -3707
-1 3125 1;
#X obj 203 113 vsl 8 64 0 127 0 0 empty empty empty 0 -9 0 10 -1 -3707
-1 1984 1;
#X obj 213 113 vsl 8 64 0 127 0 0 empty empty empty 0 -9 0 10 -1 -3707
-1 3125 1;
#X obj 223 113 vsl 8 64 0 127 0 0 empty empty empty 0 -9 0 10 -1 -3707
-1 3969 1;
#X obj 233 113 vsl 8 64 0 127 0 0 empty empty empty 0 -9 0 10 -1 -3707
-1 3125 1;
#X obj 243 113 vsl 8 64 0 127 0 0 empty empty empty 0 -9 0 10 -1 -3707
-1 4465 1;
#X obj 253 113 vsl 8 64 0 127 0 0 empty empty empty 0 -9 0 10 -1 -3707
-1 3125 1;
#X obj 263 113 vsl 8 64 0 127 0 0 empty empty empty 0 -9 0 10 -1 -3707
-1 4961 1;
#X obj 273 113 vsl 8 64 0 127 0 0 empty empty empty 0 -9 0 10 -1 -3707
-1 3125 1;
#X obj 283 113 vsl 8 64 0 127 0 0 empty empty empty 0 -9 0 10 -1 -3707
-1 5457 1;
#X obj 293 113 vsl 8 64 0 127 0 0 empty empty empty 0 -9 0 10 -1 -3707
-1 3125 1;
#X obj 142 183 bng 10 100 50 0 empty empty empty 17 7 0 10 -1 -3707
-1;
#X obj 152 183 bng 10 100 50 0 empty empty empty 17 7 0 10 -1 -3707
-1;
#X obj 162 183 bng 10 100 50 0 empty empty empty 17 7 0 10 -1 -3707
-1;
#X obj 172 183 bng 10 100 50 0 empty empty empty 17 7 0 10 -1 -3707
-1;
#X obj 182 183 bng 10 100 50 0 empty empty empty 17 7 0 10 -1 -3707
-1;
#X obj 192 183 bng 10 100 50 0 empty empty empty 17 7 0 10 -1 -3707
-1;
#X obj 202 183 bng 10 100 50 0 empty empty empty 17 7 0 10 -1 -3707
-1;
#X obj 212 183 bng 10 100 50 0 empty empty empty 17 7 0 10 -1 -3707
-1;
#X obj 222 183 bng 10 100 50 0 empty empty empty 17 7 0 10 -1 -3707
-1;
#X obj 232 183 bng 10 100 50 0 empty empty empty 17 7 0 10 -1 -3707
-1;
#X obj 242 183 bng 10 100 50 0 empty empty empty 17 7 0 10 -1 -3707
-1;
#X obj 252 183 bng 10 100 50 0 empty empty empty 17 7 0 10 -1 -3707
-1;
#X obj 262 183 bng 10 100 50 0 empty empty empty 17 7 0 10 -1 -3707
-1;
#X obj 272 183 bng 10 100 50 0 empty empty empty 17 7 0 10 -1 -3707
-1;
#X obj 282 183 bng 10 100 50 0 empty empty empty 17 7 0 10 -1 -3707
-1;
#X obj 292 183 bng 10 100 50 0 empty empty empty 17 7 0 10 -1 -3707
-1;
#X obj 142 190 cnv 4 160 4 empty empty empty 20 12 0 14 -1 -66577 0
;
#X obj 221 435 f;
#X obj 245 435 f;
#X obj 269 435 f;
#X obj 293 435 f;
#X obj 317 435 f;
#X obj 341 435 f;
#X obj 365 435 f;
#X obj 389 435 f;
#X obj 413 435 f;
#X obj 437 435 f;
#X obj 461 435 f;
#X obj 485 435 f;
#X obj 509 435 f;
#X obj 533 435 f;
#X obj 557 435 f;
#X obj 581 435 f;
#X obj 492 115 mod 16;
#X obj 492 137 sel 0 1 2 3 4 5 6 7 8 9 10 11 12 13 14 15;
#N canvas 243 281 604 300 recibepulsos 0;
#X obj 216 -4 inlet;
#X obj 7 272 outlet;
#X obj 216 22 sel 0 1 2 3 4;
#X obj 132 164 r pbar;
#X obj 175 164 r pblanca;
#X obj 236 164 r pnegra;
#X obj 291 164 r pcorchea;
#X obj 358 164 r pscorchea;
#X obj 132 186 spigot;
#X obj 175 186 spigot;
#X obj 236 186 spigot;
#X obj 291 186 spigot;
#X obj 358 186 spigot;
#X msg 13 60 1 0 0 0 0;
#X obj 13 82 unpack f f f f f;
#X msg 123 60 1 0 0 0 0;
#X obj 123 82 unpack f f f f f;
#X msg 233 60 1 0 0 0 0;
#X obj 233 82 unpack f f f f f;
#X msg 343 60 1 0 0 0 0;
#X obj 343 82 unpack f f f f f;
#X msg 453 60 1 0 0 0 0;
#X obj 453 82 unpack f f f f f;
#X connect 0 0 2 0;
#X connect 2 0 13 0;
#X connect 2 1 15 0;
#X connect 2 2 17 0;
#X connect 2 3 19 0;
#X connect 2 4 21 0;
#X connect 3 0 8 0;
#X connect 4 0 9 0;
#X connect 5 0 10 0;
#X connect 6 0 11 0;
#X connect 7 0 12 0;
#X connect 8 0 1 0;
#X connect 9 0 1 0;
#X connect 10 0 1 0;
#X connect 11 0 1 0;
#X connect 12 0 1 0;
#X connect 13 0 14 0;
#X connect 14 0 8 1;
#X connect 14 1 12 1;
#X connect 14 2 11 1;
#X connect 14 3 10 1;
#X connect 14 4 9 1;
#X connect 15 0 16 0;
#X connect 16 0 9 1;
#X connect 16 1 12 1;
#X connect 16 2 11 1;
#X connect 16 3 10 1;
#X connect 16 4 8 1;
#X connect 17 0 18 0;
#X connect 18 0 10 1;
#X connect 18 1 12 1;
#X connect 18 2 11 1;
#X connect 18 3 9 1;
#X connect 18 4 8 1;
#X connect 19 0 20 0;
#X connect 20 0 11 1;
#X connect 20 1 12 1;
#X connect 20 2 10 1;
#X connect 20 3 9 1;
#X connect 20 4 8 1;
#X connect 21 0 22 0;
#X connect 22 0 12 1;
#X connect 22 1 11 1;
#X connect 22 2 10 1;
#X connect 22 3 9 1;
#X connect 22 4 8 1;
#X restore 326 22 pd recibepulsos;
#X obj 121 112 cnv 6 10 6 empty empty bar 2 4 1 9 -1 -3707 0;
#X obj 121 122 cnv 6 10 6 empty empty 1/2 2 4 1 9 -1 -3707 0;
#X obj 121 132 cnv 6 10 6 empty empty 1/4 2 4 1 9 -1 -3707 0;
#X obj 121 142 cnv 6 10 6 empty empty 1/8 2 4 1 9 -1 -3707 0;
#X obj 121 153 cnv 6 10 6 empty empty /16 2 4 1 9 -1 -3707 0;
#X obj 109 110 cnv 10 12 52 empty empty empty 20 12 0 14 -3707 -66577
0;
#X obj 110 111 vradio 10 1 0 5 empty empty empty 0 -8 0 10 -1 -3707
-1 4;
#X obj 221 494 / 127;
#X obj 221 586 outlet~ 16STEPS;
#X obj -91 16 loadbang;
#X obj 142 183 cnv 4 160 4 empty empty empty 20 12 0 14 -1 -66577 0
;
#X obj 221 515 sig~;
#N canvas 0 54 1024 546 WaveSelectorFor16Sliders 0;
#X obj 8 481 outlet;
#X obj 28 501 outlet;
#X obj 51 481 outlet;
#X obj 71 501 outlet;
#X obj 94 481 outlet;
#X obj 114 501 outlet;
#X obj 137 481 outlet;
#X obj 157 501 outlet;
#X obj 180 481 outlet;
#X obj 200 501 outlet;
#X obj 223 481 outlet;
#X obj 243 501 outlet;
#X obj 266 481 outlet;
#X obj 286 501 outlet;
#X obj 309 481 outlet;
#X obj 329 501 outlet;
#X obj 9 4 inlet;
#X obj 60 425 unpack f f f f f f f f f f f f f f f f;
#X msg 9 51 0 0 127 127 0 0 127 127 0 0 127 127 0 0 127 127;
#X msg 45 72 0 8 15 23 31 39 47 55 63 71 79 87 95 103 111 119;
#X msg 81 93 0 15 31 47 63 79 95 111 119 111 95 79 63 47 31 15;
#X msg 103 115 79 79 79 47 47 47 95 95 95 31 31 31 111 111 15 15;
#X msg 126 139 127 0 111 15 95 31 79 47 63 47 79 31 95 15 111 0;
#X msg 144 160 0 0 0 0 31 31 31 31 63 63 63 63 95 95 95 95;
#X msg 163 181 1 3 7 15 33 63 127 63 33 33 15 15 7 7 3 3;
#X msg 178 202 0 3 5 7 9 11 13 15 20 25 30 38 55 80 100 127;
#X msg 198 222 127 125 123 121 119 116 113 108 101 95 88 78 66 52 32
0;
#X msg 218 243 63 59 55 57 59 61 62 63 63 63 65 66 68 70 68 63;
#X msg 241 264 63 58 73 53 83 43 103 23 103 23 83 43 73 53 86 63;
#X msg 262 284 33 56 110 65 2 121 18 22 86 64 90 100 45 107 12 72;
#X obj 9 26 sel 0 1 2 3 4 5 6 7 8 9 10 11 12 13 14 15;
#X msg 299 324 10 63 20 63 30 63 40 63 85 63 95 63 105 63 115 63;
#X msg 280 304 127 127 127 127 63 63 63 63 63 127 127 127 127 63 63
63 63;
#X msg 320 345 63 73 83 93 123 124 125 126 126 125 124 123 93 83 73
63;
#X msg 338 365 63 53 43 13 3 2 1 0 0 1 2 3 13 43 53 63;
#X connect 16 0 30 0;
#X connect 17 0 0 0;
#X connect 17 1 1 0;
#X connect 17 2 2 0;
#X connect 17 3 3 0;
#X connect 17 4 4 0;
#X connect 17 5 5 0;
#X connect 17 6 6 0;
#X connect 17 7 7 0;
#X connect 17 8 8 0;
#X connect 17 9 9 0;
#X connect 17 10 10 0;
#X connect 17 11 11 0;
#X connect 17 12 12 0;
#X connect 17 13 13 0;
#X connect 17 14 14 0;
#X connect 17 15 15 0;
#X connect 18 0 17 0;
#X connect 19 0 17 0;
#X connect 20 0 17 0;
#X connect 21 0 17 0;
#X connect 22 0 17 0;
#X connect 23 0 17 0;
#X connect 24 0 17 0;
#X connect 25 0 17 0;
#X connect 26 0 17 0;
#X connect 27 0 17 0;
#X connect 28 0 17 0;
#X connect 29 0 17 0;
#X connect 30 0 18 0;
#X connect 30 1 19 0;
#X connect 30 2 20 0;
#X connect 30 3 21 0;
#X connect 30 4 22 0;
#X connect 30 5 23 0;
#X connect 30 6 24 0;
#X connect 30 7 25 0;
#X connect 30 8 26 0;
#X connect 30 9 27 0;
#X connect 30 10 28 0;
#X connect 30 11 29 0;
#X connect 30 12 32 0;
#X connect 30 13 31 0;
#X connect 30 14 33 0;
#X connect 30 15 34 0;
#X connect 31 0 17 0;
#X connect 32 0 17 0;
#X connect 33 0 17 0;
#X connect 34 0 17 0;
#X restore 55 34 pd WaveSelectorFor16Sliders;
#X obj 311 110 cnv 15 17 71 empty empty empty 20 12 0 14 -3707 -66577
0;
#X obj 312 113 vsl 15 64 0 63 0 0 empty empty empty 0 -9 0 10 -1 -3707
-1 6300 1;
#X obj 79 439 i;
#X obj 79 417 / 4;
#X obj 331 110 cnv 15 17 71 empty empty empty 20 12 0 14 -3707 -66577
0;
#X obj 332 113 vsl 15 64 0 63 0 0 empty empty empty 0 -9 0 10 -1 -3707
-1 6300 1;
#X obj 160 465 / 63;
#X msg 160 487 \$1 20;
#X obj 160 509 line~;
#X obj 222 535 *~;
#X msg -60 39 63;
#X msg -28 38 4;
#X obj 306 184 cnv 6 10 6 empty empty wave 2 4 1 9 -1 -3707 0;
#X obj 330 184 cnv 6 10 6 empty empty amp 2 4 1 9 -1 -3707 0;
#X obj 688 208 mod 8;
#X obj 688 230 sel 0 1 2 3 4 5 6 7;
#X obj 347 494 / 127;
#X obj 347 516 sig~;
#X obj 347 538 *~;
#X obj 347 586 outlet~ 8STEPSA;
#X obj 457 494 / 127;
#X obj 457 516 sig~;
#X obj 457 538 *~;
#X obj 457 586 outlet~ 8STEPSB;
#X obj 808 208 mod 8;
#X obj 808 230 sel 0 1 2 3 4 5 6 7;
#X obj 121 168 cnv 6 10 6 empty empty 4X4 2 4 1 9 -1 -3707 0;
#X obj 121 178 cnv 6 10 6 empty empty 2X8 2 4 1 9 -1 -3707 0;
#X obj 121 188 cnv 6 10 6 empty empty 16 2 4 1 9 -1 -3707 0;
#X obj 109 166 cnv 10 12 32 empty empty empty 20 12 0 14 -3707 -66577
0;
#X obj 110 167 vradio 10 1 0 3 empty empty empty 0 -8 0 10 -1 -3707
-1 2;
#X msg -89 41 2;
#X obj 492 95 spigot;
#X obj 742 185 spigot;
#X obj 558 23 sel 0 1 2;
#X obj 691 343 mod 4;
#X obj 691 365 sel 0 1 2 3;
#X obj 774 312 spigot;
#X obj 771 343 mod 4;
#X obj 771 365 sel 0 1 2 3;
#X obj 851 343 mod 4;
#X obj 851 365 sel 0 1 2 3;
#X obj 931 343 mod 4;
#X obj 931 365 sel 0 1 2 3;
#X obj 557 494 / 127;
#X obj 557 516 sig~;
#X obj 557 538 *~;
#X obj 557 586 outlet~ 4STEPSA;
#X obj 657 494 / 127;
#X obj 657 516 sig~;
#X obj 657 538 *~;
#X obj 657 586 outlet~ 4STEPSB;
#X obj 757 494 / 127;
#X obj 757 516 sig~;
#X obj 757 538 *~;
#X obj 757 586 outlet~ 4STEPSC;
#X obj 857 494 / 127;
#X obj 857 516 sig~;
#X obj 857 538 *~;
#X obj 857 586 outlet~ 4STEPSD;
#X obj 104 200 cnv 6 10 6 empty empty cv16 2 4 1 9 -1 -3707 0;
#X obj 137 200 cnv 6 10 6 empty empty cv8A 2 4 1 9 -1 -3707 0;
#X obj 177 200 cnv 6 10 6 empty empty cv8B 2 4 1 9 -1 -3707 0;
#X obj 217 200 cnv 6 10 6 empty empty cv4A 2 4 1 9 -1 -3707 0;
#X obj 257 200 cnv 6 10 6 empty empty cv4B 2 4 1 9 -1 -3707 0;
#X obj 297 200 cnv 6 10 6 empty empty cv4C 2 4 1 9 -1 -3707 0;
#X obj 332 200 cnv 6 10 6 empty empty cv4D 2 4 1 9 -1 -3707 0;
#X obj -82 463 sel 0 1 2;
#X obj 222 555 *~;
#X obj 347 558 *~;
#X obj 457 558 *~;
#X obj 557 558 *~;
#X obj 657 558 *~;
#X obj 757 558 *~;
#X obj 857 558 *~;
#X msg -82 488 1 0;
#X obj -82 510 unpack f f;
#X msg -2 488 1 0;
#X obj -2 510 unpack f f;
#X msg 78 488 1 0;
#X obj 78 510 unpack f f;
#X msg 718 48 1 0;
#X obj 718 70 unpack f f;
#X obj 638 70 unpack f f;
#X msg 638 48 1 0;
#X obj 558 70 unpack f f;
#X msg 558 48 1 0;
#X connect 2 0 35 1;
#X connect 3 0 36 1;
#X connect 4 0 37 1;
#X connect 5 0 38 1;
#X connect 6 0 39 1;
#X connect 7 0 40 1;
#X connect 8 0 41 1;
#X connect 9 0 42 1;
#X connect 10 0 43 1;
#X connect 11 0 44 1;
#X connect 12 0 45 1;
#X connect 13 0 46 1;
#X connect 14 0 47 1;
#X connect 15 0 48 1;
#X connect 16 0 49 1;
#X connect 17 0 50 1;
#X connect 35 0 61 0;
#X connect 35 0 83 0;
#X connect 35 0 111 0;
#X connect 35 0 18 0;
#X connect 36 0 61 0;
#X connect 36 0 83 0;
#X connect 36 0 111 0;
#X connect 36 0 19 0;
#X connect 37 0 61 0;
#X connect 37 0 83 0;
#X connect 37 0 111 0;
#X connect 37 0 20 0;
#X connect 38 0 61 0;
#X connect 38 0 83 0;
#X connect 38 0 111 0;
#X connect 38 0 21 0;
#X connect 39 0 61 0;
#X connect 39 0 83 0;
#X connect 39 0 115 0;
#X connect 39 0 22 0;
#X connect 40 0 61 0;
#X connect 40 0 83 0;
#X connect 40 0 115 0;
#X connect 40 0 23 0;
#X connect 41 0 61 0;
#X connect 41 0 83 0;
#X connect 41 0 115 0;
#X connect 41 0 24 0;
#X connect 42 0 61 0;
#X connect 42 0 83 0;
#X connect 42 0 115 0;
#X connect 42 0 25 0;
#X connect 43 0 61 0;
#X connect 43 0 87 0;
#X connect 43 0 119 0;
#X connect 43 0 26 0;
#X connect 44 0 61 0;
#X connect 44 0 87 0;
#X connect 44 0 119 0;
#X connect 44 0 27 0;
#X connect 45 0 61 0;
#X connect 45 0 87 0;
#X connect 45 0 119 0;
#X connect 45 0 28 0;
#X connect 46 0 61 0;
#X connect 46 0 87 0;
#X connect 46 0 119 0;
#X connect 46 0 29 0;
#X connect 47 0 61 0;
#X connect 47 0 87 0;
#X connect 47 0 123 0;
#X connect 47 0 30 0;
#X connect 48 0 61 0;
#X connect 48 0 87 0;
#X connect 48 0 123 0;
#X connect 48 0 31 0;
#X connect 49 0 61 0;
#X connect 49 0 87 0;
#X connect 49 0 123 0;
#X connect 49 0 32 0;
#X connect 50 0 61 0;
#X connect 50 0 87 0;
#X connect 50 0 123 0;
#X connect 50 0 33 0;
#X connect 51 0 52 0;
#X connect 52 0 35 0;
#X connect 52 1 36 0;
#X connect 52 2 37 0;
#X connect 52 3 38 0;
#X connect 52 4 39 0;
#X connect 52 5 40 0;
#X connect 52 6 41 0;
#X connect 52 7 42 0;
#X connect 52 8 43 0;
#X connect 52 9 44 0;
#X connect 52 10 45 0;
#X connect 52 11 46 0;
#X connect 52 12 47 0;
#X connect 52 13 48 0;
#X connect 52 14 49 0;
#X connect 52 15 50 0;
#X connect 53 0 99 0;
#X connect 53 0 100 0;
#X connect 53 0 104 0;
#X connect 60 0 53 0;
#X connect 61 0 65 0;
#X connect 63 0 77 0;
#X connect 63 0 78 0;
#X connect 63 0 98 0;
#X connect 65 0 76 0;
#X connect 66 0 2 0;
#X connect 66 1 3 0;
#X connect 66 2 4 0;
#X connect 66 3 5 0;
#X connect 66 4 6 0;
#X connect 66 5 7 0;
#X connect 66 6 8 0;
#X connect 66 7 9 0;
#X connect 66 8 10 0;
#X connect 66 9 11 0;
#X connect 66 10 12 0;
#X connect 66 11 13 0;
#X connect 66 12 14 0;
#X connect 66 13 15 0;
#X connect 66 14 16 0;
#X connect 66 15 17 0;
#X connect 68 0 70 0;
#X connect 69 0 66 0;
#X connect 70 0 69 0;
#X connect 72 0 73 0;
#X connect 73 0 74 0;
#X connect 74 0 75 0;
#X connect 75 0 76 1;
#X connect 75 0 85 1;
#X connect 75 0 89 1;
#X connect 75 0 113 1;
#X connect 75 0 117 1;
#X connect 75 0 121 1;
#X connect 75 0 125 1;
#X connect 76 0 135 0;
#X connect 77 0 72 0;
#X connect 78 0 60 0;
#X connect 81 0 82 0;
#X connect 82 0 35 0;
#X connect 82 1 36 0;
#X connect 82 2 37 0;
#X connect 82 3 38 0;
#X connect 82 4 39 0;
#X connect 82 5 40 0;
#X connect 82 6 41 0;
#X connect 82 7 42 0;
#X connect 83 0 84 0;
#X connect 84 0 85 0;
#X connect 85 0 136 0;
#X connect 87 0 88 0;
#X connect 88 0 89 0;
#X connect 89 0 137 0;
#X connect 91 0 92 0;
#X connect 92 0 43 0;
#X connect 92 1 44 0;
#X connect 92 2 45 0;
#X connect 92 3 46 0;
#X connect 92 4 47 0;
#X connect 92 5 48 0;
#X connect 92 6 49 0;
#X connect 92 7 50 0;
#X connect 97 0 101 0;
#X connect 97 0 134 0;
#X connect 98 0 97 0;
#X connect 99 0 51 0;
#X connect 100 0 81 0;
#X connect 100 0 91 0;
#X connect 101 0 153 0;
#X connect 101 1 151 0;
#X connect 101 2 148 0;
#X connect 102 0 103 0;
#X connect 103 0 35 0;
#X connect 103 1 36 0;
#X connect 103 2 37 0;
#X connect 103 3 38 0;
#X connect 104 0 102 0;
#X connect 104 0 105 0;
#X connect 104 0 107 0;
#X connect 104 0 109 0;
#X connect 105 0 106 0;
#X connect 106 0 39 0;
#X connect 106 1 40 0;
#X connect 106 2 41 0;
#X connect 106 3 42 0;
#X connect 107 0 108 0;
#X connect 108 0 43 0;
#X connect 108 1 44 0;
#X connect 108 2 45 0;
#X connect 108 3 46 0;
#X connect 109 0 110 0;
#X connect 110 0 47 0;
#X connect 110 1 48 0;
#X connect 110 2 49 0;
#X connect 110 3 50 0;
#X connect 111 0 112 0;
#X connect 112 0 113 0;
#X connect 113 0 138 0;
#X connect 115 0 116 0;
#X connect 116 0 117 0;
#X connect 117 0 139 0;
#X connect 119 0 120 0;
#X connect 120 0 121 0;
#X connect 121 0 140 0;
#X connect 123 0 124 0;
#X connect 124 0 125 0;
#X connect 125 0 141 0;
#X connect 134 0 142 0;
#X connect 134 1 144 0;
#X connect 134 2 146 0;
#X connect 135 0 62 0;
#X connect 136 0 86 0;
#X connect 137 0 90 0;
#X connect 138 0 114 0;
#X connect 139 0 118 0;
#X connect 140 0 122 0;
#X connect 141 0 126 0;
#X connect 142 0 143 0;
#X connect 143 0 138 1;
#X connect 143 0 139 1;
#X connect 143 0 140 1;
#X connect 143 0 141 1;
#X connect 143 1 135 1;
#X connect 143 1 136 1;
#X connect 143 1 137 1;
#X connect 144 0 145 0;
#X connect 145 0 137 1;
#X connect 145 0 136 1;
#X connect 145 1 141 1;
#X connect 145 1 140 1;
#X connect 145 1 139 1;
#X connect 145 1 138 1;
#X connect 145 1 135 1;
#X connect 146 0 147 0;
#X connect 147 0 135 1;
#X connect 147 1 141 1;
#X connect 147 1 140 1;
#X connect 147 1 139 1;
#X connect 147 1 138 1;
#X connect 147 1 137 1;
#X connect 147 1 136 1;
#X connect 148 0 149 0;
#X connect 149 0 99 1;
#X connect 149 1 104 1;
#X connect 149 1 100 1;
#X connect 150 0 100 1;
#X connect 150 1 104 1;
#X connect 150 1 99 1;
#X connect 151 0 150 0;
#X connect 152 0 104 1;
#X connect 152 1 100 1;
#X connect 152 1 99 1;
#X connect 153 0 152 0;
#X coords 0 -1 1 1 260 112 2 100 100;
