#N canvas 0 54 1024 546 10;
#X obj 103 113 cnv 8 92 96 empty empty delay.signal.in 2 6 1 9 -1 -3707
0;
#X obj 103 103 cnv 10 92 10 empty empty octosignal 2 6 1 9 -3707 -1
0;
#X obj 17 10 inlet;
#X obj 105 124 cnv 10 88 12 empty empty empty 20 12 0 14 -3707 -66577
0;
#X obj 108 145 cnv 15 24 48 empty empty empty 20 12 0 14 -3707 -66577
0;
#X obj 109 146 cnv 10 10 10 empty empty 1 3 6 1 9 -3707 -1 0;
#X obj 121 146 tgl 10 0 empty empty empty 17 7 0 10 -1 -3707 -1 1 1
;
#X obj 109 158 tgl 10 0 empty empty empty 17 7 0 10 -1 -3707 -1 1 1
;
#X obj 121 158 tgl 10 0 empty empty empty 17 7 0 10 -1 -3707 -1 1 1
;
#X obj 109 170 tgl 10 0 empty empty empty 17 7 0 10 -1 -3707 -1 1 1
;
#X obj 121 170 tgl 10 0 empty empty empty 17 7 0 10 -1 -3707 -1 1 1
;
#X obj 109 182 tgl 10 0 empty empty empty 17 7 0 10 -1 -3707 -1 1 1
;
#X obj 121 182 tgl 10 0 empty empty empty 17 7 0 10 -1 -3707 -1 1 1
;
#X obj 104 200 cnv 8 8 8 empty empty mix 0 6 1 9 -1 -162280 0;
#X obj 284 228 delay 500;
#X obj 125 302 spigot;
#X obj 70 389 outlet;
#X obj 175 302 spigot;
#X obj 225 302 spigot;
#X obj 275 302 spigot;
#X obj 325 302 spigot;
#X obj 375 302 spigot;
#X obj 425 302 spigot;
#X obj 117 272 delay 750;
#X obj 177 272 delay 770;
#X obj 237 272 delay 800;
#X obj 297 272 delay 825;
#X obj 357 272 delay 850;
#X obj 417 272 delay 875;
#X obj 477 272 delay 975;
#X obj 137 137 cnv 10 56 64 empty empty empty 20 12 0 14 -3707 -66577
0;
#X floatatom 138 154 4 1 9999 0 - - -, f 4;
#X floatatom 166 154 4 1 9999 0 - - -, f 4;
#X floatatom 138 170 4 1 9999 0 - - -, f 4;
#X floatatom 166 170 4 1 9999 0 - - -, f 4;
#X floatatom 138 186 4 1 9999 0 - - -, f 4;
#X floatatom 166 186 4 1 9999 0 - - -, f 4;
#X floatatom 138 138 4 1 9999 0 - - -, f 4;
#X floatatom 166 138 4 1 9999 0 - - -, f 4;
#X obj 117 9 loadbang;
#X obj 117 51 unpack f f f f f f f f;
#X msg 34 79 1;
#X msg 117 30 100 200 300 400 500 600 700 800;
#N canvas 407 186 450 300 randommiliseconds 0;
#X obj 119 15 inlet;
#X obj 7 137 outlet;
#X obj 57 137 outlet;
#X obj 107 137 outlet;
#X obj 157 137 outlet;
#X obj 207 137 outlet;
#X obj 257 137 outlet;
#X obj 307 137 outlet;
#X obj 357 137 outlet;
#X obj 7 49 random 1000;
#X obj 87 49 random 1000;
#X obj 167 49 random 1000;
#X obj 247 49 random 1000;
#X obj 37 69 random 1000;
#X obj 117 69 random 1000;
#X obj 197 69 random 1000;
#X obj 277 69 random 1000;
#X connect 0 0 9 0;
#X connect 0 0 10 0;
#X connect 0 0 11 0;
#X connect 0 0 12 0;
#X connect 0 0 13 0;
#X connect 0 0 14 0;
#X connect 0 0 15 0;
#X connect 0 0 16 0;
#X connect 9 0 1 0;
#X connect 10 0 3 0;
#X connect 11 0 5 0;
#X connect 12 0 7 0;
#X connect 13 0 2 0;
#X connect 14 0 4 0;
#X connect 15 0 6 0;
#X connect 16 0 8 0;
#X restore 283 52 pd randommiliseconds;
#X obj 166 125 bng 10 250 50 0 empty empty rnd 12 5 1 9 -1 -3707 -1
;
#N canvas 405 207 450 300 randomspigots 0;
#X obj 10 46 random 2;
#X obj 70 46 random 2;
#X obj 130 46 random 2;
#X obj 190 46 random 2;
#X obj 40 76 random 2;
#X obj 100 76 random 2;
#X obj 160 76 random 2;
#X obj 14 160 outlet;
#X obj 64 160 outlet;
#X obj 114 160 outlet;
#X obj 164 160 outlet;
#X obj 214 160 outlet;
#X obj 264 160 outlet;
#X obj 314 160 outlet;
#X obj 134 4 inlet;
#X connect 0 0 7 0;
#X connect 1 0 9 0;
#X connect 2 0 11 0;
#X connect 3 0 13 0;
#X connect 4 0 8 0;
#X connect 5 0 10 0;
#X connect 6 0 12 0;
#X connect 14 0 0 0;
#X connect 14 0 1 0;
#X connect 14 0 2 0;
#X connect 14 0 3 0;
#X connect 14 0 4 0;
#X connect 14 0 5 0;
#X connect 14 0 6 0;
#X restore -46 111 pd randomspigots;
#X obj 106 125 bng 10 250 50 0 empty empty rnd 12 5 1 9 -1 -3707 -1
;
#X obj 120 389 outlet;
#X obj 170 389 outlet;
#X obj 220 389 outlet;
#X obj 270 389 outlet;
#X obj 4 47 spigot;
#X obj 138 125 tgl 10 0 empty empty on 12 5 1 9 -1 -3707 -1 0 1;
#X obj 412 116 f;
#X obj 412 138 + 1;
#X obj 412 161 mod 2;
#X obj 168 103 cnv 10 10 10 empty empty on.off 0 6 1 9 -3707 -1 0;
#X obj 422 16 inlet;
#X connect 2 0 51 0;
#X connect 6 0 15 1;
#X connect 7 0 17 1;
#X connect 8 0 18 1;
#X connect 9 0 19 1;
#X connect 10 0 20 1;
#X connect 11 0 21 1;
#X connect 12 0 22 1;
#X connect 12 0 28 0;
#X connect 14 0 16 0;
#X connect 14 0 23 0;
#X connect 14 0 24 0;
#X connect 14 0 25 0;
#X connect 14 0 26 0;
#X connect 14 0 27 0;
#X connect 14 0 28 0;
#X connect 14 0 29 0;
#X connect 14 0 47 0;
#X connect 15 0 16 0;
#X connect 15 0 47 0;
#X connect 17 0 16 0;
#X connect 17 0 48 0;
#X connect 18 0 16 0;
#X connect 18 0 48 0;
#X connect 19 0 16 0;
#X connect 19 0 49 0;
#X connect 20 0 16 0;
#X connect 20 0 49 0;
#X connect 21 0 16 0;
#X connect 21 0 50 0;
#X connect 22 0 16 0;
#X connect 22 0 50 0;
#X connect 23 0 15 0;
#X connect 24 0 17 0;
#X connect 25 0 18 0;
#X connect 26 0 19 0;
#X connect 27 0 20 0;
#X connect 28 0 21 0;
#X connect 29 0 22 0;
#X connect 31 0 24 1;
#X connect 32 0 25 1;
#X connect 33 0 26 1;
#X connect 34 0 27 1;
#X connect 35 0 28 1;
#X connect 36 0 29 1;
#X connect 37 0 14 1;
#X connect 38 0 23 1;
#X connect 39 0 42 0;
#X connect 39 0 41 0;
#X connect 40 0 37 0;
#X connect 40 1 38 0;
#X connect 40 2 31 0;
#X connect 40 3 32 0;
#X connect 40 4 33 0;
#X connect 40 5 34 0;
#X connect 40 6 35 0;
#X connect 40 7 36 0;
#X connect 41 0 12 0;
#X connect 41 0 6 0;
#X connect 41 0 8 0;
#X connect 41 0 7 0;
#X connect 41 0 10 0;
#X connect 41 0 9 0;
#X connect 41 0 11 0;
#X connect 42 0 40 0;
#X connect 43 0 37 0;
#X connect 43 1 38 0;
#X connect 43 2 31 0;
#X connect 43 3 32 0;
#X connect 43 4 33 0;
#X connect 43 5 34 0;
#X connect 43 6 35 0;
#X connect 43 7 36 0;
#X connect 44 0 43 0;
#X connect 45 0 6 0;
#X connect 45 1 7 0;
#X connect 45 2 8 0;
#X connect 45 3 9 0;
#X connect 45 4 10 0;
#X connect 45 5 11 0;
#X connect 45 6 12 0;
#X connect 46 0 45 0;
#X connect 51 0 14 0;
#X connect 52 0 51 1;
#X connect 53 0 54 0;
#X connect 53 0 55 0;
#X connect 54 0 53 1;
#X connect 55 0 52 0;
#X connect 57 0 53 0;
#X coords 0 -1 1 1 98 112 2 100 100;
