#N canvas 0 87 450 300 10;
#X obj 104 104 cnv 15 176 104 empty empty empty 20 12 0 14 -262144
-66577 0;
#X obj 104 104 cnv 15 120 102 empty empty empty 27 6 1 9 -33289 -3707
0;
#X obj 110 108 hsl 64 15 0 63 0 0 empty empty empty -2 -8 0 10 -66577
-3707 -1 0 1;
#X obj 110 124 hsl 64 15 0 63 0 0 empty empty empty -2 -8 0 10 -66577
-3707 -1 2000 1;
#X obj 110 140 hsl 64 15 0 63 0 0 empty empty empty -2 -8 0 10 -66577
-3707 -1 900 1;
#X obj 110 156 hsl 64 15 0 63 0 0 empty empty empty -2 -8 0 10 -66577
-3707 -1 0 1;
#X obj 110 172 hsl 64 15 0 63 0 0 empty empty empty -2 -8 0 10 -66577
-3707 -1 0 1;
#X obj 110 188 hsl 64 15 0 63 0 0 empty empty empty -2 -8 0 10 -66577
-3707 -1 0 1;
#X obj 176 187 cnv 15 15 15 empty empty . 6 4 1 14 -33289 -3707 0;
#X obj 176 172 cnv 15 15 15 empty empty . 6 4 1 14 -33289 -3707 0;
#X obj 196 172 cnv 15 15 15 empty empty . 6 4 1 14 -33289 -3707 0;
#X obj 176 156 cnv 15 15 15 empty empty . 6 4 1 14 -33289 -3707 0;
#X obj 186 156 cnv 15 15 15 empty empty . 6 4 1 14 -33289 -3707 0;
#X obj 196 156 cnv 15 15 15 empty empty . 6 4 1 14 -33289 -3707 0;
#X obj 206 156 cnv 15 15 15 empty empty . 6 4 1 14 -33289 -3707 0;
#X obj 176 140 cnv 8 8 15 empty empty . 6 4 1 14 -33289 -3707 0;
#X obj 211 140 cnv 8 8 15 empty empty . 6 4 1 14 -33289 -3707 0;
#X obj 206 140 cnv 8 8 15 empty empty . 6 4 1 14 -33289 -3707 0;
#X obj 201 140 cnv 8 8 15 empty empty . 6 4 1 14 -33289 -3707 0;
#X obj 196 140 cnv 8 8 15 empty empty . 6 4 1 14 -33289 -3707 0;
#X obj 191 140 cnv 8 8 15 empty empty . 6 4 1 14 -33289 -3707 0;
#X obj 186 140 cnv 8 8 15 empty empty . 6 4 1 14 -33289 -3707 0;
#X obj 181 140 cnv 8 8 15 empty empty . 6 4 1 14 -33289 -3707 0;
#X obj 176 140 cnv 8 8 15 empty empty . 6 4 1 14 -33289 -3707 0;
#X obj 176 127 cnv 8 8 15 empty empty -------- 6 4 1 14 -33289 -3707
0;
#X obj 176 109 cnv 8 8 15 empty empty -------- 6 4 1 14 -33289 -3707
0;
#X obj 176 115 cnv 8 8 8 empty empty -------- 6 1 1 14 -33289 -3707
0;
#X obj 398 225 osc~;
#X obj 398 247 *~ 50;
#X obj 398 269 clip~ -1 1;
#X obj 398 291 *~;
#X obj 538 225 osc~;
#X obj 538 247 *~ 50;
#X obj 538 269 clip~ -1 1;
#X obj 538 291 *~;
#X obj 472 343 +~;
#X msg 724 103 0;
#X obj 678 195 osc~;
#X obj 678 217 *~ 50;
#X obj 678 239 clip~ -1 1;
#X obj 678 261 *~;
#X obj 818 195 osc~;
#X obj 818 217 *~ 50;
#X obj 818 239 clip~ -1 1;
#X obj 818 261 *~;
#X obj 752 313 +~;
#X obj 622 383 +~;
#X obj 598 44 t b;
#X obj 598 24 expr (60000/$f1);
#X obj 349 66 expr (1000/$f1);
#X obj 489 66 expr (1000/$f1)/2;
#X obj 629 66 expr (1000/$f1)/4;
#X obj 769 66 expr (1000/$f1)/8;
#X obj 856 551 outlet~;
#X obj 968 195 osc~;
#X obj 968 217 *~ 50;
#X obj 968 239 clip~ -1 1;
#X obj 968 261 *~;
#X obj 1108 195 osc~;
#X obj 1108 217 *~ 50;
#X obj 1108 239 clip~ -1 1;
#X obj 1108 261 *~;
#X obj 1042 313 +~;
#X obj 859 353 +~;
#X obj 744 9 inlet gatephase;
#X obj 929 66 expr (1000/$f1)/16;
#X obj 1069 66 expr (1000/$f1)/32;
#X floatatom 227 104 3 1 999 0 - - -, f 3;
#X obj 227 120 cnv 8 8 8 empty empty bpm 0 4 1 9 -262144 -33289 0;
#X obj 153 6 loadbang;
#X msg 183 28 101;
#X msg 214 28 50;
#X msg 155 29 20;
#X obj 249 118 cnv 8 8 8 empty empty P66 0 4 1 18 -262144 -3707 0;
#X obj 856 529 *~;
#X obj 1012 506 line~;
#X msg 1012 485 \$1 20;
#X obj 227 132 vsl 15 64 1 50 0 0 empty empty empty 2 50 1 9 -66577
-3707 -3707 6300 1;
#X obj 265 132 vsl 15 64 0 63 0 0 empty empty empty 3 50 1 9 -66577
-3707 -3707 6300 1;
#X obj 1012 465 / 63;
#X obj 227 201 cnv 8 8 8 empty empty glis 0 4 1 9 -262144 -33289 0
;
#X obj 265 201 cnv 8 8 8 empty empty amp 0 4 1 9 -262144 -33289 0;
#X msg 244 28 50;
#X obj 878 445 osc~;
#X obj 878 467 *~ 50;
#X obj 878 489 clip~ -1 1;
#X obj 877 419 +~;
#X obj 246 132 vsl 15 64 12 75 0 0 empty empty empty 2 50 1 9 -66577
-3707 -3707 2000 1;
#X obj 246 201 cnv 8 8 8 empty empty frec 0 4 1 9 -262144 -33289 0
;
#X msg 274 28 48;
#X obj 837 393 mtof;
#X obj 250 104 cnv 8 8 8 empty empty in.note 0 4 1 9 -262144 -33289
0;
#X obj 848 10 inlet MIDInote;
#X connect 2 0 30 1;
#X connect 3 0 34 1;
#X connect 4 0 40 1;
#X connect 5 0 44 1;
#X connect 6 0 57 1;
#X connect 7 0 61 1;
#X connect 27 0 28 0;
#X connect 28 0 29 0;
#X connect 29 0 30 0;
#X connect 30 0 35 0;
#X connect 31 0 32 0;
#X connect 32 0 33 0;
#X connect 33 0 34 0;
#X connect 34 0 35 1;
#X connect 35 0 46 0;
#X connect 36 0 27 1;
#X connect 36 0 31 1;
#X connect 36 0 37 1;
#X connect 36 0 41 1;
#X connect 36 0 54 1;
#X connect 36 0 58 1;
#X connect 37 0 38 0;
#X connect 38 0 39 0;
#X connect 39 0 40 0;
#X connect 40 0 45 0;
#X connect 41 0 42 0;
#X connect 42 0 43 0;
#X connect 43 0 44 0;
#X connect 44 0 45 1;
#X connect 45 0 46 1;
#X connect 46 0 63 0;
#X connect 47 0 36 0;
#X connect 48 0 47 0;
#X connect 48 0 49 0;
#X connect 48 0 50 0;
#X connect 48 0 51 0;
#X connect 48 0 52 0;
#X connect 48 0 65 0;
#X connect 48 0 66 0;
#X connect 49 0 27 0;
#X connect 50 0 31 0;
#X connect 51 0 37 0;
#X connect 52 0 41 0;
#X connect 54 0 55 0;
#X connect 55 0 56 0;
#X connect 56 0 57 0;
#X connect 57 0 62 0;
#X connect 58 0 59 0;
#X connect 59 0 60 0;
#X connect 60 0 61 0;
#X connect 61 0 62 1;
#X connect 62 0 63 1;
#X connect 63 0 86 1;
#X connect 64 0 36 0;
#X connect 65 0 54 0;
#X connect 66 0 58 0;
#X connect 67 0 48 0;
#X connect 69 0 70 0;
#X connect 69 0 71 0;
#X connect 69 0 82 0;
#X connect 69 0 89 0;
#X connect 69 0 72 0;
#X connect 70 0 67 0;
#X connect 71 0 77 0;
#X connect 72 0 3 0;
#X connect 74 0 53 0;
#X connect 75 0 74 1;
#X connect 76 0 75 0;
#X connect 77 0 28 1;
#X connect 77 0 32 1;
#X connect 77 0 38 1;
#X connect 77 0 42 1;
#X connect 77 0 55 1;
#X connect 77 0 59 1;
#X connect 78 0 79 0;
#X connect 79 0 76 0;
#X connect 82 0 78 0;
#X connect 83 0 84 0;
#X connect 84 0 85 0;
#X connect 85 0 74 0;
#X connect 86 0 83 0;
#X connect 87 0 90 0;
#X connect 89 0 87 0;
#X connect 90 0 86 0;
#X connect 92 0 90 0;
#X coords 0 -1 1 1 184 112 2 100 100;
