#N canvas 0 54 1024 546 10;
#X obj 102 134 cnv 10 166 12 empty empty empty 20 12 0 14 -1 -66577
0;
#X obj 103 135 bng 10 100 50 0 empty empty empty 17 7 0 10 -1 -3707
-1;
#X obj 114 135 bng 10 100 50 0 empty empty empty 17 7 0 10 -1 -3707
-1;
#X obj 125 135 bng 10 100 50 0 empty empty empty 17 7 0 10 -1 -3707
-1;
#X obj 136 135 bng 10 100 50 0 empty empty empty 17 7 0 10 -1 -3707
-1;
#X obj 147 135 bng 10 100 50 0 empty empty empty 17 7 0 10 -1 -3707
-1;
#X obj 158 135 bng 10 100 50 0 empty empty empty 17 7 0 10 -1 -3707
-1;
#X obj 169 135 bng 10 100 50 0 empty empty empty 17 7 0 10 -1 -3707
-1;
#X obj 180 135 bng 10 100 50 0 empty empty empty 17 7 0 10 -1 -3707
-1;
#X obj 191 135 bng 10 100 50 0 empty empty empty 17 7 0 10 -1 -3707
-1;
#X obj 202 135 bng 10 100 50 0 empty empty empty 17 7 0 10 -1 -3707
-1;
#X obj 213 135 bng 10 100 50 0 empty empty empty 17 7 0 10 -1 -3707
-1;
#X obj 224 135 bng 10 100 50 0 empty empty empty 17 7 0 10 -1 -3707
-1;
#X obj 235 135 bng 10 100 50 0 empty empty empty 17 7 0 10 -1 -3707
-1;
#X obj 246 135 bng 10 100 50 0 empty empty empty 17 7 0 10 -1 -3707
-1;
#X obj 257 135 bng 10 100 50 0 empty empty empty 17 7 0 10 -1 -3707
-1;
#X obj 102 121 cnv 10 236 12 empty empty empty 20 12 0 14 -262144 -66577
0;
#X obj 103 122 tgl 10 0 empty empty empty 17 7 0 10 -3707 -1 -1 1 1
;
#X obj 14 281 i;
#X obj 114 122 tgl 10 0 empty empty empty 17 7 0 10 -3707 -1 -1 0 1
;
#X obj 38 281 i;
#X obj 125 122 tgl 10 0 empty empty empty 17 7 0 10 -3707 -1 -1 0 1
;
#X obj 62 281 i;
#X obj 136 122 tgl 10 0 empty empty empty 17 7 0 10 -3707 -1 -1 1 1
;
#X obj 86 281 i;
#X obj 147 122 tgl 10 0 empty empty empty 17 7 0 10 -3707 -1 -1 0 1
;
#X obj 110 281 i;
#X obj 158 122 tgl 10 0 empty empty empty 17 7 0 10 -3707 -1 -1 1 1
;
#X obj 134 281 i;
#X obj 169 122 tgl 10 0 empty empty empty 17 7 0 10 -3707 -1 -1 1 1
;
#X obj 158 281 i;
#X obj 180 122 tgl 10 0 empty empty empty 17 7 0 10 -3707 -1 -1 0 1
;
#X obj 182 281 i;
#X obj 191 122 tgl 10 0 empty empty empty 17 7 0 10 -3707 -1 -1 1 1
;
#X obj 206 281 i;
#X obj 202 122 tgl 10 0 empty empty empty 17 7 0 10 -3707 -1 -1 0 1
;
#X obj 230 281 i;
#X obj 213 122 tgl 10 0 empty empty empty 17 7 0 10 -3707 -1 -1 0 1
;
#X obj 254 281 i;
#X obj 224 122 tgl 10 0 empty empty empty 17 7 0 10 -3707 -1 -1 1 1
;
#X obj 278 281 i;
#X obj 235 122 tgl 10 0 empty empty empty 17 7 0 10 -3707 -1 -1 0 1
;
#X obj 302 281 i;
#X obj 246 122 tgl 10 0 empty empty empty 17 7 0 10 -3707 -1 -1 0 1
;
#X obj 326 281 i;
#X obj 257 122 tgl 10 0 empty empty empty 17 7 0 10 -3707 -1 -1 1 1
;
#X obj 350 281 i;
#X obj 119 -107 loadbang;
#X obj 103 104 cnv 10 236 16 empty empty empty 20 12 0 14 -262144 -66577
0;
#X obj 148 103 bng 10 100 50 0 empty empty empty 12 5 1 9 -262144 -1
-66577;
#X obj 56 14 inlet sync;
#X obj 102 103 cnv 8 8 8 empty empty in.trigger 2 5 1 9 -262144 -1
0;
#X obj 102 147 cnv 8 166 8 empty empty out 0 5 1 9 -262144 -1 0;
#X obj 138 147 cnv 8 8 8 empty empty extremos 2 5 1 9 -262144 -1 0
;
#X obj 200 147 cnv 8 8 8 empty empty medios 2 5 1 9 -262144 -1 0;
#X obj 199 105 cnv 8 8 8 empty empty PENDULAR 2 5 1 12 -262144 -1 0
;
#X obj 91 364 select 1;
#X obj 151 364 select 1;
#X obj 211 364 select 1;
#X obj 271 364 select 1;
#X obj 331 364 select 1;
#X obj 91 386 outlet;
#X obj 151 386 outlet;
#X obj 211 386 outlet;
#X obj 271 386 outlet;
#X obj 331 386 outlet;
#N canvas 0 54 1024 546 sequencerPendular_SesentaYCuatro_steps 0;
#X obj 30 171 sel 0 1 2 3 4 5 6 7 8 9 10 11 12 13 14 15 16 17 18 19
20 21 22 23 24 25 26 27 28 29 30 31;
#X obj 400 171 sel 32 33 34 35 36 37 38 39 40 41 42 43 44 45 46 47
48 49 50 51 52 53 54 55 56 57 58 59 60 61 62 63;
#X obj 48 87 mod 64;
#X obj 9 260 f;
#X obj 33 260 f;
#X obj 57 260 f;
#X obj 81 260 f;
#X obj 105 260 f;
#X obj 129 260 f;
#X obj 153 260 f;
#X obj 177 260 f;
#X obj 201 260 f;
#X obj 225 260 f;
#X obj 249 260 f;
#X obj 273 260 f;
#X obj 297 260 f;
#X obj 321 260 f;
#X obj 345 260 f;
#X obj 369 260 f;
#X obj 393 260 f;
#X obj 417 260 f;
#X obj 441 260 f;
#X obj 465 260 f;
#X obj 489 260 f;
#X obj 513 260 f;
#X obj 537 260 f;
#X obj 561 260 f;
#X obj 585 260 f;
#X obj 609 260 f;
#X obj 633 260 f;
#X obj 657 260 f;
#X obj 681 260 f;
#X obj 705 260 f;
#X obj 729 260 f;
#X obj 753 260 f;
#X obj 19 290 f;
#X obj 43 290 f;
#X obj 67 290 f;
#X obj 91 290 f;
#X obj 115 290 f;
#X obj 139 290 f;
#X obj 163 290 f;
#X obj 187 290 f;
#X obj 211 290 f;
#X obj 235 290 f;
#X obj 259 290 f;
#X obj 283 290 f;
#X obj 307 290 f;
#X obj 331 290 f;
#X obj 355 290 f;
#X obj 379 290 f;
#X obj 403 290 f;
#X obj 427 290 f;
#X obj 451 290 f;
#X obj 475 290 f;
#X obj 499 290 f;
#X obj 523 290 f;
#X obj 547 290 f;
#X obj 571 290 f;
#X obj 595 290 f;
#X obj 619 290 f;
#X obj 643 290 f;
#X obj 667 290 f;
#X obj 691 290 f;
#X obj 715 290 f;
#X obj 739 290 f;
#X obj 763 290 f;
#X obj 134 510 outlet;
#X obj 177 510 outlet;
#X obj 220 510 outlet;
#X obj 263 510 outlet;
#X obj 306 510 outlet;
#X obj 349 510 outlet;
#X obj 392 510 outlet;
#X obj 435 510 outlet;
#X obj 478 510 outlet;
#X obj 521 510 outlet;
#X obj 564 510 outlet;
#X obj 607 510 outlet;
#X obj 650 510 outlet;
#X obj 693 510 outlet;
#X obj 736 510 outlet;
#X obj 86 125 unpack f f f f f f f f f f f f f f f f;
#X obj 320 125 unpack f f f f f f f f f f f f f f f f;
#X obj 554 125 unpack f f f f f f f f f f f f f f f f;
#X obj 788 125 unpack f f f f f f f f f f f f f f f f;
#N canvas 0 54 1024 546 secuencia_de_numeros 0;
#X obj 60 327 outlet;
#X obj 290 327 outlet;
#X obj 520 327 outlet;
#X obj 770 327 outlet;
#X msg 10 116 0 1 2 3 4 5 6 7 8 9 10 11 12 13 14 13;
#X msg 246 116 12 11 10 9 8 7 6 5 4 3 2 1 2 3 4 5;
#X msg 467 116 6 7 8 9 10 11 12 11 10 9 8 7 6 5 4 3;
#X msg 700 116 4 5 6 7 8 9 10 9 8 7 6 5 6 7 8 7;
#X msg 25 138 1 2 3 4 5 6 7 8 9 10 11 12 13 12 11 10;
#X msg 264 138 9 8 7 6 5 4 3 2 3 4 5 6 7 8 9 10;
#X msg 480 138 11 10 9 8 7 6 5 4 5 6 7 8 9 8 7 6;
#X msg 38 159 2 3 4 5 6 7 8 9 10 11 12 11 10 9 8 7;
#X msg 271 161 6 5 4 3 4 5 6 7 8 9 10 9 8 7 6 5;
#X msg 51 181 3 4 5 6 7 8 9 10 11 10 9 8 7 6 5 4;
#X msg 61 204 4 5 6 7 8 9 10 9 8 7 6 5 6 7 8 7;
#X obj 366 20 inlet;
#X obj 366 50 sel 0 1 2 3 4 5 6;
#X msg 714 139 7 15 15 15 15 15 15 15 15 15 15 15 15 15 15 15;
#X msg 489 161 6 7 8 7 15 15 15 15 15 15 15 15 15 15 15 15;
#X msg 280 182 5 6 7 8 9 8 7 6 7 15 15 15 15 15 15 15;
#X msg 71 228 5 6 7 8 9 8 7 6 7 15 15 15 15 15 15 15;
#X msg 83 250 6 7 8 7 15 15 15 15 15 15 15 15 15 15 15 15;
#X msg 760 161 15 15 15 15 15 15 15 15 15 15 15 15 15 15 15 15;
#X msg 520 182 15 15 15 15 15 15 15 15 15 15 15 15 15 15 15 15;
#X msg 813 182 15 15 15 15 15 15 15 15 15 15 15 15 15 15 15 15;
#X msg 293 204 15 15 15 15 15 15 15 15 15 15 15 15 15 15 15 15;
#X msg 586 204 15 15 15 15 15 15 15 15 15 15 15 15 15 15 15 15;
#X msg 881 204 15 15 15 15 15 15 15 15 15 15 15 15 15 15 15 15;
#X msg 321 228 15 15 15 15 15 15 15 15 15 15 15 15 15 15 15 15;
#X msg 614 228 15 15 15 15 15 15 15 15 15 15 15 15 15 15 15 15;
#X msg 908 228 15 15 15 15 15 15 15 15 15 15 15 15 15 15 15 15;
#X msg 358 250 15 15 15 15 15 15 15 15 15 15 15 15 15 15 15 15;
#X msg 654 250 15 15 15 15 15 15 15 15 15 15 15 15 15 15 15 15;
#X msg 948 250 15 15 15 15 15 15 15 15 15 15 15 15 15 15 15 15;
#X connect 4 0 0 0;
#X connect 5 0 1 0;
#X connect 6 0 2 0;
#X connect 7 0 3 0;
#X connect 8 0 0 0;
#X connect 9 0 1 0;
#X connect 10 0 2 0;
#X connect 11 0 0 0;
#X connect 12 0 1 0;
#X connect 13 0 0 0;
#X connect 14 0 0 0;
#X connect 15 0 16 0;
#X connect 16 0 4 0;
#X connect 16 0 5 0;
#X connect 16 0 6 0;
#X connect 16 0 7 0;
#X connect 16 1 8 0;
#X connect 16 1 9 0;
#X connect 16 1 10 0;
#X connect 16 1 17 0;
#X connect 16 2 11 0;
#X connect 16 2 12 0;
#X connect 16 2 18 0;
#X connect 16 2 22 0;
#X connect 16 3 13 0;
#X connect 16 3 19 0;
#X connect 16 3 23 0;
#X connect 16 3 24 0;
#X connect 16 4 14 0;
#X connect 16 4 25 0;
#X connect 16 4 26 0;
#X connect 16 4 27 0;
#X connect 16 5 20 0;
#X connect 16 5 28 0;
#X connect 16 5 29 0;
#X connect 16 5 30 0;
#X connect 16 6 21 0;
#X connect 16 6 31 0;
#X connect 16 6 32 0;
#X connect 16 6 33 0;
#X connect 17 0 3 0;
#X connect 18 0 2 0;
#X connect 19 0 1 0;
#X connect 20 0 0 0;
#X connect 21 0 0 0;
#X connect 22 0 3 0;
#X connect 23 0 2 0;
#X connect 24 0 3 0;
#X connect 25 0 1 0;
#X connect 26 0 2 0;
#X connect 27 0 3 0;
#X connect 28 0 1 0;
#X connect 29 0 2 0;
#X connect 30 0 3 0;
#X connect 31 0 1 0;
#X connect 32 0 2 0;
#X connect 33 0 3 0;
#X restore 393 39 pd secuencia_de_numeros;
#X obj 393 10 inlet;
#X obj 322 430 sel 0 1 2 3 4 5 6 7 8 9 10 11 12 13 14;
#X obj 48 10 inlet;
#X obj 806 508 outlet;
#X obj 788 330 t b b;
#X connect 0 0 3 0;
#X connect 0 1 4 0;
#X connect 0 2 5 0;
#X connect 0 3 6 0;
#X connect 0 4 7 0;
#X connect 0 5 8 0;
#X connect 0 6 9 0;
#X connect 0 7 10 0;
#X connect 0 8 11 0;
#X connect 0 9 12 0;
#X connect 0 10 13 0;
#X connect 0 11 14 0;
#X connect 0 12 15 0;
#X connect 0 13 16 0;
#X connect 0 14 17 0;
#X connect 0 15 18 0;
#X connect 0 16 19 0;
#X connect 0 17 20 0;
#X connect 0 18 21 0;
#X connect 0 19 22 0;
#X connect 0 20 23 0;
#X connect 0 21 24 0;
#X connect 0 22 25 0;
#X connect 0 23 26 0;
#X connect 0 24 27 0;
#X connect 0 25 28 0;
#X connect 0 26 29 0;
#X connect 0 27 30 0;
#X connect 0 28 31 0;
#X connect 0 29 32 0;
#X connect 0 30 33 0;
#X connect 0 31 34 0;
#X connect 1 0 35 0;
#X connect 1 1 36 0;
#X connect 1 2 37 0;
#X connect 1 3 38 0;
#X connect 1 4 39 0;
#X connect 1 5 40 0;
#X connect 1 6 41 0;
#X connect 1 7 42 0;
#X connect 1 8 43 0;
#X connect 1 9 44 0;
#X connect 1 10 45 0;
#X connect 1 11 46 0;
#X connect 1 12 47 0;
#X connect 1 13 48 0;
#X connect 1 14 49 0;
#X connect 1 15 50 0;
#X connect 1 16 51 0;
#X connect 1 17 52 0;
#X connect 1 18 53 0;
#X connect 1 19 54 0;
#X connect 1 20 55 0;
#X connect 1 21 56 0;
#X connect 1 22 57 0;
#X connect 1 23 58 0;
#X connect 1 24 59 0;
#X connect 1 25 60 0;
#X connect 1 26 61 0;
#X connect 1 27 62 0;
#X connect 1 28 63 0;
#X connect 1 29 64 0;
#X connect 1 30 65 0;
#X connect 1 31 91 0;
#X connect 2 0 0 0;
#X connect 2 0 1 0;
#X connect 3 0 88 0;
#X connect 4 0 88 0;
#X connect 5 0 88 0;
#X connect 6 0 88 0;
#X connect 7 0 88 0;
#X connect 8 0 88 0;
#X connect 9 0 88 0;
#X connect 10 0 88 0;
#X connect 11 0 88 0;
#X connect 12 0 88 0;
#X connect 13 0 88 0;
#X connect 14 0 88 0;
#X connect 15 0 88 0;
#X connect 16 0 88 0;
#X connect 17 0 88 0;
#X connect 18 0 88 0;
#X connect 19 0 88 0;
#X connect 20 0 88 0;
#X connect 21 0 88 0;
#X connect 22 0 88 0;
#X connect 23 0 88 0;
#X connect 24 0 88 0;
#X connect 25 0 88 0;
#X connect 26 0 88 0;
#X connect 27 0 88 0;
#X connect 28 0 88 0;
#X connect 29 0 88 0;
#X connect 30 0 88 0;
#X connect 31 0 88 0;
#X connect 32 0 88 0;
#X connect 33 0 88 0;
#X connect 34 0 88 0;
#X connect 35 0 88 0;
#X connect 36 0 88 0;
#X connect 37 0 88 0;
#X connect 38 0 88 0;
#X connect 39 0 88 0;
#X connect 40 0 88 0;
#X connect 41 0 88 0;
#X connect 42 0 88 0;
#X connect 43 0 88 0;
#X connect 44 0 88 0;
#X connect 45 0 88 0;
#X connect 46 0 88 0;
#X connect 47 0 88 0;
#X connect 48 0 88 0;
#X connect 49 0 88 0;
#X connect 50 0 88 0;
#X connect 51 0 88 0;
#X connect 52 0 88 0;
#X connect 53 0 88 0;
#X connect 54 0 88 0;
#X connect 55 0 88 0;
#X connect 56 0 88 0;
#X connect 57 0 88 0;
#X connect 58 0 88 0;
#X connect 59 0 88 0;
#X connect 60 0 88 0;
#X connect 61 0 88 0;
#X connect 62 0 88 0;
#X connect 63 0 88 0;
#X connect 64 0 88 0;
#X connect 65 0 88 0;
#X connect 66 0 88 0;
#X connect 82 0 3 1;
#X connect 82 1 4 1;
#X connect 82 2 5 1;
#X connect 82 3 6 1;
#X connect 82 4 7 1;
#X connect 82 5 8 1;
#X connect 82 6 9 1;
#X connect 82 7 10 1;
#X connect 82 8 11 1;
#X connect 82 9 12 1;
#X connect 82 10 13 1;
#X connect 82 11 14 1;
#X connect 82 12 15 1;
#X connect 82 13 16 1;
#X connect 82 14 17 1;
#X connect 82 15 18 1;
#X connect 83 0 19 1;
#X connect 83 1 20 1;
#X connect 83 2 21 1;
#X connect 83 3 22 1;
#X connect 83 4 23 1;
#X connect 83 5 24 1;
#X connect 83 6 25 1;
#X connect 83 7 26 1;
#X connect 83 8 27 1;
#X connect 83 9 28 1;
#X connect 83 10 29 1;
#X connect 83 11 30 1;
#X connect 83 12 31 1;
#X connect 83 13 32 1;
#X connect 83 14 33 1;
#X connect 83 15 34 1;
#X connect 84 0 35 1;
#X connect 84 1 36 1;
#X connect 84 2 37 1;
#X connect 84 3 38 1;
#X connect 84 4 39 1;
#X connect 84 5 40 1;
#X connect 84 6 41 1;
#X connect 84 7 42 1;
#X connect 84 8 43 1;
#X connect 84 9 44 1;
#X connect 84 10 45 1;
#X connect 84 11 46 1;
#X connect 84 12 47 1;
#X connect 84 13 48 1;
#X connect 84 14 49 1;
#X connect 84 15 50 1;
#X connect 85 0 51 1;
#X connect 85 1 52 1;
#X connect 85 2 53 1;
#X connect 85 3 54 1;
#X connect 85 4 55 1;
#X connect 85 5 56 1;
#X connect 85 6 57 1;
#X connect 85 7 58 1;
#X connect 85 8 59 1;
#X connect 85 9 60 1;
#X connect 85 10 61 1;
#X connect 85 11 62 1;
#X connect 85 12 63 1;
#X connect 85 13 64 1;
#X connect 85 14 65 1;
#X connect 85 15 66 1;
#X connect 86 0 82 0;
#X connect 86 1 83 0;
#X connect 86 2 84 0;
#X connect 86 3 85 0;
#X connect 87 0 86 0;
#X connect 88 0 67 0;
#X connect 88 1 68 0;
#X connect 88 2 69 0;
#X connect 88 3 70 0;
#X connect 88 4 71 0;
#X connect 88 5 72 0;
#X connect 88 6 73 0;
#X connect 88 7 74 0;
#X connect 88 8 75 0;
#X connect 88 9 76 0;
#X connect 88 10 77 0;
#X connect 88 11 78 0;
#X connect 88 12 79 0;
#X connect 88 13 80 0;
#X connect 88 14 81 0;
#X connect 89 0 2 0;
#X connect 91 0 90 0;
#X connect 91 1 66 0;
#X restore 451 209 pd sequencerPendular_SesentaYCuatro_steps;
#N canvas 234 296 604 300 recibepulsos 0;
#X obj 216 -4 inlet;
#X obj 7 272 outlet;
#X obj 216 22 sel 0 1 2 3 4;
#X obj 142 186 spigot;
#X obj 205 186 spigot;
#X obj 276 186 spigot;
#X obj 351 186 spigot;
#X obj 428 186 spigot;
#X msg 13 60 1 0 0 0 0;
#X obj 13 82 unpack f f f f f;
#X msg 123 60 1 0 0 0 0;
#X obj 123 82 unpack f f f f f;
#X msg 233 60 1 0 0 0 0;
#X obj 233 82 unpack f f f f f;
#X msg 343 60 1 0 0 0 0;
#X obj 343 82 unpack f f f f f;
#X msg 453 60 1 0 0 0 0;
#X obj 453 82 unpack f f f f f;
#X obj 428 164 r pfusa;
#X obj 351 164 r pscorchea;
#X obj 276 164 r pbardiv12;
#X obj 205 164 r pcorchea;
#X obj 142 164 r pnegra;
#X connect 0 0 2 0;
#X connect 2 0 8 0;
#X connect 2 1 10 0;
#X connect 2 2 12 0;
#X connect 2 3 14 0;
#X connect 2 4 16 0;
#X connect 3 0 1 0;
#X connect 4 0 1 0;
#X connect 5 0 1 0;
#X connect 6 0 1 0;
#X connect 7 0 1 0;
#X connect 8 0 9 0;
#X connect 9 0 3 1;
#X connect 9 1 7 1;
#X connect 9 2 6 1;
#X connect 9 3 5 1;
#X connect 9 4 4 1;
#X connect 10 0 11 0;
#X connect 11 0 4 1;
#X connect 11 1 7 1;
#X connect 11 2 6 1;
#X connect 11 3 5 1;
#X connect 11 4 3 1;
#X connect 12 0 13 0;
#X connect 13 0 5 1;
#X connect 13 1 7 1;
#X connect 13 2 6 1;
#X connect 13 3 4 1;
#X connect 13 4 3 1;
#X connect 14 0 15 0;
#X connect 15 0 6 1;
#X connect 15 1 7 1;
#X connect 15 2 5 1;
#X connect 15 3 4 1;
#X connect 15 4 3 1;
#X connect 16 0 17 0;
#X connect 17 0 7 1;
#X connect 17 1 6 1;
#X connect 17 2 5 1;
#X connect 17 3 4 1;
#X connect 17 4 3 1;
#X connect 18 0 7 0;
#X connect 19 0 6 0;
#X connect 20 0 5 0;
#X connect 21 0 4 0;
#X connect 22 0 3 0;
#X restore 357 5 pd recibepulsos;
#X obj 651 156 i;
#X obj 475 6 metro 200;
#X obj 475 28 f;
#X obj 501 28 + 1;
#X obj 377 76 spigot;
#X obj 467 76 spigot;
#X msg 472 -19 1;
#X msg 502 -19 0;
#X obj 342 -33 i;
#X obj 161 103 tgl 10 0 empty empty ext 12 5 1 9 -66577 -3707 -1 1
1;
#X obj 197 -48 sel 0 1;
#X obj 196 19 unpack f f;
#X msg 196 -2 1 0;
#X obj 266 19 unpack f f;
#X msg 266 -2 1 0;
#X msg 65 -84 1;
#X msg 102 -84 3;
#X msg 137 -84 200;
#X obj 269 103 cnv 10 70 50 empty empty empty 20 12 0 14 -262144 -66577
0;
#X obj 263 147 cnv 8 8 8 empty empty centro 2 5 1 9 -262144 -1 0;
#X obj 316 147 cnv 8 8 8 empty empty salto 2 5 1 9 -262144 -1 0;
#X obj 274 121 hsl 24 10 0 5 0 0 empty empty empty -2 5 1 9 -66577
-3707 -228856 0 1;
#X floatatom 271 104 5 0 0 0 - - -, f 5;
#X obj 304 108 cnv 10 10 10 empty empty tiempo 2 6 1 9 -262144 -66577
0;
#X obj 274 134 hsl 24 10 0 4 0 0 empty empty empty 3 5 1 9 -66577 -3707
-228856 2300 1;
#X obj 304 121 cnv 10 10 10 empty empty fuerza 2 6 1 9 -262144 -66577
0;
#X obj 304 134 cnv 10 10 10 empty empty beat 2 6 1 9 -262144 -66577
0;
#X connect 1 0 18 0;
#X connect 2 0 20 0;
#X connect 3 0 22 0;
#X connect 4 0 24 0;
#X connect 5 0 26 0;
#X connect 6 0 28 0;
#X connect 7 0 30 0;
#X connect 8 0 32 0;
#X connect 9 0 34 0;
#X connect 10 0 36 0;
#X connect 11 0 38 0;
#X connect 12 0 40 0;
#X connect 13 0 42 0;
#X connect 14 0 44 0;
#X connect 15 0 46 0;
#X connect 17 0 18 1;
#X connect 18 0 56 0;
#X connect 18 0 57 0;
#X connect 18 0 60 0;
#X connect 19 0 20 1;
#X connect 20 0 56 0;
#X connect 20 0 57 0;
#X connect 21 0 22 1;
#X connect 22 0 56 0;
#X connect 22 0 57 0;
#X connect 22 0 60 0;
#X connect 23 0 24 1;
#X connect 24 0 56 0;
#X connect 24 0 58 0;
#X connect 25 0 26 1;
#X connect 26 0 56 0;
#X connect 26 0 58 0;
#X connect 26 0 60 0;
#X connect 27 0 28 1;
#X connect 28 0 56 0;
#X connect 28 0 58 0;
#X connect 29 0 30 1;
#X connect 30 0 56 0;
#X connect 30 0 60 0;
#X connect 31 0 32 1;
#X connect 32 0 56 0;
#X connect 32 0 59 0;
#X connect 33 0 34 1;
#X connect 34 0 56 0;
#X connect 34 0 60 0;
#X connect 35 0 36 1;
#X connect 36 0 56 0;
#X connect 36 0 58 0;
#X connect 37 0 38 1;
#X connect 38 0 56 0;
#X connect 38 0 58 0;
#X connect 38 0 60 0;
#X connect 39 0 40 1;
#X connect 40 0 56 0;
#X connect 40 0 58 0;
#X connect 41 0 42 1;
#X connect 42 0 56 0;
#X connect 42 0 57 0;
#X connect 42 0 60 0;
#X connect 43 0 44 1;
#X connect 44 0 56 0;
#X connect 44 0 57 0;
#X connect 45 0 46 1;
#X connect 46 0 56 0;
#X connect 46 0 57 0;
#X connect 46 0 60 0;
#X connect 47 0 83 0;
#X connect 47 0 84 0;
#X connect 47 0 85 0;
#X connect 50 0 49 0;
#X connect 50 0 74 0;
#X connect 56 0 61 0;
#X connect 57 0 62 0;
#X connect 58 0 63 0;
#X connect 59 0 64 0;
#X connect 60 0 65 0;
#X connect 66 0 1 0;
#X connect 66 1 2 0;
#X connect 66 2 3 0;
#X connect 66 3 4 0;
#X connect 66 4 5 0;
#X connect 66 5 6 0;
#X connect 66 6 7 0;
#X connect 66 7 8 0;
#X connect 66 8 9 0;
#X connect 66 9 10 0;
#X connect 66 10 11 0;
#X connect 66 11 12 0;
#X connect 66 12 13 0;
#X connect 66 13 14 0;
#X connect 66 14 15 0;
#X connect 66 15 75 0;
#X connect 67 0 72 0;
#X connect 68 0 66 1;
#X connect 69 0 70 0;
#X connect 70 0 71 0;
#X connect 70 0 73 0;
#X connect 71 0 70 1;
#X connect 72 0 66 0;
#X connect 73 0 66 0;
#X connect 74 0 69 0;
#X connect 75 0 69 0;
#X connect 76 0 67 0;
#X connect 77 0 78 0;
#X connect 78 0 82 0;
#X connect 78 1 80 0;
#X connect 79 0 72 1;
#X connect 79 1 73 1;
#X connect 80 0 79 0;
#X connect 81 0 73 1;
#X connect 81 1 72 1;
#X connect 82 0 81 0;
#X connect 83 0 77 0;
#X connect 83 0 89 0;
#X connect 84 0 92 0;
#X connect 85 0 90 0;
#X connect 89 0 68 0;
#X connect 90 0 69 1;
#X connect 92 0 76 0;
#X coords 0 -1 1 1 242 58 2 100 100;
