#N canvas 0 54 1024 546 10;
#X obj 104 104 cnv 8 72 104 empty empty empty 20 12 0 14 -262144 -66577
0;
#X obj 106 127 vsl 30 67 0 66 0 0 empty empty PHF 4 12 1 12 -262144
-3707 -3707 5000 1;
#X obj 141 127 vsl 15 30 1 31 0 0 empty empty empty 0 -9 0 10 -262144
-3707 -1 2400 1;
#X obj 141 164 vsl 15 30 1 31 0 0 empty empty empty 0 -9 0 10 -262144
-3707 -1 300 1;
#X obj 158 127 vsl 15 30 1 31 0 0 empty empty empty 0 -9 0 10 -262144
-3707 -1 750 1;
#X obj 158 164 vsl 15 30 1 31 0 0 empty empty empty 0 -9 0 10 -262144
-3707 -1 1200 1;
#X obj 104 104 cnv 8 72 10 empty empty empty 20 12 0 14 -262144 -66577
0;
#X obj 139 199 cnv 8 8 8 empty empty -decay- 2 4 1 9 -262144 -1 0;
#X obj 111 199 cnv 8 8 8 empty empty amp 2 4 1 9 -262144 -1 0;
#X obj 143 116 cnv 8 8 8 empty empty hz 2 4 1 9 -262144 -1 0;
#X obj 158 116 cnv 8 8 8 empty empty fm 2 4 1 9 -262144 -1 0;
#X obj 33 6 inlet Trigger;
#X obj 102 103 cnv 8 8 8 empty empty trig 2 5 1 9 -262144 -162280 0
;
#X obj 153 103 cnv 8 8 8 empty empty cvFM 2 5 1 9 -262144 -162280 0
;
#X obj 126 103 cnv 8 8 8 empty empty cvHZ 2 5 1 9 -262144 -162280 0
;
#X obj 131 7 inlet~ CVHZ;
#X obj 207 7 inlet~ cvFM;
#X obj 386 8 loadbang;
#X obj 106 117 cnv 5 30 5 empty empty empty 20 12 0 14 -3707 -66577
0;
#X obj 242 349 clip~ -1 1;
#X obj 242 327 *~ 50;
#X obj 242 306 osc~;
#X obj 242 371 lop~;
#X obj 292 308 / 2;
#X obj 331 96 noise~;
#X obj 404 146 *~;
#X obj 404 218 *~;
#X obj 442 198 line~;
#X obj 242 258 +~;
#X msg 451 167 \$1 \, \$2 \$3;
#X obj 452 143 pack f f f;
#X obj 509 122 f;
#X msg 480 122 0;
#X msg 450 122 1;
#X obj 457 60 t b b b;
#X obj 242 393 *~;
#X obj 404 195 hip~;
#X obj 524 95 * 10;
#X obj 218 212 * 1000;
#X obj 442 408 line~;
#X msg 451 357 \$1 \, \$2 \$3;
#X obj 452 333 pack f f f;
#X obj 509 312 f;
#X msg 480 312 0;
#X msg 450 312 1;
#X obj 457 250 t b b b;
#X obj 524 285 * 10;
#X obj 219 144 * 1000;
#X msg 337 33 25;
#X msg 366 33 16;
#X msg 396 33 7;
#X msg 425 33 12;
#X obj 241 489 outlet~;
#X msg 308 33 66;
#X obj 242 282 +~;
#X obj 132 30 *~ 15000;
#X obj 207 30 *~ 15000;
#X obj 247 435 *~;
#X obj 275 434 line~;
#X msg 277 413 \$1 20;
#X obj 283 387 / 66;
#X obj 447 219 +~;
#X connect 1 0 60 0;
#X connect 2 0 38 0;
#X connect 3 0 46 0;
#X connect 4 0 47 0;
#X connect 5 0 37 0;
#X connect 11 0 34 0;
#X connect 11 0 45 0;
#X connect 15 0 55 0;
#X connect 16 0 56 0;
#X connect 17 0 48 0;
#X connect 17 0 49 0;
#X connect 17 0 50 0;
#X connect 17 0 51 0;
#X connect 17 0 53 0;
#X connect 19 0 22 0;
#X connect 20 0 19 0;
#X connect 21 0 20 0;
#X connect 22 0 35 0;
#X connect 23 0 22 1;
#X connect 24 0 25 0;
#X connect 25 0 36 0;
#X connect 26 0 28 1;
#X connect 27 0 61 0;
#X connect 28 0 54 0;
#X connect 29 0 27 0;
#X connect 30 0 29 0;
#X connect 31 0 30 2;
#X connect 32 0 30 1;
#X connect 33 0 30 0;
#X connect 34 0 33 0;
#X connect 34 1 32 0;
#X connect 34 2 31 0;
#X connect 35 0 57 0;
#X connect 36 0 26 0;
#X connect 37 0 31 1;
#X connect 38 0 23 0;
#X connect 38 0 28 0;
#X connect 39 0 35 1;
#X connect 40 0 39 0;
#X connect 41 0 40 0;
#X connect 42 0 41 2;
#X connect 43 0 41 1;
#X connect 44 0 41 0;
#X connect 45 0 44 0;
#X connect 45 1 43 0;
#X connect 45 2 42 0;
#X connect 46 0 42 1;
#X connect 47 0 25 1;
#X connect 47 0 36 1;
#X connect 48 0 2 0;
#X connect 49 0 4 0;
#X connect 50 0 3 0;
#X connect 51 0 5 0;
#X connect 53 0 1 0;
#X connect 54 0 21 0;
#X connect 55 0 54 1;
#X connect 56 0 61 1;
#X connect 57 0 52 0;
#X connect 58 0 57 1;
#X connect 59 0 58 0;
#X connect 60 0 59 0;
#X connect 61 0 26 1;
#X coords 0 -1 1 1 80 112 2 100 100;
