#N canvas 0 54 1024 546 10;
#X obj 67 -189 phasor~;
#X obj 67 -167 *~ 2;
#X obj 67 -145 -~ 1;
#X text 42 -188 Saw;
#X obj 67 -86 cos~;
#X text 36 -85 sine;
#X obj 67 -34 *~ 50;
#X obj 67 -12 clip~ -1 1;
#X text 24 -34 square;
#X obj 67 50 lop~;
#X obj 67 70 +~ 0.5;
#X obj 67 90 *~ 2;
#X obj 67 112 -~ 1;
#X obj 67 134 clip~ -1 1;
#X obj 88 22 expr $f1-($f1/3);
#X text 12 51 triangle;
#X obj 287 -129 phasor~;
#X obj 287 -107 *~ 2;
#X obj 287 -63 *~ -1;
#X obj 287 -85 -~ 1;
#X obj 287 -41 clip~ -1 1;
#X text 225 -40 squarePWM;
#X obj 175 161 clip~ -1 1;
#X text 113 162 metalizer;
#X text 516 -77 PWM / metalizer;
#X obj 289 -2 clip~ -1 1;
#X text 240 -2 saw/sqr;
#X obj 289 67 clip~ -1 1;
#X text 241 68 saw cut;
#X obj 71 -350 inlet midi_note;
#X obj 71 -268 mtof;
#X obj 88 -220 +~;
#X obj 177 -228 *~;
#X obj 202 -228 line~;
#X msg 202 -249 \$1 20;
#X obj 455 -76 / 63;
#X obj 488 -76 / 63;
#X obj 177 -350 inlet~ CVmod;
#X obj 728 -76 select 0 1 2 3 4;
#X obj 707 6 +;
#X obj 789 4 +;
#X msg 499 -296 3;
#X msg 534 -296 0;
#X msg 797 -49 60;
#X msg 766 -49 48;
#X msg 737 -49 36;
#X msg 708 -49 24;
#X msg 827 -49 72;
#N canvas 0 82 641 300 MidiACifradoAmericano 0;
#X obj 22 16 inlet;
#X obj 24 239 outlet;
#X msg 22 122 set C;
#X msg 113 122 set D;
#X msg 155 122 set D#;
#X msg 64 122 set C#;
#X msg 202 122 set E;
#X msg 245 122 set F;
#X msg 289 122 set F#;
#X msg 336 122 set G;
#X msg 379 122 set G#;
#X msg 427 122 set A;
#X msg 471 122 set A#;
#X msg 518 122 set B;
#X obj 22 38 sel 0 1 2 3 4 5 6 7 8 9 10 11;
#X connect 0 0 14 0;
#X connect 2 0 1 0;
#X connect 3 0 1 0;
#X connect 4 0 1 0;
#X connect 5 0 1 0;
#X connect 6 0 1 0;
#X connect 7 0 1 0;
#X connect 8 0 1 0;
#X connect 9 0 1 0;
#X connect 10 0 1 0;
#X connect 11 0 1 0;
#X connect 12 0 1 0;
#X connect 13 0 1 0;
#X connect 14 0 2 0;
#X connect 14 1 5 0;
#X connect 14 2 3 0;
#X connect 14 3 4 0;
#X connect 14 4 6 0;
#X connect 14 5 7 0;
#X connect 14 6 8 0;
#X connect 14 7 9 0;
#X connect 14 8 10 0;
#X connect 14 9 11 0;
#X connect 14 10 12 0;
#X connect 14 11 13 0;
#X restore 752 -148 pd MidiACifradoAmericano;
#X obj 270 161 outlet~ SIN;
#X obj 346 161 outlet~ TRI;
#X obj 424 161 outlet~ SQR;
#X obj 499 161 outlet~ SQRPWM;
#X obj 593 161 outlet~ SAW;
#X obj 667 161 outlet~ METALIZER;
#X obj 777 161 outlet~ SAW/SQR;
#X obj 874 161 outlet~ SAWCUT;
#X obj 403 -197 cnv 15 160 106 empty empty empty 20 12 0 14 -259826
-66577 0;
#X obj 456 -109 cnv 4 8 8 empty empty modIn 0 4 1 9 -259826 -262144
0;
#X obj 497 -109 cnv 4 8 8 empty empty PWM 0 4 1 9 -259826 -262144 0
;
#X obj 423 -180 cnv 4 8 8 empty empty <oct 0 4 1 9 -259826 -262144
0;
#X floatatom 424 -160 3 0 11 0 - - -, f 3;
#X symbolatom 424 -143 3 0 0 0 - - -, f 3;
#X obj 423 -170 cnv 4 8 8 empty empty semi 0 4 1 9 -259826 -262144
0;
#X obj 404 -99 cnv 4 8 8 empty empty sin 0 4 1 9 -259826 -262144 0
;
#X obj 422 -99 cnv 4 8 8 empty empty tri 0 4 1 9 -259826 -262144 0
;
#X obj 440 -99 cnv 4 8 8 empty empty sqr 0 4 1 9 -259826 -262144 0
;
#X obj 460 -99 cnv 4 8 8 empty empty pwm 0 4 1 9 -259826 -262144 0
;
#X obj 484 -99 cnv 4 8 8 empty empty saw 0 4 1 9 -259826 -262144 0
;
#X obj 507 -99 cnv 4 8 8 empty empty mtlz 0 4 1 9 -259826 -262144 0
;
#X obj 529 -99 cnv 4 8 8 empty empty swq 0 4 1 9 -259826 -262144 0
;
#X obj 549 -99 cnv 4 8 8 empty empty cut 0 4 1 9 -259826 -262144 0
;
#X obj 499 -349 loadbang;
#X obj 407 -122 cnv 4 8 8 empty empty pink 0 4 1 9 -259826 -262144
0;
#X obj 406 -111 cnv 4 8 8 empty empty OSC 0 4 1 18 -259826 -262144
0;
#X obj 404 -196 cnv 4 8 8 empty empty midiIN 0 4 1 9 -259826 -262144
0;
#X obj 462 -196 cnv 4 8 8 empty empty ~CVmod 0 4 1 9 -259826 -262144
0;
#X obj 177 -328 *~ 1000;
#X obj 488 -32 line;
#X obj 453 -184 cnv 15 34 73 empty empty empty 20 12 0 14 -262144 -66577
0;
#X obj 455 -180 vsl 30 64 0 63 0 0 empty empty empty 0 -9 0 10 -259826
-262144 -1 0 1;
#X obj 490 -184 cnv 15 34 73 empty empty empty 20 12 0 14 -262144 -66577
0;
#X obj 492 -180 vsl 30 64 0 63 0 0 empty empty empty 0 -9 0 10 -259826
-262144 -1 200 1;
#X obj 407 -181 cnv 8 14 54 empty empty empty 20 12 0 14 -262144 -66577
0;
#X obj 409 -179 vradio 10 1 0 5 empty empty empty 0 -8 0 10 -259826
-262144 -1 3;
#X msg 488 -54 \$1 20;
#X obj 235 -190 *~ 1000;
#X obj 234 -157 *~;
#X obj 197 -176 *~;
#X obj 527 -171 cnv 8 14 34 empty empty empty 20 12 0 14 -262144 -66577
0;
#X obj 529 -169 vradio 10 1 0 3 empty empty empty 0 -8 0 10 -259826
-262144 -1 2;
#X obj 543 -167 cnv 4 8 8 empty empty low 0 4 1 9 -259826 -262144 0
;
#X obj 543 -147 cnv 4 8 8 empty empty high 0 4 1 9 -259826 -262144
0;
#X obj 543 -157 cnv 4 8 8 empty empty mid 0 4 1 9 -259826 -262144 0
;
#X obj 533 -182 cnv 4 8 8 empty empty freq 0 4 1 9 -259826 -262144
0;
#X obj 268 -272 t b b;
#X msg 268 -250 1;
#X msg 297 -250 0;
#X obj 328 -272 t b b;
#X msg 328 -250 1;
#X msg 357 -250 0;
#X obj 388 -272 t b b;
#X msg 388 -250 1;
#X msg 417 -250 0;
#X obj 282 -349 inlet SYNC;
#X msg 282 -327 0;
#X obj 542 -196 cnv 4 8 8 empty empty sync 0 4 1 9 -259826 -262144
0;
#X obj 151 -157 *~;
#X obj 448 -272 t b b;
#X msg 448 -250 1;
#X msg 477 -250 0;
#X obj 278 -303 sel 0 1 2 3;
#X msg 569 -296 2;
#X obj 152 -189 /~ 48;
#X msg 604 -296 1;
#X connect 0 0 1 0;
#X connect 1 0 2 0;
#X connect 2 0 4 0;
#X connect 2 0 20 0;
#X connect 2 0 25 0;
#X connect 2 0 27 0;
#X connect 2 0 53 0;
#X connect 4 0 6 0;
#X connect 4 0 49 0;
#X connect 6 0 7 0;
#X connect 7 0 9 0;
#X connect 7 0 51 0;
#X connect 9 0 10 0;
#X connect 9 0 50 0;
#X connect 10 0 11 0;
#X connect 11 0 12 0;
#X connect 12 0 13 0;
#X connect 13 0 22 0;
#X connect 14 0 9 1;
#X connect 16 0 17 0;
#X connect 17 0 19 0;
#X connect 18 0 20 0;
#X connect 19 0 18 0;
#X connect 19 0 25 0;
#X connect 19 0 27 0;
#X connect 20 0 22 0;
#X connect 20 0 27 0;
#X connect 20 0 52 0;
#X connect 22 0 54 0;
#X connect 25 0 55 0;
#X connect 27 0 56 0;
#X connect 29 0 30 0;
#X connect 30 0 14 0;
#X connect 30 0 31 0;
#X connect 31 0 86 0;
#X connect 31 0 88 0;
#X connect 31 0 113 0;
#X connect 32 0 31 1;
#X connect 33 0 32 1;
#X connect 34 0 33 0;
#X connect 35 0 34 0;
#X connect 36 0 85 0;
#X connect 37 0 77 0;
#X connect 38 0 46 0;
#X connect 38 1 45 0;
#X connect 38 2 44 0;
#X connect 38 3 43 0;
#X connect 38 4 47 0;
#X connect 39 0 30 0;
#X connect 40 0 30 0;
#X connect 41 0 84 0;
#X connect 42 0 61 0;
#X connect 43 0 39 0;
#X connect 43 0 40 1;
#X connect 44 0 39 0;
#X connect 44 0 40 1;
#X connect 45 0 39 0;
#X connect 45 0 40 1;
#X connect 46 0 39 0;
#X connect 46 0 40 1;
#X connect 47 0 39 0;
#X connect 47 0 40 1;
#X connect 48 0 62 0;
#X connect 61 0 48 0;
#X connect 61 0 39 1;
#X connect 61 0 40 0;
#X connect 72 0 41 0;
#X connect 72 0 42 0;
#X connect 72 0 112 0;
#X connect 72 0 114 0;
#X connect 77 0 32 0;
#X connect 78 0 16 1;
#X connect 80 0 35 0;
#X connect 82 0 36 0;
#X connect 84 0 38 0;
#X connect 85 0 78 0;
#X connect 86 0 87 0;
#X connect 87 0 0 0;
#X connect 87 0 16 0;
#X connect 88 0 0 0;
#X connect 88 0 16 0;
#X connect 90 0 111 0;
#X connect 95 0 96 0;
#X connect 95 1 97 0;
#X connect 96 0 107 1;
#X connect 97 0 88 1;
#X connect 97 0 87 1;
#X connect 98 0 99 0;
#X connect 98 1 100 0;
#X connect 99 0 88 1;
#X connect 100 0 107 1;
#X connect 100 0 87 1;
#X connect 101 0 102 0;
#X connect 101 1 103 0;
#X connect 102 0 87 1;
#X connect 103 0 107 1;
#X connect 103 0 88 1;
#X connect 104 0 105 0;
#X connect 105 0 0 1;
#X connect 107 0 0 0;
#X connect 107 0 16 0;
#X connect 108 0 109 0;
#X connect 108 1 110 0;
#X connect 111 0 95 0;
#X connect 111 1 98 0;
#X connect 111 2 101 0;
#X connect 111 4 108 0;
#X connect 112 0 82 0;
#X connect 112 0 80 0;
#X connect 113 0 107 0;
#X connect 114 0 90 0;
#X coords 0 -1 1 1 166 112 2 400 -200;
