#N canvas 0 82 684 448 10;
#X obj 104 104 cnv 15 112 104 empty empty empty 20 12 0 14 -228856
-66577 0;
#X floatatom 106 119 3 0 127 0 - - -, f 3;
#X floatatom 128 119 3 0 127 0 - - -, f 3;
#X floatatom 150 119 3 0 127 0 - - -, f 3;
#X floatatom 172 119 3 0 127 0 - - -, f 3;
#X floatatom 194 119 3 0 127 0 - - -, f 3;
#X obj 106 138 vsl 20 64 0 127 0 0 empty empty empty 0 -9 0 10 -66577
-3707 -1 0 1;
#X obj 128 138 vsl 20 64 0 127 0 0 empty empty empty 0 -9 0 10 -66577
-3707 -1 0 1;
#X obj 150 138 vsl 20 64 0 127 0 0 empty empty empty 0 -9 0 10 -66577
-3707 -1 0 1;
#X obj 172 138 vsl 20 64 0 127 0 0 empty empty empty 0 -9 0 10 -66577
-3707 -1 0 1;
#X obj 194 138 vsl 20 64 0 127 0 0 empty empty empty 0 -9 0 10 -66577
-3707 -1 0 1;
#X obj 126 266 osc~;
#X obj 126 244 mtof;
#X obj 126 318 *~;
#X obj 163 285 line~;
#X msg 163 265 \$1 20;
#X obj 163 244 / 127;
#X obj 206 266 osc~;
#X obj 206 244 mtof;
#X obj 206 318 *~;
#X obj 243 285 line~;
#X msg 243 265 \$1 20;
#X obj 243 244 / 127;
#X obj 286 266 osc~;
#X obj 286 244 mtof;
#X obj 286 318 *~;
#X obj 323 285 line~;
#X msg 323 265 \$1 20;
#X obj 323 244 / 127;
#X obj 366 266 osc~;
#X obj 366 244 mtof;
#X obj 366 318 *~;
#X obj 403 285 line~;
#X msg 403 265 \$1 20;
#X obj 403 244 / 127;
#X obj 446 266 osc~;
#X obj 446 244 mtof;
#X obj 446 318 *~;
#X obj 483 285 line~;
#X msg 483 265 \$1 20;
#X obj 483 244 / 127;
#X obj 281 384 outlet~;
#X obj 173 107 cnv 8 8 8 empty empty PLANO 0 5 1 12 -228856 -66577
0;
#X connect 1 0 12 0;
#X connect 2 0 18 0;
#X connect 3 0 24 0;
#X connect 4 0 30 0;
#X connect 5 0 36 0;
#X connect 6 0 16 0;
#X connect 7 0 22 0;
#X connect 8 0 28 0;
#X connect 9 0 34 0;
#X connect 10 0 40 0;
#X connect 11 0 13 0;
#X connect 12 0 11 0;
#X connect 13 0 41 0;
#X connect 14 0 13 1;
#X connect 15 0 14 0;
#X connect 16 0 15 0;
#X connect 17 0 19 0;
#X connect 18 0 17 0;
#X connect 19 0 41 0;
#X connect 20 0 19 1;
#X connect 21 0 20 0;
#X connect 22 0 21 0;
#X connect 23 0 25 0;
#X connect 24 0 23 0;
#X connect 25 0 41 0;
#X connect 26 0 25 1;
#X connect 27 0 26 0;
#X connect 28 0 27 0;
#X connect 29 0 31 0;
#X connect 30 0 29 0;
#X connect 31 0 41 0;
#X connect 32 0 31 1;
#X connect 33 0 32 0;
#X connect 34 0 33 0;
#X connect 35 0 37 0;
#X connect 36 0 35 0;
#X connect 37 0 41 0;
#X connect 38 0 37 1;
#X connect 39 0 38 0;
#X connect 40 0 39 0;
#X coords 0 -1 1 1 120 112 2 100 100;
