#N canvas 0 54 1024 546 10;
#X obj 575 339 osc~;
#X obj 725 361 *~;
#X obj 768 361 line~;
#X msg 767 338 \$1 \, \$2 \$3;
#X obj 764 316 pack f f f;
#X obj 820 293 f;
#X msg 756 292 1;
#X msg 786 292 0;
#X obj 774 263 t b b b;
#X obj 725 383 *~;
#X obj 768 381 line~;
#X msg 916 373 \$1 20;
#X obj 575 294 +~;
#X msg 637 228 \$1 \, \$2 \$3;
#X obj 634 206 pack f f f;
#X obj 637 250 line~;
#X obj 686 185 f;
#X msg 656 185 0;
#X obj 629 185 f;
#X obj 610 273 *~;
#X obj 594 163 * 100;
#X obj 634 143 t b b b;
#X obj 581 251 osc~;
#X msg 507 198 \$1 \, \$2 \$3;
#X obj 504 176 pack f f f;
#X obj 556 155 f;
#X obj 499 155 f;
#X obj 527 155 f;
#X obj 514 123 t b b b;
#X obj 578 230 line;
#X obj 352 124 * 2;
#X obj 104 104 cnv 8 72 104 empty empty empty 20 12 0 14 -262144 -66577
0;
#X obj 106 127 vsl 30 67 0 66 0 0 empty empty PLF 4 12 1 12 -262144
-1 -1 6600 1;
#X obj 141 127 vsl 15 30 1 121 0 0 empty empty empty 0 -9 0 10 -262144
-1 -1 1426 1;
#X obj 141 164 vsl 15 30 1 31 0 0 empty empty empty 0 -9 0 10 -262144
-1 -1 1837 1;
#X obj 830 256 pow 2;
#X obj 158 127 vsl 15 30 1 31 0 0 empty empty empty 0 -9 0 10 -262144
-1 -1 0 1;
#X obj 158 164 vsl 15 30 1 31 0 0 empty empty empty 0 -9 0 10 -262144
-1 -1 870 1;
#X obj 526 86 pow 2;
#X obj 916 351 / 66;
#X obj 104 104 cnv 8 72 10 empty empty empty 20 12 0 14 -262144 -66577
0;
#X obj 139 199 cnv 8 8 8 empty empty -decay- 2 4 1 9 -262144 -1 0;
#X obj 111 199 cnv 8 8 8 empty empty amp 2 4 1 9 -262144 -1 0;
#X obj 143 116 cnv 8 8 8 empty empty hz 2 4 1 9 -262144 -1 0;
#X obj 158 116 cnv 8 8 8 empty empty fm 2 4 1 9 -262144 -1 0;
#X obj 103 6 inlet Trigger;
#X obj 102 103 cnv 8 8 8 empty empty trig 2 5 1 9 -262144 -162280 0
;
#X obj 153 103 cnv 8 8 8 empty empty cvFM 2 5 1 9 -262144 -162280 0
;
#X obj 126 103 cnv 8 8 8 empty empty cvHZ 2 5 1 9 -262144 -162280 0
;
#X obj 201 7 inlet~ CVHZ;
#X obj 277 7 inlet~ cvFM;
#X obj 648 273 +~;
#X obj 575 316 +~;
#X obj 201 29 *~ 100;
#X obj 728 436 outlet~;
#X obj 386 8 loadbang;
#X msg 387 34 66;
#X msg 474 35 20;
#X msg 444 36 60;
#X msg 508 34 10;
#X msg 415 35 1;
#X obj 277 29 *~ 300;
#X obj 106 117 cnv 5 30 5 empty empty empty 20 12 0 14 -1 -66577 0
;
#X obj 725 405 *~ 1.5;
#X connect 0 0 1 0;
#X connect 1 0 9 0;
#X connect 2 0 1 1;
#X connect 3 0 2 0;
#X connect 4 0 3 0;
#X connect 5 0 4 2;
#X connect 6 0 4 0;
#X connect 7 0 4 1;
#X connect 8 0 6 0;
#X connect 8 1 7 0;
#X connect 8 2 5 0;
#X connect 9 0 63 0;
#X connect 10 0 9 1;
#X connect 11 0 10 0;
#X connect 12 0 52 0;
#X connect 13 0 15 0;
#X connect 14 0 13 0;
#X connect 15 0 51 0;
#X connect 16 0 14 2;
#X connect 17 0 14 1;
#X connect 18 0 14 0;
#X connect 19 0 12 1;
#X connect 20 0 18 1;
#X connect 21 0 18 0;
#X connect 21 1 17 0;
#X connect 21 2 16 0;
#X connect 22 0 19 0;
#X connect 23 0 29 0;
#X connect 24 0 23 0;
#X connect 25 0 24 2;
#X connect 26 0 24 0;
#X connect 27 0 24 1;
#X connect 28 0 26 0;
#X connect 28 1 27 0;
#X connect 28 2 25 0;
#X connect 29 0 22 0;
#X connect 30 0 26 1;
#X connect 32 0 39 0;
#X connect 33 0 30 0;
#X connect 33 0 12 0;
#X connect 34 0 35 0;
#X connect 35 0 5 1;
#X connect 36 0 20 0;
#X connect 37 0 38 0;
#X connect 38 0 25 1;
#X connect 38 0 16 1;
#X connect 39 0 11 0;
#X connect 45 0 28 0;
#X connect 45 0 21 0;
#X connect 45 0 8 0;
#X connect 49 0 53 0;
#X connect 50 0 61 0;
#X connect 51 0 19 1;
#X connect 52 0 0 0;
#X connect 53 0 52 1;
#X connect 55 0 56 0;
#X connect 55 0 60 0;
#X connect 55 0 58 0;
#X connect 55 0 57 0;
#X connect 55 0 59 0;
#X connect 56 0 32 0;
#X connect 57 0 34 0;
#X connect 58 0 33 0;
#X connect 59 0 37 0;
#X connect 60 0 36 0;
#X connect 61 0 51 1;
#X connect 63 0 54 0;
#X coords 0 -1 1 1 80 112 2 100 100;
