#N canvas 0 54 1024 546 10;
#X obj 503 380 textfile;
#X msg 441 308 clear;
#X msg 496 308 add \$1;
#X obj 496 281 f;
#X obj 496 252 t b f;
#X obj 4 133 f;
#X obj 28 133 f;
#X obj 52 133 f;
#X obj 76 133 f;
#X obj 100 133 f;
#X obj 124 133 f;
#X obj 148 133 f;
#X obj 172 133 f;
#X obj 196 133 f;
#X obj 220 133 f;
#X obj 244 133 f;
#X obj 268 133 f;
#X obj 292 133 f;
#X obj 559 279 print preset;
#X obj 316 133 f;
#X obj 340 133 f;
#X obj 364 133 f;
#X obj 388 133 f;
#X obj 412 133 f;
#X obj 436 133 f;
#X obj 460 133 f;
#X obj 484 133 f;
#X obj 508 133 f;
#X obj 532 133 f;
#X obj 556 133 f;
#X obj 580 133 f;
#X obj 604 133 f;
#X obj 628 133 f;
#X obj 652 133 f;
#X obj 676 133 f;
#X obj 700 133 f;
#X obj 3 -7 inlet;
#X obj 39 -7 inlet;
#X obj 49 13 inlet;
#X obj 59 33 inlet;
#X obj 96 -7 inlet;
#X obj 106 13 inlet;
#X obj 116 33 inlet;
#X obj 153 -7 inlet;
#X obj 163 13 inlet;
#X obj 173 33 inlet;
#X obj 219 -7 inlet;
#X obj 229 13 inlet;
#X obj 239 33 inlet;
#X obj 296 -7 inlet;
#X obj 306 13 inlet;
#X obj 316 33 inlet;
#X obj 373 -7 inlet;
#X obj 383 13 inlet;
#X obj 393 33 inlet;
#X obj 449 -7 inlet;
#X obj 459 13 inlet;
#X obj 469 33 inlet;
#X obj 516 -7 inlet;
#X obj 526 13 inlet;
#X obj 536 33 inlet;
#X obj 583 -7 inlet;
#X obj 593 13 inlet;
#X obj 603 33 inlet;
#X obj 650 -7 inlet;
#X obj 660 13 inlet;
#X obj 670 33 inlet;
#X obj 556 330 f;
#X obj 585 330 + 1;
#X obj 898 173 openpanel;
#X obj 898 267 textfile;
#X msg 898 195 read \$1;
#X msg 939 239 rewind;
#X obj 912 217 t b b;
#X obj 939 -7 inlet;
#X obj 9 484 outlet;
#X obj 19 504 outlet;
#X obj 52 484 outlet;
#X obj 62 504 outlet;
#X obj 95 484 outlet;
#X obj 105 504 outlet;
#X obj 138 484 outlet;
#X obj 148 504 outlet;
#X obj 181 484 outlet;
#X obj 191 504 outlet;
#X obj 224 484 outlet;
#X obj 234 504 outlet;
#X obj 267 484 outlet;
#X obj 277 504 outlet;
#X obj 310 484 outlet;
#X obj 320 504 outlet;
#X obj 353 484 outlet;
#X obj 363 504 outlet;
#X obj 396 484 outlet;
#X obj 406 504 outlet;
#X obj 439 484 outlet;
#X obj 449 504 outlet;
#X obj 482 484 outlet;
#X obj 492 504 outlet;
#X obj 525 484 outlet;
#X obj 535 504 outlet;
#X obj 568 484 outlet;
#X obj 578 504 outlet;
#X obj 611 484 outlet;
#X obj 621 504 outlet;
#X text 8 11 save;
#X text 976 -7 open;
#X msg 556 351 write coral_preset\$1.txt cr;
#X obj 726 -7 inlet;
#X obj 736 13 inlet;
#X obj 746 33 inlet;
#X obj 793 -7 inlet;
#X obj 803 13 inlet;
#X obj 813 33 inlet;
#X obj 860 -7 inlet;
#X obj 870 13 inlet;
#X obj 880 33 inlet;
#X obj 725 133 f;
#X obj 749 133 f;
#X obj 773 133 f;
#X obj 797 133 f;
#X obj 821 133 f;
#X obj 845 133 f;
#X obj 869 133 f;
#X obj 893 133 f;
#X obj 917 133 f;
#X obj 460 64 t b b b b b b b b b b b b b b b b b b b b b b b b b b
b b b b b b b b b b b b b b b;
#X obj 74 388 unpack f f f f f f f f f f f f f f f f f f f f f f f
f f f f f f f f f f f f f f f f;
#X obj 654 484 outlet;
#X obj 664 504 outlet;
#X obj 697 484 outlet;
#X obj 707 504 outlet;
#X obj 740 484 outlet;
#X obj 750 504 outlet;
#X obj 783 484 outlet;
#X obj 793 504 outlet;
#X obj 826 484 outlet;
#X connect 1 0 0 0;
#X connect 2 0 0 0;
#X connect 3 0 2 0;
#X connect 4 0 3 0;
#X connect 4 1 3 1;
#X connect 4 1 18 0;
#X connect 5 0 4 0;
#X connect 6 0 4 0;
#X connect 7 0 4 0;
#X connect 8 0 4 0;
#X connect 9 0 4 0;
#X connect 10 0 4 0;
#X connect 11 0 4 0;
#X connect 12 0 4 0;
#X connect 13 0 4 0;
#X connect 14 0 4 0;
#X connect 15 0 4 0;
#X connect 16 0 4 0;
#X connect 17 0 4 0;
#X connect 19 0 4 0;
#X connect 20 0 4 0;
#X connect 21 0 4 0;
#X connect 22 0 4 0;
#X connect 23 0 4 0;
#X connect 24 0 4 0;
#X connect 25 0 4 0;
#X connect 26 0 4 0;
#X connect 27 0 4 0;
#X connect 28 0 4 0;
#X connect 29 0 4 0;
#X connect 30 0 4 0;
#X connect 31 0 4 0;
#X connect 32 0 4 0;
#X connect 33 0 4 0;
#X connect 34 0 4 0;
#X connect 35 0 4 0;
#X connect 36 0 126 0;
#X connect 37 0 5 1;
#X connect 38 0 6 1;
#X connect 39 0 7 1;
#X connect 40 0 8 1;
#X connect 41 0 9 1;
#X connect 42 0 10 1;
#X connect 43 0 11 1;
#X connect 44 0 12 1;
#X connect 45 0 13 1;
#X connect 46 0 14 1;
#X connect 47 0 15 1;
#X connect 48 0 16 1;
#X connect 49 0 17 1;
#X connect 50 0 19 1;
#X connect 51 0 20 1;
#X connect 52 0 21 1;
#X connect 53 0 22 1;
#X connect 54 0 23 1;
#X connect 55 0 24 1;
#X connect 56 0 25 1;
#X connect 57 0 26 1;
#X connect 58 0 27 1;
#X connect 59 0 28 1;
#X connect 60 0 29 1;
#X connect 61 0 30 1;
#X connect 62 0 31 1;
#X connect 63 0 32 1;
#X connect 64 0 33 1;
#X connect 65 0 34 1;
#X connect 66 0 35 1;
#X connect 67 0 68 0;
#X connect 67 0 107 0;
#X connect 68 0 67 1;
#X connect 69 0 71 0;
#X connect 70 0 127 0;
#X connect 71 0 70 0;
#X connect 71 0 73 0;
#X connect 72 0 70 0;
#X connect 73 0 70 0;
#X connect 73 1 72 0;
#X connect 74 0 69 0;
#X connect 107 0 0 0;
#X connect 108 0 117 1;
#X connect 109 0 118 1;
#X connect 110 0 119 1;
#X connect 111 0 120 1;
#X connect 112 0 121 1;
#X connect 113 0 122 1;
#X connect 114 0 123 1;
#X connect 115 0 124 1;
#X connect 116 0 125 1;
#X connect 117 0 4 0;
#X connect 118 0 4 0;
#X connect 119 0 4 0;
#X connect 120 0 4 0;
#X connect 121 0 4 0;
#X connect 122 0 4 0;
#X connect 123 0 4 0;
#X connect 124 0 4 0;
#X connect 125 0 4 0;
#X connect 126 0 67 0;
#X connect 126 1 5 0;
#X connect 126 2 6 0;
#X connect 126 3 7 0;
#X connect 126 4 8 0;
#X connect 126 5 9 0;
#X connect 126 6 10 0;
#X connect 126 7 11 0;
#X connect 126 8 12 0;
#X connect 126 9 13 0;
#X connect 126 10 14 0;
#X connect 126 11 15 0;
#X connect 126 12 16 0;
#X connect 126 13 17 0;
#X connect 126 14 19 0;
#X connect 126 15 20 0;
#X connect 126 16 21 0;
#X connect 126 17 22 0;
#X connect 126 18 23 0;
#X connect 126 19 24 0;
#X connect 126 20 25 0;
#X connect 126 21 26 0;
#X connect 126 22 27 0;
#X connect 126 23 28 0;
#X connect 126 24 29 0;
#X connect 126 25 30 0;
#X connect 126 26 31 0;
#X connect 126 27 32 0;
#X connect 126 28 33 0;
#X connect 126 29 34 0;
#X connect 126 30 35 0;
#X connect 126 31 117 0;
#X connect 126 32 118 0;
#X connect 126 33 119 0;
#X connect 126 34 120 0;
#X connect 126 35 121 0;
#X connect 126 36 122 0;
#X connect 126 37 123 0;
#X connect 126 38 124 0;
#X connect 126 39 125 0;
#X connect 126 40 1 0;
#X connect 127 0 136 0;
#X connect 127 1 135 0;
#X connect 127 2 134 0;
#X connect 127 3 133 0;
#X connect 127 4 132 0;
#X connect 127 5 131 0;
#X connect 127 6 130 0;
#X connect 127 7 129 0;
#X connect 127 8 128 0;
#X connect 127 9 104 0;
#X connect 127 10 103 0;
#X connect 127 11 102 0;
#X connect 127 12 101 0;
#X connect 127 13 100 0;
#X connect 127 14 99 0;
#X connect 127 15 98 0;
#X connect 127 16 97 0;
#X connect 127 17 96 0;
#X connect 127 18 95 0;
#X connect 127 19 94 0;
#X connect 127 20 93 0;
#X connect 127 21 92 0;
#X connect 127 22 91 0;
#X connect 127 23 90 0;
#X connect 127 24 89 0;
#X connect 127 25 88 0;
#X connect 127 26 87 0;
#X connect 127 27 86 0;
#X connect 127 28 85 0;
#X connect 127 29 84 0;
#X connect 127 30 83 0;
#X connect 127 31 82 0;
#X connect 127 32 81 0;
#X connect 127 33 80 0;
#X connect 127 34 79 0;
#X connect 127 35 78 0;
#X connect 127 36 77 0;
#X connect 127 37 76 0;
#X connect 127 38 75 0;
#X coords 0 -1 1 1 500 16 1 100 200;
