#N canvas 6 50 1905 1020 10;
#X obj 102 102 cnv 15 288 16 empty empty empty 20 12 0 14 -1 -66577
0;
#X obj 117 103 cnv 14 15 14 empty empty on 2 8 1 10 -1 -3707 0;
#X obj 153 101 cnv 14 24 14 empty empty bpm 2 8 1 10 -1 -3707 0;
#X obj 255 103 cnv 14 18 14 empty empty hh 2 8 1 10 -1 -3707 0;
#X obj 129 105 bng 10 100 50 0 empty empty empty 17 7 0 10 -1 -258113
-1;
#X obj 33 205 send onseq;
#X obj 211 178 metro;
#X obj 135 19 r initsec;
#X obj 344 134 loadbang;
#X msg 344 155 1;
#X obj 344 176 metro 1000;
#X obj 344 197 t b b;
#X obj 344 218 cputime;
#X obj 344 238 int;
#X obj 344 258 * 0.1;
#X msg 205 69 101;
#X obj 263 179 t b f;
#X obj 267 218 /;
#X msg 207 216 60000;
#X obj 33 137 t f b;
#X msg 399 245 \; pd dsp 1;
#X obj 179 104 nbx 3 14 1 999 0 0 empty empty empty 0 -8 0 10 -1 -3707
-1 71.4844 256;
#X obj 104 104 cnv 12 12 12 empty empty empty 20 12 0 14 -3707 -66577
0;
#X obj 105 105 tgl 10 0 empty empty empty 17 7 0 10 -1 -3707 -1 1 1
;
#N canvas 504 145 450 300 generadordepulsoredonda 0;
#X obj 14 16 inlet;
#X text 52 17 on/off;
#X obj 153 16 inlet;
#X text 190 15 valor bpm;
#X obj 71 132 metro;
#X obj 71 154 f;
#X obj 104 155 + 1;
#X obj 71 176 s pbar;
#X obj 153 38 t b f;
#X obj 153 85 /;
#X msg 119 61 240000;
#X obj 47 50 select 0;
#X msg 66 82 0;
#X connect 0 0 4 0;
#X connect 0 0 11 0;
#X connect 2 0 8 0;
#X connect 4 0 5 0;
#X connect 5 0 6 0;
#X connect 5 0 7 0;
#X connect 6 0 5 1;
#X connect 8 0 10 0;
#X connect 8 1 9 1;
#X connect 9 0 4 1;
#X connect 10 0 9 0;
#X connect 11 0 12 0;
#X connect 12 0 5 1;
#X restore 65 309 pd generadordepulsoredonda;
#X obj 105 273 t f b;
#N canvas 501 150 450 300 generadordepulsoblanca 0;
#X obj 14 16 inlet;
#X text 52 17 on/off;
#X obj 153 16 inlet;
#X text 190 15 valor bpm;
#X obj 71 132 metro;
#X obj 71 154 f;
#X obj 104 155 + 1;
#X obj 153 38 t b f;
#X obj 153 85 /;
#X obj 47 50 select 0;
#X msg 66 82 0;
#X msg 119 61 120000;
#X obj 71 176 s pblanca;
#X connect 0 0 4 0;
#X connect 0 0 9 0;
#X connect 2 0 7 0;
#X connect 4 0 5 0;
#X connect 5 0 6 0;
#X connect 5 0 12 0;
#X connect 6 0 5 1;
#X connect 7 0 11 0;
#X connect 7 1 8 1;
#X connect 8 0 4 1;
#X connect 9 0 10 0;
#X connect 10 0 5 1;
#X connect 11 0 8 0;
#X restore 85 329 pd generadordepulsoblanca;
#N canvas 501 150 450 300 generadordepulsonegra 0;
#X obj 14 16 inlet;
#X text 52 17 on/off;
#X obj 153 16 inlet;
#X text 190 15 valor bpm;
#X obj 71 132 metro;
#X obj 71 154 f;
#X obj 104 155 + 1;
#X obj 153 38 t b f;
#X obj 153 85 /;
#X obj 47 50 select 0;
#X msg 66 82 0;
#X msg 119 61 60000;
#X obj 71 176 s pnegra;
#X connect 0 0 4 0;
#X connect 0 0 9 0;
#X connect 2 0 7 0;
#X connect 4 0 5 0;
#X connect 5 0 6 0;
#X connect 5 0 12 0;
#X connect 6 0 5 1;
#X connect 7 0 11 0;
#X connect 7 1 8 1;
#X connect 8 0 4 1;
#X connect 9 0 10 0;
#X connect 10 0 5 1;
#X connect 11 0 8 0;
#X restore 105 349 pd generadordepulsonegra;
#N canvas 501 150 450 300 generadordepulsocorchea 0;
#X obj 14 16 inlet;
#X text 52 17 on/off;
#X obj 153 16 inlet;
#X text 190 15 valor bpm;
#X obj 71 132 metro;
#X obj 71 154 f;
#X obj 104 155 + 1;
#X obj 153 38 t b f;
#X obj 153 85 /;
#X obj 47 50 select 0;
#X msg 66 82 0;
#X msg 119 61 30000;
#X obj 71 176 s pcorchea;
#X connect 0 0 4 0;
#X connect 0 0 9 0;
#X connect 2 0 7 0;
#X connect 4 0 5 0;
#X connect 5 0 6 0;
#X connect 5 0 12 0;
#X connect 6 0 5 1;
#X connect 7 0 11 0;
#X connect 7 1 8 1;
#X connect 8 0 4 1;
#X connect 9 0 10 0;
#X connect 10 0 5 1;
#X connect 11 0 8 0;
#X restore 125 369 pd generadordepulsocorchea;
#N canvas 501 150 450 300 generadordepulsosemicorchea 0;
#X obj 14 16 inlet;
#X text 52 17 on/off;
#X obj 153 16 inlet;
#X text 190 15 valor bpm;
#X obj 71 132 metro;
#X obj 71 154 f;
#X obj 104 155 + 1;
#X obj 153 38 t b f;
#X obj 153 85 /;
#X obj 47 50 select 0;
#X msg 66 82 0;
#X msg 119 61 15000;
#X obj 71 176 s pscorchea;
#X connect 0 0 4 0;
#X connect 0 0 9 0;
#X connect 2 0 7 0;
#X connect 4 0 5 0;
#X connect 5 0 6 0;
#X connect 5 0 12 0;
#X connect 6 0 5 1;
#X connect 7 0 11 0;
#X connect 7 1 8 1;
#X connect 8 0 4 1;
#X connect 9 0 10 0;
#X connect 10 0 5 1;
#X connect 11 0 8 0;
#X restore 145 389 pd generadordepulsosemicorchea;
#N canvas 501 150 450 300 generadordepulsofusa 0;
#X obj 14 16 inlet;
#X text 52 17 on/off;
#X obj 153 16 inlet;
#X text 190 15 valor bpm;
#X obj 71 132 metro;
#X obj 71 154 f;
#X obj 104 155 + 1;
#X obj 153 38 t b f;
#X obj 153 85 /;
#X obj 47 50 select 0;
#X msg 66 82 0;
#X obj 71 176 s pfusa;
#X msg 119 61 7500;
#X connect 0 0 4 0;
#X connect 0 0 9 0;
#X connect 2 0 7 0;
#X connect 4 0 5 0;
#X connect 5 0 6 0;
#X connect 5 0 11 0;
#X connect 6 0 5 1;
#X connect 7 0 12 0;
#X connect 7 1 8 1;
#X connect 8 0 4 1;
#X connect 9 0 10 0;
#X connect 10 0 5 1;
#X connect 12 0 8 0;
#X restore 165 409 pd generadordepulsofusa;
#N canvas 498 155 450 300 generadordepulsoredondadiv3 0;
#X obj 14 16 inlet;
#X text 52 17 on/off;
#X obj 153 16 inlet;
#X text 190 15 valor bpm;
#X obj 71 132 metro;
#X obj 71 154 f;
#X obj 104 155 + 1;
#X obj 153 38 t b f;
#X obj 153 85 /;
#X msg 119 61 240000;
#X obj 47 50 select 0;
#X msg 66 82 0;
#X obj 153 114 / 3;
#X obj 71 176 s pbardiv3;
#X connect 0 0 4 0;
#X connect 0 0 10 0;
#X connect 2 0 7 0;
#X connect 4 0 5 0;
#X connect 5 0 6 0;
#X connect 5 0 13 0;
#X connect 6 0 5 1;
#X connect 7 0 9 0;
#X connect 7 1 8 1;
#X connect 8 0 12 0;
#X connect 9 0 8 0;
#X connect 10 0 11 0;
#X connect 11 0 5 1;
#X connect 12 0 4 1;
#X restore 314 307 pd generadordepulsoredondadiv3;
#N canvas 495 160 450 300 generadordepulsoredondadiv5 0;
#X obj 14 16 inlet;
#X text 52 17 on/off;
#X obj 153 16 inlet;
#X text 190 15 valor bpm;
#X obj 71 132 metro;
#X obj 71 154 f;
#X obj 104 155 + 1;
#X obj 153 38 t b f;
#X obj 153 85 /;
#X msg 119 61 240000;
#X obj 47 50 select 0;
#X msg 66 82 0;
#X obj 153 114 / 5;
#X obj 71 176 s pbardiv5;
#X connect 0 0 4 0;
#X connect 0 0 10 0;
#X connect 2 0 7 0;
#X connect 4 0 5 0;
#X connect 5 0 6 0;
#X connect 5 0 13 0;
#X connect 6 0 5 1;
#X connect 7 0 9 0;
#X connect 7 1 8 1;
#X connect 8 0 12 0;
#X connect 9 0 8 0;
#X connect 10 0 11 0;
#X connect 11 0 5 1;
#X connect 12 0 4 1;
#X restore 324 327 pd generadordepulsoredondadiv5;
#N canvas 492 165 450 300 generadordepulsoredondadiv6 0;
#X obj 14 16 inlet;
#X text 52 17 on/off;
#X obj 153 16 inlet;
#X text 190 15 valor bpm;
#X obj 71 132 metro;
#X obj 71 154 f;
#X obj 104 155 + 1;
#X obj 153 38 t b f;
#X obj 153 85 /;
#X msg 119 61 240000;
#X obj 47 50 select 0;
#X msg 66 82 0;
#X obj 153 114 / 6;
#X obj 71 176 s pbardiv6;
#X connect 0 0 4 0;
#X connect 0 0 10 0;
#X connect 2 0 7 0;
#X connect 4 0 5 0;
#X connect 5 0 6 0;
#X connect 5 0 13 0;
#X connect 6 0 5 1;
#X connect 7 0 9 0;
#X connect 7 1 8 1;
#X connect 8 0 12 0;
#X connect 9 0 8 0;
#X connect 10 0 11 0;
#X connect 11 0 5 1;
#X connect 12 0 4 1;
#X restore 334 347 pd generadordepulsoredondadiv6;
#N canvas 489 170 450 300 generadordepulsoredondadiv7 0;
#X obj 14 16 inlet;
#X text 52 17 on/off;
#X obj 153 16 inlet;
#X text 190 15 valor bpm;
#X obj 71 132 metro;
#X obj 71 154 f;
#X obj 104 155 + 1;
#X obj 153 38 t b f;
#X obj 153 85 /;
#X msg 119 61 240000;
#X obj 47 50 select 0;
#X msg 66 82 0;
#X obj 153 114 / 7;
#X obj 71 176 s pbardiv7;
#X connect 0 0 4 0;
#X connect 0 0 10 0;
#X connect 2 0 7 0;
#X connect 4 0 5 0;
#X connect 5 0 6 0;
#X connect 5 0 13 0;
#X connect 6 0 5 1;
#X connect 7 0 9 0;
#X connect 7 1 8 1;
#X connect 8 0 12 0;
#X connect 9 0 8 0;
#X connect 10 0 11 0;
#X connect 11 0 5 1;
#X connect 12 0 4 1;
#X restore 344 367 pd generadordepulsoredondadiv7;
#N canvas 538 178 450 300 generadordepulsoredondadiv9 0;
#X obj 14 16 inlet;
#X text 52 17 on/off;
#X obj 153 16 inlet;
#X text 190 15 valor bpm;
#X obj 71 132 metro;
#X obj 71 154 f;
#X obj 104 155 + 1;
#X obj 153 38 t b f;
#X obj 153 85 /;
#X msg 119 61 240000;
#X obj 47 50 select 0;
#X msg 66 82 0;
#X obj 153 114 / 9;
#X obj 71 176 s pbardiv9;
#X connect 0 0 4 0;
#X connect 0 0 10 0;
#X connect 2 0 7 0;
#X connect 4 0 5 0;
#X connect 5 0 6 0;
#X connect 5 0 13 0;
#X connect 6 0 5 1;
#X connect 7 0 9 0;
#X connect 7 1 8 1;
#X connect 8 0 12 0;
#X connect 9 0 8 0;
#X connect 10 0 11 0;
#X connect 11 0 5 1;
#X connect 12 0 4 1;
#X restore 354 387 pd generadordepulsoredondadiv9;
#N canvas 489 170 450 300 generadordepulsoredondadiv10 0;
#X obj 14 16 inlet;
#X text 52 17 on/off;
#X obj 153 16 inlet;
#X text 190 15 valor bpm;
#X obj 71 132 metro;
#X obj 71 154 f;
#X obj 104 155 + 1;
#X obj 153 38 t b f;
#X obj 153 85 /;
#X msg 119 61 240000;
#X obj 47 50 select 0;
#X msg 66 82 0;
#X obj 153 114 / 10;
#X obj 71 176 s pbardiv10;
#X connect 0 0 4 0;
#X connect 0 0 10 0;
#X connect 2 0 7 0;
#X connect 4 0 5 0;
#X connect 5 0 6 0;
#X connect 5 0 13 0;
#X connect 6 0 5 1;
#X connect 7 0 9 0;
#X connect 7 1 8 1;
#X connect 8 0 12 0;
#X connect 9 0 8 0;
#X connect 10 0 11 0;
#X connect 11 0 5 1;
#X connect 12 0 4 1;
#X restore 364 407 pd generadordepulsoredondadiv10;
#N canvas 489 170 450 300 generadordepulsoredondadiv11 0;
#X obj 14 16 inlet;
#X text 52 17 on/off;
#X obj 153 16 inlet;
#X text 190 15 valor bpm;
#X obj 71 132 metro;
#X obj 71 154 f;
#X obj 104 155 + 1;
#X obj 153 38 t b f;
#X obj 153 85 /;
#X msg 119 61 240000;
#X obj 47 50 select 0;
#X msg 66 82 0;
#X obj 153 114 / 11;
#X obj 71 176 s pbardiv11;
#X connect 0 0 4 0;
#X connect 0 0 10 0;
#X connect 2 0 7 0;
#X connect 4 0 5 0;
#X connect 5 0 6 0;
#X connect 5 0 13 0;
#X connect 6 0 5 1;
#X connect 7 0 9 0;
#X connect 7 1 8 1;
#X connect 8 0 12 0;
#X connect 9 0 8 0;
#X connect 10 0 11 0;
#X connect 11 0 5 1;
#X connect 12 0 4 1;
#X restore 374 427 pd generadordepulsoredondadiv11;
#N canvas 489 170 450 300 generadordepulsoredondadiv12 0;
#X obj 14 16 inlet;
#X text 52 17 on/off;
#X obj 153 16 inlet;
#X text 190 15 valor bpm;
#X obj 71 132 metro;
#X obj 71 154 f;
#X obj 104 155 + 1;
#X obj 153 38 t b f;
#X obj 153 85 /;
#X msg 119 61 240000;
#X obj 47 50 select 0;
#X msg 66 82 0;
#X obj 153 114 / 12;
#X obj 71 176 s pbardiv12;
#X connect 0 0 4 0;
#X connect 0 0 10 0;
#X connect 2 0 7 0;
#X connect 4 0 5 0;
#X connect 5 0 6 0;
#X connect 5 0 13 0;
#X connect 6 0 5 1;
#X connect 7 0 9 0;
#X connect 7 1 8 1;
#X connect 8 0 12 0;
#X connect 9 0 8 0;
#X connect 10 0 11 0;
#X connect 11 0 5 1;
#X connect 12 0 4 1;
#X restore 384 447 pd generadordepulsoredondadiv12;
#N canvas 489 170 450 300 generadordepulsoredondadiv13 0;
#X obj 14 16 inlet;
#X text 52 17 on/off;
#X obj 153 16 inlet;
#X text 190 15 valor bpm;
#X obj 71 132 metro;
#X obj 71 154 f;
#X obj 104 155 + 1;
#X obj 153 38 t b f;
#X obj 153 85 /;
#X msg 119 61 240000;
#X obj 47 50 select 0;
#X msg 66 82 0;
#X obj 153 114 / 13;
#X obj 71 176 s pbardiv13;
#X connect 0 0 4 0;
#X connect 0 0 10 0;
#X connect 2 0 7 0;
#X connect 4 0 5 0;
#X connect 5 0 6 0;
#X connect 5 0 13 0;
#X connect 6 0 5 1;
#X connect 7 0 9 0;
#X connect 7 1 8 1;
#X connect 8 0 12 0;
#X connect 9 0 8 0;
#X connect 10 0 11 0;
#X connect 11 0 5 1;
#X connect 12 0 4 1;
#X restore 394 467 pd generadordepulsoredondadiv13;
#N canvas 489 170 450 300 generadordepulsoredondadiv14 0;
#X obj 14 16 inlet;
#X text 52 17 on/off;
#X obj 153 16 inlet;
#X text 190 15 valor bpm;
#X obj 71 132 metro;
#X obj 71 154 f;
#X obj 104 155 + 1;
#X obj 153 38 t b f;
#X obj 153 85 /;
#X msg 119 61 240000;
#X obj 47 50 select 0;
#X msg 66 82 0;
#X obj 153 114 / 14;
#X obj 71 176 s pbardiv14;
#X connect 0 0 4 0;
#X connect 0 0 10 0;
#X connect 2 0 7 0;
#X connect 4 0 5 0;
#X connect 5 0 6 0;
#X connect 5 0 13 0;
#X connect 6 0 5 1;
#X connect 7 0 9 0;
#X connect 7 1 8 1;
#X connect 8 0 12 0;
#X connect 9 0 8 0;
#X connect 10 0 11 0;
#X connect 11 0 5 1;
#X connect 12 0 4 1;
#X restore 404 487 pd generadordepulsoredondadiv14;
#N canvas 489 170 450 300 generadordepulsoredondadiv15 0;
#X obj 14 16 inlet;
#X text 52 17 on/off;
#X obj 153 16 inlet;
#X text 190 15 valor bpm;
#X obj 71 132 metro;
#X obj 71 154 f;
#X obj 104 155 + 1;
#X obj 153 38 t b f;
#X obj 153 85 /;
#X msg 119 61 240000;
#X obj 47 50 select 0;
#X msg 66 82 0;
#X obj 153 114 / 15;
#X obj 71 176 s pbardiv15;
#X connect 0 0 4 0;
#X connect 0 0 10 0;
#X connect 2 0 7 0;
#X connect 4 0 5 0;
#X connect 5 0 6 0;
#X connect 5 0 13 0;
#X connect 6 0 5 1;
#X connect 7 0 9 0;
#X connect 7 1 8 1;
#X connect 8 0 12 0;
#X connect 9 0 8 0;
#X connect 10 0 11 0;
#X connect 11 0 5 1;
#X connect 12 0 4 1;
#X restore 414 507 pd generadordepulsoredondadiv15;
#X obj 139 50 select 1;
#N canvas 356 152 819 938 cronometro 0;
#X obj 92 94 metro 1000;
#X obj 92 116 f;
#X obj 92 138 + 1;
#X obj 92 164 mod 60;
#X obj 91 195 select 0;
#X obj 92 226 f;
#X obj 92 248 + 1;
#X msg 163 58 0;
#X obj 100 39 sel 0;
#X obj 92 270 mod 60;
#X obj 90 296 select 0;
#X obj 90 318 f;
#X obj 90 340 + 1;
#X obj 13 18 inlet;
#X obj 143 391 outlet;
#X obj 193 391 outlet;
#X obj 243 391 outlet;
#X obj 293 391 outlet;
#X obj 90 362 mod 10;
#X connect 0 0 1 0;
#X connect 1 0 2 0;
#X connect 2 0 1 1;
#X connect 2 0 3 0;
#X connect 3 0 4 0;
#X connect 3 0 16 0;
#X connect 4 0 5 0;
#X connect 5 0 6 0;
#X connect 6 0 5 1;
#X connect 6 0 9 0;
#X connect 7 0 1 1;
#X connect 7 0 5 1;
#X connect 7 0 11 1;
#X connect 7 0 17 0;
#X connect 8 0 7 0;
#X connect 9 0 10 0;
#X connect 9 0 15 0;
#X connect 10 0 11 0;
#X connect 11 0 12 0;
#X connect 12 0 11 1;
#X connect 12 0 18 0;
#X connect 13 0 0 0;
#X connect 13 0 8 0;
#X connect 18 0 14 0;
#X restore 277 24 pd cronometro;
#X obj 269 103 nbx 1 14 -1e+37 1e+37 0 0 empty empty empty 0 -8 0 10
-1 -3707 -1 0 256;
#X obj 291 103 cnv 14 18 14 empty empty mm 2 8 1 10 -1 -3707 0;
#X obj 310 103 nbx 2 14 -1e+37 1e+37 0 0 empty empty empty 0 -8 0 10
-1 -3707 -1 31 256;
#X obj 339 103 cnv 14 18 14 empty empty ss 2 8 1 10 -1 -3707 0;
#X obj 352 103 nbx 2 14 -1e+37 1e+37 0 0 empty empty empty 0 -8 0 10
-1 -3707 -1 53 256;
#X obj 711 372 send bpm;
#X obj 648 372 send rst;
#X obj 684 336 t f b;
#X obj 392 102 cnv 8 346 16 empty empty empty 20 12 0 14 -1 -66577
0;
#X obj 440 104 cnv 10 12 12 empty empty empty 20 12 0 14 -3707 -66577
0;
#X obj 441 105 tgl 10 0 empty empty rec-on 14 5 1 9 -1 -3707 -3707
0 1;
#X obj 486 103 bng 15 250 50 0 empty empty r 6 8 1 10 -1 -258113 -1
;
#X msg 671 283 start;
#X msg 720 282 stop;
#X obj 672 152 select 1;
#X obj 672 174 t b b;
#X obj 726 205 f;
#X obj 725 227 + 1;
#X msg 726 249 open proceso-rec\$1.wav;
#X obj 508 225 writesf~ 2;
#X obj 767 150 loadbang;
#X msg 767 172 0;
#X obj 436 54 metro 1000;
#N canvas 356 152 512 421 cronometro 0;
#X obj 92 94 metro 1000;
#X obj 92 116 f;
#X obj 92 138 + 1;
#X obj 92 164 mod 60;
#X obj 91 195 select 0;
#X obj 92 226 f;
#X obj 92 248 + 1;
#X msg 163 58 0;
#X obj 100 39 sel 0;
#X obj 92 270 mod 60;
#X obj 90 296 select 0;
#X obj 90 318 f;
#X obj 90 340 + 1;
#X obj 13 18 inlet;
#X obj 143 391 outlet;
#X obj 193 391 outlet;
#X obj 243 391 outlet;
#X obj 293 391 outlet;
#X obj 90 362 mod 10;
#X connect 0 0 1 0;
#X connect 1 0 2 0;
#X connect 2 0 1 1;
#X connect 2 0 3 0;
#X connect 3 0 4 0;
#X connect 3 0 16 0;
#X connect 4 0 5 0;
#X connect 5 0 6 0;
#X connect 6 0 5 1;
#X connect 6 0 9 0;
#X connect 7 0 1 1;
#X connect 7 0 5 1;
#X connect 7 0 11 1;
#X connect 7 0 17 0;
#X connect 8 0 7 0;
#X connect 9 0 10 0;
#X connect 9 0 15 0;
#X connect 10 0 11 0;
#X connect 11 0 12 0;
#X connect 12 0 11 1;
#X connect 12 0 18 0;
#X connect 13 0 0 0;
#X connect 13 0 8 0;
#X connect 18 0 14 0;
#X restore 540 54 pd cronometro;
#X obj 512 103 cnv 14 18 14 empty empty hh 2 8 1 10 -1 -3707 0;
#X obj 526 103 nbx 1 14 -1e+37 1e+37 0 0 empty empty empty 0 -8 0 10
-1 -3707 -1 0 256;
#X obj 548 103 cnv 14 18 14 empty empty mm 2 8 1 10 -1 -3707 0;
#X obj 567 103 nbx 2 14 -1e+37 1e+37 0 0 empty empty empty 0 -8 0 10
-1 -3707 -1 0 256;
#X obj 596 103 cnv 14 18 14 empty empty ss 2 8 1 10 -1 -3707 0;
#X obj 609 103 nbx 2 14 -1e+37 1e+37 0 0 empty empty empty 0 -8 0 10
-1 -3707 -1 0 256;
#X obj 659 103 nbx 2 14 -1e+37 1e+37 0 0 empty empty empty 0 -8 0 10
-1 -3707 -1 0 256;
#X obj 638 103 cnv 14 18 14 empty empty take 2 8 1 10 -1 -3707 0;
#X obj 398 14 receive~ leftmixer;
#X obj 531 14 receive~ rightmixer;
#X obj 394 104 cnv 10 12 12 empty empty empty 20 12 0 14 -3707 -66577
0;
#X obj 395 105 tgl 10 0 empty empty syncR 14 5 1 9 -1 -3707 -3707 0
1;
#X obj 429 160 spigot;
#X msg 429 182 1;
#X obj 689 103 cnv 14 22 14 empty empty cpu 2 8 1 10 -1 -3707 0;
#X obj 709 103 nbx 2 14 -1e+37 1e+37 0 0 empty empty empty 0 -8 0 10
-1 -3707 -1 18 256;
#X obj 740 102 cnv 15 76 16 empty empty empty 20 12 0 14 -1 -66577
0;
#X obj 740 106 cnv 10 40 10 empty empty proceso 2 5 1 10 -1 -3707 0
;
#X obj 783 106 cnv 10 8 10 empty empty v.0.10 2 5 1 10 -1 -258113 0
;
#N canvas 945 263 450 300 tapTempo 0;
#X obj 103 120 timer;
#X obj 103 52 f;
#X obj 133 52 + 1;
#X obj 103 74 mod 5;
#X obj 103 96 sel 0 4;
#X obj 103 143 expr 60000/($f1/4);
#X obj 103 166 outlet;
#X obj 103 30 inlet;
#X connect 0 0 5 0;
#X connect 1 0 2 0;
#X connect 1 0 3 0;
#X connect 2 0 1 1;
#X connect 3 0 4 0;
#X connect 4 0 0 0;
#X connect 4 1 0 1;
#X connect 5 0 6 0;
#X connect 7 0 1 0;
#X restore 699 30 pd tapTempo;
#X obj 216 103 cnv 14 24 14 empty empty TAP 2 8 1 10 -1 -3707 0;
#X obj 240 104 cnv 12 12 12 empty empty empty 20 12 0 14 -3707 -66577
0;
#X obj 838 4 bng 10 250 50 0 empty empty empty 17 7 0 10 -1 -258113
-1;
#X obj 11 -27 r knob4;
#X obj 105 -11 loadbang;
#X obj -58 21 * 240;
#X msg 177 584 \; screenLine4 4: TEMPO \$1 \;;
#X obj 928 167 tgl 50 0 empty empty empty 17 7 0 100 -262144 -1 -1
0 1;
#X obj 949 54 r aux;
#X obj 937 125 sel 1;
#X obj 962 82 r fs;
#X connect 6 0 4 0;
#X connect 7 0 42 0;
#X connect 8 0 9 0;
#X connect 8 0 15 0;
#X connect 8 0 20 0;
#X connect 9 0 10 0;
#X connect 10 0 11 0;
#X connect 11 0 12 0;
#X connect 11 1 12 1;
#X connect 12 0 13 0;
#X connect 13 0 14 0;
#X connect 14 0 83 0;
#X connect 15 0 21 0;
#X connect 16 0 18 0;
#X connect 16 1 17 1;
#X connect 17 0 6 1;
#X connect 18 0 17 0;
#X connect 19 0 5 0;
#X connect 19 1 21 0;
#X connect 21 0 16 0;
#X connect 21 0 24 1;
#X connect 21 0 26 1;
#X connect 21 0 27 1;
#X connect 21 0 28 1;
#X connect 21 0 29 1;
#X connect 21 0 30 1;
#X connect 21 0 31 1;
#X connect 21 0 32 1;
#X connect 21 0 33 1;
#X connect 21 0 34 1;
#X connect 21 0 35 1;
#X connect 21 0 36 1;
#X connect 21 0 37 1;
#X connect 21 0 38 1;
#X connect 21 0 39 1;
#X connect 21 0 40 1;
#X connect 21 0 41 1;
#X connect 21 0 51 0;
#X connect 21 0 94 0;
#X connect 23 0 19 0;
#X connect 23 0 6 0;
#X connect 23 0 25 0;
#X connect 23 0 43 0;
#X connect 25 0 24 0;
#X connect 25 0 26 0;
#X connect 25 0 27 0;
#X connect 25 0 28 0;
#X connect 25 0 29 0;
#X connect 25 0 30 0;
#X connect 25 0 31 0;
#X connect 25 0 32 0;
#X connect 25 0 33 0;
#X connect 25 0 34 0;
#X connect 25 0 35 0;
#X connect 25 0 36 0;
#X connect 25 0 37 0;
#X connect 25 0 38 0;
#X connect 25 0 39 0;
#X connect 25 0 40 0;
#X connect 25 0 41 0;
#X connect 25 1 21 0;
#X connect 42 0 21 0;
#X connect 43 0 44 0;
#X connect 43 1 46 0;
#X connect 43 2 48 0;
#X connect 43 3 44 0;
#X connect 43 3 46 0;
#X connect 43 3 48 0;
#X connect 51 0 50 0;
#X connect 51 1 49 0;
#X connect 54 0 58 0;
#X connect 54 0 66 0;
#X connect 54 0 67 0;
#X connect 54 0 80 0;
#X connect 56 0 63 0;
#X connect 57 0 63 0;
#X connect 58 0 59 0;
#X connect 58 1 57 0;
#X connect 59 0 56 0;
#X connect 59 1 60 0;
#X connect 60 0 61 0;
#X connect 60 0 62 0;
#X connect 60 0 74 0;
#X connect 61 0 60 1;
#X connect 62 0 63 0;
#X connect 64 0 65 0;
#X connect 65 0 60 1;
#X connect 66 0 55 0;
#X connect 67 0 69 0;
#X connect 67 1 71 0;
#X connect 67 2 73 0;
#X connect 67 3 69 0;
#X connect 67 3 71 0;
#X connect 67 3 73 0;
#X connect 76 0 63 0;
#X connect 77 0 63 1;
#X connect 79 0 80 1;
#X connect 80 0 81 0;
#X connect 81 0 23 0;
#X connect 87 0 21 0;
#X connect 90 0 87 0;
#X connect 91 0 93 0;
#X connect 92 0 23 0;
#X connect 93 0 21 0;
#X connect 95 0 90 0;
#X connect 96 0 97 0;
#X connect 97 0 95 0;
#X connect 98 0 97 0;
#X coords 0 -1 1 1 718 20 2 100 100;
