#N canvas 270 246 1905 995 10;
#X obj 104 104 cnv 15 76 94 empty empty empty 20 12 0 14 -245500 -66577
0;
#X obj 361 104 cnv 15 91 94 empty empty empty 20 12 0 14 -162280 -66577
0;
#X obj -269 167 r onseq;
#X obj -186 198 mod 8;
#X obj -186 220 sel 0 1 2 3 4 5 6 7;
#X obj 79 592 cos~;
#X obj 30 620 *~ 50;
#X obj 89 380 mtof;
#X obj -206 312 f;
#X obj -182 312 f;
#X obj -158 312 f;
#X obj -134 312 f;
#X obj -110 312 f;
#X obj -86 312 f;
#X obj -62 312 f;
#X obj -38 312 f;
#X obj -206 402 f;
#X obj -182 402 f;
#X obj -158 402 f;
#X obj -134 402 f;
#X obj -110 402 f;
#X obj -86 402 f;
#X obj -62 402 f;
#X obj -38 402 f;
#X obj -206 482 f;
#X obj -182 482 f;
#X obj -158 482 f;
#X obj -134 482 f;
#X obj -110 482 f;
#X obj -86 482 f;
#X obj -62 482 f;
#X obj -38 482 f;
#X text -240 312 pitch;
#X text -258 404 amplitud;
#X text -246 483 cutoff;
#X floatatom 184 105 3 0 127 0 - - -, f 3;
#X floatatom 206 105 3 0 127 0 - - -, f 3;
#X floatatom 228 105 3 0 127 0 - - -, f 3;
#X floatatom 250 105 3 0 127 0 - - -, f 3;
#X floatatom 272 105 3 0 127 0 - - -, f 3;
#X floatatom 294 105 3 0 127 0 - - -, f 3;
#X floatatom 316 105 3 0 127 0 - - -, f 3;
#X floatatom 338 105 3 0 127 0 - - -, f 3;
#X obj 185 123 vsl 8 64 0 127 0 0 empty empty empty 0 -9 0 10 -66577
-3707 -1 2629 1;
#X obj -10 452 / 127;
#X obj -132 528 mtof;
#X obj 195 123 vsl 8 64 0 127 0 0 empty empty empty 0 -9 0 10 -162280
-1 -1 5060 1;
#X obj 207 123 vsl 8 64 0 127 0 0 empty empty empty 0 -9 0 10 -66577
-3707 -1 4812 1;
#X obj 217 123 vsl 8 64 0 127 0 0 empty empty empty 0 -9 0 10 -162280
-1 -1 4911 1;
#X obj 229 123 vsl 8 64 0 127 0 0 empty empty empty 0 -9 0 10 -66577
-3707 -1 5606 1;
#X obj 239 123 vsl 8 64 0 127 0 0 empty empty empty 0 -9 0 10 -162280
-1 -1 2778 1;
#X obj 251 123 vsl 8 64 0 127 0 0 empty empty empty 0 -9 0 10 -66577
-3707 -1 5258 1;
#X obj 261 123 vsl 8 64 0 127 0 0 empty empty empty 0 -9 0 10 -162280
-1 -1 4911 1;
#X obj 273 123 vsl 8 64 0 127 0 0 empty empty empty 0 -9 0 10 -66577
-3707 -1 1389 1;
#X obj 283 123 vsl 8 64 0 127 0 0 empty empty empty 0 -9 0 10 -162280
-1 -1 2778 1;
#X obj 295 123 vsl 8 64 0 127 0 0 empty empty empty 0 -9 0 10 -66577
-3707 -1 6002 1;
#X obj 305 123 vsl 8 64 0 127 0 0 empty empty empty 0 -9 0 10 -162280
-1 -1 6052 1;
#X obj 317 123 vsl 8 64 0 127 0 0 empty empty empty 0 -9 0 10 -66577
-3707 -1 992 1;
#X obj 327 123 vsl 8 64 0 127 0 0 empty empty empty 0 -9 0 10 -162280
-1 -1 5308 1;
#X obj 339 123 vsl 8 64 0 127 0 0 empty empty empty 0 -9 0 10 -66577
-3707 -1 4316 1;
#X obj 349 123 vsl 8 64 0 127 0 0 empty empty empty 0 -9 0 10 -162280
-1 -1 595 1;
#X obj 117 684 *~;
#X obj 106 167 vradio 10 1 0 3 empty empty empty 0 -8 0 10 -66577 -3707
-1 1;
#X obj 206 411 sel 0 1 2;
#X obj 157 684 *~;
#X obj 197 684 *~;
#X obj 157 490 unpack f f f;
#X obj 246 523 unpack f f f;
#X obj 296 583 unpack f f f;
#X obj 159 731 vcf~;
#X floatatom 145 152 2 0 10 0 - - -, f 2;
#X obj 159 785 *~;
#X obj 159 806 *~;
#X obj 194 788 line~;
#X msg 202 758 \$1 20;
#X obj 419 122 vsl 30 64 0 127 0 0 empty empty empty 0 -9 0 10 -66577
-3707 -1 3175 1;
#X obj 589 468 / 127;
#X obj -294 255 t b b b;
#X obj -244 255 t b b b;
#X obj -194 255 t b b b;
#X obj -144 255 t b b b;
#X obj -284 275 t b b b;
#X obj -234 275 t b b b;
#X obj -184 275 t b b b;
#X obj -134 275 t b b b;
#X obj 185 190 bng 8 50 50 0 empty empty empty 17 7 0 10 -262144 -1
-1;
#X obj 207 190 bng 8 50 50 0 empty empty empty 17 7 0 10 -262144 -1
-1;
#X obj 229 190 bng 8 50 50 0 empty empty empty 17 7 0 10 -262144 -1
-1;
#X obj 251 190 bng 8 50 50 0 empty empty empty 17 7 0 10 -262144 -1
-1;
#X obj 273 190 bng 8 50 50 0 empty empty empty 17 7 0 10 -262144 -1
-1;
#X obj 295 190 bng 8 50 50 0 empty empty empty 17 7 0 10 -262144 -1
-1;
#X obj 317 190 bng 8 50 50 0 empty empty empty 17 7 0 10 -262144 -1
-1;
#X obj 339 190 bng 8 50 50 0 empty empty empty 17 7 0 10 -262144 -1
-1;
#X obj 106 106 vradio 10 1 0 5 empty empty empty 0 -8 0 10 -66577 -3707
-1 2;
#X obj 59 12 loadbang;
#X msg 59 34 4;
#X obj 160 852 outlet~;
#X msg 206 443 1 0 0;
#X msg 248 470 1 0 0;
#X msg 295 497 1 0 0;
#X obj 31 641 clip~ -0.5 0.5;
#X msg 95 34 1;
#X obj 195 190 bng 8 250 50 0 empty empty empty 17 7 0 10 -262144 -1
-1;
#X obj 217 190 bng 8 250 50 0 empty empty empty 17 7 0 10 -262144 -1
-1;
#X obj 239 190 bng 8 250 50 0 empty empty empty 17 7 0 10 -262144 -1
-1;
#X obj 261 190 bng 8 250 50 0 empty empty empty 17 7 0 10 -262144 -1
-1;
#X obj 283 190 bng 8 250 50 0 empty empty empty 17 7 0 10 -262144 -1
-1;
#X obj 305 190 bng 8 250 50 0 empty empty empty 17 7 0 10 -262144 -1
-1;
#X obj 327 190 bng 8 250 50 0 empty empty empty 17 7 0 10 -262144 -1
-1;
#X obj 349 190 bng 8 250 50 0 empty empty empty 17 7 0 10 -262144 -1
-1;
#X msg -61 132 1;
#X msg -55 151 2;
#X msg -49 170 3;
#X msg -42 189 4;
#X msg -24 131 5;
#X msg -16 151 6;
#X msg -7 170 7;
#X msg -3 189 8;
#X obj -269 585 sel 0;
#X msg -269 613 0;
#X msg -238 614 1;
#X obj 158 74 s initseq;
#X obj 117 106 cnv 8 10 10 empty empty bar 2 6 1 9 -245500 -1 0;
#X obj 134 106 cnv 15 15 10 empty empty P88 2 10 1 24 -245500 -1 0
;
#X msg 138 34 64;
#X obj 105 493 +~;
#X obj 123 431 osc~;
#X obj 123 451 *~;
#X obj 123 411 * 1;
#X obj 154 431 line~;
#X msg 162 411 \$1 20;
#X floatatom 145 167 2 0 50 0 - - -, f 2;
#X floatatom 145 182 2 1 32 0 - - -, f 2;
#X obj 161 379 * 100;
#X msg 172 34 127;
#X msg 208 33 33;
#X msg 238 33 36;
#N canvas 0 97 668 300 randompitch8notes 0;
#X obj 12 14 inlet;
#X obj 12 54 random 127;
#X obj 82 54 random 127;
#X obj 152 54 random 127;
#X obj 222 54 random 127;
#X obj 292 54 random 127;
#X obj 362 54 random 127;
#X obj 432 54 random 127;
#X obj 502 54 random 127;
#X obj 9 194 outlet;
#X obj 59 194 outlet;
#X obj 109 194 outlet;
#X obj 159 194 outlet;
#X obj 209 194 outlet;
#X obj 259 194 outlet;
#X obj 309 194 outlet;
#X obj 359 194 outlet;
#X obj 82 14 inlet;
#X obj 162 14 inlet;
#X obj 232 14 inlet;
#X connect 0 0 1 0;
#X connect 0 0 2 0;
#X connect 0 0 3 0;
#X connect 0 0 4 0;
#X connect 0 0 5 0;
#X connect 0 0 6 0;
#X connect 0 0 7 0;
#X connect 0 0 8 0;
#X connect 1 0 9 0;
#X connect 2 0 10 0;
#X connect 3 0 11 0;
#X connect 4 0 12 0;
#X connect 5 0 13 0;
#X connect 6 0 14 0;
#X connect 7 0 15 0;
#X connect 8 0 16 0;
#X connect 17 0 1 0;
#X connect 17 0 2 0;
#X connect 17 0 3 0;
#X connect 17 0 4 0;
#X connect 18 0 5 0;
#X connect 18 0 6 0;
#X connect 18 0 7 0;
#X connect 18 0 8 0;
#X connect 19 0 3 0;
#X connect 19 0 4 0;
#X connect 19 0 7 0;
#X connect 19 0 8 0;
#X restore 286 10 pd randompitch8notes;
#X obj 363 120 bng 10 250 50 0 empty empty empty 17 7 0 10 -66577 -3707
-1;
#X obj 363 109 cnv 8 8 8 empty empty n 2 6 1 10 -162280 -1 0;
#X obj 363 132 bng 10 250 50 0 empty empty empty 17 7 0 10 -66577 -3707
-1;
#X obj 363 144 bng 10 250 50 0 empty empty empty 17 7 0 10 -66577 -3707
-1;
#N canvas 0 97 668 300 randomfilter8fader 0;
#X obj 12 14 inlet;
#X obj 12 54 random 127;
#X obj 82 54 random 127;
#X obj 152 54 random 127;
#X obj 222 54 random 127;
#X obj 292 54 random 127;
#X obj 362 54 random 127;
#X obj 432 54 random 127;
#X obj 502 54 random 127;
#X obj 9 194 outlet;
#X obj 59 194 outlet;
#X obj 109 194 outlet;
#X obj 159 194 outlet;
#X obj 209 194 outlet;
#X obj 259 194 outlet;
#X obj 309 194 outlet;
#X obj 359 194 outlet;
#X obj 82 14 inlet;
#X obj 162 14 inlet;
#X obj 232 14 inlet;
#X connect 0 0 1 0;
#X connect 0 0 2 0;
#X connect 0 0 3 0;
#X connect 0 0 4 0;
#X connect 0 0 5 0;
#X connect 0 0 6 0;
#X connect 0 0 7 0;
#X connect 0 0 8 0;
#X connect 1 0 9 0;
#X connect 2 0 10 0;
#X connect 3 0 11 0;
#X connect 4 0 12 0;
#X connect 5 0 13 0;
#X connect 6 0 14 0;
#X connect 7 0 15 0;
#X connect 8 0 16 0;
#X connect 17 0 1 0;
#X connect 17 0 2 0;
#X connect 17 0 3 0;
#X connect 17 0 4 0;
#X connect 18 0 5 0;
#X connect 18 0 6 0;
#X connect 18 0 7 0;
#X connect 18 0 8 0;
#X connect 19 0 3 0;
#X connect 19 0 4 0;
#X connect 19 0 7 0;
#X connect 19 0 8 0;
#X restore 416 10 pd randomfilter8fader;
#X obj 375 120 bng 10 250 50 0 empty empty empty 17 7 0 10 -66577 -3707
-1;
#X obj 375 109 cnv 8 8 8 empty empty f 2 6 1 10 -162280 -1 0;
#X obj 375 132 bng 10 250 50 0 empty empty empty 17 7 0 10 -66577 -3707
-1;
#X obj 423 109 cnv 10 20 10 empty empty amp 2 6 1 9 -162280 -1 0;
#X obj 375 144 bng 10 250 50 0 empty empty empty 17 7 0 10 -66577 -3707
-1;
#X obj 386 168 cnv 10 14 10 empty empty fm/rat 2 6 1 9 -162280 -1 0
;
#X obj 363 156 bng 10 250 50 0 empty empty empty 17 7 0 10 -66577 -3707
-1;
#X obj 375 156 bng 10 250 50 0 empty empty empty 17 7 0 10 -66577 -3707
-1;
#X obj 117 116 cnv 8 10 10 empty empty 1/2 2 6 1 9 -245500 -1 0;
#X obj 117 126 cnv 8 10 10 empty empty 1/4 2 6 1 9 -245500 -1 0;
#X obj 117 136 cnv 8 10 10 empty empty 1/8 2 6 1 9 -245500 -1 0;
#X obj 117 146 cnv 8 10 10 empty empty /16 2 6 1 9 -245500 -1 0;
#X obj 117 166 cnv 8 10 10 empty empty saw 2 6 1 9 -245500 -1 0;
#X obj 117 176 cnv 8 10 10 empty empty sqr 2 6 1 9 -245500 -1 0;
#X obj 117 186 cnv 8 10 10 empty empty sin 2 6 1 9 -245500 -1 0;
#X obj 160 171 cnv 8 10 10 empty empty fm 2 6 1 9 -245500 -1 0;
#X obj 160 185 cnv 8 10 10 empty empty rat 2 6 1 9 -245500 -1 0;
#X obj 160 155 cnv 8 10 10 empty empty res 2 6 1 9 -245500 -1 0;
#N canvas 0 97 450 300 randomlevel8fader 0;
#X obj 20 19 inlet;
#X obj 10 234 outlet;
#X obj 60 234 outlet;
#X obj 110 234 outlet;
#X obj 160 234 outlet;
#X obj 210 234 outlet;
#X obj 260 234 outlet;
#X obj 310 234 outlet;
#X obj 360 234 outlet;
#X obj 15 71 random 127;
#X obj 85 71 random 127;
#X obj 155 71 random 127;
#X obj 225 71 random 127;
#X obj 25 91 random 127;
#X obj 95 91 random 127;
#X obj 165 91 random 127;
#X obj 235 91 random 127;
#X obj 60 19 inlet;
#X obj 100 19 inlet;
#X obj 140 19 inlet;
#X connect 0 0 9 0;
#X connect 0 0 13 0;
#X connect 0 0 10 0;
#X connect 0 0 14 0;
#X connect 0 0 11 0;
#X connect 0 0 15 0;
#X connect 0 0 12 0;
#X connect 0 0 16 0;
#X connect 9 0 1 0;
#X connect 10 0 3 0;
#X connect 11 0 5 0;
#X connect 12 0 7 0;
#X connect 13 0 2 0;
#X connect 14 0 4 0;
#X connect 15 0 6 0;
#X connect 16 0 8 0;
#X connect 17 0 9 0;
#X connect 17 0 13 0;
#X connect 17 0 10 0;
#X connect 17 0 14 0;
#X connect 18 0 11 0;
#X connect 18 0 15 0;
#X connect 18 0 12 0;
#X connect 18 0 16 0;
#X connect 19 0 10 0;
#X connect 19 0 14 0;
#X connect 19 0 12 0;
#X connect 19 0 16 0;
#X restore 518 48 pd randomlevel8fader;
#X obj 387 120 bng 10 250 50 0 empty empty empty 17 7 0 10 -66577 -3707
-1;
#X obj 389 110 cnv 8 8 8 empty empty l 2 6 1 10 -162280 -1 0;
#X obj 387 132 bng 10 250 50 0 empty empty empty 17 7 0 10 -66577 -3707
-1;
#X obj 387 144 bng 10 250 50 0 empty empty empty 17 7 0 10 -66577 -3707
-1;
#X obj 387 156 bng 10 250 50 0 empty empty empty 17 7 0 10 -66577 -3707
-1;
#X obj 363 168 bng 10 250 50 0 empty empty empty 17 7 0 10 -3707 -66577
-1;
#X obj 375 168 bng 10 250 50 0 empty empty empty 17 7 0 10 -3707 -66577
-1;
#X obj 547 258 random 50;
#X obj 547 280 + 1;
#X obj 617 280 + 1;
#X obj 617 258 random 33;
#X obj 398 120 cnv 8 8 8 empty empty all 2 6 1 9 -162280 -1 0;
#X obj 398 132 cnv 8 8 8 empty empty m1 2 6 1 9 -162280 -1 0;
#X obj 398 144 cnv 8 8 8 empty empty m2 2 6 1 9 -162280 -1 0;
#X obj 398 156 cnv 8 8 8 empty empty /m 2 6 1 9 -162280 -1 0;
#X obj 559 225 spigot;
#X obj 609 225 spigot;
#X msg 584 186 1;
#X obj 363 180 tgl 10 0 empty empty empty 17 7 0 10 -66577 -3707 -1
0 1;
#X obj 375 180 tgl 10 0 empty empty empty 17 7 0 10 -66577 -3707 -1
0 1;
#X obj 386 179 cnv 10 14 10 empty empty seqfm 2 6 1 9 -162280 -1 0
;
#X obj 10 573 line~;
#X msg 10 549 \$1 \$2;
#X floatatom 145 137 4 20 4000 0 - - -, f 4;
#X obj 11 524 pack f f;
#X obj 143 126 cnv 8 10 8 empty empty decay 2 6 1 9 -245500 -1 0;
#X obj 101 199 cnv 8 10 8 empty empty mixout 2 6 1 9 -262144 -1 0;
#X msg 9 35 200;
#X obj 11 479 t b f b;
#X msg -68 578 0 \$1;
#X obj -51 557 f;
#X obj -61 536 delay 50;
#X msg 56 502 5;
#N canvas 243 281 604 300 recibepulsos 0;
#X obj 216 -4 inlet;
#X obj 7 272 outlet;
#X obj 216 22 sel 0 1 2 3 4;
#X obj 132 164 r pbar;
#X obj 175 164 r pblanca;
#X obj 236 164 r pnegra;
#X obj 291 164 r pcorchea;
#X obj 358 164 r pscorchea;
#X obj 132 186 spigot;
#X obj 175 186 spigot;
#X obj 236 186 spigot;
#X obj 291 186 spigot;
#X obj 358 186 spigot;
#X msg 13 60 1 0 0 0 0;
#X obj 13 82 unpack f f f f f;
#X msg 123 60 1 0 0 0 0;
#X obj 123 82 unpack f f f f f;
#X msg 233 60 1 0 0 0 0;
#X obj 233 82 unpack f f f f f;
#X msg 343 60 1 0 0 0 0;
#X obj 343 82 unpack f f f f f;
#X msg 453 60 1 0 0 0 0;
#X obj 453 82 unpack f f f f f;
#X connect 0 0 2 0;
#X connect 2 0 13 0;
#X connect 2 1 15 0;
#X connect 2 2 17 0;
#X connect 2 3 19 0;
#X connect 2 4 21 0;
#X connect 3 0 8 0;
#X connect 4 0 9 0;
#X connect 5 0 10 0;
#X connect 6 0 11 0;
#X connect 7 0 12 0;
#X connect 8 0 1 0;
#X connect 9 0 1 0;
#X connect 10 0 1 0;
#X connect 11 0 1 0;
#X connect 12 0 1 0;
#X connect 13 0 14 0;
#X connect 14 0 8 1;
#X connect 14 1 12 1;
#X connect 14 2 11 1;
#X connect 14 3 10 1;
#X connect 14 4 9 1;
#X connect 15 0 16 0;
#X connect 16 0 9 1;
#X connect 16 1 12 1;
#X connect 16 2 11 1;
#X connect 16 3 10 1;
#X connect 16 4 8 1;
#X connect 17 0 18 0;
#X connect 18 0 10 1;
#X connect 18 1 12 1;
#X connect 18 2 11 1;
#X connect 18 3 9 1;
#X connect 18 4 8 1;
#X connect 19 0 20 0;
#X connect 20 0 11 1;
#X connect 20 1 12 1;
#X connect 20 2 10 1;
#X connect 20 3 9 1;
#X connect 20 4 8 1;
#X connect 21 0 22 0;
#X connect 22 0 12 1;
#X connect 22 1 11 1;
#X connect 22 2 10 1;
#X connect 22 3 9 1;
#X connect 22 4 8 1;
#X restore -185 174 pd recibepulsos;
#X obj 159 827 *~ 1;
#N canvas 0 87 450 300 supertriSAW 0;
#X obj 96 101 phasor~;
#X obj 97 159 +~ -0.5;
#X obj 176 101 phasor~;
#X obj 139 202 +~;
#X obj 162 304 +~;
#X obj 177 149 +~;
#X obj 186 121 phasor~;
#X obj 177 171 *~ 0.25;
#X obj 227 278 *~ 3;
#X obj 227 256 bp~ 20000 28;
#X obj 145 256 lop~ 20000;
#X msg 220 79 0.25;
#X msg 238 104 0.29;
#X obj 194 24 loadbang;
#X obj 163 349 outlet~;
#X obj 58 289 outlet~;
#X obj 55 19 inlet~;
#X connect 0 0 1 0;
#X connect 0 0 15 0;
#X connect 1 0 3 0;
#X connect 2 0 5 0;
#X connect 3 0 9 0;
#X connect 3 0 10 0;
#X connect 4 0 14 0;
#X connect 5 0 7 0;
#X connect 6 0 5 1;
#X connect 7 0 3 1;
#X connect 8 0 4 1;
#X connect 9 0 8 0;
#X connect 10 0 4 0;
#X connect 11 0 2 1;
#X connect 12 0 6 1;
#X connect 13 0 11 0;
#X connect 13 0 12 0;
#X connect 16 0 0 0;
#X connect 16 0 2 0;
#X connect 16 0 6 0;
#X restore 104 562 pd supertriSAW;
#X obj 117 731 lop~;
#X obj 158 758 +~;
#N canvas 0 54 1024 546 salvar_guardar_configuraciones_para_pulseq88
0;
#X obj 1 117 inlet;
#X obj 38 117 inlet;
#X obj 75 117 inlet;
#X obj 112 117 inlet;
#X obj 149 117 inlet;
#X obj 186 117 inlet;
#X obj 224 117 inlet;
#X obj 261 117 inlet;
#X obj 298 117 inlet;
#X obj 335 117 inlet;
#X obj 372 117 inlet;
#X obj 409 117 inlet;
#X obj 446 117 inlet;
#X obj 483 117 inlet;
#X obj 521 117 inlet;
#X obj 558 117 inlet;
#X obj 595 117 inlet;
#X obj 632 117 inlet;
#X obj 669 117 inlet;
#X obj 706 117 inlet;
#X obj 743 117 inlet;
#X obj 780 117 inlet;
#X text 228 98 ---------------- pitch 1 al 8 -----------------;
#X text 519 99 ----------------- volumen 1 al 8 ---------------;
#X obj 32 154 f;
#X obj 57 154 f;
#X obj 82 154 f;
#X obj 107 154 f;
#X obj 132 154 f;
#X obj 157 154 f;
#X obj 265 154 f;
#X obj 290 154 f;
#X obj 315 154 f;
#X obj 340 154 f;
#X obj 365 154 f;
#X obj 390 154 f;
#X obj 415 154 f;
#X obj 440 154 f;
#X obj 562 154 f;
#X obj 587 154 f;
#X obj 612 154 f;
#X obj 637 154 f;
#X obj 662 154 f;
#X obj 687 154 f;
#X obj 712 154 f;
#X obj 737 154 f;
#X msg 29 193 add \$1;
#X msg 49 213 add \$1;
#X msg 69 233 add \$1;
#X msg 89 253 add \$1;
#X msg 109 273 add \$1;
#X msg 129 293 add \$1;
#X msg 262 193 add \$1;
#X msg 282 213 add \$1;
#X msg 302 233 add \$1;
#X msg 322 253 add \$1;
#X msg 342 273 add \$1;
#X msg 362 293 add \$1;
#X msg 382 313 add \$1;
#X msg 402 333 add \$1;
#X msg 559 193 add \$1;
#X msg 579 213 add \$1;
#X msg 599 233 add \$1;
#X msg 619 253 add \$1;
#X msg 639 273 add \$1;
#X msg 659 293 add \$1;
#X msg 679 313 add \$1;
#X msg 699 333 add \$1;
#X msg 230 360 clear;
#X obj 819 117 inlet;
#X obj 856 117 inlet;
#X obj 893 117 inlet;
#X obj 930 117 inlet;
#X obj 967 117 inlet;
#X obj 1004 117 inlet;
#X obj 1041 117 inlet;
#X obj 1078 117 inlet;
#X obj 860 154 f;
#X obj 885 154 f;
#X obj 910 154 f;
#X obj 935 154 f;
#X obj 960 154 f;
#X obj 985 154 f;
#X obj 1010 154 f;
#X obj 1035 154 f;
#X msg 857 193 add \$1;
#X msg 877 213 add \$1;
#X msg 897 233 add \$1;
#X msg 917 253 add \$1;
#X msg 937 273 add \$1;
#X msg 957 293 add \$1;
#X msg 977 313 add \$1;
#X msg 997 333 add \$1;
#X text 817 99 ----------------- filtro 1 al 8 ----------------;
#X obj 308 29 t b b b b b b b b b b b b b b b b b b b b b b b b b b
b b b b b b;
#X obj 282 438 textfile;
#X obj 355 439 f;
#X obj 384 439 + 1;
#X obj 1120 117 inlet;
#X obj 1060 389 openpanel;
#X obj 1060 483 textfile;
#X msg 1060 411 read \$1;
#X msg 1101 455 rewind;
#X obj 1074 433 t b b;
#X obj 1160 117 inlet;
#X text 1121 99 SAVE LOAD;
#X obj 666 517 unpack f f f f f f f f f f f f f f f f f f f f f f f
f f f f f f f;
#X msg 355 470 write pulseq88_preset\$1.txt cr;
#X obj 153 576 outlet;
#X obj 195 576 outlet;
#X obj 237 576 outlet;
#X obj 279 576 outlet;
#X obj 321 576 outlet;
#X obj 363 576 outlet;
#X obj 405 576 outlet;
#X obj 447 576 outlet;
#X obj 490 576 outlet;
#X obj 532 576 outlet;
#X obj 574 576 outlet;
#X obj 616 576 outlet;
#X obj 658 576 outlet;
#X obj 700 576 outlet;
#X obj 742 576 outlet;
#X obj 784 576 outlet;
#X obj 827 576 outlet;
#X obj 869 576 outlet;
#X obj 911 576 outlet;
#X obj 953 576 outlet;
#X obj 995 576 outlet;
#X obj 1037 576 outlet;
#X obj 1079 576 outlet;
#X obj 1121 576 outlet;
#X obj 1164 576 outlet;
#X obj 1206 576 outlet;
#X obj 1248 576 outlet;
#X obj 1290 576 outlet;
#X obj 1332 576 outlet;
#X obj 1374 576 outlet;
#X connect 0 0 24 1;
#X connect 1 0 25 1;
#X connect 2 0 26 1;
#X connect 3 0 27 1;
#X connect 4 0 28 1;
#X connect 5 0 29 1;
#X connect 6 0 30 1;
#X connect 7 0 31 1;
#X connect 8 0 32 1;
#X connect 9 0 33 1;
#X connect 10 0 34 1;
#X connect 11 0 35 1;
#X connect 12 0 36 1;
#X connect 13 0 37 1;
#X connect 14 0 38 1;
#X connect 15 0 39 1;
#X connect 16 0 40 1;
#X connect 17 0 41 1;
#X connect 18 0 42 1;
#X connect 19 0 43 1;
#X connect 20 0 44 1;
#X connect 21 0 45 1;
#X connect 24 0 46 0;
#X connect 25 0 47 0;
#X connect 26 0 48 0;
#X connect 27 0 49 0;
#X connect 28 0 50 0;
#X connect 29 0 51 0;
#X connect 30 0 52 0;
#X connect 31 0 53 0;
#X connect 32 0 54 0;
#X connect 33 0 55 0;
#X connect 34 0 56 0;
#X connect 35 0 57 0;
#X connect 36 0 58 0;
#X connect 37 0 59 0;
#X connect 38 0 60 0;
#X connect 39 0 61 0;
#X connect 40 0 62 0;
#X connect 41 0 63 0;
#X connect 42 0 64 0;
#X connect 43 0 65 0;
#X connect 44 0 66 0;
#X connect 45 0 67 0;
#X connect 46 0 95 0;
#X connect 47 0 95 0;
#X connect 48 0 95 0;
#X connect 49 0 95 0;
#X connect 50 0 95 0;
#X connect 51 0 95 0;
#X connect 52 0 95 0;
#X connect 53 0 95 0;
#X connect 54 0 95 0;
#X connect 55 0 95 0;
#X connect 56 0 95 0;
#X connect 57 0 95 0;
#X connect 58 0 95 0;
#X connect 59 0 95 0;
#X connect 60 0 95 0;
#X connect 61 0 95 0;
#X connect 62 0 95 0;
#X connect 63 0 95 0;
#X connect 64 0 95 0;
#X connect 65 0 95 0;
#X connect 66 0 95 0;
#X connect 67 0 95 0;
#X connect 68 0 95 0;
#X connect 69 0 77 1;
#X connect 70 0 78 1;
#X connect 71 0 79 1;
#X connect 72 0 80 1;
#X connect 73 0 81 1;
#X connect 74 0 82 1;
#X connect 75 0 83 1;
#X connect 76 0 84 1;
#X connect 77 0 85 0;
#X connect 78 0 86 0;
#X connect 79 0 87 0;
#X connect 80 0 88 0;
#X connect 81 0 89 0;
#X connect 82 0 90 0;
#X connect 83 0 91 0;
#X connect 84 0 92 0;
#X connect 85 0 95 0;
#X connect 86 0 95 0;
#X connect 87 0 95 0;
#X connect 88 0 95 0;
#X connect 89 0 95 0;
#X connect 90 0 95 0;
#X connect 91 0 95 0;
#X connect 92 0 95 0;
#X connect 94 0 96 0;
#X connect 94 1 84 0;
#X connect 94 2 83 0;
#X connect 94 3 82 0;
#X connect 94 4 81 0;
#X connect 94 5 80 0;
#X connect 94 6 79 0;
#X connect 94 7 78 0;
#X connect 94 8 77 0;
#X connect 94 9 45 0;
#X connect 94 10 44 0;
#X connect 94 11 43 0;
#X connect 94 12 42 0;
#X connect 94 13 41 0;
#X connect 94 14 40 0;
#X connect 94 15 39 0;
#X connect 94 16 38 0;
#X connect 94 17 37 0;
#X connect 94 18 36 0;
#X connect 94 19 35 0;
#X connect 94 20 34 0;
#X connect 94 21 33 0;
#X connect 94 22 32 0;
#X connect 94 23 31 0;
#X connect 94 24 30 0;
#X connect 94 25 29 0;
#X connect 94 26 28 0;
#X connect 94 27 27 0;
#X connect 94 28 26 0;
#X connect 94 29 25 0;
#X connect 94 30 24 0;
#X connect 94 31 68 0;
#X connect 96 0 97 0;
#X connect 96 0 107 0;
#X connect 97 0 96 1;
#X connect 98 0 94 0;
#X connect 99 0 101 0;
#X connect 100 0 106 0;
#X connect 101 0 100 0;
#X connect 101 0 103 0;
#X connect 102 0 100 0;
#X connect 103 0 100 0;
#X connect 103 1 102 0;
#X connect 104 0 99 0;
#X connect 106 0 108 0;
#X connect 106 1 109 0;
#X connect 106 2 110 0;
#X connect 106 3 111 0;
#X connect 106 4 112 0;
#X connect 106 5 113 0;
#X connect 106 6 114 0;
#X connect 106 7 115 0;
#X connect 106 8 116 0;
#X connect 106 9 117 0;
#X connect 106 10 118 0;
#X connect 106 11 119 0;
#X connect 106 12 120 0;
#X connect 106 13 121 0;
#X connect 106 14 122 0;
#X connect 106 15 123 0;
#X connect 106 16 124 0;
#X connect 106 17 125 0;
#X connect 106 18 126 0;
#X connect 106 19 127 0;
#X connect 106 20 128 0;
#X connect 106 21 129 0;
#X connect 106 22 130 0;
#X connect 106 23 131 0;
#X connect 106 24 132 0;
#X connect 106 25 133 0;
#X connect 106 26 134 0;
#X connect 106 27 135 0;
#X connect 106 28 136 0;
#X connect 106 29 137 0;
#X connect 107 0 95 0;
#X restore 296 342 pd salvar_guardar_configuraciones_para_pulseq88
;
#X obj 433 580 outlet midiNote;
#X obj 396 199 cnv 8 10 8 empty empty midiNoteOut 2 6 1 9 -262144 -1
0;
#X obj 184 199 cnv 8 65 10 empty empty empty 20 12 0 14 -228856 -66577
0;
#X obj 185 200 bng 8 250 50 0 empty empty save 10 4 1 9 -1 -3707 -1
;
#X obj 217 200 bng 8 250 50 0 empty empty load 10 4 1 9 -1 -3707 -1
;
#X obj 750 106 r notes;
#X obj 750 132 unpack;
#X floatatom 750 161 5 0 0 0 - - -, f 5;
#X obj 777 213 bng 8 250 50 0 empty empty empty 17 7 0 10 -262144 -1
-1;
#X obj 782 218 bng 8 250 50 0 empty empty empty 17 7 0 10 -262144 -1
-1;
#X obj 787 223 bng 8 250 50 0 empty empty empty 17 7 0 10 -262144 -1
-1;
#X obj 792 228 bng 8 250 50 0 empty empty empty 17 7 0 10 -262144 -1
-1;
#X obj 797 233 bng 8 250 50 0 empty empty empty 17 7 0 10 -262144 -1
-1;
#X obj 776 244 bng 8 250 50 0 empty empty empty 17 7 0 10 -262144 -1
-1;
#X obj 781 249 bng 8 250 50 0 empty empty empty 17 7 0 10 -262144 -1
-1;
#X obj 746 187 sel 65 66 67 68 69 70 71 72 73 74 75 76;
#X obj 874 320 bng 8 250 50 0 empty empty empty 17 7 0 10 -262144 -1
-1;
#X obj 909 376 bng 8 250 50 0 empty empty empty 17 7 0 10 -262144 -1
-1;
#X obj 929 248 bng 8 250 50 0 empty empty empty 17 7 0 10 -262144 -1
-1;
#X obj 936 265 bng 8 250 50 0 empty empty empty 17 7 0 10 -262144 -1
-1;
#X obj 1043 282 bng 8 250 50 0 empty empty empty 17 7 0 10 -262144
-1 -1;
#X obj 826 365 spigot;
#X obj 889 329 tgl 15 0 empty empty empty 17 7 0 10 -262144 -1 -1 0
1;
#X obj 823 407 tgl 15 0 empty empty empty 17 7 0 10 -262144 -1 -1 0
1;
#X obj 946 364 spigot;
#X obj 1009 328 tgl 15 0 empty empty empty 17 7 0 10 -262144 -1 -1
0 1;
#X obj 943 406 tgl 15 0 empty empty empty 17 7 0 10 -262144 -1 -1 0
1;
#X obj 1127 282 + 1;
#X obj 1070 283 float;
#X obj 1123 366 sel 5;
#X obj 1106 185 loadbang;
#X obj 1132 450 tgl 15 0 empty empty empty 17 7 0 10 -262144 -1 -1
0 1;
#X obj 1102 392 bng 8 250 50 0 empty empty empty 17 7 0 10 -262144
-1 -1;
#X floatatom 1123 320 5 0 0 0 - - -, f 5;
#X msg 1217 190 -3;
#X connect 2 0 118 0;
#X connect 3 0 4 0;
#X connect 4 0 77 0;
#X connect 4 0 85 0;
#X connect 4 0 179 0;
#X connect 4 1 78 0;
#X connect 4 1 86 0;
#X connect 4 2 79 0;
#X connect 4 2 87 0;
#X connect 4 3 80 0;
#X connect 4 3 88 0;
#X connect 4 4 81 0;
#X connect 4 4 89 0;
#X connect 4 5 82 0;
#X connect 4 5 90 0;
#X connect 4 6 83 0;
#X connect 4 6 91 0;
#X connect 4 7 84 0;
#X connect 4 7 92 0;
#X connect 5 0 6 0;
#X connect 5 0 61 0;
#X connect 6 0 100 0;
#X connect 7 0 125 0;
#X connect 7 0 128 0;
#X connect 8 0 7 0;
#X connect 8 0 201 0;
#X connect 9 0 7 0;
#X connect 9 0 201 0;
#X connect 10 0 7 0;
#X connect 10 0 201 0;
#X connect 11 0 7 0;
#X connect 11 0 201 0;
#X connect 12 0 7 0;
#X connect 12 0 201 0;
#X connect 13 0 7 0;
#X connect 13 0 201 0;
#X connect 14 0 7 0;
#X connect 14 0 201 0;
#X connect 15 0 7 0;
#X connect 15 0 201 0;
#X connect 16 0 44 0;
#X connect 17 0 44 0;
#X connect 18 0 44 0;
#X connect 19 0 44 0;
#X connect 20 0 44 0;
#X connect 21 0 44 0;
#X connect 22 0 44 0;
#X connect 23 0 44 0;
#X connect 24 0 45 0;
#X connect 25 0 45 0;
#X connect 26 0 45 0;
#X connect 27 0 45 0;
#X connect 28 0 45 0;
#X connect 29 0 45 0;
#X connect 30 0 45 0;
#X connect 31 0 45 0;
#X connect 35 0 8 1;
#X connect 35 0 200 6;
#X connect 36 0 9 1;
#X connect 36 0 200 7;
#X connect 37 0 10 1;
#X connect 37 0 200 8;
#X connect 38 0 11 1;
#X connect 38 0 200 9;
#X connect 39 0 12 1;
#X connect 39 0 200 10;
#X connect 40 0 13 1;
#X connect 40 0 200 11;
#X connect 41 0 14 1;
#X connect 41 0 200 12;
#X connect 42 0 15 1;
#X connect 42 0 200 13;
#X connect 43 0 16 1;
#X connect 43 0 200 14;
#X connect 44 0 190 0;
#X connect 45 0 69 1;
#X connect 45 0 198 1;
#X connect 46 0 24 1;
#X connect 46 0 200 22;
#X connect 47 0 17 1;
#X connect 47 0 200 15;
#X connect 48 0 25 1;
#X connect 48 0 200 23;
#X connect 49 0 18 1;
#X connect 49 0 200 16;
#X connect 50 0 26 1;
#X connect 50 0 200 24;
#X connect 51 0 19 1;
#X connect 51 0 200 17;
#X connect 52 0 27 1;
#X connect 52 0 200 25;
#X connect 53 0 20 1;
#X connect 53 0 200 18;
#X connect 54 0 28 1;
#X connect 54 0 200 26;
#X connect 55 0 21 1;
#X connect 55 0 200 19;
#X connect 56 0 29 1;
#X connect 56 0 200 27;
#X connect 57 0 22 1;
#X connect 57 0 200 20;
#X connect 58 0 30 1;
#X connect 58 0 200 28;
#X connect 59 0 23 1;
#X connect 59 0 200 21;
#X connect 60 0 31 1;
#X connect 60 0 200 29;
#X connect 61 0 69 0;
#X connect 61 0 198 0;
#X connect 62 0 63 0;
#X connect 62 0 200 1;
#X connect 63 0 97 0;
#X connect 63 1 98 0;
#X connect 63 2 99 0;
#X connect 64 0 69 0;
#X connect 64 0 198 0;
#X connect 65 0 69 0;
#X connect 65 0 198 0;
#X connect 66 0 65 1;
#X connect 66 1 61 1;
#X connect 66 2 64 1;
#X connect 67 0 64 1;
#X connect 67 1 61 1;
#X connect 67 2 65 1;
#X connect 68 0 61 1;
#X connect 68 1 64 1;
#X connect 68 2 65 1;
#X connect 69 0 199 1;
#X connect 70 0 69 2;
#X connect 70 0 200 3;
#X connect 71 0 72 0;
#X connect 72 0 196 0;
#X connect 73 0 72 1;
#X connect 74 0 73 0;
#X connect 75 0 76 0;
#X connect 76 0 74 0;
#X connect 77 0 16 0;
#X connect 77 1 24 0;
#X connect 77 2 8 0;
#X connect 78 0 17 0;
#X connect 78 1 25 0;
#X connect 78 2 9 0;
#X connect 79 0 18 0;
#X connect 79 1 26 0;
#X connect 79 2 10 0;
#X connect 80 0 19 0;
#X connect 80 1 27 0;
#X connect 80 2 11 0;
#X connect 81 0 20 0;
#X connect 81 1 28 0;
#X connect 81 2 12 0;
#X connect 82 0 21 0;
#X connect 82 1 29 0;
#X connect 82 2 13 0;
#X connect 83 0 22 0;
#X connect 83 1 30 0;
#X connect 83 2 14 0;
#X connect 84 0 23 0;
#X connect 84 1 31 0;
#X connect 84 2 15 0;
#X connect 93 0 195 0;
#X connect 93 0 200 0;
#X connect 94 0 95 0;
#X connect 94 0 101 0;
#X connect 94 0 109 0;
#X connect 94 0 124 0;
#X connect 94 0 134 0;
#X connect 94 0 135 0;
#X connect 94 0 136 0;
#X connect 94 0 189 0;
#X connect 95 0 93 0;
#X connect 97 0 66 0;
#X connect 98 0 67 0;
#X connect 99 0 68 0;
#X connect 100 0 64 0;
#X connect 101 0 70 0;
#X connect 101 0 121 0;
#X connect 101 0 62 0;
#X connect 101 0 132 0;
#X connect 102 0 110 0;
#X connect 103 0 111 0;
#X connect 104 0 112 0;
#X connect 105 0 113 0;
#X connect 106 0 114 0;
#X connect 107 0 115 0;
#X connect 108 0 116 0;
#X connect 109 0 117 0;
#X connect 110 0 3 1;
#X connect 111 0 3 1;
#X connect 112 0 3 1;
#X connect 113 0 3 1;
#X connect 114 0 3 1;
#X connect 115 0 3 1;
#X connect 116 0 3 1;
#X connect 117 0 3 1;
#X connect 118 0 119 0;
#X connect 118 1 120 0;
#X connect 119 0 196 1;
#X connect 120 0 196 1;
#X connect 124 0 75 0;
#X connect 125 0 197 0;
#X connect 126 0 127 0;
#X connect 127 0 125 1;
#X connect 128 0 126 0;
#X connect 129 0 127 1;
#X connect 130 0 129 0;
#X connect 131 0 133 0;
#X connect 131 0 200 4;
#X connect 132 0 128 1;
#X connect 132 0 200 5;
#X connect 133 0 130 0;
#X connect 134 0 43 0;
#X connect 134 0 46 0;
#X connect 134 0 47 0;
#X connect 134 0 48 0;
#X connect 134 0 49 0;
#X connect 134 0 50 0;
#X connect 134 0 51 0;
#X connect 134 0 52 0;
#X connect 134 0 53 0;
#X connect 134 0 54 0;
#X connect 134 0 55 0;
#X connect 134 0 56 0;
#X connect 134 0 57 0;
#X connect 134 0 58 0;
#X connect 134 0 59 0;
#X connect 134 0 60 0;
#X connect 135 0 35 0;
#X connect 135 0 36 0;
#X connect 135 0 38 0;
#X connect 135 0 39 0;
#X connect 135 0 40 0;
#X connect 135 0 42 0;
#X connect 136 0 37 0;
#X connect 136 0 41 0;
#X connect 137 0 35 0;
#X connect 137 1 36 0;
#X connect 137 2 37 0;
#X connect 137 3 38 0;
#X connect 137 4 39 0;
#X connect 137 5 40 0;
#X connect 137 6 41 0;
#X connect 137 7 42 0;
#X connect 138 0 137 0;
#X connect 140 0 137 1;
#X connect 141 0 137 2;
#X connect 142 0 46 0;
#X connect 142 1 48 0;
#X connect 142 2 50 0;
#X connect 142 3 52 0;
#X connect 142 4 54 0;
#X connect 142 5 56 0;
#X connect 142 6 58 0;
#X connect 142 7 60 0;
#X connect 143 0 142 0;
#X connect 145 0 142 1;
#X connect 147 0 142 2;
#X connect 149 0 137 3;
#X connect 150 0 142 3;
#X connect 161 0 43 0;
#X connect 161 1 47 0;
#X connect 161 2 49 0;
#X connect 161 3 51 0;
#X connect 161 4 53 0;
#X connect 161 5 55 0;
#X connect 161 6 57 0;
#X connect 161 7 59 0;
#X connect 162 0 161 0;
#X connect 164 0 161 1;
#X connect 165 0 161 2;
#X connect 166 0 161 3;
#X connect 167 0 169 0;
#X connect 168 0 172 0;
#X connect 169 0 170 0;
#X connect 170 0 131 0;
#X connect 171 0 132 0;
#X connect 172 0 171 0;
#X connect 177 0 167 0;
#X connect 178 0 168 0;
#X connect 179 0 177 0;
#X connect 179 0 178 0;
#X connect 180 0 177 1;
#X connect 181 0 178 1;
#X connect 183 0 71 1;
#X connect 184 0 183 0;
#X connect 185 0 192 1;
#X connect 185 0 200 2;
#X connect 186 0 184 0;
#X connect 189 0 185 0;
#X connect 190 0 193 0;
#X connect 190 1 186 0;
#X connect 190 2 194 0;
#X connect 191 0 183 0;
#X connect 192 0 191 0;
#X connect 193 0 192 0;
#X connect 194 0 186 1;
#X connect 195 0 3 0;
#X connect 196 0 96 0;
#X connect 197 0 5 0;
#X connect 197 1 65 0;
#X connect 198 0 199 0;
#X connect 199 0 71 0;
#X connect 200 0 93 0;
#X connect 200 1 62 0;
#X connect 200 2 185 0;
#X connect 200 3 70 0;
#X connect 200 4 131 0;
#X connect 200 5 132 0;
#X connect 200 6 35 0;
#X connect 200 7 36 0;
#X connect 200 8 37 0;
#X connect 200 9 38 0;
#X connect 200 10 39 0;
#X connect 200 11 40 0;
#X connect 200 12 41 0;
#X connect 200 13 42 0;
#X connect 200 14 43 0;
#X connect 200 15 47 0;
#X connect 200 16 49 0;
#X connect 200 17 51 0;
#X connect 200 18 53 0;
#X connect 200 19 55 0;
#X connect 200 20 57 0;
#X connect 200 21 59 0;
#X connect 200 22 46 0;
#X connect 200 23 48 0;
#X connect 200 24 50 0;
#X connect 200 25 52 0;
#X connect 200 26 54 0;
#X connect 200 27 56 0;
#X connect 200 28 58 0;
#X connect 200 29 60 0;
#X connect 204 0 200 30;
#X connect 205 0 200 31;
#X connect 206 0 207 0;
#X connect 207 0 208 0;
#X connect 208 0 216 0;
#X connect 209 0 138 0;
#X connect 210 0 143 0;
#X connect 211 0 162 0;
#X connect 212 0 140 0;
#X connect 213 0 145 0;
#X connect 214 0 164 0;
#X connect 215 0 141 0;
#X connect 216 0 209 0;
#X connect 216 1 210 0;
#X connect 216 2 211 0;
#X connect 216 3 212 0;
#X connect 216 4 213 0;
#X connect 216 5 214 0;
#X connect 216 6 215 0;
#X connect 216 7 217 0;
#X connect 216 8 218 0;
#X connect 216 9 219 0;
#X connect 216 10 220 0;
#X connect 216 11 221 0;
#X connect 217 0 223 0;
#X connect 217 0 222 0;
#X connect 218 0 225 0;
#X connect 218 0 226 0;
#X connect 219 0 149 0;
#X connect 220 0 150 0;
#X connect 221 0 229 0;
#X connect 222 0 224 0;
#X connect 223 0 222 1;
#X connect 224 0 180 0;
#X connect 225 0 227 0;
#X connect 226 0 225 1;
#X connect 227 0 181 0;
#X connect 228 0 229 1;
#X connect 228 0 234 0;
#X connect 229 0 228 0;
#X connect 230 0 233 0;
#X connect 231 0 235 0;
#X connect 232 0 235 0;
#X connect 233 0 232 0;
#X connect 234 0 230 0;
#X connect 234 0 93 0;
#X connect 235 0 234 0;
#X connect 235 0 229 0;
#X coords 0 -1 1 1 356 110 2 100 100;
