#N canvas 566 159 450 326 10;
#X obj 200 16 inlet~;
#X obj 276 50 del 2000;
#X obj 276 72 t b b;
#X msg 303 95 stop;
#X obj 322 182 expr 2000*$f1;
#X msg 322 204 0 \, 88200 \$1;
#X obj 322 226 line~;
#X obj 322 270 *~;
#X obj 322 292 outlet~;
#X obj 404 19 table \$0-tab 88200;
#X obj 199 137 tabwrite~ \$0-tab;
#X obj 322 248 tabread4~ \$0-tab;
#X floatatom 147 141 5 0 0 0 - - -, f 5;
#X obj 147 170 / 100;
#X obj 146 124 bng 15 250 50 0 empty empty empty 17 7 0 10 -262144
-1 -1;
#X floatatom 109 141 5 0 0 0 - - -, f 5;
#X obj 322 160 f;
#X obj 163 124 bng 15 250 50 0 empty empty empty 17 7 0 10 -262144
-1 -1;
#X connect 0 0 10 0;
#X connect 1 0 2 0;
#X connect 2 0 16 0;
#X connect 2 1 3 0;
#X connect 3 0 10 0;
#X connect 4 0 5 0;
#X connect 5 0 6 0;
#X connect 6 0 11 0;
#X connect 7 0 8 0;
#X connect 11 0 7 0;
#X connect 12 0 13 0;
#X connect 13 0 7 1;
#X connect 14 0 1 0;
#X connect 14 0 10 0;
#X connect 15 0 16 1;
#X connect 16 0 4 0;
#X connect 17 0 16 0;
#X coords 0 -1 1 1 85 60 1 100 100;
