#N canvas 319 148 569 365 10;
#X obj 185 6 inlet~;
#X obj 205 135 +~;
#X obj 255 135 +~;
#X obj 322 175 +~;
#X obj 369 175 -~;
#X obj 62 313 outlet~ l;
#X obj 126 313 outlet~ r;
#X obj 202 175 +~;
#X obj 249 175 -~;
#X obj 203 212 +~;
#X obj 249 212 +~;
#X obj 308 211 -~;
#X obj 355 211 -~;
#X obj 193 234 *~ 0.4;
#X obj 239 234 *~ 0.37;
#X obj 298 233 *~ 0.333;
#X obj 355 233 *~ 0.3;
#X obj 355 255 delwrite~ \$0-D 1000;
#X obj 297 275 delwrite~ \$0-C 1000;
#X obj 238 295 delwrite~ \$0-B 1000;
#X obj 193 315 delwrite~ \$0-A 1000;
#X obj 204 74 lop~;
#X obj 237 6 mtof;
#X msg 237 28 \$1 20;
#X obj 237 50 line;
#X obj 370 40 vd~ \$0-A 101;
#X obj 400 64 vd~ \$0-B 143;
#X obj 431 87 vd~ \$0-C 165;
#X obj 411 21 * 1.01;
#X obj 457 45 * 1.43;
#X obj 492 67 * 1.65;
#X obj 517 89 * 1.77;
#X obj 469 108 vd~ \$0-D 177;
#X obj 204 96 hip~;
#X obj 277 6 mtof;
#X msg 277 28 \$1 20;
#X obj 277 50 line;
#X obj 9 9 loadbang;
#X msg 9 31 100;
#X msg 43 31 0;
#X obj 104 104 cnv 15 78 104 empty empty empty 20 12 0 14 -228856 -66577
0;
#X obj 105 107 cnv 4 4 4 empty empty in~ 0 3 1 9 -228856 -1 0;
#X obj 105 202 cnv 4 4 4 empty empty outL~ 0 3 1 9 -228856 -1 0;
#X obj 155 202 cnv 4 4 4 empty empty outR~ 0 3 1 9 -228856 -1 0;
#X obj 106 115 cnv 4 74 11 empty empty refractor 2 6 1 9 -259826 -228856
0;
#X obj 106 131 vsl 15 64 0 127 0 0 empty empty LP 2 50 1 9 -228856
-259826 -259826 0 1;
#X obj 124 131 vsl 15 64 0 127 0 0 empty empty HP 2 50 1 9 -228856
-259826 -259826 0 1;
#X obj 150 131 vsl 30 64 100 163 0 0 empty empty decay 1 50 1 10 -228856
-259826 -259826 0 1;
#X connect 0 0 21 0;
#X connect 1 0 5 0;
#X connect 1 0 7 0;
#X connect 1 0 8 0;
#X connect 2 0 6 0;
#X connect 2 0 7 1;
#X connect 2 0 8 1;
#X connect 3 0 11 1;
#X connect 3 0 9 1;
#X connect 4 0 12 1;
#X connect 4 0 10 1;
#X connect 7 0 9 0;
#X connect 7 0 11 0;
#X connect 8 0 10 0;
#X connect 8 0 12 0;
#X connect 9 0 13 0;
#X connect 10 0 14 0;
#X connect 11 0 15 0;
#X connect 12 0 16 0;
#X connect 13 0 20 0;
#X connect 14 0 19 0;
#X connect 15 0 18 0;
#X connect 16 0 17 0;
#X connect 21 0 33 0;
#X connect 22 0 23 0;
#X connect 23 0 24 0;
#X connect 24 0 21 1;
#X connect 25 0 1 1;
#X connect 26 0 2 1;
#X connect 27 0 3 0;
#X connect 27 0 4 0;
#X connect 28 0 25 0;
#X connect 29 0 26 0;
#X connect 30 0 27 0;
#X connect 31 0 32 0;
#X connect 32 0 3 1;
#X connect 32 0 4 1;
#X connect 33 0 1 0;
#X connect 33 0 2 0;
#X connect 34 0 35 0;
#X connect 35 0 36 0;
#X connect 36 0 33 1;
#X connect 37 0 38 0;
#X connect 37 0 39 0;
#X connect 38 0 45 0;
#X connect 39 0 46 0;
#X connect 45 0 22 0;
#X connect 46 0 34 0;
#X connect 47 0 28 0;
#X connect 47 0 29 0;
#X connect 47 0 30 0;
#X connect 47 0 31 0;
#X coords 0 -1 1 1 85 112 2 100 100;
