#N canvas 0 54 1024 546 10;
#X obj 57 189 sel 0 1 2 3;
#X obj 173 221 f;
#X obj 203 221 f;
#X obj 233 221 f;
#X obj 263 221 f;
#X obj 230 255 mtof;
#X obj 237 69 snapshot~;
#X obj 297 69 snapshot~;
#X obj 357 69 snapshot~;
#X obj 417 69 snapshot~;
#X obj 358 3 osc~ 100;
#X obj 86 10 noise~;
#X obj 318 275 mtof;
#X obj 358 275 mtof;
#X obj 396 275 mtof;
#X obj 435 275 mtof;
#X obj 238 45 *~ 1;
#X obj 298 45 *~ 1;
#X obj 358 45 *~ 1;
#X obj 418 45 *~ 1;
#X obj 298 3 osc~ 100;
#X obj 418 3 osc~ 100;
#X obj 636 23 loadbang;
#X msg 507 57 0;
#X obj 318 297 / 2;
#X obj 358 297 / 4;
#X obj 435 297 * 2;
#X obj 8 10 r pscorchea;
#X obj 81 93 metro 50;
#X msg 548 61 1;
#X obj 81 123 f;
#X obj 106 123 + 1;
#X obj 24 147 spigot;
#X obj 159 171 spigot;
#X obj 155 102 sel 0;
#X obj 154 143 unpack f f;
#X obj 224 143 unpack f f;
#X msg 224 121 1 0;
#X msg 154 121 1 0;
#X obj 57 167 mod 4;
#X obj 353 104 cnv 15 80 102 empty empty lfo>cutoff 17 7 1 9 -1 -162280
0;
#X obj 304 104 cnv 15 45 102 empty empty empty 12 7 1 11 -3707 -1 0
;
#X obj 360 118 vsl 15 32 0 127 0 0 empty empty A 4 30 1 9 -162280 -4032
-1 1562 1;
#X obj 377 118 vsl 15 32 0 127 0 0 empty empty B 5 30 1 9 -162280 -4032
-1 1962 1;
#X obj 394 118 vsl 15 32 0 127 0 0 empty empty C 5 30 1 9 -162280 -4032
-1 2462 1;
#X obj 411 118 vsl 15 32 0 127 0 0 empty empty D 5 30 1 9 -162280 -4032
-1 1062 1;
#X obj 360 160 vsl 15 32 0 127 0 0 empty empty empty 5 30 1 9 -162280
-4032 -1 162 1;
#X obj 377 160 vsl 15 32 0 127 0 0 empty empty empty 5 30 1 9 -162280
-4032 -1 562 1;
#X obj 394 160 vsl 15 32 0 127 0 0 empty empty empty 5 30 1 9 -162280
-4032 -1 862 1;
#X obj 411 160 vsl 15 32 0 127 0 0 empty empty empty 5 30 1 9 -162280
-4032 -1 2162 1;
#X floatatom 305 133 4 20 500 0 - - -, f 4;
#X floatatom 305 149 4 1 10 0 - - -, f 4;
#X floatatom 305 165 4 1 400 0 - - -, f 4;
#X obj 317 119 hradio 10 1 0 2 empty empty seq 2 -4 1 9 -66577 -4032
-1 0;
#X obj 77 341 *~ 0.9;
#X obj 57 256 delwrite~ \$0-rez 1;
#X obj 91 311 vd~ \$0-rez;
#X obj 90 292 / 50;
#X obj 310 122 cnv 4 4 4 empty empty s 0 2 1 9 -3707 -1 0;
#X obj 339 122 cnv 4 4 4 empty empty m 0 2 1 9 -3707 -1 0;
#X obj 333 140 cnv 4 4 4 empty empty mm 0 2 1 9 -3707 -1 0;
#X obj 335 156 cnv 4 4 4 empty empty pk 0 2 1 9 -3707 -1 0;
#X obj 334 172 cnv 4 4 4 empty empty rez 0 2 1 9 -3707 -1 0;
#X msg 578 61 20;
#X msg 608 64 4;
#X msg 668 68 64;
#X msg 638 66 100;
#X obj 437 104 cnv 15 103 102 empty empty empty 20 12 0 14 -228856
-66577 0;
#X obj 438 197 cnv 8 24 8 empty empty delay 2 4 1 9 -228856 -1 0;
#X obj 466 197 cnv 8 22 8 empty empty feedback 2 4 1 9 -228856 -1 0
;
#X obj 439 109 tgl 10 0 empty empty on 12 5 1 9 -66577 -3707 -1 0 1
;
#X obj 143 521 *~ 0.5;
#X obj 114 446 vd~ \$0mndf;
#X floatatom 439 126 4 1 1000 0 - - -, f 4;
#X obj 200 474 / 100;
#X obj 116 409 delwrite~ \$0mndf 2;
#X obj 196 521 / 127;
#X obj 470 126 hsl 64 14 0 127 0 0 empty empty empty -2 -8 0 10 -66577
-3707 -1 0 1;
#X obj 313 521 *~ 0.5;
#X obj 370 474 / 100;
#X obj 366 521 / 127;
#X floatatom 439 144 4 1 1000 0 - - -, f 4;
#X obj 266 409 delwrite~ \$0mndf2 3;
#X obj 264 446 vd~ \$0mndf2;
#X obj 473 521 *~ 0.5;
#X obj 530 474 / 100;
#X obj 526 521 / 127;
#X obj 426 409 delwrite~ \$0mndf3 4;
#X obj 424 446 vd~ \$0mndf3;
#X floatatom 439 162 4 1 1000 0 - - -, f 4;
#X obj 673 511 *~ 0.5;
#X obj 730 464 / 100;
#X obj 726 511 / 127;
#X obj 584 446 vd~ \$0mndf4;
#X obj 586 409 delwrite~ \$0mndf4 5;
#X floatatom 439 180 4 1 1000 0 - - -, f 4;
#X obj 470 144 hsl 64 14 0 127 0 0 empty empty empty -2 -8 0 10 -66577
-3707 -1 0 1;
#X obj 470 162 hsl 64 14 0 127 0 0 empty empty empty -2 -8 0 10 -66577
-3707 -1 0 1;
#X obj 470 180 hsl 64 14 0 127 0 0 empty empty empty -2 -8 0 10 -66577
-3707 -1 0 1;
#X obj 395 681 *~;
#X obj 493 710 *~;
#X obj 577 630 t f f;
#X msg 574 654 1;
#X msg 604 654 0;
#X obj 657 630 t f f;
#X msg 654 654 1;
#X msg 684 654 0;
#X obj 597 591 sel 1;
#X msg 713 42 150 250 350 450;
#X obj 713 64 unpack f f f f;
#X obj 443 744 clip~ -1 1;
#X obj 443 766 *~;
#X obj 526 751 line~;
#X msg 527 732 \$1 20;
#X obj 533 713 / 127;
#X obj 544 127 vsl 30 64 0 127 0 0 empty empty empty 0 -9 0 10 -66577
-3707 -1 5900 1;
#X obj 549 196 cnv 8 24 8 empty empty amp 2 4 1 9 -262144 -1 0;
#X obj 443 788 outlet~;
#X obj 195 328 bp~;
#X obj 407 711 *~ 0.1;
#X obj 211 366 *~ 0.2;
#X obj 238 3 osc~ 100;
#X obj 238 23 +~ 1;
#X obj 298 23 +~ 1;
#X obj 358 23 +~ 1;
#X obj 418 23 +~ 1;
#X obj 359 197 cnv 8 24 8 empty empty beat 2 4 1 9 -1 -162280 0;
#N canvas 228 196 450 300 tipodeacorde 0;
#X msg 9 63 190 380 420 500;
#X msg 22 86 190 210 450 500;
#X msg 40 109 190 250 450 500;
#X msg 55 133 190 390 400 520;
#X msg 143 63 190 300 320 400;
#X msg 155 85 190 300 380 600;
#X msg 175 107 190 320 380 600;
#X msg 192 130 190 225 320 430;
#X msg 77 158 190 330 490 500;
#X msg 208 157 190 200 320 360;
#X msg 233 185 190 210 380 430;
#X obj 100 234 unpack f f f f;
#X obj 15 281 outlet;
#X obj 65 281 outlet;
#X obj 115 281 outlet;
#X obj 165 281 outlet;
#X obj 37 32 select 0 1 2 3 4 5 6 7 8 9 10;
#X obj 36 6 inlet;
#X connect 0 0 11 0;
#X connect 1 0 11 0;
#X connect 2 0 11 0;
#X connect 3 0 11 0;
#X connect 4 0 11 0;
#X connect 5 0 11 0;
#X connect 6 0 11 0;
#X connect 7 0 11 0;
#X connect 8 0 11 0;
#X connect 9 0 11 0;
#X connect 10 0 11 0;
#X connect 11 0 12 0;
#X connect 11 1 13 0;
#X connect 11 2 14 0;
#X connect 11 3 15 0;
#X connect 16 0 0 0;
#X connect 16 1 1 0;
#X connect 16 2 2 0;
#X connect 16 3 3 0;
#X connect 16 4 8 0;
#X connect 16 5 4 0;
#X connect 16 6 5 0;
#X connect 16 7 6 0;
#X connect 16 8 7 0;
#X connect 16 9 9 0;
#X connect 16 10 10 0;
#X connect 17 0 16 0;
#X restore 488 14 pd tipodeacorde;
#X floatatom 467 108 3 0 11 0 - - -, f 3;
#X obj 488 110 cnv 8 24 8 empty empty ch 2 4 1 9 -228856 -1 0;
#X obj 547 109 tgl 10 0 empty empty ext 12 5 1 9 -66577 -3707 -1 0
1;
#X obj 135 11 inlet~;
#X obj 85 66 *~;
#X obj 135 66 *~;
#X obj 651 165 sel 1;
#X obj 618 228 unpack f f;
#X obj 688 228 unpack f f;
#X msg 652 194 1 0;
#X msg 682 194 1 0;
#X floatatom 305 181 4 0 99 0 - - -, f 4;
#X obj 334 187 cnv 4 4 4 empty empty lev 0 2 1 9 -3707 -1 0;
#X obj 305 210 / 100;
#X msg 728 145 90;
#X obj 306 201 cnv 4 4 4 empty empty out 0 2 1 9 -3707 -1 0;
#X obj 306 106 cnv 4 4 4 empty empty ext.in 0 2 1 9 -3707 -1 0;
#X obj 505 112 cnv 8 24 8 empty empty ripio 2 4 1 14 -228856 -1 0;
#X obj 416 195 bng 10 250 50 0 empty empty empty 17 7 0 10 -3707 -1
-1;
#X obj 386 197 cnv 8 24 8 empty empty phase 2 4 1 9 -1 -162280 0;
#X msg 412 232 0;
#X connect 0 0 1 0;
#X connect 0 1 2 0;
#X connect 0 2 3 0;
#X connect 0 3 4 0;
#X connect 1 0 5 0;
#X connect 2 0 5 0;
#X connect 3 0 5 0;
#X connect 4 0 5 0;
#X connect 5 0 118 1;
#X connect 6 0 1 1;
#X connect 7 0 2 1;
#X connect 8 0 3 1;
#X connect 9 0 4 1;
#X connect 10 0 124 0;
#X connect 11 0 132 0;
#X connect 12 0 24 0;
#X connect 13 0 25 0;
#X connect 14 0 10 0;
#X connect 15 0 26 0;
#X connect 16 0 6 0;
#X connect 17 0 7 0;
#X connect 18 0 8 0;
#X connect 19 0 9 0;
#X connect 20 0 123 0;
#X connect 21 0 125 0;
#X connect 22 0 23 0;
#X connect 22 0 29 0;
#X connect 22 0 63 0;
#X connect 22 0 64 0;
#X connect 22 0 66 0;
#X connect 22 0 65 0;
#X connect 22 0 108 0;
#X connect 22 0 138 0;
#X connect 22 0 142 0;
#X connect 23 0 20 1;
#X connect 23 0 10 1;
#X connect 23 0 53 0;
#X connect 23 0 121 1;
#X connect 23 0 21 1;
#X connect 24 0 121 0;
#X connect 25 0 20 0;
#X connect 26 0 21 0;
#X connect 27 0 32 0;
#X connect 28 0 6 0;
#X connect 28 0 7 0;
#X connect 28 0 8 0;
#X connect 28 0 9 0;
#X connect 28 0 30 0;
#X connect 29 0 28 0;
#X connect 29 0 70 0;
#X connect 29 0 128 0;
#X connect 30 0 31 0;
#X connect 30 0 33 0;
#X connect 31 0 30 1;
#X connect 32 0 39 0;
#X connect 33 0 39 0;
#X connect 34 0 38 0;
#X connect 34 1 37 0;
#X connect 35 0 32 1;
#X connect 35 1 33 1;
#X connect 36 0 33 1;
#X connect 36 1 32 1;
#X connect 37 0 36 0;
#X connect 38 0 35 0;
#X connect 39 0 0 0;
#X connect 42 0 16 1;
#X connect 43 0 17 1;
#X connect 44 0 18 1;
#X connect 45 0 19 1;
#X connect 46 0 12 0;
#X connect 47 0 13 0;
#X connect 48 0 14 0;
#X connect 49 0 15 0;
#X connect 50 0 28 1;
#X connect 51 0 118 2;
#X connect 52 0 57 0;
#X connect 53 0 34 0;
#X connect 54 0 55 0;
#X connect 56 0 54 0;
#X connect 56 0 118 0;
#X connect 57 0 56 0;
#X connect 63 0 50 0;
#X connect 64 0 51 0;
#X connect 65 0 42 0;
#X connect 65 0 43 0;
#X connect 65 0 44 0;
#X connect 65 0 45 0;
#X connect 65 0 46 0;
#X connect 65 0 47 0;
#X connect 65 0 48 0;
#X connect 65 0 49 0;
#X connect 66 0 52 0;
#X connect 66 0 115 0;
#X connect 70 0 107 0;
#X connect 71 0 75 0;
#X connect 72 0 71 0;
#X connect 72 0 99 0;
#X connect 73 0 74 0;
#X connect 74 0 72 0;
#X connect 76 0 71 1;
#X connect 77 0 76 0;
#X connect 78 0 82 0;
#X connect 79 0 83 0;
#X connect 80 0 78 1;
#X connect 81 0 79 0;
#X connect 83 0 78 0;
#X connect 83 0 99 0;
#X connect 84 0 87 0;
#X connect 84 0 99 0;
#X connect 85 0 88 0;
#X connect 86 0 84 1;
#X connect 88 0 84 0;
#X connect 89 0 85 0;
#X connect 90 0 94 0;
#X connect 90 0 99 0;
#X connect 91 0 93 0;
#X connect 92 0 90 1;
#X connect 93 0 90 0;
#X connect 95 0 91 0;
#X connect 96 0 80 0;
#X connect 97 0 86 0;
#X connect 98 0 92 0;
#X connect 99 0 119 0;
#X connect 100 0 110 0;
#X connect 101 0 102 0;
#X connect 101 1 103 0;
#X connect 102 0 99 1;
#X connect 103 0 100 1;
#X connect 104 0 105 0;
#X connect 104 1 106 0;
#X connect 105 0 100 1;
#X connect 106 0 99 1;
#X connect 107 0 101 0;
#X connect 107 1 104 0;
#X connect 108 0 109 0;
#X connect 109 0 73 0;
#X connect 109 1 81 0;
#X connect 109 2 89 0;
#X connect 109 3 95 0;
#X connect 110 0 111 0;
#X connect 111 0 117 0;
#X connect 112 0 111 1;
#X connect 113 0 112 0;
#X connect 114 0 113 0;
#X connect 115 0 114 0;
#X connect 118 0 120 0;
#X connect 119 0 110 0;
#X connect 120 0 94 0;
#X connect 120 0 87 0;
#X connect 120 0 82 0;
#X connect 120 0 75 0;
#X connect 120 0 100 0;
#X connect 121 0 122 0;
#X connect 122 0 16 0;
#X connect 123 0 17 0;
#X connect 124 0 18 0;
#X connect 125 0 19 0;
#X connect 127 0 73 0;
#X connect 127 1 81 0;
#X connect 127 2 89 0;
#X connect 127 3 95 0;
#X connect 128 0 127 0;
#X connect 130 0 134 0;
#X connect 131 0 133 0;
#X connect 132 0 55 0;
#X connect 133 0 55 0;
#X connect 134 0 137 0;
#X connect 134 1 138 0;
#X connect 135 0 133 1;
#X connect 135 1 132 1;
#X connect 136 0 132 1;
#X connect 136 1 133 1;
#X connect 137 0 135 0;
#X connect 138 0 136 0;
#X connect 139 0 141 0;
#X connect 141 0 54 1;
#X connect 142 0 139 0;
#X connect 146 0 148 0;
#X connect 148 0 121 1;
#X connect 148 0 20 1;
#X connect 148 0 10 1;
#X connect 148 0 21 1;
#X coords 0 -1 1 1 277 112 2 300 100;
