#N canvas 0 54 1024 546 10;
#N canvas 160 242 604 300 recibepulsos 0;
#X obj 216 -4 inlet;
#X obj 7 272 outlet;
#X obj 216 22 sel 0 1 2 3 4;
#X obj 142 186 spigot;
#X obj 205 186 spigot;
#X obj 276 186 spigot;
#X obj 351 186 spigot;
#X obj 428 186 spigot;
#X msg 13 60 1 0 0 0 0;
#X obj 13 82 unpack f f f f f;
#X msg 123 60 1 0 0 0 0;
#X obj 123 82 unpack f f f f f;
#X msg 233 60 1 0 0 0 0;
#X obj 233 82 unpack f f f f f;
#X msg 343 60 1 0 0 0 0;
#X obj 343 82 unpack f f f f f;
#X msg 453 60 1 0 0 0 0;
#X obj 453 82 unpack f f f f f;
#X obj 428 164 r pfusa;
#X obj 351 164 r pscorchea;
#X obj 276 164 r pbardiv12;
#X obj 205 164 r pcorchea;
#X obj 142 164 r pnegra;
#X connect 0 0 2 0;
#X connect 2 0 8 0;
#X connect 2 1 10 0;
#X connect 2 2 12 0;
#X connect 2 3 14 0;
#X connect 2 4 16 0;
#X connect 3 0 1 0;
#X connect 4 0 1 0;
#X connect 5 0 1 0;
#X connect 6 0 1 0;
#X connect 7 0 1 0;
#X connect 8 0 9 0;
#X connect 9 0 3 1;
#X connect 9 1 7 1;
#X connect 9 2 6 1;
#X connect 9 3 5 1;
#X connect 9 4 4 1;
#X connect 10 0 11 0;
#X connect 11 0 4 1;
#X connect 11 1 7 1;
#X connect 11 2 6 1;
#X connect 11 3 5 1;
#X connect 11 4 3 1;
#X connect 12 0 13 0;
#X connect 13 0 5 1;
#X connect 13 1 7 1;
#X connect 13 2 6 1;
#X connect 13 3 4 1;
#X connect 13 4 3 1;
#X connect 14 0 15 0;
#X connect 15 0 6 1;
#X connect 15 1 7 1;
#X connect 15 2 5 1;
#X connect 15 3 4 1;
#X connect 15 4 3 1;
#X connect 16 0 17 0;
#X connect 17 0 7 1;
#X connect 17 1 6 1;
#X connect 17 2 5 1;
#X connect 17 3 4 1;
#X connect 17 4 3 1;
#X connect 18 0 7 0;
#X connect 19 0 6 0;
#X connect 20 0 5 0;
#X connect 21 0 4 0;
#X connect 22 0 3 0;
#X restore 60 72 pd recibepulsos;
#X obj 60 106 mod 16;
#X obj 60 138 sel 0 1 2 3 4 5 6 7 8 9 10 11 12 13 14 15 16 17 18 19
20 21 22 23 24 25;
#X obj 60 198 f;
#X obj 84 198 f;
#X obj 108 198 f;
#X obj 132 198 f;
#X obj 156 198 f;
#X obj 180 198 f;
#X obj 204 198 f;
#X obj 228 198 f;
#X obj 252 198 f;
#X obj 276 198 f;
#X obj 300 198 f;
#X obj 324 198 f;
#X obj 348 198 f;
#X obj 372 198 f;
#X obj 396 198 f;
#X obj 420 198 f;
#X obj 444 198 f;
#X obj 468 198 f;
#X obj 492 198 f;
#X obj 516 198 f;
#X obj 540 198 f;
#X obj 564 198 f;
#X obj 588 198 f;
#X obj 612 198 f;
#X obj 636 198 f;
#X obj 660 198 f;
#X obj 590 260 sel 0 1 2 3 4 5 6 7 8 9 10 11 12 13 14 15;
#X obj 287 50 unpack f f f f f f f f f f f f f f f f f f f f f f f
f f f f;
#N canvas 0 54 1024 546 SeqDeNumeros 0;
#X obj 6 9 inlet;
#X obj 6 376 outlet;
#N canvas 0 102 450 300 transitAdelante 0;
#X obj 19 11 inlet;
#X obj 19 273 outlet;
#X obj 19 33 select 1 2 3 4 5 6 7 8;
#X msg 19 62 16 0 1 2 3 4 5 6 7 8 9 10 11 12 13 14 15 0 0 0 0 0 0 0
0 0 0 0;
#X msg 35 96 8 0 1 2 3 4 5 6 7 0 0 0 0 0 0 0 0 0 0 0 0 0 0 0 0 0 0
0;
#X msg 51 118 8 8 9 10 11 12 13 14 15 0 0 0 0 0 0 0 0 0 0 0 0 0 0 0
0 0 0;
#X msg 67 139 8 4 5 6 7 8 9 10 11 0 0 0 0 0 0 0 0 0 0 0 0 0 0 0 0 0
0;
#X msg 83 161 4 0 1 2 3 0 0 0 0 0 0 0 0 0 0 0 0 0 0 0 0 0 0 0 0 0 0
0;
#X msg 99 183 4 4 5 6 7 0 0 0 0 0 0 0 0 0 0 0 0 0 0 0 0 0 0 0 0 0 0
;
#X msg 115 204 4 8 9 10 11 0 0 0 0 0 0 0 0 0 0 0 0 0 0 0 0 0 0 0 0
0 0;
#X msg 131 225 4 12 13 14 15 0 0 0 0 0 0 0 0 0 0 0 0 0 0 0 0 0 0 0
0 0 0;
#X connect 0 0 2 0;
#X connect 2 0 3 0;
#X connect 2 1 4 0;
#X connect 2 2 5 0;
#X connect 2 3 6 0;
#X connect 2 4 7 0;
#X connect 2 5 8 0;
#X connect 2 6 9 0;
#X connect 2 7 10 0;
#X connect 3 0 1 0;
#X connect 4 0 1 0;
#X connect 5 0 1 0;
#X connect 6 0 1 0;
#X connect 7 0 1 0;
#X connect 8 0 1 0;
#X connect 9 0 1 0;
#X connect 10 0 1 0;
#X restore 102 55 pd transitAdelante;
#N canvas 403 143 450 300 transitAtras 0;
#X obj 20 10 inlet;
#X obj 23 274 outlet;
#X obj 20 32 select 9 10 11 12 13 14 15 16;
#X msg 20 64 16 15 14 13 12 11 10 9 8 7 6 5 4 3 2 1 0 0 0 0 0 0 0 0
0 0 0;
#X msg 41 86 8 15 14 13 12 11 10 9 8 0 0 0 0 0 0 0 0 0 0 0 0 0 0 0
0 0 0;
#X msg 62 109 8 7 6 5 4 3 2 1 0 0 0 0 0 0 0 0 0 0 0 0 0 0 0 0 0 0 0
;
#X msg 84 132 8 11 10 9 8 7 6 5 4 0 0 0 0 0 0 0 0 0 0 0 0 0 0 0 0 0
0;
#X msg 105 153 4 15 14 13 12 0 0 0 0 0 0 0 0 0 0 0 0 0 0 0 0 0 0 0
0 0 0;
#X msg 125 175 4 11 10 9 8 0 0 0 0 0 0 0 0 0 0 0 0 0 0 0 0 0 0 0 0
0 0;
#X msg 145 197 4 7 6 5 4 0 0 0 0 0 0 0 0 0 0 0 0 0 0 0 0 0 0 0 0 0
0;
#X msg 165 219 4 3 2 1 0 0 0 0 0 0 0 0 0 0 0 0 0 0 0 0 0 0 0 0 0 0
0;
#X connect 0 0 2 0;
#X connect 2 0 3 0;
#X connect 2 1 4 0;
#X connect 2 2 5 0;
#X connect 2 3 6 0;
#X connect 2 4 7 0;
#X connect 2 5 8 0;
#X connect 2 6 9 0;
#X connect 2 7 10 0;
#X connect 3 0 1 0;
#X connect 4 0 1 0;
#X connect 5 0 1 0;
#X connect 6 0 1 0;
#X connect 7 0 1 0;
#X connect 8 0 1 0;
#X connect 9 0 1 0;
#X connect 10 0 1 0;
#X restore 102 89 pd transitAtras;
#N canvas 0 92 450 300 transitSaltosAdelante 0;
#X obj 16 6 inlet;
#X obj 16 28 select 17 18 19 20 21;
#X obj 9 258 outlet;
#X msg 16 57 8 0 2 4 6 8 10 12 14 0 0 0 0 0 0 0 0 0 0 0 0 0 0 0 0 0
0;
#X msg 40 77 8 1 3 5 7 9 11 13 15 0 0 0 0 0 0 0 0 0 0 0 0 0 0 0 0 0
0;
#X msg 65 97 8 0 3 4 7 8 11 12 15 0 0 0 0 0 0 0 0 0 0 0 0 0 0 0 0 0
0;
#X msg 114 137 4 0 5 10 15 0 0 0 0 0 0 0 0 0 0 0 0 0 0 0 0 0 0 0 0
0 0;
#X msg 89 117 4 0 4 8 12 0 0 0 0 0 0 0 0 0 0 0 0 0 0 0 0 0 0 0 0 0
0;
#X connect 0 0 1 0;
#X connect 1 0 3 0;
#X connect 1 1 4 0;
#X connect 1 2 5 0;
#X connect 1 3 7 0;
#X connect 1 4 6 0;
#X connect 3 0 2 0;
#X connect 4 0 2 0;
#X connect 5 0 2 0;
#X connect 6 0 2 0;
#X connect 7 0 2 0;
#X restore 102 123 pd transitSaltosAdelante;
#N canvas 0 92 450 300 transitSaltosAtras 0;
#X obj 17 12 inlet;
#X obj 17 34 select 22 23 24 25 26;
#X obj 16 237 outlet;
#X msg 17 62 8 15 13 11 9 7 5 3 1 0 0 0 0 0 0 0 0 0 0 0 0 0 0 0 0 0
0;
#X msg 41 82 8 14 12 10 8 6 4 2 0 0 0 0 0 0 0 0 0 0 0 0 0 0 0 0 0 0
0;
#X msg 66 102 8 15 12 11 8 7 4 3 0 0 0 0 0 0 0 0 0 0 0 0 0 0 0 0 0
0 0;
#X msg 91 122 4 15 11 7 3 0 0 0 0 0 0 0 0 0 0 0 0 0 0 0 0 0 0 0 0 0
0;
#X msg 115 142 4 15 10 5 0 0 0 0 0 0 0 0 0 0 0 0 0 0 0 0 0 0 0 0 0
0 0;
#X connect 0 0 1 0;
#X connect 1 0 3 0;
#X connect 1 1 4 0;
#X connect 1 2 5 0;
#X connect 1 3 6 0;
#X connect 1 4 7 0;
#X connect 3 0 2 0;
#X connect 4 0 2 0;
#X connect 5 0 2 0;
#X connect 6 0 2 0;
#X connect 7 0 2 0;
#X restore 102 157 pd transitSaltosAtras;
#N canvas 0 54 1024 546 transitSaltosAdelanteAlternados 0;
#X obj 6 10 inlet;
#X obj 6 32 sel 27 28 29 30 31 32 33 34 35 36 37 38 39 40 41 42 43
44 45 46 47 48 49 50 51 52 53 54 55;
#X obj 2 479 outlet;
#X msg 6 73 16 0 2 1 3 4 6 5 7 8 10 9 11 12 14 13 15 0 0 0 0 0 0 0
0 0 0;
#X msg 18 96 26 0 3 1 4 2 5 3 6 4 7 5 8 6 9 7 10 8 11 9 12 10 13 11
14 12 15;
#X msg 30 130 16 0 4 2 6 1 5 3 7 8 12 10 14 9 13 11 15 0 0 0 0 0 0
0 0 0 0;
#X msg 42 150 16 0 4 8 12 2 6 10 14 1 5 9 13 3 7 11 15 0 0 0 0 0 0
0 0 0 0;
#X msg 55 170 16 0 4 9 13 2 6 11 15 1 5 8 12 3 7 10 14 0 0 0 0 0 0
0 0 0 0;
#X msg 67 191 16 0 8 4 12 1 9 5 13 2 10 6 14 3 11 7 15 0 0 0 0 0 0
0 0 0 0;
#X msg 79 212 8 0 5 2 7 8 13 10 15 0 0 0 0 0 0 0 0 0 0 0 0 0 0 0 0
0 0;
#X msg 92 233 16 0 5 1 4 2 7 3 6 8 13 9 12 10 15 11 14 0 0 0 0 0 0
0 0 0 0;
#X msg 104 253 8 0 5 10 15 3 6 9 12 0 0 0 0 0 0 0 0 0 0 0 0 0 0 0 0
0 0;
#X msg 116 273 16 0 4 1 5 2 6 3 7 8 12 9 13 10 14 11 15 0 0 0 0 0 0
0 0 0 0;
#X msg 128 293 12 0 4 8 1 5 9 2 6 10 3 7 11 0 0 0 0 0 0 0 0 0 0 0 0
0 0;
#X msg 142 313 16 0 4 8 12 1 5 9 13 2 6 10 14 3 7 11 15 0 0 0 0 0 0
0 0 0 0;
#X msg 154 334 8 0 15 5 10 3 12 6 9 0 0 0 0 0 0 0 0 0 0 0 0 0 0 0 0
0 0;
#X msg 166 355 12 0 4 8 5 9 13 2 6 10 7 11 15 0 0 0 0 0 0 0 0 0 0 0
0 0 0;
#X msg 178 376 12 0 4 8 12 5 9 6 10 3 7 11 15 0 0 0 0 0 0 0 0 0 0 0
0 0 0;
#X msg 189 397 12 0 4 8 12 1 13 2 14 3 7 11 15 0 0 0 0 0 0 0 0 0 0
0 0 0 0;
#X msg 202 417 16 0 4 8 12 3 7 11 15 1 5 9 13 2 6 10 14 0 0 0 0 0 0
0 0 0 0;
#X msg 215 438 16 0 4 8 12 3 7 11 15 1 5 10 14 2 6 9 3 0 0 0 0 0 0
0 0 0 0;
#X msg 227 458 16 0 1 2 3 8 9 10 11 4 5 6 7 12 13 14 15 0 0 0 0 0 0
0 0 0 0;
#X msg 423 130 16 0 1 2 3 12 13 14 15 4 5 6 7 8 9 10 11 0 0 0 0 0 0
0 0 0 0;
#X msg 435 150 22 0 5 1 6 2 7 3 4 5 8 6 9 7 10 11 12 8 13 9 14 10 15
0 0 0 0;
#X msg 448 184 16 0 8 1 9 2 10 3 11 4 12 5 13 6 14 7 15 0 0 0 0 0 0
0 0 0 0;
#X msg 461 204 8 0 1 5 6 8 9 13 14 0 0 0 0 0 0 0 0 0 0 0 0 0 0 0 0
0 0;
#X msg 474 224 8 1 2 6 7 9 10 14 15 0 0 0 0 0 0 0 0 0 0 0 0 0 0 0 0
0 0;
#X msg 487 245 16 0 1 5 6 8 9 13 14 1 2 6 7 9 10 14 15 0 0 0 0 0 0
0 0 0 0;
#X msg 500 268 12 0 4 5 9 8 12 3 7 6 10 11 15 0 0 0 0 0 0 0 0 0 0 0
0 0 0;
#X msg 515 289 16 0 4 8 12 3 7 11 15 1 2 5 6 9 10 13 14 0 0 0 0 0 0
0 0 0 0;
#X msg 525 310 16 0 4 11 15 3 7 8 12 1 5 10 14 2 6 9 13 0 0 0 0 0 0
0 0 0 0;
#X msg 538 330 16 0 4 1 5 10 14 11 15 2 6 3 7 8 12 9 13 0 0 0 0 0 0
0 0 0 0;
#X connect 0 0 1 0;
#X connect 1 0 3 0;
#X connect 1 1 4 0;
#X connect 1 2 5 0;
#X connect 1 3 6 0;
#X connect 1 4 7 0;
#X connect 1 5 8 0;
#X connect 1 6 9 0;
#X connect 1 7 10 0;
#X connect 1 8 11 0;
#X connect 1 9 12 0;
#X connect 1 10 13 0;
#X connect 1 11 14 0;
#X connect 1 12 15 0;
#X connect 1 13 16 0;
#X connect 1 14 17 0;
#X connect 1 15 18 0;
#X connect 1 16 19 0;
#X connect 1 17 20 0;
#X connect 1 18 21 0;
#X connect 1 19 22 0;
#X connect 1 20 23 0;
#X connect 1 21 24 0;
#X connect 1 22 25 0;
#X connect 1 23 26 0;
#X connect 1 24 27 0;
#X connect 1 25 28 0;
#X connect 1 26 29 0;
#X connect 1 27 30 0;
#X connect 1 28 31 0;
#X connect 3 0 2 0;
#X connect 4 0 2 0;
#X connect 5 0 2 0;
#X connect 6 0 2 0;
#X connect 7 0 2 0;
#X connect 8 0 2 0;
#X connect 9 0 2 0;
#X connect 10 0 2 0;
#X connect 11 0 2 0;
#X connect 12 0 2 0;
#X connect 13 0 2 0;
#X connect 14 0 2 0;
#X connect 15 0 2 0;
#X connect 16 0 2 0;
#X connect 17 0 2 0;
#X connect 18 0 2 0;
#X connect 19 0 2 0;
#X connect 20 0 2 0;
#X connect 21 0 2 0;
#X connect 22 0 2 0;
#X connect 23 0 2 0;
#X connect 24 0 2 0;
#X connect 25 0 2 0;
#X connect 26 0 2 0;
#X connect 27 0 2 0;
#X connect 28 0 2 0;
#X connect 29 0 2 0;
#X connect 30 0 2 0;
#X connect 31 0 2 0;
#X restore 102 191 pd transitSaltosAdelanteAlternados;
#N canvas 0 54 1024 546 transitSaltosAtrasAlternados 0;
#X obj 6 10 inlet;
#X obj 2 479 outlet;
#X msg 6 73 16 15 13 14 12 11 9 10 8 7 5 6 4 3 1 2 0 0 0 0 0 0 0 0
0 0 0;
#X msg 18 96 26 15 12 14 11 13 10 12 9 11 8 10 7 9 6 8 5 7 4 6 3 5
2 4 1 3 0;
#X msg 30 130 16 15 11 13 9 14 10 12 8 7 3 5 1 6 2 4 0 0 0 0 0 0 0
0 0 0 0;
#X msg 42 150 16 15 11 7 3 13 9 5 1 14 10 6 2 12 8 4 0 0 0 0 0 0 0
0 0 0 0;
#X msg 55 170 16 14 10 7 3 12 8 5 1 15 11 6 2 13 9 4 0 0 0 0 0 0 0
0 0 0 0;
#X msg 67 191 16 15 7 11 3 14 6 10 2 13 5 9 1 12 4 8 0 0 0 0 0 0 0
0 0 0 0;
#X msg 79 212 8 15 10 3 8 7 2 5 0 0 0 0 0 0 0 0 0 0 0 0 0 0 0 0 0 0
0;
#X msg 92 233 16 14 11 15 10 12 9 3 8 6 3 7 2 4 1 5 0 0 0 0 0 0 0 0
0 0 0;
#X msg 104 253 8 12 9 6 3 15 10 5 0 0 0 0 0 0 0 0 0 0 0 0 0 0 0 0 0
0 0;
#X msg 116 273 16 15 11 14 10 13 9 12 8 7 3 6 2 5 1 4 0 0 0 0 0 0 0
0 0 0 0;
#X msg 128 293 12 11 7 3 10 6 2 9 5 1 8 4 0 0 0 0 0 0 0 0 0 0 0 0 0
0 0;
#X msg 142 313 16 15 11 7 3 14 10 6 2 13 9 5 1 12 8 4 0 0 0 0 0 0 0
0 0 0 0;
#X msg 154 334 8 9 6 12 3 10 5 15 0 0 0 0 0 0 0 0 0 0 0 0 0 0 0 0 0
0 0;
#X msg 166 355 12 15 11 7 10 6 2 13 9 5 8 4 0 0 0 0 0 0 0 0 0 0 0 0
0 0 0;
#X msg 178 376 12 15 11 7 3 10 6 9 5 12 8 4 0 0 0 0 0 0 0 0 0 0 0 0
0 0 0;
#X msg 189 397 12 15 11 7 3 14 2 13 1 12 8 4 0 0 0 0 0 0 0 0 0 0 0
0 0 0 0;
#X msg 202 417 16 14 10 6 2 13 9 5 1 15 11 7 3 12 8 4 0 0 0 0 0 0 0
0 0 0 0;
#X msg 215 438 16 3 9 6 2 14 10 5 1 15 11 7 3 12 8 4 0 0 0 0 0 0 0
0 0 0 0;
#X msg 227 458 16 15 14 13 12 7 6 5 4 11 10 9 8 3 2 1 0 0 0 0 0 0 0
0 0 0 0;
#X msg 423 130 16 11 10 9 8 7 6 5 4 15 14 13 12 3 2 1 0 0 0 0 0 0 0
0 0 0 0;
#X msg 435 150 22 15 10 14 9 13 8 12 11 10 7 9 6 8 5 4 3 7 2 6 1 5
0 0 0 0 0;
#X msg 448 184 16 15 7 14 6 13 5 12 4 11 3 10 2 9 1 8 0 0 0 0 0 0 0
0 0 0 0;
#X msg 461 204 8 14 13 9 8 6 5 1 0 0 0 0 0 0 0 0 0 0 0 0 0 0 0 0 0
0 0;
#X msg 474 224 8 15 14 10 9 7 6 2 1 0 0 0 0 0 0 0 0 0 0 0 0 0 0 0 0
0 0;
#X msg 487 245 16 15 14 10 9 7 6 2 1 14 13 9 8 6 5 1 0 0 0 0 0 0 0
0 0 0 0;
#X msg 500 268 12 15 11 10 6 7 3 12 8 9 5 4 0 0 0 0 0 0 0 0 0 0 0 0
0 0 0;
#X msg 515 289 16 14 13 10 9 6 5 2 1 15 11 7 3 12 8 4 0 0 0 0 0 0 0
0 0 0 0;
#X msg 525 310 16 13 9 6 2 14 10 5 1 12 8 7 3 15 11 4 0 0 0 0 0 0 0
0 0 0 0;
#X msg 538 330 16 13 9 12 8 7 3 6 2 15 11 14 10 5 1 4 0 0 0 0 0 0 0
0 0 0 0;
#X obj 6 34 sel 56 57 58 59 60 61 62 63 64 65 66 67 68 69 70 71 72
73 74 75 76 77 78 79 80 81 82 83 84;
#X connect 0 0 31 0;
#X connect 2 0 1 0;
#X connect 3 0 1 0;
#X connect 4 0 1 0;
#X connect 5 0 1 0;
#X connect 6 0 1 0;
#X connect 7 0 1 0;
#X connect 8 0 1 0;
#X connect 9 0 1 0;
#X connect 10 0 1 0;
#X connect 11 0 1 0;
#X connect 12 0 1 0;
#X connect 13 0 1 0;
#X connect 14 0 1 0;
#X connect 15 0 1 0;
#X connect 16 0 1 0;
#X connect 17 0 1 0;
#X connect 18 0 1 0;
#X connect 19 0 1 0;
#X connect 20 0 1 0;
#X connect 21 0 1 0;
#X connect 22 0 1 0;
#X connect 23 0 1 0;
#X connect 24 0 1 0;
#X connect 25 0 1 0;
#X connect 26 0 1 0;
#X connect 27 0 1 0;
#X connect 28 0 1 0;
#X connect 29 0 1 0;
#X connect 30 0 1 0;
#X connect 31 0 2 0;
#X connect 31 1 3 0;
#X connect 31 2 4 0;
#X connect 31 3 5 0;
#X connect 31 4 6 0;
#X connect 31 5 7 0;
#X connect 31 6 8 0;
#X connect 31 7 9 0;
#X connect 31 8 10 0;
#X connect 31 9 11 0;
#X connect 31 10 12 0;
#X connect 31 11 13 0;
#X connect 31 12 14 0;
#X connect 31 13 15 0;
#X connect 31 14 16 0;
#X connect 31 15 17 0;
#X connect 31 16 18 0;
#X connect 31 17 19 0;
#X connect 31 18 20 0;
#X connect 31 19 21 0;
#X connect 31 20 22 0;
#X connect 31 21 23 0;
#X connect 31 22 24 0;
#X connect 31 23 25 0;
#X connect 31 24 26 0;
#X connect 31 25 27 0;
#X connect 31 26 28 0;
#X connect 31 27 29 0;
#X connect 31 28 30 0;
#X restore 102 225 pd transitSaltosAtrasAlternados;
#N canvas 0 97 684 496 transitFormas 0;
#X obj 11 9 inlet;
#X obj 11 31 sel 85 86 87 88 89 90 91 92 93 94 95 96 97 98 99 100 101
102 103;
#X obj 11 479 outlet;
#X msg 11 77 12 0 1 2 3 7 11 15 14 13 12 8 4 0 0 0 0 0 0 0 0 0 0 0
0 0 0;
#X msg 29 98 9 0 5 10 15 14 13 12 8 4 0 0 0 0 0 0 0 0 0 0 0 0 0 0 0
0 0;
#X msg 48 118 9 0 1 2 3 7 11 15 10 5 0 0 0 0 0 0 0 0 0 0 0 0 0 0 0
0 0;
#X msg 67 137 9 3 7 11 15 14 13 12 9 6 0 0 0 0 0 0 0 0 0 0 0 0 0 0
0 0 0;
#X msg 86 158 9 15 14 13 12 8 4 0 5 10 0 0 0 0 0 0 0 0 0 0 0 0 0 0
0 0 0;
#X msg 104 178 4 0 1 5 4 0 0 0 0 0 0 0 0 0 0 0 0 0 0 0 0 0 0 0 0 0
0;
#X msg 122 198 4 2 3 7 6 0 0 0 0 0 0 0 0 0 0 0 0 0 0 0 0 0 0 0 0 0
0;
#X msg 142 218 4 8 9 13 12 0 0 0 0 0 0 0 0 0 0 0 0 0 0 0 0 0 0 0 0
0 0;
#X msg 162 238 4 10 11 15 14 0 0 0 0 0 0 0 0 0 0 0 0 0 0 0 0 0 0 0
0 0 0;
#X msg 182 258 4 5 6 9 10 0 0 0 0 0 0 0 0 0 0 0 0 0 0 0 0 0 0 0 0 0
0;
#X msg 198 278 8 0 4 8 12 13 9 5 1 0 0 0 0 0 0 0 0 0 0 0 0 0 0 0 0
0 0;
#X msg 216 298 8 1 5 9 13 14 10 6 2 0 0 0 0 0 0 0 0 0 0 0 0 0 0 0 0
0 0;
#X msg 236 318 8 2 6 10 14 15 11 7 3 0 0 0 0 0 0 0 0 0 0 0 0 0 0 0
0 0 0;
#X msg 256 338 8 0 1 2 3 7 6 5 4 0 0 0 0 0 0 0 0 0 0 0 0 0 0 0 0 0
0;
#X msg 276 358 8 4 5 6 7 11 10 9 8 0 0 0 0 0 0 0 0 0 0 0 0 0 0 0 0
0 0;
#X msg 296 378 8 8 9 10 11 15 14 13 12 0 0 0 0 0 0 0 0 0 0 0 0 0 0
0 0 0 0;
#X msg 316 398 8 1 2 7 11 14 13 8 4 0 0 0 0 0 0 0 0 0 0 0 0 0 0 0 0
0 0;
#X msg 334 418 12 1 2 6 7 11 10 14 13 9 8 4 5 0 0 0 0 0 0 0 0 0 0 0
0 0 0;
#X msg 351 438 16 0 1 2 3 7 11 15 14 13 12 8 4 5 6 10 9 0 0 0 0 0 0
0 0 0 0;
#X connect 0 0 1 0;
#X connect 1 0 3 0;
#X connect 1 1 4 0;
#X connect 1 2 5 0;
#X connect 1 3 6 0;
#X connect 1 4 7 0;
#X connect 1 5 8 0;
#X connect 1 6 9 0;
#X connect 1 7 10 0;
#X connect 1 8 11 0;
#X connect 1 9 12 0;
#X connect 1 10 13 0;
#X connect 1 11 14 0;
#X connect 1 12 15 0;
#X connect 1 13 16 0;
#X connect 1 14 17 0;
#X connect 1 15 18 0;
#X connect 1 16 19 0;
#X connect 1 17 20 0;
#X connect 1 18 21 0;
#X connect 3 0 2 0;
#X connect 4 0 2 0;
#X connect 5 0 2 0;
#X connect 6 0 2 0;
#X connect 7 0 2 0;
#X connect 8 0 2 0;
#X connect 9 0 2 0;
#X connect 10 0 2 0;
#X connect 11 0 2 0;
#X connect 12 0 2 0;
#X connect 13 0 2 0;
#X connect 14 0 2 0;
#X connect 15 0 2 0;
#X connect 16 0 2 0;
#X connect 17 0 2 0;
#X connect 18 0 2 0;
#X connect 19 0 2 0;
#X connect 20 0 2 0;
#X connect 21 0 2 0;
#X restore 102 259 pd transitFormas;
#N canvas 0 92 764 481 transitFormasAtras 0;
#X obj 11 9 inlet;
#X obj 11 479 outlet;
#X obj 11 35 sel 104 105 106 107 108 109 110 111 112 113 114 115 116
117 118 119 120 121 122;
#X msg 11 77 12 4 8 12 13 1 15 11 7 3 2 1 0 0 0 0 0 0 0 0 0 0 0 0 0
0 0;
#X msg 29 98 9 4 8 12 13 14 15 10 5 0 0 0 0 0 0 0 0 0 0 0 0 0 0 0 0
0 0;
#X msg 48 118 9 5 10 15 11 7 3 2 1 0 0 0 0 0 0 0 0 0 0 0 0 0 0 0 0
0 0;
#X msg 67 137 9 6 9 12 13 14 15 11 7 3 0 0 0 0 0 0 0 0 0 0 0 0 0 0
0 0 0;
#X msg 86 158 9 10 5 0 4 8 12 13 14 15 0 0 0 0 0 0 0 0 0 0 0 0 0 0
0 0 0;
#X msg 104 178 4 4 5 1 0 0 0 0 0 0 0 0 0 0 0 0 0 0 0 0 0 0 0 0 0 0
0;
#X msg 122 198 4 6 7 3 2 0 0 0 0 0 0 0 0 0 0 0 0 0 0 0 0 0 0 0 0 0
0;
#X msg 142 218 4 12 13 9 8 0 0 0 0 0 0 0 0 0 0 0 0 0 0 0 0 0 0 0 0
0 0;
#X msg 162 238 4 14 15 11 10 0 0 0 0 0 0 0 0 0 0 0 0 0 0 0 0 0 0 0
0 0 0;
#X msg 182 258 4 10 9 6 5 0 0 0 0 0 0 0 0 0 0 0 0 0 0 0 0 0 0 0 0 0
0;
#X msg 216 298 8 2 6 10 14 13 9 5 1 0 0 0 0 0 0 0 0 0 0 0 0 0 0 0 0
0 0;
#X msg 198 278 8 1 5 9 13 12 8 4 0 0 0 0 0 0 0 0 0 0 0 0 0 0 0 0 0
0 0;
#X msg 236 318 8 3 7 11 15 14 10 6 2 0 0 0 0 0 0 0 0 0 0 0 0 0 0 0
0 0 0;
#X msg 256 338 8 4 5 6 7 3 2 1 0 0 0 0 0 0 0 0 0 0 0 0 0 0 0 0 0 0
0;
#X msg 276 358 8 8 9 10 11 7 6 5 4 0 0 0 0 0 0 0 0 0 0 0 0 0 0 0 0
0 0;
#X msg 296 378 8 12 13 14 15 11 10 9 8 0 0 0 0 0 0 0 0 0 0 0 0 0 0
0 0 0 0;
#X msg 316 398 8 4 8 13 14 11 7 2 1 0 0 0 0 0 0 0 0 0 0 0 0 0 0 0 0
0 0;
#X msg 334 418 12 5 4 8 9 13 14 10 11 7 2 1 0 0 0 0 0 0 0 0 0 0 0 0
0 0;
#X msg 351 438 16 9 10 6 5 4 8 12 13 14 15 11 7 3 2 1 0 0 0 0 0 0 0
0 0 0 0;
#X connect 0 0 2 0;
#X connect 2 0 3 0;
#X connect 2 1 4 0;
#X connect 2 2 5 0;
#X connect 2 3 6 0;
#X connect 2 4 7 0;
#X connect 2 5 8 0;
#X connect 2 6 9 0;
#X connect 2 7 10 0;
#X connect 2 8 11 0;
#X connect 2 9 12 0;
#X connect 2 10 14 0;
#X connect 2 11 13 0;
#X connect 2 12 15 0;
#X connect 2 13 16 0;
#X connect 2 14 17 0;
#X connect 2 15 18 0;
#X connect 2 16 19 0;
#X connect 2 17 20 0;
#X connect 2 18 21 0;
#X connect 3 0 1 0;
#X connect 4 0 1 0;
#X connect 5 0 1 0;
#X connect 6 0 1 0;
#X connect 7 0 1 0;
#X connect 8 0 1 0;
#X connect 9 0 1 0;
#X connect 10 0 1 0;
#X connect 11 0 1 0;
#X connect 12 0 1 0;
#X connect 13 0 1 0;
#X connect 14 0 1 0;
#X connect 15 0 1 0;
#X connect 16 0 1 0;
#X connect 17 0 1 0;
#X connect 18 0 1 0;
#X connect 19 0 1 0;
#X connect 20 0 1 0;
#X connect 21 0 1 0;
#X restore 102 293 pd transitFormasAtras;
#N canvas 0 54 1024 546 transitAbecedario 0;
#X obj 9 5 inlet;
#X obj 9 27 sel 123 124 125 126 127 128 129 130 131 132 133 134 135
136 137 138 139 140 141 142 143 144 145 146 147 148;
#X obj 10 476 outlet;
#X msg 9 64 12 12 8 4 0 1 2 3 7 11 15 9 10 0 0 0 0 0 0 0 0 0 0 0 0
0 0;
#X msg 22 84 10 12 8 4 0 1 5 9 10 14 13 0 0 0 0 0 0 0 0 0 0 0 0 0 0
0 0;
#X msg 36 103 10 3 2 1 0 4 8 12 13 14 15 0 0 0 0 0 0 0 0 0 0 0 0 0
0 0 0;
#X msg 49 122 10 12 8 4 0 1 2 7 11 14 13 0 0 0 0 0 0 0 0 0 0 0 0 0
0 0 0;
#X msg 63 142 11 3 2 1 0 4 8 12 13 14 15 9 0 0 0 0 0 0 0 0 0 0 0 0
0 0 0;
#X msg 76 162 8 12 8 4 0 1 2 3 9 0 0 0 0 0 0 0 0 0 0 0 0 0 0 0 0 0
0;
#X msg 90 182 12 3 2 1 0 4 8 12 13 14 15 11 10 0 0 0 0 0 0 0 0 0 0
0 0 0 0;
#X msg 103 202 10 0 4 8 12 3 7 11 15 9 10 0 0 0 0 0 0 0 0 0 0 0 0 0
0 0 0;
#X msg 117 222 4 0 4 8 12 0 0 0 0 0 0 0 0 0 0 0 0 0 0 0 0 0 0 0 0 0
0;
#X msg 130 243 5 1 5 13 9 12 0 0 0 0 0 0 0 0 0 0 0 0 0 0 0 0 0 0 0
0 0;
#X msg 144 263 10 0 4 8 12 3 6 5 9 10 15 0 0 0 0 0 0 0 0 0 0 0 0 0
0 0 0;
#X msg 157 283 7 0 4 8 12 13 14 15 0 0 0 0 0 0 0 0 0 0 0 0 0 0 0 0
0 0 0;
#X msg 171 303 10 12 8 4 0 5 6 3 7 11 15 0 0 0 0 0 0 0 0 0 0 0 0 0
0 0 0;
#X msg 185 323 10 12 8 4 0 5 10 15 11 7 3 0 0 0 0 0 0 0 0 0 0 0 0 0
0 0 0;
#X msg 198 343 12 0 4 8 12 13 14 15 11 7 3 2 1 0 0 0 0 0 0 0 0 0 0
0 0 0 0;
#X msg 211 363 9 12 8 4 0 1 2 7 10 9 0 0 0 0 0 0 0 0 0 0 0 0 0 0 0
0 0;
#X msg 222 384 13 0 4 8 12 13 14 15 11 7 3 2 1 10 15 0 0 0 0 0 0 0
0 0 0 0 0 0;
#X msg 236 417 11 12 8 4 0 1 2 7 10 9 10 15 0 0 0 0 0 0 0 0 0 0 0 0
0 0 0;
#X msg 252 436 13 3 2 1 0 4 5 6 7 11 15 14 13 12 0 0 0 0 0 0 0 0 0
0 0 0 0;
#X msg 269 457 12 1 5 9 13 14 10 6 2 0 1 2 3 0 0 0 0 0 0 0 0 0 0 0
0 0 0;
#X msg 446 123 10 0 4 8 12 13 14 15 11 7 3 0 0 0 0 0 0 0 0 0 0 0 0
0 0 0 0;
#X msg 460 143 8 0 4 8 13 14 11 7 3 0 0 0 0 0 0 0 0 0 0 0 0 0 0 0 0
0 0;
#X msg 475 163 10 0 4 8 13 9 10 14 11 7 3 0 0 0 0 0 0 0 0 0 0 0 0 0
0 0 0;
#X msg 490 183 8 0 5 10 15 3 6 9 12 0 0 0 0 0 0 0 0 0 0 0 0 0 0 0 0
0 0;
#X msg 500 203 10 0 5 6 3 5 9 13 14 10 6 0 0 0 0 0 0 0 0 0 0 0 0 0
0 0 0;
#X msg 516 224 10 0 1 2 3 6 9 12 13 14 15 0 0 0 0 0 0 0 0 0 0 0 0 0
0 0 0;
#X connect 0 0 1 0;
#X connect 1 0 3 0;
#X connect 1 1 4 0;
#X connect 1 2 5 0;
#X connect 1 3 6 0;
#X connect 1 4 7 0;
#X connect 1 5 8 0;
#X connect 1 6 9 0;
#X connect 1 7 10 0;
#X connect 1 8 11 0;
#X connect 1 9 12 0;
#X connect 1 10 13 0;
#X connect 1 11 14 0;
#X connect 1 12 15 0;
#X connect 1 13 16 0;
#X connect 1 14 17 0;
#X connect 1 15 18 0;
#X connect 1 16 19 0;
#X connect 1 17 20 0;
#X connect 1 18 21 0;
#X connect 1 19 22 0;
#X connect 1 20 23 0;
#X connect 1 21 24 0;
#X connect 1 22 25 0;
#X connect 1 23 26 0;
#X connect 1 24 27 0;
#X connect 1 25 28 0;
#X connect 3 0 2 0;
#X connect 4 0 2 0;
#X connect 5 0 2 0;
#X connect 6 0 2 0;
#X connect 7 0 2 0;
#X connect 8 0 2 0;
#X connect 9 0 2 0;
#X connect 10 0 2 0;
#X connect 11 0 2 0;
#X connect 12 0 2 0;
#X connect 13 0 2 0;
#X connect 14 0 2 0;
#X connect 15 0 2 0;
#X connect 16 0 2 0;
#X connect 17 0 2 0;
#X connect 18 0 2 0;
#X connect 19 0 2 0;
#X connect 20 0 2 0;
#X connect 21 0 2 0;
#X connect 22 0 2 0;
#X connect 23 0 2 0;
#X connect 24 0 2 0;
#X connect 25 0 2 0;
#X connect 26 0 2 0;
#X connect 27 0 2 0;
#X connect 28 0 2 0;
#X restore 102 327 pd transitAbecedario;
#X connect 0 0 2 0;
#X connect 0 0 3 0;
#X connect 0 0 4 0;
#X connect 0 0 5 0;
#X connect 0 0 6 0;
#X connect 0 0 7 0;
#X connect 0 0 8 0;
#X connect 0 0 9 0;
#X connect 0 0 10 0;
#X connect 2 0 1 0;
#X connect 3 0 1 0;
#X connect 4 0 1 0;
#X connect 5 0 1 0;
#X connect 6 0 1 0;
#X connect 7 0 1 0;
#X connect 8 0 1 0;
#X connect 9 0 1 0;
#X connect 10 0 1 0;
#X restore 287 30 pd SeqDeNumeros;
#X obj 240 248 loadbang;
#X msg 240 270 1;
#X obj 304 354 cnv 8 202 104 empty empty empty 20 12 0 14 -1 -66577
0;
#X obj 307 361 cnv 8 12 52 empty empty empty 20 12 0 14 -3707 -66577
0;
#X obj 308 362 vradio 10 1 0 5 empty empty empty 0 -8 0 10 -1 -3707
-1 0;
#X obj 321 364 cnv 8 8 8 empty empty 1/4 0 4 1 9 -1 -3707 0;
#X obj 321 374 cnv 8 8 8 empty empty 1/8 0 4 1 9 -1 -3707 0;
#X obj 321 384 cnv 8 8 8 empty empty 1/12 0 4 1 9 -1 -3707 0;
#X obj 321 394 cnv 8 8 8 empty empty 1/16 0 4 1 9 -1 -3707 0;
#X obj 321 404 cnv 8 8 8 empty empty 1/32 0 4 1 9 -1 -3707 0;
#X obj 570 464 i;
#X obj 594 464 i;
#X obj 618 464 i;
#X obj 642 464 i;
#X obj 666 464 i;
#X obj 690 464 i;
#X obj 714 464 i;
#X obj 738 464 i;
#X obj 762 464 i;
#X obj 786 464 i;
#X obj 810 464 i;
#X obj 834 464 i;
#X obj 858 464 i;
#X obj 882 464 i;
#X obj 906 464 i;
#X obj 930 464 i;
#X obj 355 370 cnv 15 17 17 empty empty empty 20 12 0 14 -3707 -66577
0;
#X obj 356 371 tgl 15 0 empty empty empty 17 7 0 10 -1 -3707 -1 0 1
;
#X obj 372 370 cnv 15 17 17 empty empty empty 20 12 0 14 -3707 -66577
0;
#X obj 373 371 tgl 15 0 empty empty empty 17 7 0 10 -1 -3707 -1 0 1
;
#X obj 389 370 cnv 15 17 17 empty empty empty 20 12 0 14 -3707 -66577
0;
#X obj 390 371 tgl 15 0 empty empty empty 17 7 0 10 -1 -3707 -1 0 1
;
#X obj 406 370 cnv 15 17 17 empty empty empty 20 12 0 14 -3707 -66577
0;
#X obj 407 371 tgl 15 0 empty empty empty 17 7 0 10 -1 -3707 -1 0 1
;
#X obj 355 387 cnv 15 17 17 empty empty empty 20 12 0 14 -3707 -66577
0;
#X obj 356 388 tgl 15 0 empty empty empty 17 7 0 10 -1 -3707 -1 0 1
;
#X obj 372 387 cnv 15 17 17 empty empty empty 20 12 0 14 -3707 -66577
0;
#X obj 373 388 tgl 15 0 empty empty empty 17 7 0 10 -1 -3707 -1 0 1
;
#X obj 389 387 cnv 15 17 17 empty empty empty 20 12 0 14 -3707 -66577
0;
#X obj 390 388 tgl 15 0 empty empty empty 17 7 0 10 -1 -3707 -1 0 1
;
#X obj 406 387 cnv 15 17 17 empty empty empty 20 12 0 14 -3707 -66577
0;
#X obj 407 388 tgl 15 0 empty empty empty 17 7 0 10 -1 -3707 -1 0 1
;
#X obj 355 404 cnv 15 17 17 empty empty empty 20 12 0 14 -3707 -66577
0;
#X obj 356 405 tgl 15 0 empty empty empty 17 7 0 10 -1 -3707 -1 0 1
;
#X obj 372 404 cnv 15 17 17 empty empty empty 20 12 0 14 -3707 -66577
0;
#X obj 373 405 tgl 15 0 empty empty empty 17 7 0 10 -1 -3707 -1 0 1
;
#X obj 389 404 cnv 15 17 17 empty empty empty 20 12 0 14 -3707 -66577
0;
#X obj 390 405 tgl 15 0 empty empty empty 17 7 0 10 -1 -3707 -1 0 1
;
#X obj 406 404 cnv 15 17 17 empty empty empty 20 12 0 14 -3707 -66577
0;
#X obj 407 405 tgl 15 0 empty empty empty 17 7 0 10 -1 -3707 -1 0 1
;
#X obj 355 421 cnv 15 17 17 empty empty empty 20 12 0 14 -3707 -66577
0;
#X obj 356 422 tgl 15 0 empty empty empty 17 7 0 10 -1 -3707 -1 0 1
;
#X obj 372 421 cnv 15 17 17 empty empty empty 20 12 0 14 -3707 -66577
0;
#X obj 373 422 tgl 15 0 empty empty empty 17 7 0 10 -1 -3707 -1 0 1
;
#X obj 389 421 cnv 15 17 17 empty empty empty 20 12 0 14 -3707 -66577
0;
#X obj 390 422 tgl 15 0 empty empty empty 17 7 0 10 -1 -3707 -1 0 1
;
#X obj 406 421 cnv 15 17 17 empty empty empty 20 12 0 14 -3707 -66577
0;
#X obj 407 422 tgl 15 0 empty empty empty 17 7 0 10 -1 -3707 -1 0 1
;
#X obj 433 370 cnv 15 68 68 empty empty empty 20 12 0 14 -3707 -66577
0;
#X obj 434 371 bng 15 100 50 0 empty empty empty 17 7 0 10 -1 -3707
-1;
#X obj 451 371 bng 15 100 50 0 empty empty empty 17 7 0 10 -1 -3707
-1;
#X obj 468 371 bng 15 100 50 0 empty empty empty 17 7 0 10 -1 -3707
-1;
#X obj 485 371 bng 15 100 50 0 empty empty empty 17 7 0 10 -1 -3707
-1;
#X obj 434 388 bng 15 100 50 0 empty empty empty 17 7 0 10 -1 -3707
-1;
#X obj 451 388 bng 15 100 50 0 empty empty empty 17 7 0 10 -1 -3707
-1;
#X obj 468 388 bng 15 100 50 0 empty empty empty 17 7 0 10 -1 -3707
-1;
#X obj 434 405 bng 15 100 50 0 empty empty empty 17 7 0 10 -1 -3707
-1;
#X obj 451 405 bng 15 100 50 0 empty empty empty 17 7 0 10 -1 -3707
-1;
#X obj 468 405 bng 15 100 50 0 empty empty empty 17 7 0 10 -1 -3707
-1;
#X obj 434 422 bng 15 100 50 0 empty empty empty 17 7 0 10 -1 -3707
-1;
#X obj 451 422 bng 15 100 50 0 empty empty empty 17 7 0 10 -1 -3707
-1;
#X obj 468 422 bng 15 100 50 0 empty empty empty 17 7 0 10 -1 -3707
-1;
#X obj 485 388 bng 15 100 50 0 empty empty empty 17 7 0 10 -1 -3707
-1;
#X obj 485 405 bng 15 100 50 0 empty empty empty 17 7 0 10 -1 -3707
-1;
#X obj 485 422 bng 15 100 50 0 empty empty empty 17 7 0 10 -1 -3707
-1;
#X obj 361 360 cnv 8 8 8 empty empty 1 0 4 1 9 -1 -3707 0;
#X obj 377 360 cnv 8 8 8 empty empty 2 0 4 1 9 -1 -3707 0;
#X obj 394 360 cnv 8 8 8 empty empty 3 0 4 1 9 -1 -3707 0;
#X obj 411 360 cnv 8 8 8 empty empty 4 0 4 1 9 -1 -3707 0;
#X obj 345 375 cnv 8 8 8 empty empty A 0 4 1 9 -1 -3707 0;
#X obj 345 392 cnv 8 8 8 empty empty B 0 4 1 9 -1 -3707 0;
#X obj 345 409 cnv 8 8 8 empty empty C 0 4 1 9 -1 -3707 0;
#X obj 345 426 cnv 8 8 8 empty empty D 0 4 1 9 -1 -3707 0;
#X obj 307 425 cnv 8 20 14 empty empty empty 20 12 0 14 -3707 -66577
0;
#X floatatom 307 425 3 1 148 0 - - -, f 3;
#X obj 307 416 cnv 8 8 8 empty empty pattern 0 4 1 9 -1 -3707 0;
#X obj 305 450 cnv 8 8 8 empty empty all 0 4 1 9 -1 -3707 0;
#X obj 318 450 cnv 8 8 8 empty empty AB 0 4 1 9 -1 -3707 0;
#X obj 338 450 cnv 8 8 8 empty empty CD 0 4 1 9 -1 -3707 0;
#X obj 357 450 cnv 8 8 8 empty empty AC 0 4 1 9 -1 -3707 0;
#X obj 379 450 cnv 8 8 8 empty empty BD 0 4 1 9 -1 -3707 0;
#X obj 400 450 cnv 8 8 8 empty empty 12 0 4 1 9 -1 -3707 0;
#X obj 420 450 cnv 8 8 8 empty empty 34 0 4 1 9 -1 -3707 0;
#X obj 441 450 cnv 8 8 8 empty empty 13 0 4 1 9 -1 -3707 0;
#X obj 461 450 cnv 8 8 8 empty empty 24 0 4 1 9 -1 -3707 0;
#X obj 480 450 cnv 8 8 8 empty empty 14 0 4 1 9 -1 -3707 0;
#X obj 496 450 cnv 8 8 8 empty empty 23 0 4 1 9 -1 -3707 0;
#X obj 274 525 sel 1;
#X obj 338 525 sel 1;
#X obj 402 525 sel 1;
#X obj 465 525 sel 1;
#X obj 528 525 sel 1;
#X obj 597 525 sel 1;
#X obj 666 525 sel 1;
#X obj 734 525 sel 1;
#X obj 801 525 sel 1;
#X obj 869 525 sel 1;
#X obj 205 525 sel 1;
#X obj 205 547 outlet;
#X obj 274 547 outlet;
#X obj 338 547 outlet;
#X obj 402 547 outlet;
#X obj 465 547 outlet;
#X obj 528 547 outlet;
#X obj 597 547 outlet;
#X obj 666 547 outlet;
#X obj 734 547 outlet;
#X obj 801 547 outlet;
#X obj 869 547 outlet;
#X obj 323 425 cnv 4 4 4 empty empty empty 20 12 0 14 -1 -66577 0;
#X obj 445 358 cnv 8 8 8 empty empty TRANSITseq 0 4 1 9 -1 -162280
0;
#X msg 273 271 3;
#X connect 0 0 1 0;
#X connect 1 0 2 0;
#X connect 2 0 3 0;
#X connect 2 1 4 0;
#X connect 2 2 5 0;
#X connect 2 3 6 0;
#X connect 2 4 7 0;
#X connect 2 5 8 0;
#X connect 2 6 9 0;
#X connect 2 7 10 0;
#X connect 2 8 11 0;
#X connect 2 9 12 0;
#X connect 2 10 13 0;
#X connect 2 11 14 0;
#X connect 2 12 15 0;
#X connect 2 13 16 0;
#X connect 2 14 17 0;
#X connect 2 15 18 0;
#X connect 2 16 19 0;
#X connect 2 17 20 0;
#X connect 2 18 21 0;
#X connect 2 19 22 0;
#X connect 2 20 23 0;
#X connect 2 21 24 0;
#X connect 2 22 25 0;
#X connect 2 23 26 0;
#X connect 2 24 27 0;
#X connect 2 25 28 0;
#X connect 3 0 29 0;
#X connect 4 0 29 0;
#X connect 5 0 29 0;
#X connect 6 0 29 0;
#X connect 7 0 29 0;
#X connect 8 0 29 0;
#X connect 9 0 29 0;
#X connect 10 0 29 0;
#X connect 11 0 29 0;
#X connect 12 0 29 0;
#X connect 13 0 29 0;
#X connect 14 0 29 0;
#X connect 15 0 29 0;
#X connect 16 0 29 0;
#X connect 17 0 29 0;
#X connect 18 0 29 0;
#X connect 19 0 29 0;
#X connect 20 0 29 0;
#X connect 21 0 29 0;
#X connect 22 0 29 0;
#X connect 23 0 29 0;
#X connect 24 0 29 0;
#X connect 25 0 29 0;
#X connect 26 0 29 0;
#X connect 27 0 29 0;
#X connect 28 0 29 0;
#X connect 29 0 42 0;
#X connect 29 0 91 0;
#X connect 29 1 43 0;
#X connect 29 1 92 0;
#X connect 29 2 44 0;
#X connect 29 2 93 0;
#X connect 29 3 45 0;
#X connect 29 3 94 0;
#X connect 29 4 46 0;
#X connect 29 4 95 0;
#X connect 29 5 47 0;
#X connect 29 5 96 0;
#X connect 29 6 48 0;
#X connect 29 6 97 0;
#X connect 29 7 49 0;
#X connect 29 7 104 0;
#X connect 29 8 50 0;
#X connect 29 8 98 0;
#X connect 29 9 51 0;
#X connect 29 9 99 0;
#X connect 29 10 52 0;
#X connect 29 10 100 0;
#X connect 29 11 53 0;
#X connect 29 11 105 0;
#X connect 29 12 54 0;
#X connect 29 12 101 0;
#X connect 29 13 55 0;
#X connect 29 13 102 0;
#X connect 29 14 56 0;
#X connect 29 14 103 0;
#X connect 29 15 57 0;
#X connect 29 15 106 0;
#X connect 30 0 1 1;
#X connect 30 1 3 1;
#X connect 30 2 4 1;
#X connect 30 3 5 1;
#X connect 30 4 6 1;
#X connect 30 5 7 1;
#X connect 30 6 8 1;
#X connect 30 7 9 1;
#X connect 30 8 10 1;
#X connect 30 9 11 1;
#X connect 30 10 12 1;
#X connect 30 11 13 1;
#X connect 30 12 14 1;
#X connect 30 13 15 1;
#X connect 30 14 16 1;
#X connect 30 15 17 1;
#X connect 30 16 18 1;
#X connect 30 17 19 1;
#X connect 30 18 20 1;
#X connect 30 19 21 1;
#X connect 30 20 22 1;
#X connect 30 21 23 1;
#X connect 30 22 24 1;
#X connect 30 23 25 1;
#X connect 30 24 26 1;
#X connect 30 25 27 1;
#X connect 30 26 28 1;
#X connect 31 0 30 0;
#X connect 32 0 33 0;
#X connect 32 0 153 0;
#X connect 33 0 116 0;
#X connect 36 0 0 0;
#X connect 42 0 129 0;
#X connect 42 0 131 0;
#X connect 42 0 133 0;
#X connect 42 0 135 0;
#X connect 42 0 137 0;
#X connect 42 0 139 0;
#X connect 43 0 129 0;
#X connect 43 0 131 0;
#X connect 43 0 133 0;
#X connect 43 0 136 0;
#X connect 43 0 138 0;
#X connect 43 0 139 0;
#X connect 44 0 129 0;
#X connect 44 0 131 0;
#X connect 44 0 134 0;
#X connect 44 0 135 0;
#X connect 44 0 138 0;
#X connect 44 0 139 0;
#X connect 45 0 129 0;
#X connect 45 0 131 0;
#X connect 45 0 134 0;
#X connect 45 0 136 0;
#X connect 45 0 137 0;
#X connect 45 0 139 0;
#X connect 46 0 129 0;
#X connect 46 0 132 0;
#X connect 46 0 133 0;
#X connect 46 0 135 0;
#X connect 46 0 137 0;
#X connect 46 0 139 0;
#X connect 47 0 129 0;
#X connect 47 0 132 0;
#X connect 47 0 133 0;
#X connect 47 0 136 0;
#X connect 47 0 138 0;
#X connect 47 0 139 0;
#X connect 48 0 129 0;
#X connect 48 0 132 0;
#X connect 48 0 134 0;
#X connect 48 0 135 0;
#X connect 48 0 138 0;
#X connect 48 0 139 0;
#X connect 49 0 129 0;
#X connect 49 0 132 0;
#X connect 49 0 134 0;
#X connect 49 0 136 0;
#X connect 49 0 137 0;
#X connect 49 0 139 0;
#X connect 50 0 130 0;
#X connect 50 0 131 0;
#X connect 50 0 133 0;
#X connect 50 0 135 0;
#X connect 50 0 137 0;
#X connect 50 0 139 0;
#X connect 51 0 130 0;
#X connect 51 0 131 0;
#X connect 51 0 133 0;
#X connect 51 0 136 0;
#X connect 51 0 138 0;
#X connect 51 0 139 0;
#X connect 52 0 130 0;
#X connect 52 0 131 0;
#X connect 52 0 134 0;
#X connect 52 0 135 0;
#X connect 52 0 138 0;
#X connect 52 0 139 0;
#X connect 53 0 130 0;
#X connect 53 0 131 0;
#X connect 53 0 134 0;
#X connect 53 0 136 0;
#X connect 53 0 137 0;
#X connect 53 0 139 0;
#X connect 54 0 130 0;
#X connect 54 0 132 0;
#X connect 54 0 133 0;
#X connect 54 0 135 0;
#X connect 54 0 137 0;
#X connect 54 0 139 0;
#X connect 55 0 130 0;
#X connect 55 0 132 0;
#X connect 55 0 133 0;
#X connect 55 0 136 0;
#X connect 55 0 138 0;
#X connect 55 0 139 0;
#X connect 56 0 130 0;
#X connect 56 0 132 0;
#X connect 56 0 134 0;
#X connect 56 0 135 0;
#X connect 56 0 138 0;
#X connect 56 0 139 0;
#X connect 57 0 130 0;
#X connect 57 0 132 0;
#X connect 57 0 134 0;
#X connect 57 0 136 0;
#X connect 57 0 137 0;
#X connect 57 0 139 0;
#X connect 59 0 42 1;
#X connect 61 0 43 1;
#X connect 63 0 44 1;
#X connect 65 0 45 1;
#X connect 67 0 46 1;
#X connect 69 0 47 1;
#X connect 71 0 48 1;
#X connect 73 0 49 1;
#X connect 75 0 50 1;
#X connect 77 0 51 1;
#X connect 79 0 52 1;
#X connect 81 0 53 1;
#X connect 83 0 54 1;
#X connect 85 0 55 1;
#X connect 87 0 56 1;
#X connect 89 0 57 1;
#X connect 116 0 31 0;
#X connect 129 0 141 0;
#X connect 130 0 142 0;
#X connect 131 0 143 0;
#X connect 132 0 144 0;
#X connect 133 0 145 0;
#X connect 134 0 146 0;
#X connect 135 0 147 0;
#X connect 136 0 148 0;
#X connect 137 0 149 0;
#X connect 138 0 150 0;
#X connect 139 0 140 0;
#X connect 153 0 36 0;
#X coords 0 -1 1 1 210 112 2 300 350;
