#N canvas 0 0 1276 643 10;
#X declare -path ./rj;
#X declare -path ./rj;
#X declare -path ./rj;
#X declare -path ./rj;
#X declare -path ./rj;
#X declare -path ./rj;
#X declare -path ./rj;
#X declare -path ./rj;
#X obj 106 391 throw~ outL;
#X obj 211 391 throw~ outR;
#X obj 163 66 r notes;
#X obj 127 165 pack 0 0 0;
#X obj 139 187 route 1 2 3 4 5 6 7 8;
#X obj 726 612 i;
#X obj 42 532 loadbang;
#X obj 727 590 + 5;
#X obj 727 568 * 2000;
#X text 40 510 screen lines;
#X obj 977 657 change -1;
#X obj 726 635 change -1;
#X obj 391 634 change -1;
#X obj 425 529 r knob1;
#X obj 391 684 s screenLine1;
#X obj 390 607 i;
#X obj 181 312 voice;
#X obj 450 588 s tone;
#X obj 555 535 r knob2;
#X obj 583 600 * 100;
#X obj 583 625 i;
#X obj 583 660 change -1;
#X obj 583 718 s screenLine2;
#X obj 521 626 s mod;
#X msg 583 690 2: Modulation \$1 %;
#X obj 235 296 voice;
#X obj 46 221 voice;
#X obj 74 258 voice;
#X obj 327 243 voice;
#X obj 109 277 voice;
#X obj 145 296 voice;
#X obj 288 279 voice;
#X obj 398 561 * 100;
#X msg 391 660 1: Tone \$1 %;
#X obj 519 583 * 4;
#X obj 814 624 s decay;
#X obj 729 536 r knob3;
#X msg 725 661 3: Decay Time \$1 ms;
#X obj 726 688 s screenLine3;
#X obj 1021 543 r knob4;
#X obj 1020 598 i;
#X obj 1076 660 s transpose;
#X obj 224 72 r transpose;
#X floatatom 224 94 5 0 0 0 - - -;
#X obj 149 113 + 0;
#X msg 977 684 4: Transpose \$1;
#X obj 977 710 s screenLine4;
#X text 674 498 parameters;
#X msg 43 555 \; screenLine1 1: Tone \; screenLine2 2: Modulation \;
screenLine3 3: Decay \; screenLine4 4: Transpose \; screenLine5 Aux:
Sequencer \;;
#X obj 1020 576 * 24;
#X obj 1020 620 - 12;
#X obj 150 135 - 12;
#X text 284 302 Fender Rhodes style voice using rjdj rhodey abstraction
\, which is itself based on the STK Rhodey code;
#X obj 45 468 sequencer2;
#X obj 127 35 r zero_notes;
#X text 24 4 basic polyphonic patch with 8 voices and sequencer;
#X obj 59 68 r notes_seq;
#X obj 172 364 *~ 0.3;
#X obj 127 89 poly 8 1;
#X obj 1060 185 hradio 15 1 0 8 empty empty empty 0 -8 0 10 -262144
-1 -1 0;
#X obj 1058 138 metro 444;
#X obj 1058 114 tgl 15 0 empty empty empty 17 7 0 10 -262144 -1 -1
0 1;
#X obj 1059 160 counter 0 7;
#X obj 1058 212 select 0 1 2 3 4 5 6 7;
#X obj 1187 482 bng 15 250 50 0 empty empty empty 17 7 0 10 -262144
-1 -1;
#X obj 1112 484 qlist;
#X obj 1187 503 bng 15 250 50 0 empty empty empty 17 7 0 10 -262144
-1 -1;
#X obj 1046 428 r tempo;
#X msg 1045 459 tempo \$1;
#X obj 1062 337 loadbang;
#X msg 1080 368 read ./sequence.txt;
#X obj 1060 305 bng 15 250 50 0 empty empty empty 17 7 0 10 -262144
-1 -1;
#X obj 1044 405 2;
#X obj 65 204 bng 15 250 50 0 empty empty empty 17 7 0 10 -262144 -1
-1;
#X obj 93 242 bng 15 250 50 0 empty empty empty 17 7 0 10 -262144 -1
-1;
#X obj 127 261 bng 15 250 50 0 empty empty empty 17 7 0 10 -262144
-1 -1;
#X obj 165 282 bng 15 250 50 0 empty empty empty 17 7 0 10 -262144
-1 -1;
#X obj 200 297 bng 15 250 50 0 empty empty empty 17 7 0 10 -262144
-1 -1;
#X obj 254 280 bng 15 250 50 0 empty empty empty 17 7 0 10 -262144
-1 -1;
#X obj 308 262 bng 15 250 50 0 empty empty empty 17 7 0 10 -262144
-1 -1;
#X obj 347 226 bng 15 250 50 0 empty empty empty 17 7 0 10 -262144
-1 -1;
#X connect 2 0 58 0;
#X connect 3 0 4 0;
#X connect 4 0 26 0;
#X connect 4 0 73 0;
#X connect 4 1 27 0;
#X connect 4 1 74 0;
#X connect 4 2 29 0;
#X connect 4 2 75 0;
#X connect 4 3 30 0;
#X connect 4 3 76 0;
#X connect 4 4 16 0;
#X connect 4 4 77 0;
#X connect 4 5 25 0;
#X connect 4 5 78 0;
#X connect 4 6 31 0;
#X connect 4 6 79 0;
#X connect 4 7 28 0;
#X connect 4 7 80 0;
#X connect 5 0 11 0;
#X connect 6 0 48 0;
#X connect 7 0 5 0;
#X connect 7 0 35 0;
#X connect 8 0 7 0;
#X connect 10 0 45 0;
#X connect 11 0 37 0;
#X connect 12 0 33 0;
#X connect 13 0 32 0;
#X connect 13 0 17 0;
#X connect 15 0 12 0;
#X connect 16 0 57 0;
#X connect 18 0 19 0;
#X connect 18 0 34 0;
#X connect 19 0 20 0;
#X connect 20 0 21 0;
#X connect 21 0 24 0;
#X connect 24 0 22 0;
#X connect 25 0 57 0;
#X connect 26 0 57 0;
#X connect 27 0 57 0;
#X connect 28 0 57 0;
#X connect 29 0 57 0;
#X connect 30 0 57 0;
#X connect 31 0 57 0;
#X connect 32 0 15 0;
#X connect 33 0 14 0;
#X connect 34 0 23 0;
#X connect 36 0 8 0;
#X connect 37 0 38 0;
#X connect 39 0 49 0;
#X connect 40 0 50 0;
#X connect 42 0 43 0;
#X connect 43 0 44 1;
#X connect 44 0 51 0;
#X connect 45 0 46 0;
#X connect 49 0 40 0;
#X connect 50 0 41 0;
#X connect 50 0 10 0;
#X connect 51 0 3 1;
#X connect 54 0 58 0;
#X connect 56 0 58 0;
#X connect 57 0 0 0;
#X connect 57 0 1 0;
#X connect 58 0 3 0;
#X connect 58 1 44 0;
#X connect 58 2 3 2;
#X connect 59 0 63 0;
#X connect 60 0 62 0;
#X connect 61 0 60 0;
#X connect 62 0 59 0;
#X connect 64 0 65 0;
#X connect 65 1 66 0;
#X connect 66 0 64 0;
#X connect 67 0 68 0;
#X connect 68 0 65 0;
#X connect 69 0 70 0;
#X connect 69 0 72 0;
#X connect 69 0 65 0;
#X connect 70 0 65 0;
#X connect 71 0 69 0;
#X connect 72 0 68 0;
