#N canvas 330 -15 1920 1026 10;
#N canvas 770 122 833 1026 Euclidean 1;
#X obj 402 73 inlet;
#X obj 344 241 outlet;
#X obj 342 145 % \$3;
#X obj 345 111 * \$1;
#X obj 344 177 < \$1;
#X obj 239 228 outlet;
#X obj 344 53 +;
#X obj 344 75 %;
#X obj 344 199 select 1;
#X floatatom 304 10 5 0 0 0 - - - 0;
#X floatatom 421 39 5 0 0 0 - - - 0;
#X floatatom 494 103 5 0 0 0 - - - 0;
#X floatatom 707 142 16 0 0 0 - - - 0;
#X obj 318 253 bng 15 250 50 0 empty empty empty 17 7 0 10 #fcfcfc #000000 #000000;
#X msg 151 42 1;
#X msg 150 64 2;
#X msg 151 87 3;
#X msg 149 114 4;
#X msg 153 13 0;
#X floatatom 304 101 5 0 0 0 - - - 0;
#X floatatom 304 170 5 0 0 0 - - - 0;
#X floatatom 293 133 5 0 0 0 - - - 0;
#X floatatom 302 71 5 0 0 0 - - - 0;
#X msg 690 58 16;
#X msg 725 59 32;
#X msg 760 58 64;
#X obj 279 340 tabwrite euclid;
#N canvas 256 256 450 250 (subpatch) 0;
#X array euclid 16 float 3;
#A 0 1.18125 1.155 1.02 0.884993 0.836242 0.772491 0.716239 0.671238 0.794991 0.929994 1.09125 1.14375 1.12125 0.993746 0.903744 0.794991;
#X coords 0 0 16 1.5 200 200 1 0 0;
#X restore 24 204 graph;
#X floatatom 534 336 5 0 0 0 - - - 0;
#X msg 575 337 1;
#X obj 533 315 bng 15 250 50 0 empty empty empty 17 7 0 10 #fcfcfc #000000 #000000;
#X obj 535 361 + 1;
#X obj 528 270 tgl 15 0 empty empty empty 17 7 0 10 #fcfcfc #000000 #000000 0 1;
#X floatatom 550 399 5 0 0 0 - - - 0;
#X obj 527 294 metro 333;
#X obj 582 381 expr if($f1 < 16 \, $f1 \, 0);
#X msg 276 308 2 1;
#X msg 82 150;
#X msg 152 144 8, f 11;
#X obj 662 243 r barLength;
#X obj 718 167 s barLength;
#X obj 492 86 r euc1Offset;
#X obj 514 28 r euc1HitAmt;
#X obj 389 10 r timeCount;
#X connect 0 0 3 1;
#X connect 0 0 4 1;
#X connect 2 0 4 0;
#X connect 2 0 20 0;
#X connect 3 0 2 0;
#X connect 3 0 21 0;
#X connect 4 0 8 0;
#X connect 6 0 7 0;
#X connect 6 0 22 0;
#X connect 7 0 3 0;
#X connect 7 0 5 0;
#X connect 7 0 19 0;
#X connect 8 0 1 0;
#X connect 8 0 13 0;
#X connect 9 0 6 0;
#X connect 10 0 3 1;
#X connect 10 0 4 1;
#X connect 11 0 6 1;
#X connect 12 0 40 0;
#X connect 14 0 9 0;
#X connect 15 0 9 0;
#X connect 16 0 9 0;
#X connect 17 0 9 0;
#X connect 18 0 9 0;
#X connect 23 0 12 0;
#X connect 24 0 12 0;
#X connect 25 0 12 0;
#X connect 28 0 31 0;
#X connect 29 0 28 0;
#X connect 30 0 28 0;
#X connect 31 0 35 0;
#X connect 32 0 34 0;
#X connect 33 0 31 1;
#X connect 34 0 30 0;
#X connect 35 0 33 0;
#X connect 38 0 9 0;
#X connect 39 0 2 1;
#X connect 39 0 7 1;
#X connect 41 0 11 0;
#X connect 42 0 10 0;
#X connect 43 0 9 0;
#X coords 0 1026 1 1025 0 0 0;
#X restore 228 630 pd Euclidean;
#X obj 217 164 tgl 15 0 empty empty empty 17 7 0 10 #fcfcfc #000000 #000000 0 1;
#N canvas 451 155 902 691 mainmetro 0;
#X obj 254 49 inlet;
#X obj 230 163 metro 50;
#X obj 389 438 + 1, f 5;
#X obj 207 463 f;
#X floatatom 280 581 5 0 0 0 - - - 0;
#X obj 280 607 outlet;
#X msg 565 496 0;
#X obj 350 484 >= 23;
#X obj 350 516 sel 1;
#X obj 237 390 spigot 1;
#X obj 333 323 ==;
#X obj 333 349 tgl 15 0 empty empty empty 17 7 0 10 #fcfcfc #000000 #000000 0 1;
#X text 67 12 autoswitch between internal and MIDI clock;
#X obj 266 90 t f b;
#X text 28 87 reset back to 0 when it starts;
#X text 356 587 24 pulses per quarter note output;
#X text 298 48 start stop;
#X connect 0 0 13 0;
#X connect 1 0 9 0;
#X connect 2 0 3 1;
#X connect 3 0 2 0;
#X connect 3 0 4 0;
#X connect 3 0 7 0;
#X connect 4 0 5 0;
#X connect 6 0 3 1;
#X connect 7 0 8 0;
#X connect 8 0 6 0;
#X connect 9 0 3 0;
#X connect 10 0 11 0;
#X connect 11 0 9 1;
#X connect 13 0 1 0;
#X connect 13 1 6 0;
#X restore 217 256 pd mainmetro;
#N canvas 239 342 450 300 triplets 0;
#X obj 73 41 inlet;
#X obj 58 168 outlet;
#X obj 76 86 sel 0 8 16;
#X connect 0 0 2 0;
#X connect 2 0 1 0;
#X connect 2 1 1 0;
#X connect 2 2 1 0;
#X restore 1070 385 pd triplets;
#N canvas 600 167 450 300 sixteenths 0;
#X obj 73 41 inlet;
#X obj 58 168 outlet;
#X obj 76 86 sel 0 6 12 18;
#X connect 0 0 2 0;
#X connect 2 0 1 0;
#X connect 2 1 1 0;
#X connect 2 2 1 0;
#X connect 2 3 1 0;
#X restore 1184 389 pd sixteenths;
#X obj 1070 412 s triplets;
#X obj 1184 416 s sixteenths;
#X obj 828 416 s quarters;
#X obj 948 415 s eighths;
#N canvas 235 394 450 300 quarters 0;
#X obj 73 41 inlet;
#X obj 73 75 sel 0;
#X obj 73 111 outlet;
#X connect 0 0 1 0;
#X connect 1 0 2 0;
#X restore 830 382 pd quarters;
#N canvas 668 208 450 300 eighths 0;
#X obj 73 41 inlet;
#X obj 75 120 outlet;
#X obj 76 86 sel 0 12;
#X connect 0 0 2 0;
#X connect 2 0 1 0;
#X connect 2 1 1 0;
#X restore 948 386 pd eighths;
#X obj 1156 321 s 24ppq;
#X obj 988 276 r master-ticks;
#X obj 217 306 spigot 1;
#X obj 220 336 s master-ticks;
#X text 183 7 a MIDI and LINK enabled master metronome;
#X text 162 31 if a LINK session is present \, use that. otherwise use internal or MIDI clock if present.;
#X text 984 254 calculate beat divs, f 23;
#X floatatom 171 341 5 0 0 0 - - - 0;
#X obj 800 419 bng 15 250 50 0 empty empty empty 17 7 0 10 #fcfcfc #000000 #000000;
#X obj 922 415 bng 15 250 50 0 empty empty empty 17 7 0 10 #fcfcfc #000000 #000000;
#X obj 1048 410 bng 15 250 50 0 empty empty empty 17 7 0 10 #fcfcfc #000000 #000000;
#X obj 1166 419 bng 15 250 50 0 empty empty empty 17 7 0 10 #fcfcfc #000000 #000000;
#X text 317 882 comment;
#X obj 802 475 + 1;
#X floatatom 861 478 5 0 0 0 - - - 0;
#X floatatom 45 494 5 0 0 0 - - - 0;
#X msg 86 495 1;
#X obj 44 473 bng 15 250 50 0 empty empty empty 17 7 0 10 #fcfcfc #000000 #000000;
#X obj 46 519 + 1;
#X obj 39 428 tgl 15 0 empty empty empty 17 7 0 10 #fcfcfc #000000 #000000 0 1;
#X floatatom 266 544 5 0 0 0 - - - 0;
#X obj 93 539 expr if($f1 < 64 \, $f1 \, 0);
#X text 57 607 note velocity channel;
#X obj 1077 787 noteout 0;
#X obj 1010 763 makenote 127 250;
#X msg 439 477 12;
#X msg 349 475 4;
#X msg 404 477 8, f 4;
#X msg 377 476 5;
#X msg 467 477 16;
#X msg 500 473 24;
#X msg 527 474 36, f 4;
#X msg 562 474 48;
#X msg 1054 737 54;
#X obj 70 95 hradio 8 1 0 127 empty empty empty 0 -8 0 10 #fcfcfc #000000 #000000 0;
#X floatatom 615 596 5 0 0 0 - - - 0;
#X msg 593 483 64;
#X obj 262 587 s timeCount;
#X obj 448 517 s euc1HitAmt;
#X floatatom 608 715 5 0 0 0 - - - 0;
#X msg 652 135 12;
#X msg 562 133 4;
#X msg 617 135 8, f 4;
#X msg 590 134 5;
#X msg 680 135 16;
#X msg 713 131 24;
#X msg 740 132 36, f 4;
#X msg 775 132 48;
#X msg 806 141 64;
#X obj 661 175 s euc2HitAmt;
#X floatatom 454 321 16 0 0 0 - - - 0;
#X msg 437 237 16;
#X msg 472 238 32;
#X msg 507 237 64;
#X obj 465 346 s barLength;
#X obj 646 771 makenote 250 250;
#X obj 536 752 bng 16 250 50 0 empty empty empty 0 -8 0 10 #fcfcfc #000000 #000000;
#X floatatom 633 810 5 0 0 0 - - - 0;
#X obj 674 748 random 111 127;
#X obj 459 646 bng 16 250 50 0 empty empty empty 0 -8 0 10 #fcfcfc #000000 #000000;
#X obj 74 59 hsl 136 16 0 127 0 0 empty empty empty -2 -8 0 10 #fcfcfc #000000 #000000 0 1;
#X obj 638 536 bng 16 250 50 0 empty empty empty 0 -8 0 10 #fcfcfc #000000 #000000;
#X obj 929 637 makenote 127 250;
#X floatatom 911 593 5 0 0 0 - - - 0;
#X obj 956 604 random 120 127;
#X obj 934 533 bng 16 250 50 0 empty empty empty 0 -8 0 10 #fcfcfc #000000 #000000;
#X obj 1287 578 ctlout;
#X text 1319 499 value;
#X text 1352 552 channel;
#X text 1337 526 controller #;
#X text 1224 538 channel;
#X floatatom 1306 525 4 0 127 0 - - - 0;
#X floatatom 1287 498 4 0 127 0 - - - 0;
#X floatatom 1326 551 0 1 64 0 - - - 0;
#X floatatom 1402 551 5 0 0 0 - - - 0;
#X obj 1483 446 hsl 136 16 0 127 0 0 empty empty empty -2 -8 0 10 #fcfcfc #000000 #000000 0 1;
#X obj 843 540 bng 16 250 50 0 empty empty empty 0 -8 0 10 #fcfcfc #000000 #000000;
#X msg 862 591 60;
#X obj 998 658 noteout 10;
#X msg 539 394 12;
#X msg 449 392 4;
#X msg 504 394 8, f 4;
#X msg 477 393 5;
#X msg 567 394 16;
#X obj 1293 474 expr;
#X obj 1392 473 expr $i1;
#X msg 644 326 35, f 4;
#X obj 1372 707 ctlout;
#X text 1404 628 value;
#X text 1437 681 channel;
#X text 1422 655 controller #;
#X floatatom 1391 654 4 0 127 0 - - - 0;
#X floatatom 1372 627 4 0 127 0 - - - 0;
#X floatatom 1411 680 0 1 64 0 - - - 0;
#X floatatom 1487 680 5 0 0 0 - - - 0;
#X obj 1568 575 hsl 136 16 0 127 0 0 empty empty empty -2 -8 0 10 #fcfcfc #000000 #000000 0 1;
#X obj 1378 603 expr;
#X obj 1477 602 expr $i1;
#X obj 1478 376 ftom~;
#X obj 1538 389 snapshot~;
#X obj 1561 342 bng 16 250 50 0 empty empty empty 0 -8 0 10 #fcfcfc #000000 #000000;
#X obj 1480 337 osc~ 33;
#X obj 1548 414 * 33;
#X obj 702 592 random 111 250;
#X obj 713 795 noteout 1;
#X obj 1302 86 midiin;
#X floatatom 1297 167 5 0 0 0 - - - 0;
#X floatatom 1354 140 5 0 0 0 - - - 0;
#X obj 664 626 makenote 250 250;
#X obj 702 661 noteout 0;
#X msg 662 391 38;
#X msg 693 400 39;
#X msg 600 390 36;
#N canvas 770 122 833 1026 Euclidean 0;
#X obj 402 73 inlet;
#X obj 344 241 outlet;
#X obj 342 145 % \$3;
#X obj 345 111 * \$1;
#X obj 344 177 < \$1;
#X obj 239 228 outlet;
#X obj 344 53 +;
#X obj 344 75 %;
#X obj 344 199 select 1;
#X floatatom 304 10 5 0 0 0 - - - 0;
#X floatatom 421 39 5 0 0 0 - - - 0;
#X floatatom 494 103 5 0 0 0 - - - 0;
#X floatatom 707 142 16 0 0 0 - - - 0;
#X obj 318 253 bng 15 250 50 0 empty empty empty 17 7 0 10 #fcfcfc #000000 #000000;
#X msg 151 42 1;
#X msg 150 64 2;
#X msg 151 87 3;
#X msg 149 114 4;
#X msg 153 13 0;
#X floatatom 304 101 5 0 0 0 - - - 0;
#X floatatom 304 170 5 0 0 0 - - - 0;
#X floatatom 293 133 5 0 0 0 - - - 0;
#X floatatom 302 71 5 0 0 0 - - - 0;
#X msg 690 58 16;
#X msg 725 59 32;
#X msg 760 58 64;
#X obj 279 340 tabwrite euclid;
#N canvas 256 256 450 250 (subpatch) 0;
#X array euclid 16 float 3;
#A 0 1.18125 1.155 1.02 0.884993 0.836242 0.772491 0.716239 1.155 0.794991 0.929994 1.09125 1.14375 1.12125 0.993746 0.903744 0.794991;
#X coords 0 0 16 1.5 200 200 1 0 0;
#X restore 24 204 graph;
#X floatatom 534 336 5 0 0 0 - - - 0;
#X msg 575 337 1;
#X obj 533 315 bng 15 250 50 0 empty empty empty 17 7 0 10 #fcfcfc #000000 #000000;
#X obj 535 361 + 1;
#X obj 528 270 tgl 15 0 empty empty empty 17 7 0 10 #fcfcfc #000000 #000000 0 1;
#X floatatom 550 399 5 0 0 0 - - - 0;
#X obj 527 294 metro 333;
#X obj 582 381 expr if($f1 < 16 \, $f1 \, 0);
#X msg 276 308 2 1;
#X msg 82 150;
#X msg 152 144 8, f 11;
#X obj 662 243 r barLength;
#X obj 718 167 s barLength;
#X obj 492 86 r euc1Offset;
#X obj 514 28 r euc1HitAmt;
#X obj 389 10 r timeCount;
#X msg 471 48 8;
#X connect 0 0 3 1;
#X connect 0 0 4 1;
#X connect 2 0 4 0;
#X connect 2 0 20 0;
#X connect 3 0 2 0;
#X connect 3 0 21 0;
#X connect 4 0 8 0;
#X connect 6 0 7 0;
#X connect 6 0 22 0;
#X connect 7 0 3 0;
#X connect 7 0 5 0;
#X connect 7 0 19 0;
#X connect 8 0 1 0;
#X connect 8 0 13 0;
#X connect 9 0 6 0;
#X connect 10 0 3 1;
#X connect 10 0 4 1;
#X connect 11 0 6 1;
#X connect 12 0 40 0;
#X connect 14 0 9 0;
#X connect 15 0 9 0;
#X connect 16 0 9 0;
#X connect 17 0 9 0;
#X connect 18 0 9 0;
#X connect 23 0 12 0;
#X connect 24 0 12 0;
#X connect 25 0 12 0;
#X connect 28 0 31 0;
#X connect 29 0 28 0;
#X connect 30 0 28 0;
#X connect 31 0 35 0;
#X connect 32 0 34 0;
#X connect 33 0 31 1;
#X connect 34 0 30 0;
#X connect 35 0 33 0;
#X connect 38 0 9 0;
#X connect 39 0 2 1;
#X connect 39 0 7 1;
#X connect 41 0 11 0;
#X connect 42 0 10 0;
#X connect 43 0 9 0;
#X connect 44 0 10 0;
#X coords 0 1026 1 1025 0 0 0;
#X restore 201 760 pd Euclidean;
#X msg 564 681 35, f 4;
#X msg 537 682 34;
#X msg 599 683 36;
#X floatatom 547 875 5 0 0 0 - - - 0;
#X obj 585 931 makenote 250 250;
#X obj 396 950 bng 16 250 50 0 empty empty empty 0 -8 0 10 #fcfcfc #000000 #000000;
#X floatatom 572 970 5 0 0 0 - - - 0;
#X obj 613 908 random 111 127;
#X obj 652 955 noteout 1;
#N canvas 770 122 1920 1026 Euclidean 0;
#X obj 402 73 inlet;
#X obj 344 241 outlet;
#X obj 342 145 % \$3;
#X obj 345 111 * \$1;
#X obj 344 177 < \$1;
#X obj 239 228 outlet;
#X obj 344 53 +;
#X obj 344 75 %;
#X obj 344 199 select 1;
#X floatatom 304 10 5 0 0 0 - - - 0;
#X floatatom 421 39 5 0 0 0 - - - 0;
#X floatatom 494 103 5 0 0 0 - - - 0;
#X floatatom 707 142 16 0 0 0 - - - 0;
#X obj 318 253 bng 15 250 50 0 empty empty empty 17 7 0 10 #fcfcfc #000000 #000000;
#X msg 151 42 1;
#X msg 150 64 2;
#X msg 151 87 3;
#X msg 149 114 4;
#X msg 153 13 0;
#X floatatom 304 101 5 0 0 0 - - - 0;
#X floatatom 304 170 5 0 0 0 - - - 0;
#X floatatom 293 133 5 0 0 0 - - - 0;
#X floatatom 302 71 5 0 0 0 - - - 0;
#X msg 690 58 16;
#X msg 725 59 32;
#X msg 760 58 64;
#X obj 279 340 tabwrite euclid;
#N canvas 256 256 450 250 (subpatch) 0;
#X array euclid 16 float 3;
#A 0 1.18125 1.155 1.02 0.884993 0.836242 0.772491 0.716239 0.671238 0.794991 0.929994 1.09125 1.14375 1.12125 0.993746 0.903744 0.794991;
#X coords 0 0 16 1.5 200 200 1 0 0;
#X restore 24 204 graph;
#X floatatom 534 336 5 0 0 0 - - - 0;
#X msg 575 337 1;
#X obj 533 315 bng 15 250 50 0 empty empty empty 17 7 0 10 #fcfcfc #000000 #000000;
#X obj 535 361 + 1;
#X obj 528 270 tgl 15 0 empty empty empty 17 7 0 10 #fcfcfc #000000 #000000 0 1;
#X floatatom 550 399 5 0 0 0 - - - 0;
#X obj 527 294 metro 333;
#X obj 582 381 expr if($f1 < 16 \, $f1 \, 0);
#X msg 276 308 2 1;
#X msg 82 150;
#X msg 152 144 8, f 11;
#X obj 662 243 r barLength;
#X obj 718 167 s barLength;
#X obj 492 86 r euc1Offset;
#X obj 514 28 r euc1HitAmt;
#X obj 389 10 r timeCount;
#X msg 471 48 48;
#X connect 0 0 3 1;
#X connect 0 0 4 1;
#X connect 2 0 4 0;
#X connect 2 0 20 0;
#X connect 3 0 2 0;
#X connect 3 0 21 0;
#X connect 4 0 8 0;
#X connect 6 0 7 0;
#X connect 6 0 22 0;
#X connect 7 0 3 0;
#X connect 7 0 5 0;
#X connect 7 0 19 0;
#X connect 8 0 1 0;
#X connect 8 0 13 0;
#X connect 9 0 6 0;
#X connect 10 0 3 1;
#X connect 10 0 4 1;
#X connect 11 0 6 1;
#X connect 12 0 40 0;
#X connect 14 0 9 0;
#X connect 15 0 9 0;
#X connect 16 0 9 0;
#X connect 17 0 9 0;
#X connect 18 0 9 0;
#X connect 23 0 12 0;
#X connect 24 0 12 0;
#X connect 25 0 12 0;
#X connect 28 0 31 0;
#X connect 29 0 28 0;
#X connect 30 0 28 0;
#X connect 31 0 35 0;
#X connect 32 0 34 0;
#X connect 33 0 31 1;
#X connect 34 0 30 0;
#X connect 35 0 33 0;
#X connect 38 0 9 0;
#X connect 39 0 2 1;
#X connect 39 0 7 1;
#X connect 41 0 11 0;
#X connect 42 0 10 0;
#X connect 43 0 9 0;
#X connect 44 0 10 0;
#X coords 0 1026 1 1025 0 0 0;
#X restore 206 931 pd Euclidean;
#X msg 503 841 35, f 4;
#X msg 476 842 34;
#X msg 538 843 36;
#X msg 569 852 38;
#X msg 630 692 37;
#X obj 38 452 metro 333, f 16;
#X connect 0 1 70 0;
#X connect 1 0 2 0;
#X connect 2 0 13 0;
#X connect 3 0 5 0;
#X connect 3 0 21 0;
#X connect 4 0 6 0;
#X connect 4 0 22 0;
#X connect 9 0 7 0;
#X connect 9 0 19 0;
#X connect 10 0 8 0;
#X connect 10 0 20 0;
#X connect 12 0 9 0;
#X connect 12 0 10 0;
#X connect 12 0 3 0;
#X connect 12 0 4 0;
#X connect 13 0 14 0;
#X connect 13 0 18 0;
#X connect 19 0 24 0;
#X connect 24 0 25 0;
#X connect 25 0 24 1;
#X connect 26 0 29 0;
#X connect 27 0 26 0;
#X connect 28 0 26 0;
#X connect 29 0 32 0;
#X connect 30 0 140 0;
#X connect 31 0 29 1;
#X connect 31 0 48 0;
#X connect 32 0 31 0;
#X connect 35 0 34 0;
#X connect 35 1 34 1;
#X connect 36 0 49 0;
#X connect 37 0 49 0;
#X connect 38 0 49 0;
#X connect 39 0 49 0;
#X connect 40 0 49 0;
#X connect 41 0 49 0;
#X connect 42 0 49 0;
#X connect 43 0 49 0;
#X connect 44 0 35 0;
#X connect 45 0 46 0;
#X connect 46 0 119 0;
#X connect 47 0 49 0;
#X connect 50 0 66 0;
#X connect 51 0 60 0;
#X connect 52 0 60 0;
#X connect 53 0 60 0;
#X connect 54 0 60 0;
#X connect 55 0 60 0;
#X connect 56 0 60 0;
#X connect 57 0 60 0;
#X connect 58 0 60 0;
#X connect 59 0 60 0;
#X connect 61 0 65 0;
#X connect 62 0 61 0;
#X connect 63 0 61 0;
#X connect 64 0 61 0;
#X connect 66 0 115 0;
#X connect 66 1 115 1;
#X connect 67 0 50 0;
#X connect 69 0 66 1;
#X connect 69 0 68 0;
#X connect 70 0 46 0;
#X connect 70 0 114 0;
#X connect 70 0 128 0;
#X connect 70 0 134 0;
#X connect 71 0 45 0;
#X connect 72 0 46 0;
#X connect 73 0 89 0;
#X connect 73 1 89 1;
#X connect 74 0 73 0;
#X connect 75 0 73 1;
#X connect 76 0 74 0;
#X connect 82 0 77 1;
#X connect 83 0 77 0;
#X connect 84 0 77 2;
#X connect 86 0 83 0;
#X connect 87 0 88 0;
#X connect 88 0 74 0;
#X connect 90 0 46 0;
#X connect 94 0 46 0;
#X connect 97 0 46 0;
#X connect 102 0 98 1;
#X connect 103 0 98 0;
#X connect 104 0 98 2;
#X connect 106 0 103 0;
#X connect 110 0 113 0;
#X connect 111 0 110 0;
#X connect 112 0 110 0;
#X connect 113 0 86 0;
#X connect 116 0 117 0;
#X connect 116 1 118 0;
#X connect 119 0 120 0;
#X connect 119 1 120 1;
#X connect 121 0 46 0;
#X connect 122 0 46 0;
#X connect 123 0 46 0;
#X connect 124 1 50 0;
#X connect 125 0 50 0;
#X connect 126 0 50 0;
#X connect 127 0 50 0;
#X connect 128 0 129 0;
#X connect 129 0 133 0;
#X connect 129 1 133 1;
#X connect 130 0 132 0;
#X connect 132 0 129 1;
#X connect 132 0 131 0;
#X connect 134 1 128 0;
#X connect 134 1 130 0;
#X connect 135 0 128 0;
#X connect 136 0 128 0;
#X connect 137 0 128 0;
#X connect 138 0 128 0;
#X connect 139 0 50 0;
#X connect 140 0 28 0;
