#N canvas 2 71 1809 913 10;
#X obj 1668 186 tabwrite~;
#X msg 769 780 bang;
#X msg 1689 2 \; pd dsp 1;
#X msg 1689 40 \; pd dsp 0;
#X obj 791 692 tgl 15 0 empty empty empty 17 7 0 10 #fcfcfc #000000 #000000 0 1;
#X obj 26 2450 line~;
#X obj 26 2474 vline~;
#X obj 26 2450 line~;
#X obj 26 2474 vline~;
#X obj 26 2450 line~;
#X obj 26 2474 vline~;
#X obj 26 2450 line~;
#X obj 26 2474 vline~;
#X obj 1021 29 vsl 50 100 -1 1 0 0 array1_value array1_value empty -8 -12 0 10 #0c4044 #00fc04 #000000 0 1;
#N canvas 2 73 450 300 (subpatch) 0;
#X array array1 5000 float 0;
#X coords 0 1 4999 -1 1000 500 1 0 0;
#X restore 20 63 graph;
#X obj 1161 -412 hsl 500 500 0 1000 0 0 time recieve_time empty -2 -8 0 33 #fcfcfc #fc0400 #00f8fc 0 1;
#X floatatom 20 700 5 0 0 0 - - - 0;
#X msg 41 679 1;
#X obj 32 655 bng 15 250 50 0 empty empty empty 17 7 0 10 #fcfcfc #000000 #000000;
#X obj 52 747 + 1;
#X obj 49 581 tgl 15 0 empty empty empty 17 7 0 10 #fcfcfc #000000 #000000 0 1;
#X obj 1117 118 s array1_value;
#X floatatom 49 808 5 0 0 0 - - - 0;
#X floatatom 1009 8 10 0 0 0 - array1_value - 0;
#X obj 47 845 s recieve_time;
#X obj 1111 42 r recieve_time;
#X floatatom 1115 94 5 0 0 0 - - - 0;
#X obj 1111 68 tabread array1;
#X obj 693 779 osc~ 555;
#X obj 1396 465 snapshot~;
#X floatatom 1281 497 5 0 0 0 - - - 0;
#X obj 1156 434 metro 100;
#X msg 1387 354 stop;
#X msg 1376 285 0;
#X obj 1359 380 vline~;
#X text 1424 235 ramp up;
#X text 1431 263 ramp down;
#X text 1388 305 ramp up \, jump down \, ramp up again;
#X msg 1382 326 1 1000 \, 0 0 1000 \, 1 1000 1000;
#X text 1414 284 jump down;
#X text 1430 353 "stop" message freezes vline~ at its current value;
#X obj 1170 389 tgl 15 0 empty empty empty 17 7 0 10 #fcfcfc #000000 #000000 0 1;
#X obj 1408 537 tabwrite~ array1;
#X obj 1426 505 bng 15 250 50 0 empty empty empty 17 7 0 10 #fcfcfc #000000 #000000;
#X msg 1359 238 -1 1;
#X msg 1368 260 0 1;
#X msg 1220 780 bang;
#X obj 1246 731 tgl 15 0 empty empty empty 17 7 0 10 #fcfcfc #000000 #000000 0 1;
#X obj 1221 756 metro 60;
#X obj 1249 813 tabwrite~ array1;
#X obj 1117 782 phasor~ 555;
#X msg 1132 703 666;
#X msg 1178 699 555;
#X msg 1240 695 222;
#X msg 1038 708 2222;
#X msg 993 708 4444;
#X msg 1091 704 1111;
#X msg 653 726 666;
#X msg 699 722 555;
#X msg 747 721 222;
#X msg 559 731 2222;
#X msg 460 731 4444, f 11;
#X msg 612 727 1111;
#X obj 811 740 metro 555;
#X obj 392 664 hsl 555 55 0 9999 0 0 empty empty empty -2 -8 0 10 #fcfcfc #000000 #000000 0 1;
#N canvas 2 73 450 300 (subpatch) 0;
#X array array2 1000 float 0;
#X coords 0 1 999 -1 500 500 1 0 0;
#X restore 369 -467 graph;
#X obj 56 566 hsl 1000 100 0 5000 0 0 time recieve_time empty -2 -8 0 33 #fcfcfc #fc0400 #00f8fc 0 1;
#X obj 798 813 tabwrite~ array1;
#X obj 101 790 expr if($f1 < 5000 \, $f1 \, 0);
#X floatatom 371 723 5 0 0 0 - - - 0;
#X msg 348 598 5;
#X obj 26 634 metro 333;
#X msg 100 711 1000;
#X obj 612 813 dac~;
#X connect 1 0 67 0;
#X connect 4 0 63 0;
#X connect 16 0 19 0;
#X connect 17 0 16 0;
#X connect 18 0 16 0;
#X connect 19 0 68 0;
#X connect 20 0 71 0;
#X connect 22 0 19 1;
#X connect 22 0 24 0;
#X connect 25 0 27 0;
#X connect 26 0 21 0;
#X connect 27 0 26 0;
#X connect 28 0 67 0;
#X connect 29 0 30 0;
#X connect 29 0 42 0;
#X connect 29 0 43 0;
#X connect 31 0 29 0;
#X connect 32 0 34 0;
#X connect 33 0 34 0;
#X connect 34 0 29 0;
#X connect 38 0 34 0;
#X connect 41 0 31 0;
#X connect 43 0 42 0;
#X connect 44 0 34 0;
#X connect 45 0 34 0;
#X connect 46 0 49 0;
#X connect 47 0 48 0;
#X connect 48 0 46 0;
#X connect 50 0 49 0;
#X connect 51 0 50 0;
#X connect 51 0 46 0;
#X connect 52 0 50 0;
#X connect 52 0 46 0;
#X connect 53 0 50 0;
#X connect 53 0 46 0;
#X connect 54 0 50 0;
#X connect 54 0 46 0;
#X connect 55 0 50 0;
#X connect 55 0 46 0;
#X connect 56 0 50 0;
#X connect 56 0 46 0;
#X connect 57 0 28 0;
#X connect 57 0 1 0;
#X connect 58 0 28 0;
#X connect 58 0 1 0;
#X connect 59 0 28 0;
#X connect 59 0 1 0;
#X connect 60 0 28 0;
#X connect 60 0 1 0;
#X connect 61 0 28 0;
#X connect 61 0 1 0;
#X connect 62 0 28 0;
#X connect 62 0 1 0;
#X connect 63 0 1 0;
#X connect 64 0 1 0;
#X connect 64 0 28 0;
#X connect 64 0 69 0;
#X connect 68 0 22 0;
#X connect 70 0 64 0;
#X connect 71 0 18 0;
#X connect 72 0 22 0;
