#N canvas 439 -26 1920 1026 12;
#X obj 130 713 vsl 19 162 0 127 0 0 empty empty empty 0 -9 0 12 #fcfcfc #000000 #000000 0 1;
#X obj 364 713 vsl 19 162 0 127 0 0 empty empty empty 0 -9 0 12 #fcfcfc #000000 #000000 0 1;
#X obj 574 713 vsl 19 162 0 127 0 0 empty empty empty 0 -9 0 12 #fcfcfc #000000 #000000 0 1;
#X obj 802 713 vsl 19 162 0 127 0 0 empty empty empty 0 -9 0 12 #fcfcfc #000000 #000000 0 1;
#X obj 1009 713 vsl 19 162 0 127 0 0 empty empty empty 0 -9 0 12 #fcfcfc #000000 #000000 0 1;
#X obj 1263 713 vsl 19 162 0 127 0 0 empty empty empty 0 -9 0 12 #fcfcfc #000000 #000000 0 1;
#X obj 1437 713 vsl 19 162 0 127 0 0 empty empty empty 0 -9 0 12 #fcfcfc #000000 #000000 0 1;
#X obj 1658 713 vsl 19 162 0 127 0 0 empty empty empty 0 -9 0 12 #fcfcfc #000000 #000000 0 1;
#X obj 130 518 vsl 19 162 0 127 0 0 empty empty empty 0 -9 0 12 #fcfcfc #000000 #000000 0 1;
#X obj 364 518 vsl 19 162 0 127 0 0 empty empty empty 0 -9 0 12 #fcfcfc #000000 #000000 0 1;
#X obj 574 518 vsl 19 162 0 127 0 0 empty empty empty 0 -9 0 12 #fcfcfc #000000 #000000 0 1;
#X obj 802 518 vsl 19 162 0 127 0 0 empty empty empty 0 -9 0 12 #fcfcfc #000000 #000000 0 1;
#X obj 1009 518 vsl 19 162 0 127 0 0 empty empty empty 0 -9 0 12 #fcfcfc #000000 #000000 0 1;
#X obj 1232 518 vsl 19 162 0 127 0 0 empty empty empty 0 -9 0 12 #fcfcfc #000000 #000000 0 1;
#X obj 1437 518 vsl 19 162 0 127 0 0 empty empty empty 0 -9 0 12 #fcfcfc #000000 #000000 0 1;
#X obj 1658 518 vsl 19 162 0 127 0 0 empty empty empty 0 -9 0 12 #fcfcfc #000000 #000000 0 1;
#X floatatom 131 459 5 0 0 0 - - - 0;
#X obj 131 412 ctlin 2 1;
#X floatatom 334 447 5 0 0 0 - - - 0;
#X obj 110 -141 vsl 19 162 0 127 0 0 empty empty empty 0 -9 0 12 #fcfcfc #000000 #000000 0 1;
#X obj 87 241 noteout;
#X text 59 155 note;
#X text 164 179 channel;
#X text 100 155 velocity;
#X floatatom 140 180 0 1 64 0 - - - 0;
#X floatatom 100 200 4 0 127 0 - - - 0;
#X floatatom 59 200 4 0 127 0 - - - 0;
#X obj 325 54 int;
#X obj 471 361 ctlout;
#X floatatom 495 304 4 0 127 0 - - - 0;
#X floatatom 471 315 4 0 127 0 - - - 0;
#X floatatom 519 324 0 1 64 0 - - - 0;
#X obj 471 75 vsl 19 162 0 127 0 0 empty empty empty 0 -9 0 12 #fcfcfc #000000 #000000 0 1;
#X obj 471 268 int;
#X msg 519 277 19;
#X obj 1588 68 vsl 19 162 -127 127 0 0 empty empty empty 0 -9 0 12 #fcfcfc #000000 #000000 0 1;
#X obj 1588 261 int;
#X obj 315 -377 tgl 19 0 empty empty empty 0 -10 0 12 #fcfcfc #000000 #000000 0 1;
#X obj 152 -206 bng 19 250 50 0 empty empty empty 0 -10 0 12 #fcfcfc #000000 #000000;
#X obj 1678 231 bng 19 250 50 0 empty empty empty 0 -10 0 12 #fcfcfc #000000 #000000;
#X obj 1653 441 ctlout;
#X floatatom 1677 384 4 0 127 0 - - - 0;
#X floatatom 1579 422 4 0 127 0 - - - 0;
#X floatatom 1719 425 0 1 64 0 - - - 0;
#X obj 1579 375 int;
#X obj 1793 409 loadbang;
#X msg 1793 433 1;
#X obj 1675 275 r ctrlCC;
#X obj 293 287 noteout;
#X text 376 255 channel;
#X floatatom 352 256 0 1 64 0 - - - 0;
#X floatatom 334 214 4 0 127 0 - - - 0;
#X floatatom 288 225 4 0 127 0 - - - 0;
#X obj 325 78 + 7;
#X obj 181 -166 random 127;
#X floatatom 721 -226 5 0 0 0 14\ OSC1\ Control\ 1 - ctrlCC 0;
#X floatatom 723 -179 5 0 0 0 15\ OSC1\ Control\ 2 - ctrlCC 0;
#X floatatom 725 -132 5 0 0 0 78\ OSC2\ Wave - ctrlCC 0;
#X floatatom 726 -85 5 0 0 0 82\ OSC\ OSC\ mod - ctrlCC 0;
#X floatatom 727 -39 5 0 0 0 18\ OSC\ 2\ Semitone\ Vocoder\ HPF\ level - ctrlCC 0;
#X floatatom 719 -274 5 0 0 0 77\ OSC\ 1\ Wave - ctrlCC 0;
#X floatatom 722 -323 5 0 0 0 5\ Portamento - ctrlCC 0;
#X msg 722 -347 3;
#X msg 719 -298 77;
#X msg 721 -250 14;
#X msg 723 -203 15, f 2;
#X msg 724 -156 78;
#X msg 726 -109 82;
#X msg 727 -63 18;
#X floatatom 729 9 5 0 0 0 12\ OSC\ 2\ Tune\ Vocoder\ threshold - ctrlCC 0;
#X msg 729 -15 19;
#X floatatom 1790 -320 5 0 0 0 20\ Mixer\ OSC1\ Level - ctrlCC 0;
#X msg 1790 -344 20;
#X floatatom 1791 -263 5 0 0 0 21\ Mixer\ OSC\ 2\ level\ Vocoder\ inst\ level - ctrlCC 0;
#X floatatom 1792 -209 5 0 0 0 20\ Mixer\ Noise\ Level - ctrlCC 0;
#X msg 1791 -287 21;
#X msg 1792 -233 22;
#X floatatom 1151 -310 5 0 0 0 83\ Filter\ type\ Vocoder\ formant\ shift - ctrlCC 0;
#X floatatom 1156 -253 5 0 0 0 74\ Filter\ cutoff\ Vocoder\ filter\ cutoff - ctrlCC 0;
#X floatatom 1160 -199 5 0 0 0 71\ Filter\ resonance - ctrlCC 0;
#X floatatom 1160 -144 5 0 0 0 79\ Filter\ EG\ intensity\ Vocoder\ mod\ intensity - ctrlCC 0;
#X floatatom 1166 -90 5 0 0 0 24\ Filter\ EG\ decay - ctrlCC 0;
#X floatatom 1168 -45 5 0 0 0 25\ Filter\ EG\ sustain - ctrlCC 0;
#X msg 1151 -334 83;
#X msg 1156 -277 74;
#X msg 1160 -223 71;
#X msg 1161 -168 79;
#X msg 1166 -113 24;
#X msg 1168 -68 25;
#X floatatom 1169 5 5 0 0 0 23\ Filter\ EG\ Attack - ctrlCC 0;
#X msg 1169 -18 23;
#X floatatom 1166 119 5 0 0 0 79\ Filter\ EG\ intensity\ Vocoder\ mod\ intensity - ctrlCC 0;
#X floatatom 1172 173 5 0 0 0 24\ Filter\ EG\ decay - ctrlCC 0;
#X floatatom 928 218 5 0 0 0 25\ Filter\ EG\ sustain - ctrlCC 0;
#X msg 1167 95 79;
#X msg 1172 150 24;
#X msg 928 195 25;
#X floatatom 927 171 5 0 0 0 23\ Filter\ EG\ Attack - ctrlCC 0;
#X msg 927 148 23;
#X obj 202 -134 / 127;
#X floatatom 202 -109 5 0 0 0 - - - 0;
#X floatatom 202 -60 5 0 0 0 - - - 0;
#X obj 202 -36 int;
#X obj 202 -11 + 33;
#X obj 202 -85 * 36;
#X floatatom 1172 218 5 0 0 0 26\ Filter\ EG\ release - ctrlCC 0;
#X msg 1172 195 24;
#X obj 418 -247 metro 555;
#X floatatom 1211 346 5 0 0 0 26\ Filter\ EG\ release - ctrlCC 0;
#X msg 1211 323 7;
#X obj 1422 -88 bng 19 250 50 0 empty empty empty 17 7 0 10 #dfdfdf #000000 #000000;
#X obj 1426 -151 tgl 19 0 empty empty empty 0 -10 0 12 #fcfcfc #000000 #000000 0 1;
#X floatatom 1419 257 5 0 0 0 - - - 0;
#X msg 1390 94 0 222;
#X obj 1274 39 bng 19 250 50 0 empty empty empty 0 -10 0 12 #fcfcfc #000000 #000000;
#X obj 1333 47 t b b;
#X obj 1479 208 ftom~;
#X obj 1372 184 snapshot~;
#X obj 376 134 bng 19 250 50 0 empty empty empty 0 -10 0 12 #fcfcfc #000000 #000000;
#X msg 212 233 44;
#X msg 212 260 65;
#X msg 213 290 111;
#X msg 211 320 22;
#X msg 1236 75 127 0 0;
#X obj 1419 -120 metro 333;
#X obj 1276 135 osc~ 5, f 15;
#X obj 1504 19 random 127;
#X obj 442 930 inlet;
#X obj 617 1176 noteout;
#X floatatom 502 1031 4 0 0 0 - - - 0;
#X msg 546 1002 60;
#X text 500 977 rate;
#X text 546 977 pitch;
#X text 591 977 vel;
#X text 627 977 length;
#X obj 730 1072 ctlout 1;
#X floatatom 730 1033 4 0 0 0 - - - 0;
#X obj 442 1059 metro 500;
#X obj 538 1136 makenote 64 250;
#X obj 493 1096 float 60;
#X floatatom 546 1031 4 0 0 0 - - - 0;
#X floatatom 589 1031 4 0 0 0 - - - 0;
#X floatatom 640 1031 4 0 0 0 - - - 0;
#X obj 442 999 tgl 17 0 empty empty empty 17 7 0 10 #dfdfdf #000000 #000000 0 1;
#X obj 730 930 inlet;
#X msg 502 1002 222;
#X msg 640 1002 127;
#X msg 589 1002 127;
#X connect 17 0 16 0;
#X connect 17 0 8 0;
#X connect 18 0 9 0;
#X connect 19 0 27 0;
#X connect 24 0 20 2;
#X connect 25 0 20 1;
#X connect 26 0 20 0;
#X connect 27 0 53 0;
#X connect 27 0 114 0;
#X connect 29 0 28 1;
#X connect 30 0 28 0;
#X connect 31 0 28 2;
#X connect 32 0 33 0;
#X connect 33 0 30 0;
#X connect 34 0 29 0;
#X connect 35 0 36 0;
#X connect 36 0 39 0;
#X connect 36 0 44 0;
#X connect 37 0 107 0;
#X connect 38 0 54 0;
#X connect 41 0 40 1;
#X connect 42 0 40 0;
#X connect 43 0 40 2;
#X connect 44 0 42 0;
#X connect 44 0 40 1;
#X connect 45 0 46 0;
#X connect 46 0 43 0;
#X connect 47 0 41 0;
#X connect 50 0 48 2;
#X connect 51 0 48 1;
#X connect 52 0 48 0;
#X connect 53 0 140 0;
#X connect 54 0 99 0;
#X connect 62 0 61 0;
#X connect 63 0 60 0;
#X connect 64 0 55 0;
#X connect 65 0 56 0;
#X connect 66 0 57 0;
#X connect 67 0 58 0;
#X connect 68 0 59 0;
#X connect 70 0 69 0;
#X connect 72 0 71 0;
#X connect 75 0 73 0;
#X connect 76 0 74 0;
#X connect 83 0 77 0;
#X connect 84 0 78 0;
#X connect 85 0 79 0;
#X connect 86 0 80 0;
#X connect 87 0 81 0;
#X connect 88 0 82 0;
#X connect 90 0 89 0;
#X connect 94 0 91 0;
#X connect 95 0 92 0;
#X connect 96 0 93 0;
#X connect 98 0 97 0;
#X connect 99 0 100 0;
#X connect 100 0 104 0;
#X connect 101 0 102 0;
#X connect 102 0 103 0;
#X connect 103 0 19 0;
#X connect 104 0 101 0;
#X connect 106 0 105 0;
#X connect 107 0 38 0;
#X connect 109 0 108 0;
#X connect 110 0 117 0;
#X connect 110 0 126 0;
#X connect 111 0 124 0;
#X connect 113 0 125 0;
#X connect 114 0 115 0;
#X connect 114 0 123 0;
#X connect 117 0 112 0;
#X connect 118 0 52 0;
#X connect 118 0 26 0;
#X connect 119 0 26 0;
#X connect 120 0 26 0;
#X connect 121 0 26 0;
#X connect 122 0 26 0;
#X connect 124 0 110 0;
#X connect 125 0 117 0;
#X connect 126 0 35 0;
#X connect 127 0 143 0;
#X connect 129 0 137 1;
#X connect 130 0 140 0;
#X connect 136 0 135 0;
#X connect 136 0 128 2;
#X connect 137 0 139 0;
#X connect 138 0 128 0;
#X connect 138 1 128 1;
#X connect 139 0 138 0;
#X connect 140 0 139 1;
#X connect 141 0 138 1;
#X connect 142 0 138 2;
#X connect 143 0 137 0;
#X connect 144 0 136 0;
#X connect 145 0 129 0;
#X connect 146 0 142 0;
#X connect 147 0 141 0;
