#N canvas 32 32 1920 1026 12;
#X obj 1651 552 ctlin;
#X text 1593 641 value;
#X text 1695 551 (all controllers \, omni);
#X text 1642 643 controller #;
#X text 1738 640 channel/port;
#X floatatom 1617 663 4 0 127 0 - - - 0;
#X floatatom 1591 568 4 0 127 0 - - - 0;
#X floatatom 1727 664 2 1 64 0 - - - 0;
#X floatatom 430 319 5 0 0 0 - - - 0;
#X obj 430 297 ctlin 2 1;
#X floatatom 519 319 5 0 0 0 - - - 0;
#X obj 519 297 ctlin 3 1;
#X floatatom 600 319 5 0 0 0 - - - 0;
#X floatatom 697 319 5 0 0 0 - - - 0;
#X floatatom 785 319 5 0 0 0 - - - 0;
#X floatatom 863 319 5 0 0 0 - - - 0;
#X floatatom 941 319 5 0 0 0 - - - 0;
#X floatatom 1024 319 5 0 0 0 - - - 0;
#X obj 598 297 ctlin 4 1;
#X obj 697 297 ctlin 5 1;
#X obj 785 297 ctlin 6 1;
#X obj 863 297 ctlin 8 1;
#X obj 941 297 ctlin 9 1;
#X obj 1021 297 ctlin 12 1;
#X floatatom 434 261 5 0 0 0 - - - 0;
#X floatatom 523 261 5 0 0 0 - - - 0;
#X floatatom 604 261 5 0 0 0 - - - 0;
#X floatatom 701 261 5 0 0 0 - - - 0;
#X floatatom 789 261 5 0 0 0 - - - 0;
#X floatatom 867 261 5 0 0 0 - - - 0;
#X floatatom 945 261 5 0 0 0 - - - 0;
#X floatatom 1028 261 5 0 0 0 - - - 0;
#X obj 434 239 ctlin 13 1;
#X obj 523 239 ctlin 14 1;
#X obj 602 239 ctlin 15 1;
#X obj 701 239 ctlin 16 1;
#X obj 789 239 ctlin 17 1;
#X obj 867 239 ctlin 18 1;
#X obj 945 239 ctlin 19 1;
#X obj 1578 469 notein;
#X floatatom 1530 500 5 0 0 0 - - - 0;
#X obj 526 84 tgl 19 0 empty empty empty 0 -10 0 12 #fcfcfc #000000 #000000 0 1;
#X obj 527 37 tgl 19 0 empty empty empty 0 -10 0 12 #fcfcfc #000000 #000000 0 1;
#X obj 525 183 tgl 19 0 empty empty empty 0 -10 0 12 #fcfcfc #000000 #000000 0 1;
#X obj 526 136 tgl 19 0 empty empty empty 0 -10 0 12 #fcfcfc #000000 #000000 0 1;
#X obj 607 85 tgl 19 0 empty empty empty 0 -10 0 12 #fcfcfc #000000 #000000 0 1;
#X obj 608 38 tgl 19 0 empty empty empty 0 -10 0 12 #fcfcfc #000000 #000000 0 1;
#X obj 606 184 tgl 19 0 empty empty empty 0 -10 0 12 #fcfcfc #000000 #000000 0 1;
#X obj 607 137 tgl 19 0 empty empty empty 0 -10 0 12 #fcfcfc #000000 #000000 0 1;
#X obj 702 86 tgl 19 0 empty empty empty 0 -10 0 12 #fcfcfc #000000 #000000 0 1;
#X obj 703 39 tgl 19 0 empty empty empty 0 -10 0 12 #fcfcfc #000000 #000000 0 1;
#X obj 701 185 tgl 19 0 empty empty empty 0 -10 0 12 #fcfcfc #000000 #000000 0 1;
#X obj 702 138 tgl 19 0 empty empty empty 0 -10 0 12 #fcfcfc #000000 #000000 0 1;
#X obj 791 85 tgl 19 0 empty empty empty 0 -10 0 12 #fcfcfc #000000 #000000 0 1;
#X obj 792 38 tgl 19 0 empty empty empty 0 -10 0 12 #fcfcfc #000000 #000000 0 1;
#X obj 790 184 tgl 19 0 empty empty empty 0 -10 0 12 #fcfcfc #000000 #000000 0 1;
#X obj 791 137 tgl 19 0 empty empty empty 0 -10 0 12 #fcfcfc #000000 #000000 0 1;
#X obj 439 84 tgl 19 0 empty empty empty 0 -10 0 12 #fcfcfc #000000 #000000 0 1;
#X obj 440 37 tgl 19 0 empty empty empty 0 -10 0 12 #fcfcfc #000000 #000000 0 1;
#X obj 438 183 tgl 19 0 empty empty empty 0 -10 0 12 #fcfcfc #000000 #000000 0 1;
#X obj 439 136 tgl 19 0 empty empty empty 0 -10 0 12 #fcfcfc #000000 #000000 0 1;
#X obj 438 159 ctlin 46 1;
#X obj 439 112 ctlin 38 1;
#X obj 440 13 ctlin 21 1;
#X obj 872 85 tgl 19 0 empty empty empty 0 -10 0 12 #fcfcfc #000000 #000000 0 1;
#X obj 873 38 tgl 19 0 empty empty empty 0 -10 0 12 #fcfcfc #000000 #000000 0 1;
#X obj 871 184 tgl 19 0 empty empty empty 0 -10 0 12 #fcfcfc #000000 #000000 0 1;
#X obj 872 137 tgl 19 0 empty empty empty 0 -10 0 12 #fcfcfc #000000 #000000 0 1;
#X obj 951 85 tgl 19 0 empty empty empty 0 -10 0 12 #fcfcfc #000000 #000000 0 1;
#X obj 952 38 tgl 19 0 empty empty empty 0 -10 0 12 #fcfcfc #000000 #000000 0 1;
#X obj 950 184 tgl 19 0 empty empty empty 0 -10 0 12 #fcfcfc #000000 #000000 0 1;
#X obj 951 137 tgl 19 0 empty empty empty 0 -10 0 12 #fcfcfc #000000 #000000 0 1;
#X obj 1028 86 tgl 19 0 empty empty empty 0 -10 0 12 #fcfcfc #000000 #000000 0 1;
#X obj 1029 39 tgl 19 0 empty empty empty 0 -10 0 12 #fcfcfc #000000 #000000 0 1;
#X obj 1027 185 tgl 19 0 empty empty empty 0 -10 0 12 #fcfcfc #000000 #000000 0 1;
#X obj 1028 138 tgl 19 0 empty empty empty 0 -10 0 12 #fcfcfc #000000 #000000 0 1;
#X obj 1025 239 ctlin 20 1;
#X obj 1027 161 ctlin 53 1;
#X obj 1028 114 ctlin 45 1;
#X obj 1028 62 ctlin 37 1;
#X obj 1029 15 ctlin 28 1;
#X obj 950 160 ctlin 52 1;
#X obj 871 160 ctlin 51 1;
#X obj 790 160 ctlin 50 1;
#X obj 701 161 ctlin 49 1;
#X obj 606 160 ctlin 48 1;
#X obj 525 159 ctlin 47 1;
#X obj 951 113 ctlin 44 1;
#X obj 872 113 ctlin 43 1;
#X obj 791 113 ctlin 42 1;
#X obj 702 114 ctlin 41 1;
#X obj 607 113 ctlin 40 1;
#X obj 526 112 ctlin 39 1;
#X obj 951 61 ctlin 36 1;
#X obj 872 61 ctlin 35 1;
#X obj 791 61 ctlin 34 1;
#X obj 702 62 ctlin 33 1;
#X obj 439 60 ctlin 29 1;
#X obj 525 60 ctlin 30 1;
#X obj 607 61 ctlin 31 1;
#X obj 952 14 ctlin 27 1;
#X obj 874 14 ctlin 26 1;
#X obj 792 14 ctlin 25 1;
#X obj 704 15 ctlin 24 1;
#X obj 608 14 ctlin 23 1;
#X obj 527 11 ctlin 22 1;
#X obj 122 229 tgl 19 0 empty empty empty 0 -10 0 12 #fcfcfc #000000 #000000 0 1;
#X obj 203 230 tgl 19 0 empty empty empty 0 -10 0 12 #fcfcfc #000000 #000000 0 1;
#X obj 298 231 tgl 19 0 empty empty empty 0 -10 0 12 #fcfcfc #000000 #000000 0 1;
#X obj 35 229 tgl 19 0 empty empty empty 0 -10 0 12 #fcfcfc #000000 #000000 0 1;
#X obj 36 205 ctlin 62 1;
#X obj 122 205 ctlin 63 1;
#X obj 203 206 ctlin 80 1;
#X obj 298 207 ctlin 81 1;
#X obj 121 178 tgl 19 0 empty empty empty 0 -10 0 12 #fcfcfc #000000 #000000 0 1;
#X obj 202 179 tgl 19 0 empty empty empty 0 -10 0 12 #fcfcfc #000000 #000000 0 1;
#X obj 297 180 tgl 19 0 empty empty empty 0 -10 0 12 #fcfcfc #000000 #000000 0 1;
#X obj 34 178 tgl 19 0 empty empty empty 0 -10 0 12 #fcfcfc #000000 #000000 0 1;
#X obj 121 128 tgl 19 0 empty empty empty 0 -10 0 12 #fcfcfc #000000 #000000 0 1;
#X obj 202 129 tgl 19 0 empty empty empty 0 -10 0 12 #fcfcfc #000000 #000000 0 1;
#X obj 297 130 tgl 19 0 empty empty empty 0 -10 0 12 #fcfcfc #000000 #000000 0 1;
#X obj 34 128 tgl 19 0 empty empty empty 0 -10 0 12 #fcfcfc #000000 #000000 0 1;
#X obj 35 154 ctlin 58 1;
#X obj 121 154 ctlin 59 1;
#X obj 202 155 ctlin 60 1;
#X obj 297 156 ctlin 61 1;
#X obj 35 104 ctlin 54 1;
#X obj 121 104 ctlin 55 1;
#X obj 202 105 ctlin 56 1;
#X obj 297 106 ctlin 57 1;
#X floatatom 1673 494 5 0 0 0 - - - 0;
#X floatatom 1595 500 5 0 0 0 - - - 0;
#X obj 148 290 ctlin 86 1;
#X floatatom 149 309 5 0 0 0 - - - 0;
#X floatatom 423 722 5 0 0 0 - - - 0;
#X floatatom 512 722 5 0 0 0 - - - 0;
#X floatatom 593 722 5 0 0 0 - - - 0;
#X floatatom 690 722 5 0 0 0 - - - 0;
#X floatatom 778 722 5 0 0 0 - - - 0;
#X floatatom 856 722 5 0 0 0 - - - 0;
#X floatatom 934 722 5 0 0 0 - - - 0;
#X floatatom 1017 722 5 0 0 0 - - - 0;
#X floatatom 427 664 5 0 0 0 - - - 0;
#X floatatom 516 664 5 0 0 0 - - - 0;
#X floatatom 597 664 5 0 0 0 - - - 0;
#X floatatom 694 664 5 0 0 0 - - - 0;
#X floatatom 782 664 5 0 0 0 - - - 0;
#X floatatom 860 664 5 0 0 0 - - - 0;
#X floatatom 938 664 5 0 0 0 - - - 0;
#X floatatom 1021 664 5 0 0 0 - - - 0;
#X obj 519 487 tgl 19 0 empty empty empty 0 -10 0 12 #fcfcfc #000000 #000000 0 1;
#X obj 520 440 tgl 19 0 empty empty empty 0 -10 0 12 #fcfcfc #000000 #000000 0 1;
#X obj 518 586 tgl 19 0 empty empty empty 0 -10 0 12 #fcfcfc #000000 #000000 0 1;
#X obj 519 539 tgl 19 0 empty empty empty 0 -10 0 12 #fcfcfc #000000 #000000 0 1;
#X obj 600 488 tgl 19 0 empty empty empty 0 -10 0 12 #fcfcfc #000000 #000000 0 1;
#X obj 601 441 tgl 19 0 empty empty empty 0 -10 0 12 #fcfcfc #000000 #000000 0 1;
#X obj 599 587 tgl 19 0 empty empty empty 0 -10 0 12 #fcfcfc #000000 #000000 0 1;
#X obj 600 540 tgl 19 0 empty empty empty 0 -10 0 12 #fcfcfc #000000 #000000 0 1;
#X obj 695 489 tgl 19 0 empty empty empty 0 -10 0 12 #fcfcfc #000000 #000000 0 1;
#X obj 696 442 tgl 19 0 empty empty empty 0 -10 0 12 #fcfcfc #000000 #000000 0 1;
#X obj 694 588 tgl 19 0 empty empty empty 0 -10 0 12 #fcfcfc #000000 #000000 0 1;
#X obj 695 541 tgl 19 0 empty empty empty 0 -10 0 12 #fcfcfc #000000 #000000 0 1;
#X obj 784 488 tgl 19 0 empty empty empty 0 -10 0 12 #fcfcfc #000000 #000000 0 1;
#X obj 785 441 tgl 19 0 empty empty empty 0 -10 0 12 #fcfcfc #000000 #000000 0 1;
#X obj 783 587 tgl 19 0 empty empty empty 0 -10 0 12 #fcfcfc #000000 #000000 0 1;
#X obj 784 540 tgl 19 0 empty empty empty 0 -10 0 12 #fcfcfc #000000 #000000 0 1;
#X obj 432 487 tgl 19 0 empty empty empty 0 -10 0 12 #fcfcfc #000000 #000000 0 1;
#X obj 433 440 tgl 19 0 empty empty empty 0 -10 0 12 #fcfcfc #000000 #000000 0 1;
#X obj 431 586 tgl 19 0 empty empty empty 0 -10 0 12 #fcfcfc #000000 #000000 0 1;
#X obj 432 539 tgl 19 0 empty empty empty 0 -10 0 12 #fcfcfc #000000 #000000 0 1;
#X obj 865 488 tgl 19 0 empty empty empty 0 -10 0 12 #fcfcfc #000000 #000000 0 1;
#X obj 866 441 tgl 19 0 empty empty empty 0 -10 0 12 #fcfcfc #000000 #000000 0 1;
#X obj 864 587 tgl 19 0 empty empty empty 0 -10 0 12 #fcfcfc #000000 #000000 0 1;
#X obj 865 540 tgl 19 0 empty empty empty 0 -10 0 12 #fcfcfc #000000 #000000 0 1;
#X obj 944 488 tgl 19 0 empty empty empty 0 -10 0 12 #fcfcfc #000000 #000000 0 1;
#X obj 945 441 tgl 19 0 empty empty empty 0 -10 0 12 #fcfcfc #000000 #000000 0 1;
#X obj 943 587 tgl 19 0 empty empty empty 0 -10 0 12 #fcfcfc #000000 #000000 0 1;
#X obj 944 540 tgl 19 0 empty empty empty 0 -10 0 12 #fcfcfc #000000 #000000 0 1;
#X obj 1021 489 tgl 19 0 empty empty empty 0 -10 0 12 #fcfcfc #000000 #000000 0 1;
#X obj 1022 442 tgl 19 0 empty empty empty 0 -10 0 12 #fcfcfc #000000 #000000 0 1;
#X obj 1020 588 tgl 19 0 empty empty empty 0 -10 0 12 #fcfcfc #000000 #000000 0 1;
#X obj 1021 541 tgl 19 0 empty empty empty 0 -10 0 12 #fcfcfc #000000 #000000 0 1;
#X obj 115 632 tgl 19 0 empty empty empty 0 -10 0 12 #fcfcfc #000000 #000000 0 1;
#X obj 196 633 tgl 19 0 empty empty empty 0 -10 0 12 #fcfcfc #000000 #000000 0 1;
#X obj 291 634 tgl 19 0 empty empty empty 0 -10 0 12 #fcfcfc #000000 #000000 0 1;
#X obj 28 632 tgl 19 0 empty empty empty 0 -10 0 12 #fcfcfc #000000 #000000 0 1;
#X obj 114 581 tgl 19 0 empty empty empty 0 -10 0 12 #fcfcfc #000000 #000000 0 1;
#X obj 195 582 tgl 19 0 empty empty empty 0 -10 0 12 #fcfcfc #000000 #000000 0 1;
#X obj 290 583 tgl 19 0 empty empty empty 0 -10 0 12 #fcfcfc #000000 #000000 0 1;
#X obj 27 581 tgl 19 0 empty empty empty 0 -10 0 12 #fcfcfc #000000 #000000 0 1;
#X obj 114 531 tgl 19 0 empty empty empty 0 -10 0 12 #fcfcfc #000000 #000000 0 1;
#X obj 195 532 tgl 19 0 empty empty empty 0 -10 0 12 #fcfcfc #000000 #000000 0 1;
#X obj 290 533 tgl 19 0 empty empty empty 0 -10 0 12 #fcfcfc #000000 #000000 0 1;
#X obj 27 531 tgl 19 0 empty empty empty 0 -10 0 12 #fcfcfc #000000 #000000 0 1;
#X floatatom 142 712 5 0 0 0 - - - 0;
#X obj 423 700 ctlin 2 2;
#X obj 512 700 ctlin 3 2;
#X obj 591 700 ctlin 4 2;
#X obj 690 700 ctlin 5 2;
#X obj 778 700 ctlin 6 2;
#X obj 856 700 ctlin 8 2;
#X obj 934 700 ctlin 9 2;
#X obj 1014 700 ctlin 12 2;
#X obj 1018 642 ctlin 20 2;
#X obj 938 642 ctlin 19 2;
#X obj 860 642 ctlin 18 2;
#X obj 782 642 ctlin 17 2;
#X obj 694 642 ctlin 16 2;
#X obj 595 642 ctlin 15 2;
#X obj 516 642 ctlin 14 2;
#X obj 427 642 ctlin 13 2;
#X obj 291 610 ctlin 81 2;
#X obj 196 609 ctlin 80 2;
#X obj 115 608 ctlin 63 2;
#X obj 30 608 ctlin 62 2;
#X obj 28 557 ctlin 58 2;
#X obj 114 557 ctlin 59 2;
#X obj 195 558 ctlin 60 2;
#X obj 290 559 ctlin 61 2;
#X obj 290 509 ctlin 57 2;
#X obj 195 508 ctlin 56 2;
#X obj 114 507 ctlin 55 2;
#X obj 28 507 ctlin 54 2;
#X obj 141 693 ctlin 86 2;
#X obj 433 416 ctlin 21 2;
#X obj 432 463 ctlin 29 2;
#X obj 432 515 ctlin 38 2;
#X obj 431 562 ctlin 46 2;
#X obj 520 414 ctlin 22 2;
#X obj 519 463 ctlin 30 2;
#X obj 519 515 ctlin 39 2;
#X obj 518 562 ctlin 47 2;
#X obj 599 563 ctlin 48 2;
#X obj 600 516 ctlin 40 2;
#X obj 600 464 ctlin 31 2;
#X obj 601 417 ctlin 23 2;
#X obj 698 420 ctlin 24 2;
#X obj 695 465 ctlin 33 2;
#X obj 695 518 ctlin 41 2;
#X obj 694 564 ctlin 49 2;
#X obj 783 563 ctlin 50 2;
#X obj 784 516 ctlin 42 2;
#X obj 784 464 ctlin 34 2;
#X obj 785 417 ctlin 25 2;
#X obj 865 563 ctlin 51 2;
#X obj 865 516 ctlin 43 2;
#X obj 865 464 ctlin 35 2;
#X obj 867 417 ctlin 26 2;
#X obj 946 418 ctlin 27 2;
#X obj 944 464 ctlin 36 2;
#X obj 944 516 ctlin 44 2;
#X obj 943 563 ctlin 52 2;
#X obj 1022 418 ctlin 28 2;
#X obj 1021 465 ctlin 37 2;
#X obj 1021 517 ctlin 45 2;
#X obj 1020 564 ctlin 53 2;
#X floatatom 414 1112 5 0 0 0 - - - 0;
#X floatatom 503 1112 5 0 0 0 - - - 0;
#X floatatom 584 1112 5 0 0 0 - - - 0;
#X floatatom 681 1112 5 0 0 0 - - - 0;
#X floatatom 769 1112 5 0 0 0 - - - 0;
#X floatatom 847 1112 5 0 0 0 - - - 0;
#X floatatom 925 1112 5 0 0 0 - - - 0;
#X floatatom 1008 1112 5 0 0 0 - - - 0;
#X floatatom 418 1054 5 0 0 0 - - - 0;
#X floatatom 507 1054 5 0 0 0 - - - 0;
#X floatatom 588 1054 5 0 0 0 - - - 0;
#X floatatom 685 1054 5 0 0 0 - - - 0;
#X floatatom 773 1054 5 0 0 0 - - - 0;
#X floatatom 851 1054 5 0 0 0 - - - 0;
#X floatatom 929 1054 5 0 0 0 - - - 0;
#X floatatom 1012 1054 5 0 0 0 - - - 0;
#X obj 510 877 tgl 19 0 empty empty empty 0 -10 0 12 #fcfcfc #000000 #000000 0 1;
#X obj 511 830 tgl 19 0 empty empty empty 0 -10 0 12 #fcfcfc #000000 #000000 0 1;
#X obj 509 976 tgl 19 0 empty empty empty 0 -10 0 12 #fcfcfc #000000 #000000 0 1;
#X obj 510 929 tgl 19 0 empty empty empty 0 -10 0 12 #fcfcfc #000000 #000000 0 1;
#X obj 591 878 tgl 19 0 empty empty empty 0 -10 0 12 #fcfcfc #000000 #000000 0 1;
#X obj 592 831 tgl 19 0 empty empty empty 0 -10 0 12 #fcfcfc #000000 #000000 0 1;
#X obj 590 977 tgl 19 0 empty empty empty 0 -10 0 12 #fcfcfc #000000 #000000 0 1;
#X obj 591 930 tgl 19 0 empty empty empty 0 -10 0 12 #fcfcfc #000000 #000000 0 1;
#X obj 686 879 tgl 19 0 empty empty empty 0 -10 0 12 #fcfcfc #000000 #000000 0 1;
#X obj 687 832 tgl 19 0 empty empty empty 0 -10 0 12 #fcfcfc #000000 #000000 0 1;
#X obj 685 978 tgl 19 0 empty empty empty 0 -10 0 12 #fcfcfc #000000 #000000 0 1;
#X obj 686 931 tgl 19 0 empty empty empty 0 -10 0 12 #fcfcfc #000000 #000000 0 1;
#X obj 775 878 tgl 19 0 empty empty empty 0 -10 0 12 #fcfcfc #000000 #000000 0 1;
#X obj 776 831 tgl 19 0 empty empty empty 0 -10 0 12 #fcfcfc #000000 #000000 0 1;
#X obj 774 977 tgl 19 0 empty empty empty 0 -10 0 12 #fcfcfc #000000 #000000 0 1;
#X obj 775 930 tgl 19 0 empty empty empty 0 -10 0 12 #fcfcfc #000000 #000000 0 1;
#X obj 423 877 tgl 19 0 empty empty empty 0 -10 0 12 #fcfcfc #000000 #000000 0 1;
#X obj 424 830 tgl 19 0 empty empty empty 0 -10 0 12 #fcfcfc #000000 #000000 0 1;
#X obj 422 976 tgl 19 0 empty empty empty 0 -10 0 12 #fcfcfc #000000 #000000 0 1;
#X obj 423 929 tgl 19 0 empty empty empty 0 -10 0 12 #fcfcfc #000000 #000000 0 1;
#X obj 856 878 tgl 19 0 empty empty empty 0 -10 0 12 #fcfcfc #000000 #000000 0 1;
#X obj 857 831 tgl 19 0 empty empty empty 0 -10 0 12 #fcfcfc #000000 #000000 0 1;
#X obj 855 977 tgl 19 0 empty empty empty 0 -10 0 12 #fcfcfc #000000 #000000 0 1;
#X obj 856 930 tgl 19 0 empty empty empty 0 -10 0 12 #fcfcfc #000000 #000000 0 1;
#X obj 935 878 tgl 19 0 empty empty empty 0 -10 0 12 #fcfcfc #000000 #000000 0 1;
#X obj 936 831 tgl 19 0 empty empty empty 0 -10 0 12 #fcfcfc #000000 #000000 0 1;
#X obj 934 977 tgl 19 0 empty empty empty 0 -10 0 12 #fcfcfc #000000 #000000 0 1;
#X obj 935 930 tgl 19 0 empty empty empty 0 -10 0 12 #fcfcfc #000000 #000000 0 1;
#X obj 1012 879 tgl 19 0 empty empty empty 0 -10 0 12 #fcfcfc #000000 #000000 0 1;
#X obj 1013 832 tgl 19 0 empty empty empty 0 -10 0 12 #fcfcfc #000000 #000000 0 1;
#X obj 1011 978 tgl 19 0 empty empty empty 0 -10 0 12 #fcfcfc #000000 #000000 0 1;
#X obj 1012 931 tgl 19 0 empty empty empty 0 -10 0 12 #fcfcfc #000000 #000000 0 1;
#X obj 106 1022 tgl 19 0 empty empty empty 0 -10 0 12 #fcfcfc #000000 #000000 0 1;
#X obj 187 1023 tgl 19 0 empty empty empty 0 -10 0 12 #fcfcfc #000000 #000000 0 1;
#X obj 282 1024 tgl 19 0 empty empty empty 0 -10 0 12 #fcfcfc #000000 #000000 0 1;
#X obj 19 1022 tgl 19 0 empty empty empty 0 -10 0 12 #fcfcfc #000000 #000000 0 1;
#X obj 105 971 tgl 19 0 empty empty empty 0 -10 0 12 #fcfcfc #000000 #000000 0 1;
#X obj 186 972 tgl 19 0 empty empty empty 0 -10 0 12 #fcfcfc #000000 #000000 0 1;
#X obj 281 973 tgl 19 0 empty empty empty 0 -10 0 12 #fcfcfc #000000 #000000 0 1;
#X obj 18 971 tgl 19 0 empty empty empty 0 -10 0 12 #fcfcfc #000000 #000000 0 1;
#X obj 105 921 tgl 19 0 empty empty empty 0 -10 0 12 #fcfcfc #000000 #000000 0 1;
#X obj 186 922 tgl 19 0 empty empty empty 0 -10 0 12 #fcfcfc #000000 #000000 0 1;
#X obj 281 923 tgl 19 0 empty empty empty 0 -10 0 12 #fcfcfc #000000 #000000 0 1;
#X obj 18 921 tgl 19 0 empty empty empty 0 -10 0 12 #fcfcfc #000000 #000000 0 1;
#X floatatom 133 1102 5 0 0 0 - - - 0;
#X obj 19 897 ctlin 54 3;
#X obj 20 948 ctlin 58 3;
#X obj 21 998 ctlin 62 3;
#X obj 106 998 ctlin 63 3;
#X obj 105 947 ctlin 59 3;
#X obj 105 897 ctlin 55 3;
#X obj 186 898 ctlin 56 3;
#X obj 186 948 ctlin 60 3;
#X obj 187 999 ctlin 80 3;
#X obj 132 1081 ctlin 86 3;
#X obj 282 1000 ctlin 81 3;
#X obj 281 949 ctlin 61 3;
#X obj 281 899 ctlin 57 3;
#X obj 424 806 ctlin 21 3;
#X obj 423 853 ctlin 29 3;
#X obj 423 905 ctlin 38 3;
#X obj 422 952 ctlin 46 3;
#X obj 418 1031 ctlin 13 3;
#X obj 414 1090 ctlin 2 3;
#X obj 511 804 ctlin 22 3;
#X obj 510 853 ctlin 30 3;
#X obj 510 905 ctlin 39 3;
#X obj 509 952 ctlin 47 3;
#X obj 592 807 ctlin 23 3;
#X obj 591 854 ctlin 31 3;
#X obj 591 906 ctlin 40 3;
#X obj 590 953 ctlin 48 3;
#X obj 689 810 ctlin 24 3;
#X obj 686 855 ctlin 33 3;
#X obj 686 908 ctlin 41 3;
#X obj 685 954 ctlin 49 3;
#X obj 776 807 ctlin 25 3;
#X obj 775 855 ctlin 34 3;
#X obj 775 906 ctlin 42 3;
#X obj 776 953 ctlin 50 3;
#X obj 860 806 ctlin 26 3;
#X obj 856 854 ctlin 35 3;
#X obj 856 906 ctlin 43 3;
#X obj 856 953 ctlin 51 3;
#X obj 937 808 ctlin 27 3;
#X obj 935 854 ctlin 36 3;
#X obj 935 906 ctlin 44 3;
#X obj 934 953 ctlin 52 3;
#X obj 1013 808 ctlin 28 3;
#X obj 1013 854 ctlin 37 3;
#X obj 1012 907 ctlin 45 3;
#X obj 1011 954 ctlin 53 3;
#X obj 1005 1090 ctlin 12 3;
#X obj 925 1090 ctlin 9 3;
#X obj 847 1090 ctlin 8 3;
#X obj 769 1090 ctlin 6 3;
#X obj 681 1090 ctlin 5 3;
#X obj 582 1090 ctlin 4 3;
#X obj 504 1088 ctlin 3 3;
#X obj 507 1032 ctlin 14 3;
#X obj 586 1032 ctlin 15 3;
#X obj 685 1032 ctlin 16 3;
#X obj 773 1032 ctlin 17 3;
#X obj 851 1032 ctlin 18 3;
#X obj 929 1032 ctlin 19 3;
#X obj 1009 1032 ctlin 20 3;
#X text 1182 233 scene 1 channel 1;
#X text 1161 561 scene 2 channel 2;
#X text 1163 889 scene 3 channel 3 - Toggle;
#X obj 1245 313 s ctrl_pulse_1;
#X connect 0 0 5 0;
#X connect 0 1 6 0;
#X connect 0 2 7 0;
#X connect 8 0 381 0;
#X connect 9 0 8 0;
#X connect 11 0 10 0;
#X connect 18 0 12 0;
#X connect 19 0 13 0;
#X connect 20 0 14 0;
#X connect 21 0 15 0;
#X connect 22 0 16 0;
#X connect 23 0 17 0;
#X connect 32 0 24 0;
#X connect 33 0 25 0;
#X connect 34 0 26 0;
#X connect 35 0 27 0;
#X connect 36 0 28 0;
#X connect 37 0 29 0;
#X connect 38 0 30 0;
#X connect 39 0 40 0;
#X connect 39 1 131 0;
#X connect 39 2 130 0;
#X connect 61 0 59 0;
#X connect 62 0 60 0;
#X connect 63 0 58 0;
#X connect 76 0 31 0;
#X connect 77 0 74 0;
#X connect 78 0 75 0;
#X connect 79 0 72 0;
#X connect 80 0 73 0;
#X connect 81 0 70 0;
#X connect 82 0 66 0;
#X connect 83 0 55 0;
#X connect 84 0 51 0;
#X connect 85 0 47 0;
#X connect 86 0 43 0;
#X connect 87 0 71 0;
#X connect 88 0 67 0;
#X connect 89 0 56 0;
#X connect 90 0 52 0;
#X connect 91 0 48 0;
#X connect 92 0 44 0;
#X connect 93 0 68 0;
#X connect 94 0 64 0;
#X connect 95 0 53 0;
#X connect 96 0 49 0;
#X connect 97 0 57 0;
#X connect 98 0 41 0;
#X connect 99 0 45 0;
#X connect 100 0 69 0;
#X connect 101 0 65 0;
#X connect 102 0 54 0;
#X connect 103 0 50 0;
#X connect 104 0 46 0;
#X connect 105 0 42 0;
#X connect 110 0 109 0;
#X connect 111 0 106 0;
#X connect 112 0 107 0;
#X connect 113 0 108 0;
#X connect 122 0 117 0;
#X connect 123 0 114 0;
#X connect 124 0 115 0;
#X connect 125 0 116 0;
#X connect 126 0 121 0;
#X connect 127 0 118 0;
#X connect 128 0 119 0;
#X connect 129 0 120 0;
#X connect 132 0 133 0;
#X connect 195 0 134 0;
#X connect 196 0 135 0;
#X connect 197 0 136 0;
#X connect 198 0 137 0;
#X connect 199 0 138 0;
#X connect 200 0 139 0;
#X connect 201 0 140 0;
#X connect 202 0 141 0;
#X connect 203 0 149 0;
#X connect 204 0 148 0;
#X connect 205 0 147 0;
#X connect 206 0 146 0;
#X connect 207 0 145 0;
#X connect 208 0 144 0;
#X connect 209 0 143 0;
#X connect 210 0 142 0;
#X connect 211 0 184 0;
#X connect 212 0 183 0;
#X connect 213 0 182 0;
#X connect 214 0 185 0;
#X connect 215 0 189 0;
#X connect 216 0 186 0;
#X connect 217 0 187 0;
#X connect 218 0 188 0;
#X connect 219 0 192 0;
#X connect 220 0 191 0;
#X connect 221 0 190 0;
#X connect 222 0 193 0;
#X connect 223 0 194 0;
#X connect 224 0 167 0;
#X connect 225 0 166 0;
#X connect 226 0 169 0;
#X connect 227 0 168 0;
#X connect 228 0 151 0;
#X connect 229 0 150 0;
#X connect 230 0 153 0;
#X connect 231 0 152 0;
#X connect 232 0 156 0;
#X connect 233 0 157 0;
#X connect 234 0 154 0;
#X connect 235 0 155 0;
#X connect 236 0 159 0;
#X connect 237 0 158 0;
#X connect 238 0 161 0;
#X connect 239 0 160 0;
#X connect 240 0 164 0;
#X connect 241 0 165 0;
#X connect 242 0 162 0;
#X connect 243 0 163 0;
#X connect 244 0 172 0;
#X connect 245 0 173 0;
#X connect 246 0 170 0;
#X connect 247 0 171 0;
#X connect 248 0 175 0;
#X connect 249 0 174 0;
#X connect 250 0 177 0;
#X connect 251 0 176 0;
#X connect 252 0 179 0;
#X connect 253 0 178 0;
#X connect 254 0 181 0;
#X connect 255 0 180 0;
#X connect 317 0 315 0;
#X connect 318 0 311 0;
#X connect 319 0 307 0;
#X connect 320 0 304 0;
#X connect 321 0 308 0;
#X connect 322 0 312 0;
#X connect 323 0 313 0;
#X connect 324 0 309 0;
#X connect 325 0 305 0;
#X connect 326 0 316 0;
#X connect 327 0 306 0;
#X connect 328 0 310 0;
#X connect 329 0 314 0;
#X connect 330 0 289 0;
#X connect 331 0 288 0;
#X connect 332 0 291 0;
#X connect 333 0 290 0;
#X connect 334 0 264 0;
#X connect 335 0 256 0;
#X connect 336 0 273 0;
#X connect 337 0 272 0;
#X connect 338 0 275 0;
#X connect 339 0 274 0;
#X connect 340 0 277 0;
#X connect 341 0 276 0;
#X connect 342 0 279 0;
#X connect 343 0 278 0;
#X connect 344 0 281 0;
#X connect 345 0 280 0;
#X connect 346 0 283 0;
#X connect 347 0 282 0;
#X connect 348 0 285 0;
#X connect 349 0 284 0;
#X connect 350 0 287 0;
#X connect 351 0 286 0;
#X connect 352 0 293 0;
#X connect 353 0 292 0;
#X connect 354 0 295 0;
#X connect 355 0 294 0;
#X connect 356 0 297 0;
#X connect 357 0 296 0;
#X connect 358 0 299 0;
#X connect 359 0 298 0;
#X connect 360 0 301 0;
#X connect 361 0 300 0;
#X connect 362 0 303 0;
#X connect 363 0 302 0;
#X connect 364 0 263 0;
#X connect 365 0 262 0;
#X connect 366 0 261 0;
#X connect 367 0 260 0;
#X connect 368 0 259 0;
#X connect 369 0 258 0;
#X connect 370 0 257 0;
#X connect 371 0 265 0;
#X connect 372 0 266 0;
#X connect 373 0 267 0;
#X connect 374 0 268 0;
#X connect 375 0 269 0;
#X connect 376 0 270 0;
#X connect 377 0 271 0;
