#N canvas 24 54 1920 1026 10;
#X floatatom 27 82 5 0 0 0 - - - 0;
#X msg 68 83 1;
#X obj 26 61 bng 15 250 50 0 empty empty empty 17 7 0 10 #fcfcfc #000000 #000000;
#X obj 28 107 + 1;
#X obj 21 16 tgl 15 0 empty empty empty 17 7 0 10 #fcfcfc #000000 #000000 0 1;
#X floatatom 248 132 5 0 0 0 - - - 0;
#X floatatom 772 388 5 0 0 0 - - - 0;
#X obj 244 175 s timeCount;
#X obj 688 350 bng 16 250 50 0 empty empty empty 0 -8 0 10 #fcfcfc #000000 #000000;
#X obj 795 328 bng 16 250 50 0 empty empty empty 0 -8 0 10 #fcfcfc #000000 #000000;
#X obj 1752 30 notein;
#X text 1805 82 velocity;
#X text 1816 56 channel;
#X text 1802 29 (omni);
#X text 1787 104 note;
#X floatatom 1752 104 4 0 127 0 - - - 0;
#X floatatom 1771 81 4 0 127 0 - - - 0;
#X floatatom 1791 56 0 1 64 0 - - - 0;
#X obj 20 40 metro 55, f 16;
#X obj 74 147 expr if($f1 < 64 \, $f1 \, 0);
#N canvas 770 122 833 1026 rhythm_1 0;
#X obj 331 447 outlet;
#X obj 329 351 % \$3;
#X obj 332 317 * \$1;
#X obj 331 383 < \$1;
#X obj 331 259 +;
#X obj 331 281 %;
#X obj 331 405 select 1;
#X floatatom 291 216 5 0 0 0 - - - 0;
#X floatatom 322 176 5 0 0 0 - - - 0;
#X floatatom 385 164 5 0 0 0 - - - 0;
#X obj 305 459 bng 15 250 50 0 empty empty empty 17 7 0 10 #fcfcfc #000000 #000000;
#X msg 138 248 1;
#X msg 137 270 2;
#X msg 138 293 3;
#X msg 136 320 4;
#X msg 140 219 0;
#X msg 139 350 8, f 11;
#X obj 556 118 r barLength;
#X obj 412 100 r euc1Offset;
#X obj 291 98 r euc1HitAmt;
#X obj 113 123 r timeCount;
#X obj 257 72 inlet;
#X obj 404 63 inlet;
#X obj 548 61 inlet;
#X floatatom 514 169 5 0 0 0 - - - 0;
#X connect 1 0 3 0;
#X connect 2 0 1 0;
#X connect 3 0 6 0;
#X connect 4 0 5 0;
#X connect 5 0 2 0;
#X connect 6 0 0 0;
#X connect 6 0 10 0;
#X connect 7 0 4 0;
#X connect 8 0 2 1;
#X connect 8 0 3 1;
#X connect 9 0 4 1;
#X connect 11 0 7 0;
#X connect 12 0 7 0;
#X connect 13 0 7 0;
#X connect 14 0 7 0;
#X connect 15 0 7 0;
#X connect 16 0 7 0;
#X connect 20 0 7 0;
#X connect 21 0 8 0;
#X connect 22 0 9 0;
#X connect 23 0 5 1;
#X connect 23 0 24 0;
#X connect 24 0 5 1;
#X connect 24 0 1 1;
#X coords 0 1026 1 1025 0 0 0;
#X restore 689 328 pd rhythm_1;
#X obj 575 277 r pulse_1;
#X obj 696 278 r offset_1;
#X obj 801 277 r length_1;
#X obj 882 278 r note_1;
#X obj 586 237 s pulse_1;
#X obj 660 236 s offset_1;
#X obj 764 235 s length_1;
#X obj 881 228 s note_1;
#X obj 594 69 vradio 16 1 0 8 empty empty empty 0 -8 0 10 #fcfcfc #000000 #000000 0;
#X msg 486 28 12;
#X floatatom 594 202 5 0 0 0 - - - 0;
#X msg 575 28 32;
#X obj 949 282 r randomV_1;
#X msg 516 28 16;
#X obj 821 418 makenote 250 250;
#X obj 888 361 random 111 240;
#X msg 450 27 8;
#X obj 677 67 vradio 16 1 0 8 empty empty empty 0 -8 0 10 #fcfcfc #000000 #000000 0;
#X floatatom 677 200 5 0 0 0 - - - 0;
#X msg 671 0 0;
#X msg 658 20 1;
#X msg 655 43 2;
#X msg 687 44 3;
#X msg 688 21 4;
#X obj 777 69 vradio 16 1 0 8 empty empty empty 0 -8 0 10 #fcfcfc #000000 #000000 0;
#X floatatom 777 202 5 0 0 0 - - - 0;
#X msg 756 19 4;
#X msg 787 21 8;
#X msg 820 21 12;
#X msg 759 46 16;
#X msg 787 46 32;
#X msg 818 47 64;
#X obj 158 72 loadbang;
#X obj 892 -63 vradio 16 1 0 16 empty empty empty 0 -8 0 16 #fcfcfc #000000 #000000 0;
#X floatatom 881 209 5 0 0 0 - - - 0;
#X msg 873 -86 16;
#X msg 901 -86 32;
#X msg 932 -85 64;
#X msg 870 -113 36;
#X msg 902 -111 37;
#X msg 934 -111 38;
#X obj 883 330 sel 0 1;
#X obj 962 237 s randomV_1;
#X msg 990 206 1;
#X msg 961 208 0;
#X floatatom 884 306 5 0 0 0 - - - 0;
#X floatatom 884 387 5 0 0 0 - - - 0;
#X floatatom 299 702 5 0 0 0 - - - 0;
#X obj 215 664 bng 16 250 50 0 empty empty empty 0 -8 0 10 #fcfcfc #000000 #000000;
#X obj 322 642 bng 16 250 50 0 empty empty empty 0 -8 0 10 #fcfcfc #000000 #000000;
#X obj 386 767 noteout 1;
#X obj 121 383 vradio 16 1 0 8 empty empty empty 0 -8 0 10 #fcfcfc #000000 #000000 0;
#X msg 75 344 12;
#X floatatom 121 516 5 0 0 0 - - - 0;
#X msg 137 343 32;
#X msg 105 344 16;
#X obj 348 732 makenote 250 250;
#X obj 415 675 random 111 240;
#X msg 39 343 8;
#X obj 204 381 vradio 16 1 0 8 empty empty empty 0 -8 0 10 #fcfcfc #000000 #000000 0;
#X floatatom 204 514 5 0 0 0 - - - 0;
#X msg 198 314 0;
#X msg 185 334 1;
#X msg 182 357 2;
#X msg 214 358 3;
#X msg 215 335 4;
#X obj 304 383 vradio 16 1 0 8 empty empty empty 0 -8 0 10 #fcfcfc #000000 #000000 0;
#X floatatom 304 516 5 0 0 0 - - - 0;
#X msg 283 333 4;
#X msg 314 335 8;
#X msg 347 335 12;
#X msg 286 360 16;
#X msg 314 360 32;
#X msg 345 361 64;
#X obj 419 381 vradio 16 1 0 8 empty empty empty 0 -8 0 10 #fcfcfc #000000 #000000 0;
#X floatatom 419 514 5 0 0 0 - - - 0;
#X msg 401 358 16;
#X msg 429 358 32;
#X msg 460 359 64;
#X msg 398 331 36;
#X msg 430 333 37;
#X msg 462 333 38;
#X obj 410 644 sel 0 1;
#X msg 511 520 1;
#X msg 482 522 0;
#X floatatom 411 620 5 0 0 0 - - - 0;
#X floatatom 411 701 5 0 0 0 - - - 0;
#X obj 113 551 s pulse_2;
#X obj 187 550 s offset_2;
#X obj 291 549 s length_2;
#X obj 372 550 s note_2;
#X obj 483 551 s randomV_2;
#X obj 102 591 r pulse_2;
#X obj 223 592 r offset_2;
#X obj 328 591 r length_2;
#X obj 409 592 r note_2;
#X obj 476 596 r randomV_2;
#N canvas 770 122 833 1026 rhythm_2 0;
#X obj 331 447 outlet;
#X obj 329 351 % \$3;
#X obj 332 317 * \$1;
#X obj 331 383 < \$1;
#X obj 331 259 +;
#X obj 331 281 %;
#X obj 331 405 select 1;
#X floatatom 291 216 5 0 0 0 - - - 0;
#X floatatom 322 176 5 0 0 0 - - - 0;
#X floatatom 385 164 5 0 0 0 - - - 0;
#X obj 305 459 bng 15 250 50 0 empty empty empty 17 7 0 10 #fcfcfc #000000 #000000;
#X msg 138 248 1;
#X msg 137 270 2;
#X msg 138 293 3;
#X msg 136 320 4;
#X msg 140 219 0;
#X msg 139 350 8, f 11;
#X obj 556 118 r barLength;
#X obj 412 100 r euc1Offset;
#X obj 291 98 r euc1HitAmt;
#X obj 113 123 r timeCount;
#X obj 257 72 inlet;
#X obj 404 63 inlet;
#X obj 548 61 inlet;
#X floatatom 514 169 5 0 0 0 - - - 0;
#X connect 1 0 3 0;
#X connect 2 0 1 0;
#X connect 3 0 6 0;
#X connect 4 0 5 0;
#X connect 5 0 2 0;
#X connect 6 0 0 0;
#X connect 6 0 10 0;
#X connect 7 0 4 0;
#X connect 8 0 2 1;
#X connect 8 0 3 1;
#X connect 9 0 4 1;
#X connect 11 0 7 0;
#X connect 12 0 7 0;
#X connect 13 0 7 0;
#X connect 14 0 7 0;
#X connect 15 0 7 0;
#X connect 16 0 7 0;
#X connect 20 0 7 0;
#X connect 21 0 8 0;
#X connect 22 0 9 0;
#X connect 23 0 5 1;
#X connect 23 0 24 0;
#X connect 24 0 5 1;
#X connect 24 0 1 1;
#X coords 0 1026 1 1025 0 0 0;
#X restore 216 643 pd rhythm_2;
#X msg 145 13 70;
#X msg 547 28 28;
#X msg 611 28 64;
#X msg 177 12 80;
#X msg 209 11 90;
#X obj 658 390 random 16;
#X obj 722 418 + 35;
#X obj 859 453 noteout 10;
#X obj 1057 18 vradio 16 1 0 10 empty empty empty 0 -8 0 10 #fcfcfc #000000 #000000 0;
#X floatatom 1061 212 5 0 0 0 - - - 0;
#X obj 1056 237 s channel_1;
#X obj 975 432 r channel_1;
#X obj 1057 191 + 1;
#X obj 920 137 + 35;
#X msg 248 12 100;
#X msg 288 10 110;
#X floatatom 1495 652 5 0 0 0 - - - 0;
#X obj 1411 614 bng 16 250 50 0 empty empty empty 0 -8 0 10 #fcfcfc #000000 #000000;
#X obj 1518 592 bng 16 250 50 0 empty empty empty 0 -8 0 10 #fcfcfc #000000 #000000;
#X obj 1317 333 vradio 16 1 0 8 empty empty empty 0 -8 0 10 #fcfcfc #000000 #000000 0;
#X msg 1209 292 12;
#X floatatom 1317 466 5 0 0 0 - - - 0;
#X msg 1298 292 32;
#X msg 1239 292 16;
#X obj 1544 682 makenote 250 250;
#X obj 1611 625 random 111 240;
#X msg 1173 291 8;
#X obj 1400 331 vradio 16 1 0 8 empty empty empty 0 -8 0 10 #fcfcfc #000000 #000000 0;
#X floatatom 1400 464 5 0 0 0 - - - 0;
#X msg 1394 264 0;
#X msg 1381 284 1;
#X msg 1378 307 2;
#X msg 1410 308 3;
#X msg 1411 285 4;
#X obj 1500 333 vradio 16 1 0 8 empty empty empty 0 -8 0 10 #fcfcfc #000000 #000000 0;
#X floatatom 1500 466 5 0 0 0 - - - 0;
#X msg 1479 283 4;
#X msg 1510 285 8;
#X msg 1543 285 12;
#X msg 1482 310 16;
#X msg 1510 310 32;
#X msg 1541 311 64;
#X obj 1615 201 vradio 16 1 0 16 empty empty empty 0 -8 0 16 #fcfcfc #000000 #000000 0;
#X floatatom 1604 473 5 0 0 0 - - - 0;
#X msg 1596 178 16;
#X msg 1624 178 32;
#X msg 1655 179 64;
#X msg 1593 151 36;
#X msg 1625 153 37;
#X msg 1657 153 38;
#X obj 1606 594 sel 0 1;
#X msg 1713 470 1;
#X msg 1684 472 0;
#X floatatom 1607 570 5 0 0 0 - - - 0;
#X floatatom 1607 651 5 0 0 0 - - - 0;
#X msg 1270 292 28;
#X msg 1334 292 64;
#X obj 1381 654 random 16;
#X obj 1445 682 + 35;
#X obj 1582 717 noteout 10;
#X obj 1780 282 vradio 16 1 0 10 empty empty empty 0 -8 0 10 #fcfcfc #000000 #000000 0;
#X floatatom 1784 476 5 0 0 0 - - - 0;
#X obj 1780 455 + 1;
#X obj 1643 401 + 35;
#X obj 1310 501 s pulse_3;
#X obj 1383 500 s offset_3;
#X obj 1489 499 s length_3;
#X obj 1604 491 s note_3;
#X obj 1685 501 s randomV_3;
#X obj 1779 501 s channel_3;
#X obj 1298 541 r pulse_3;
#X obj 1419 543 r offset_3;
#X obj 1524 541 r length_3;
#X obj 1605 542 r note_3;
#X obj 1673 546 r randomV_3;
#N canvas 770 122 833 1026 rhythm_3 0;
#X obj 331 447 outlet;
#X obj 329 351 % \$3;
#X obj 332 317 * \$1;
#X obj 331 383 < \$1;
#X obj 331 259 +;
#X obj 331 281 %;
#X obj 331 405 select 1;
#X floatatom 291 216 5 0 0 0 - - - 0;
#X floatatom 322 176 5 0 0 0 - - - 0;
#X floatatom 385 164 5 0 0 0 - - - 0;
#X obj 305 459 bng 15 250 50 0 empty empty empty 17 7 0 10 #fcfcfc #000000 #000000;
#X msg 138 248 1;
#X msg 137 270 2;
#X msg 138 293 3;
#X msg 136 320 4;
#X msg 140 219 0;
#X msg 139 350 8, f 11;
#X obj 556 118 r barLength;
#X obj 412 100 r euc1Offset;
#X obj 291 98 r euc1HitAmt;
#X obj 113 123 r timeCount;
#X obj 257 72 inlet;
#X obj 404 63 inlet;
#X obj 548 61 inlet;
#X floatatom 514 169 5 0 0 0 - - - 0;
#X connect 1 0 3 0;
#X connect 2 0 1 0;
#X connect 3 0 6 0;
#X connect 4 0 5 0;
#X connect 5 0 2 0;
#X connect 6 0 0 0;
#X connect 6 0 10 0;
#X connect 7 0 4 0;
#X connect 8 0 2 1;
#X connect 8 0 3 1;
#X connect 9 0 4 1;
#X connect 11 0 7 0;
#X connect 12 0 7 0;
#X connect 13 0 7 0;
#X connect 14 0 7 0;
#X connect 15 0 7 0;
#X connect 16 0 7 0;
#X connect 20 0 7 0;
#X connect 21 0 8 0;
#X connect 22 0 9 0;
#X connect 23 0 5 1;
#X connect 23 0 24 0;
#X connect 24 0 5 1;
#X connect 24 0 1 1;
#X coords 0 1026 1 1025 0 0 0;
#X restore 1413 592 pd rhythm_3;
#X obj 1698 696 r channel_3;
#X msg 335 11 200;
#X obj 662 602 bng 16 250 50 0 empty empty empty 0 -8 0 10 #fcfcfc #000000 #000000;
#X msg 738 599 248;
#X obj 646 702 midiout;
#X obj 25 141 s bang;
#X obj 677 534 r bang;
#X msg 112 -14 24;
#X obj 115 247 spigot;
#X connect 0 0 3 0;
#X connect 1 0 0 0;
#X connect 2 0 0 0;
#X connect 2 0 200 0;
#X connect 3 0 19 0;
#X connect 4 0 18 0;
#X connect 5 0 3 1;
#X connect 5 0 7 0;
#X connect 6 0 35 0;
#X connect 8 0 6 0;
#X connect 8 0 66 0;
#X connect 9 0 6 0;
#X connect 10 0 15 0;
#X connect 10 1 16 0;
#X connect 10 2 17 0;
#X connect 18 0 2 0;
#X connect 19 0 5 0;
#X connect 20 0 8 0;
#X connect 21 0 20 0;
#X connect 22 0 20 1;
#X connect 23 0 20 2;
#X connect 24 0 6 0;
#X connect 29 0 31 0;
#X connect 30 0 29 0;
#X connect 31 0 25 0;
#X connect 32 0 29 0;
#X connect 33 0 66 0;
#X connect 34 0 29 0;
#X connect 35 0 126 0;
#X connect 35 1 126 1;
#X connect 36 0 67 0;
#X connect 37 0 29 0;
#X connect 38 0 39 0;
#X connect 39 0 26 0;
#X connect 40 0 38 0;
#X connect 41 0 38 0;
#X connect 42 0 38 0;
#X connect 43 0 38 0;
#X connect 44 0 38 0;
#X connect 45 0 46 0;
#X connect 46 0 27 0;
#X connect 47 0 45 0;
#X connect 48 0 45 0;
#X connect 49 0 45 0;
#X connect 50 0 45 0;
#X connect 51 0 45 0;
#X connect 52 0 45 0;
#X connect 53 0 1 0;
#X connect 54 0 132 0;
#X connect 55 0 28 0;
#X connect 56 0 54 0;
#X connect 57 0 54 0;
#X connect 58 0 54 0;
#X connect 59 0 54 0;
#X connect 60 0 54 0;
#X connect 61 0 54 0;
#X connect 62 1 36 0;
#X connect 64 0 63 0;
#X connect 65 0 63 0;
#X connect 66 0 62 0;
#X connect 67 0 35 1;
#X connect 68 0 77 0;
#X connect 69 0 68 0;
#X connect 69 0 106 0;
#X connect 70 0 68 0;
#X connect 72 0 74 0;
#X connect 73 0 72 0;
#X connect 74 0 108 0;
#X connect 75 0 72 0;
#X connect 76 0 72 0;
#X connect 77 0 71 0;
#X connect 77 1 71 1;
#X connect 78 0 107 0;
#X connect 79 0 72 0;
#X connect 80 0 81 0;
#X connect 81 0 109 0;
#X connect 82 0 80 0;
#X connect 83 0 80 0;
#X connect 84 0 80 0;
#X connect 85 0 80 0;
#X connect 86 0 80 0;
#X connect 87 0 88 0;
#X connect 88 0 110 0;
#X connect 89 0 87 0;
#X connect 90 0 87 0;
#X connect 91 0 87 0;
#X connect 92 0 87 0;
#X connect 93 0 87 0;
#X connect 94 0 87 0;
#X connect 95 0 96 0;
#X connect 96 0 111 0;
#X connect 97 0 95 0;
#X connect 98 0 95 0;
#X connect 99 0 95 0;
#X connect 100 0 95 0;
#X connect 101 0 95 0;
#X connect 102 0 95 0;
#X connect 103 1 78 0;
#X connect 104 0 112 0;
#X connect 105 0 112 0;
#X connect 106 0 103 0;
#X connect 107 0 77 1;
#X connect 113 0 118 0;
#X connect 114 0 118 1;
#X connect 115 0 118 2;
#X connect 116 0 68 0;
#X connect 117 0 106 0;
#X connect 118 0 69 0;
#X connect 119 0 18 1;
#X connect 120 0 29 0;
#X connect 121 0 29 0;
#X connect 122 0 18 1;
#X connect 123 0 18 1;
#X connect 124 0 125 0;
#X connect 125 0 6 0;
#X connect 127 0 131 0;
#X connect 128 0 129 0;
#X connect 130 0 126 2;
#X connect 131 0 128 0;
#X connect 132 0 55 0;
#X connect 133 0 18 1;
#X connect 134 0 18 1;
#X connect 135 0 143 0;
#X connect 136 0 135 0;
#X connect 136 0 172 0;
#X connect 137 0 135 0;
#X connect 138 0 140 0;
#X connect 139 0 138 0;
#X connect 140 0 183 0;
#X connect 141 0 138 0;
#X connect 142 0 138 0;
#X connect 143 0 178 0;
#X connect 143 1 178 1;
#X connect 144 0 173 0;
#X connect 145 0 138 0;
#X connect 146 0 147 0;
#X connect 147 0 184 0;
#X connect 148 0 146 0;
#X connect 149 0 146 0;
#X connect 150 0 146 0;
#X connect 151 0 146 0;
#X connect 152 0 146 0;
#X connect 153 0 154 0;
#X connect 154 0 185 0;
#X connect 155 0 153 0;
#X connect 156 0 153 0;
#X connect 157 0 153 0;
#X connect 158 0 153 0;
#X connect 159 0 153 0;
#X connect 160 0 153 0;
#X connect 161 0 182 0;
#X connect 162 0 186 0;
#X connect 163 0 161 0;
#X connect 164 0 161 0;
#X connect 165 0 161 0;
#X connect 166 0 161 0;
#X connect 167 0 161 0;
#X connect 168 0 161 0;
#X connect 169 1 144 0;
#X connect 170 0 187 0;
#X connect 171 0 187 0;
#X connect 172 0 169 0;
#X connect 173 0 143 1;
#X connect 174 0 138 0;
#X connect 175 0 138 0;
#X connect 176 0 177 0;
#X connect 177 0 135 0;
#X connect 179 0 181 0;
#X connect 180 0 188 0;
#X connect 181 0 180 0;
#X connect 182 0 162 0;
#X connect 189 0 194 0;
#X connect 190 0 194 1;
#X connect 191 0 194 2;
#X connect 192 0 135 0;
#X connect 193 0 172 0;
#X connect 194 0 136 0;
#X connect 195 0 178 2;
#X connect 196 0 18 1;
#X connect 197 0 198 0;
#X connect 198 0 199 0;
#X connect 201 0 197 0;
#X connect 202 0 18 1;
