#N canvas 952 0 1920 1026 12;
#N canvas -8 0 1920 1026 turing 1;
#X floatatom 520 463 5 0 0 1 base_10 - - 0;
#X obj 464 464 / 2;
#X obj 408 464 / 2;
#X obj 352 463 / 2;
#X obj 352 482 mod 2;
#X obj 408 482 mod 2;
#X obj 464 482 mod 2;
#X obj 520 481 mod 2;
#X floatatom 374 528 5 0 0 0 b3 \$1-b3-set \$1-b3 0;
#X floatatom 567 528 5 0 0 0 b0 \$1-b0-set \$1-b0 0;
#X floatatom 502 529 5 0 0 0 b1 \$1-b1-set \$1-b1 0;
#X floatatom 437 529 5 0 0 0 b2 \$1-b2-set \$1-b2 0;
#X floatatom 308 528 5 0 0 0 b4 \$1-b4-set \$1-b4 0;
#X floatatom 243 529 5 0 0 0 b5 \$1-b5-set \$1-b5 0;
#X floatatom 178 529 5 0 0 0 b6 \$1-b6-set \$1-b6 0;
#X obj 240 461 / 2;
#X obj 184 462 / 2;
#X obj 128 462 / 2;
#X obj 128 481 mod 2;
#X obj 184 481 mod 2;
#X obj 240 481 mod 2;
#X obj 296 462 / 2;
#X obj 296 481 mod 2;
#X floatatom 115 528 5 0 0 0 b7 \$1-b7-set \$1-b7 0;
#X obj 469 167 f 0;
#X obj 503 191 + 1;
#X obj 503 210 mod 4;
#X obj 589 274 pow;
#X msg 575 255 2;
#X obj 589 236 t b f;
#X obj 668 376 loadbang;
#X floatatom 589 128 5 0 0 1 $_of_bits - - 0;
#X floatatom 550 392 0 0 0 0 - - - 0;
#X floatatom 509 392 0 0 0 0 - - - 0;
#X floatatom 550 328 0 0 0 0 - - - 0;
#X obj 550 346 t b f;
#X obj 509 373 div;
#X obj 550 373 mod;
#X obj 468 424 |, f 5;
#X floatatom 509 328 0 0 0 0 - - - 0;
#X obj 183 289 f 0;
#X obj 107 170 f 0;
#X obj 90 202 + 1;
#X obj 185 224 sel 0;
#X obj 133 224 mod 2;
#X floatatom 174 132 7 0 0 0 how_often_to_flip - - 0;
#X obj 157 271 bng 15 250 50 0 empty empty empty 17 7 0 10 #fcfcfc #000000 #000000;
#X text 69 308 flipping machine;
#N canvas 1278 128 505 325 flipping 0;
#X obj 153 102 + 1;
#X obj 196 132 - 2;
#X floatatom 113 200 5 0 0 0 - - - 0;
#X obj 153 174 v left;
#X obj 196 152 v left;
#X obj 153 80 inlet;
#X obj 113 219 outlet;
#X obj 153 132 mod 2;
#X obj 153 153 sel 0;
#X text 86 47 flip the lsb of the number in the inlet;
#X text 166 218 outlet new seed;
#X text 182 101 add 1 if number is even;
#X text 248 152 subtract 1 if number is odd;
#N canvas 798 113 632 468 copyrightInfo 0;
#X text 74 306 j.raski@gmail.com;
#X text 43 19 This program creates generative music on an electronic synthesiser. Copyright (C) 2019 Jerry Z. Raski This program is free software: you can redistribute it and/or modify it under the terms of the GNU General Public License as published by the Free Software Foundation \, either version 3 of the License \, or (at your option) any later version. This program is distributed in the hope that it will be useful \, but WITHOUT ANY WARRANTY \; without even the implied warranty of MERCHANTABILITY or FITNESS FOR A PARTICULAR PURPOSE. See the GNU General Public License for more details. You should have received a copy of the GNU General Public License along with this program. If not \, see <https://www.gnu.org/licenses/>.;
#X restore 29 279 pd copyrightInfo;
#X connect 0 0 1 0;
#X connect 0 0 2 0;
#X connect 0 0 7 0;
#X connect 1 0 4 0;
#X connect 2 0 6 0;
#X connect 3 0 2 0;
#X connect 5 0 0 0;
#X connect 7 0 8 0;
#X connect 8 0 3 0;
#X restore 192 316 pd flipping;
#X floatatom 478 256 5 0 0 0 - - - 0;
#X floatatom 528 237 5 0 0 0 - - - 0;
#X obj 526 255 t b f;
#X obj 509 288 f;
#X obj 509 308 <<;
#X text 398 152 clear ctr on flip;
#X text 450 192 bit ctr;
#X text 215 271 new seed;
#X text 616 275 2^n;
#X text 665 357 initial seed;
#X text 327 256 only shift on ctr chg;
#X text 337 309 shift seed left ctr bits;
#X text 68 231 flip ctr;
#X text 386 373 computes new seed;
#X obj 96 -18 inlet;
#X obj 408 588 * 4;
#X obj 520 590 * 1;
#X obj 464 589 * 2;
#X obj 500 624 +;
#X obj 470 647 +;
#X obj 432 871 outlet;
#X obj 352 588 * 8;
#X obj 296 588 * 16;
#X obj 241 588 * 32;
#X obj 185 588 * 64;
#X obj 128 588 * 128;
#X obj 445 674 +;
#X obj 416 698 +;
#X obj 383 724 +;
#X text 325 550 DAC conversion;
#X text 297 442 bit shifter visual;
#X obj 350 749 +;
#X obj 297 758 +;
#X obj 307 832 / 1;
#X text 425 814 output number 0-1;
#X obj 436 757 r go;
#X obj 400 789 tgl 15 0 empty empty empty 17 7 0 10 #fcfcfc #000000 #000000 0 1;
#X obj 319 795 spigot;
#X text 413 222 order of operation very important here;
#X floatatom 37 208 5 0 0 0 - - - 0;
#N canvas 798 113 632 468 copyrightInfo 0;
#X text 74 306 j.raski@gmail.com;
#X text 43 19 This program creates generative music on an electronic synthesiser. Copyright (C) 2019 Jerry Z. Raski This program is free software: you can redistribute it and/or modify it under the terms of the GNU General Public License as published by the Free Software Foundation \, either version 3 of the License \, or (at your option) any later version. This program is distributed in the hope that it will be useful \, but WITHOUT ANY WARRANTY \; without even the implied warranty of MERCHANTABILITY or FITNESS FOR A PARTICULAR PURPOSE. See the GNU General Public License for more details. You should have received a copy of the GNU General Public License along with this program. If not \, see <https://www.gnu.org/licenses/>.;
#X restore 22 836 pd copyrightInfo;
#X obj 248 -6 r reset;
#X obj 304 45 random 8;
#X floatatom 345 86 5 0 0 0 - - - 0;
#X obj 1107 266 s reset;
#X obj 1112 306;
#X obj 1045 462 r bits;
#X floatatom 1045 486 5 0 0 0 - - - 0;
#X obj 400 5 r range;
#X obj 596 29 r bits;
#X obj 82 70 bng 19 250 50 0 empty empty empty 0 -10 0 12 #fcfcfc #000000 #000000;
#X obj 24 -5 tgl 19 0 empty empty empty 0 -10 0 12 #fcfcfc #000000 #000000 0 1;
#X obj 128 500 s b7;
#X obj 655 598 setctl b7;
#X obj 652 575 setctl b6;
#X obj 655 555 setctl b5;
#X floatatom 261 863 5 0 0 0 - - - 0;
#X obj 295 87 s s;
#X obj 611 310 s range;
#X obj 668 416 s s;
#X obj 654 460 setctl b0;
#X obj 654 479 setctl b1;
#X obj 655 498 setctl b2;
#X obj 655 516 setctl b3;
#X obj 655 536 setctl b4;
#X obj 184 500 s b6;
#X obj 240 500 s b5;
#X obj 296 500 s b4;
#X obj 352 500 s b3;
#X obj 408 500 s b2;
#X obj 464 500 s b1;
#X obj 520 500 s b0;
#X obj 529 440 s news;
#X obj 247 248 r news;
#X obj 203 351 s s;
#X obj 168 77 r change;
#X obj 602 792 r range;
#X obj 128 570 r b7;
#X obj 187 569 r b6;
#X obj 241 570 r b5;
#X obj 296 570 r b4;
#X obj 352 570 r b3;
#X obj 408 570 r b2;
#X obj 465 570 r b1;
#X obj 520 570 r b0;
#X obj 261 910 int;
#X symbolatom -3 -16 10 0 0 0 - - - 0;
#X floatatom 255 954 5 0 0 0 - - - 0;
#X obj 332 936 noteout;
#X msg 358 906 127;
#X msg 1126 539 \; change 8 \;;
#X msg 1131 372 \; bits 6 \;;
#X msg 668 396 5;
#X msg 1135 594 \; news 9 \;;
#X msg 1137 647 \; news 2 \;;
#X msg 1139 449 \; range 1 \;;
#X floatatom 241 826 5 0 0 0 - - - 0;
#X msg 1250 449 \; range 0 \;;
#X msg 1241 504 \; range 1 \;;
#X msg 1219 370 \; bits 1 \;;
#X msg 1285 371 \; bits 2 \;;
#X msg 1322 496 \; range 127 \;;
#X msg 1297 718 \; random 127 \;;
#X msg 1133 713 \; reset 1 \;;
#X obj 1159 761 bng 19 250 50 0 empty empty empty 0 -10 0 12 #fcfcfc #000000 #000000;
#X obj 1159 785 s reset;
#X msg 1294 771 \; random 8 \;;
#X msg 1323 615 \; change 0.01 \;;
#X msg 1327 655 \; change 2 \;;
#X msg 1419 617 \; change 9 \;;
#X msg 265 46 0;
#X msg 517 98 -1;
#X obj 430 238 r s;
#X msg 1371 370 \; bits 127 \;;
#X floatatom 591 421 5 0 0 0 - - - 0;
#X obj 3 34 metro 111;
#X msg 1431 657 \; change 1 \;;
#X msg 1438 705 \; change 64 \;;
#X connect 0 0 1 0;
#X connect 0 0 7 0;
#X connect 1 0 2 0;
#X connect 1 0 6 0;
#X connect 2 0 3 0;
#X connect 2 0 5 0;
#X connect 3 0 4 0;
#X connect 3 0 21 0;
#X connect 4 0 117 0;
#X connect 5 0 118 0;
#X connect 6 0 119 0;
#X connect 7 0 120 0;
#X connect 15 0 16 0;
#X connect 15 0 20 0;
#X connect 16 0 17 0;
#X connect 16 0 19 0;
#X connect 17 0 18 0;
#X connect 18 0 101 0;
#X connect 19 0 114 0;
#X connect 20 0 115 0;
#X connect 21 0 22 0;
#X connect 21 0 15 0;
#X connect 22 0 116 0;
#X connect 24 0 25 0;
#X connect 25 0 26 0;
#X connect 26 0 24 1;
#X connect 26 0 50 0;
#X connect 27 0 34 0;
#X connect 27 0 107 0;
#X connect 28 0 27 0;
#X connect 29 0 28 0;
#X connect 29 0 27 0;
#X connect 29 1 27 1;
#X connect 30 0 141 0;
#X connect 31 0 29 0;
#X connect 31 0 26 1;
#X connect 32 0 38 0;
#X connect 33 0 38 1;
#X connect 34 0 35 0;
#X connect 35 0 36 0;
#X connect 35 0 37 0;
#X connect 35 1 36 1;
#X connect 35 1 37 1;
#X connect 36 0 33 0;
#X connect 37 0 32 0;
#X connect 38 0 0 0;
#X connect 38 0 121 0;
#X connect 38 0 163 0;
#X connect 39 0 36 0;
#X connect 39 0 37 0;
#X connect 40 0 48 0;
#X connect 41 0 42 0;
#X connect 41 0 43 0;
#X connect 41 0 88 0;
#X connect 42 0 44 0;
#X connect 43 0 40 0;
#X connect 43 0 46 0;
#X connect 43 0 160 0;
#X connect 44 0 41 1;
#X connect 45 0 44 1;
#X connect 48 0 123 0;
#X connect 49 0 52 1;
#X connect 50 0 51 0;
#X connect 51 0 52 0;
#X connect 51 1 53 1;
#X connect 52 0 53 0;
#X connect 53 0 39 0;
#X connect 63 0 99 0;
#X connect 64 0 68 1;
#X connect 65 0 67 0;
#X connect 66 0 67 1;
#X connect 67 0 68 0;
#X connect 68 0 75 0;
#X connect 70 0 75 1;
#X connect 71 0 76 1;
#X connect 72 0 77 1;
#X connect 73 0 80 1;
#X connect 74 0 81 1;
#X connect 75 0 76 0;
#X connect 76 0 77 0;
#X connect 77 0 80 0;
#X connect 80 0 81 0;
#X connect 81 0 86 0;
#X connect 82 0 69 0;
#X connect 82 0 105 0;
#X connect 84 0 85 0;
#X connect 85 0 86 1;
#X connect 86 0 82 0;
#X connect 86 0 145 0;
#X connect 90 0 40 0;
#X connect 90 0 160 0;
#X connect 90 0 159 0;
#X connect 90 0 91 0;
#X connect 91 0 92 0;
#X connect 91 0 106 0;
#X connect 95 0 96 0;
#X connect 97 0 91 1;
#X connect 98 0 31 0;
#X connect 99 0 41 0;
#X connect 99 0 24 0;
#X connect 100 0 164 0;
#X connect 105 0 134 0;
#X connect 122 0 40 1;
#X connect 124 0 45 0;
#X connect 125 0 82 1;
#X connect 126 0 74 0;
#X connect 127 0 73 0;
#X connect 128 0 72 0;
#X connect 129 0 71 0;
#X connect 130 0 70 0;
#X connect 131 0 64 0;
#X connect 132 0 66 0;
#X connect 133 0 65 0;
#X connect 134 0 136 0;
#X connect 134 0 137 0;
#X connect 138 0 137 1;
#X connect 141 0 108 0;
#X connect 153 0 154 0;
#X connect 159 0 41 1;
#X connect 160 0 24 1;
#X connect 161 0 49 0;
#X connect 164 0 99 0;
#X restore 864 746 pd turing;
#X obj 6 70 cntrl1;
#N canvas 790 215 450 300 utility 0;
#X obj 104 37 notein;
#X text 157 89 velocity;
#X text 168 63 channel;
#X text 154 36 (omni);
#X text 139 111 note;
#X floatatom 104 111 4 0 127 0 - - - 0;
#X floatatom 123 88 4 0 127 0 - - - 0;
#X floatatom 143 63 0 1 64 0 - - - 0;
#X connect 0 0 5 0;
#X connect 0 1 6 0;
#X connect 0 2 7 0;
#X coords 0 300 1 299 800 200 0;
#X restore 1813 12 pd utility;
#N canvas 15 49 1920 1026 clock 0;
#X floatatom 67 305 5 0 0 0 - - - 0;
#X msg 130 301 1;
#X obj 475 6 bng 40 250 50 0 empty empty empty 17 7 0 10 #ff0400 #000000 #000000;
#X obj 51 332 + 1;
#X obj 523 7 tgl 40 0 empty empty empty 17 7 0 10 #ff0400 #000000 #000000 0 1;
#X floatatom 271 357 5 0 0 0 - - - 0;
#X obj 267 400 s timeCount;
#X obj 104 261 metro 55, f 16;
#X obj 97 372 expr if($f1 < 64 \, $f1 \, 0);
#X obj 181 297 loadbang;
#X obj 23 372 s bang;
#X floatatom 536 302 5 0 0 0 - - - 0;
#X obj 166 11 hradio 30 1 0 10 empty empty \ 24\ 50\ 55\ 60\ 70\ 80\ 90100110200 0 22 0 16 #fcfcfc #000000 #000000 0;
#X floatatom 86 11 5 0 0 0 Speed - - 24;
#X msg 519 188 24;
#X msg 566 243 50;
#X msg 594 210 55;
#X msg 644 276 60;
#X msg 645 304 70;
#X msg 681 220 80;
#X msg 681 248 90;
#X msg 681 276 110;
#X obj 531 157 sel 0 1 2 3 4 5 6 7 8 9 10;
#X msg 681 304 100;
#X msg 784 254 200;
#X connect 0 0 3 0;
#X connect 1 0 0 0;
#X connect 2 0 0 0;
#X connect 2 0 10 0;
#X connect 3 0 8 0;
#X connect 4 0 7 0;
#X connect 5 0 3 1;
#X connect 5 0 6 0;
#X connect 7 0 2 0;
#X connect 8 0 5 0;
#X connect 9 0 1 0;
#X connect 11 0 13 0;
#X connect 12 0 22 0;
#X connect 13 0 7 1;
#X connect 14 0 11 0;
#X connect 15 0 11 0;
#X connect 16 0 11 0;
#X connect 17 0 11 0;
#X connect 18 0 11 0;
#X connect 19 0 11 0;
#X connect 20 0 11 0;
#X connect 21 0 11 0;
#X connect 22 0 14 0;
#X connect 22 1 15 0;
#X connect 22 2 16 0;
#X connect 22 3 17 0;
#X connect 22 4 18 0;
#X connect 22 5 19 0;
#X connect 22 6 20 0;
#X connect 22 7 23 0;
#X connect 22 8 21 0;
#X connect 22 9 24 0;
#X connect 23 0 11 0;
#X connect 24 0 11 0;
#X coords 0 -1 1 1 800 50 2 1 1;
#X restore 6 10 pd clock;
