#N canvas 0 0 494 561 12;
#X obj 166 236 f;
#X msg 166 173 0;
#X obj 34 129 t f b;
#X msg 166 285 set \$1;
#X msg 166 329 0;
#X obj 166 375 sel 0 1;
#X msg 223 173 1;
#X obj 303 247 t b f;
#X floatatom 303 353 5 0 0 0 - - -;
#X obj 252 132 / 100;
#X obj 303 291 *;
#X obj 191 417 pipe;
#X obj 34 185 metro 500;
#N canvas 0 0 458 308 bpm2ms 1;
#X obj 152 154 60000;
#X obj 152 199 /;
#X obj 152 105 t b f;
#X obj 152 41 inlet bpm;
#X obj 152 248 outlet ms;
#X connect 0 0 1 0;
#X connect 1 0 4 0;
#X connect 2 0 0 0;
#X connect 2 1 1 1;
#X connect 3 0 2 0;
#X restore 101 94 pd bpm2ms;
#X obj 180 28 inlet bpm;
#X obj 304 27 inlet swingAmount;
#X obj 166 477 outlet metroBang;
#X obj 34 28 inlet onOff;
#X connect 0 0 3 0;
#X connect 1 0 0 0;
#X connect 2 0 12 0;
#X connect 2 1 1 0;
#X connect 3 0 4 0;
#X connect 4 0 5 0;
#X connect 5 0 6 0;
#X connect 5 0 16 0;
#X connect 5 1 1 0;
#X connect 5 1 11 0;
#X connect 6 0 0 0;
#X connect 7 0 10 0;
#X connect 7 1 10 1;
#X connect 8 0 11 1;
#X connect 9 0 10 0;
#X connect 10 0 8 0;
#X connect 11 0 16 0;
#X connect 12 0 4 0;
#X connect 13 0 9 0;
#X connect 13 0 12 1;
#X connect 14 0 13 0;
#X connect 15 0 7 0;
#X connect 17 0 2 0;
