#N canvas 0 49 1920 1011 10;
#X floatatom 1 140 5 0 0 0 - - -, f 5;
#X obj -71 167 float;
#X obj -7 167 + 1;
#X floatatom -70 185 5 0 0 0 - - -, f 5;
#X obj -88 2 tgl 15 0 empty empty empty 17 7 0 10 -262144 -1 -1 0 127
;
#X obj 621 56 hradio 40 1 0 8 empty empty empty 0 -8 0 10 -262144 -1
-1 6;
#X obj -70 202 mod 8;
#X obj -73 152 metro 100;
#X obj 612 166 select 0 1 2 3 4 5 6 7;
#X obj 612 189 f;
#X obj 195 42 vsl 15 128 0 127 0 0 empty empty empty 0 -9 0 10 -262144
-1 -1 9029 1;
#X obj 639 189 f;
#X obj 233 45 vsl 15 128 0 127 0 0 empty empty empty 0 -9 0 10 -262144
-1 -1 10700 1;
#X obj 666 190 f;
#X obj 272 45 vsl 15 128 0 127 0 0 empty empty empty 0 -9 0 10 -262144
-1 -1 11600 1;
#X obj 694 191 f;
#X obj 312 44 vsl 15 128 0 127 0 0 empty empty empty 0 -9 0 10 -262144
-1 -1 6100 1;
#X obj 720 191 f;
#X obj 352 45 vsl 15 128 0 127 0 0 empty empty empty 0 -9 0 10 -262144
-1 -1 11500 1;
#X obj 745 190 f;
#X obj 392 46 vsl 15 128 0 127 0 0 empty empty empty 0 -9 0 10 -262144
-1 -1 0 1;
#X obj 771 190 f;
#X obj 432 44 vsl 15 128 0 127 0 0 empty empty empty 0 -9 0 10 -262144
-1 -1 0 1;
#X obj 797 189 f;
#X obj 470 46 vsl 22 128 0 127 0 0 empty empty empty 0 -9 0 10 -204800
-1 -1 0 1;
#X obj 834 425 osc~;
#X obj 865 468 dac~;
#X msg -20 60 \; pd dsp 1;
#X msg -85 60 \; pd dsp 0;
#X floatatom 194 177 5 0 0 0 - - -, f 5;
#X floatatom 233 177 5 0 0 0 - - -, f 5;
#X floatatom 272 177 5 0 0 0 - - -, f 5;
#X floatatom 312 177 5 0 0 0 - - -, f 5;
#X floatatom 352 177 5 0 0 0 - - -, f 5;
#X floatatom 391 177 5 0 0 0 - - -, f 5;
#X floatatom 429 177 5 0 0 0 - - -, f 5;
#X floatatom 469 177 5 0 0 0 - - -, f 5;
#X obj 12 290 vsl 15 128 0 127 0 0 empty empty empty 0 -9 0 10 -191407
-1 -1 5000 1;
#X obj 864 447 *~;
#X text -48 21 On/Off;
#X text -77 98 Velocidad;
#X text -61 249 Volumen;
#X text 497 72 Pitch;
#X msg -66 270 0 500;
#X obj -66 292 line;
#X floatatom -86 22 5 0 0 0 - - -, f 5;
#X obj -87 39 select 0 127;
#X obj -53 323 / 127;
#X floatatom -53 345 5 0 0 0 - - -, f 5;
#X obj -53 366 line;
#X msg -22 270 50 500;
#X obj 644 211 s midi_note;
#X obj 832 405 r midi_note;
#X obj -52 385 s volume;
#X obj 869 426 r volume;
#X obj 509 27 r prog_midi_note;
#X obj -65 6 s prog_on;
#X obj -72 132 r prog_on;
#X obj -71 224 s step_num;
#X obj 150 424 s prog_note;
#X obj 622 42 r step_num;
#N canvas 592 429 737 252 control 0;
#X floatatom 29 87 5 0 0 0 - - -, f 5;
#X obj 29 53 ctlin 102;
#X floatatom 92 87 5 0 0 0 - - -, f 5;
#X obj 92 53 ctlin 103;
#X floatatom 155 87 5 0 0 0 - - -, f 5;
#X floatatom 218 87 5 0 0 0 - - -, f 5;
#X floatatom 282 85 5 0 0 0 - - -, f 5;
#X floatatom 345 85 5 0 0 0 - - -, f 5;
#X floatatom 408 85 5 0 0 0 - - -, f 5;
#X floatatom 472 85 5 0 0 0 - - -, f 5;
#X obj 29 129 outlet;
#X obj 92 129 outlet;
#X obj 155 129 outlet;
#X obj 218 129 outlet;
#X obj 282 130 outlet;
#X obj 345 130 outlet;
#X obj 408 130 outlet;
#X obj 472 130 outlet;
#X obj 155 53 ctlin 104;
#X obj 218 53 ctlin 105;
#X obj 282 53 ctlin 106;
#X obj 345 53 ctlin 107;
#X obj 408 53 ctlin 108;
#X obj 472 53 ctlin 109;
#X floatatom 536 85 5 0 0 0 - - -, f 5;
#X obj 536 130 outlet;
#X floatatom 598 85 5 0 0 0 - - -, f 5;
#X obj 598 130 outlet;
#X obj 598 53 ctlin 111;
#X obj 536 53 ctlin 110;
#X connect 0 0 10 0;
#X connect 1 0 0 0;
#X connect 2 0 11 0;
#X connect 3 0 2 0;
#X connect 4 0 12 0;
#X connect 5 0 13 0;
#X connect 6 0 14 0;
#X connect 7 0 15 0;
#X connect 8 0 16 0;
#X connect 9 0 17 0;
#X connect 18 0 4 0;
#X connect 19 0 5 0;
#X connect 20 0 6 0;
#X connect 21 0 7 0;
#X connect 22 0 8 0;
#X connect 23 0 9 0;
#X connect 24 0 25 0;
#X connect 26 0 27 0;
#X connect 28 0 26 0;
#X connect 29 0 24 0;
#X restore 196 2 pd control midi potes;
#X obj 390 19 s sequence_step;
#X obj 1 120 r sequence_step;
#X obj 308 433 qlist;
#X msg 411 273 rewind;
#X msg 465 284 next;
#X floatatom 308 460 0 0 0 0 - - -;
#X msg 298 264 bang;
#X obj 663 407 r this;
#X obj 750 404 r that;
#X obj 663 421 print this;
#X obj 750 421 print that;
#X obj 370 470 print done;
#X msg 337 268 tempo 1;
#X msg 389 398 read qlist.txt;
#X msg 390 415 write /tmp/qlist.txt;
#X msg 444 331 clear;
#X msg 196 329 add 500 this is another message;
#X msg 194 352 add2 that;
#X msg 497 303 next 1;
#X msg 251 282 print;
#X connect 0 0 7 1;
#X connect 1 0 2 0;
#X connect 1 0 3 0;
#X connect 2 0 1 1;
#X connect 3 0 6 0;
#X connect 4 0 45 0;
#X connect 4 0 56 0;
#X connect 5 0 8 0;
#X connect 6 0 58 0;
#X connect 7 0 1 0;
#X connect 8 0 9 0;
#X connect 8 1 11 0;
#X connect 8 2 13 0;
#X connect 8 3 15 0;
#X connect 8 4 17 0;
#X connect 8 5 19 0;
#X connect 8 6 21 0;
#X connect 8 7 23 0;
#X connect 9 0 51 0;
#X connect 10 0 29 0;
#X connect 11 0 51 0;
#X connect 12 0 30 0;
#X connect 13 0 51 0;
#X connect 14 0 31 0;
#X connect 15 0 51 0;
#X connect 16 0 32 0;
#X connect 17 0 51 0;
#X connect 18 0 33 0;
#X connect 19 0 51 0;
#X connect 20 0 34 0;
#X connect 21 0 51 0;
#X connect 22 0 35 0;
#X connect 23 0 51 0;
#X connect 24 0 36 0;
#X connect 25 0 38 0;
#X connect 29 0 9 1;
#X connect 30 0 11 1;
#X connect 31 0 13 1;
#X connect 32 0 15 1;
#X connect 33 0 17 1;
#X connect 34 0 19 1;
#X connect 35 0 21 1;
#X connect 36 0 23 1;
#X connect 37 0 47 0;
#X connect 38 0 26 0;
#X connect 38 0 26 1;
#X connect 43 0 44 0;
#X connect 44 0 37 0;
#X connect 45 0 46 0;
#X connect 46 0 28 0;
#X connect 46 1 27 0;
#X connect 47 0 48 0;
#X connect 48 0 49 0;
#X connect 49 0 53 0;
#X connect 50 0 44 0;
#X connect 52 0 25 0;
#X connect 54 0 38 0;
#X connect 55 0 10 0;
#X connect 55 0 12 0;
#X connect 55 0 14 0;
#X connect 55 0 16 0;
#X connect 55 0 18 0;
#X connect 55 0 20 0;
#X connect 55 0 22 0;
#X connect 55 0 24 0;
#X connect 57 0 7 0;
#X connect 60 0 5 0;
#X connect 61 0 10 0;
#X connect 61 1 12 0;
#X connect 61 2 14 0;
#X connect 61 3 16 0;
#X connect 61 4 18 0;
#X connect 61 5 20 0;
#X connect 61 6 22 0;
#X connect 61 7 24 0;
#X connect 61 8 62 0;
#X connect 63 0 0 0;
#X connect 64 0 67 0;
#X connect 64 1 73 0;
#X connect 65 0 64 0;
#X connect 66 0 64 0;
#X connect 68 0 64 0;
#X connect 69 0 71 0;
#X connect 70 0 72 0;
#X connect 74 0 64 0;
#X connect 75 0 64 0;
#X connect 76 0 64 0;
#X connect 77 0 64 0;
#X connect 78 0 64 0;
#X connect 79 0 64 0;
#X connect 80 0 64 0;
#X connect 81 0 64 0;
