#N canvas 0 0 1906 998 10;
#X obj 564 417 loadbang;
#X obj 480 0 r knob1;
#X obj 539 170 change -1;
#X msg 553 623 1;
#X obj 19 475 r notes;
#X obj 40 719 pack 0 0 0;
#X obj 68 1123 throw~ outL;
#X obj 173 1121 throw~ outR;
#X obj 681 331 s screenLine1;
#X obj 450 243 soundfiler;
#X msg 552 712 0;
#X obj 668 401 s screenLine4;
#X obj 668 381 s screenLine3;
#X obj 137 984 delay5sec 5;
#X obj 534 1 r page1;
#X obj 162 -171 override;
#X obj 226 -171 override;
#X obj 487 56 override;
#X obj 60 806 route 1 2 3 4 5 6;
#X obj 2175 334 s page3;
#X obj 2211 298 tgl 15 0 empty empty empty 17 7 0 10 -262144 -1 -1
1 1;
#X obj 2050 117 r aux;
#X obj 2051 150 sel 1;
#X obj 2054 190 i 0;
#X obj 2100 185 + 1;
#X obj 2023 297 tgl 15 0 empty empty empty 17 7 0 10 -262144 -1 -1
0 1;
#X msg 2064 285 0;
#X msg 2016 267 1;
#X obj 2024 334 s page1;
#X obj 2112 307 tgl 15 0 empty empty empty 17 7 0 10 -262144 -1 -1
1 1;
#X msg 2151 280 0;
#X msg 2106 273 1;
#X obj 2104 334 s page2;
#X msg 2194 270 1;
#X msg 2239 267 0;
#X floatatom 1987 244 5 0 0 0 - - -;
#X msg 2277 268 1;
#X msg 2312 268 0;
#X obj 2291 298 tgl 15 0 empty empty empty 17 7 0 10 -262144 -1 -1
1 1;
#X obj 2244 333 s page4;
#X obj 1019 448 override;
#X obj 1125 444 override;
#X obj 1218 443 override;
#X obj 1298 446 override;
#X text 1157 344 Page 4!;
#X obj 141 -238 r knob2;
#X obj 221 -239 r knob3;
#X obj 1002 374 r knob1;
#X obj 1109 371 r knob2;
#X obj 1184 382 r knob3;
#X obj 1288 376 r knob4;
#X obj 211 200 s screenLine2;
#X obj 213 221 s screenLine3;
#X obj 213 243 s screenLine4;
#X obj 1301 683 s screenLine1;
#X obj 1303 703 s screenLine2;
#X obj 1299 726 s screenLine3;
#X obj 1299 748 s screenLine4;
#X obj 549 -200 sel 0;
#X obj 1363 460 sel 0;
#X floatatom 1045 551 5 0 0 0 - - -;
#X floatatom 1111 556 5 0 0 0 - - -;
#X floatatom 1161 557 5 0 0 0 - - -;
#X floatatom 1203 557 5 0 0 0 - - -;
#X obj 1941 306 s led;
#X obj 540 581 bng 15 250 50 0 empty empty empty 17 7 0 10 -262144
-1 -1;
#X obj 1107 476 * 750;
#X obj 1190 465 * 1;
#X obj 1346 504 * 3475;
#X msg 1296 589 1: Attack \$1 ms;
#X msg 1295 609 2: Decay \$1 ms;
#X msg 1295 626 3: Sustain: \$1 %;
#X msg 1297 648 4: Release \$1 ms;
#X text 187 643 Main note routing;
#X obj 969 574 s attack;
#X obj 1022 608 s decay;
#X obj 1099 598 s sustain;
#X obj 1165 623 s release;
#X msg 745 -10 12;
#X msg 776 -10 24;
#X msg 846 540 0.1;
#X msg 879 539 1;
#X msg 941 546 150;
#X msg 911 542 750;
#X msg 563 327 2;
#X msg 606 717 125;
#X msg 644 716 0.1;
#X obj 300 1041 r mix;
#X msg 515 474 100;
#X obj 119 945 grainmain;
#N canvas 0 0 1436 823 grainpage 0;
#X obj 31 -21 r knob1;
#X obj 160 -20 r knob2;
#X obj 391 -30 r knob4;
#X obj 174 6 override;
#X obj 305 5 override;
#X obj 400 -3 override;
#X obj 57 20 override;
#X obj 526 -2 sel 0;
#X floatatom 59 63 5 0 0 0 - - -;
#X floatatom 176 76 5 0 0 0 - - -;
#X obj 191 163 i;
#X obj 204 197 change -1;
#X msg 60 224 1: Grain Size \$1 ms;
#X obj 191 142 + 1;
#X obj -78 200 s grain-size;
#X obj 243 125 s density;
#X obj 192 118 * 100;
#X obj 232 91 + 0.01;
#X msg 206 222 2: Density \$1 %;
#X obj 275 -23 r knob3;
#X obj 375 126 i;
#X obj 375 151 change -1;
#X obj 375 101 * 4000;
#X obj 819 573 bng 15 250 50 0 empty empty empty 17 7 0 10 -262144
-1 -1;
#X obj 852 575 bng 15 250 50 0 empty empty empty 17 7 0 10 -262144
-1 -1;
#X msg 799 610 0;
#X msg 833 610 1;
#X floatatom 482 71 5 0 0 0 - - -;
#X obj 499 190 s wetdry;
#X floatatom 333 55 5 0 0 0 - - -;
#X msg 369 221 3: Grain Spread \$1 ms;
#X floatatom 18 178 5 0 0 0 - - -;
#X obj 693 397 sel 1;
#X obj 696 437 i 0;
#X obj 742 432 + 1;
#X floatatom 757 492 5 0 0 0 - - -;
#X msg 654 374 1;
#X obj 638 342 bng 15 250 50 0 empty empty empty 17 7 0 10 -262144
-1 -1;
#X obj 691 469 % 2;
#X obj 799 503 moses 1;
#X obj 561 348 moses 100;
#X obj 767 191 loadbang;
#X msg 768 227 1;
#X obj 741 299 s grain-size;
#X obj 853 298 s density;
#X obj 938 296 s loc;
#X obj 989 297 s wetdry;
#X msg 808 227 0;
#X obj 319 177 s loc;
#X obj 48 136 oknob 500 1;
#X obj 60 248 s screenLine1;
#X obj 206 248 s screenLine2;
#X obj 368 250 s screenLine3;
#X obj 805 696 s screenLine5;
#X obj 825 641 s freezeon;
#X obj 565 125 * 100;
#X obj 565 171 i;
#X obj 609 202 change -1;
#X obj 565 148 + 1;
#X obj 560 287 s screenLine4;
#X msg 565 243 4: Wet / Dry \$1 %;
#X floatatom 960 566 5 0 0 0 - - -;
#X obj 890 533 f \$1;
#X obj 966 596 moses 1;
#X obj 955 526 bng 15 250 50 0 empty empty empty 17 7 0 10 -262144
-1 -1;
#X obj 85 -21 r page6;
#X obj 215 -23 r page6;
#X obj 328 -24 r page6;
#X obj 440 -29 r page6;
#X obj 523 -26 r page6;
#X msg 769 656 ******;
#X msg 903 654 ****** Frozen;
#X connect 0 0 6 0;
#X connect 1 0 3 0;
#X connect 2 0 5 0;
#X connect 3 0 9 0;
#X connect 4 0 29 0;
#X connect 5 0 27 0;
#X connect 6 0 8 0;
#X connect 7 0 11 0;
#X connect 7 0 21 0;
#X connect 7 0 49 0;
#X connect 7 0 57 0;
#X connect 7 0 27 0;
#X connect 7 0 64 0;
#X connect 8 0 49 0;
#X connect 9 0 17 0;
#X connect 9 0 16 0;
#X connect 10 0 11 0;
#X connect 11 0 18 0;
#X connect 12 0 50 0;
#X connect 13 0 10 0;
#X connect 16 0 13 0;
#X connect 17 0 15 0;
#X connect 18 0 51 0;
#X connect 19 0 4 0;
#X connect 20 0 21 0;
#X connect 21 0 30 0;
#X connect 21 0 48 0;
#X connect 22 0 20 0;
#X connect 23 0 25 0;
#X connect 24 0 26 0;
#X connect 25 0 54 0;
#X connect 25 0 62 0;
#X connect 26 0 54 0;
#X connect 26 0 62 0;
#X connect 27 0 55 0;
#X connect 27 0 28 0;
#X connect 29 0 22 0;
#X connect 30 0 52 0;
#X connect 32 0 33 0;
#X connect 33 0 34 0;
#X connect 33 0 38 0;
#X connect 34 0 33 1;
#X connect 35 0 39 0;
#X connect 36 0 32 0;
#X connect 37 0 36 0;
#X connect 38 0 35 0;
#X connect 39 0 23 0;
#X connect 39 0 70 0;
#X connect 39 1 24 0;
#X connect 39 1 71 0;
#X connect 40 1 37 0;
#X connect 41 0 47 0;
#X connect 41 0 42 0;
#X connect 42 0 43 0;
#X connect 42 0 44 0;
#X connect 42 0 45 0;
#X connect 47 0 46 0;
#X connect 49 0 14 0;
#X connect 49 0 31 0;
#X connect 49 1 12 0;
#X connect 55 0 58 0;
#X connect 56 0 57 0;
#X connect 57 0 40 0;
#X connect 57 0 60 0;
#X connect 58 0 56 0;
#X connect 60 0 59 0;
#X connect 61 0 63 0;
#X connect 62 0 61 0;
#X connect 63 0 70 0;
#X connect 63 1 71 0;
#X connect 64 0 61 0;
#X connect 65 0 6 1;
#X connect 66 0 3 1;
#X connect 67 0 4 1;
#X connect 68 0 5 1;
#X connect 69 0 7 0;
#X connect 70 0 53 0;
#X connect 71 0 53 0;
#X restore 985 913 pd grainpage;
#X msg 2349 265 1;
#X msg 2384 264 0;
#X obj 2363 294 tgl 15 0 empty empty empty 17 7 0 10 -262144 -1 -1
1 1;
#X obj 2348 334 s page5;
#X obj 468 -59 s screenLine5;
#X obj 1400 522 s screenLine5;
#X msg 2415 263 1;
#X msg 2450 262 0;
#X obj 2429 292 tgl 15 0 empty empty empty 17 7 0 10 -262144 -1 -1
1 1;
#X obj 2414 332 s page6;
#N canvas 239 130 1436 823 lastpage 0;
#X obj 41 -11 r knob1;
#X obj 170 -10 r knob2;
#X obj 401 -20 r knob4;
#X obj 184 16 override;
#X obj 315 15 override;
#X obj 410 7 override;
#X obj 67 30 override;
#X obj 536 8 sel 0;
#X floatatom 69 73 5 0 0 0 - - -;
#X floatatom 189 72 5 0 0 0 - - -;
#X obj 285 -13 r knob3;
#X floatatom 545 151 5 0 0 0 - - -;
#X floatatom 414 128 5 0 0 0 - - -;
#X obj 38 228 s mainnote;
#X msg 40 179 0;
#X msg 74 180 1;
#X msg 120 186 0;
#X msg 150 182 1;
#X obj 152 227 s grainnote;
#X msg 111 273 1: GrainNote: \$1;
#X obj 129 303 s screenLine1;
#X obj 859 56 loadbang;
#X msg 901 84 0;
#X obj 854 122 s mainnote;
#X obj 940 125 s grainnote;
#N canvas 232 194 681 300 makeparms 0;
#X obj 99 27 inlet;
#X msg 48 139 0 0 -1;
#X obj 132 193 s vdpack;
#X msg 351 141 8 120 84;
#X msg 421 154 \$1 \$2 \$3;
#X obj 337 75 bng 15 250 50 0 empty empty empty 17 7 0 10 -262144 -1
-1;
#X obj 341 100 random 75;
#X obj 411 101 random 150;
#X obj 487 100 random 80;
#X obj 101 60 sel 0 1 2 3 4 5 6;
#X obj 419 127 pack f f f;
#X text 440 66 random setting ftw?;
#X msg 286 140 1.5 90 75;
#X msg 101 137 30 30 50;
#X msg 225 139 80 3 55;
#X msg 162 138 25 100 45;
#X connect 0 0 9 0;
#X connect 1 0 2 0;
#X connect 3 0 2 0;
#X connect 4 0 2 0;
#X connect 5 0 6 0;
#X connect 5 0 7 0;
#X connect 5 0 8 0;
#X connect 6 0 10 0;
#X connect 7 0 10 1;
#X connect 8 0 10 2;
#X connect 9 0 1 0;
#X connect 9 1 13 0;
#X connect 9 2 15 0;
#X connect 9 3 14 0;
#X connect 9 4 12 0;
#X connect 9 5 3 0;
#X connect 9 6 5 0;
#X connect 10 0 4 0;
#X connect 12 0 2 0;
#X connect 13 0 2 0;
#X connect 14 0 2 0;
#X connect 15 0 2 0;
#X restore 217 146 pd makeparms;
#X msg 241 180 2: VDelay Type: \$1;
#X obj 256 213 s screenLine2;
#X obj 62 115 oknob 2 0;
#X obj 67 146 sel 0 1;
#X obj 569 319 s screenLine4;
#X msg 858 84 1;
#X obj 613 186 * 0.5;
#X obj 628 216 s LFO4;
#X obj 191 112 oknob 8 0;
#X obj 95 -11 r page7;
#X obj 225 -13 r page7;
#X obj 338 -13 r page7;
#X obj 450 -19 r page7;
#X obj 533 -17 r page7;
#X obj 677 78 s screenLine5;
#X obj 414 163 * 1000;
#X obj 370 223 s phase;
#X msg 597 239 4: PhaseLFO \$1;
#X obj 425 219 s screenLine3;
#X msg 436 192 3: Phase: \$1;
#X msg 670 44 ******* GAME OVER;
#X connect 0 0 6 0;
#X connect 1 0 3 0;
#X connect 2 0 5 0;
#X connect 3 0 9 0;
#X connect 4 0 12 0;
#X connect 5 0 11 0;
#X connect 6 0 8 0;
#X connect 7 0 46 0;
#X connect 7 0 28 0;
#X connect 7 0 34 0;
#X connect 7 0 41 0;
#X connect 7 0 32 0;
#X connect 8 0 28 0;
#X connect 9 0 34 0;
#X connect 10 0 4 0;
#X connect 11 0 32 0;
#X connect 12 0 41 0;
#X connect 14 0 18 0;
#X connect 15 0 13 0;
#X connect 16 0 13 0;
#X connect 17 0 18 0;
#X connect 19 0 20 0;
#X connect 21 0 31 0;
#X connect 21 0 22 0;
#X connect 22 0 24 0;
#X connect 26 0 27 0;
#X connect 28 1 19 0;
#X connect 28 1 29 0;
#X connect 29 0 14 0;
#X connect 29 0 15 0;
#X connect 29 1 16 0;
#X connect 29 1 17 0;
#X connect 31 0 23 0;
#X connect 32 0 43 0;
#X connect 32 0 33 0;
#X connect 34 1 25 0;
#X connect 34 1 26 0;
#X connect 35 0 6 1;
#X connect 36 0 3 1;
#X connect 37 0 4 1;
#X connect 38 0 5 1;
#X connect 39 0 7 0;
#X connect 41 0 42 0;
#X connect 41 0 45 0;
#X connect 43 0 30 0;
#X connect 45 0 44 0;
#X connect 46 0 40 0;
#X restore 986 935 pd lastpage;
#X obj 37 611 spigot;
#X obj 120 554 tgl 15 0 empty empty empty 17 7 0 10 -262144 -1 -1 1
1;
#X obj 124 517 r mainnote;
#X obj 130 911 VD;
#X obj 183 874 r vdpack;
#N canvas 0 0 1436 823 delaypage 0;
#X obj 159 96 override;
#X obj 356 90 override;
#X obj 459 85 override;
#X obj 156 63 r knob1;
#X obj 286 126 r knob2;
#X obj 358 39 r knob3;
#X obj 462 37 r knob4;
#X msg 212 488 2: Delay Fbk: \$1 %;
#X msg 212 467 1: Delay Time: \$1 ms;
#X obj 143 184 i;
#X obj 136 229 change -1;
#X obj 256 176 * 0.9;
#X obj 300 158 * 90;
#X obj 299 188 i;
#X obj 305 212 change -1;
#X obj 36 94 sel 0;
#X obj 146 154 * 1500;
#X obj 260 98 override;
#X floatatom 197 265 5 0 0 0 - - -;
#X floatatom 251 266 5 0 0 0 - - -;
#X floatatom 302 264 5 0 0 0 - - -;
#X floatatom 352 265 5 0 0 0 - - -;
#X obj 165 296 s dtime;
#X obj 220 295 s dfbk;
#X text 313 38 comment;
#X obj 104 352 s screenLine5;
#X obj 187 559 s screenLine1;
#X obj 186 579 s screenLine2;
#X obj 186 597 s screenLine3;
#X obj 187 617 s screenLine4;
#X msg 98 317 *****;
#X obj 35 60 r page5;
#X obj 216 64 r page5;
#X obj 297 66 r page5;
#X obj 379 59 r page5;
#X obj 510 59 r page5;
#X msg 210 514 3: Delay Pan: \$1;
#X obj 274 297 s delaypan;
#X obj 349 153 oknob 4500 500;
#X obj 93 102 r dtimeS;
#X obj 206 128 r dfbkS;
#X msg 210 534 4: Delay Vol: \$1;
#X obj 399 323 s dlymix;
#X obj 468 129 oknob 1.8 0.1;
#X obj 665 59 loadbang;
#X msg 670 90 0.9;
#X connect 0 0 16 0;
#X connect 1 0 38 0;
#X connect 2 0 43 0;
#X connect 3 0 0 0;
#X connect 4 0 17 0;
#X connect 5 0 1 0;
#X connect 6 0 2 0;
#X connect 7 0 27 0;
#X connect 8 0 26 0;
#X connect 9 0 10 0;
#X connect 10 0 18 0;
#X connect 11 0 23 0;
#X connect 12 0 13 0;
#X connect 13 0 14 0;
#X connect 14 0 19 0;
#X connect 15 0 30 0;
#X connect 15 0 19 0;
#X connect 15 0 20 0;
#X connect 15 0 21 0;
#X connect 15 0 10 0;
#X connect 16 0 9 0;
#X connect 17 0 11 0;
#X connect 17 0 12 0;
#X connect 18 0 8 0;
#X connect 18 0 22 0;
#X connect 19 0 7 0;
#X connect 20 0 36 0;
#X connect 21 0 41 0;
#X connect 21 0 42 0;
#X connect 30 0 25 0;
#X connect 31 0 15 0;
#X connect 32 0 0 1;
#X connect 33 0 17 1;
#X connect 34 0 1 1;
#X connect 35 0 2 1;
#X connect 36 0 28 0;
#X connect 38 0 37 0;
#X connect 38 1 20 0;
#X connect 39 0 16 0;
#X connect 40 0 11 0;
#X connect 41 0 29 0;
#X connect 43 0 21 0;
#X connect 44 0 45 0;
#X connect 45 0 43 0;
#X restore 987 956 pd delaypage;
#X obj 186 939 r dtime;
#X obj 245 938 r dfbk;
#X obj 300 937 r dfilter;
#X obj 371 936 r dres;
#N canvas 6 50 612 483 crossfade 0;
#X obj 33 48 inlet~;
#X obj 211 67 inlet;
#X obj 39 327 outlet~;
#X obj 49 194 expr cos($f1 * 3.14159 / 2);
#X obj 244 194 expr sin($f1 * 3.14159 / 2);
#X obj 211 143 clip 0 1;
#N canvas 7 50 594 632 pan_core 0;
#X obj 21 106 inlet~;
#X obj 226 126 inlet;
#X obj 59 259 *~;
#X obj 123 303 outlet~;
#X obj 189 258 *~;
#X obj 205 234 line~;
#X obj 75 234 line~;
#X obj 96 127 inlet;
#X obj 179 104 inlet~;
#X text 223 350 comment;
#X obj 75 195 pack f 5;
#X obj 205 195 pack f 5;
#X text 202 346 Hans-Christoph Steiner \, 2004;
#X text 202 332 Adapted from [pan_core~];
#X connect 0 0 2 0;
#X connect 1 0 11 0;
#X connect 2 0 3 0;
#X connect 4 0 3 0;
#X connect 5 0 4 1;
#X connect 6 0 2 1;
#X connect 7 0 10 0;
#X connect 8 0 4 0;
#X connect 10 0 6 0;
#X connect 11 0 5 0;
#X restore 39 266 pd pan_core;
#X text 165 300 Adapted from [equal_power_pan~] \, Hans-Christoph Steiner
\, 2004;
#X text 320 312 comment;
#X obj 128 46 inlet~;
#X connect 0 0 6 0;
#X connect 1 0 5 0;
#X connect 3 0 6 1;
#X connect 4 0 6 3;
#X connect 5 0 3 0;
#X connect 5 0 4 0;
#X connect 6 0 2 0;
#X connect 9 0 6 2;
#X restore 76 1082 pd crossfade 1;
#N canvas 6 50 612 483 crossfade 0;
#X obj 33 48 inlet~;
#X obj 211 67 inlet;
#X obj 39 327 outlet~;
#X obj 49 194 expr cos($f1 * 3.14159 / 2);
#X obj 244 194 expr sin($f1 * 3.14159 / 2);
#X obj 211 143 clip 0 1;
#N canvas 7 50 594 632 pan_core 0;
#X obj 21 106 inlet~;
#X obj 226 126 inlet;
#X obj 59 259 *~;
#X obj 123 303 outlet~;
#X obj 189 258 *~;
#X obj 205 234 line~;
#X obj 75 234 line~;
#X obj 96 127 inlet;
#X obj 179 104 inlet~;
#X text 223 350 comment;
#X obj 75 195 pack f 5;
#X obj 205 195 pack f 5;
#X text 202 346 Hans-Christoph Steiner \, 2004;
#X text 202 332 Adapted from [pan_core~];
#X connect 0 0 2 0;
#X connect 1 0 11 0;
#X connect 2 0 3 0;
#X connect 4 0 3 0;
#X connect 5 0 4 1;
#X connect 6 0 2 1;
#X connect 7 0 10 0;
#X connect 8 0 4 0;
#X connect 10 0 6 0;
#X connect 11 0 5 0;
#X restore 39 266 pd pan_core;
#X text 165 300 Adapted from [equal_power_pan~] \, Hans-Christoph Steiner
\, 2004;
#X text 320 312 comment;
#X obj 128 46 inlet~;
#X connect 0 0 6 0;
#X connect 1 0 5 0;
#X connect 3 0 6 1;
#X connect 4 0 6 3;
#X connect 5 0 3 0;
#X connect 5 0 4 0;
#X connect 6 0 2 0;
#X connect 9 0 6 2;
#X restore 172 1080 pd crossfade 2;
#N canvas 725 150 450 437 LFO1 0;
#X obj 31 34 loadbang;
#X obj 53 155 osc~;
#X obj 52 195 snapshot~;
#X floatatom 56 226 5 0 0 0 - - -;
#X obj 53 320 hsl 128 15 0 1 0 0 empty empty empty -2 -8 0 10 -262144
-1 -1 0 1;
#X obj 122 137 metro 50;
#X obj 95 77 bng 15 250 50 0 empty empty empty 17 7 0 10 -262144 -1
-1;
#X msg 32 70 0;
#X obj 288 57 moses 0.01;
#X msg 197 86 0;
#X msg 342 114 1;
#X obj 255 81 bng 15 250 50 0 empty empty empty 17 7 0 10 -262144 -1
-1;
#X obj 338 81 bng 15 250 50 0 empty empty empty 17 7 0 10 -262144 -1
-1;
#X obj 69 292 expr ($f1 + 1) / 2;
#X floatatom 55 352 5 0 0 0 - - -;
#X obj 63 256 spigot;
#X obj 118 228 tgl 15 0 empty empty empty 17 7 0 10 -262144 -1 -1 0
1;
#X obj 288 29 r LFO1Speed;
#X obj 54 390 s LFO1Mod;
#X connect 0 0 6 0;
#X connect 0 0 7 0;
#X connect 1 0 2 0;
#X connect 2 0 3 0;
#X connect 3 0 15 0;
#X connect 4 0 14 0;
#X connect 5 0 2 0;
#X connect 6 0 5 0;
#X connect 7 0 1 0;
#X connect 8 0 11 0;
#X connect 8 1 12 0;
#X connect 8 1 1 0;
#X connect 9 0 1 0;
#X connect 9 0 4 0;
#X connect 10 0 16 0;
#X connect 11 0 9 0;
#X connect 11 0 16 0;
#X connect 12 0 10 0;
#X connect 13 0 4 0;
#X connect 14 0 18 0;
#X connect 15 0 13 0;
#X connect 16 0 15 1;
#X connect 17 0 8 0;
#X restore 984 840 pd LFO1;
#N canvas 912 549 450 409 LFO2 0;
#X obj 21 24 loadbang;
#X obj 43 145 osc~;
#X obj 42 185 snapshot~;
#X floatatom 46 216 5 0 0 0 - - -;
#X obj 43 310 hsl 128 15 0 1 0 0 empty empty empty -2 -8 0 10 -262144
-1 -1 0 1;
#X obj 112 127 metro 50;
#X obj 85 67 bng 15 250 50 0 empty empty empty 17 7 0 10 -262144 -1
-1;
#X msg 22 60 0;
#X obj 278 47 moses 0.01;
#X msg 187 76 0;
#X msg 332 104 1;
#X obj 245 71 bng 15 250 50 0 empty empty empty 17 7 0 10 -262144 -1
-1;
#X obj 328 71 bng 15 250 50 0 empty empty empty 17 7 0 10 -262144 -1
-1;
#X obj 59 282 expr ($f1 + 1) / 2;
#X floatatom 45 342 5 0 0 0 - - -;
#X obj 53 246 spigot;
#X obj 108 218 tgl 15 0 empty empty empty 17 7 0 10 -262144 -1 -1 0
1;
#X obj 44 380 s LFO2Mod;
#X obj 278 19 r LFO2Speed;
#X connect 0 0 6 0;
#X connect 0 0 7 0;
#X connect 1 0 2 0;
#X connect 2 0 3 0;
#X connect 3 0 15 0;
#X connect 4 0 14 0;
#X connect 5 0 2 0;
#X connect 6 0 5 0;
#X connect 7 0 1 0;
#X connect 8 0 11 0;
#X connect 8 1 12 0;
#X connect 8 1 1 0;
#X connect 9 0 1 0;
#X connect 9 0 4 0;
#X connect 10 0 16 0;
#X connect 11 0 9 0;
#X connect 11 0 16 0;
#X connect 12 0 10 0;
#X connect 13 0 4 0;
#X connect 14 0 17 0;
#X connect 15 0 13 0;
#X connect 16 0 15 1;
#X connect 18 0 8 0;
#X restore 983 864 pd LFO2;
#N canvas 351 0 843 939 LFOControl 0;
#X obj 35 103 s LFO1Speed;
#X floatatom 43 71 5 0 0 0 - - -;
#X floatatom 29 197 5 0 0 0 - - -;
#X obj 24 227 s LFO2Speed;
#X obj 49 41 hsl 128 15 0 1 0 0 empty empty empty -2 -8 0 10 -262144
-1 -1 0 1;
#X obj 39 174 hsl 128 15 0 6 0 0 empty empty empty -2 -8 0 10 -262144
-1 -1 0 1;
#X text 35 893 1 LFO will control autopan (leslie) speed 2 LFO will
control the filter sweep;
#X floatatom 244 71 5 0 0 0 - - -;
#X obj 243 42 r LFO1Mod;
#X floatatom 296 115 5 0 0 0 - - -;
#X floatatom 37 412 5 0 0 0 - - -;
#X floatatom 42 623 5 0 0 0 - - -;
#X obj 45 384 hsl 128 15 0 1 0 0 empty empty empty -2 -8 0 10 -262144
-1 -1 0 1;
#X obj 50 597 hsl 128 15 0 1 0 0 empty empty empty -2 -8 0 10 -262144
-1 -1 0 1;
#X floatatom 219 411 5 0 0 0 - - -;
#X obj 220 384 r LFO3Mod;
#X obj 190 599 r LFO4Mod;
#X obj 29 444 s LFO3Speed;
#X obj 37 653 s LFO4Speed;
#X floatatom 350 295 10 0 0 0 - - -;
#X obj 46 10 r LFO1;
#X obj 36 147 r LFO2;
#X obj 50 357 r LFO3;
#X obj 61 569 r LFO4;
#X obj 273 191 r LFO2Mod;
#X floatatom 285 220 5 0 0 0 - - -;
#X obj 287 251 expr (($f1 * 2000) + 100) - 1000;
#X obj 119 211 sel 0;
#X obj 165 240 bng 15 250 50 0 empty empty empty 17 7 0 10 -262144
-1 -1;
#X msg 205 252 0;
#X obj 388 348 s filterspeed;
#X obj 312 139 moses 0.004;
#X obj 405 178 s panspeed;
#X obj 263 94 * 15;
#X obj 520 38 cnv 15 100 60 empty empty empty 20 12 0 14 -233017 -66577
0;
#X floatatom 221 464 5 0 0 0 - - -;
#X obj 303 485 * 100;
#X floatatom 351 546 5 0 0 0 - - -;
#X obj 331 514 * -1;
#X obj 206 503 s dfiltmod;
#X obj 353 581 s dresmod;
#X obj 218 437 expr (($f1 * 2) - 1) * 0.2;
#X obj 229 683 s phase;
#X obj 210 627 * 400;
#X obj 223 652 + 350;
#X connect 1 0 0 0;
#X connect 2 0 3 0;
#X connect 2 0 27 0;
#X connect 4 0 1 0;
#X connect 5 0 2 0;
#X connect 7 0 33 0;
#X connect 8 0 7 0;
#X connect 9 0 31 0;
#X connect 10 0 17 0;
#X connect 11 0 18 0;
#X connect 12 0 10 0;
#X connect 13 0 11 0;
#X connect 14 0 41 0;
#X connect 15 0 14 0;
#X connect 16 0 43 0;
#X connect 19 0 30 0;
#X connect 20 0 4 0;
#X connect 21 0 5 0;
#X connect 22 0 12 0;
#X connect 23 0 13 0;
#X connect 24 0 25 0;
#X connect 25 0 26 0;
#X connect 26 0 19 0;
#X connect 27 0 28 0;
#X connect 28 0 29 0;
#X connect 29 0 19 0;
#X connect 31 1 32 0;
#X connect 33 0 9 0;
#X connect 35 0 36 0;
#X connect 35 0 39 0;
#X connect 36 0 38 0;
#X connect 37 0 40 0;
#X connect 38 0 37 0;
#X connect 41 0 35 0;
#X connect 43 0 44 0;
#X connect 44 0 42 0;
#X restore 983 889 pd LFOControl;
#N canvas 224 252 1428 815 LFO3 0;
#X obj 31 34 loadbang;
#X obj 52 195 snapshot~;
#X floatatom 56 226 5 0 0 0 - - -;
#X obj 53 320 hsl 128 15 0 1 0 0 empty empty empty -2 -8 0 10 -262144
-1 -1 0 1;
#X obj 122 137 metro 50;
#X obj 95 77 bng 15 250 50 0 empty empty empty 17 7 0 10 -262144 -1
-1;
#X msg 32 70 0;
#X obj 288 57 moses 0.01;
#X msg 197 86 0;
#X msg 342 114 1;
#X obj 255 81 bng 15 250 50 0 empty empty empty 17 7 0 10 -262144 -1
-1;
#X obj 338 81 bng 15 250 50 0 empty empty empty 17 7 0 10 -262144 -1
-1;
#X floatatom 55 352 5 0 0 0 - - -;
#X obj 63 256 spigot;
#X obj 118 228 tgl 15 0 empty empty empty 17 7 0 10 -262144 -1 -1 0
1;
#X obj 54 390 s LFO3Mod;
#X obj 288 29 r LFO3Speed;
#X obj 53 155 osc~;
#X obj 69 292 expr ($f1 + 1) / 2;
#X connect 0 0 5 0;
#X connect 0 0 6 0;
#X connect 1 0 2 0;
#X connect 2 0 13 0;
#X connect 3 0 12 0;
#X connect 4 0 1 0;
#X connect 5 0 4 0;
#X connect 6 0 17 0;
#X connect 7 0 10 0;
#X connect 7 1 11 0;
#X connect 7 1 17 0;
#X connect 8 0 3 0;
#X connect 8 0 17 0;
#X connect 9 0 14 0;
#X connect 10 0 8 0;
#X connect 10 0 14 0;
#X connect 11 0 9 0;
#X connect 12 0 15 0;
#X connect 13 0 18 0;
#X connect 14 0 13 1;
#X connect 16 0 7 0;
#X connect 17 0 1 0;
#X connect 18 0 3 0;
#X restore 1044 839 pd LFO3;
#N canvas 0 0 1914 990 LFO4 0;
#X obj 41 44 loadbang;
#X obj 62 205 snapshot~;
#X floatatom 66 236 5 0 0 0 - - -;
#X obj 63 330 hsl 128 15 0 1 0 0 empty empty empty -2 -8 0 10 -262144
-1 -1 0 1;
#X obj 132 147 metro 50;
#X obj 105 87 bng 15 250 50 0 empty empty empty 17 7 0 10 -262144 -1
-1;
#X msg 42 80 0;
#X obj 298 67 moses 0.01;
#X msg 207 96 0;
#X msg 352 124 1;
#X obj 265 91 bng 15 250 50 0 empty empty empty 17 7 0 10 -262144 -1
-1;
#X obj 348 91 bng 15 250 50 0 empty empty empty 17 7 0 10 -262144 -1
-1;
#X obj 79 302 expr ($f1 + 1) / 2;
#X floatatom 65 362 5 0 0 0 - - -;
#X obj 73 266 spigot;
#X obj 128 238 tgl 15 0 empty empty empty 17 7 0 10 -262144 -1 -1 0
1;
#X obj 298 39 r LFO4Speed;
#X obj 64 400 s LFO4Mod;
#X obj 63 165 osc~;
#X connect 0 0 5 0;
#X connect 0 0 6 0;
#X connect 1 0 2 0;
#X connect 2 0 14 0;
#X connect 3 0 13 0;
#X connect 4 0 1 0;
#X connect 5 0 4 0;
#X connect 6 0 18 0;
#X connect 7 0 10 0;
#X connect 7 1 11 0;
#X connect 7 1 18 0;
#X connect 8 0 3 0;
#X connect 8 0 18 0;
#X connect 9 0 15 0;
#X connect 10 0 8 0;
#X connect 10 0 15 0;
#X connect 11 0 9 0;
#X connect 12 0 3 0;
#X connect 13 0 17 0;
#X connect 14 0 12 0;
#X connect 15 0 14 1;
#X connect 16 0 7 0;
#X connect 18 0 1 0;
#X restore 1044 864 pd LFO4;
#N canvas 0 0 450 300 (subpatch) 0;
#X array array1 1027 float 3;
#A 0 0.0373535 0.139984 0.114349 0.127686 0.121033 0.123199 0.123718
0.121063 0.125122 0.120544 0.125153 0.121033 0.124207 0.122467 0.121674
0.125854 0.117615 0.132263 0.105438 0.214081 0.251038 0.245331 0.244476
0.248169 0.243622 0.247589 0.244659 0.246368 0.245697 0.245819 0.245605
0.246552 0.244354 0.248199 0.242767 0.249329 0.243134 0.24649 0.254608
0.381958 0.35965 0.375214 0.364136 0.37149 0.36731 0.369049 0.369629
0.367157 0.370819 0.366272 0.371246 0.366455 0.370483 0.36853 0.367035
0.373749 0.35495 0.426758 0.506744 0.485596 0.494171 0.491211 0.490356
0.493652 0.489319 0.49411 0.48941 0.493469 0.490417 0.49176 0.492645
0.489349 0.495911 0.485352 0.500946 0.476807 0.600555 0.615692 0.616455
0.611084 0.618134 0.611298 0.617249 0.61261 0.615753 0.614532 0.61377
0.61618 0.611938 0.617859 0.610779 0.618591 0.611572 0.615509 0.622711
0.751892 0.728577 0.743866 0.733124 0.740265 0.735992 0.737518 0.738342
0.735962 0.739532 0.735016 0.73999 0.735168 0.738922 0.737183 0.735901
0.743256 0.723907 0.794495 0.875671 0.854187 0.863037 0.859833 0.859192
0.862335 0.858063 0.862854 0.858154 0.862274 0.859406 0.860565 0.861328
0.858124 0.864685 0.854034 0.869843 0.845184 0.968628 0.98468 0.985718
0.980347 0.986145 0.981018 0.984833 0.982513 0.983582 0.983307 0.983459
0.982697 0.984741 0.981049 0.986328 0.980072 0.986237 0.982147 0.97171
0.8461 0.869354 0.853912 0.864868 0.857513 0.861969 0.860321 0.859589
0.861908 0.858215 0.862854 0.85788 0.862518 0.858917 0.860779 0.861847
0.854797 0.873749 0.804413 0.723083 0.743835 0.734741 0.737579 0.738617
0.735596 0.739929 0.735016 0.739746 0.735596 0.738525 0.737274 0.736633
0.740021 0.733307 0.743713 0.728363 0.752777 0.630188 0.614471 0.612122
0.617889 0.611084 0.617859 0.611847 0.616608 0.613586 0.614716 0.615265
0.612793 0.617126 0.611298 0.618256 0.610809 0.617859 0.613098 0.603638
0.477783 0.500397 0.485291 0.496094 0.488739 0.492889 0.491516 0.490906
0.493347 0.489502 0.49411 0.489105 0.493835 0.490082 0.492126 0.493683
0.486206 0.504791 0.430817 0.354156 0.375214 0.366547 0.368927 0.369812
0.366913 0.371155 0.366272 0.371033 0.367004 0.369843 0.368469 0.367584
0.371216 0.364624 0.374939 0.359558 0.384216 0.262268 0.245453 0.24353
0.249054 0.242188 0.249115 0.243103 0.247681 0.244781 0.246033 0.24646
0.24408 0.248352 0.242584 0.249542 0.241974 0.249237 0.245605 0.235657
0.109314 0.131989 0.116547 0.127411 0.119965 0.124207 0.122711 0.122223
0.124573 0.120789 0.125366 0.120453 0.125153 0.121277 0.122955 0.124847
0.117554 0.135956 0.0628662 -0.0144958 0.00631714 -0.00210571 0.000244141
0.000762939 -0.00134277 0.00119019 -0.000823975 0.000335693 6.10352e-005
-0.000244141 0.00012207 0.000549316 -0.00143433 0.00262451 -0.00421143
0.00576782 -0.00772095 0.00915527 -0.121429 -0.119507 -0.127838 -0.118347
-0.126862 -0.119751 -0.124969 -0.121765 -0.123169 -0.123779 -0.121307
-0.125183 -0.120026 -0.126068 -0.119781 -0.124939 -0.12262 -0.119019
-0.145111 -0.262939 -0.236481 -0.25174 -0.242554 -0.247437 -0.245514
-0.244812 -0.247498 -0.243713 -0.248199 -0.2435 -0.247864 -0.244354
-0.245941 -0.247223 -0.242188 -0.253845 -0.229309 -0.320679 -0.378754
-0.365356 -0.369232 -0.370361 -0.366425 -0.371368 -0.366119 -0.371033
-0.366943 -0.369904 -0.368713 -0.367828 -0.370758 -0.365234 -0.373535
-0.362488 -0.376862 -0.35907 -0.489563 -0.488525 -0.496429 -0.487183
-0.495544 -0.488647 -0.493744 -0.490448 -0.491669 -0.492462 -0.490082
-0.493896 -0.48877 -0.494843 -0.488495 -0.493805 -0.49118 -0.488037
-0.518097 -0.631592 -0.605194 -0.620209 -0.611206 -0.616241 -0.614197
-0.613617 -0.616211 -0.612488 -0.616943 -0.612244 -0.616638 -0.613373
-0.614746 -0.615875 -0.610413 -0.622498 -0.598175 -0.688416 -0.747742
-0.733917 -0.738098 -0.739014 -0.735199 -0.740082 -0.734863 -0.739777
-0.735657 -0.738403 -0.737396 -0.736633 -0.739441 -0.734009 -0.742279
-0.731201 -0.744995 -0.727417 -0.857635 -0.856201 -0.865051 -0.855957
-0.864288 -0.857361 -0.862549 -0.859161 -0.860474 -0.861145 -0.858856
-0.862793 -0.857513 -0.863617 -0.857452 -0.862671 -0.859741 -0.855316
-0.886108 -0.999969 -0.974365 -0.988495 -0.980408 -0.98465 -0.983276
-0.98288 -0.983826 -0.983063 -0.983093 -0.983978 -0.982422 -0.9841
-0.983124 -0.9823 -0.986969 -0.975891 -0.999268 -0.904938 -0.849731
-0.864197 -0.860382 -0.858948 -0.86264 -0.857666 -0.863037 -0.858063
-0.862244 -0.859436 -0.860565 -0.861206 -0.858185 -0.863831 -0.855652
-0.866516 -0.852753 -0.87085 -0.737244 -0.741455 -0.732941 -0.741882
-0.733582 -0.74054 -0.735291 -0.738495 -0.737366 -0.736786 -0.739197
-0.735138 -0.740356 -0.734283 -0.740448 -0.735138 -0.738281 -0.742188
-0.71286 -0.597717 -0.623871 -0.608795 -0.618073 -0.61319 -0.614685
-0.615417 -0.613037 -0.61676 -0.612183 -0.616943 -0.61264 -0.615875
-0.614227 -0.612915 -0.6185 -0.606873 -0.631378 -0.536957 -0.480865
-0.495575 -0.491516 -0.490295 -0.493835 -0.488953 -0.494293 -0.489319
-0.493347 -0.490631 -0.491882 -0.492737 -0.489502 -0.495026 -0.486908
-0.497803 -0.483887 -0.502502 -0.36911 -0.372498 -0.364288 -0.373322
-0.364838 -0.371826 -0.36676 -0.369781 -0.368561 -0.368073 -0.370422
-0.366394 -0.371613 -0.365601 -0.371796 -0.366272 -0.368744 -0.373199
-0.344849 -0.228882 -0.254761 -0.240479 -0.248901 -0.24469 -0.245941
-0.246246 -0.245178 -0.246246 -0.245819 -0.245422 -0.24649 -0.245178
-0.245819 -0.246826 -0.243286 -0.250702 -0.236969 -0.262848 -0.154083
-0.117798 -0.123291 -0.124542 -0.119995 -0.126007 -0.119995 -0.125305
-0.121155 -0.123962 -0.12265 -0.121979 -0.124786 -0.120087 -0.126801
-0.118256 -0.128143 -0.118683 -0.123871 0.00753784 -0.00747681 0.00604248
-0.00482178 0.00366211 -0.00228882 0.00119019 -0.000244141 -0.000915527
0.00161743 -0.00216675 0.00262451 -0.00274658 0.00259399 -0.0015564
0.00012207 0.00253296 -0.00863647 0 0 0 0 0 0 0 0 0 0 0 0 0 0 0 0 0
0 0 0 0 0 0 0 0 0 0 0 0 0 0 0 0 0 0 0 0 0 0 0 0 0 0 0 0 0 0 0 0 0 0
0 0 0 0 0 0 0 0 0 0 0 0 0 0 0 0 0 0 0 0 0 0 0 0 0 0 0 0 0 0 0 0 0 0
0 0 0 0 0 0 0 0 0 0 0 0 0 0 0 0 0 0 0 0 0 0 0 0 0 0 0 0 0 0 0 0 0 0
0 0 0 0 0 0 0 0 0 0 0 0 0 0 0 0 0 0 0 0 0 0 0 0 0 0 0 0 0 0 0 0 0 0
0 0 0 0 0 0 0 0 0 0 0 0 0 0 0 0 0 0 0 0 0 0 0 0 0 0 0 0 0 0 0 0 0 0
0 0 0 0 0 0 0 0 0 0 0 0 0 0 0 0 0 0 0 0 0 0 0 0 0 0 0 0 0 0 0 0 0 0
0 0 0 0 0 0 0 0 0 0 0 0 0 0 0 0 0 0 0 0 0 0 0 0 0 0 0 0 0 0 0 0 0 0
0 0 0 0 0 0 0 0 0 0 0 0 0 0 0 0 0 0 0 0 0 0 0 0 0 0 0 0 0 0 0 0 0 0
0 0 0 0 0 0 0 0 0 0 0 0 0 0 0 0 0 0 0 0 0 0 0 0 0 0 0 0 0 0 0 0 0 0
0 0 0 0 0 0 0 0 0 0 0 0 0 0 0 0 0 0 0 0 0 0 0 0 0 0 0 0 0 0 0 0 0 0
0 0 0 0 0 0 0 0 0 0 0 0 0 0 0 0 0 0 0 0 0 0 0 0 0 0 0 0 0 0 0 0 0 0
0 0 0 0 0 0 0 0 0;
#A 1000 0 0 0 0 0 0 0 0 0 0 0 0 0 0 0 0 0 0 0 0 0 0 0 0 0 0 0;
#X coords 0 1 1027 -1 200 140 1 0 0;
#X restore 1100 33 graph;
#X obj 1347 537 + 0.7;
#X obj 1951 273 + 1;
#X obj 2015 213 % 7;
#X obj 2163 138 sel 0 1 2 3 4 5 6;
#X msg 2486 261 1;
#X msg 2521 260 0;
#X obj 2500 290 tgl 15 0 empty empty empty 17 7 0 10 -262144 -1 -1
1 1;
#X obj 2485 330 s page7;
#X msg 449 215 read ./wavs/0\$1.wav array1;
#X msg 583 687 3000;
#X obj 587 747 sig~;
#X obj 596 773 s~ startcutoff;
#X obj 562 808 s startmix;
#X msg 217 103 2: Vibe Rate: \$1;
#X msg 222 128 3: Vibe Depth: \$1;
#X obj 162 -81 sig~;
#X obj 162 -58 lop~ 5;
#X obj 158 -41 s~ smoothKnob2;
#X obj 257 -77 sig~;
#X obj 257 -55 lop~ 5;
#X obj 239 15 s~ smoothKnob3;
#X floatatom 161 -121 5 0 0 0 - - -;
#X floatatom 233 -122 5 0 0 0 - - -;
#X obj 181 33 oknob 100 0;
#X obj 259 39 oknob 100 0;
#X text 783 743 comment;
#X msg 677 225 1: WaveForm: \$1.wav;
#X obj 177 -100 * 0.75;
#X obj 253 -100 * 0.75;
#X obj 20 -118 override;
#X floatatom 19 -87 5 0 0 0 - - -;
#X obj 27 -46 oknob 600 0;
#X obj 39 -8 s port;
#X msg 205 79 1: Portamento: \$1;
#X obj 213 177 s screenLine1;
#X obj 5 -159 r knob1;
#X msg 233 151 4: Reverb: \$1;
#X obj 322 -226 r knob4;
#X obj 329 -184 override;
#X obj 344 -118 i;
#X obj 338 -81 change -1;
#X obj 409 -51 s mix;
#X obj 441 -127 r startmix;
#X obj 646 -170 override;
#X obj 646 -86 change -1;
#X obj 644 -106 i;
#X floatatom 668 52 5 0 0 0 - - -;
#X obj 709 93 s octave;
#X msg 614 -19 -36;
#X msg 644 -12 -24;
#X msg 708 -11 0;
#X msg 676 -11 -12;
#X obj 649 -128 * 6;
#X obj 635 -52 sel 0 1 2 3 4 5;
#X obj 620 -207 r knob2;
#X obj 680 -205 r page1;
#X msg 677 250 2: Note Shift: \$1;
#X obj 672 354 s screenLine2;
#X floatatom 848 -6 5 0 0 0 - - -;
#X obj 808 -64 + 100;
#X obj 919 -27 * 4;
#X obj 961 -17 * 100;
#X obj 971 6 i;
#X obj 985 40 change -1;
#X obj 787 -155 override;
#X obj 872 -159 override;
#X obj 745 -197 r knob3;
#X obj 858 -200 r knob4;
#X obj 809 -200 r page1;
#X obj 920 -199 r page1;
#X msg 698 278 3: Filter: \$1;
#X msg 698 303 4: Resonance: \$1;
#X obj 368 -222 r page2;
#X obj 550 -228 r page2;
#X msg 464 -82 **;
#X obj 234 -193 r page2;
#X obj 179 -195 r page2;
#X obj 59 -156 r page2;
#X obj 1024 400 r page3;
#X msg 1400 498 ***;
#X obj 1374 438 r page3;
#X obj 1128 418 r page3;
#X obj 1219 414 r page3;
#X obj 1311 418 r page3;
#X obj 978 520 + 0.05;
#X obj 978 485 * 750;
#X msg 502 746 s port;
#X obj 424 -79 * 0.5;
#X obj 1021 -216 r page1;
#X obj 1020 -148 sel 0;
#X msg 1036 -122 *;
#X obj 1081 -20 s screenLine5;
#X obj 38 654 spigot 1;
#X obj 111 655 spigot 0;
#X obj 121 728 pack 0 0 0;
#X obj 97 607 r poly;
#X obj 157 626 r mono;
#X obj 211 753 s thenote;
#X obj 295 753 r notearp;
#N canvas 0 0 1640 960 Arp 0;
#X obj 170 313 sel 1;
#X floatatom 180 423 5 0 0 0 - - -;
#X msg 169 270 1;
#X obj 212 340 + 1;
#X obj 173 343 i 0;
#X obj 172 397 + 1;
#X floatatom 239 577 5 0 0 0 - - -;
#X obj 232 662 pack 0 0 0;
#X obj 249 539 bng 15 250 50 0 empty empty empty 17 7 0 10 -262144
-1 -1;
#X obj 483 364 i;
#X obj 277 539 bng 15 250 50 0 empty empty empty 17 7 0 10 -262144
-1 -1;
#X obj 301 540 bng 15 250 50 0 empty empty empty 17 7 0 10 -262144
-1 -1;
#X obj 324 538 bng 15 250 50 0 empty empty empty 17 7 0 10 -262144
-1 -1;
#X floatatom 283 578 5 0 0 0 - - -;
#X floatatom 327 578 5 0 0 0 - - -;
#X floatatom 364 579 5 0 0 0 - - -;
#X floatatom 247 74 5 0 0 0 - - -;
#X obj 246 49 hsl 128 15 1000 50 0 0 empty empty empty -2 -8 0 10 -262144
-1 -1 12700 1;
#X msg 150 503 1;
#X obj 172 186 tgl 15 0 empty empty empty 17 7 0 10 -262144 -1 -1 0
1;
#X obj 246 26 r speed;
#X obj 142 111 unpack f f f;
#X obj 123 27 r thenote;
#X obj 166 158 > 1;
#X obj 229 721 spigot;
#X obj 281 690 tgl 15 0 empty empty empty 17 7 0 10 -262144 -1 -1 0
1;
#X obj 309 672 r arpon;
#X obj 223 759 s notearp;
#X obj 461 430 + \$1;
#X obj 498 430 + \$1;
#X obj 531 429 + \$1;
#X obj 625 354 unpack f f f;
#X floatatom 625 108 5 0 0 0 - - -;
#X msg 628 273 -12 7 12;
#X msg 817 274 7 10 12;
#X obj 622 82 r arptype;
#X msg 690 274 -24 -12 12;
#X obj 170 246 bng 15 250 50 0 empty empty empty 17 7 0 10 -262144
-1 -1;
#X obj 209 490 route 1 2 3 4;
#X obj 172 372 % 4;
#X msg 1158 383 \; screenLine3 3: Minor \;;
#X msg 1183 415 \; screenLine3 3: Maj \;;
#X msg 1187 450 \; screenLine3 3: Oct5th \;;
#X msg 1213 485 \; screenLine3 3: Octs \;;
#X msg 1237 522 \; screenLine3 3: Maj7 \;;
#X msg 1254 556 \; screenLine3 3: Min7 \;;
#X msg 1253 595 \; screenLine3 3: DownMajor \;;
#X msg 1257 671 \; screenLine3 3: 5th-y \;;
#X text 854 101 Edit as you see fit;
#X msg 1258 632 \; screenLine3 3: DownMinor \;;
#X text 353 89 ONLY for Mono mode;
#X obj 121 694 unpack f f f;
#X floatatom 61 728 5 0 0 0 - - -;
#X floatatom 104 748 5 0 0 0 - - -;
#X floatatom 157 748 5 0 0 0 - - -;
#X floatatom 375 299 5 0 0 0 - - -;
#X floatatom 263 350 5 0 0 0 - - -;
#X obj 171 216 metro 250;
#X msg 938 276 -7 -4 -12;
#X msg 1273 787 \; screenLine3 3: Min2 \;;
#X msg 1286 823 \; screenLine3 3: Maj2 \;;
#X obj 625 133 sel 0 1 2 3 4 5 6 7 8 9 10 11 12 13 14 15 16;
#X msg 1296 861 \; screenLine3 3: Aug \;;
#X msg 1296 896 \; screenLine3 3: Arabic \;;
#X msg 1324 272 8 12 20;
#X msg 523 274 3 7 12;
#X msg 577 274 4 7 12;
#X msg 871 275 12 7 5;
#X msg 1270 272 16 7 -1;
#X msg 1211 273 7 15 12;
#X floatatom 341 491 5 0 0 0 - - -;
#X floatatom 381 494 5 0 0 0 - - -;
#X floatatom 414 491 5 0 0 0 - - -;
#X floatatom 458 489 5 0 0 0 - - -;
#X obj 453 281 bng 15 250 50 0 empty empty empty 17 7 0 10 -262144
-1 -1;
#X msg 1129 275 12 0 12;
#X msg 1383 272 1 4 7;
#X msg 1008 276 7 0 -7;
#X msg 1264 749 \; screenLine3 3: UpDwnOct \;;
#X msg 1264 710 \; screenLine3 3: Dom7 \;;
#X msg 1070 275 7 10 4;
#X msg 764 275 11 7 4;
#X connect 0 0 4 0;
#X connect 1 0 38 0;
#X connect 1 0 18 0;
#X connect 2 0 0 0;
#X connect 3 0 4 1;
#X connect 4 0 3 0;
#X connect 4 0 39 0;
#X connect 5 0 1 0;
#X connect 6 0 7 1;
#X connect 7 0 24 0;
#X connect 7 0 51 0;
#X connect 8 0 6 0;
#X connect 9 0 28 0;
#X connect 9 0 29 0;
#X connect 9 0 30 0;
#X connect 9 0 70 0;
#X connect 10 0 13 0;
#X connect 11 0 14 0;
#X connect 12 0 15 0;
#X connect 13 0 7 1;
#X connect 14 0 7 1;
#X connect 15 0 7 1;
#X connect 16 0 57 1;
#X connect 17 0 16 0;
#X connect 18 0 7 0;
#X connect 19 0 57 0;
#X connect 20 0 17 0;
#X connect 21 0 18 0;
#X connect 21 1 55 0;
#X connect 21 2 23 0;
#X connect 21 2 56 0;
#X connect 22 0 21 0;
#X connect 23 0 19 0;
#X connect 24 0 27 0;
#X connect 25 0 24 1;
#X connect 26 0 25 0;
#X connect 28 0 71 0;
#X connect 29 0 72 0;
#X connect 30 0 73 0;
#X connect 31 0 28 1;
#X connect 31 1 29 1;
#X connect 31 2 30 1;
#X connect 32 0 61 0;
#X connect 32 0 74 0;
#X connect 33 0 31 0;
#X connect 33 0 42 0;
#X connect 34 0 31 0;
#X connect 34 0 45 0;
#X connect 35 0 32 0;
#X connect 36 0 31 0;
#X connect 36 0 43 0;
#X connect 37 0 2 0;
#X connect 38 0 8 0;
#X connect 38 1 10 0;
#X connect 38 2 11 0;
#X connect 38 3 12 0;
#X connect 39 0 5 0;
#X connect 51 0 52 0;
#X connect 51 1 53 0;
#X connect 51 2 54 0;
#X connect 55 0 9 0;
#X connect 56 0 7 2;
#X connect 57 0 37 0;
#X connect 58 0 31 0;
#X connect 58 0 49 0;
#X connect 61 0 65 0;
#X connect 61 1 66 0;
#X connect 61 2 33 0;
#X connect 61 3 36 0;
#X connect 61 4 81 0;
#X connect 61 6 34 0;
#X connect 61 7 67 0;
#X connect 61 8 58 0;
#X connect 61 9 77 0;
#X connect 61 10 80 0;
#X connect 61 11 75 0;
#X connect 61 12 69 0;
#X connect 61 13 68 0;
#X connect 61 15 64 0;
#X connect 61 17 76 0;
#X connect 64 0 31 0;
#X connect 64 0 62 0;
#X connect 65 0 31 0;
#X connect 65 0 40 0;
#X connect 66 0 31 0;
#X connect 66 0 41 0;
#X connect 67 0 31 0;
#X connect 67 0 46 0;
#X connect 68 0 31 0;
#X connect 68 0 60 0;
#X connect 69 0 31 0;
#X connect 69 0 59 0;
#X connect 70 0 6 0;
#X connect 71 0 13 0;
#X connect 72 0 14 0;
#X connect 73 0 15 0;
#X connect 74 0 70 0;
#X connect 74 0 71 0;
#X connect 74 0 72 0;
#X connect 74 0 73 0;
#X connect 75 0 31 0;
#X connect 75 0 78 0;
#X connect 76 0 31 0;
#X connect 76 0 63 0;
#X connect 77 0 31 0;
#X connect 77 0 47 0;
#X connect 80 0 31 0;
#X connect 80 0 79 0;
#X connect 81 0 31 0;
#X connect 81 0 44 0;
#X restore 319 617 pd Arp;
#X obj 41 687 poly 6;
#N canvas 370 86 1436 823 arppage 0;
#X obj 349 191 override;
#X obj 444 182 override;
#X obj 548 186 override;
#X obj 628 189 override;
#X text 487 87 Page 4!;
#X obj 332 117 r knob1;
#X obj 439 114 r knob2;
#X obj 514 125 r knob3;
#X obj 618 119 r knob4;
#X obj 693 203 sel 0;
#X floatatom 440 333 5 0 0 0 - - -;
#X floatatom 541 313 5 0 0 0 - - -;
#X obj 730 266 s screenLine5;
#X msg 730 241 ****;
#X obj 376 154 r page4;
#X obj 469 150 r page4;
#X obj 549 157 r page4;
#X obj 641 162 r page4;
#X obj 704 181 r page4;
#X obj 344 248 > 0.5;
#X obj 344 270 i;
#X obj 344 292 change;
#X floatatom 344 314 5 0 0 0 - - -;
#X obj 345 337 ==;
#X obj 277 449 sel 1 0;
#X msg 288 484 \; screenLine1 1: Mono \;;
#X msg 302 526 \; screenLine1 1: Poly \;;
#X obj 435 258 * -1;
#X obj 438 390 bng 15 250 50 0 empty empty empty 17 7 0 10 -262144
-1 -1;
#X obj 493 390 bng 15 250 50 0 empty empty empty 17 7 0 10 -262144
-1 -1;
#X obj 428 463 s arpon;
#X msg 493 412 0;
#X msg 423 413 1;
#X obj 489 463 s speed;
#X msg 470 495 2: ArpSpeed: \$1;
#X obj 480 525 s screenLine2;
#X obj 564 338 s arptype;
#N canvas 709 383 450 300 arpdecay 0;
#X obj 35 25 inlet;
#X obj 79 154 unpack f f;
#X obj 78 195 s decay;
#X obj 139 197 s sustain;
#X obj 48 45 sel 0 1 2 3 4;
#X msg 7 108 750 1;
#X msg 56 109 400 0.5;
#X msg 244 110 50 0;
#X msg 123 113 300 0.3;
#X msg 182 110 200 0.2;
#X connect 0 0 4 0;
#X connect 1 0 2 0;
#X connect 1 1 3 0;
#X connect 4 0 5 0;
#X connect 4 1 6 0;
#X connect 4 2 8 0;
#X connect 4 3 9 0;
#X connect 4 4 7 0;
#X connect 5 0 1 0;
#X connect 6 0 1 0;
#X connect 7 0 1 0;
#X connect 8 0 1 0;
#X connect 9 0 1 0;
#X restore 693 338 pd arpdecay;
#X obj 627 262 oknob 6 0;
#X msg 348 384 1000;
#X obj 444 232 + 10;
#X obj 720 494 s screenLine4;
#X msg 721 454 4: ArpDecayType: \$1;
#X obj 441 209 * 250;
#X obj 437 292 + 270;
#X obj 437 358 moses 240;
#X obj 159 344 s poly;
#X obj 175 375 s mono;
#X obj 528 274 oknob 18 0;
#X floatatom 636 301 5 0 0 0 - - -;
#X floatatom 244 386 5 0 0 0 - - -;
#X obj 267 209 r polystart;
#X msg 459 562 \; screenLine2 2: ArpSpeed: off \;;
#X connect 0 0 19 0;
#X connect 1 0 43 0;
#X connect 2 0 48 0;
#X connect 3 0 38 0;
#X connect 5 0 0 0;
#X connect 6 0 1 0;
#X connect 7 0 2 0;
#X connect 8 0 3 0;
#X connect 9 0 13 0;
#X connect 9 0 21 0;
#X connect 9 0 48 0;
#X connect 9 0 43 0;
#X connect 9 0 49 0;
#X connect 10 0 45 0;
#X connect 11 0 36 0;
#X connect 13 0 12 0;
#X connect 14 0 0 1;
#X connect 15 0 1 1;
#X connect 16 0 2 1;
#X connect 17 0 3 1;
#X connect 18 0 9 0;
#X connect 19 0 20 0;
#X connect 20 0 21 0;
#X connect 21 0 22 0;
#X connect 22 0 23 0;
#X connect 22 0 46 0;
#X connect 23 0 24 0;
#X connect 23 0 39 0;
#X connect 23 0 47 0;
#X connect 23 0 50 0;
#X connect 24 0 25 0;
#X connect 24 1 26 0;
#X connect 27 0 44 0;
#X connect 28 0 32 0;
#X connect 29 0 31 0;
#X connect 31 0 30 0;
#X connect 31 0 52 0;
#X connect 32 0 30 0;
#X connect 34 0 35 0;
#X connect 38 1 49 0;
#X connect 39 0 45 0;
#X connect 40 0 27 0;
#X connect 42 0 41 0;
#X connect 43 0 40 0;
#X connect 44 0 10 0;
#X connect 45 0 28 0;
#X connect 45 0 33 0;
#X connect 45 0 34 0;
#X connect 45 1 29 0;
#X connect 48 1 11 0;
#X connect 49 0 37 0;
#X connect 49 0 42 0;
#X connect 51 0 19 0;
#X restore 1096 891 pd arppage;
#X obj 121 690 poly 1 1;
#X obj 231 801 route 1;
#X obj 464 126 oknob 26 100;
#X obj 802 46 s cutoff;
#X obj 930 68 s resonance;
#X obj 812 -90 * 3500;
#X obj 21 833 Wavy;
#X obj 324 -148 * 60;
#X obj 59 834 Wavy;
#X obj 168 840 Wavy;
#X obj 98 837 Wavy;
#X obj 131 838 Wavy;
#X obj 198 840 Wavy;
#X obj 223 1012 rev3~ 100 94 3000 25;
#X obj 931 -58 * 1;
#X msg 777 607 \; screenLine5 * LEVEL 1-1;
#X obj 611 473 delay 250;
#X obj 755 456 delay 300;
#X msg 758 673 \; screenLine1 1: WaveForm \; screenLine2 2: Note Shift
\; screenLine3 3: Filter \; screenLine4 4: Resonance \;;
#X obj 382 108 r wavestart;
#X floatatom 676 -144 5 0 0 0 - - -;
#X floatatom 919 24 5 0 0 0 - - -;
#X obj 124 878 *~ 0.3;
#X obj 731 -124 r cutoffS;
#X msg 659 517 \; polystart 1 \; port 0 \; mono 0 \; arptype 2 \; speed
50 \; cutoff 3000 \; resonanceS 0.1 \; phase 500 \; dtimeS 0.3 \; dfbkS
0 \; wavestart 100 \; dlymix 0.9 \; cutoffS 0.99;
#X obj 917 -126 r resonanceS;
#X connect 0 0 3 0;
#X connect 0 0 129 0;
#X connect 0 0 10 0;
#X connect 0 0 84 0;
#X connect 0 0 85 0;
#X connect 0 0 86 0;
#X connect 0 0 80 0;
#X connect 0 0 81 0;
#X connect 0 0 83 0;
#X connect 0 0 82 0;
#X connect 0 0 88 0;
#X connect 0 0 238 0;
#X connect 0 0 239 0;
#X connect 1 0 17 0;
#X connect 2 0 146 0;
#X connect 3 0 22 0;
#X connect 4 0 102 0;
#X connect 5 0 18 0;
#X connect 10 0 132 0;
#X connect 10 0 206 0;
#X connect 13 0 112 0;
#X connect 13 0 235 0;
#X connect 13 1 113 0;
#X connect 13 1 235 1;
#X connect 14 0 17 1;
#X connect 15 0 141 0;
#X connect 16 0 142 0;
#X connect 17 0 224 0;
#X connect 18 0 228 0;
#X connect 18 1 230 0;
#X connect 18 2 232 0;
#X connect 18 3 233 0;
#X connect 18 4 231 0;
#X connect 18 5 233 0;
#X connect 18 5 234 0;
#X connect 20 0 19 0;
#X connect 21 0 22 0;
#X connect 22 0 23 0;
#X connect 23 0 24 0;
#X connect 23 0 122 0;
#X connect 24 0 23 1;
#X connect 25 0 28 0;
#X connect 26 0 25 0;
#X connect 27 0 25 0;
#X connect 29 0 32 0;
#X connect 30 0 29 0;
#X connect 31 0 29 0;
#X connect 33 0 20 0;
#X connect 34 0 20 0;
#X connect 35 0 121 0;
#X connect 36 0 38 0;
#X connect 37 0 38 0;
#X connect 38 0 39 0;
#X connect 40 0 205 0;
#X connect 41 0 66 0;
#X connect 42 0 67 0;
#X connect 43 0 68 0;
#X connect 45 0 15 0;
#X connect 46 0 16 0;
#X connect 47 0 40 0;
#X connect 48 0 41 0;
#X connect 49 0 42 0;
#X connect 50 0 43 0;
#X connect 58 0 194 0;
#X connect 58 0 144 0;
#X connect 58 0 143 0;
#X connect 58 0 151 0;
#X connect 58 0 160 0;
#X connect 59 0 60 0;
#X connect 59 0 61 0;
#X connect 59 0 62 0;
#X connect 59 0 63 0;
#X connect 59 0 199 0;
#X connect 60 0 69 0;
#X connect 60 0 74 0;
#X connect 61 0 70 0;
#X connect 61 0 75 0;
#X connect 62 0 71 0;
#X connect 62 0 76 0;
#X connect 63 0 72 0;
#X connect 63 0 77 0;
#X connect 65 0 3 0;
#X connect 66 0 61 0;
#X connect 67 0 62 0;
#X connect 68 0 120 0;
#X connect 69 0 54 0;
#X connect 70 0 55 0;
#X connect 71 0 56 0;
#X connect 72 0 57 0;
#X connect 78 0 166 0;
#X connect 79 0 166 0;
#X connect 80 0 60 0;
#X connect 81 0 62 0;
#X connect 82 0 63 0;
#X connect 83 0 61 0;
#X connect 84 0 173 0;
#X connect 85 0 13 3;
#X connect 86 0 13 4;
#X connect 87 0 113 2;
#X connect 87 0 112 2;
#X connect 88 0 128 0;
#X connect 89 0 13 0;
#X connect 89 1 13 0;
#X connect 91 0 93 0;
#X connect 92 0 93 0;
#X connect 93 0 94 0;
#X connect 97 0 99 0;
#X connect 98 0 99 0;
#X connect 99 0 100 0;
#X connect 102 0 212 0;
#X connect 102 0 213 0;
#X connect 103 0 102 1;
#X connect 104 0 103 0;
#X connect 105 0 89 0;
#X connect 105 0 89 1;
#X connect 106 0 105 1;
#X connect 108 0 13 1;
#X connect 109 0 13 2;
#X connect 110 0 13 3;
#X connect 111 0 13 4;
#X connect 112 0 6 0;
#X connect 113 0 7 0;
#X connect 120 0 63 0;
#X connect 121 0 64 0;
#X connect 122 0 35 0;
#X connect 122 0 123 0;
#X connect 123 0 26 0;
#X connect 123 0 31 0;
#X connect 123 0 33 0;
#X connect 123 0 36 0;
#X connect 123 0 91 0;
#X connect 123 0 97 0;
#X connect 123 0 124 0;
#X connect 123 1 27 0;
#X connect 123 1 33 0;
#X connect 123 1 30 0;
#X connect 123 1 36 0;
#X connect 123 1 91 0;
#X connect 123 1 97 0;
#X connect 123 1 124 0;
#X connect 123 2 34 0;
#X connect 123 2 31 0;
#X connect 123 2 27 0;
#X connect 123 2 91 0;
#X connect 123 2 97 0;
#X connect 123 2 36 0;
#X connect 123 2 124 0;
#X connect 123 3 27 0;
#X connect 123 3 31 0;
#X connect 123 3 33 0;
#X connect 123 3 37 0;
#X connect 123 3 91 0;
#X connect 123 3 97 0;
#X connect 123 3 124 0;
#X connect 123 4 92 0;
#X connect 123 4 36 0;
#X connect 123 4 33 0;
#X connect 123 4 31 0;
#X connect 123 4 27 0;
#X connect 123 4 97 0;
#X connect 123 4 124 0;
#X connect 123 5 98 0;
#X connect 123 5 91 0;
#X connect 123 5 36 0;
#X connect 123 5 33 0;
#X connect 123 5 31 0;
#X connect 123 5 27 0;
#X connect 123 5 124 0;
#X connect 123 6 125 0;
#X connect 123 6 27 0;
#X connect 123 6 31 0;
#X connect 123 6 33 0;
#X connect 123 6 36 0;
#X connect 123 6 91 0;
#X connect 123 6 97 0;
#X connect 124 0 126 0;
#X connect 125 0 126 0;
#X connect 126 0 127 0;
#X connect 128 0 9 0;
#X connect 129 0 130 0;
#X connect 130 0 131 0;
#X connect 133 0 51 0;
#X connect 134 0 52 0;
#X connect 135 0 136 0;
#X connect 136 0 137 0;
#X connect 138 0 139 0;
#X connect 139 0 140 0;
#X connect 141 0 143 0;
#X connect 141 0 147 0;
#X connect 142 0 144 0;
#X connect 142 0 148 0;
#X connect 143 1 133 0;
#X connect 144 1 134 0;
#X connect 146 0 8 0;
#X connect 147 0 135 0;
#X connect 148 0 138 0;
#X connect 149 0 150 0;
#X connect 150 0 151 0;
#X connect 151 0 152 0;
#X connect 151 1 153 0;
#X connect 153 0 154 0;
#X connect 155 0 149 0;
#X connect 156 0 53 0;
#X connect 157 0 158 0;
#X connect 158 0 207 0;
#X connect 158 0 229 0;
#X connect 159 0 160 0;
#X connect 160 0 156 0;
#X connect 162 0 207 0;
#X connect 163 0 242 0;
#X connect 164 0 173 0;
#X connect 165 0 164 0;
#X connect 166 0 167 0;
#X connect 166 0 176 0;
#X connect 168 0 166 0;
#X connect 169 0 166 0;
#X connect 170 0 166 0;
#X connect 171 0 166 0;
#X connect 172 0 165 0;
#X connect 173 0 168 0;
#X connect 173 1 169 0;
#X connect 173 2 171 0;
#X connect 173 3 170 0;
#X connect 173 4 78 0;
#X connect 173 5 79 0;
#X connect 174 0 163 0;
#X connect 175 0 163 1;
#X connect 176 0 177 0;
#X connect 178 0 190 0;
#X connect 179 0 178 0;
#X connect 179 0 225 0;
#X connect 180 0 243 0;
#X connect 181 0 182 0;
#X connect 182 0 183 0;
#X connect 183 0 191 0;
#X connect 184 0 227 0;
#X connect 185 0 236 0;
#X connect 186 0 184 0;
#X connect 187 0 185 0;
#X connect 188 0 184 1;
#X connect 189 0 185 1;
#X connect 190 0 12 0;
#X connect 191 0 11 0;
#X connect 192 0 158 1;
#X connect 193 0 58 0;
#X connect 194 0 95 0;
#X connect 195 0 16 1;
#X connect 196 0 15 1;
#X connect 197 0 149 1;
#X connect 198 0 40 1;
#X connect 199 0 96 0;
#X connect 200 0 59 0;
#X connect 201 0 41 1;
#X connect 202 0 42 1;
#X connect 203 0 43 1;
#X connect 204 0 60 0;
#X connect 205 0 204 0;
#X connect 207 0 161 0;
#X connect 208 0 209 0;
#X connect 209 0 2 0;
#X connect 209 0 210 0;
#X connect 209 0 166 0;
#X connect 209 0 243 0;
#X connect 209 0 183 0;
#X connect 209 0 178 0;
#X connect 210 0 211 0;
#X connect 212 0 220 0;
#X connect 213 0 222 0;
#X connect 214 0 217 0;
#X connect 214 0 223 0;
#X connect 215 0 212 1;
#X connect 216 0 213 1;
#X connect 218 0 223 0;
#X connect 220 0 5 0;
#X connect 220 1 5 1;
#X connect 220 2 5 2;
#X connect 222 0 214 0;
#X connect 222 1 214 1;
#X connect 222 2 214 2;
#X connect 223 0 228 0;
#X connect 224 1 2 0;
#X connect 224 1 128 0;
#X connect 227 0 179 0;
#X connect 228 0 244 0;
#X connect 229 0 159 0;
#X connect 230 0 244 0;
#X connect 231 0 244 0;
#X connect 232 0 244 0;
#X connect 233 0 244 0;
#X connect 234 0 244 0;
#X connect 235 0 113 1;
#X connect 235 1 113 1;
#X connect 235 2 112 1;
#X connect 235 3 112 1;
#X connect 236 0 180 0;
#X connect 236 0 181 0;
#X connect 238 0 246 0;
#X connect 238 0 237 0;
#X connect 239 0 240 0;
#X connect 241 0 128 0;
#X connect 242 0 172 0;
#X connect 243 0 226 0;
#X connect 244 0 105 0;
#X connect 245 0 227 0;
#X connect 247 0 236 0;
