#N canvas 865 0 751 982 10;
#X obj 46 117 inlet~;
#X floatatom 257 146 0 0 0 0 - - -;
#X obj 257 194 line~;
#X obj 257 170 pack 0 100;
#X floatatom 182 116 0 0 0 0 - - -;
#X floatatom 338 222 0 0 0 0 - - -;
#X obj 338 294 line~;
#X obj 338 270 pack 0 100;
#X obj 338 246 * 0.01;
#X obj 317 320 *~;
#X obj 182 212 *~;
#X obj 182 140 / 100;
#X obj 182 188 +~ 1;
#X obj 182 164 osc~ 0;
#X obj 182 236 +~ 1.46;
#X text 235 116 <-- cycle frequency (hundredths);
#X text 310 147 <-- cycle depth (msec);
#X text 387 223 <-- feedback (hundredths);
#X obj 182 260 vd~ G03-del;
#X obj 317 368 delwrite~ G03-del 1000;
#X obj 317 344 clip~ -0.8 0.8;
#X obj 141 303 +~;
#X obj 147 346 hip~ 5;
#X obj 201 90 r cyclefreq;
#X obj 295 96 r cycledepth;
#X obj 603 85 loadbang;
#X msg 605 116 0;
#X obj 568 151 s cyclefreq;
#X obj 532 173 s cycledepth;
#X obj 439 101 r cyclefeedback;
#X obj 625 178 s cyclefeedback;
#X obj 302 14 inlet;
#X obj 302 40 unpack 0 0 0;
#X obj 62 552 *~;
#X obj 125 548 *~;
#X obj 82 520 sig~;
#X obj 138 519 sig~;
#X msg 86 478 0.6;
#X msg 149 478 0.4;
#X obj 101 628 outlet~;
#X obj 87 440 loadbang;
#X connect 0 0 21 0;
#X connect 0 0 33 0;
#X connect 1 0 3 0;
#X connect 2 0 10 1;
#X connect 3 0 2 0;
#X connect 4 0 11 0;
#X connect 5 0 8 0;
#X connect 6 0 9 1;
#X connect 7 0 6 0;
#X connect 8 0 7 0;
#X connect 9 0 20 0;
#X connect 10 0 14 0;
#X connect 11 0 13 0;
#X connect 12 0 10 0;
#X connect 13 0 12 0;
#X connect 14 0 18 0;
#X connect 18 0 21 1;
#X connect 20 0 19 0;
#X connect 21 0 22 0;
#X connect 22 0 9 0;
#X connect 22 0 34 0;
#X connect 23 0 4 0;
#X connect 24 0 1 0;
#X connect 25 0 26 0;
#X connect 26 0 27 0;
#X connect 26 0 28 0;
#X connect 26 0 30 0;
#X connect 29 0 5 0;
#X connect 31 0 32 0;
#X connect 32 0 4 0;
#X connect 32 1 1 0;
#X connect 32 2 5 0;
#X connect 33 0 39 0;
#X connect 34 0 39 0;
#X connect 35 0 33 1;
#X connect 36 0 34 1;
#X connect 37 0 35 0;
#X connect 38 0 36 0;
#X connect 40 0 37 0;
#X connect 40 0 38 0;
