#N canvas 0 0 1436 821 10;
#X floatatom 337 390 5 0 0 0 - - -;
#X obj 551 335 vsl 15 128 0.5 300 0 0 empty empty empty 0 -9 0 10 -262144
-1 -1 0 1;
#X obj 580 333 vsl 15 128 0 750 0 0 empty empty empty 0 -9 0 10 -262144
-1 -1 12700 1;
#X obj 612 335 vsl 15 128 0 1 0 0 empty empty empty 0 -9 0 10 -262144
-1 -1 12700 1;
#X obj 640 336 vsl 15 128 25 3500 0 0 empty empty empty 0 -9 0 10 -262144
-1 -1 457 1;
#X floatatom 539 500 5 0 0 0 - - -;
#X floatatom 579 499 5 0 0 0 - - -;
#X floatatom 620 496 5 0 0 0 - - -;
#X floatatom 660 499 5 0 0 0 - - -;
#X obj 527 669 vline~;
#X msg 493 618 1 \$2 \, \$4 \$3 \$2;
#X msg 637 612 0 \$2;
#X obj 518 578 pack f f f f;
#X obj 636 579 pack f f;
#X obj 609 537 sel 0;
#X obj 351 242 unpack 0 0;
#X msg 476 13 \; pd dsp 0;
#X msg 477 50 \; pd dsp 1;
#X obj 332 330 stripnote;
#X msg 361 165 60 120;
#X obj 364 209 pack f f;
#X obj 353 132 bng 15 250 50 0 empty empty empty 17 7 0 10 -262144
-1 -1;
#X obj 480 98 *~ 0.5;
#X msg 420 167 60 0;
#X obj 418 126 bng 15 250 50 0 empty empty empty 17 7 0 10 -262144
-1 -1;
#X obj 578 185 loadbang;
#X msg 596 222 1;
#X msg 634 226 150;
#X msg 561 221 750;
#X msg 524 222 1;
#X obj 230 44 inlet;
#X obj 227 87 unpack 0 0;
#X floatatom 226 166 5 0 0 0 - - -;
#X floatatom 295 167 5 0 0 0 - - -;
#X obj 482 132 dac~;
#X text 407 217 testing;
#X text 585 307 ADSR;
#X obj 336 425 + \$1;
#X obj 371 404 r octave;
#X obj 684 238 r attack;
#X obj 683 261 r decay;
#X obj 684 293 r sustain;
#X obj 685 319 r release;
#X text 450 620 Q (1-4);
#X obj 478 763 *~;
#X obj 560 865 moog~;
#X msg 432 801 reset;
#X obj 586 944 outlet~;
#X obj 629 75 r noob;
#X obj 386 728 lop~ 4500;
#X obj 561 890 *~ 0.9;
#X obj 321 590 +~;
#X obj 150 523 osc~;
#X obj 127 437 r~ smoothKnob2;
#X obj 242 436 r~ smoothKnob3;
#X obj 303 535 *~;
#X obj 139 464 *~;
#X obj 234 475 *~;
#X obj 353 511 line~;
#X floatatom 447 440 0 0 0 0 - - -;
#X obj 353 487 pack 0 100;
#X obj 358 545 mtof~;
#X obj 138 495 *~ 40;
#X obj 235 502 *~ 80;
#X obj 446 395 r port;
#X obj 660 698 hsl 128 15 0 4500 0 0 empty empty empty -2 -8 0 10 -262144
-1 -1 10160 1;
#X obj 684 748 hsl 128 15 0 4 0 0 empty empty empty -2 -8 0 10 -262144
-1 -1 0 1;
#X text 694 768 Res;
#X text 658 711 Cutoff;
#X obj 656 674 r cutoff;
#X obj 680 725 r resonance;
#X obj 572 798 lop~ 5;
#X obj 673 774 sig~;
#X obj 639 805 lop~ 5;
#X obj 618 714 sig~;
#X obj 620 736 lop~ 5;
#X obj 325 618 phasor~;
#X obj 312 673 +~ 1;
#X floatatom 132 552 4 0 1000 0 - - -;
#X obj 134 572 pack 0 50;
#X obj 134 596 line~;
#X obj 312 647 *~;
#X text 946 501 frequency;
#X obj 134 620 +~ 128;
#X obj 304 699 tabread4~ array1;
#X obj 59 526 r phase;
#X connect 0 0 37 0;
#X connect 1 0 5 0;
#X connect 2 0 6 0;
#X connect 3 0 7 0;
#X connect 4 0 8 0;
#X connect 5 0 12 1;
#X connect 6 0 12 2;
#X connect 7 0 12 3;
#X connect 8 0 13 1;
#X connect 9 0 44 1;
#X connect 10 0 9 0;
#X connect 11 0 9 0;
#X connect 12 0 10 0;
#X connect 13 0 11 0;
#X connect 14 0 13 0;
#X connect 15 0 18 0;
#X connect 15 1 18 1;
#X connect 15 1 14 0;
#X connect 18 0 0 0;
#X connect 18 0 12 0;
#X connect 19 0 20 0;
#X connect 20 0 15 0;
#X connect 21 0 19 0;
#X connect 22 0 34 0;
#X connect 23 0 20 0;
#X connect 24 0 23 0;
#X connect 25 0 29 0;
#X connect 25 0 28 0;
#X connect 25 0 26 0;
#X connect 25 0 27 0;
#X connect 26 0 3 0;
#X connect 27 0 4 0;
#X connect 28 0 2 0;
#X connect 29 0 1 0;
#X connect 30 0 31 0;
#X connect 31 0 32 0;
#X connect 31 1 33 0;
#X connect 31 1 14 0;
#X connect 32 0 18 0;
#X connect 33 0 18 1;
#X connect 37 0 60 0;
#X connect 38 0 37 1;
#X connect 39 0 1 0;
#X connect 40 0 2 0;
#X connect 41 0 3 0;
#X connect 42 0 4 0;
#X connect 44 0 45 0;
#X connect 45 0 50 0;
#X connect 46 0 45 0;
#X connect 48 0 29 0;
#X connect 48 0 28 0;
#X connect 48 0 26 0;
#X connect 48 0 27 0;
#X connect 49 0 44 0;
#X connect 50 0 47 0;
#X connect 51 0 76 0;
#X connect 52 0 55 0;
#X connect 53 0 56 1;
#X connect 53 0 56 0;
#X connect 54 0 57 1;
#X connect 54 0 57 0;
#X connect 55 0 51 1;
#X connect 56 0 62 0;
#X connect 57 0 63 0;
#X connect 58 0 61 0;
#X connect 59 0 60 1;
#X connect 60 0 58 0;
#X connect 61 0 51 0;
#X connect 62 0 52 0;
#X connect 63 0 55 1;
#X connect 64 0 59 0;
#X connect 65 0 74 0;
#X connect 66 0 72 0;
#X connect 69 0 65 0;
#X connect 70 0 66 0;
#X connect 71 0 45 1;
#X connect 72 0 73 0;
#X connect 73 0 45 2;
#X connect 74 0 75 0;
#X connect 75 0 71 0;
#X connect 76 0 81 0;
#X connect 77 0 84 0;
#X connect 78 0 79 0;
#X connect 79 0 80 0;
#X connect 80 0 83 0;
#X connect 81 0 77 0;
#X connect 83 0 81 1;
#X connect 84 0 49 0;
#X connect 85 0 78 0;
