#N canvas 527 99 871 843 10;
#X obj 165 197 grids, f 38;
#X obj 396 22 vsl 15 128 0 127 0 0 empty empty empty 0 -9 0 10 -262144
-1 -1 0 1;
#X text 382 5 random;
#X obj 336 18 vsl 15 128 0 127 0 0 empty empty empty 0 -9 0 10 -262144
-1 -1 0 1;
#X text 322 1 map y;
#X obj 280 16 vsl 15 128 0 127 0 0 empty empty empty 0 -9 0 10 -262144
-1 -1 0 1;
#X text 266 -1 map x;
#X obj 238 21 vsl 15 128 0 127 0 0 empty empty empty 0 -9 0 10 -262144
-1 -1 0 1;
#X text 224 4 hihat;
#X obj 201 23 vsl 15 128 0 127 0 0 empty empty empty 0 -9 0 10 -262144
-1 -1 0 1;
#X text 185 1 snare;
#X obj 156 11 vsl 15 128 0 127 0 0 empty empty empty 0 -9 0 10 -262144
-1 -1 0 1;
#X text 142 -6 bass;
#X obj 62 97 f;
#X obj 95 124 + 1;
#X obj 166 228 bng 15 250 50 0 empty empty empty 17 7 0 10 -262144
-1 -1;
#X obj 220 239 bng 15 250 50 0 empty empty empty 17 7 0 10 -262144
-1 -1;
#X obj 249 237 bng 15 250 50 0 empty empty empty 17 7 0 10 -262144
-1 -1;
#X obj 305 245 bng 15 250 50 0 empty empty empty 17 7 0 10 -262144
-1 -1;
#X obj 346 244 bng 15 250 50 0 empty empty empty 17 7 0 10 -262144
-1 -1;
#X obj 377 252 bng 15 250 50 0 empty empty empty 17 7 0 10 -262144
-1 -1;
#X obj 185 419 efficient-kick;
#X msg 185 389 1;
#X obj 187 498 *~;
#X obj 363 416 efficient-snare;
#X msg 363 386 1;
#X obj 484 416 efficient-fmhh;
#X msg 466 382 1;
#X obj 365 495 *~;
#X obj 486 495 *~;
#X obj 228 467 / 127;
#X obj 541 466 / 127;
#X obj 314 450 / 127;
#X obj 80 -129 master-metronome;
#X obj 80 -164 tgl 15 0 empty empty empty 17 7 0 10 -262144 -1 -1 1
1;
#X floatatom 189 -170 5 0 0 0 - - -, f 5;
#X obj 80 -241 loadbang;
#X msg 80 -209 1;
#X msg 132 -210 120;
#X obj 188 -294 r knob1;
#X obj 189 -242 * 250;
#X obj 189 -207 + 10;
#X obj 218 588 throw~ outL;
#X obj 421 586 throw~ outR;
#X obj 726 -249 r aux;
#X obj 726 -198 bng 15 250 50 0 empty empty empty 17 7 0 10 -262144
-1 -1;
#X obj 726 -227 sel 1;
#X obj 727 -173 tgl 15 0 empty empty empty 17 7 0 10 -262144 -1 -1
1 1;
#X obj 735 -73 tgl 15 0 empty empty empty 17 7 0 10 -262144 -1 -1 0
1;
#X msg 778 -87 0;
#X msg 728 -103 1;
#X obj 273 -283 r page1;
#X obj 736 -36 s page1;
#X obj 727 -153 sel 0 1;
#X obj 829 -275 loadbang;
#X obj 234 -92 override;
#X obj 284 -153 r page1;
#X obj 235 -66 * 127;
#X obj 234 -118 r knob2;
#X obj 348 -146 r page1;
#X obj 299 -49 * 127;
#X obj 428 -149 r page1;
#X obj 378 -55 * 127;
#X obj 302 -114 r knob3;
#X obj 381 -120 r knob4;
#X obj 452 -41 * 127;
#X obj 531 -47 * 127;
#X obj 606 -44 * 127;
#X obj 455 -106 r knob1;
#X obj 534 -112 r knob2;
#X obj 609 -109 r knob3;
#X obj 501 -138 r page2;
#X obj 581 -141 r page2;
#X obj 656 -138 r page2;
#X obj 824 -63 tgl 15 0 empty empty empty 17 7 0 10 -262144 -1 -1 1
1;
#X msg 867 -77 0;
#X msg 817 -93 1;
#X obj 825 -26 s page2;
#X obj 188 -268 override;
#X obj 302 -88 override;
#X obj 381 -94 override;
#X obj 455 -80 override;
#X obj 534 -86 override;
#X obj 609 -83 override;
#X obj 512 183 s screenLine2;
#X obj 127 -97 r page1;
#X obj 127 -75 sel 0;
#X obj 559 37 sel 0;
#X obj 559 15 r page2;
#X obj 626 179 s screenLine3;
#X obj 763 183 s screenLine4;
#X obj 549 279 s screenLine1;
#X obj 663 275 s screenLine2;
#X obj 782 287 s screenLine3;
#X msg 547 238 1::Map X: \$1;
#X msg 661 234 2::Map Y: \$1;
#X msg 780 246 3::Chaos: \$1;
#X msg 510 142 2::Bass density: \$1;
#X msg 624 138 3::Snare density: \$1;
#X msg 743 150 4::HiHat density: \$1;
#X msg 829 -253 1;
#X obj 601 76 s screenLine4;
#X obj 559 -215 loadbang;
#X msg 559 -193 0;
#X connect 0 0 15 0;
#X connect 0 0 30 0;
#X connect 0 1 16 0;
#X connect 0 1 32 0;
#X connect 0 2 17 0;
#X connect 0 2 31 0;
#X connect 0 3 18 0;
#X connect 0 4 19 0;
#X connect 0 5 20 0;
#X connect 1 0 0 6;
#X connect 1 0 96 0;
#X connect 3 0 0 5;
#X connect 3 0 95 0;
#X connect 5 0 0 4;
#X connect 5 0 94 0;
#X connect 7 0 0 3;
#X connect 7 0 99 0;
#X connect 9 0 0 2;
#X connect 9 0 98 0;
#X connect 11 0 0 1;
#X connect 11 0 97 0;
#X connect 13 0 14 0;
#X connect 13 0 0 0;
#X connect 14 0 13 1;
#X connect 15 0 22 0;
#X connect 16 0 25 0;
#X connect 17 0 27 0;
#X connect 21 0 23 0;
#X connect 22 0 21 0;
#X connect 23 0 42 0;
#X connect 23 0 43 0;
#X connect 24 0 28 0;
#X connect 25 0 24 0;
#X connect 26 0 29 0;
#X connect 27 0 26 0;
#X connect 28 0 42 0;
#X connect 28 0 43 0;
#X connect 29 0 42 0;
#X connect 29 0 43 0;
#X connect 30 0 23 1;
#X connect 31 0 29 1;
#X connect 32 0 28 1;
#X connect 33 0 13 0;
#X connect 34 0 33 0;
#X connect 35 0 33 1;
#X connect 36 0 37 0;
#X connect 36 0 38 0;
#X connect 37 0 34 0;
#X connect 38 0 35 0;
#X connect 39 0 78 0;
#X connect 40 0 41 0;
#X connect 41 0 35 0;
#X connect 44 0 46 0;
#X connect 45 0 47 0;
#X connect 46 0 45 0;
#X connect 47 0 53 0;
#X connect 48 0 52 0;
#X connect 49 0 48 0;
#X connect 50 0 48 0;
#X connect 51 0 78 1;
#X connect 53 0 50 0;
#X connect 53 0 75 0;
#X connect 53 1 49 0;
#X connect 53 1 76 0;
#X connect 54 0 100 0;
#X connect 55 0 57 0;
#X connect 56 0 55 1;
#X connect 57 0 11 0;
#X connect 58 0 55 0;
#X connect 59 0 79 1;
#X connect 60 0 9 0;
#X connect 61 0 80 1;
#X connect 62 0 7 0;
#X connect 63 0 79 0;
#X connect 64 0 80 0;
#X connect 65 0 5 0;
#X connect 66 0 3 0;
#X connect 67 0 1 0;
#X connect 68 0 81 0;
#X connect 69 0 82 0;
#X connect 70 0 83 0;
#X connect 71 0 81 1;
#X connect 72 0 82 1;
#X connect 73 0 83 1;
#X connect 74 0 77 0;
#X connect 75 0 74 0;
#X connect 76 0 74 0;
#X connect 78 0 40 0;
#X connect 79 0 60 0;
#X connect 80 0 62 0;
#X connect 81 0 65 0;
#X connect 82 0 66 0;
#X connect 83 0 67 0;
#X connect 85 0 86 0;
#X connect 86 0 11 0;
#X connect 86 0 9 0;
#X connect 86 0 7 0;
#X connect 87 0 5 0;
#X connect 87 0 3 0;
#X connect 87 0 1 0;
#X connect 87 0 101 0;
#X connect 88 0 87 0;
#X connect 94 0 91 0;
#X connect 95 0 92 0;
#X connect 96 0 93 0;
#X connect 97 0 84 0;
#X connect 98 0 89 0;
#X connect 99 0 90 0;
#X connect 100 0 47 0;
#X connect 102 0 103 0;
