#N canvas 13 50 997 848 36;
#X obj 364 186 sig~;
#X obj 175 353 *~ 1;
#X obj 157 111 inlet~;
#X obj 364 111 inlet;
#X obj 380 690 *~ 1;
#X obj 380 742 outlet~;
#X obj 692 449 env~;
#X floatatom 699 537 5 0 0 0 - - -;
#X obj 680 615 env~;
#X floatatom 687 703 5 0 0 0 - - -;
#X obj 381 361 vd~ \$0del 25;
#X obj 174 603 delwrite~ \$0del 1000;
#X text 153 58 audioIN;
#X text 352 55 audioIN;
#X obj 672 226 env~;
#X floatatom 679 314 5 0 0 0 - - -;
#X obj 370 261 lop~;
#X connect 0 0 14 0;
#X connect 0 0 16 0;
#X connect 1 0 4 0;
#X connect 1 0 11 0;
#X connect 2 0 1 0;
#X connect 3 0 0 0;
#X connect 3 0 16 1;
#X connect 4 0 5 0;
#X connect 6 0 7 0;
#X connect 8 0 9 0;
#X connect 10 0 4 0;
#X connect 10 0 11 0;
#X connect 14 0 15 0;
#X connect 16 0 10 0;
#X connect 16 0 6 0;
