#N canvas 67 87 1533 813 10;
#X obj 46 537 r notes;
#X obj 95 761 throw~ outL;
#X obj 205 759 throw~ outR;
#X text 223 729 final gain adjustment;
#X obj 15 74 loadbang;
#X obj 42 590 pack 0 0 0;
#X text 93 33 sample is transposed by keys;
#X obj 1223 795 * 100;
#X obj 1223 820 i;
#X obj 1223 766 r knob3;
#X obj 1369 798 * 100;
#X obj 1369 823 i;
#X obj 1362 764 r knob4;
#X obj 1369 856 change -1;
#X obj 1223 855 change -1;
#X obj 1369 912 s screenLine4;
#X obj 1223 913 s screenLine3;
#X obj 1083 820 i;
#X obj 1083 842 change -1;
#X obj 1083 767 r knob1;
#X obj 1082 914 s screenLine1;
#X obj 524 770 r dur;
#X obj 524 792 / 44100;
#X floatatom 524 814 5 0 0 0 - - -, f 5;
#X msg 1082 890 1: Speed \$1 %;
#X obj 892 885 lop~ 5;
#X obj 990 846 lop~ 5;
#X obj 892 808 * 3;
#X obj 892 835 wrap, f 5;
#X obj 892 863 sig~ 0.1;
#X obj 990 824 sig~ 0.1;
#X obj 950 760 r knob2;
#X obj 890 982 osc~;
#X obj 914 1010 *~;
#X obj 889 916 *~;
#X obj 989 898 *~;
#X obj 889 950 *~ 10;
#X obj 915 1078 s~ mod;
#X obj 915 1048 +~ 1;
#X obj 44 564 poly 6 1, f 11;
#X obj 38 618 route 1 2 3 4 5 6, f 34;
#X floatatom 410 813 15 0 0 0 - - -, f 15;
#X obj 160 730 *~ 0.5;
#X text 96 10 sampler with recording;
#X text 413 747 length of sound in seconds and samples;
#X text 93 58 max recording time 1 min;
#X text 90 79 knobs control speed \, speed modulation \, loop start
\, and duration, f 66;
#N canvas 67 87 1533 813 record-load-sample 0;
#X msg 189 253 bang, f 6;
#X obj 283 62 r aux;
#X obj 236 250 r~ inL;
#X obj 283 249 r~ inR;
#X obj 358 507 tabwrite~ newsample;
#X obj 343 63 r fs;
#X obj 466 285 s led;
#X msg 459 208 0;
#X obj 286 137 sel 1 0;
#X obj 482 256 timer;
#X obj 535 376 s dur;
#X obj 516 295 * 44.1;
#X obj 355 409 *~;
#X obj 403 377 line~;
#X msg 335 250 1 1;
#X msg 426 207 0 2;
#X msg 364 251 1;
#X text 858 346 time length of recording in samples;
#X text 16 25 records as long as aux button or foot switch are held
down;
#X text 82 46 max 2 seconds;
#X obj 16 206 delay 2;
#X msg 99 318 stop;
#X obj 17 465 soundfiler;
#X obj 15 241 t b b;
#X obj 18 345 i;
#X obj 31 286 r dur;
#X msg 515 190 stop;
#X obj 208 175 t b b b b b;
#X msg 603 232 0;
#X obj 412 152 t b b b b b;
#X obj 285 88 i;
#X obj 285 110 change;
#X text 347 102 don't do things twice;
#X text 602 260 autostopper;
#X obj 509 215 delay 60000;
#X obj 533 350 expr if($f1 < 4410 \, 4410 \, $f1);
#X obj 744 272 loadbang;
#X obj 744 330 soundfiler;
#X text 865 371 it must be at least 4410 cause this;
#X text 874 401 is what the player assumes;
#X obj 570 -17 inlet;
#X msg 704 40 \; readout 1 \; Scales resize 16 \; Scales bounds 0 0
16 127 \; Scales xlabel 140 0 2 4 6 8 10 12 14 16 \; Scales ylabel
-1 10 20 30 40 50 60 70 80 90 100 110 120 \; Scales 0 11 64 59 23 59
3 23 59 100 121 21 38 54 11 122 22 \;;
#X obj 503 13 pack s;
#X msg 149 481 set obj 20 50 \$1;
#X msg 178 517 obj 20 50 sousos;
#X msg 744 300 read ../../PROD_SAMPLES/\$1.wav \$1;
#X msg 528 89 set set \$1;
#X msg 21 395 write -wave -nframes 146000 ../../PROD_SAMPLES/\$1.wav
\$1;
#X connect 0 0 4 0;
#X connect 1 0 30 0;
#X connect 2 0 12 0;
#X connect 3 0 12 0;
#X connect 5 0 30 0;
#X connect 7 0 6 0;
#X connect 8 0 27 0;
#X connect 8 1 29 0;
#X connect 9 0 11 0;
#X connect 11 0 35 0;
#X connect 12 0 4 0;
#X connect 13 0 12 1;
#X connect 14 0 13 0;
#X connect 15 0 13 0;
#X connect 16 0 6 0;
#X connect 20 0 23 0;
#X connect 21 0 4 0;
#X connect 23 0 24 0;
#X connect 23 1 21 0;
#X connect 24 0 47 0;
#X connect 25 0 24 1;
#X connect 26 0 34 0;
#X connect 27 0 0 0;
#X connect 27 1 14 0;
#X connect 27 2 16 0;
#X connect 27 3 9 0;
#X connect 27 4 34 0;
#X connect 28 0 30 0;
#X connect 29 0 20 0;
#X connect 29 1 15 0;
#X connect 29 2 7 0;
#X connect 29 3 9 1;
#X connect 29 4 26 0;
#X connect 30 0 31 0;
#X connect 31 0 8 0;
#X connect 34 0 28 0;
#X connect 35 0 10 0;
#X connect 36 0 45 0;
#X connect 37 0 35 0;
#X connect 40 0 46 0;
#X connect 40 0 42 0;
#X connect 42 0 47 0;
#X connect 42 0 45 0;
#X connect 42 0 43 0;
#X connect 43 0 44 0;
#X connect 45 0 37 0;
#X connect 46 0 4 0;
#X connect 47 0 22 0;
#X restore 49 371 pd record-load-sample;
#X obj 39 645 samplervoice;
#X msg 1223 885 3: Start Point \$1 %;
#X msg 1369 883 4: Duration \$1 %;
#X msg 17 98 \; screenLine1 1: Speed \; screenLine2 2: Modulation \;
screenLine3 3: Start Point \; screenLine4 4: Duration \; screenLine5
Aux/FS: Hold to REC \;;
#X obj 1086 868 - 100;
#X obj 1082 797 * 201;
#X obj 1004 961 * 100;
#X obj 1004 986 i;
#X obj 1004 1021 change -1;
#X msg 1004 1051 2: Modulation \$1 %;
#X obj 1004 1079 s screenLine2;
#N canvas 0 50 450 300 (subpatch) 0;
#X array newsample_copy 2.646e+06 float 0;
#X coords 0 1.02 2.646e+06 -1.02 200 130 1 0 0;
#X restore 1287 49 graph;
#N canvas 0 50 450 300 (subpatch) 0;
#X array newsample 146000 float 0;
#X coords 0 0.5 145999 -0.5 200 200 1 0 0;
#X restore 522 33 graph;
#X text 87 341 file name;
#X msg 51 333 sousos;
#N canvas 1078 190 450 300 \$0-arrays 0;
#X obj 30 0 array define 0;
#X obj 30 1 array define 0;
#X obj 30 1 array define 0;
#X restore 206 458 pd \$0-arrays;
#X obj 107 447 s pd-\$0-arrays;
#X msg 104 401 obj 30 1 array define \$1;
#N canvas 0 22 450 300 (subpatch) 0;
#X array Sample 88200 float 0;
#X coords 0 1 88199 -1 300 100 1 0 0;
#X restore 549 443 graph;
#X obj 754 339 soundfiler;
#X msg 768 267 write -aiff /tmp/foo1 array2;
#X floatatom 754 363 0 0 0 0 - - -;
#X msg 768 314 write -nextstep -bytes 4 /tmp/foo3 array1 array2;
#X msg 767 291 write -wave -nframes 10000 /tmp/foo2 array2;
#X obj 831 364 print;
#X obj 800 65 r CurrentSample;
#X msg 751 178 read -resize ~/GIT_LOCAL_WORKING/PROD_SAMPLES/image6_w_jpg.wav
Sample;
#X msg 777 149 set read -resize \$1 Sample;
#X msg 836 98 ~/GIT_LOCAL_WORKING/PROD_SAMPLES/image6_w_jpg.wav;
#X obj 832 125 pack s;
#X obj 785 98 t b b;
#X obj 155 644 samplervoice;
#X obj 87 676 samplervoice;
#X obj 109 703 samplervoice;
#X obj 197 676 samplervoice;
#X obj 225 702 samplervoice;
#X connect 0 0 39 0;
#X connect 4 0 51 0;
#X connect 5 0 40 0;
#X connect 7 0 8 0;
#X connect 8 0 14 0;
#X connect 9 0 7 0;
#X connect 10 0 11 0;
#X connect 11 0 13 0;
#X connect 12 0 10 0;
#X connect 13 0 50 0;
#X connect 14 0 49 0;
#X connect 17 0 18 0;
#X connect 18 0 52 0;
#X connect 19 0 53 0;
#X connect 21 0 22 0;
#X connect 21 0 41 0;
#X connect 22 0 23 0;
#X connect 24 0 20 0;
#X connect 25 0 34 0;
#X connect 25 0 34 1;
#X connect 26 0 35 1;
#X connect 26 0 35 0;
#X connect 27 0 28 0;
#X connect 28 0 29 0;
#X connect 29 0 25 0;
#X connect 30 0 26 0;
#X connect 31 0 30 0;
#X connect 31 0 27 0;
#X connect 31 0 54 0;
#X connect 32 0 33 0;
#X connect 33 0 38 0;
#X connect 34 0 36 0;
#X connect 35 0 33 1;
#X connect 36 0 32 0;
#X connect 38 0 37 0;
#X connect 39 0 5 0;
#X connect 39 1 5 1;
#X connect 39 2 5 2;
#X connect 40 0 48 0;
#X connect 40 1 80 0;
#X connect 40 2 81 0;
#X connect 40 3 79 0;
#X connect 40 4 82 0;
#X connect 40 5 83 0;
#X connect 42 0 1 0;
#X connect 42 0 2 0;
#X connect 48 0 42 0;
#X connect 49 0 16 0;
#X connect 50 0 15 0;
#X connect 52 0 24 0;
#X connect 53 0 17 0;
#X connect 54 0 55 0;
#X connect 55 0 56 0;
#X connect 56 0 57 0;
#X connect 57 0 58 0;
#X connect 62 0 47 0;
#X connect 62 0 65 0;
#X connect 65 0 64 0;
#X connect 67 0 69 0;
#X connect 67 1 72 0;
#X connect 68 0 67 0;
#X connect 70 0 67 0;
#X connect 71 0 67 0;
#X connect 73 0 76 0;
#X connect 73 0 78 0;
#X connect 74 0 67 0;
#X connect 75 0 74 0;
#X connect 76 0 77 0;
#X connect 77 0 75 0;
#X connect 78 0 74 0;
#X connect 78 1 76 0;
#X connect 79 0 42 0;
#X connect 80 0 42 0;
#X connect 81 0 42 0;
#X connect 82 0 42 0;
#X connect 83 0 42 0;
