#N canvas 248 73 904 620 10;
#X obj -200 9 r~ inL;
#X obj -158 9 r~ inR;
#X obj 157 276 freeverb~;
#X msg 157 217 freeze \$1;
#X obj -135 548 throw~ outR;
#X obj -207 548 throw~ outL;
#X obj 156 37 r aux;
#X obj 156 63 i 0;
#X obj 226 89 + 1;
#X obj 156 89 sel 1;
#X obj 199 37 r fs;
#X obj 156 115 % 2;
#X msg 232 217 wet 1;
#X obj -113 358 *~;
#X obj 172 453 loadbang;
#X obj -98 415 r knob1;
#X obj 409 542 s led;
#X obj 287 161 r knob3;
#X obj 232 161 r knob4;
#X obj -113 332 line~;
#X obj -92 170 r knob2;
#X obj -113 450 *~;
#X msg 287 217 dry 1;
#X obj -113 306 pack;
#X obj -92 196 expr $f1 * 5000 + 25;
#X obj 343 161 loadbang;
#X obj 47 541 s screenLine2;
#X msg 47 517 2: Ramp Time \$1 ms;
#X msg 411 217 roomsize 1;
#X obj 47 494 int;
#X msg 485 217 width 0;
#X msg 343 217 damping 1;
#X msg 172 479 \; screenLine1 1: Sustain Volume \; screenLine2 2: Ramp
Time \; screenLine3 3: Dry \; screenLine4 4: Wet \; screenLine5 Aux:
Toggle Sustain \;;
#X connect 0 0 2 0;
#X connect 0 0 5 0;
#X connect 1 0 2 1;
#X connect 1 0 4 0;
#X connect 2 0 13 1;
#X connect 2 1 13 1;
#X connect 3 0 2 0;
#X connect 6 0 9 0;
#X connect 7 0 8 0;
#X connect 7 0 11 0;
#X connect 8 0 7 1;
#X connect 9 0 7 0;
#X connect 10 0 9 0;
#X connect 11 0 3 0;
#X connect 11 0 16 0;
#X connect 11 0 23 0;
#X connect 12 0 2 0;
#X connect 13 0 21 0;
#X connect 14 0 32 0;
#X connect 15 0 21 1;
#X connect 17 0 22 0;
#X connect 18 0 12 0;
#X connect 19 0 13 0;
#X connect 20 0 24 0;
#X connect 21 0 5 0;
#X connect 21 0 4 0;
#X connect 22 0 2 0;
#X connect 23 0 19 0;
#X connect 24 0 23 1;
#X connect 24 0 29 0;
#X connect 25 0 31 0;
#X connect 25 0 28 0;
#X connect 25 0 30 0;
#X connect 27 0 26 0;
#X connect 28 0 2 0;
#X connect 29 0 27 0;
#X connect 30 0 2 0;
#X connect 31 0 2 0;
