#N canvas 0 0 1276 643 24;
#X obj 37 257 noise~;
#X floatatom 375 259 5 0 120 1 filter_q - -;
#X floatatom 202 257 5 22 999 1 frequency - -;
#X obj 113 284 vcf~ 99;
#X obj 111 119 phasor~;
#X floatatom 114 86 5 0 0 0 - - -;
#X obj 111 174 *~;
#X floatatom 140 147 5 0 0 0 - - -;
#X obj 112 228 +~ 200;
#X floatatom 175 201 5 0 0 0 - - -;
#X obj 112 325 env~;
#X floatatom 112 356 5 0 0 0 - - -;
#X obj 24 -230 loadbang;
#X obj 20 -194 s G_loadbang;
#X obj 174 -192 r G_loadbang;
#X obj 131 -269 bng 66 250 50 0 empty empty empty 17 7 0 66 -260097
-1 -1;
#X obj 134 -88 s metroPluck;
#X obj 115 385 hsl 128 15 0 127 0 0 empty empty empty -2 -8 0 10 -262144
-1 -1 5683 1;
#X obj 177 -121 metro 33;
#X floatatom 1674 672 5 0 120 1 filter_q - -;
#X floatatom 1681 643 5 22 999 1 frequency VCFcentralFreq -;
#X obj 1585 683 vcf~ 99;
#X obj 1560 540 phasor~;
#X floatatom 1560 503 5 0 0 1 phasorVoiceTune phasorVoiceTune -;
#X obj 1569 577 *~;
#X floatatom 1771 552 5 0 0 0 phasorTune phasorTune -;
#X obj 1568 607 +~ 200;
#X floatatom 1666 584 5 0 0 0 - phasorVol -;
#X obj 1874 707 +~;
#X obj 1911 664 delread~ delayline1 1000;
#X obj 1963 772 *~;
#X obj 1963 805 s~ feedback;
#X floatatom 1991 713 5 0 0 0 - feedbackAmount -;
#X obj 1992 742 / 100;
#X obj 1613 746 r~ feedback;
#X obj 1582 778 +~;
#X obj 276 -119 metro 500;
#X obj 280 -83 random 13;
#X obj 280 -49 * 100;
#X obj 280 -17 s phasorSpeed;
#X obj 1581 809 delwrite~ delayline1 1000;
#X obj 160 -11 mod 4;
#X text 203 286 vltgCntrlFltr;
#X obj 429 -326 r G_loadbang;
#X obj 956 -300 cnv 15 550 500 empty empty pitchControl 20 12 0 25
-204786 -66577 0;
#X floatatom 1308 -66 5 0 1000 1 filterQsharpness filterQsharpness
-;
#X floatatom 1255 -98 5 22 999 1 filterFreqNotch filterFreqNotch -
;
#X obj 1215 -249 phasor~;
#X floatatom 1215 -284 5 0 0 1 phasorSpeedSweep phasorSpeedSweep -
;
#X floatatom 1268 -213 5 0 0 1 phasorTuneControl phasorTuneControl
-;
#X floatatom 1280 -156 5 0 0 1 phasorAmp phasorAmp -;
#X obj 1181 -2 env~;
#X floatatom 1183 31 5 0 0 0 - - -;
#X obj 1263 -3 snapshot~;
#X floatatom 1265 35 5 0 0 0 - - -;
#X obj 1237 -31 r metroPluck;
#X obj 1268 68 vsl 15 128 -1 1 0 0 empty empty empty 0 -9 0 10 -262144
-1 -1 6711 1;
#X obj 1184 70 vsl 15 128 0 127 0 0 empty empty empty 0 -9 0 10 -262144
-1 -1 8312 1;
#X obj 1080 1 bp~;
#X obj 1228 -183 *~;
#X obj 1228 -125 +~;
#X obj 1218 -67 vcf~ 99;
#X floatatom 193 -152 5 50 5000 0 - - -;
#X msg 571 342 \; voicePitch 133 \; voiceTuneControl 0.78 \; voiceAmp
0.18 \; voiceFreqNotch 340 \; voiceFilterQsharpness 1110 \; voiceEnvSize
1024 \; voiceEnvSampleSize 8192 \;;
#X msg 431 -292 \; phasorSpeedSweep 1.16 \; phasorTuneControl 222 \;
filterQsharpness 1110 \; filterFreqNotch 111 \; phasorAmp 100 \;;
#X obj 1000 48 env~;
#X floatatom 1002 81 5 0 0 0 - - -;
#X obj 1003 120 vsl 15 128 0 127 0 0 empty empty empty 0 -9 0 10 -262144
-1 -1 12700 1;
#X obj 1072 45 snapshot~;
#X floatatom 1074 83 5 0 0 0 - - -;
#X obj 1077 116 vsl 15 128 -1 1 0 0 empty empty empty 0 -9 0 10 -262144
-1 -1 12700 1;
#X msg 431 -150 \; phasorSpeedSweep 1.16 \; phasorTuneControl 222 \;
filterQsharpness 1110 \; filterFreqNotch 240 \; phasorAmp 100 \;;
#X msg 331 -292 \; pd dsp 1;
#X obj 1042 778 mtof;
#X obj 1175 782 bng 15 250 50 0 empty empty empty 17 7 0 10 -262144
-1 -1;
#X obj 1243 847 line~;
#X obj 1244 776 bng 15 250 50 0 empty empty empty 17 7 0 10 -262144
-1 -1;
#X obj 1038 715 unpack;
#X obj 1176 749 sel 0;
#X obj 1043 671 inlet;
#X obj 1046 821 osc~ 440;
#X obj 1104 903 *~;
#X floatatom 981 746 5 0 0 0 - - -;
#X floatatom 1101 751 5 0 0 0 - - -;
#X msg 1178 849 0 \$1;
#X obj 1175 803 3333;
#X msg 1243 802 1 444;
#X text 1265 750 release;
#X obj -67 -89 metro 33;
#X floatatom -62 -152 5 1 200 1 bmp bpm -;
#X obj -68 -54 s bmpBang;
#X obj 1026 523 r bmpBang;
#X obj 981 629 bng 15 250 50 0 empty empty empty 17 7 0 10 -262144
-1 -1;
#X floatatom 895 758 5 0 0 0 - - -;
#X obj 895 641 bng 15 250 50 0 empty empty empty 17 7 0 10 -262144
-1 -1;
#X obj 790 556 r bmpBang;
#X obj 785 597 random 200;
#X obj 1021 564 random 700 800;
#X msg 713 -292 \; delayTime 300 \; feedbackAmount 111 \; VCFcentralFreq
173 \; phasorTune 333 \; bpm 76 \;;
#X connect 0 0 3 0;
#X connect 1 0 3 2;
#X connect 2 0 3 1;
#X connect 3 0 10 0;
#X connect 4 0 6 0;
#X connect 5 0 4 0;
#X connect 6 0 8 0;
#X connect 7 0 6 1;
#X connect 8 0 3 1;
#X connect 9 0 8 1;
#X connect 10 0 11 0;
#X connect 11 0 17 0;
#X connect 12 0 13 0;
#X connect 14 0 18 0;
#X connect 14 0 36 0;
#X connect 14 0 88 0;
#X connect 15 0 13 0;
#X connect 18 0 16 0;
#X connect 19 0 21 2;
#X connect 20 0 21 1;
#X connect 21 0 28 0;
#X connect 21 0 35 0;
#X connect 22 0 24 0;
#X connect 23 0 22 0;
#X connect 24 0 26 0;
#X connect 25 0 24 1;
#X connect 26 0 21 0;
#X connect 27 0 26 1;
#X connect 29 0 28 1;
#X connect 29 0 30 0;
#X connect 30 0 31 0;
#X connect 32 0 33 0;
#X connect 33 0 30 1;
#X connect 34 0 35 1;
#X connect 35 0 40 0;
#X connect 36 0 37 0;
#X connect 37 0 38 0;
#X connect 38 0 39 0;
#X connect 43 0 64 0;
#X connect 43 0 98 0;
#X connect 43 0 72 0;
#X connect 45 0 61 2;
#X connect 46 0 61 1;
#X connect 47 0 59 0;
#X connect 48 0 47 0;
#X connect 49 0 59 1;
#X connect 50 0 60 1;
#X connect 51 0 52 0;
#X connect 52 0 57 0;
#X connect 53 0 54 0;
#X connect 54 0 56 0;
#X connect 55 0 53 0;
#X connect 55 0 68 0;
#X connect 58 0 65 0;
#X connect 58 0 68 0;
#X connect 59 0 60 0;
#X connect 60 0 61 0;
#X connect 60 0 58 0;
#X connect 61 0 51 0;
#X connect 61 0 53 0;
#X connect 62 0 18 1;
#X connect 65 0 66 0;
#X connect 66 0 67 0;
#X connect 68 0 69 0;
#X connect 69 0 70 0;
#X connect 73 0 80 0;
#X connect 74 0 85 0;
#X connect 75 0 81 1;
#X connect 76 0 86 0;
#X connect 77 0 73 0;
#X connect 77 0 82 0;
#X connect 77 1 78 0;
#X connect 77 1 83 0;
#X connect 78 0 74 0;
#X connect 78 1 76 0;
#X connect 79 0 77 0;
#X connect 80 0 81 0;
#X connect 84 0 75 0;
#X connect 85 0 84 0;
#X connect 86 0 75 0;
#X connect 88 0 90 0;
#X connect 89 0 88 1;
#X connect 91 0 97 0;
#X connect 95 0 96 0;
#X connect 96 0 94 0;
#X connect 96 0 93 0;
#X connect 97 0 82 0;
#X connect 97 0 92 0;
