#N canvas 0 0 1912 978 24;
#X obj 149 357 throw~ outL;
#X obj 323 362 throw~ outR;
#X obj 201 80 r notes;
#X obj 328 79 r notes_seq;
#X obj 1567 611 loadbang;
#X text 1567 581 screen lines;
#X obj 675 309 sig~;
#X obj 675 331 lop~ 5;
#X obj 675 287 r knob4;
#X obj 675 353 s~ knob4-smooth;
#X obj 203 125 unpack 0 0;
#X obj 203 194 pack 0 0 0;
#X obj 200 228 route 1 2 3 4;
#X obj 705 142 sequencer2;
#X obj 397 261 voice;
#X obj 413 103 r zero_notes;
#X obj 308 265 voice;
#X obj 133 261 voice;
#X obj 223 262 voice;
#X msg 1567 640 \; screenLine1 1: Harmonic \; screenLine2 2: Frequency
\; screenLine3 3: Random Junk \; screenLine4 4: Slidiness \; screenLine5
Aux: Sequencer \;;
#X obj 204 156 poly 4 1;
#X obj 78 620 r knob1;
#X obj 681 702 sig~;
#X obj 681 724 lop~ 5;
#X obj 368 627 r knob2;
#X obj 681 680 r knob3;
#X obj 1030 612 r knob4;
#X obj 20 831 s screenLine1;
#X obj 20 755 i;
#X obj 318 762 i;
#X obj 647 819 i;
#X obj 1004 705 i;
#X obj 318 838 s screenLine2;
#X obj 632 913 s screenLine3;
#X obj 1004 781 s screenLine4;
#X text 330 412 smooth knobs 1-3 \, send param updates to screen;
#X obj 80 686 sig~;
#X obj 80 708 lop~ 5;
#X obj 371 659 sig~;
#X obj 371 681 lop~ 5;
#X obj 81 730 s~ knob1-smooth;
#X obj 377 706 s~ knob2-smooth;
#X obj 681 746 s~ knob3-smooth;
#X obj 19 689 * 100;
#X obj 14 723 % 12;
#X msg 20 804 1: Harmonic \$1;
#X msg 321 812 2: Base Freq \$1 Hz;
#X obj 321 668 * 10;
#X obj 316 735 * 65.4064;
#X obj 681 789 * 500;
#X msg 632 888 3: \$1 ms of Junk;
#X msg 1007 754 4: Slidiness \$1 %;
#X obj 1005 661 * 100;
#X text 164 612 comment;
#X obj 1004 728 change -1;
#X obj 632 860 change -1;
#X obj 321 786 change -1;
#X obj 20 778 change -1;
#X obj 201 317 *~ 0.5;
#X obj 924 109 noise~;
#X text 876 74 white noise;
#X obj 1137 227 dac~ 1 2;
#X floatatom 1276 110 5 0 120 1 filter_q - -;
#X floatatom 1275 71 5 22 999 1 frequency - -;
#X obj 1075 168 vcf~ 99;
#X obj 1058 21 phasor~;
#X floatatom 1075 -22 5 0 0 0 - - -;
#X obj 1059 62 *~;
#X floatatom 1158 25 5 0 0 0 - - -;
#X obj 1059 114 +~ 200;
#X text 1011 345 voltage controlled filter left outlet is BP \, right
low filter;
#X floatatom 1154 84 5 0 0 0 - - -;
#X obj 1140 267 env~;
#X floatatom 1150 313 5 0 0 0 - - -;
#X text 1168 -19 phaser speed;
#X obj 857 266 snapshot~;
#X floatatom 900 296 5 0 0 0 - - -;
#X obj 846 206 r metroPluck;
#X obj 535 -182 loadbang;
#X obj 537 -133 s G_loadbang;
#X obj 595 42 r G_loadbang;
#X obj 648 -204 bng 66 250 50 0 empty empty empty 17 7 0 66 -260097
-1 -1;
#X obj 745 4 s metroPluck;
#X obj 922 357 vsl 15 128 -1 1 0 0 empty empty empty 0 -9 0 10 -262144
-1 -1 12700 1;
#X obj 1034 432 hsl 128 15 0 127 0 0 empty empty empty -2 -8 0 10 -262144
-1 -1 7384 1;
#X obj 654 -33 metro 33;
#X obj 1783 40 dac~ 1 2;
#X floatatom 1922 -77 5 0 120 1 filter_q - -;
#X floatatom 1911 -123 5 22 999 1 frequency - -;
#X obj 1721 -19 vcf~ 99;
#X obj 1704 -166 phasor~;
#X floatatom 1721 -209 5 0 0 0 - - -;
#X obj 1705 -125 *~;
#X floatatom 1804 -162 5 0 0 0 - - -;
#X obj 1705 -73 +~ 200;
#X text 1657 158 voltage controlled filter left outlet is BP \, right
low filter;
#X floatatom 1800 -103 5 0 0 0 - - -;
#X obj 1786 80 env~;
#X floatatom 1796 126 5 0 0 0 - - -;
#X text 1814 -206 phaser speed;
#X obj 1525 54 snapshot~;
#X floatatom 1568 84 5 0 0 0 - - -;
#X obj 1507 -176 r metroPluck;
#X obj 1590 145 vsl 15 128 -1 1 0 0 empty empty empty 0 -9 0 10 -262144
-1 -1 7664 1;
#X obj 1680 245 hsl 128 15 0 127 0 0 empty empty empty -2 -8 0 10 -262144
-1 -1 8157 1;
#X obj 2535 165 dac~ 1 2;
#X floatatom 2705 -47 5 0 120 1 filter_q - -;
#X floatatom 2694 -93 5 22 999 1 frequency - -;
#X obj 2504 11 vcf~ 99;
#X obj 2487 -136 phasor~;
#X floatatom 2504 -179 5 0 0 0 - - -;
#X obj 2488 -95 *~;
#X floatatom 2587 -132 5 0 0 0 - - -;
#X obj 2488 -43 +~ 200;
#X floatatom 2583 -73 5 0 0 0 - - -;
#X text 2597 -176 phaser speed;
#X obj 2563 109 +~;
#X obj 2202 64 delwrite~ delayline1 100000;
#X obj 2631 49 delread~ delayline1 1000;
#X obj 2721 233 *~;
#X obj 2715 302 s~ feedback;
#X floatatom 2739 142 5 0 0 0 - - -;
#X obj 2741 196 / 100;
#X obj 2185 -50 r~ feedback;
#X obj 2193 16 +~;
#X msg 2160 319 \; delayTime 300 \; feedbackAmount;
#X obj 2150 248 loadbang;
#X connect 2 0 10 0;
#X connect 3 0 10 0;
#X connect 4 0 19 0;
#X connect 6 0 7 0;
#X connect 7 0 9 0;
#X connect 8 0 6 0;
#X connect 10 0 20 0;
#X connect 10 1 20 1;
#X connect 11 0 12 0;
#X connect 12 0 17 0;
#X connect 12 1 18 0;
#X connect 12 2 16 0;
#X connect 12 3 14 0;
#X connect 14 0 58 0;
#X connect 15 0 10 0;
#X connect 16 0 58 0;
#X connect 17 0 58 0;
#X connect 18 0 58 0;
#X connect 20 0 11 0;
#X connect 20 1 11 1;
#X connect 20 2 11 2;
#X connect 21 0 36 0;
#X connect 21 0 43 0;
#X connect 22 0 23 0;
#X connect 23 0 42 0;
#X connect 24 0 38 0;
#X connect 24 0 47 0;
#X connect 25 0 22 0;
#X connect 25 0 49 0;
#X connect 26 0 52 0;
#X connect 28 0 57 0;
#X connect 29 0 56 0;
#X connect 30 0 55 0;
#X connect 31 0 54 0;
#X connect 36 0 37 0;
#X connect 37 0 40 0;
#X connect 38 0 39 0;
#X connect 39 0 41 0;
#X connect 43 0 44 0;
#X connect 44 0 28 0;
#X connect 45 0 27 0;
#X connect 46 0 32 0;
#X connect 47 0 48 0;
#X connect 48 0 29 0;
#X connect 49 0 30 0;
#X connect 50 0 33 0;
#X connect 51 0 34 0;
#X connect 52 0 31 0;
#X connect 54 0 51 0;
#X connect 55 0 50 0;
#X connect 56 0 46 0;
#X connect 57 0 45 0;
#X connect 58 0 0 0;
#X connect 58 0 1 0;
#X connect 59 0 64 0;
#X connect 62 0 64 2;
#X connect 63 0 64 1;
#X connect 64 0 72 0;
#X connect 65 0 67 0;
#X connect 66 0 65 0;
#X connect 67 0 69 0;
#X connect 68 0 67 1;
#X connect 69 0 64 1;
#X connect 69 0 75 0;
#X connect 71 0 69 1;
#X connect 72 0 73 0;
#X connect 73 0 84 0;
#X connect 75 0 76 0;
#X connect 76 0 83 0;
#X connect 77 0 75 0;
#X connect 78 0 79 0;
#X connect 80 0 85 0;
#X connect 81 0 79 0;
#X connect 85 0 82 0;
#X connect 87 0 89 2;
#X connect 88 0 89 1;
#X connect 89 0 97 0;
#X connect 89 0 100 0;
#X connect 90 0 92 0;
#X connect 91 0 90 0;
#X connect 92 0 94 0;
#X connect 93 0 92 1;
#X connect 94 0 89 0;
#X connect 96 0 94 1;
#X connect 97 0 98 0;
#X connect 98 0 104 0;
#X connect 100 0 101 0;
#X connect 101 0 103 0;
#X connect 102 0 100 0;
#X connect 106 0 108 2;
#X connect 107 0 108 1;
#X connect 108 0 116 0;
#X connect 108 0 124 0;
#X connect 109 0 111 0;
#X connect 110 0 109 0;
#X connect 111 0 113 0;
#X connect 112 0 111 1;
#X connect 113 0 108 0;
#X connect 114 0 113 1;
#X connect 116 0 105 0;
#X connect 116 0 105 1;
#X connect 118 0 116 1;
#X connect 118 0 119 0;
#X connect 119 0 120 0;
#X connect 121 0 122 0;
#X connect 122 0 119 1;
#X connect 123 0 124 1;
#X connect 124 0 117 0;
#X connect 126 0 125 0;
