#N canvas 0 0 1912 978 24;
#X declare -lib mrpeach;
#X obj 24 -106 adumpOSC 8000;
#X obj 1092 -119 cnv 15 820 130 empty empty empty 20 12 0 14 -261207
-66577 0;
#X obj 18 -56 unpackOSCstream;
#N canvas 500 255 494 344 META 0;
#X text 12 155 HELP_PATCH_AUTHORS "pd meta" information added by Jonathan
Wilkes for Pd version 0.42.;
#X text 12 25 LICENSE GPL v2 or later;
#X text 12 5 KEYWORDS control list_op;
#X text 12 75 INLET_0 list verbosity paths set;
#X text 12 95 OUTLET_N list;
#X text 12 115 OUTLET_R list;
#X text 12 135 AUTHOR Martin Peach;
#X text 12 45 DESCRIPTION routes lists as OSC packets.;
#X restore 2012 742 pd META;
#X obj 195 -104 import mrpeach;
#X msg 388 433 paths;
#X msg 516 432 verbosity \$1;
#X obj 485 442 tgl 15 0 empty empty empty 17 7 0 10 -262144 -1 -1 0
1;
#X obj 340 242 udpreceive 8100;
#X text 1035 -73 comment;
#X text 14 -19 for a way to send OSC over TCP or serial connections.
;
#X obj 340 281 unpackOSC;
#X obj 340 476 routeOSC /test;
#X connect 5 0 12 0;
#X connect 6 0 12 0;
#X connect 7 0 6 0;
#X connect 8 0 11 0;
#X connect 11 0 12 0;
#X coords 0 0 1 1 85 60 0;
