#N canvas 5 203 1912 978 10;
#X obj 92 22 adc~;
#X obj 305 69 *~ 0.6;
#X obj 637 353 dac~;
#X obj 85 148 delwrite~ delayname 222;
#X obj 450 110 delread~ delayname 222;
#X obj 602 213 NoiseFilter;
#X connect 0 0 3 0;
#X connect 1 0 3 0;
#X connect 4 0 1 0;
#X connect 4 0 5 0;
#X connect 5 0 2 0;
#X connect 5 0 2 1;
