#N canvas 0 0 1912 978 24;
#X obj 1634 157 r knob1;
#X obj 1634 310 r knob2;
#X obj 1634 202 int;
#X obj 602 62 tgl 15 0 empty empty empty 17 7 0 10 -262144 -1 -1 1
1;
#X obj 557 -2 r fs;
#X obj 766 195 r~ inL;
#X obj 117 357 r~ inL;
#X obj 1634 507 int;
#X obj 1634 459 r knob3;
#X obj 1636 614 r knob4;
#X obj 1634 574 s screenLine3;
#X obj 658 108 s led;
#X obj 1636 658 int;
#X obj 1636 637 * 100;
#X obj 1636 726 s screenLine4;
#X obj 1634 355 int;
#X obj 1634 333 * 100;
#X obj 1634 422 s screenLine2;
#X obj 23 356 r~ inR;
#X obj 1634 224 change -1;
#X obj 1634 377 change -1;
#X obj 1634 529 change -1;
#X obj 1636 680 change -1;
#X obj 852 197 r~ inR;
#X obj 658 85 * 1;
#X floatatom 1039 331 5 0 0 0 - - -;
#X obj 1035 99 - 60;
#X obj 1039 144 / 24;
#X obj 1040 224 *;
#X obj 1040 191 t f f;
#X obj 1163 450 * 1;
#X obj 620 452 r knob1;
#X obj 832 455 r knob2;
#X obj 1049 450 r knob3;
#X obj 1220 450 r knob4;
#X obj 1634 484 * 100;
#X msg 1634 398 2: Feedback B \$1 %;
#X obj 1634 179 * 100;
#X msg 1634 245 1: Feedback A \$1 % \;;
#X msg 1634 552 3: Feedback C \$1 % \;;
#X msg 1636 702 4: Feedback D \$1 %;
#X obj 544 149 line~;
#X obj 33 502 *~;
#X msg 544 128 \$1 2;
#X obj 544 105 ==;
#X obj 602 257 line~;
#X msg 602 230 \$1 2;
#X obj 845 316 *~;
#X text 25 327 audio in (clean audio out);
#X text 747 225 audio in for delays;
#X obj 841 2 loadbang;
#X text 19 40 Delay time set with keys;
#X text 19 23 Quad Delay with independent feedback control;
#X msg 1150 349 Root Delay \$1 ms;
#X text 1236 93 sets lowest 'C' key to 0 ms;
#X text 1194 176 remove this with external MIDI notes;
#X obj 580 534 delay2sec 2;
#X msg 746 42 1;
#X obj 695 -12 bng 15 250 50 0 empty empty empty 17 7 0 10 -262144
-1 -1;
#X obj 1094 546 delay2sec 50;
#X obj 914 546 delay2sec 25;
#X obj 733 540 delay2sec 10;
#X obj 1281 395 print;
#X msg 1170 404;
#X obj 900 717 dac~;
#X obj 336 695 loadbang;
#X obj 300 861 s knob1;
#X obj 634 857 s knob4;
#X obj 527 860 s knob3;
#X obj 410 859 s knob2;
#N canvas 0 0 1912 978 audioIO 0;
#X obj 774 530 dac~;
#X obj 872 225 catch~ outR;
#X obj 667 264 catch~ outL;
#X obj 453 360 adc~;
#X obj 546 439 s~ inR;
#X obj 371 438 s~ inL;
#X obj 748 467 *~;
#X obj 837 469 *~;
#X obj 1120 120 r vol;
#X obj 1071 316 *;
#X obj 1101 256 t f f;
#X obj 1071 344 sig~;
#X obj 1071 370 lop~ 2;
#X obj 743 373 clip~ -1 1;
#X obj 832 373 clip~ -1 1;
#X text 424 131 Receives and sends audio to patch. Outgoing audio is
run through a compressor to provide some headroom if things get too
loud. Also sends values to the Organelle's OLED VU meter.;
#X obj 1003 554 vsl 15 128 0 1 0 0 empty empty empty 0 -9 0 10 -262144
-1 -1 0 1;
#X obj 1003 520 r vol;
#X obj 746 328 *~ 0.25;
#X obj 843 327 *~ 0.25;
#X obj 1253 65 vsl 15 128 0 1 0 0 empty empty empty 0 -9 0 10 -262144
-1 -1 0 1;
#X obj 1251 238 s vol;
#X connect 1 0 19 0;
#X connect 2 0 18 0;
#X connect 3 0 5 0;
#X connect 3 1 4 0;
#X connect 6 0 0 0;
#X connect 7 0 0 1;
#X connect 8 0 10 0;
#X connect 9 0 11 0;
#X connect 10 0 9 0;
#X connect 10 1 9 1;
#X connect 11 0 12 0;
#X connect 12 0 7 1;
#X connect 12 0 6 1;
#X connect 13 0 6 0;
#X connect 14 0 7 0;
#X connect 17 0 16 0;
#X connect 18 0 13 0;
#X connect 19 0 14 0;
#X connect 20 0 21 0;
#X restore 52 742 pd audioIO;
#X obj 331 639 bng 15 250 50 0 empty empty empty 17 7 0 10 -262144
-1 -1;
#X text 1325 16 set delay time with keys;
#X floatatom 1039 45 5 0 0 0 - - -;
#X obj 505 454 * 4;
#X obj 745 452 * 3;
#X obj 993 456 * 2;
#X obj 1037 289 * 1000;
#X obj 334 785 0.4;
#X obj 394 784 0.6;
#X obj 456 785 0.8;
#X obj 514 784 0.9;
#X obj 1041 11 44;
#X obj 1226 235 osc~;
#X text 1256 697 OFF;
#X obj 1238 668 vradio 15 1 0 3 tone-radio tone-radio-set empty 0 -6
0 8 -262144 -1 -1 2;
#X floatatom 1238 721 3 0 100 1 - tone-level-set tone-level;
#X text 1264 722 dB;
#X text 1250 644 TEST TONES;
#X text 1255 682 60;
#X text 1255 665 80;
#X text 1232 740 (100 max);
#X connect 0 0 37 0;
#X connect 1 0 16 0;
#X connect 2 0 19 0;
#X connect 3 0 24 0;
#X connect 3 0 44 0;
#X connect 3 0 46 0;
#X connect 4 0 3 0;
#X connect 5 0 47 0;
#X connect 6 0 42 0;
#X connect 7 0 21 0;
#X connect 8 0 35 0;
#X connect 9 0 13 0;
#X connect 12 0 22 0;
#X connect 13 0 12 0;
#X connect 15 0 20 0;
#X connect 16 0 15 0;
#X connect 18 0 42 0;
#X connect 19 0 38 0;
#X connect 20 0 36 0;
#X connect 21 0 39 0;
#X connect 22 0 40 0;
#X connect 23 0 47 0;
#X connect 24 0 11 0;
#X connect 25 0 30 0;
#X connect 25 0 53 0;
#X connect 25 0 74 0;
#X connect 25 0 75 0;
#X connect 25 0 76 0;
#X connect 26 0 27 0;
#X connect 27 0 29 0;
#X connect 28 0 77 0;
#X connect 29 0 28 0;
#X connect 29 1 28 1;
#X connect 30 0 59 1;
#X connect 31 0 56 2;
#X connect 32 0 61 2;
#X connect 33 0 60 2;
#X connect 34 0 59 2;
#X connect 35 0 7 0;
#X connect 36 0 17 0;
#X connect 37 0 2 0;
#X connect 39 0 10 0;
#X connect 40 0 14 0;
#X connect 41 0 42 1;
#X connect 42 0 64 0;
#X connect 42 0 64 1;
#X connect 43 0 41 0;
#X connect 44 0 43 0;
#X connect 45 0 47 1;
#X connect 46 0 45 0;
#X connect 47 0 56 0;
#X connect 47 0 59 0;
#X connect 47 0 60 0;
#X connect 47 0 61 0;
#X connect 50 0 57 0;
#X connect 50 0 82 0;
#X connect 50 0 83 0;
#X connect 53 0 62 0;
#X connect 53 0 63 0;
#X connect 56 0 64 0;
#X connect 56 0 64 1;
#X connect 57 0 3 0;
#X connect 57 0 53 0;
#X connect 58 0 50 0;
#X connect 59 0 64 0;
#X connect 59 0 64 1;
#X connect 60 0 64 0;
#X connect 60 0 64 1;
#X connect 61 0 64 0;
#X connect 61 0 64 1;
#X connect 65 0 78 0;
#X connect 65 0 79 0;
#X connect 65 0 80 0;
#X connect 65 0 81 0;
#X connect 71 0 65 0;
#X connect 73 0 26 0;
#X connect 74 0 56 1;
#X connect 75 0 61 1;
#X connect 76 0 60 1;
#X connect 77 0 25 0;
#X connect 78 0 66 0;
#X connect 79 0 69 0;
#X connect 80 0 68 0;
#X connect 81 0 67 0;
#X connect 82 0 73 0;
#X connect 83 0 64 1;
