#N canvas 952 0 1920 1026 12;
#X msg 234 -61 12;
#X floatatom 172 45 5 0 0 0 Pulse\ Count - - 24;
#X msg 268 -61 32;
#X msg 234 -33 16;
#X msg 202 -61 8;
#X floatatom 172 82 5 0 0 0 Length - - 24;
#X msg 268 -117 28;
#X msg 268 -33 64;
#X msg 85 -94 1;
#X msg 115 -127 2;
#X msg 166 -61 3;
#X msg 166 -33 4;
#X msg 202 -117 5;
#X msg 202 -89 6;
#X msg 202 -33 7;
#X msg 234 -117 9;
#X msg 234 -89 10;
#X msg 268 -89 30;
#X obj 248 47 hradio 30 1 0 17 empty empty \ \ 0\ \ 1\ \ 2\ \ 3\ \ 4\ \ 5\ \ 6\ \ 7\ \ 8\ \ 9\ 10\ 12\ 16\ 28\ 30\ 32\ 64 0 22 0 16 #fcfcfc #000000 #000000 0;
#X msg 40 -149 0;
#X obj 52 -180 sel 0 1 2 3 4 5 6 7 8 9 10 11 12 13 14 15 16;
#X floatatom 57 -35 5 0 0 0 - - - 0;
#X floatatom 848 230 5 0 0 0 - - - 0;
#X obj 812 227 + 35;
#X obj 250 192 hradio 30 1 0 16 empty empty \ \ 1\ \ 2\ \ 3\ \ 4\ \ 5\ \ 6\ \ 7\ \ 8\ \ 9\ 10\ 11\ 12\ 13\ 14\ 15\ 16 0 22 0 16 #fcfcfc #000000 #000000 0;
#X floatatom 173 191 5 0 0 0 Drum\ No. - - 24;
#X obj 217 201 + 1;
#X obj 248 82 hradio 30 1 0 17 empty empty \ \ 0\ \ 1\ \ 2\ \ 3\ \ 4\ \ 5\ \ 6\ \ 7\ \ 8\ \ 9\ 10\ 12\ 16\ 28\ 30\ 32\ 64 0 22 0 16 #fcfcfc #000000 #000000 0;
#X msg 595 -57 12;
#X msg 629 -57 32;
#X msg 595 -29 16;
#X msg 563 -57 8;
#X msg 629 -113 28;
#X msg 629 -29 64;
#X msg 446 -90 1;
#X msg 476 -123 2;
#X msg 527 -57 3;
#X msg 527 -29 4;
#X msg 563 -113 5;
#X msg 563 -85 6;
#X msg 563 -29 7;
#X msg 595 -113 9;
#X msg 595 -85 10;
#X msg 629 -85 30;
#X msg 401 -145 0;
#X obj 413 -176 sel 0 1 2 3 4 5 6 7 8 9 10 11 12 13 14 15 16;
#X floatatom 418 -31 5 0 0 0 - - - 0;
#X obj 252 121 hradio 30 1 0 9 empty empty \ \ 0\ \ 1\ \ 2\ \ 3\ \ 4\ \ 5\ \ 6\ \ 7\ \ 8 0 22 0 16 #fcfcfc #000000 #000000 0;
#X floatatom 174 121 5 0 0 0 Offset - - 24;
#X obj 251 156 hradio 30 1 0 9 empty empty \ \ 0\ \ 1\ \ 2\ \ 3\ \ 4\ \ 5\ \ 6\ \ 7\ \ 8 0 22 0 16 #fcfcfc #000000 #000000 0;
#X floatatom 174 156 5 0 0 0 Vel.\ Shuf. - - 24;
#X obj 252 229 hradio 30 1 0 16 empty empty \ \ 1\ \ 2\ \ 3\ \ 4\ \ 5\ \ 6\ \ 7\ \ 8\ \ 9\ 10\ 11\ 12\ 13\ 14\ 15\ 16 0 22 0 16 #fcfcfc #000000 #000000 0;
#X floatatom 174 227 5 0 16 0 Channel - - 24;
#X obj 218 237 + 1;
#X floatatom 994 646 5 0 0 0 - - - 0;
#X obj 878 619 bng 16 250 50 0 empty empty empty 0 -8 0 10 #fcfcfc #000000 #000000;
#X obj 1017 586 bng 16 250 50 0 empty empty empty 0 -8 0 10 #fcfcfc #000000 #000000;
#X obj 1105 588 sel 0 1;
#X floatatom 1106 564 5 0 0 0 - - - 0;
#X floatatom 1103 643 5 0 0 0 - - - 0;
#X obj 1081 711 noteout 10;
#N canvas 770 122 833 1026 rhythm_3 0;
#X obj 331 447 outlet;
#X obj 329 351 % \$3;
#X obj 332 317 * \$1;
#X obj 331 383 < \$1;
#X obj 331 259 +;
#X obj 331 281 %;
#X obj 331 405 select 1;
#X floatatom 291 216 5 0 0 0 - - - 0;
#X floatatom 322 176 5 0 0 0 - - - 0;
#X floatatom 385 164 5 0 0 0 - - - 0;
#X obj 305 459 bng 15 250 50 0 empty empty empty 17 7 0 10 #fcfcfc #000000 #000000;
#X obj 556 118 r barLength;
#X obj 113 123 r timeCount;
#X obj 257 72 inlet;
#X obj 404 63 inlet;
#X obj 548 61 inlet;
#X floatatom 514 169 5 0 0 0 - - - 0;
#X connect 1 0 3 0;
#X connect 2 0 1 0;
#X connect 3 0 6 0;
#X connect 4 0 5 0;
#X connect 5 0 2 0;
#X connect 6 0 0 0;
#X connect 6 0 10 0;
#X connect 7 0 4 0;
#X connect 8 0 2 1;
#X connect 8 0 3 1;
#X connect 9 0 4 1;
#X connect 12 0 7 0;
#X connect 13 0 8 0;
#X connect 14 0 9 0;
#X connect 15 0 5 1;
#X connect 15 0 16 0;
#X connect 16 0 5 1;
#X connect 16 0 1 1;
#X coords 0 1026 1 1025 0 0 0;
#X restore 912 586 pd rhythm_3;
#X obj 880 648 random 127;
#X obj 944 676 + 1;
#X obj 1110 619 random 250 250;
#X floatatom 173 7 5 0 16 0 Drum\ Channel - - 24;
#X obj 914 -54 loadbang;
#X obj 846 -92 bng 19 250 50 0 empty empty empty 0 -10 0 12 #fcfcfc #000000 #000000;
#X obj 719 535 s rhythm3;
#X obj 251 8 bng 33 250 50 0 empty rhythm3 empty 0 -10 0 12 #ff0400 #000000 #000000;
#X obj 1044 675 makenote 250 250;
#X msg 914 -29 2;
#X obj 806 110 s length_2;
#X obj 807 148 s offset_2;
#X obj 805 187 s randomV_2;
#X obj 890 230 s note_2;
#X obj 810 264 s channel_2;
#X obj 811 76 s pulse_2;
#X obj 797 535 r pulse_2;
#X obj 918 537 r offset_2;
#X obj 1023 535 r length_2;
#X obj 1104 536 r note_2;
#X obj 1174 541 r randomV_2;
#X obj 1263 539 r channel_2;
#X msg 88 317 \; pulse_2 16 \; length_2 64 \; offset_2 0 \; randomV_2 1 \; note_2 1 \; channel_2 10 \;, f 19;
#X connect 0 0 21 0;
#X connect 1 0 77 0;
#X connect 2 0 21 0;
#X connect 3 0 21 0;
#X connect 4 0 21 0;
#X connect 5 0 72 0;
#X connect 6 0 21 0;
#X connect 7 0 21 0;
#X connect 8 0 21 0;
#X connect 9 0 21 0;
#X connect 10 0 21 0;
#X connect 11 0 21 0;
#X connect 12 0 21 0;
#X connect 13 0 21 0;
#X connect 14 0 21 0;
#X connect 15 0 21 0;
#X connect 16 0 21 0;
#X connect 17 0 21 0;
#X connect 18 0 20 0;
#X connect 19 0 21 0;
#X connect 20 0 19 0;
#X connect 20 1 8 0;
#X connect 20 2 9 0;
#X connect 20 3 10 0;
#X connect 20 4 11 0;
#X connect 20 5 12 0;
#X connect 20 6 13 0;
#X connect 20 7 14 0;
#X connect 20 8 4 0;
#X connect 20 9 15 0;
#X connect 20 10 16 0;
#X connect 20 11 0 0;
#X connect 20 12 3 0;
#X connect 20 13 6 0;
#X connect 20 14 17 0;
#X connect 20 15 2 0;
#X connect 20 16 7 0;
#X connect 21 0 1 0;
#X connect 22 0 75 0;
#X connect 23 0 22 0;
#X connect 24 0 26 0;
#X connect 24 0 23 0;
#X connect 26 0 25 0;
#X connect 27 0 45 0;
#X connect 28 0 46 0;
#X connect 29 0 46 0;
#X connect 30 0 46 0;
#X connect 31 0 46 0;
#X connect 32 0 46 0;
#X connect 33 0 46 0;
#X connect 34 0 46 0;
#X connect 35 0 46 0;
#X connect 36 0 46 0;
#X connect 37 0 46 0;
#X connect 38 0 46 0;
#X connect 39 0 46 0;
#X connect 40 0 46 0;
#X connect 41 0 46 0;
#X connect 42 0 46 0;
#X connect 43 0 46 0;
#X connect 44 0 46 0;
#X connect 45 0 44 0;
#X connect 45 1 34 0;
#X connect 45 2 35 0;
#X connect 45 3 36 0;
#X connect 45 4 37 0;
#X connect 45 5 38 0;
#X connect 45 6 39 0;
#X connect 45 7 40 0;
#X connect 45 8 31 0;
#X connect 45 9 41 0;
#X connect 45 10 42 0;
#X connect 45 11 28 0;
#X connect 45 12 30 0;
#X connect 45 13 32 0;
#X connect 45 14 43 0;
#X connect 45 15 29 0;
#X connect 45 16 33 0;
#X connect 46 0 5 0;
#X connect 47 0 48 0;
#X connect 47 0 73 0;
#X connect 49 0 74 0;
#X connect 51 0 53 0;
#X connect 52 0 76 0;
#X connect 53 0 52 0;
#X connect 54 0 70 0;
#X connect 55 0 54 0;
#X connect 55 0 58 0;
#X connect 56 0 54 0;
#X connect 57 1 64 0;
#X connect 58 0 57 0;
#X connect 59 0 70 1;
#X connect 61 0 55 0;
#X connect 61 0 68 0;
#X connect 62 0 63 0;
#X connect 63 0 54 0;
#X connect 64 0 59 0;
#X connect 66 0 71 0;
#X connect 67 0 71 0;
#X connect 70 0 60 0;
#X connect 70 1 60 1;
#X connect 71 0 65 0;
#X connect 78 0 61 0;
#X connect 79 0 61 1;
#X connect 80 0 61 2;
#X connect 81 0 54 0;
#X connect 82 0 58 0;
#X connect 83 0 60 2;
#X coords 0 -1 1 1 800 300 2 1 1;
