#N canvas 952 0 1920 1026 12;
#X msg 234 -61 12;
#X floatatom 172 45 5 0 0 0 Pulse\ Count - - 24;
#X msg 268 -61 32;
#X msg 234 -33 16;
#X msg 202 -61 8;
#X floatatom 172 82 5 0 0 0 Length - - 24;
#X msg 268 -117 28;
#X msg 268 -33 64;
#X obj 811 76 s pulse_3;
#X obj 806 110 s length_3;
#X msg 85 -94 1;
#X msg 115 -127 2;
#X msg 166 -61 3;
#X msg 166 -33 4;
#X msg 202 -117 5;
#X msg 202 -89 6;
#X msg 202 -33 7;
#X msg 234 -117 9;
#X msg 234 -89 10;
#X msg 268 -89 30;
#X obj 248 47 hradio 30 1 0 17 empty empty \ \ 0\ \ 1\ \ 2\ \ 3\ \ 4\ \ 5\ \ 6\ \ 7\ \ 8\ \ 9\ 10\ 12\ 16\ 28\ 30\ 32\ 64 0 22 0 16 #fcfcfc #000000 #000000 0;
#X msg 40 -149 0;
#X obj 52 -180 sel 0 1 2 3 4 5 6 7 8 9 10 11 12 13 14 15 16;
#X floatatom 57 -35 5 0 0 0 - - - 0;
#X floatatom 848 230 5 0 0 0 - - - 0;
#X obj 812 227 + 35;
#X obj 807 148 s offset_3;
#X obj 890 230 s note_3;
#X obj 805 187 s randomV_3;
#X obj 810 264 s channel_3;
#X obj 250 192 hradio 30 1 0 16 empty empty \ \ 1\ \ 2\ \ 3\ \ 4\ \ 5\ \ 6\ \ 7\ \ 8\ \ 9\ 10\ 11\ 12\ 13\ 14\ 15\ 16 0 22 0 16 #fcfcfc #000000 #000000 0;
#X floatatom 173 191 5 0 0 0 Drum\ No. - - 24;
#X obj 217 201 + 1;
#X obj 248 82 hradio 30 1 0 17 empty empty \ \ 0\ \ 1\ \ 2\ \ 3\ \ 4\ \ 5\ \ 6\ \ 7\ \ 8\ \ 9\ 10\ 12\ 16\ 28\ 30\ 32\ 64 0 22 0 16 #fcfcfc #000000 #000000 0;
#X msg 595 -57 12;
#X msg 629 -57 32;
#X msg 595 -29 16;
#X msg 563 -57 8;
#X msg 629 -113 28;
#X msg 629 -29 64;
#X msg 446 -90 1;
#X msg 476 -123 2;
#X msg 527 -57 3;
#X msg 527 -29 4;
#X msg 563 -113 5;
#X msg 563 -85 6;
#X msg 563 -29 7;
#X msg 595 -113 9;
#X msg 595 -85 10;
#X msg 629 -85 30;
#X msg 401 -145 0;
#X obj 413 -176 sel 0 1 2 3 4 5 6 7 8 9 10 11 12 13 14 15 16;
#X floatatom 418 -31 5 0 0 0 - - - 0;
#X obj 252 121 hradio 30 1 0 9 empty empty \ \ 0\ \ 1\ \ 2\ \ 3\ \ 4\ \ 5\ \ 6\ \ 7\ \ 8 0 22 0 16 #fcfcfc #000000 #000000 0;
#X floatatom 174 121 5 0 0 0 Offset - - 24;
#X obj 251 156 hradio 30 1 0 9 empty empty \ \ 0\ \ 1\ \ 2\ \ 3\ \ 4\ \ 5\ \ 6\ \ 7\ \ 8 0 22 0 16 #fcfcfc #000000 #000000 0;
#X floatatom 174 156 5 0 0 0 Vel.\ Shuf. - - 24;
#X obj 252 229 hradio 30 1 0 16 empty empty \ \ 1\ \ 2\ \ 3\ \ 4\ \ 5\ \ 6\ \ 7\ \ 8\ \ 9\ 10\ 11\ 12\ 13\ 14\ 15\ 16 0 22 0 16 #fcfcfc #000000 #000000 0;
#X floatatom 174 227 5 0 16 0 Channel - - 24;
#X obj 218 237 + 1;
#X floatatom 994 646 5 0 0 0 - - - 0;
#X obj 878 619 bng 16 250 50 0 empty empty empty 0 -8 0 10 #fcfcfc #000000 #000000;
#X obj 1017 586 bng 16 250 50 0 empty empty empty 0 -8 0 10 #fcfcfc #000000 #000000;
#X obj 1105 588 sel 0 1;
#X floatatom 1106 564 5 0 0 0 - - - 0;
#X floatatom 1103 643 5 0 0 0 - - - 0;
#X obj 1081 711 noteout 10;
#X obj 797 535 r pulse_3;
#X obj 918 537 r offset_3;
#X obj 1023 535 r length_3;
#X obj 1104 536 r note_3;
#X obj 1174 541 r randomV_3;
#N canvas 770 122 833 1026 rhythm_3 0;
#X obj 331 447 outlet;
#X obj 329 351 % \$3;
#X obj 332 317 * \$1;
#X obj 331 383 < \$1;
#X obj 331 259 +;
#X obj 331 281 %;
#X obj 331 405 select 1;
#X floatatom 291 216 5 0 0 0 - - - 0;
#X floatatom 322 176 5 0 0 0 - - - 0;
#X floatatom 385 164 5 0 0 0 - - - 0;
#X obj 305 459 bng 15 250 50 0 empty empty empty 17 7 0 10 #fcfcfc #000000 #000000;
#X msg 138 248 1;
#X msg 137 270 2;
#X msg 138 293 3;
#X msg 136 320 4;
#X msg 140 219 0;
#X msg 139 350 8, f 11;
#X obj 556 118 r barLength;
#X obj 412 100 r euc1Offset;
#X obj 291 98 r euc1HitAmt;
#X obj 113 123 r timeCount;
#X obj 257 72 inlet;
#X obj 404 63 inlet;
#X obj 548 61 inlet;
#X floatatom 514 169 5 0 0 0 - - - 0;
#X connect 1 0 3 0;
#X connect 2 0 1 0;
#X connect 3 0 6 0;
#X connect 4 0 5 0;
#X connect 5 0 2 0;
#X connect 6 0 0 0;
#X connect 6 0 10 0;
#X connect 7 0 4 0;
#X connect 8 0 2 1;
#X connect 8 0 3 1;
#X connect 9 0 4 1;
#X connect 11 0 7 0;
#X connect 12 0 7 0;
#X connect 13 0 7 0;
#X connect 14 0 7 0;
#X connect 15 0 7 0;
#X connect 16 0 7 0;
#X connect 20 0 7 0;
#X connect 21 0 8 0;
#X connect 22 0 9 0;
#X connect 23 0 5 1;
#X connect 23 0 24 0;
#X connect 24 0 5 1;
#X connect 24 0 1 1;
#X coords 0 1026 1 1025 0 0 0;
#X restore 912 586 pd rhythm_3;
#X obj 1263 539 r channel_3;
#X obj 880 648 random 127;
#X obj 944 676 + 1;
#X obj 1110 619 random 250 250;
#X floatatom 173 7 5 0 16 0 Drum\ Channel - - 24;
#X obj 914 -54 loadbang;
#X msg 914 -29 3;
#X obj 846 -92 bng 19 250 50 0 empty empty empty 0 -10 0 12 #fcfcfc #000000 #000000;
#X obj 774 596 s rhythm3;
#X obj 251 8 bng 33 250 50 0 empty rhythm3 empty 0 -10 0 12 #ff0400 #000000 #000000;
#X msg 88 317 \; pulse_3 16 \; length_3 64 \; offset_3 0 \; randomV_3 1 \; note_3 35 \; channel_3 1 \;, f 19;
#X floatatom 300 473 5 0 0 0 - - - 0;
#X obj 264 470 + 35;
#X obj 263 319 r pulse_3;
#X obj 258 353 r length_3;
#X obj 259 391 r offset_3;
#X obj 257 430 r randomV_3;
#X obj 342 473 r note_3;
#X obj 262 507 r channel_3;
#X msg 622 691 1;
#X msg 618 715 1;
#X obj 497 811 hradio 19 1 0 127 empty empty empty 0 -10 0 12 #fcfcfc #000000 #000000 0;
#X obj 1044 675 makenote 250 250;
#X connect 0 0 23 0;
#X connect 1 0 8 0;
#X connect 2 0 23 0;
#X connect 3 0 23 0;
#X connect 4 0 23 0;
#X connect 5 0 9 0;
#X connect 6 0 23 0;
#X connect 7 0 23 0;
#X connect 10 0 23 0;
#X connect 11 0 23 0;
#X connect 12 0 23 0;
#X connect 13 0 23 0;
#X connect 14 0 23 0;
#X connect 15 0 23 0;
#X connect 16 0 23 0;
#X connect 17 0 23 0;
#X connect 18 0 23 0;
#X connect 19 0 23 0;
#X connect 20 0 22 0;
#X connect 21 0 23 0;
#X connect 22 0 21 0;
#X connect 22 1 10 0;
#X connect 22 2 11 0;
#X connect 22 3 12 0;
#X connect 22 4 13 0;
#X connect 22 5 14 0;
#X connect 22 6 15 0;
#X connect 22 7 16 0;
#X connect 22 8 4 0;
#X connect 22 9 17 0;
#X connect 22 10 18 0;
#X connect 22 11 0 0;
#X connect 22 12 3 0;
#X connect 22 13 6 0;
#X connect 22 14 19 0;
#X connect 22 15 2 0;
#X connect 22 16 7 0;
#X connect 23 0 1 0;
#X connect 24 0 27 0;
#X connect 25 0 24 0;
#X connect 30 0 32 0;
#X connect 30 0 25 0;
#X connect 32 0 31 0;
#X connect 33 0 51 0;
#X connect 34 0 52 0;
#X connect 35 0 52 0;
#X connect 36 0 52 0;
#X connect 37 0 52 0;
#X connect 38 0 52 0;
#X connect 39 0 52 0;
#X connect 40 0 52 0;
#X connect 41 0 52 0;
#X connect 42 0 52 0;
#X connect 43 0 52 0;
#X connect 44 0 52 0;
#X connect 45 0 52 0;
#X connect 46 0 52 0;
#X connect 47 0 52 0;
#X connect 48 0 52 0;
#X connect 49 0 52 0;
#X connect 50 0 52 0;
#X connect 51 0 50 0;
#X connect 51 1 40 0;
#X connect 51 2 41 0;
#X connect 51 3 42 0;
#X connect 51 4 43 0;
#X connect 51 5 44 0;
#X connect 51 6 45 0;
#X connect 51 7 46 0;
#X connect 51 8 37 0;
#X connect 51 9 47 0;
#X connect 51 10 48 0;
#X connect 51 11 34 0;
#X connect 51 12 36 0;
#X connect 51 13 38 0;
#X connect 51 14 49 0;
#X connect 51 15 35 0;
#X connect 51 16 39 0;
#X connect 52 0 5 0;
#X connect 53 0 54 0;
#X connect 53 0 26 0;
#X connect 55 0 28 0;
#X connect 57 0 59 0;
#X connect 58 0 29 0;
#X connect 59 0 58 0;
#X connect 60 0 95 0;
#X connect 61 0 60 0;
#X connect 61 0 64 0;
#X connect 62 0 60 0;
#X connect 63 1 76 0;
#X connect 64 0 63 0;
#X connect 65 0 95 1;
#X connect 67 0 72 0;
#X connect 68 0 72 1;
#X connect 69 0 72 2;
#X connect 70 0 60 0;
#X connect 71 0 64 0;
#X connect 72 0 61 0;
#X connect 72 0 81 0;
#X connect 73 0 66 2;
#X connect 74 0 75 0;
#X connect 75 0 60 0;
#X connect 76 0 65 0;
#X connect 78 0 79 0;
#X connect 79 0 77 0;
#X connect 80 0 79 0;
#X connect 85 0 84 0;
#X connect 94 0 60 0;
#X connect 95 0 66 0;
#X connect 95 1 66 1;
#X coords 0 -1 1 1 800 300 2 1 1;
