#N canvas -8 0 1920 1026 12;
#N canvas 952 0 1920 1026 clock 0;
#X floatatom 144 584 5 0 0 0 - - - 0;
#X msg 207 580 1;
#X obj 4 6 bng 40 250 50 0 empty empty empty 17 7 0 10 #606060 #dfdfdf #000000;
#X obj 128 611 + 1;
#X obj 48 6 tgl 40 0 empty empty G 8 22 0 40 #606060 #00ff04 #00ff04 0 1;
#X floatatom 348 636 5 0 0 0 - - - 0;
#X obj 350 674 s timeCount;
#X obj 181 540 metro 55, f 16;
#X obj 258 576 loadbang;
#X obj 100 651 s bang;
#X floatatom 584 334 5 0 0 0 - - - 0;
#X floatatom 91 7 5 0 0 0 - - - 36;
#X msg 465 200 24;
#X msg 510 255 50;
#X msg 505 199 55;
#X msg 504 227 60;
#X msg 560 192 70;
#X msg 613 189 80;
#X msg 793 191 200;
#X obj 113 706 expr if($f1 < $f2 \, $f1 \, 0);
#X msg 160 655 64;
#X obj 7 51 hsl 400 40 0 2000 0 0 empty cntrl_speed Speed\ 0\ -\ 2000 22 22 0 40 #606060 #dfdfdf #dfdfdf 0 1;
#X obj 4 70 int;
#X obj 149 95 bng 40 250 50 0 empty empty 200 0 23 0 25 #dfdfdf #000000 #535512;
#X obj 196 95 bng 40 250 50 0 empty empty 300 0 23 0 25 #dfdfdf #000000 #535512;
#X obj 245 95 bng 40 250 50 0 empty empty 400 0 23 0 25 #dfdfdf #000000 #535512;
#X obj 294 95 bng 40 250 50 0 empty empty 500 0 23 0 25 #dfdfdf #000000 #535512;
#X obj 341 95 bng 40 250 50 0 empty empty 600 0 23 0 25 #dfdfdf #000000 #535512;
#X obj 389 95 bng 40 250 50 0 empty empty 700 0 23 0 25 #dfdfdf #000000 #535512;
#X obj 220 173 bng 40 250 50 0 empty empty 800 0 23 0 25 #dfdfdf #000000 #535512;
#X obj 280 173 bng 40 250 50 0 empty empty 1k 0 23 0 25 #dfdfdf #000000 #535512;
#X obj 336 174 bng 40 250 50 0 empty empty 1.4k 0 23 0 25 #dfdfdf #000000 #535512;
#X msg 841 187 300;
#X msg 881 186 400;
#X msg 936 179 500;
#X msg 989 176 600;
#X msg 1043 177 700;
#X msg 1090 175 800;
#X msg 1130 174 900;
#X msg 1185 167 1000;
#X msg 1238 164 1200;
#X msg 1292 165 1400;
#X msg 1341 172 1600;
#X msg 1394 169 1800;
#X msg 1448 170 200;
#X obj 4 95 bng 40 250 50 0 empty empty 120 0 23 0 25 #dfdfdf #000000 #535512;
#X obj 51 95 bng 40 250 50 0 empty empty 130 0 23 0 25 #dfdfdf #000000 #535512;
#X obj 100 95 bng 40 250 50 0 empty empty 150 0 23 0 25 #dfdfdf #000000 #535512;
#X msg 752 190 150;
#X msg 709 193 130;
#X msg 667 190 120;
#X obj 658 360 s cntrl_speed;
#X connect 0 0 3 0;
#X connect 1 0 0 0;
#X connect 2 0 0 0;
#X connect 2 0 9 0;
#X connect 3 0 19 0;
#X connect 4 0 7 0;
#X connect 5 0 3 1;
#X connect 5 0 6 0;
#X connect 7 0 2 0;
#X connect 8 0 1 0;
#X connect 8 0 20 0;
#X connect 10 0 51 0;
#X connect 11 0 7 1;
#X connect 12 0 10 0;
#X connect 13 0 10 0;
#X connect 14 0 10 0;
#X connect 15 0 10 0;
#X connect 16 0 10 0;
#X connect 17 0 10 0;
#X connect 18 0 10 0;
#X connect 19 0 5 0;
#X connect 20 0 19 1;
#X connect 21 0 22 0;
#X connect 22 0 11 0;
#X connect 23 0 18 0;
#X connect 24 0 32 0;
#X connect 25 0 33 0;
#X connect 26 0 34 0;
#X connect 27 0 35 0;
#X connect 28 0 36 0;
#X connect 29 0 37 0;
#X connect 30 0 39 0;
#X connect 31 0 41 0;
#X connect 32 0 10 0;
#X connect 33 0 10 0;
#X connect 34 0 10 0;
#X connect 35 0 10 0;
#X connect 36 0 10 0;
#X connect 37 0 10 0;
#X connect 38 0 10 0;
#X connect 39 0 10 0;
#X connect 40 0 10 0;
#X connect 41 0 10 0;
#X connect 42 0 10 0;
#X connect 43 0 10 0;
#X connect 44 0 10 0;
#X connect 45 0 50 0;
#X connect 46 0 49 0;
#X connect 47 0 48 0;
#X connect 48 0 10 0;
#X connect 49 0 10 0;
#X connect 50 0 10 0;
#X coords 0 -1 1 1 450 480 2 1 1;
#X restore 1413 511 pd clock;
#N canvas -91 201 1920 1026 presets 0;
#X obj 1495 131 bng 44 250 50 0 empty empty 4\ on\ the\ floor 0 11 0 36 #ffc7c6 #000000 #000000;
#X obj 275 388 loadbang;
#X msg 55 43 \; cntrl_length_1 4 \; cntrl_pulse_1 1 \; cntrl_channel_1 10 \; cntrl_note_1 0 \;;
#X msg 216 2 \; cntrl_length_2 8 \; cntrl_pulse_2 5 \; cntrl_offset_2 1 \; cntrl_channel_2 10 \; cntrl_note_2 1 \;;
#X msg 383 4 \; cntrl_length_3 8 \; cntrl_pulse_3 8 \; cntrl_offset_3 0 \; cntrl_channel_3 10 \; cntrl_note_3 2 \;;
#X msg 546 2 \; cntrl_length_4 16 \; cntrl_pulse_4 4 \; cntrl_offset_4 0 \; cntrl_channel_4 10 \; cntrl_note_4 3 \;;
#X msg 57 129 \; cntrl_length_5 64 \; cntrl_pulse_5 64 \; cntrl_channel_5 10 \; cntrl_note_5 4 \;;
#X msg 215 132 \; cntrl_length_6 7 \; cntrl_pulse_6 3 \; cntrl_channel_6 10 \; cntrl_note_6 5 \;;
#X msg 384 135 \; cntrl_length_7 7 \; cntrl_pulse_7 7 \; cntrl_channel_7 10 \; cntrl_note_7 6 \;;
#X msg 545 136 \; cntrl_length_8 64 \; cntrl_pulse_8 1 \; cntrl_offset_8 -1 \; cntrl_channel_8 10 \; cntrl_note_8 7 \;;
#X msg 26 232 \; cntrl_length_1 64 \; \;, f 19;
#X msg 793 51 \; cntrl_channel_1 10 \; cntrl_channel_2 10 \; cntrl_channel_3 10 \; cntrl_channel_4 10 \; cntrl_channel_5 10 \; cntrl_channel_6 10 \; cntrl_channel_7 10 \; cntrl_channel_8 10 \;;
#X msg 964 52 \; cntrl_note_1 0 \; cntrl_note_2 1 \; cntrl_note_3 2 \; cntrl_note_4 3 \; cntrl_note_5 4 \; cntrl_note_6 5 \; cntrl_note_7 6 \; cntrl_note_8 7 \;;
#X msg 1089 50 \; cntrl_length_1 64 \; cntrl_length_2 64 \; cntrl_length_3 64 \; cntrl_length_4 64 \; cntrl_length_5 64 \; cntrl_length_6 64 \; cntrl_length_7 64 \; cntrl_length_8 64 \;;
#X msg 795 187 \; cntrl_pulse_1 16 \; cntrl_pulse_2 64 \; cntrl_pulse_3 64 \; cntrl_pulse_4 64 \; cntrl_pulse_5 64 \; cntrl_pulse_6 64 \; cntrl_pulse_7 64 \; cntrl_pulse_8 1 \; cntrl_offset_8 -1 \;;
#X msg 80 528 \; cntrl_mute_1 1 \; cntrl_mute_2 1 \; cntrl_mute_3 1 \; cntrl_mute_4 1 \; cntrl_mute_5 1 \; cntrl_mute_6 1 \; cntrl_mute_7 1 \; cntrl_mute_8 1 \;;
#X msg 794 379 \; cntrl_pulse_1 23 \; cntrl_pulse_2 56 \; cntrl_pulse_3 23 \; cntrl_pulse_4 33 \; cntrl_pulse_5 61 \; cntrl_pulse_6 23 \; cntrl_pulse_7 6 \; cntrl_pulse_8 1 \; cntrl_offset_8 -1 \;;
#X msg 802 542 \; cntrl_shuffle_1 111 \; cntrl_shuffle_2 111 \; cntrl_shuffle_3 111 \; cntrl_shuffle_4 111 \; cntrl_shuffle_5 111 \; cntrl_shuffle_6 111 \; cntrl_shuffle_7 111 \; cntrl_shuffle_8 111 \; cntrl_offset_8 -1 \;;
#X msg 1331 70 \; pulse_1 16 \; length_1 64 \; offset_1 0 \; note_1 35 \; channel_1 1 \;;
#X msg 224 578 \; cntrl_pulse_1 16 \; cntrl_length_1 64 \; cntrl_offset_1 0 \; cntrl_note_1 40 \; cntrl_channel_1 1 \;, f 19;
#X obj 368 468 bng 19 250 50 0 empty empty empty 0 -10 0 12 #fcfcfc #000000 #000000;
#X msg 475 600 \; cntrl_speed 200;
#X connect 0 0 18 0;
#X connect 1 0 20 0;
#X connect 20 0 19 0;
#X connect 20 0 15 0;
#X connect 20 0 21 0;
#X restore 1726 702 pd presets;
#X obj 437 35 cnv 44 320 470 empty empty Length 4 18 0 36 #e2803f #404040 0;
#X obj 757 35 cnv 44 320 470 empty empty Shuffle 4 18 0 36 #d26045 #404040 0;
#X obj 117 35 cnv 44 320 470 empty empty Pulses 4 18 0 36 #3894bd #404040 0;
#X obj 1077 35 cnv 44 247 470 empty empty Offset 4 18 0 36 #becbd3 #404040 0;
#X obj 1324 35 cnv 50 290 470 empty empty Note 4 18 0 36 #3894bd #404040 0;
#N canvas 1916 0 1920 1026 sequencer 1;
#X floatatom 1964 932 5 0 0 0 - - - 0;
#X obj 1558 218 expr $f1 % ($f2 - $f3) + $f3;
#X obj 1553 152 random 100;
#X obj 1563 110 bng 16 250 50 0 empty empty empty 0 -8 0 10 #fcfcfc #000000 #000000;
#X floatatom 1555 181 5 0 0 0 - - - 0;
#X floatatom 1558 239 5 0 0 0 - - - 0;
#X floatatom 538 739 5 0 0 0 - - - 0;
#X obj 1767 552 % 16;
#X floatatom 1841 176 4 0 127 0 - - - 0;
#X floatatom 1769 577 4 0 9 0 - - - 0;
#X msg 1778 187 60;
#X msg 1640 188 83;
#X obj 1773 500 r timeCount;
#X floatatom 1773 524 10 0 0 0 - - - 0;
#X obj 556 804 noteout 12;
#X obj 1846 304 tabwrite noteArray1;
#X obj 393 627 tabread noteArray1;
#X obj 539 628 tabread velArray1;
#X obj 1848 275 tabwrite velArray1;
#X obj 542 772 makenote 250 250;
#X obj 676 628 tabread lenArray1;
#X obj 1848 333 tabwrite lenArray1;
#X obj 1859 206 * 40;
#X msg 1746 186 0;
#X msg 1675 190 100;
#X obj 1873 605 s loc1;
#X text 1562 42 this is a random number generator that returns a random number between 2 numbers used to get a random number in a note range;
#X obj 1665 112 r max_1;
#X floatatom 1665 136 5 0 0 0 - - - 0;
#X msg 1314 118 1;
#X obj 1332 163 + 1;
#X floatatom 1332 187 5 0 0 0 - - - 0;
#X msg 1407 114 -1;
#X obj 1310 89 r max_1_up;
#X obj 1406 89 r max_1_down;
#X obj 1364 144 r max_1;
#X obj 1332 210 s cntrl_max_1;
#X msg 1312 273 1;
#X obj 1330 318 + 1;
#X floatatom 1330 342 5 0 0 0 - - - 0;
#X msg 1405 269 -1;
#X obj 1308 244 r min_1_up;
#X obj 1404 244 r min_1_down;
#X obj 1362 299 r min_1;
#X obj 1271 396 s cntrl_min_1;
#X obj 1741 118 r min_1;
#X floatatom 1745 151 5 0 0 0 - - - 0;
#X obj 1577 290 s rand_1;
#X obj 1837 119 r rand_1;
#X obj 1978 216 r count_1;
#X obj 1781 607 s count_1;
#X obj 458 598 r count_1;
#X obj 684 659 int;
#X obj 590 661 int;
#X floatatom 590 685 5 0 0 0 - - - 0;
#X floatatom 648 401 3 0 0 3 - - max_1 36;
#X obj 661 416 int;
#X obj 594 399 bng 50 250 50 0 max_1_up empty + 10 25 0 50 #bbbbbb #dfdfdf #606060;
#X obj 718 400 bng 50 250 50 0 max_1_down empty _ 11 0 0 50 #bbbbbb #dfdfdf #606060;
#X text 770 417 max;
#X floatatom 650 517 3 0 0 0 - - min_1 36;
#X obj 668 529 int;
#X obj 595 515 bng 50 250 50 0 min_1_up empty + 10 25 0 50 #bbbbbb #dfdfdf #606060;
#X obj 722 514 bng 50 250 50 0 min_1_down empty _ 10 0 0 50 #bbbbbb #000000 #000000;
#X obj 621 161 vsl 25 225 0 127 0 0 empty cntrl_min_1 empty 0 -9 0 12 #bbbbbb #404040 #000000 0 1;
#X text 774 537 min;
#X floatatom 983 88 5 0 0 0 - - - 0;
#X msg 1073 113 0;
#X msg 1073 140 12;
#X floatatom 1157 300 5 0 0 0 - - - 0;
#X msg 1073 167 24;
#X msg 1073 194 36;
#X msg 1073 221 48;
#X msg 1073 248 60;
#X msg 1073 275 72;
#X msg 1073 302 84;
#X msg 1073 329 96;
#X msg 1073 356 108;
#X obj 1157 334 s cntrl_min_1;
#X obj 1073 86 sel 9 8 7 6 5 4 3 2 1 0;
#X text 609 474 9 8 7 6 5 4 3 2 1 0 -1;
#X floatatom 991 411 5 0 0 0 - - - 0;
#X floatatom 1160 600 5 0 0 0 - - - 0;
#X obj 1076 386 sel 9 8 7 6 5 4 3 2 1 0;
#X obj 1160 634 s cntrl_max_1;
#X msg 1076 413 11;
#X msg 1076 440 23;
#X msg 1076 467 35;
#X msg 1076 494 47;
#X msg 1076 521 59;
#X msg 1076 548 71;
#X msg 1076 575 83;
#X msg 1076 602 95;
#X msg 1076 629 107;
#X msg 1076 656 119;
#X text 663 104 Sequencer 1 - Bass;
#X text 622 141 min;
#X obj 595 161 vsl 25 225 0 127 0 0 empty cntrl_max_1 empty 0 -9 0 12 #bbbbbb #000000 #000000 0 1;
#X text 595 140 max;
#X obj 110 111 hradio 30 1 0 16 empty loc1 empty 0 -10 0 24 #404040 #0400ff #efb136 0;
#N canvas 0 50 450 250 (subpatch) 0;
#X array velArray1 16 float 3;
#A 0 90.488 88.9004 90.488 85.7254 76.2002 71.4377 58.7375 61.9125 76.2002 73.0252 61.9125 74.6127 55.5624 50.7999 42.8622 55.5624;
#X coords 0 127 16 0 480 80 1 0 0;
#X restore 107 404 graph;
#N canvas 0 50 450 250 (subpatch) 0;
#X array noteArray1 16 float 3;
#A 0 38.947 62.6541 86.3611 27.0935 37.8181 49.1072 69.4275 57.0095 57.574 87.49 53.0584 54.1873 63.783 57.0095 51.9295 49.6716;
#X coords 0 127 16 0 480 225 1 0 0;
#X restore 110 159 graph;
#N canvas 0 50 450 250 (subpatch) 0;
#X array lenArray1 16 float 3;
#A 0 2300 2800 2800 2750 2650 2750 2700 2500 2350 2350 2200 2050 2450 2500 2150 2200;
#X coords 0 4000 16 0 480 80 1 0 0;
#X restore 105 492 graph;
#X obj 596 492 hradio 19 1 0 10 empty empty empty 0 -10 0 12 #fcfcfc #000000 #000000 0;
#X obj 597 455 hradio 19 1 0 10 empty empty empty 0 -10 0 12 #fcfcfc #000000 #000000 0;
#N canvas 1916 0 1920 1026 major_pentatonic 0;
#X obj 492 40 inlet;
#X obj 158 795 outlet;
#X obj 558 1054 select 0 2 4 7 9;
#X msg 554 1094 0;
#X floatatom 697 1081 5 0 0 0 - - - 0;
#X obj 698 1103 -1;
#X obj 738 1119 select 0 2 4 7 9;
#X floatatom 830 1129 5 0 0 0 - - - 0;
#X msg 845 1165 -2, f 2;
#X msg 738 1145 -1;
#X text 587 1033 major pentatonic;
#X text 744 35 intervals \, degrees;
#X obj 398 1035 +;
#X floatatom 400 1063 5 0 0 0 - - - 0;
#X obj 142 465 tgl 19 0 empty empty empty 0 -10 0 12 #fcfcfc #000000 #000000 0 1;
#X obj 164 467 tgl 19 0 empty empty empty 0 -10 0 12 #fcfcfc #000000 #000000 0 1;
#X obj 185 466 tgl 19 0 empty empty empty 0 -10 0 12 #fcfcfc #000000 #000000 0 1;
#X obj 211 469 tgl 19 0 empty empty empty 0 -10 0 12 #fcfcfc #000000 #000000 0 1;
#X obj 236 470 tgl 19 0 empty empty empty 0 -10 0 12 #fcfcfc #000000 #000000 0 1;
#X floatatom 109 269 5 0 0 0 - - - 0;
#X obj 151 386 sel 0 1 2 3 4 5 6 7;
#X floatatom 150 346 5 0 0 0 - - - 0;
#X obj 132 305 t f b;
#X obj 207 324 bng 19 250 50 0 empty empty empty 0 -10 0 12 #fcfcfc #000000 #000000;
#X obj 272 53 loadbang;
#X msg 272 77 0;
#X obj 489 92 s note_in_1;
#X obj 362 888 r note_in_1;
#X obj 397 1092 s note_out_1;
#X obj 399 930 spigot;
#X obj 457 918 tgl 19 0 empty empty empty 0 -10 0 12 #fcfcfc #000000 #000000 0 1;
#X obj 85 500 s quant_0;
#X obj 126 550 s quant_1;
#X obj 144 628 s quant_2;
#X obj 211 596 s quant_3;
#X obj 257 561 s quant_4;
#X obj 154 770 r note_out_1;
#X floatatom 1625 547 5 0 0 0 - - - 0;
#X msg 1626 568 -1;
#X msg 1507 562 0;
#X obj 1462 524 select 0 2 3 5 7 8 10 12;
#X text 1508 501 minor scale;
#X obj 1417 605 +;
#X floatatom 1419 633 5 0 0 0 - - - 0;
#X obj 1430 352 r note_in_1;
#X obj 1416 662 s note_out_1;
#X obj 1453 388 spigot;
#X obj 1525 382 tgl 19 0 empty empty empty 0 -10 0 12 #fcfcfc #000000 #000000 0 1;
#X obj 107 113 vradio 24 1 0 6 empty empty empty 0 -10 0 12 #fcfcfc #000000 #000000 0;
#X text 137 143 major;
#X text 139 166 minor;
#X text 139 188 m.minor;
#X text 139 214 h.minor;
#X text 139 236 m.pent;
#X floatatom 923 88 5 0 0 0 - - - 0;
#X obj 920 117 s note_out_1;
#X obj 955 54 spigot;
#X obj 1013 42 tgl 19 0 empty empty empty 0 -10 0 12 #fcfcfc #000000 #000000 0 1;
#X obj 1013 17 r quant_0;
#X obj 1233 217 select 0 2 4 5 7 9 11;
#X text 1279 194 major scale;
#X text 967 548 melodic minor;
#X obj 1068 279 +;
#X floatatom 1070 307 5 0 0 0 - - - 0;
#X obj 1180 64 r note_in_1;
#X obj 1067 336 s note_out_1;
#X obj 1217 106 spigot;
#X obj 1275 94 tgl 19 0 empty empty empty 0 -10 0 12 #fcfcfc #000000 #000000 0 1;
#X floatatom 1350 253 5 0 0 0 - - - 0;
#X msg 1350 284 -1;
#X msg 1232 268 0;
#X obj 1275 69 r quant_1;
#X obj 1525 357 r quant_2;
#X floatatom 1093 601 5 0 0 0 - - - 0;
#X msg 1094 622 -1;
#X msg 975 616 0;
#X obj 779 648 +;
#X floatatom 781 676 5 0 0 0 - - - 0;
#X obj 853 406 r note_in_1;
#X obj 778 705 s note_out_1;
#X obj 875 440 spigot;
#X obj 948 436 tgl 19 0 empty empty empty 0 -10 0 12 #fcfcfc #000000 #000000 0 1;
#X obj 948 411 r quant_3;
#X obj 930 578 select 0 2 3 5 7 9 11 12;
#X floatatom 1726 985 5 0 0 0 - - - 0;
#X msg 1727 1006 -1;
#X msg 1608 1000 0;
#X obj 1291 1012 +;
#X floatatom 1293 1040 5 0 0 0 - - - 0;
#X obj 1314 854 r note_in_1;
#X obj 1286 1089 s note_out_1;
#X obj 1351 896 spigot;
#X obj 1409 884 tgl 19 0 empty empty empty 0 -10 0 12 #fcfcfc #000000 #000000 0 1;
#X obj 1563 962 select 0 2 3 5 7 8 11 12;
#X text 1594 937 harmonic minor;
#X obj 1409 859 r quant_4;
#X obj 457 893 r quant_5;
#X obj 919 12 r note_val_1;
#X obj 1311 146 % 12;
#X floatatom 1313 173 5 0 0 0 - - - 0;
#X obj 1219 128 int;
#X obj 1449 444 % 12;
#X floatatom 1451 471 5 0 0 0 - - - 0;
#X obj 1422 417 int;
#X obj 911 489 % 12;
#X floatatom 913 516 5 0 0 0 - - - 0;
#X obj 877 467 int;
#X obj 1351 952 % 12;
#X floatatom 1353 979 5 0 0 0 - - - 0;
#X obj 1351 920 int;
#X obj 555 987 % 12;
#X floatatom 557 1014 5 0 0 0 - - - 0;
#X obj 397 956 int;
#X connect 0 0 26 0;
#X connect 2 0 3 0;
#X connect 2 1 3 0;
#X connect 2 2 3 0;
#X connect 2 3 3 0;
#X connect 2 4 3 0;
#X connect 2 5 4 0;
#X connect 3 0 12 1;
#X connect 4 0 5 0;
#X connect 5 0 6 0;
#X connect 6 0 9 0;
#X connect 6 1 9 0;
#X connect 6 2 9 0;
#X connect 6 3 9 0;
#X connect 6 4 9 0;
#X connect 6 5 7 0;
#X connect 7 0 8 0;
#X connect 8 0 12 1;
#X connect 9 0 12 1;
#X connect 12 0 13 0;
#X connect 13 0 28 0;
#X connect 14 0 31 0;
#X connect 15 0 32 0;
#X connect 16 0 33 0;
#X connect 17 0 34 0;
#X connect 18 0 35 0;
#X connect 19 0 22 0;
#X connect 20 0 14 0;
#X connect 20 1 15 0;
#X connect 20 2 16 0;
#X connect 20 3 17 0;
#X connect 20 4 18 0;
#X connect 21 0 20 0;
#X connect 22 0 21 0;
#X connect 22 1 21 0;
#X connect 23 0 21 0;
#X connect 24 0 25 0;
#X connect 25 0 48 0;
#X connect 27 0 29 0;
#X connect 29 0 112 0;
#X connect 30 0 29 1;
#X connect 36 0 1 0;
#X connect 37 0 38 0;
#X connect 38 0 42 1;
#X connect 39 0 42 1;
#X connect 40 0 39 0;
#X connect 40 1 39 0;
#X connect 40 2 39 0;
#X connect 40 3 39 0;
#X connect 40 4 39 0;
#X connect 40 5 39 0;
#X connect 40 6 39 0;
#X connect 40 7 39 0;
#X connect 40 8 37 0;
#X connect 42 0 43 0;
#X connect 43 0 45 0;
#X connect 44 0 46 0;
#X connect 46 0 103 0;
#X connect 47 0 46 1;
#X connect 48 0 19 0;
#X connect 54 0 55 0;
#X connect 56 0 54 0;
#X connect 57 0 56 1;
#X connect 58 0 57 0;
#X connect 59 0 70 0;
#X connect 59 1 70 0;
#X connect 59 2 70 0;
#X connect 59 3 70 0;
#X connect 59 4 70 0;
#X connect 59 5 70 0;
#X connect 59 6 70 0;
#X connect 59 7 68 0;
#X connect 62 0 63 0;
#X connect 63 0 65 0;
#X connect 64 0 66 0;
#X connect 66 0 100 0;
#X connect 67 0 66 1;
#X connect 68 0 69 0;
#X connect 69 0 62 1;
#X connect 70 0 62 1;
#X connect 71 0 67 0;
#X connect 72 0 47 0;
#X connect 73 0 74 0;
#X connect 74 0 76 1;
#X connect 75 0 76 1;
#X connect 76 0 77 0;
#X connect 77 0 79 0;
#X connect 78 0 80 0;
#X connect 80 0 106 0;
#X connect 81 0 80 1;
#X connect 82 0 81 0;
#X connect 83 0 75 0;
#X connect 83 1 75 0;
#X connect 83 2 75 0;
#X connect 83 3 75 0;
#X connect 83 4 75 0;
#X connect 83 5 75 0;
#X connect 83 6 75 0;
#X connect 83 7 75 0;
#X connect 83 8 73 0;
#X connect 84 0 85 0;
#X connect 85 0 87 1;
#X connect 86 0 87 1;
#X connect 87 0 88 0;
#X connect 88 0 90 0;
#X connect 89 0 91 0;
#X connect 91 0 109 0;
#X connect 92 0 91 1;
#X connect 93 0 86 0;
#X connect 93 1 86 0;
#X connect 93 2 86 0;
#X connect 93 3 86 0;
#X connect 93 4 86 0;
#X connect 93 5 86 0;
#X connect 93 6 86 0;
#X connect 93 7 86 0;
#X connect 93 8 84 0;
#X connect 95 0 92 0;
#X connect 96 0 30 0;
#X connect 97 0 56 0;
#X connect 98 0 99 0;
#X connect 99 0 59 0;
#X connect 100 0 98 0;
#X connect 100 0 62 0;
#X connect 101 0 102 0;
#X connect 102 0 40 0;
#X connect 103 0 101 0;
#X connect 103 0 42 0;
#X connect 104 0 105 0;
#X connect 105 0 83 0;
#X connect 106 0 104 0;
#X connect 106 0 76 0;
#X connect 107 0 108 0;
#X connect 108 0 93 0;
#X connect 109 0 107 0;
#X connect 109 0 87 0;
#X connect 110 0 111 0;
#X connect 111 0 2 0;
#X connect 112 0 110 0;
#X connect 112 0 12 0;
#X coords 0 -1 1 1 150 200 1 100 100;
#X restore 649 160 pd major_pentatonic;
#X obj 807 140 r get_noteArray_1;
#X obj 395 666 s get_noteArray_1;
#X obj 826 363 s set_midi_note_1;
#X obj 454 713 r set_midi_note_1;
#X floatatom 1151 902 8 0 0 0 - - - 0;
#X floatatom 1082 902 8 0 0 0 - - - 0;
#X obj 1013 874 sin;
#X floatatom 1084 795 5 0 0 0 - - - 0;
#X floatatom 1012 905 8 0 0 0 - - - 0;
#X obj 1084 847 * 6.28319;
#X obj 1084 821 / 360;
#X obj 1082 874 cos;
#X obj 1151 874 tan;
#X obj 1084 748 int;
#X floatatom 1084 772 5 0 0 0 - - - 0;
#N canvas 0 50 450 250 (subpatch) 0;
#X array noteArray99 16 float 3;
#A 0 99 75 81 78 34 32 39 59 54 25 50 48 51 96 95 86;
#X coords 0 127 16 0 480 225 1 0 0;
#X restore 46 768 graph;
#X obj 994 976 tabwrite noteArray99;
#X obj 1183 951 int;
#X obj 1183 935 * 127;
#X obj 1094 698 / 16;
#X obj 1084 724 * 360;
#X obj 1165 815 hsl 162 19 0 10 0 0 empty empty empty -2 -10 0 12 #fcfcfc #000000 #000000 0 1;
#X obj 1481 747 until;
#X text 1454 673 start;
#X text 1533 718 start limited to 3 iterations;
#X obj 1464 786 f;
#X obj 1519 778 + 1;
#X obj 1574 774 sel 0;
#X obj 1481 834 print until;
#X obj 1429 673 bng 19 250 50 0 empty empty empty 17 7 0 10 #dfdfdf #000000 #000000;
#X obj 1519 804 mod 16;
#X obj 1229 647 bng 19 250 50 0 empty empty empty 0 -10 0 12 #fcfcfc #000000 #000000;
#X msg 1497 717 1;
#X obj 1409 773 + 1;
#X obj 1188 990 expr $f1 % ($f2 - $f3) + $f3;
#X floatatom 1187 970 5 0 0 0 - - - 0;
#X floatatom 1188 1011 5 0 0 0 - - - 0;
#X msg 1408 959 60;
#X msg 1270 960 83;
#X msg 1376 958 0;
#X msg 1305 962 100;
#X obj 860 477 r noteSliderMax_1;
#X obj 860 501 / 127;
#X obj 860 525 * 10;
#X obj 860 549 int;
#X connect 0 0 25 0;
#X connect 1 0 5 0;
#X connect 2 0 4 0;
#X connect 3 0 2 0;
#X connect 4 0 1 0;
#X connect 5 0 47 0;
#X connect 6 0 19 0;
#X connect 7 0 0 0;
#X connect 7 0 9 0;
#X connect 8 0 15 0;
#X connect 8 0 18 0;
#X connect 8 0 22 0;
#X connect 9 0 50 0;
#X connect 10 0 1 2;
#X connect 11 0 1 1;
#X connect 12 0 7 0;
#X connect 12 0 13 0;
#X connect 16 0 107 0;
#X connect 17 0 53 0;
#X connect 19 0 14 0;
#X connect 19 1 14 1;
#X connect 20 0 52 0;
#X connect 22 0 21 0;
#X connect 23 0 1 2;
#X connect 24 0 1 1;
#X connect 27 0 28 0;
#X connect 28 0 1 1;
#X connect 29 0 30 0;
#X connect 30 0 31 0;
#X connect 31 0 36 0;
#X connect 32 0 30 0;
#X connect 33 0 29 0;
#X connect 34 0 32 0;
#X connect 35 0 30 1;
#X connect 37 0 38 0;
#X connect 38 0 39 0;
#X connect 39 0 44 0;
#X connect 40 0 38 0;
#X connect 41 0 37 0;
#X connect 42 0 40 0;
#X connect 43 0 38 1;
#X connect 45 0 46 0;
#X connect 46 0 1 2;
#X connect 48 0 8 0;
#X connect 49 0 18 1;
#X connect 49 0 21 1;
#X connect 49 0 15 1;
#X connect 51 0 16 0;
#X connect 51 0 17 0;
#X connect 51 0 20 0;
#X connect 52 0 19 2;
#X connect 53 0 54 0;
#X connect 54 0 19 1;
#X connect 56 0 55 0;
#X connect 61 0 60 0;
#X connect 64 0 61 0;
#X connect 66 0 79 0;
#X connect 67 0 69 0;
#X connect 68 0 69 0;
#X connect 69 0 78 0;
#X connect 70 0 69 0;
#X connect 71 0 69 0;
#X connect 72 0 69 0;
#X connect 73 0 69 0;
#X connect 74 0 69 0;
#X connect 75 0 69 0;
#X connect 76 0 69 0;
#X connect 77 0 69 0;
#X connect 79 0 67 0;
#X connect 79 1 68 0;
#X connect 79 2 70 0;
#X connect 79 3 71 0;
#X connect 79 4 72 0;
#X connect 79 5 73 0;
#X connect 79 6 74 0;
#X connect 79 7 75 0;
#X connect 79 8 76 0;
#X connect 79 9 77 0;
#X connect 81 0 83 0;
#X connect 82 0 84 0;
#X connect 83 0 85 0;
#X connect 83 1 86 0;
#X connect 83 2 87 0;
#X connect 83 3 88 0;
#X connect 83 4 89 0;
#X connect 83 5 90 0;
#X connect 83 6 91 0;
#X connect 83 7 92 0;
#X connect 83 8 93 0;
#X connect 83 9 94 0;
#X connect 85 0 82 0;
#X connect 86 0 82 0;
#X connect 87 0 82 0;
#X connect 88 0 82 0;
#X connect 89 0 82 0;
#X connect 90 0 82 0;
#X connect 91 0 82 0;
#X connect 92 0 82 0;
#X connect 93 0 82 0;
#X connect 94 0 82 0;
#X connect 97 0 56 0;
#X connect 103 0 66 0;
#X connect 104 0 81 0;
#X connect 105 0 108 0;
#X connect 106 0 105 0;
#X connect 109 0 6 0;
#X connect 111 0 124 0;
#X connect 112 0 114 0;
#X connect 113 0 116 0;
#X connect 115 0 112 0;
#X connect 115 0 117 0;
#X connect 115 0 118 0;
#X connect 116 0 115 0;
#X connect 117 0 111 0;
#X connect 118 0 110 0;
#X connect 119 0 120 0;
#X connect 120 0 113 0;
#X connect 123 0 141 0;
#X connect 124 0 123 0;
#X connect 125 0 126 0;
#X connect 126 0 119 0;
#X connect 127 0 115 1;
#X connect 128 0 131 0;
#X connect 131 0 132 0;
#X connect 131 0 134 0;
#X connect 131 0 122 1;
#X connect 131 0 139 0;
#X connect 132 0 136 0;
#X connect 133 0 128 1;
#X connect 135 0 128 0;
#X connect 136 0 131 1;
#X connect 136 0 133 0;
#X connect 138 0 128 0;
#X connect 139 0 125 0;
#X connect 140 0 142 0;
#X connect 141 0 140 0;
#X connect 142 0 122 0;
#X connect 143 0 140 2;
#X connect 144 0 140 1;
#X connect 145 0 140 2;
#X connect 146 0 140 1;
#X connect 147 0 148 0;
#X connect 148 0 149 0;
#X connect 149 0 150 0;
#X coords 0 -1 1 1 700 480 1 100 100;
#X restore 7 512 pd sequencer;
#X obj 1614 35 cnv 44 270 470 empty empty Channel 4 18 0 36 #d26045 #404040 0;
#X obj 64 35 cnv 52 52 470 empty empty M 9 19 0 36 #becbd3 #404040 0;
#X obj 7 35 cnv 56 56 470 empty empty D 9 19 0 40 #000000 #7c7c7c 0;
#X obj 7 75 slideControl1;
#X obj 8 186 slideControl1;
#X obj 7 239 slideControl1;
#X obj 7 292 slideControl1;
#X obj 7 346 slideControl1;
#X obj 7 454 slideControl1;
#X obj 710 511 cnv 44 700 480 empty empty empty 20 18 0 36 #becbd3 #404040 0;
#N canvas -8 0 1920 1026 sequencer 0;
#X obj 1366 1293 osc~;
#X obj 1377 1385 dac~;
#X floatatom 1011 992 5 0 0 0 - - - 0;
#X floatatom 1410 1324 8 0 0 0 - - - 0;
#X obj 1410 1298 line 0 100;
#X obj 1410 1243 bng 16 250 50 0 empty empty empty 0 -8 0 10 #fcfcfc #000000 #000000;
#X obj 1464 220 expr $f1 % ($f2 - $f3) + $f3;
#X obj 1459 154 random 100;
#X obj 1469 112 bng 16 250 50 0 empty empty empty 0 -8 0 10 #fcfcfc #000000 #000000;
#X floatatom 1461 183 5 0 0 0 - - - 0;
#X floatatom 1464 241 5 0 0 0 - - - 0;
#X obj 1367 1270 mtof;
#X obj 424 1309 % 12;
#X floatatom 464 1310 5 0 0 0 - - - 0;
#X floatatom 160 1128 5 0 0 0 - - - 0;
#X msg 162 1155 -1;
#X msg 61 1127 0;
#X obj 221 937 select 0 2 4 7 9;
#X msg 217 977 0;
#X floatatom 314 968 5 0 0 0 - - - 0;
#X obj 315 988 -1;
#X obj 309 1023 select 0 2 4 7 9;
#X floatatom 397 1065 5 0 0 0 - - - 0;
#X msg 389 1100 -2;
#X msg 305 1063 -1;
#X obj 509 1309 +;
#X floatatom 509 1335 5 0 0 0 - - - 0;
#X text 250 916 major pentatonic;
#X text 245 894 intervals \, degrees;
#X obj 1193 960 select 0 2 4 5 7 9 11;
#X text 1239 937 major scale;
#X obj 16 1089 select 0 2 3 5 7 8 10 12;
#X text 62 1066 minor scale;
#X text 1237 1004 melodic minor;
#X obj 1191 1027 select 0 2 3 5 7 9 11 12;
#X text 1245 1065 harmonic minor;
#X obj 1199 1088 select 0 2 3 5 7 8 11 12;
#X obj 908 967 % 16;
#X msg 1408 1271 1 \, 0 500 10;
#X floatatom 1136 920 3 0 127 0 - - - 0;
#X obj 1291 789 tabread;
#X obj 1543 975 loadbang;
#X text 1605 1113 index;
#X floatatom 1572 1114 4 0 9 0 - - - 0;
#X floatatom 1572 1232 5 0 0 0 - - - 0;
#X text 1682 1148 change array name;
#X text 1615 1233 output = table-ex[index];
#N canvas 0 50 450 250 (subpatch) 0;
#X array velArray1 16 float 3;
#A 0 57.1502 77.788 96.8383 103.188 96.8383 82.5506 76.2005 71.4379 74.613 80.9631 79.3755 71.4379 58.7377 55.5627 58.7377 60.3252;
#X coords 0 127 16 0 480 80 1 0 0;
#X restore 105 393 graph;
#X msg 1588 1148 set randArray;
#X obj 1572 1188 tabread randArray;
#X floatatom 1747 178 4 0 127 0 - - - 0;
#X floatatom 910 992 4 0 9 0 - - - 0;
#X msg 1684 189 60;
#X msg 1546 190 83;
#X obj 1357 1350 *~ 0.01;
#X msg 1543 1007 \; randArray resize 16 \; randArray bounds 0 127 16 0 \; randArray xlabel 1 2 3 4 5 6 7 8 9 10 11 12 13 14 15 16 \; randArray ylabel 0 12 24 36 48 60 72 84 96 108 120 127 \; randArray 81 88 51 39 14 59 66 57 99 \;;
#X obj 914 915 r timeCount;
#X floatatom 914 939 10 0 0 0 - - - 0;
#X obj 691 1425 noteout 12;
#X obj 510 1275 int;
#N canvas 0 50 450 250 (subpatch) 0;
#X array noteArray1 16 float 3;
#A 0 11 42 53 80 100 120 143 158 185 223 237 248 288 295 326 342;
#X coords 0 127 16 0 480 225 1 0 0;
#X restore 104 151 graph;
#X obj 1752 306 tabwrite noteArray1;
#X obj 509 1256 tabread noteArray1;
#X obj 661 1307 tabread velArray1;
#X obj 1754 277 tabwrite velArray1;
#X obj 677 1393 makenote 250 250;
#N canvas 0 50 450 250 (subpatch) 0;
#X array lenArray1 16 float 3;
#A 0 1200 1200 1150 1050 950 1250 1150 1150 1150 1250 1850 1700 1650 1500 1450 1400;
#X coords 0 4000 16 0 480 80 1 0 0;
#X restore 105 492 graph;
#X obj 658 1258 tabread lenArray1;
#X obj 1754 335 tabwrite lenArray1;
#X obj 1747 201 * 40;
#X msg 1652 188 0;
#X msg 1581 192 100;
#X obj 104 105 hradio 30 1 0 16 empty loc1 empty 0 -10 0 24 #fcfcfc #000000 #000000 0;
#X obj 1014 1020 s loc1;
#X msg 1714 859 \; velArray1 xlabel 0 \; lenArray1 xlabel 0 \; velArray1 ylabel 0 \;;
#X text 1468 44 this is a random number generator that returns a random number between 2 numbers used to get a random number in a note range;
#X floatatom 587 117 3 0 0 0 - - max_1 24;
#X obj 604 131 int;
#X obj 595 152 bng 30 250 50 0 max_1_up empty empty 0 -10 0 12 #c6ffc7 #000000 #000000;
#X obj 597 342 bng 30 250 50 0 max_1_down empty empty 0 -10 0 12 #ffc7c6 #000000 #000000;
#X obj 1571 114 r max_1;
#X floatatom 1571 138 5 0 0 0 - - - 0;
#X text 597 98 max;
#X obj 595 186 vsl 33 150 0 127 0 0 empty cntrl_max_1 empty 0 -9 0 12 #fcfcfc #000000 #000000 0 1;
#X msg 1220 120 1;
#X obj 1238 165 + 1;
#X floatatom 1238 189 5 0 0 0 - - - 0;
#X msg 1313 116 -1;
#X obj 1216 91 r max_1_up;
#X obj 1312 91 r max_1_down;
#X obj 1270 146 r max_1;
#X obj 1238 212 s cntrl_max_1;
#X floatatom 638 117 3 0 0 0 - - min_1 24;
#X obj 655 131 int;
#X obj 646 152 bng 30 250 50 0 min_1_up empty empty 0 -10 0 12 #c6ffc7 #000000 #000000;
#X obj 648 342 bng 30 250 50 0 min_1_down empty empty 0 -10 0 12 #ffc7c6 #000000 #000000;
#X obj 646 186 vsl 33 150 0 127 0 0 empty cntrl_min_1 empty 0 -9 0 12 #fcfcfc #000000 #000000 0 1;
#X text 648 98 min;
#X msg 1218 275 1;
#X obj 1236 320 + 1;
#X floatatom 1236 344 5 0 0 0 - - - 0;
#X msg 1311 271 -1;
#X obj 1214 246 r min_1_up;
#X obj 1310 246 r min_1_down;
#X obj 1268 301 r min_1;
#X obj 1177 398 s cntrl_min_1;
#X obj 1647 120 r min_1;
#X floatatom 1651 153 5 0 0 0 - - - 0;
#X obj 1483 292 s rand_1;
#X obj 1743 121 r rand_1;
#X msg 208 701 \; array99 cosinesum 64 0.2 0.2 0.2 0.2;
#X text 214 635 Fourier synthesis (resizes table);
#X msg 208 659 \; noteArray1 sinesum 16 44 22;
#X floatatom 116 790 4 0 0 0 - - - 0;
#X text 155 789 <-- set to a constant value;
#X msg 116 854 \; noteArray1 const \$1;
#X msg 582 692 \; noteArray1 read 24 39 29 43 23 19 39 100 94 29 22 99 11 0 33 88 \;;
#X obj 1359 758 array set array-2;
#X floatatom 1417 690 5 0 0 0 - - - 0;
#X text 1461 689 onset (first index to write to);
#X text 1491 759 creation arguments: either array name or "-s" and optional "-f" flags to refer to an array in a data structure;
#X msg 1475 725 symbol array-2;
#X listbox 1359 658 45 0 0 0 - - - 0;
#X msg 1359 630 -0.1 0.7 0.3 -0.4 0.3 -0.9 0.9 0.1 0.4 -0.5;
#X obj 1880 219 r count_1;
#X obj 922 1022 s count_1;
#X obj 761 1174 r count_1;
#X obj 658 1282 int;
#X obj 661 1331 int;
#X floatatom 661 1355 5 0 0 0 - - - 0;
#X obj 594 394 vradio 24 1 0 6 empty empty empty 0 -10 0 12 #fcfcfc #000000 #000000 0;
#X text 620 394 major;
#X text 620 421 minor;
#X text 620 443 m.minor;
#X text 620 469 h.minor;
#X text 620 491 m.pent;
#X obj 700 161 vradio 15 1 0 10 empty empty empty -4 -10 0 12 #fcfcfc #000000 #000000 0;
#X obj 751 161 vradio 15 1 0 10 empty empty empty -4 -10 0 12 #fcfcfc #000000 #000000 0;
#X floatatom 847 85 5 0 0 0 - - - 0;
#X msg 937 110 0;
#X msg 937 137 12;
#X floatatom 1021 297 5 0 0 0 - - - 0;
#X msg 937 164 24;
#X msg 937 191 36;
#X msg 937 218 48;
#X msg 937 245 60;
#X msg 937 272 72;
#X msg 937 299 84;
#X msg 937 326 96;
#X msg 937 353 108;
#X obj 1021 331 s cntrl_min_1;
#X obj 937 83 sel 9 8 7 6 5 4 3 2 1 0;
#X text 726 160 9 8 7 6 5 4 3 2 1 0 -1;
#X text 716 113 octave;
#X text 699 135 max, f 6;
#X text 749 135 min;
#X floatatom 850 385 5 0 0 0 - - - 0;
#X floatatom 1024 597 5 0 0 0 - - - 0;
#X obj 940 383 sel 9 8 7 6 5 4 3 2 1 0;
#X obj 1024 631 s cntrl_max_1;
#X msg 940 410 11;
#X msg 940 437 23;
#X msg 940 464 35;
#X msg 940 491 47;
#X msg 940 518 59;
#X msg 940 545 71;
#X msg 940 572 83;
#X msg 940 599 95;
#X msg 940 626 107;
#X msg 940 653 119;
#X connect 0 0 54 0;
#X connect 2 0 73 0;
#X connect 3 0 54 1;
#X connect 4 0 3 0;
#X connect 5 0 38 0;
#X connect 6 0 10 0;
#X connect 7 0 9 0;
#X connect 8 0 7 0;
#X connect 9 0 6 0;
#X connect 10 0 108 0;
#X connect 11 0 0 0;
#X connect 12 0 13 0;
#X connect 12 0 17 0;
#X connect 12 0 31 0;
#X connect 14 0 15 0;
#X connect 17 0 18 0;
#X connect 17 1 18 0;
#X connect 17 2 18 0;
#X connect 17 3 18 0;
#X connect 17 4 18 0;
#X connect 17 5 19 0;
#X connect 18 0 25 1;
#X connect 19 0 20 0;
#X connect 20 0 21 0;
#X connect 21 0 24 0;
#X connect 21 1 24 0;
#X connect 21 2 24 0;
#X connect 21 3 24 0;
#X connect 21 4 24 0;
#X connect 21 5 22 0;
#X connect 22 0 23 0;
#X connect 23 0 25 1;
#X connect 24 0 25 1;
#X connect 25 0 26 0;
#X connect 26 0 65 0;
#X connect 31 0 16 0;
#X connect 31 1 16 0;
#X connect 31 2 16 0;
#X connect 31 3 16 0;
#X connect 31 4 16 0;
#X connect 31 5 16 0;
#X connect 31 6 16 0;
#X connect 31 7 16 0;
#X connect 31 8 14 0;
#X connect 37 0 2 0;
#X connect 37 0 51 0;
#X connect 38 0 4 0;
#X connect 41 0 55 0;
#X connect 43 0 49 0;
#X connect 48 0 49 0;
#X connect 49 0 44 0;
#X connect 50 0 61 0;
#X connect 50 0 64 0;
#X connect 50 0 69 0;
#X connect 51 0 125 0;
#X connect 52 0 6 2;
#X connect 53 0 6 1;
#X connect 54 0 1 0;
#X connect 56 0 37 0;
#X connect 56 0 57 0;
#X connect 59 0 25 0;
#X connect 59 0 12 0;
#X connect 62 0 59 0;
#X connect 63 0 128 0;
#X connect 65 0 58 0;
#X connect 65 1 58 1;
#X connect 67 0 127 0;
#X connect 69 0 68 0;
#X connect 70 0 6 2;
#X connect 71 0 6 1;
#X connect 77 0 76 0;
#X connect 80 0 81 0;
#X connect 81 0 6 1;
#X connect 83 0 77 0;
#X connect 84 0 85 0;
#X connect 85 0 86 0;
#X connect 86 0 91 0;
#X connect 87 0 85 0;
#X connect 88 0 84 0;
#X connect 89 0 87 0;
#X connect 90 0 85 1;
#X connect 93 0 92 0;
#X connect 96 0 93 0;
#X connect 98 0 99 0;
#X connect 99 0 100 0;
#X connect 100 0 105 0;
#X connect 101 0 99 0;
#X connect 102 0 98 0;
#X connect 103 0 101 0;
#X connect 104 0 99 1;
#X connect 106 0 107 0;
#X connect 107 0 6 2;
#X connect 109 0 50 0;
#X connect 113 0 115 0;
#X connect 118 0 117 1;
#X connect 121 0 117 2;
#X connect 122 0 117 0;
#X connect 123 0 122 0;
#X connect 124 0 64 1;
#X connect 124 0 68 1;
#X connect 124 0 61 1;
#X connect 126 0 62 0;
#X connect 126 0 63 0;
#X connect 126 0 67 0;
#X connect 127 0 65 2;
#X connect 128 0 129 0;
#X connect 129 0 65 1;
#X connect 136 0 156 0;
#X connect 137 0 138 0;
#X connect 138 0 151 0;
#X connect 139 0 141 0;
#X connect 140 0 141 0;
#X connect 141 0 150 0;
#X connect 142 0 141 0;
#X connect 143 0 141 0;
#X connect 144 0 141 0;
#X connect 145 0 141 0;
#X connect 146 0 141 0;
#X connect 147 0 141 0;
#X connect 148 0 141 0;
#X connect 149 0 141 0;
#X connect 151 0 139 0;
#X connect 151 1 140 0;
#X connect 151 2 142 0;
#X connect 151 3 143 0;
#X connect 151 4 144 0;
#X connect 151 5 145 0;
#X connect 151 6 146 0;
#X connect 151 7 147 0;
#X connect 151 8 148 0;
#X connect 151 9 149 0;
#X connect 156 0 158 0;
#X connect 157 0 159 0;
#X connect 158 0 160 0;
#X connect 158 1 161 0;
#X connect 158 2 162 0;
#X connect 158 3 163 0;
#X connect 158 4 164 0;
#X connect 158 5 165 0;
#X connect 158 6 166 0;
#X connect 158 7 167 0;
#X connect 158 8 168 0;
#X connect 158 9 169 0;
#X connect 160 0 157 0;
#X connect 161 0 157 0;
#X connect 162 0 157 0;
#X connect 163 0 157 0;
#X connect 164 0 157 0;
#X connect 165 0 157 0;
#X connect 166 0 157 0;
#X connect 167 0 157 0;
#X connect 168 0 157 0;
#X connect 169 0 157 0;
#X coords 0 -1 1 1 700 480 1 100 100;
#X restore 715 511 pd sequencer;
#X obj 10 3 hradio 29 1 0 64 empty timeCount empty 0 -10 0 12 #404040 #5337f0 #efb136 0;
#N canvas 338 240 1920 1026 midiControl 0;
#X obj 1778 534 ctlin;
#X text 1720 623 value;
#X text 1822 533 (all controllers \, omni);
#X text 1769 625 controller #;
#X text 1865 622 channel/port;
#X floatatom 1744 645 4 0 127 0 - - - 0;
#X floatatom 1718 550 4 0 127 0 - - - 0;
#X floatatom 1854 646 2 1 64 0 - - - 0;
#X floatatom 554 75 5 0 0 0 - - - 0;
#X obj 554 53 ctlin 2 1;
#X floatatom 690 83 5 0 0 0 - - - 0;
#X obj 690 61 ctlin 3 1;
#X floatatom 837 81 5 0 0 0 - - - 0;
#X floatatom 975 78 5 0 0 0 - - - 0;
#X floatatom 1113 82 5 0 0 0 - - - 0;
#X floatatom 1252 76 5 0 0 0 - - - 0;
#X floatatom 1401 77 5 0 0 0 - - - 0;
#X floatatom 1558 77 5 0 0 0 - - - 0;
#X obj 835 59 ctlin 4 1;
#X obj 975 56 ctlin 5 1;
#X obj 1113 60 ctlin 6 1;
#X obj 1252 54 ctlin 8 1;
#X obj 1401 55 ctlin 9 1;
#X obj 1555 55 ctlin 12 1;
#X floatatom 552 -53 5 0 0 0 - - - 0;
#X floatatom 689 -51 5 0 0 0 - - - 0;
#X floatatom 836 -53 5 0 0 0 - - - 0;
#X floatatom 974 -56 5 0 0 0 - - - 0;
#X floatatom 1112 -52 5 0 0 0 - - - 0;
#X floatatom 1251 -58 5 0 0 0 - - - 0;
#X floatatom 1400 -57 5 0 0 0 - - - 0;
#X floatatom 1557 -57 5 0 0 0 - - - 0;
#X obj 552 -75 ctlin 13 1;
#X obj 689 -73 ctlin 14 1;
#X obj 834 -75 ctlin 15 1;
#X obj 974 -78 ctlin 16 1;
#X obj 1112 -74 ctlin 17 1;
#X obj 1251 -80 ctlin 18 1;
#X obj 1400 -79 ctlin 19 1;
#X obj 1705 451 notein;
#X floatatom 1657 482 5 0 0 0 - - - 0;
#X obj 688 -292 tgl 19 0 empty empty empty 0 -10 0 12 #fcfcfc #000000 #000000 0 1;
#X obj 684 -394 tgl 19 0 empty empty empty 0 -10 0 12 #fcfcfc #000000 #000000 0 1;
#X obj 677 -130 tgl 19 0 empty empty empty 0 -10 0 12 #fcfcfc #000000 #000000 0 1;
#X obj 679 -213 tgl 19 0 empty empty empty 0 -10 0 12 #fcfcfc #000000 #000000 0 1;
#X obj 835 -293 tgl 19 0 empty empty empty 0 -10 0 12 #fcfcfc #000000 #000000 0 1;
#X obj 831 -395 tgl 19 0 empty empty empty 0 -10 0 12 #fcfcfc #000000 #000000 0 1;
#X obj 824 -131 tgl 19 0 empty empty empty 0 -10 0 12 #fcfcfc #000000 #000000 0 1;
#X obj 826 -214 tgl 19 0 empty empty empty 0 -10 0 12 #fcfcfc #000000 #000000 0 1;
#X obj 971 -295 tgl 19 0 empty empty empty 0 -10 0 12 #fcfcfc #000000 #000000 0 1;
#X obj 967 -397 tgl 19 0 empty empty empty 0 -10 0 12 #fcfcfc #000000 #000000 0 1;
#X obj 960 -133 tgl 19 0 empty empty empty 0 -10 0 12 #fcfcfc #000000 #000000 0 1;
#X obj 962 -216 tgl 19 0 empty empty empty 0 -10 0 12 #fcfcfc #000000 #000000 0 1;
#X obj 1110 -292 tgl 19 0 empty empty empty 0 -10 0 12 #fcfcfc #000000 #000000 0 1;
#X obj 1106 -394 tgl 19 0 empty empty empty 0 -10 0 12 #fcfcfc #000000 #000000 0 1;
#X obj 1099 -130 tgl 19 0 empty empty empty 0 -10 0 12 #fcfcfc #000000 #000000 0 1;
#X obj 1101 -213 tgl 19 0 empty empty empty 0 -10 0 12 #fcfcfc #000000 #000000 0 1;
#X obj 553 -294 tgl 19 0 empty empty empty 0 -10 0 12 #fcfcfc #000000 #000000 0 1;
#X obj 549 -396 tgl 19 0 empty empty empty 0 -10 0 12 #fcfcfc #000000 #000000 0 1;
#X obj 542 -132 tgl 19 0 empty empty empty 0 -10 0 12 #fcfcfc #000000 #000000 0 1;
#X obj 543 -179 tgl 19 0 empty empty empty 0 -10 0 12 #fcfcfc #000000 #000000 0 1;
#X obj 542 -156 ctlin 46 1;
#X obj 543 -203 ctlin 38 1;
#X obj 549 -420 ctlin 21 1;
#X obj 1252 -298 tgl 19 0 empty empty empty 0 -10 0 12 #fcfcfc #000000 #000000 0 1;
#X obj 1248 -400 tgl 19 0 empty empty empty 0 -10 0 12 #fcfcfc #000000 #000000 0 1;
#X obj 1238 -133 tgl 19 0 empty empty empty 0 -10 0 12 #fcfcfc #000000 #000000 0 1;
#X obj 1243 -219 tgl 19 0 empty empty empty 0 -10 0 12 #fcfcfc #000000 #000000 0 1;
#X obj 1402 -297 tgl 19 0 empty empty empty 0 -10 0 12 #fcfcfc #000000 #000000 0 1;
#X obj 1398 -399 tgl 19 0 empty empty empty 0 -10 0 12 #fcfcfc #000000 #000000 0 1;
#X obj 1391 -135 tgl 19 0 empty empty empty 0 -10 0 12 #fcfcfc #000000 #000000 0 1;
#X obj 1393 -218 tgl 19 0 empty empty empty 0 -10 0 12 #fcfcfc #000000 #000000 0 1;
#X obj 1553 -296 tgl 19 0 empty empty empty 0 -10 0 12 #fcfcfc #000000 #000000 0 1;
#X obj 1549 -398 tgl 19 0 empty empty empty 0 -10 0 12 #fcfcfc #000000 #000000 0 1;
#X obj 1542 -134 tgl 19 0 empty empty empty 0 -10 0 12 #fcfcfc #000000 #000000 0 1;
#X obj 1544 -217 tgl 19 0 empty empty empty 0 -10 0 12 #fcfcfc #000000 #000000 0 1;
#X obj 1554 -79 ctlin 20 1;
#X obj 1542 -158 ctlin 53 1;
#X obj 1544 -241 ctlin 45 1;
#X obj 1553 -320 ctlin 37 1;
#X obj 1549 -422 ctlin 28 1;
#X obj 1391 -159 ctlin 52 1;
#X obj 1241 -160 ctlin 51 1;
#X obj 1099 -154 ctlin 50 1;
#X obj 960 -157 ctlin 49 1;
#X obj 824 -155 ctlin 48 1;
#X obj 677 -154 ctlin 47 1;
#X obj 1393 -242 ctlin 44 1;
#X obj 1243 -243 ctlin 43 1;
#X obj 1101 -237 ctlin 42 1;
#X obj 962 -240 ctlin 41 1;
#X obj 826 -238 ctlin 40 1;
#X obj 679 -237 ctlin 39 1;
#X obj 1402 -321 ctlin 36 1;
#X obj 1252 -322 ctlin 35 1;
#X obj 1110 -316 ctlin 34 1;
#X obj 971 -319 ctlin 33 1;
#X obj 553 -318 ctlin 29 1;
#X obj 687 -316 ctlin 30 1;
#X obj 835 -317 ctlin 31 1;
#X obj 1398 -423 ctlin 27 1;
#X obj 1249 -424 ctlin 26 1;
#X obj 1106 -418 ctlin 25 1;
#X obj 968 -421 ctlin 24 1;
#X obj 831 -419 ctlin 23 1;
#X obj 684 -420 ctlin 22 1;
#X obj 175 -169 tgl 19 0 empty empty empty 0 -10 0 12 #fcfcfc #000000 #000000 0 1;
#X obj 307 -173 tgl 19 0 empty empty empty 0 -10 0 12 #fcfcfc #000000 #000000 0 1;
#X obj 432 -174 tgl 19 0 empty empty empty 0 -10 0 12 #fcfcfc #000000 #000000 0 1;
#X obj 24 -163 tgl 19 0 empty empty empty 0 -10 0 12 #fcfcfc #000000 #000000 0 1;
#X obj 25 -187 ctlin 62 1;
#X obj 175 -193 ctlin 63 1;
#X obj 307 -197 ctlin 80 1;
#X obj 432 -198 ctlin 81 1;
#X obj 172 -244 tgl 19 0 empty empty empty 0 -10 0 12 #fcfcfc #000000 #000000 0 1;
#X obj 304 -248 tgl 19 0 empty empty empty 0 -10 0 12 #fcfcfc #000000 #000000 0 1;
#X obj 429 -249 tgl 19 0 empty empty empty 0 -10 0 12 #fcfcfc #000000 #000000 0 1;
#X obj 21 -238 tgl 19 0 empty empty empty 0 -10 0 12 #fcfcfc #000000 #000000 0 1;
#X obj 177 -328 tgl 19 0 empty empty empty 0 -10 0 12 #fcfcfc #000000 #000000 0 1;
#X obj 309 -332 tgl 19 0 empty empty empty 0 -10 0 12 #fcfcfc #000000 #000000 0 1;
#X obj 434 -333 tgl 19 0 empty empty empty 0 -10 0 12 #fcfcfc #000000 #000000 0 1;
#X obj 26 -322 tgl 19 0 empty empty empty 0 -10 0 12 #fcfcfc #000000 #000000 0 1;
#X obj 22 -262 ctlin 58 1;
#X obj 172 -268 ctlin 59 1;
#X obj 304 -277 ctlin 60 1;
#X obj 429 -278 ctlin 61 1;
#X obj 27 -346 ctlin 54 1;
#X obj 177 -352 ctlin 55 1;
#X obj 309 -356 ctlin 56 1;
#X obj 434 -357 ctlin 57 1;
#X floatatom 1800 476 5 0 0 0 - - - 0;
#X floatatom 1722 482 5 0 0 0 - - - 0;
#X obj 137 -108 ctlin 86 1;
#X floatatom 138 -89 5 0 0 0 - - - 0;
#X floatatom 399 887 5 0 0 0 - - - 0;
#X floatatom 488 887 5 0 0 0 - - - 0;
#X floatatom 569 887 5 0 0 0 - - - 0;
#X floatatom 666 887 5 0 0 0 - - - 0;
#X floatatom 754 887 5 0 0 0 - - - 0;
#X floatatom 832 887 5 0 0 0 - - - 0;
#X floatatom 910 887 5 0 0 0 - - - 0;
#X floatatom 993 887 5 0 0 0 - - - 0;
#X floatatom 403 767 5 0 0 0 - - - 0;
#X floatatom 492 767 5 0 0 0 - - - 0;
#X floatatom 573 767 5 0 0 0 - - - 0;
#X floatatom 670 767 5 0 0 0 - - - 0;
#X floatatom 758 767 5 0 0 0 - - - 0;
#X floatatom 836 767 5 0 0 0 - - - 0;
#X floatatom 914 767 5 0 0 0 - - - 0;
#X floatatom 997 767 5 0 0 0 - - - 0;
#X obj 495 412 tgl 19 0 empty empty empty 0 -10 0 12 #fcfcfc #000000 #000000 0 1;
#X obj 496 287 tgl 19 0 empty empty empty 0 -10 0 12 #fcfcfc #000000 #000000 0 1;
#X obj 494 631 tgl 19 0 empty empty empty 0 -10 0 12 #fcfcfc #000000 #000000 0 1;
#X obj 495 524 tgl 19 0 empty empty empty 0 -10 0 12 #fcfcfc #000000 #000000 0 1;
#X obj 576 413 tgl 19 0 empty empty empty 0 -10 0 12 #fcfcfc #000000 #000000 0 1;
#X obj 577 288 tgl 19 0 empty empty empty 0 -10 0 12 #fcfcfc #000000 #000000 0 1;
#X obj 575 632 tgl 19 0 empty empty empty 0 -10 0 12 #fcfcfc #000000 #000000 0 1;
#X obj 576 525 tgl 19 0 empty empty empty 0 -10 0 12 #fcfcfc #000000 #000000 0 1;
#X obj 671 414 tgl 19 0 empty empty empty 0 -10 0 12 #fcfcfc #000000 #000000 0 1;
#X obj 672 289 tgl 19 0 empty empty empty 0 -10 0 12 #fcfcfc #000000 #000000 0 1;
#X obj 670 637 tgl 19 0 empty empty empty 0 -10 0 12 #fcfcfc #000000 #000000 0 1;
#X obj 671 526 tgl 19 0 empty empty empty 0 -10 0 12 #fcfcfc #000000 #000000 0 1;
#X obj 760 413 tgl 19 0 empty empty empty 0 -10 0 12 #fcfcfc #000000 #000000 0 1;
#X obj 761 288 tgl 19 0 empty empty empty 0 -10 0 12 #fcfcfc #000000 #000000 0 1;
#X obj 759 632 tgl 19 0 empty empty empty 0 -10 0 12 #fcfcfc #000000 #000000 0 1;
#X obj 760 525 tgl 19 0 empty empty empty 0 -10 0 12 #fcfcfc #000000 #000000 0 1;
#X obj 408 412 tgl 19 0 empty empty empty 0 -10 0 12 #fcfcfc #000000 #000000 0 1;
#X obj 409 287 tgl 19 0 empty empty empty 0 -10 0 12 #fcfcfc #000000 #000000 0 1;
#X obj 407 631 tgl 19 0 empty empty empty 0 -10 0 12 #fcfcfc #000000 #000000 0 1;
#X obj 408 524 tgl 19 0 empty empty empty 0 -10 0 12 #fcfcfc #000000 #000000 0 1;
#X obj 841 413 tgl 19 0 empty empty empty 0 -10 0 12 #fcfcfc #000000 #000000 0 1;
#X obj 842 288 tgl 19 0 empty empty empty 0 -10 0 12 #fcfcfc #000000 #000000 0 1;
#X obj 840 632 tgl 19 0 empty empty empty 0 -10 0 12 #fcfcfc #000000 #000000 0 1;
#X obj 841 525 tgl 19 0 empty empty empty 0 -10 0 12 #fcfcfc #000000 #000000 0 1;
#X obj 920 413 tgl 19 0 empty empty empty 0 -10 0 12 #fcfcfc #000000 #000000 0 1;
#X obj 921 288 tgl 19 0 empty empty empty 0 -10 0 12 #fcfcfc #000000 #000000 0 1;
#X obj 919 632 tgl 19 0 empty empty empty 0 -10 0 12 #fcfcfc #000000 #000000 0 1;
#X obj 920 525 tgl 19 0 empty empty empty 0 -10 0 12 #fcfcfc #000000 #000000 0 1;
#X obj 997 414 tgl 19 0 empty empty empty 0 -10 0 12 #fcfcfc #000000 #000000 0 1;
#X obj 998 289 tgl 19 0 empty empty empty 0 -10 0 12 #fcfcfc #000000 #000000 0 1;
#X obj 996 637 tgl 19 0 empty empty empty 0 -10 0 12 #fcfcfc #000000 #000000 0 1;
#X obj 997 526 tgl 19 0 empty empty empty 0 -10 0 12 #fcfcfc #000000 #000000 0 1;
#X obj 91 735 tgl 19 0 empty empty empty 0 -10 0 12 #fcfcfc #000000 #000000 0 1;
#X obj 172 736 tgl 19 0 empty empty empty 0 -10 0 12 #fcfcfc #000000 #000000 0 1;
#X obj 267 737 tgl 19 0 empty empty empty 0 -10 0 12 #fcfcfc #000000 #000000 0 1;
#X obj 4 735 tgl 19 0 empty empty empty 0 -10 0 12 #fcfcfc #000000 #000000 0 1;
#X obj 90 626 tgl 19 0 empty empty empty 0 -10 0 12 #fcfcfc #000000 #000000 0 1;
#X obj 171 627 tgl 19 0 empty empty empty 0 -10 0 12 #fcfcfc #000000 #000000 0 1;
#X obj 266 628 tgl 19 0 empty empty empty 0 -10 0 12 #fcfcfc #000000 #000000 0 1;
#X obj 3 626 tgl 19 0 empty empty empty 0 -10 0 12 #fcfcfc #000000 #000000 0 1;
#X obj 90 516 tgl 19 0 empty empty empty 0 -10 0 12 #fcfcfc #000000 #000000 0 1;
#X obj 171 517 tgl 19 0 empty empty empty 0 -10 0 12 #fcfcfc #000000 #000000 0 1;
#X obj 266 518 tgl 19 0 empty empty empty 0 -10 0 12 #fcfcfc #000000 #000000 0 1;
#X obj 3 516 tgl 19 0 empty empty empty 0 -10 0 12 #fcfcfc #000000 #000000 0 1;
#X floatatom 118 877 5 0 0 0 - - - 0;
#X obj 399 865 ctlin 2 2;
#X obj 488 865 ctlin 3 2;
#X obj 567 865 ctlin 4 2;
#X obj 666 865 ctlin 5 2;
#X obj 754 865 ctlin 6 2;
#X obj 832 865 ctlin 8 2;
#X obj 910 865 ctlin 9 2;
#X obj 990 865 ctlin 12 2;
#X obj 994 745 ctlin 20 2;
#X obj 914 745 ctlin 19 2;
#X obj 836 745 ctlin 18 2;
#X obj 758 745 ctlin 17 2;
#X obj 670 745 ctlin 16 2;
#X obj 571 745 ctlin 15 2;
#X obj 492 745 ctlin 14 2;
#X obj 403 745 ctlin 13 2;
#X obj 267 713 ctlin 81 2;
#X obj 172 712 ctlin 80 2;
#X obj 91 711 ctlin 63 2;
#X obj 6 711 ctlin 62 2;
#X obj 4 602 ctlin 58 2;
#X obj 90 602 ctlin 59 2;
#X obj 171 603 ctlin 60 2;
#X obj 266 604 ctlin 61 2;
#X obj 266 494 ctlin 57 2;
#X obj 171 493 ctlin 56 2;
#X obj 90 492 ctlin 55 2;
#X obj 4 492 ctlin 54 2;
#X obj 117 858 ctlin 86 2;
#X obj 409 263 ctlin 21 2;
#X obj 408 388 ctlin 29 2;
#X obj 408 500 ctlin 38 2;
#X obj 407 607 ctlin 46 2;
#X obj 496 261 ctlin 22 2;
#X obj 495 388 ctlin 30 2;
#X obj 495 500 ctlin 39 2;
#X obj 494 607 ctlin 47 2;
#X obj 575 608 ctlin 48 2;
#X obj 576 501 ctlin 40 2;
#X obj 576 389 ctlin 31 2;
#X obj 577 264 ctlin 23 2;
#X obj 674 267 ctlin 24 2;
#X obj 671 390 ctlin 33 2;
#X obj 671 503 ctlin 41 2;
#X obj 670 609 ctlin 49 2;
#X obj 759 608 ctlin 50 2;
#X obj 760 501 ctlin 42 2;
#X obj 760 389 ctlin 34 2;
#X obj 761 264 ctlin 25 2;
#X obj 841 608 ctlin 51 2;
#X obj 841 501 ctlin 43 2;
#X obj 841 389 ctlin 35 2;
#X obj 843 264 ctlin 26 2;
#X obj 922 265 ctlin 27 2;
#X obj 920 389 ctlin 36 2;
#X obj 920 501 ctlin 44 2;
#X obj 919 608 ctlin 52 2;
#X obj 998 265 ctlin 28 2;
#X obj 997 390 ctlin 37 2;
#X obj 997 502 ctlin 45 2;
#X obj 996 609 ctlin 53 2;
#X floatatom 390 1376 5 0 0 0 - - - 0;
#X floatatom 479 1376 5 0 0 0 - - - 0;
#X floatatom 560 1376 5 0 0 0 - - - 0;
#X floatatom 657 1376 5 0 0 0 - - - 0;
#X floatatom 745 1376 5 0 0 0 - - - 0;
#X floatatom 823 1376 5 0 0 0 - - - 0;
#X floatatom 901 1376 5 0 0 0 - - - 0;
#X floatatom 984 1376 5 0 0 0 - - - 0;
#X floatatom 394 1318 5 0 0 0 - - - 0;
#X floatatom 483 1318 5 0 0 0 - - - 0;
#X floatatom 564 1318 5 0 0 0 - - - 0;
#X floatatom 661 1318 5 0 0 0 - - - 0;
#X floatatom 749 1318 5 0 0 0 - - - 0;
#X floatatom 827 1318 5 0 0 0 - - - 0;
#X floatatom 905 1318 5 0 0 0 - - - 0;
#X floatatom 988 1318 5 0 0 0 - - - 0;
#X obj 486 1141 tgl 19 0 empty empty empty 0 -10 0 12 #fcfcfc #000000 #000000 0 1;
#X obj 487 1094 tgl 19 0 empty empty empty 0 -10 0 12 #fcfcfc #000000 #000000 0 1;
#X obj 485 1240 tgl 19 0 empty empty empty 0 -10 0 12 #fcfcfc #000000 #000000 0 1;
#X obj 486 1193 tgl 19 0 empty empty empty 0 -10 0 12 #fcfcfc #000000 #000000 0 1;
#X obj 567 1142 tgl 19 0 empty empty empty 0 -10 0 12 #fcfcfc #000000 #000000 0 1;
#X obj 568 1095 tgl 19 0 empty empty empty 0 -10 0 12 #fcfcfc #000000 #000000 0 1;
#X obj 566 1241 tgl 19 0 empty empty empty 0 -10 0 12 #fcfcfc #000000 #000000 0 1;
#X obj 567 1194 tgl 19 0 empty empty empty 0 -10 0 12 #fcfcfc #000000 #000000 0 1;
#X obj 662 1143 tgl 19 0 empty empty empty 0 -10 0 12 #fcfcfc #000000 #000000 0 1;
#X obj 663 1096 tgl 19 0 empty empty empty 0 -10 0 12 #fcfcfc #000000 #000000 0 1;
#X obj 661 1242 tgl 19 0 empty empty empty 0 -10 0 12 #fcfcfc #000000 #000000 0 1;
#X obj 662 1195 tgl 19 0 empty empty empty 0 -10 0 12 #fcfcfc #000000 #000000 0 1;
#X obj 751 1142 tgl 19 0 empty empty empty 0 -10 0 12 #fcfcfc #000000 #000000 0 1;
#X obj 752 1095 tgl 19 0 empty empty empty 0 -10 0 12 #fcfcfc #000000 #000000 0 1;
#X obj 750 1241 tgl 19 0 empty empty empty 0 -10 0 12 #fcfcfc #000000 #000000 0 1;
#X obj 751 1194 tgl 19 0 empty empty empty 0 -10 0 12 #fcfcfc #000000 #000000 0 1;
#X obj 399 1141 tgl 19 0 empty empty empty 0 -10 0 12 #fcfcfc #000000 #000000 0 1;
#X obj 400 1094 tgl 19 0 empty empty empty 0 -10 0 12 #fcfcfc #000000 #000000 0 1;
#X obj 398 1240 tgl 19 0 empty empty empty 0 -10 0 12 #fcfcfc #000000 #000000 0 1;
#X obj 399 1193 tgl 19 0 empty empty empty 0 -10 0 12 #fcfcfc #000000 #000000 0 1;
#X obj 832 1142 tgl 19 0 empty empty empty 0 -10 0 12 #fcfcfc #000000 #000000 0 1;
#X obj 833 1095 tgl 19 0 empty empty empty 0 -10 0 12 #fcfcfc #000000 #000000 0 1;
#X obj 831 1241 tgl 19 0 empty empty empty 0 -10 0 12 #fcfcfc #000000 #000000 0 1;
#X obj 832 1194 tgl 19 0 empty empty empty 0 -10 0 12 #fcfcfc #000000 #000000 0 1;
#X obj 911 1142 tgl 19 0 empty empty empty 0 -10 0 12 #fcfcfc #000000 #000000 0 1;
#X obj 912 1095 tgl 19 0 empty empty empty 0 -10 0 12 #fcfcfc #000000 #000000 0 1;
#X obj 910 1241 tgl 19 0 empty empty empty 0 -10 0 12 #fcfcfc #000000 #000000 0 1;
#X obj 911 1194 tgl 19 0 empty empty empty 0 -10 0 12 #fcfcfc #000000 #000000 0 1;
#X obj 988 1143 tgl 19 0 empty empty empty 0 -10 0 12 #fcfcfc #000000 #000000 0 1;
#X obj 989 1096 tgl 19 0 empty empty empty 0 -10 0 12 #fcfcfc #000000 #000000 0 1;
#X obj 987 1242 tgl 19 0 empty empty empty 0 -10 0 12 #fcfcfc #000000 #000000 0 1;
#X obj 988 1195 tgl 19 0 empty empty empty 0 -10 0 12 #fcfcfc #000000 #000000 0 1;
#X obj 82 1286 tgl 19 0 empty empty empty 0 -10 0 12 #fcfcfc #000000 #000000 0 1;
#X obj 163 1287 tgl 19 0 empty empty empty 0 -10 0 12 #fcfcfc #000000 #000000 0 1;
#X obj 258 1288 tgl 19 0 empty empty empty 0 -10 0 12 #fcfcfc #000000 #000000 0 1;
#X obj -5 1286 tgl 19 0 empty empty empty 0 -10 0 12 #fcfcfc #000000 #000000 0 1;
#X obj 81 1235 tgl 19 0 empty empty empty 0 -10 0 12 #fcfcfc #000000 #000000 0 1;
#X obj 162 1236 tgl 19 0 empty empty empty 0 -10 0 12 #fcfcfc #000000 #000000 0 1;
#X obj 257 1237 tgl 19 0 empty empty empty 0 -10 0 12 #fcfcfc #000000 #000000 0 1;
#X obj -6 1235 tgl 19 0 empty empty empty 0 -10 0 12 #fcfcfc #000000 #000000 0 1;
#X obj 81 1185 tgl 19 0 empty empty empty 0 -10 0 12 #fcfcfc #000000 #000000 0 1;
#X obj 162 1186 tgl 19 0 empty empty empty 0 -10 0 12 #fcfcfc #000000 #000000 0 1;
#X obj 257 1187 tgl 19 0 empty empty empty 0 -10 0 12 #fcfcfc #000000 #000000 0 1;
#X obj -6 1185 tgl 19 0 empty empty empty 0 -10 0 12 #fcfcfc #000000 #000000 0 1;
#X floatatom 109 1366 5 0 0 0 - - - 0;
#X obj -5 1161 ctlin 54 3;
#X obj -4 1212 ctlin 58 3;
#X obj -3 1262 ctlin 62 3;
#X obj 82 1262 ctlin 63 3;
#X obj 81 1211 ctlin 59 3;
#X obj 81 1161 ctlin 55 3;
#X obj 162 1162 ctlin 56 3;
#X obj 162 1212 ctlin 60 3;
#X obj 163 1263 ctlin 80 3;
#X obj 108 1345 ctlin 86 3;
#X obj 258 1264 ctlin 81 3;
#X obj 257 1213 ctlin 61 3;
#X obj 257 1163 ctlin 57 3;
#X obj 400 1070 ctlin 21 3;
#X obj 399 1117 ctlin 29 3;
#X obj 399 1169 ctlin 38 3;
#X obj 398 1216 ctlin 46 3;
#X obj 394 1295 ctlin 13 3;
#X obj 390 1354 ctlin 2 3;
#X obj 487 1068 ctlin 22 3;
#X obj 486 1117 ctlin 30 3;
#X obj 486 1169 ctlin 39 3;
#X obj 485 1216 ctlin 47 3;
#X obj 568 1071 ctlin 23 3;
#X obj 567 1118 ctlin 31 3;
#X obj 567 1170 ctlin 40 3;
#X obj 566 1217 ctlin 48 3;
#X obj 665 1074 ctlin 24 3;
#X obj 662 1119 ctlin 33 3;
#X obj 662 1172 ctlin 41 3;
#X obj 661 1218 ctlin 49 3;
#X obj 752 1071 ctlin 25 3;
#X obj 751 1119 ctlin 34 3;
#X obj 751 1170 ctlin 42 3;
#X obj 752 1217 ctlin 50 3;
#X obj 836 1070 ctlin 26 3;
#X obj 832 1118 ctlin 35 3;
#X obj 832 1170 ctlin 43 3;
#X obj 832 1217 ctlin 51 3;
#X obj 913 1072 ctlin 27 3;
#X obj 911 1118 ctlin 36 3;
#X obj 911 1170 ctlin 44 3;
#X obj 910 1217 ctlin 52 3;
#X obj 989 1072 ctlin 28 3;
#X obj 989 1118 ctlin 37 3;
#X obj 988 1171 ctlin 45 3;
#X obj 987 1218 ctlin 53 3;
#X obj 981 1354 ctlin 12 3;
#X obj 901 1354 ctlin 9 3;
#X obj 823 1354 ctlin 8 3;
#X obj 745 1354 ctlin 6 3;
#X obj 657 1354 ctlin 5 3;
#X obj 558 1354 ctlin 4 3;
#X obj 480 1352 ctlin 3 3;
#X obj 483 1296 ctlin 14 3;
#X obj 562 1296 ctlin 15 3;
#X obj 661 1296 ctlin 16 3;
#X obj 749 1296 ctlin 17 3;
#X obj 827 1296 ctlin 18 3;
#X obj 905 1296 ctlin 19 3;
#X obj 985 1296 ctlin 20 3;
#X text 1717 -64 scene 1 channel 1;
#X obj 554 151 s cntrl_pulse_1;
#X obj 553 104 / 127;
#X obj 553 128 * 64;
#X text 413 61 Drum Pulse 1 - 8;
#X obj 689 112 / 127;
#X obj 689 136 * 64;
#X obj 839 111 / 127;
#X obj 839 135 * 64;
#X obj 977 105 / 127;
#X obj 977 129 * 64;
#X obj 1115 107 / 127;
#X obj 1115 131 * 64;
#X obj 1250 105 / 127;
#X obj 1250 129 * 64;
#X obj 1402 105 / 127;
#X obj 1402 129 * 64;
#X obj 1557 108 / 127;
#X obj 1557 132 * 64;
#X obj 690 159 s cntrl_pulse_2;
#X obj 840 158 s cntrl_pulse_3;
#X obj 978 152 s cntrl_pulse_4;
#X obj 1116 154 s cntrl_pulse_5;
#X obj 1253 152 s cntrl_pulse_6;
#X obj 1403 152 s cntrl_pulse_7;
#X obj 1558 155 s cntrl_pulse_81;
#X obj 552 -16 / 127;
#X obj 549 8 * 64;
#X obj 685 -8 / 127;
#X obj 685 16 * 64;
#X obj 835 -9 / 127;
#X obj 835 15 * 64;
#X obj 973 -15 / 127;
#X obj 973 9 * 64;
#X obj 1111 -13 / 127;
#X obj 1111 11 * 64;
#X obj 1246 -15 / 127;
#X obj 1246 9 * 64;
#X obj 1398 -15 / 127;
#X obj 1398 9 * 64;
#X obj 1553 -12 / 127;
#X obj 1553 12 * 64;
#X obj 1554 35 s cntrl_length_81;
#X obj 1399 31 s cntrl_length_7;
#X obj 1249 32 s cntrl_length_6;
#X obj 1112 34 s cntrl_length_5;
#X obj 974 32 s cntrl_length_4;
#X obj 836 38 s cntrl_length_3;
#X obj 686 39 s cntrl_length_2;
#X obj 550 31 s cntrl_length_1;
#X obj 547 -370 s cntrl_mute_1;
#X text 1137 546 scene 2 channel 2 BASS LINE;
#X text 1139 1153 scene 3 channel 3 - Toggle LEAD LINE;
#X floatatom 405 2125 5 0 0 0 - - - 0;
#X floatatom 494 2125 5 0 0 0 - - - 0;
#X floatatom 575 2125 5 0 0 0 - - - 0;
#X floatatom 672 2125 5 0 0 0 - - - 0;
#X floatatom 760 2125 5 0 0 0 - - - 0;
#X floatatom 838 2125 5 0 0 0 - - - 0;
#X floatatom 916 2125 5 0 0 0 - - - 0;
#X floatatom 999 2125 5 0 0 0 - - - 0;
#X floatatom 409 2005 5 0 0 0 - - - 0;
#X floatatom 498 2005 5 0 0 0 - - - 0;
#X floatatom 579 2005 5 0 0 0 - - - 0;
#X floatatom 676 2005 5 0 0 0 - - - 0;
#X floatatom 764 2005 5 0 0 0 - - - 0;
#X floatatom 842 2005 5 0 0 0 - - - 0;
#X floatatom 920 2005 5 0 0 0 - - - 0;
#X floatatom 1003 2005 5 0 0 0 - - - 0;
#X obj 501 1650 tgl 19 0 empty empty empty 0 -10 0 12 #fcfcfc #000000 #000000 0 1;
#X obj 502 1525 tgl 19 0 empty empty empty 0 -10 0 12 #fcfcfc #000000 #000000 0 1;
#X obj 500 1869 tgl 19 0 empty empty empty 0 -10 0 12 #fcfcfc #000000 #000000 0 1;
#X obj 501 1762 tgl 19 0 empty empty empty 0 -10 0 12 #fcfcfc #000000 #000000 0 1;
#X obj 582 1651 tgl 19 0 empty empty empty 0 -10 0 12 #fcfcfc #000000 #000000 0 1;
#X obj 583 1526 tgl 19 0 empty empty empty 0 -10 0 12 #fcfcfc #000000 #000000 0 1;
#X obj 581 1870 tgl 19 0 empty empty empty 0 -10 0 12 #fcfcfc #000000 #000000 0 1;
#X obj 582 1763 tgl 19 0 empty empty empty 0 -10 0 12 #fcfcfc #000000 #000000 0 1;
#X obj 677 1652 tgl 19 0 empty empty empty 0 -10 0 12 #fcfcfc #000000 #000000 0 1;
#X obj 678 1527 tgl 19 0 empty empty empty 0 -10 0 12 #fcfcfc #000000 #000000 0 1;
#X obj 676 1875 tgl 19 0 empty empty empty 0 -10 0 12 #fcfcfc #000000 #000000 0 1;
#X obj 677 1764 tgl 19 0 empty empty empty 0 -10 0 12 #fcfcfc #000000 #000000 0 1;
#X obj 766 1651 tgl 19 0 empty empty empty 0 -10 0 12 #fcfcfc #000000 #000000 0 1;
#X obj 767 1526 tgl 19 0 empty empty empty 0 -10 0 12 #fcfcfc #000000 #000000 0 1;
#X obj 765 1870 tgl 19 0 empty empty empty 0 -10 0 12 #fcfcfc #000000 #000000 0 1;
#X obj 766 1763 tgl 19 0 empty empty empty 0 -10 0 12 #fcfcfc #000000 #000000 0 1;
#X obj 414 1650 tgl 19 0 empty empty empty 0 -10 0 12 #fcfcfc #000000 #000000 0 1;
#X obj 415 1525 tgl 19 0 empty empty empty 0 -10 0 12 #fcfcfc #000000 #000000 0 1;
#X obj 413 1869 tgl 19 0 empty empty empty 0 -10 0 12 #fcfcfc #000000 #000000 0 1;
#X obj 414 1762 tgl 19 0 empty empty empty 0 -10 0 12 #fcfcfc #000000 #000000 0 1;
#X obj 847 1651 tgl 19 0 empty empty empty 0 -10 0 12 #fcfcfc #000000 #000000 0 1;
#X obj 848 1526 tgl 19 0 empty empty empty 0 -10 0 12 #fcfcfc #000000 #000000 0 1;
#X obj 846 1870 tgl 19 0 empty empty empty 0 -10 0 12 #fcfcfc #000000 #000000 0 1;
#X obj 847 1763 tgl 19 0 empty empty empty 0 -10 0 12 #fcfcfc #000000 #000000 0 1;
#X obj 926 1651 tgl 19 0 empty empty empty 0 -10 0 12 #fcfcfc #000000 #000000 0 1;
#X obj 927 1526 tgl 19 0 empty empty empty 0 -10 0 12 #fcfcfc #000000 #000000 0 1;
#X obj 925 1870 tgl 19 0 empty empty empty 0 -10 0 12 #fcfcfc #000000 #000000 0 1;
#X obj 926 1763 tgl 19 0 empty empty empty 0 -10 0 12 #fcfcfc #000000 #000000 0 1;
#X obj 1003 1652 tgl 19 0 empty empty empty 0 -10 0 12 #fcfcfc #000000 #000000 0 1;
#X obj 1004 1527 tgl 19 0 empty empty empty 0 -10 0 12 #fcfcfc #000000 #000000 0 1;
#X obj 1002 1875 tgl 19 0 empty empty empty 0 -10 0 12 #fcfcfc #000000 #000000 0 1;
#X obj 1003 1764 tgl 19 0 empty empty empty 0 -10 0 12 #fcfcfc #000000 #000000 0 1;
#X obj 97 1973 tgl 19 0 empty empty empty 0 -10 0 12 #fcfcfc #000000 #000000 0 1;
#X obj 178 1974 tgl 19 0 empty empty empty 0 -10 0 12 #fcfcfc #000000 #000000 0 1;
#X obj 273 1975 tgl 19 0 empty empty empty 0 -10 0 12 #fcfcfc #000000 #000000 0 1;
#X obj 10 1973 tgl 19 0 empty empty empty 0 -10 0 12 #fcfcfc #000000 #000000 0 1;
#X obj 96 1864 tgl 19 0 empty empty empty 0 -10 0 12 #fcfcfc #000000 #000000 0 1;
#X obj 177 1865 tgl 19 0 empty empty empty 0 -10 0 12 #fcfcfc #000000 #000000 0 1;
#X obj 272 1866 tgl 19 0 empty empty empty 0 -10 0 12 #fcfcfc #000000 #000000 0 1;
#X obj 9 1864 tgl 19 0 empty empty empty 0 -10 0 12 #fcfcfc #000000 #000000 0 1;
#X obj 96 1754 tgl 19 0 empty empty empty 0 -10 0 12 #fcfcfc #000000 #000000 0 1;
#X obj 177 1755 tgl 19 0 empty empty empty 0 -10 0 12 #fcfcfc #000000 #000000 0 1;
#X obj 272 1756 tgl 19 0 empty empty empty 0 -10 0 12 #fcfcfc #000000 #000000 0 1;
#X obj 9 1754 tgl 19 0 empty empty empty 0 -10 0 12 #fcfcfc #000000 #000000 0 1;
#X floatatom 124 2115 5 0 0 0 - - - 0;
#X obj 405 2103 ctlin 2 2;
#X obj 494 2103 ctlin 3 2;
#X obj 573 2103 ctlin 4 2;
#X obj 672 2103 ctlin 5 2;
#X obj 760 2103 ctlin 6 2;
#X obj 838 2103 ctlin 8 2;
#X obj 916 2103 ctlin 9 2;
#X obj 996 2103 ctlin 12 2;
#X obj 1000 1983 ctlin 20 2;
#X obj 920 1983 ctlin 19 2;
#X obj 842 1983 ctlin 18 2;
#X obj 764 1983 ctlin 17 2;
#X obj 676 1983 ctlin 16 2;
#X obj 577 1983 ctlin 15 2;
#X obj 498 1983 ctlin 14 2;
#X obj 409 1983 ctlin 13 2;
#X obj 273 1951 ctlin 81 2;
#X obj 178 1950 ctlin 80 2;
#X obj 97 1949 ctlin 63 2;
#X obj 12 1949 ctlin 62 2;
#X obj 10 1840 ctlin 58 2;
#X obj 96 1840 ctlin 59 2;
#X obj 177 1841 ctlin 60 2;
#X obj 272 1842 ctlin 61 2;
#X obj 272 1732 ctlin 57 2;
#X obj 177 1731 ctlin 56 2;
#X obj 96 1730 ctlin 55 2;
#X obj 10 1730 ctlin 54 2;
#X obj 123 2096 ctlin 86 2;
#X obj 414 1626 ctlin 29 2;
#X obj 414 1738 ctlin 38 2;
#X obj 413 1845 ctlin 46 2;
#X obj 501 1626 ctlin 30 2;
#X obj 501 1738 ctlin 39 2;
#X obj 500 1845 ctlin 47 2;
#X obj 581 1846 ctlin 48 2;
#X obj 582 1739 ctlin 40 2;
#X obj 582 1627 ctlin 31 2;
#X obj 677 1628 ctlin 33 2;
#X obj 677 1741 ctlin 41 2;
#X obj 676 1847 ctlin 49 2;
#X obj 765 1846 ctlin 50 2;
#X obj 766 1739 ctlin 42 2;
#X obj 766 1627 ctlin 34 2;
#X obj 847 1846 ctlin 51 2;
#X obj 847 1739 ctlin 43 2;
#X obj 847 1627 ctlin 35 2;
#X obj 926 1627 ctlin 36 2;
#X obj 926 1739 ctlin 44 2;
#X obj 925 1846 ctlin 52 2;
#X obj 1003 1628 ctlin 37 2;
#X obj 1003 1740 ctlin 45 2;
#X obj 1002 1847 ctlin 53 2;
#X obj 376 1575 s note_1_up;
#X obj 415 1501 ctlin 21 5;
#X obj 484 1574 s note_2_up;
#X obj 575 1575 s note_3_up;
#X obj 671 1571 s note_4_up;
#X obj 767 1569 s note_5_up;
#X obj 856 1568 s note_6_up;
#X obj 947 1571 s note_7_up;
#X obj 1035 1575 s note_8_up;
#X obj 366 1685 s note_1_up;
#X obj 474 1684 s note_2_up;
#X obj 565 1685 s note_3_up;
#X obj 661 1681 s note_4_up;
#X obj 757 1679 s note_5_up;
#X obj 846 1678 s note_6_up;
#X obj 937 1681 s note_7_up;
#X obj 1025 1685 s note_8_up;
#X text 1202 1653 5 \, drum config note select - up - down channel select - up - down offset dial slider shuffle;
#X obj 502 1499 ctlin 22 5;
#X obj 583 1502 ctlin 23 5;
#X obj 680 1505 ctlin 24 5;
#X obj 767 1502 ctlin 25 5;
#X obj 849 1502 ctlin 26 5;
#X obj 928 1503 ctlin 27 5;
#X obj 1004 1503 ctlin 28 5;
#X obj 677 -367 s cntrl_mute_2;
#X obj 825 -366 s cntrl_mute_3;
#X obj 959 -367 s cntrl_mute_4;
#X obj 1105 -364 s cntrl_mute_5;
#X obj 1249 -368 s cntrl_mute_6;
#X obj 1394 -370 s cntrl_mute_7;
#X obj 1553 -362 s cntrl_mute_8;
#X connect 0 0 5 0;
#X connect 0 1 6 0;
#X connect 0 2 7 0;
#X connect 8 0 380 0;
#X connect 9 0 8 0;
#X connect 10 0 383 0;
#X connect 11 0 10 0;
#X connect 12 0 385 0;
#X connect 13 0 387 0;
#X connect 14 0 389 0;
#X connect 15 0 391 0;
#X connect 16 0 393 0;
#X connect 17 0 395 0;
#X connect 18 0 12 0;
#X connect 19 0 13 0;
#X connect 20 0 14 0;
#X connect 21 0 15 0;
#X connect 22 0 16 0;
#X connect 23 0 17 0;
#X connect 24 0 404 0;
#X connect 25 0 406 0;
#X connect 26 0 408 0;
#X connect 27 0 410 0;
#X connect 28 0 412 0;
#X connect 29 0 414 0;
#X connect 30 0 416 0;
#X connect 31 0 418 0;
#X connect 32 0 24 0;
#X connect 33 0 25 0;
#X connect 34 0 26 0;
#X connect 35 0 27 0;
#X connect 36 0 28 0;
#X connect 37 0 29 0;
#X connect 38 0 30 0;
#X connect 39 0 40 0;
#X connect 39 1 131 0;
#X connect 39 2 130 0;
#X connect 42 0 570 0;
#X connect 46 0 571 0;
#X connect 50 0 572 0;
#X connect 54 0 573 0;
#X connect 58 0 428 0;
#X connect 61 0 59 0;
#X connect 62 0 60 0;
#X connect 63 0 58 0;
#X connect 65 0 574 0;
#X connect 69 0 575 0;
#X connect 73 0 576 0;
#X connect 76 0 31 0;
#X connect 77 0 74 0;
#X connect 78 0 75 0;
#X connect 79 0 72 0;
#X connect 80 0 73 0;
#X connect 81 0 70 0;
#X connect 82 0 66 0;
#X connect 83 0 55 0;
#X connect 84 0 51 0;
#X connect 85 0 47 0;
#X connect 86 0 43 0;
#X connect 87 0 71 0;
#X connect 88 0 67 0;
#X connect 89 0 56 0;
#X connect 90 0 52 0;
#X connect 91 0 48 0;
#X connect 92 0 44 0;
#X connect 93 0 68 0;
#X connect 94 0 64 0;
#X connect 95 0 53 0;
#X connect 96 0 49 0;
#X connect 97 0 57 0;
#X connect 98 0 41 0;
#X connect 99 0 45 0;
#X connect 100 0 69 0;
#X connect 101 0 65 0;
#X connect 102 0 54 0;
#X connect 103 0 50 0;
#X connect 104 0 46 0;
#X connect 105 0 42 0;
#X connect 110 0 109 0;
#X connect 111 0 106 0;
#X connect 112 0 107 0;
#X connect 113 0 108 0;
#X connect 122 0 117 0;
#X connect 123 0 114 0;
#X connect 124 0 115 0;
#X connect 125 0 116 0;
#X connect 126 0 121 0;
#X connect 127 0 118 0;
#X connect 128 0 119 0;
#X connect 129 0 120 0;
#X connect 132 0 133 0;
#X connect 195 0 134 0;
#X connect 196 0 135 0;
#X connect 197 0 136 0;
#X connect 198 0 137 0;
#X connect 199 0 138 0;
#X connect 200 0 139 0;
#X connect 201 0 140 0;
#X connect 202 0 141 0;
#X connect 203 0 149 0;
#X connect 204 0 148 0;
#X connect 205 0 147 0;
#X connect 206 0 146 0;
#X connect 207 0 145 0;
#X connect 208 0 144 0;
#X connect 209 0 143 0;
#X connect 210 0 142 0;
#X connect 211 0 184 0;
#X connect 212 0 183 0;
#X connect 213 0 182 0;
#X connect 214 0 185 0;
#X connect 215 0 189 0;
#X connect 216 0 186 0;
#X connect 217 0 187 0;
#X connect 218 0 188 0;
#X connect 219 0 192 0;
#X connect 220 0 191 0;
#X connect 221 0 190 0;
#X connect 222 0 193 0;
#X connect 223 0 194 0;
#X connect 224 0 167 0;
#X connect 225 0 166 0;
#X connect 226 0 169 0;
#X connect 227 0 168 0;
#X connect 228 0 151 0;
#X connect 229 0 150 0;
#X connect 230 0 153 0;
#X connect 231 0 152 0;
#X connect 232 0 156 0;
#X connect 233 0 157 0;
#X connect 234 0 154 0;
#X connect 235 0 155 0;
#X connect 236 0 159 0;
#X connect 237 0 158 0;
#X connect 238 0 161 0;
#X connect 239 0 160 0;
#X connect 240 0 164 0;
#X connect 241 0 165 0;
#X connect 242 0 162 0;
#X connect 243 0 163 0;
#X connect 244 0 172 0;
#X connect 245 0 173 0;
#X connect 246 0 170 0;
#X connect 247 0 171 0;
#X connect 248 0 175 0;
#X connect 249 0 174 0;
#X connect 250 0 177 0;
#X connect 251 0 176 0;
#X connect 252 0 179 0;
#X connect 253 0 178 0;
#X connect 254 0 181 0;
#X connect 255 0 180 0;
#X connect 317 0 315 0;
#X connect 318 0 311 0;
#X connect 319 0 307 0;
#X connect 320 0 304 0;
#X connect 321 0 308 0;
#X connect 322 0 312 0;
#X connect 323 0 313 0;
#X connect 324 0 309 0;
#X connect 325 0 305 0;
#X connect 326 0 316 0;
#X connect 327 0 306 0;
#X connect 328 0 310 0;
#X connect 329 0 314 0;
#X connect 330 0 289 0;
#X connect 331 0 288 0;
#X connect 332 0 291 0;
#X connect 333 0 290 0;
#X connect 334 0 264 0;
#X connect 335 0 256 0;
#X connect 336 0 273 0;
#X connect 337 0 272 0;
#X connect 338 0 275 0;
#X connect 339 0 274 0;
#X connect 340 0 277 0;
#X connect 341 0 276 0;
#X connect 342 0 279 0;
#X connect 343 0 278 0;
#X connect 344 0 281 0;
#X connect 345 0 280 0;
#X connect 346 0 283 0;
#X connect 347 0 282 0;
#X connect 348 0 285 0;
#X connect 349 0 284 0;
#X connect 350 0 287 0;
#X connect 351 0 286 0;
#X connect 352 0 293 0;
#X connect 353 0 292 0;
#X connect 354 0 295 0;
#X connect 355 0 294 0;
#X connect 356 0 297 0;
#X connect 357 0 296 0;
#X connect 358 0 299 0;
#X connect 359 0 298 0;
#X connect 360 0 301 0;
#X connect 361 0 300 0;
#X connect 362 0 303 0;
#X connect 363 0 302 0;
#X connect 364 0 263 0;
#X connect 365 0 262 0;
#X connect 366 0 261 0;
#X connect 367 0 260 0;
#X connect 368 0 259 0;
#X connect 369 0 258 0;
#X connect 370 0 257 0;
#X connect 371 0 265 0;
#X connect 372 0 266 0;
#X connect 373 0 267 0;
#X connect 374 0 268 0;
#X connect 375 0 269 0;
#X connect 376 0 270 0;
#X connect 377 0 271 0;
#X connect 380 0 381 0;
#X connect 381 0 379 0;
#X connect 383 0 384 0;
#X connect 384 0 397 0;
#X connect 385 0 386 0;
#X connect 386 0 398 0;
#X connect 387 0 388 0;
#X connect 388 0 399 0;
#X connect 389 0 390 0;
#X connect 390 0 400 0;
#X connect 391 0 392 0;
#X connect 392 0 401 0;
#X connect 393 0 394 0;
#X connect 394 0 402 0;
#X connect 395 0 396 0;
#X connect 396 0 403 0;
#X connect 404 0 405 0;
#X connect 405 0 427 0;
#X connect 406 0 407 0;
#X connect 407 0 426 0;
#X connect 408 0 409 0;
#X connect 409 0 425 0;
#X connect 410 0 411 0;
#X connect 411 0 424 0;
#X connect 412 0 413 0;
#X connect 413 0 423 0;
#X connect 414 0 415 0;
#X connect 415 0 422 0;
#X connect 416 0 417 0;
#X connect 417 0 421 0;
#X connect 418 0 419 0;
#X connect 419 0 420 0;
#X connect 448 0 547 0;
#X connect 452 0 548 0;
#X connect 456 0 549 0;
#X connect 460 0 550 0;
#X connect 464 0 545 0;
#X connect 468 0 551 0;
#X connect 472 0 552 0;
#X connect 476 0 553 0;
#X connect 492 0 431 0;
#X connect 493 0 432 0;
#X connect 494 0 433 0;
#X connect 495 0 434 0;
#X connect 496 0 435 0;
#X connect 497 0 436 0;
#X connect 498 0 437 0;
#X connect 499 0 438 0;
#X connect 500 0 446 0;
#X connect 501 0 445 0;
#X connect 502 0 444 0;
#X connect 503 0 443 0;
#X connect 504 0 442 0;
#X connect 505 0 441 0;
#X connect 506 0 440 0;
#X connect 507 0 439 0;
#X connect 508 0 481 0;
#X connect 509 0 480 0;
#X connect 510 0 479 0;
#X connect 511 0 482 0;
#X connect 512 0 486 0;
#X connect 513 0 483 0;
#X connect 514 0 484 0;
#X connect 515 0 485 0;
#X connect 516 0 489 0;
#X connect 517 0 488 0;
#X connect 518 0 487 0;
#X connect 519 0 490 0;
#X connect 520 0 491 0;
#X connect 521 0 463 0;
#X connect 522 0 466 0;
#X connect 523 0 465 0;
#X connect 524 0 447 0;
#X connect 525 0 450 0;
#X connect 526 0 449 0;
#X connect 527 0 453 0;
#X connect 528 0 454 0;
#X connect 529 0 451 0;
#X connect 530 0 455 0;
#X connect 531 0 458 0;
#X connect 532 0 457 0;
#X connect 533 0 461 0;
#X connect 534 0 462 0;
#X connect 535 0 459 0;
#X connect 536 0 469 0;
#X connect 537 0 470 0;
#X connect 538 0 467 0;
#X connect 539 0 471 0;
#X connect 540 0 474 0;
#X connect 541 0 473 0;
#X connect 542 0 475 0;
#X connect 543 0 478 0;
#X connect 544 0 477 0;
#X connect 546 0 464 0;
#X connect 563 0 448 0;
#X connect 564 0 452 0;
#X connect 565 0 456 0;
#X connect 566 0 460 0;
#X connect 567 0 468 0;
#X connect 568 0 472 0;
#X connect 569 0 476 0;
#X restore 1642 1001 pd midiControl;
#X obj 7 400 slideControl2;
#X obj 7 130 slideControl2;
