#N canvas 533 0 1920 1026 10;
#X obj 602 8 tgl 25 0 empty empty empty 17 7 0 10 #fcfcfc #fc0400 #000000 0 1;
#X obj 573 200 % 8;
#X floatatom 581 634 6 0 127 0 - - - 0;
#X floatatom 624 633 3 0 127 0 - - - 0;
#X floatatom 666 632 3 0 127 0 - - - 0;
#X floatatom 693 634 3 0 127 0 - - - 0;
#X floatatom 725 633 3 0 127 0 - - - 0;
#X floatatom 751 632 3 0 127 0 - - - 0;
#X floatatom 783 631 3 0 127 0 - - - 0;
#X floatatom 821 632 3 0 127 0 - - - 0;
#X floatatom 895 142 5 1 32 2 steps - - 0;
#X msg 866 113 8;
#X obj 687 96 sel 0;
#X obj 590 99 i;
#X obj 629 87 + 1;
#X msg 687 120 8;
#X obj 885 93 loadbang;
#X obj 555 88 bng 16 250 50 0 empty empty empty 0 -8 0 10 #fcfcfc #000000 #000000;
#X floatatom 630 676 5 0 0 0 - - - 0;
#X obj 396 814 osc~;
#X obj 401 873 dac~;
#X obj 528 224 + 1;
#X floatatom 470 225 5 0 0 0 - - - 0;
#X msg 442 165 1;
#X msg 473 164 2;
#X floatatom 538 267 5 0 0 0 - - - 0;
#X msg 517 150 4;
#X obj 398 841 *~ 1;
#X text 437 134 offset;
#X floatatom 602 126 5 0 0 0 - - - 0;
#X obj 45 252 bng 16 250 50 0 empty empty empty 0 -8 0 10 #fcfcfc #000000 #000000;
#X obj 392 623 r step1;
#X obj 50 365 s step1;
#X msg 153 538 48;
#X msg 184 538 60;
#X msg 122 539 36;
#X text 213 538 Octive;
#X floatatom 207 593 5 0 0 0 - - - 0;
#X obj 103 606 + 36;
#X obj 596 67 metro 555;
#X obj 630 195 sel 1 2 3 4 5 6 7 8;
#X obj 44 296 random 127;
#X obj 49 319 mtof;
#X floatatom 49 340 5 0 0 0 - - - 0;
#X floatatom 386 757 8 0 0 0 - - - 0;
#X obj 386 731 line 0 100;
#X obj 578 676 bng 16 250 50 0 empty empty empty 0 -8 0 10 #fcfcfc #000000 #000000;
#X msg 434 702 1 \, 0 500 10;
#X obj 225 389 expr $f1 % ($f2 - $f3) + $f3;
#X obj 234 281 random 100;
#X obj 242 231 bng 16 250 50 0 empty empty empty 0 -8 0 10 #fcfcfc #000000 #000000;
#X floatatom 234 302 5 0 0 0 - - - 0;
#X msg 333 345 64;
#X msg 304 344 76;
#X floatatom 225 410 5 0 0 0 - - - 0;
#X obj 272 473 s step1;
#X obj 327 191 metro 111;
#X obj 355 61 tgl 16 0 empty empty empty 0 -8 0 10 #fcfcfc #000000 #000000 0 1;
#X obj 397 791 mtof;
#X obj 846 762 % 12;
#X floatatom 893 777 5 0 0 0 - - - 0;
#X floatatom 958 872 5 0 0 0 - - - 0;
#X msg 960 899 -1;
#X msg 840 894 0;
#X obj 749 847 +;
#X floatatom 749 868 5 0 0 0 - - - 0;
#X obj 1039 693 select 0 2 4 7 9;
#X msg 1035 733 0;
#X floatatom 1132 724 5 0 0 0 - - - 0;
#X obj 1133 744 -1;
#X obj 1127 779 select 0 2 4 7 9;
#X floatatom 1215 821 5 0 0 0 - - - 0;
#X msg 1207 856 -2;
#X msg 1123 819 -1;
#X obj 1053 944 +;
#X floatatom 1053 965 5 0 0 0 - - - 0;
#X text 1068 672 major pentatonic;
#X text 936 649 intervals \, degrees;
#X obj 1102 347 select 0 2 4 5 7 9 11;
#X text 1148 324 major scale;
#X obj 834 845 select 0 2 3 5 7 8 10 12;
#X text 880 822 minor scale;
#X text 1268 456 melodic minor;
#X obj 1222 479 select 0 2 3 5 7 9 11 12;
#X text 1292 519 harmonic minor;
#X obj 1246 542 select 0 2 3 5 7 8 11 12;
#X connect 0 0 12 0;
#X connect 0 0 39 0;
#X connect 1 0 21 0;
#X connect 2 0 18 0;
#X connect 2 0 46 0;
#X connect 3 0 18 0;
#X connect 4 0 18 0;
#X connect 5 0 18 0;
#X connect 6 0 18 0;
#X connect 7 0 18 0;
#X connect 8 0 18 0;
#X connect 9 0 18 0;
#X connect 10 0 1 1;
#X connect 11 0 10 0;
#X connect 12 0 15 0;
#X connect 13 0 1 0;
#X connect 13 0 14 0;
#X connect 13 0 29 0;
#X connect 14 0 13 1;
#X connect 15 0 13 1;
#X connect 16 0 11 0;
#X connect 18 0 59 0;
#X connect 18 0 64 0;
#X connect 18 0 74 0;
#X connect 19 0 27 0;
#X connect 21 0 25 0;
#X connect 21 0 40 0;
#X connect 22 0 21 1;
#X connect 23 0 22 0;
#X connect 24 0 22 0;
#X connect 26 0 22 0;
#X connect 27 0 20 0;
#X connect 30 0 41 0;
#X connect 31 0 2 0;
#X connect 33 0 37 0;
#X connect 33 0 38 1;
#X connect 34 0 37 0;
#X connect 34 0 38 1;
#X connect 35 0 37 0;
#X connect 35 0 38 1;
#X connect 39 0 13 0;
#X connect 39 0 17 0;
#X connect 40 0 2 0;
#X connect 40 1 3 0;
#X connect 40 2 4 0;
#X connect 40 3 5 0;
#X connect 40 4 6 0;
#X connect 40 5 7 0;
#X connect 40 6 8 0;
#X connect 40 7 9 0;
#X connect 41 0 42 0;
#X connect 42 0 43 0;
#X connect 43 0 32 0;
#X connect 44 0 27 1;
#X connect 45 0 44 0;
#X connect 46 0 47 0;
#X connect 47 0 45 0;
#X connect 48 0 54 0;
#X connect 49 0 51 0;
#X connect 50 0 49 0;
#X connect 51 0 48 0;
#X connect 52 0 48 2;
#X connect 53 0 48 1;
#X connect 54 0 55 0;
#X connect 56 0 50 0;
#X connect 57 0 56 0;
#X connect 58 0 19 0;
#X connect 59 0 60 0;
#X connect 59 0 66 0;
#X connect 59 0 80 0;
#X connect 61 0 62 0;
#X connect 62 0 64 1;
#X connect 63 0 64 1;
#X connect 64 0 65 0;
#X connect 65 0 58 0;
#X connect 66 0 67 0;
#X connect 66 1 67 0;
#X connect 66 2 67 0;
#X connect 66 3 67 0;
#X connect 66 4 67 0;
#X connect 66 5 68 0;
#X connect 67 0 74 1;
#X connect 68 0 69 0;
#X connect 69 0 70 0;
#X connect 70 0 73 0;
#X connect 70 1 73 0;
#X connect 70 2 73 0;
#X connect 70 3 73 0;
#X connect 70 4 73 0;
#X connect 70 5 71 0;
#X connect 71 0 72 0;
#X connect 72 0 74 1;
#X connect 73 0 74 1;
#X connect 74 0 75 0;
#X connect 80 0 63 0;
#X connect 80 1 63 0;
#X connect 80 2 63 0;
#X connect 80 3 63 0;
#X connect 80 4 63 0;
#X connect 80 5 63 0;
#X connect 80 6 63 0;
#X connect 80 7 63 0;
#X connect 80 8 61 0;
#X coords 0 -1 1 1 205 90 2 100 100;
