#N canvas -8 0 958 1016 12;
#X floatatom 118 7 3 0 0 3 - - pulse_8 36;
#X floatatom 440 7 3 0 0 3 - - length_8 36;
#X floatatom 1329 7 3 35 42 0 - - note_8 36;
#X floatatom 1082 7 1 0 0 0 - - offset_8 36;
#X floatatom 761 7 3 0 250 0 - - shuffle_8 36;
#X floatatom 1615 7 2 0 16 0 - - channel_8 36;
#X floatatom 1360 585 5 0 0 0 - - - 0;
#X obj 1296 572 bng 16 250 50 0 empty empty empty 0 -8 0 10 #fcfcfc #000000 #000000;
#X floatatom 1569 384 5 0 0 0 - - - 0;
#X floatatom 1501 524 5 0 0 0 - - - 0;
#X obj 1439 659 noteout 10;
#X obj 1172 410 r pulse_8;
#X obj 1246 409 r offset_8;
#X obj 1327 411 r length_8;
#X obj 1420 403 r note_8;
#X obj 1695 415 r channel_8;
#X obj 8 5 bng 50 150 50 0 empty rhythm_8 _8 7 18 0 22 #606060 #dfdfdf #dfdfdf;
#X obj 1722 5 hsl 100 50 0 16 0 0 empty cntrl_channel_8 empty -2 -10 0 12 #d26045 #404040 #000000 0 1;
#X obj 1683 57 int;
#X obj 1456 5 hsl 100 50 1 127 0 0 empty cntrl_note_8 empty -2 -10 0 12 #3894bd #404040 #000000 0 1;
#X obj 1166 5 hsl 100 50 0 8 0 0 empty cntrl_offset_8 empty -2 -10 0 12 #becbd3 #404040 #000000 0 1;
#X obj 567 5 hsl 130 50 0 64 0 0 empty cntrl_length_8 empty 0 30 0 10 #e2803f #000000 #faff00 0 1;
#X obj 245 5 hsl 130 50 0 64 0 0 empty cntrl_pulse_8 empty 0 30 0 10 #3894bd #404040 #faff00 0 1;
#X obj 468 23 int;
#X obj 1165 36 int;
#X obj 1358 23 int;
#X obj 153 12 int;
#N canvas 770 122 833 1026 rhythm 0;
#X obj 331 447 outlet;
#X obj 329 351 % \$3;
#X obj 332 317 * \$1;
#X obj 331 383 < \$1;
#X obj 331 259 +;
#X obj 331 281 %;
#X obj 331 405 select 1;
#X floatatom 291 216 5 0 0 0 - - - 0;
#X floatatom 322 176 5 0 0 0 - - - 0;
#X floatatom 385 164 5 0 0 0 - - - 0;
#X obj 305 459 bng 15 250 50 0 empty empty empty 17 7 0 10 #fcfcfc #000000 #000000;
#X obj 113 123 r timeCount;
#X obj 257 72 inlet;
#X obj 404 63 inlet;
#X obj 548 61 inlet;
#X floatatom 514 169 5 0 0 0 - - - 0;
#X obj 161 64 inlet;
#X connect 1 0 3 0;
#X connect 2 0 1 0;
#X connect 3 0 6 0;
#X connect 4 0 5 0;
#X connect 5 0 2 0;
#X connect 6 0 0 0;
#X connect 6 0 10 0;
#X connect 7 0 4 0;
#X connect 8 0 2 1;
#X connect 8 0 3 1;
#X connect 9 0 4 1;
#X connect 11 0 7 0;
#X connect 12 0 8 0;
#X connect 13 0 9 0;
#X connect 14 0 5 1;
#X connect 14 0 15 0;
#X connect 15 0 5 1;
#X connect 15 0 1 1;
#X coords 0 1026 1 1025 0 0 0;
#X restore 1240 458 pd rhythm;
#X obj 1507 447 bng 19 250 50 0 empty empty empty 0 -10 0 12 #fcfcfc #000000 #000000;
#X obj 1561 5 bng 50 250 50 0 note_8_up empty + 9 19 0 40 #bbbbbb #dfdfdf #606060;
#X msg 364 390 1;
#X obj 366 433 + 1;
#X floatatom 366 457 5 0 0 0 - - - 0;
#X obj 395 413 r note_8;
#X obj 335 356 r note_8_up;
#X obj 1400 5 bng 50 250 50 0 note_8_down empty _ 9 0 0 40 #bbbbbb #404040 #606060;
#X obj 366 480 s cntrl_note_8;
#X obj 448 359 r note_8_down;
#X msg 449 385 -1;
#X obj 380 5 bng 50 250 50 0 pulse_8_up empty + 9 19 0 40 #bbbbbb #ffffff #606060;
#X obj 189 5 bng 50 250 50 0 pulse_8_down empty _ 8 0 0 40 #bbbbbb #000000 #7c7c7c;
#X obj 702 5 bng 50 250 50 0 length_8_up empty + 9 19 0 40 #bbbbbb #dfdfdf #7c7c7c;
#X obj 511 5 bng 50 250 50 0 length_8_down empty _ 8 0 0 40 #bbbbbb #000000 #7c7c7c;
#X obj 1272 5 bng 50 250 50 0 offset_8_up empty + 9 19 0 40 #bbbbbb #dfdfdf #606060;
#X obj 1109 5 bng 50 250 50 0 offset_8_down empty _ 9 0 0 40 #bbbbbb #404040 #606060;
#X obj 1829 5 bng 50 250 50 0 channel_8_up empty + 9 19 0 40 #bbbbbb #dfdfdf #606060;
#X obj 1666 5 bng 50 250 50 0 channel_8_down empty _ 9 0 0 40 #bbbbbb #404040 #606060;
#X msg 93 214 1;
#X obj 111 259 + 1;
#X floatatom 111 283 5 0 0 0 - - - 0;
#X obj 89 185 r pulse_8_up;
#X obj 111 306 s cntrl_pulse_8;
#X obj 185 185 r pulse_8_down;
#X obj 64 5 tgl 50 0 mute_8 cntrl_mute_8 ≈ 5 22 0 66 #bbbbbb #7c7c7c #606060 0 1;
#X obj 143 240 r pulse_8;
#X msg 186 210 -1;
#X msg 95 385 1;
#X obj 97 428 + 1;
#X floatatom 97 452 5 0 0 0 - - - 0;
#X msg 180 380 -1;
#X obj 126 408 r length_8;
#X obj 66 351 r length_8_up;
#X obj 179 354 r length_8_down;
#X obj 97 475 s cntrl_length_8;
#X msg 371 218 1;
#X obj 373 261 + 1;
#X floatatom 373 285 5 0 0 0 - - - 0;
#X msg 456 213 -1;
#X obj 342 184 r offset_8_up;
#X obj 455 187 r offset_8_down;
#X obj 402 241 r offset_8;
#X obj 373 308 s cntrl_offset_8;
#X msg 638 220 1;
#X obj 640 263 + 1;
#X floatatom 640 287 5 0 0 0 - - - 0;
#X msg 723 215 -1;
#X obj 609 186 r channel_8_up;
#X obj 722 189 r channel_8_down;
#X obj 640 310 s cntrl_channel_8;
#X obj 669 243 r channel_8;
#X obj 931 393 r mute_8;
#X obj 1213 539 spigot;
#X obj 1218 624 s rhythm_8;
#X floatatom 1089 436 5 0 0 0 - - - 24;
#X obj 1087 410 r timeCount;
#X obj 1505 498 random 4;
#X obj 889 5 hsl 130 50 0 100 0 0 empty cntrl_shuffle_8 empty -2 -10 0 12 #d26045 #404040 #000000 0 1;
#X obj 1024 5 bng 50 250 50 0 shuffle_8_up empty + 9 19 0 40 #bbbbbb #dfdfdf #606060;
#X obj 833 5 bng 50 250 50 0 shuffle_8_down empty _ 9 0 0 40 #bbbbbb #404040 #606060;
#X msg 626 393 1;
#X obj 628 436 + 1;
#X floatatom 628 460 5 0 0 0 - - - 0;
#X msg 711 388 -1;
#X obj 597 359 r shuffle_8_up;
#X obj 710 362 r shuffle_8_down;
#X obj 700 423 r shuffle_8;
#X obj 628 483 s cntrl_shuffle_8;
#X obj 955 559 tgl 19 0 empty empty empty 0 -10 0 12 #fcfcfc #000000 #000000 0 1;
#X obj 1514 323 r shuffle_8;
#X obj 868 81 int;
#X floatatom 919 421 5 0 0 0 - - - 0;
#X floatatom 1501 571 5 0 0 0 - - - 0;
#X obj 1404 612 makenote 250 250;
#X obj 918 463 != 1;
#X obj 1501 547 + 55;
#X text 1454 141 Note;
#X text 1174 53 offset;
#X text 1746 175 Channel;
#X text 939 72 Shuffle;
#X connect 6 0 102 0;
#X connect 7 0 6 0;
#X connect 8 0 85 1;
#X connect 9 0 104 0;
#X connect 11 0 27 1;
#X connect 12 0 27 2;
#X connect 13 0 27 3;
#X connect 14 0 6 0;
#X connect 15 0 10 2;
#X connect 17 0 18 0;
#X connect 18 0 5 0;
#X connect 19 0 25 0;
#X connect 20 0 24 0;
#X connect 21 0 23 0;
#X connect 22 0 26 0;
#X connect 23 0 1 0;
#X connect 24 0 3 0;
#X connect 25 0 2 0;
#X connect 26 0 0 0;
#X connect 27 0 81 0;
#X connect 28 0 85 0;
#X connect 30 0 31 0;
#X connect 31 0 32 0;
#X connect 32 0 36 0;
#X connect 33 0 31 1;
#X connect 34 0 30 0;
#X connect 37 0 38 0;
#X connect 38 0 31 0;
#X connect 47 0 48 0;
#X connect 48 0 49 0;
#X connect 49 0 51 0;
#X connect 50 0 47 0;
#X connect 52 0 55 0;
#X connect 54 0 48 1;
#X connect 55 0 48 0;
#X connect 56 0 57 0;
#X connect 57 0 58 0;
#X connect 58 0 63 0;
#X connect 59 0 57 0;
#X connect 60 0 57 1;
#X connect 61 0 56 0;
#X connect 62 0 59 0;
#X connect 64 0 65 0;
#X connect 65 0 66 0;
#X connect 66 0 71 0;
#X connect 67 0 65 0;
#X connect 68 0 64 0;
#X connect 69 0 67 0;
#X connect 70 0 65 1;
#X connect 72 0 73 0;
#X connect 73 0 74 0;
#X connect 74 0 78 0;
#X connect 75 0 73 0;
#X connect 76 0 72 0;
#X connect 77 0 75 0;
#X connect 79 0 73 1;
#X connect 80 0 100 0;
#X connect 81 0 7 0;
#X connect 81 0 82 0;
#X connect 81 0 28 0;
#X connect 83 0 27 0;
#X connect 84 0 83 0;
#X connect 85 0 9 0;
#X connect 86 0 99 0;
#X connect 89 0 90 0;
#X connect 90 0 91 0;
#X connect 91 0 96 0;
#X connect 92 0 90 0;
#X connect 93 0 89 0;
#X connect 94 0 92 0;
#X connect 95 0 90 1;
#X connect 97 0 81 1;
#X connect 98 0 8 0;
#X connect 99 0 4 0;
#X connect 100 0 103 0;
#X connect 101 0 102 1;
#X connect 102 0 10 0;
#X connect 102 1 10 1;
#X connect 103 0 97 0;
#X connect 104 0 101 0;
#X coords 0 -1 1 1 1900 50 2 5 5;
