#N canvas 0 0 1902 968 24;
#X text 105 1 basic polyphonic patch with 8 voices;
#X obj 23 255 cnv 15 555 99 empty empty empty 20 12 0 14 -4034 -66577
0;
#X obj 119 421 throw~ outL;
#X obj 285 421 throw~ outR;
#X obj 299 39 r notes;
#X obj 173 267 voice;
#X obj 1195 341 dac~;
#X obj 1238 26 catch~ outR;
#X obj 1093 23 catch~ outL;
#X obj 1169 278 *~;
#X obj 1258 280 *~;
#X obj 1419 64 r vol;
#X obj 1419 117 *;
#X obj 1419 90 t f f;
#X obj 1419 145 sig~;
#X obj 1421 196 lop~ 2;
#X obj 1099 179 clip~ -1 1;
#X obj 1253 184 clip~ -1 1;
#X obj -132 881 tgl 15 0 key2 key2 empty 17 7 0 10 -33289 -262144 -1
0 1;
#X obj -195 900 tgl 15 0 aux aux empty 17 7 0 10 -262144 -1 -1 0 1
;
#X obj -119 902 tgl 15 0 key3 key3 empty 17 7 0 10 -262144 -1 -1 0
1;
#X obj -106 880 tgl 15 0 key4 key4 empty 17 7 0 10 -33289 -262144 -1
0 1;
#X obj -94 902 tgl 15 0 key5 key5 empty 17 7 0 10 -262144 -1 -1 0 1
;
#X obj -69 902 tgl 15 0 key6 key6 empty 17 7 0 10 -262144 -1 -1 0 1
;
#X obj -58 881 tgl 15 0 key7 key7 empty 17 7 0 10 -33289 -262144 -1
0 1;
#X obj -44 902 tgl 15 0 key8 key8 empty 17 7 0 10 -262144 -1 -1 0 1
;
#X obj -33 881 tgl 15 0 key9 key9 empty 17 7 0 10 -33289 -262144 -1
0 1;
#X obj -19 902 tgl 15 0 key10 key10 empty 17 7 0 10 -262144 -1 -1 0
1;
#X obj -7 881 tgl 15 0 key11 key11 empty 17 7 0 10 -33289 -262144 -1
0 1;
#X obj 6 902 tgl 15 0 key12 key12 empty 17 7 0 10 -262144 -33289 -1
0 1;
#X obj 49 902 tgl 15 0 key13 key13 empty 17 7 0 10 -262144 -1 -1 0
1;
#X obj 60 881 tgl 15 0 key14 key14 empty 17 7 0 10 -33289 -262144 -1
0 1;
#X obj 73 902 tgl 15 0 key15 key15 empty 17 7 0 10 -262144 -1 -1 0
1;
#X obj 86 880 tgl 15 0 key16 key16 empty 17 7 0 10 -33289 -262144 -1
0 1;
#X obj 98 902 tgl 15 0 key17 key17 empty 17 7 0 10 -262144 -1 -1 0
1;
#X obj 123 902 tgl 15 0 key18 key18 empty 17 7 0 10 -262144 -1 -1 0
1;
#X obj 134 881 tgl 15 0 key19 key19 empty 17 7 0 10 -33289 -262144
-1 0 1;
#X obj 148 902 tgl 15 0 key20 key20 empty 17 7 0 10 -262144 -1 -1 0
1;
#X obj 159 881 tgl 15 0 key21 key21 empty 17 7 0 10 -33289 -262144
-1 0 1;
#X obj 173 902 tgl 15 0 key22 key22 empty 17 7 0 10 -262144 -1 -1 0
1;
#X obj 185 881 tgl 15 0 key23 key23 empty 17 7 0 10 -33289 -262144
-1 0 1;
#X obj 198 902 tgl 15 0 key24 key24 empty 17 7 0 10 -262144 -33289
-1 0 1;
#X obj -143 902 tgl 15 0 key1 key1 empty 17 7 0 10 -262144 -1 -1 0
1;
#X text -198 873 aux;
#X obj 208 648 vsl 15 128 0 1 0 0 vol vol empty 0 -9 0 10 -262144 -1
-1 12400 1;
#X obj -195 851 cnv 17 17 17 empty empty empty 20 12 0 14 -33289 -262144
0;
#X obj -190 853 cnv 15 15 15 empty led-canvas empty 20 12 0 14 -1 -262144
0;
#X text 193 623 volume;
#X obj 292 215 bng 15 250 50 0 empty empty empty 17 7 0 10 -262144
-1 -1;
#X obj 329 217 bng 15 250 50 0 empty empty empty 17 7 0 10 -262144
-1 -1;
#X obj 366 217 bng 15 250 50 0 empty empty empty 17 7 0 10 -262144
-1 -1;
#N canvas 0 0 1276 643 keyboard-keys 0;
#X obj 111 -33 key;
#X msg 119 41 1;
#X obj 190 -33 keyup;
#X msg 190 41 0;
#X obj 149 112 sel 1 0;
#X obj 149 216 s notes;
#X obj -20 292 key;
#X msg -16 349 1;
#X obj 61 295 keyup;
#X msg 61 348 0;
#X obj 26 428 sel 1 0;
#X obj 29 502 s notes;
#X obj 166 294 key;
#X msg 166 347 1;
#X obj 246 294 keyup;
#X msg 246 347 0;
#X obj 188 427 sel 1 0;
#X obj 190 501 s notes;
#X obj 349 297 key;
#X msg 349 350 1;
#X obj 427 296 keyup;
#X msg 427 349 0;
#X obj 380 426 sel 1 0;
#X obj 378 501 s notes;
#X obj 531 294 key;
#X msg 531 347 1;
#X obj 610 296 keyup;
#X msg 610 349 0;
#X obj 559 423 sel 1 0;
#X obj 555 498 s notes;
#X obj 708 300 key;
#X msg 708 353 1;
#X obj 786 300 keyup;
#X msg 786 353 0;
#X obj 743 421 sel 1 0;
#X obj 747 492 s notes;
#X obj 884 299 key;
#X msg 884 352 1;
#X obj 963 300 keyup;
#X msg 963 353 0;
#X obj 909 423 sel 1 0;
#X obj 898 493 s notes;
#X obj -196 297 key;
#X msg -196 350 1;
#X obj -113 297 keyup;
#X msg -113 350 0;
#X obj -175 430 sel 1 0;
#X obj -166 504 s notes;
#X obj 307 -36 key;
#X msg 307 38 1;
#X obj 393 -38 keyup;
#X msg 393 36 0;
#X obj 358 110 sel 1 0;
#X obj 358 214 s notes;
#X obj 510 -32 key;
#X msg 510 42 1;
#X obj 584 -32 keyup;
#X msg 584 42 0;
#X obj 550 110 sel 1 0;
#X obj 568 211 s notes;
#X obj 702 -34 key;
#X msg 702 40 1;
#X obj 772 -34 keyup;
#X msg 772 40 0;
#X obj 737 114 sel 1 0;
#X obj 737 218 s notes;
#X obj 896 -33 key;
#X msg 896 41 1;
#X obj 973 -33 keyup;
#X msg 973 41 0;
#X obj 938 115 sel 1 0;
#X obj 938 219 s notes;
#X obj -158 890 key;
#X msg -158 945 1;
#X obj -76 890 keyup;
#X msg -76 945 0;
#X obj -111 986 s key1;
#X obj -111 1019 r key1;
#X obj -111 1052 sel 1 0;
#X msg -111 1085 60 100;
#X msg -37 1083 60 0;
#X obj -111 1118 s notes;
#X obj -157 912 sel 122;
#X obj -76 912 sel 122;
#X text -158 859 z;
#X obj 32 889 key;
#X msg 32 944 1;
#X obj 113 889 keyup;
#X msg 113 944 0;
#X obj 77 1046 sel 1 0;
#X obj 78 1110 s notes;
#X text 32 858 x;
#X obj 33 911 sel 120;
#X obj 113 911 sel 120;
#X msg 45 1077 62 100;
#X msg 118 1076 62 0;
#X obj 220 889 key;
#X msg 220 944 1;
#X obj 286 888 keyup;
#X msg 286 943 0;
#X obj 251 1045 sel 1 0;
#X obj 251 1109 s notes;
#X obj 378 881 key;
#X msg 401 936 1;
#X obj 457 881 keyup;
#X msg 457 936 0;
#X obj 422 1010 sel 1 0;
#X obj 435 1088 s notes;
#X obj 564 879 key;
#X msg 564 934 1;
#X obj 636 879 keyup;
#X msg 636 934 0;
#X obj 601 1008 sel 1 0;
#X obj 595 1077 s notes;
#X obj 730 881 key;
#X msg 730 936 1;
#X obj 807 880 keyup;
#X msg 807 935 0;
#X obj 772 1009 sel 1 0;
#X obj 769 1077 s notes;
#X obj 897 897 key;
#X msg 897 952 1;
#X obj 976 896 keyup;
#X msg 976 951 0;
#X obj 929 1025 sel 1 0;
#X obj 928 1091 s notes;
#X obj -16 584 key;
#X msg -12 636 1;
#X obj 78 607 keyup;
#X msg 78 640 0;
#X obj 29 727 sel 1 0;
#X obj 29 793 s notes;
#X obj 206 579 key;
#X msg 210 631 1;
#X obj 293 606 keyup;
#X msg 293 639 0;
#X obj 251 732 sel 1 0;
#X obj 251 798 s notes;
#X obj 381 561 key;
#X msg 391 620 1;
#X obj 470 590 keyup;
#X msg 470 623 0;
#X obj 440 723 sel 1 0;
#X obj 440 789 s notes;
#X obj 603 570 key;
#X msg 601 622 1;
#X obj 682 597 keyup;
#X msg 682 630 0;
#X obj 628 721 sel 1 0;
#X obj 628 787 s notes;
#X obj 798 565 key;
#X msg 802 617 1;
#X obj 882 592 keyup;
#X msg 882 625 0;
#X obj 819 729 sel 1 0;
#X obj 818 793 s notes;
#X obj -196 320 sel 113;
#X obj -113 320 sel 113;
#X msg -188 464 72 100;
#X msg -113 465 72 0;
#X text -196 266 q;
#X text 163 -65 2;
#X obj 112 -11 sel 50;
#X obj 190 -11 sel 50;
#X msg 114 168 73 100;
#X msg 189 170 73 0;
#X msg -3 461 74 100;
#X msg 69 462 74 0;
#X msg 319 168 75 100;
#X msg 398 168 75 0;
#X msg 160 462 76 100;
#X msg 230 461 76 0;
#X msg 348 461 77 100;
#X msg 418 461 77 0;
#X msg 522 169 78 100;
#X msg 597 169 78 0;
#X msg 530 462 79 100;
#X msg 599 462 79 0;
#X msg 721 170 80 100;
#X msg 799 172 80 0;
#X msg 719 459 81 100;
#X msg 789 460 81 0;
#X msg 901 173 82 100;
#X msg 978 173 82 0;
#X msg 882 459 83 100;
#X obj -20 319 sel 119;
#X obj 61 318 sel 119;
#X text -16 265 w;
#X text 356 -68 3;
#X obj 308 -14 sel 51;
#X obj 393 -16 sel 51;
#X obj 167 317 sel 101;
#X obj 246 317 sel 101;
#X obj 349 320 sel 114;
#X obj 427 319 sel 114;
#X text 349 266 r;
#X text 166 263 e;
#X text 539 266 t;
#X text 708 269 y;
#X text 884 268 u;
#X text 953 -67 7;
#X text 760 -63 6;
#X text 568 -61 5;
#X obj 532 317 sel 116;
#X obj 610 319 sel 116;
#X obj 511 -10 sel 53;
#X obj 584 -10 sel 53;
#X obj 703 -12 sel 54;
#X obj 772 -12 sel 54;
#X obj 709 323 sel 121;
#X obj 786 323 sel 121;
#X obj 897 -11 sel 55;
#X obj 973 -11 sel 55;
#X obj 885 322 sel 117;
#X obj 963 323 sel 117;
#X msg 225 1075 64 100;
#X msg 300 1077 64 0;
#X msg 393 1047 65 100;
#X msg 469 1046 65 0;
#X msg 561 1042 67 100;
#X msg 636 1043 67 0;
#X msg 731 1040 69 100;
#X msg 806 1042 69 0;
#X msg 909 1056 71 100;
#X msg 984 1058 71 0;
#X obj 221 911 sel 99;
#X obj 286 910 sel 99;
#X obj 379 903 sel 118;
#X obj 457 903 sel 118;
#X obj 565 901 sel 98;
#X obj 636 901 sel 98;
#X obj 731 903 sel 110;
#X obj 807 902 sel 110;
#X obj 898 919 sel 109;
#X obj 976 918 sel 109;
#X obj 882 592 sel 106;
#X obj 801 594 sel 106;
#X obj 682 597 sel 104;
#X obj 602 599 sel 104;
#X obj 470 590 sel 103;
#X obj 387 590 sel 103;
#X obj -11 613 sel 115;
#X obj 78 607 sel 115;
#X obj 211 608 sel 100;
#X obj 293 606 sel 100;
#X text -16 553 s;
#X text 206 548 d;
#X text 381 530 g;
#X text 604 542 h;
#X text 798 534 j;
#X text 220 858 c;
#X text 378 850 v;
#X text 565 843 b;
#X text 730 850 n;
#X text 897 866 m;
#X msg 29 760 61 100;
#X msg 105 761 61 0;
#X msg 224 764 63 100;
#X msg 302 763 63 0;
#X msg 412 753 66 100;
#X msg 486 754 66 0;
#X msg 608 752 68 100;
#X msg 682 752 68 0;
#X msg 797 760 70 100;
#X msg 874 760 70 0;
#X obj 30 668 s key2;
#X obj 29 694 r key2;
#X obj 78 985 s key3;
#X obj 77 1017 r key3;
#X obj 250 671 s key4;
#X obj 251 699 r key4;
#X obj 251 984 s key5;
#X obj 250 1016 r key5;
#X obj 422 977 s key6;
#X obj 421 1009 r key6;
#X obj 438 658 s key7;
#X obj 439 690 r key7;
#X obj 601 975 s key8;
#X obj 600 1007 r key8;
#X obj 632 658 s key9;
#X obj 628 688 r key9;
#X obj 772 976 s key10;
#X obj 771 1008 r key10;
#X obj 822 665 s key11;
#X obj 819 696 r key11;
#X obj 929 992 s key12;
#X obj 927 1024 r key12;
#X obj -176 429 r key13;
#X obj -175 397 s key13;
#X obj 149 79 s key14;
#X obj 148 111 r key14;
#X obj 26 395 s key15;
#X obj 25 427 r key15;
#X obj 358 77 s key16;
#X obj 357 109 r key16;
#X obj 188 394 s key17;
#X obj 186 426 r key17;
#X obj 380 393 s key18;
#X obj 377 425 r key18;
#X obj 550 77 s key19;
#X obj 549 109 r key19;
#X obj 559 390 s key20;
#X obj 558 422 r key20;
#X obj 737 81 s key21;
#X obj 736 113 r key21;
#X obj 743 388 s key22;
#X obj 741 420 r key22;
#X obj 938 82 s key23;
#X obj 937 114 r key23;
#X obj 905 386 s key24;
#X obj 908 422 r key24;
#X text -90 -80 1;
#X obj -135 -30 key;
#X obj -66 -30 keyup;
#X obj -135 3 sel 49;
#X obj -66 3 sel 49;
#X obj -135 36 t b b;
#X msg -142 106 1;
#X obj -124 173 change;
#X msg -89 68 stop;
#X msg -86 138 0;
#X obj -86 105 delay 250;
#X obj -124 206 s aux;
#X msg 978 459 83 0;
#X connect 0 0 162 0;
#X connect 1 0 289 0;
#X connect 2 0 163 0;
#X connect 3 0 289 0;
#X connect 4 0 164 0;
#X connect 4 1 165 0;
#X connect 6 0 185 0;
#X connect 7 0 291 0;
#X connect 8 0 186 0;
#X connect 9 0 291 0;
#X connect 10 0 166 0;
#X connect 10 1 167 0;
#X connect 12 0 191 0;
#X connect 13 0 295 0;
#X connect 14 0 192 0;
#X connect 15 0 295 0;
#X connect 16 0 170 0;
#X connect 16 1 171 0;
#X connect 18 0 193 0;
#X connect 19 0 297 0;
#X connect 20 0 194 0;
#X connect 21 0 297 0;
#X connect 22 0 172 0;
#X connect 22 1 173 0;
#X connect 24 0 203 0;
#X connect 25 0 301 0;
#X connect 26 0 204 0;
#X connect 27 0 301 0;
#X connect 28 0 176 0;
#X connect 28 1 177 0;
#X connect 30 0 209 0;
#X connect 31 0 305 0;
#X connect 32 0 210 0;
#X connect 33 0 305 0;
#X connect 34 0 180 0;
#X connect 34 1 181 0;
#X connect 36 0 213 0;
#X connect 37 0 309 0;
#X connect 38 0 214 0;
#X connect 39 0 309 0;
#X connect 40 0 184 0;
#X connect 40 1 323 0;
#X connect 42 0 156 0;
#X connect 43 0 288 0;
#X connect 44 0 157 0;
#X connect 45 0 288 0;
#X connect 46 0 158 0;
#X connect 46 1 159 0;
#X connect 48 0 189 0;
#X connect 49 0 293 0;
#X connect 50 0 190 0;
#X connect 51 0 293 0;
#X connect 52 0 168 0;
#X connect 52 1 169 0;
#X connect 54 0 205 0;
#X connect 55 0 299 0;
#X connect 56 0 206 0;
#X connect 57 0 299 0;
#X connect 58 0 174 0;
#X connect 58 1 175 0;
#X connect 60 0 207 0;
#X connect 61 0 303 0;
#X connect 62 0 208 0;
#X connect 63 0 303 0;
#X connect 64 0 178 0;
#X connect 64 1 179 0;
#X connect 66 0 211 0;
#X connect 67 0 307 0;
#X connect 68 0 212 0;
#X connect 69 0 307 0;
#X connect 70 0 182 0;
#X connect 70 1 183 0;
#X connect 72 0 82 0;
#X connect 73 0 76 0;
#X connect 74 0 83 0;
#X connect 75 0 76 0;
#X connect 77 0 78 0;
#X connect 78 0 79 0;
#X connect 78 1 80 0;
#X connect 79 0 81 0;
#X connect 80 0 81 0;
#X connect 82 0 73 0;
#X connect 83 0 75 0;
#X connect 85 0 92 0;
#X connect 86 0 267 0;
#X connect 87 0 93 0;
#X connect 88 0 267 0;
#X connect 89 0 94 0;
#X connect 89 1 95 0;
#X connect 92 0 86 0;
#X connect 93 0 88 0;
#X connect 94 0 90 0;
#X connect 95 0 90 0;
#X connect 96 0 225 0;
#X connect 97 0 271 0;
#X connect 98 0 226 0;
#X connect 99 0 271 0;
#X connect 100 0 215 0;
#X connect 100 1 216 0;
#X connect 102 0 227 0;
#X connect 103 0 273 0;
#X connect 104 0 228 0;
#X connect 105 0 273 0;
#X connect 106 0 217 0;
#X connect 106 1 218 0;
#X connect 108 0 229 0;
#X connect 109 0 277 0;
#X connect 110 0 230 0;
#X connect 111 0 277 0;
#X connect 112 0 219 0;
#X connect 112 1 220 0;
#X connect 114 0 231 0;
#X connect 115 0 281 0;
#X connect 116 0 232 0;
#X connect 117 0 281 0;
#X connect 118 0 221 0;
#X connect 118 1 222 0;
#X connect 120 0 233 0;
#X connect 121 0 285 0;
#X connect 122 0 234 0;
#X connect 123 0 285 0;
#X connect 124 0 223 0;
#X connect 124 1 224 0;
#X connect 126 0 241 0;
#X connect 127 0 265 0;
#X connect 128 0 242 0;
#X connect 129 0 265 0;
#X connect 130 0 255 0;
#X connect 130 1 256 0;
#X connect 132 0 243 0;
#X connect 133 0 269 0;
#X connect 134 0 244 0;
#X connect 135 0 269 0;
#X connect 136 0 257 0;
#X connect 136 1 258 0;
#X connect 138 0 240 0;
#X connect 139 0 275 0;
#X connect 140 0 239 0;
#X connect 141 0 275 0;
#X connect 142 0 259 0;
#X connect 142 1 260 0;
#X connect 144 0 238 0;
#X connect 145 0 279 0;
#X connect 146 0 237 0;
#X connect 147 0 279 0;
#X connect 148 0 261 0;
#X connect 148 1 262 0;
#X connect 150 0 236 0;
#X connect 151 0 283 0;
#X connect 152 0 235 0;
#X connect 153 0 283 0;
#X connect 154 0 263 0;
#X connect 154 1 264 0;
#X connect 156 0 43 0;
#X connect 157 0 45 0;
#X connect 158 0 47 0;
#X connect 159 0 47 0;
#X connect 162 0 1 0;
#X connect 163 0 3 0;
#X connect 164 0 5 0;
#X connect 165 0 5 0;
#X connect 166 0 11 0;
#X connect 167 0 11 0;
#X connect 168 0 53 0;
#X connect 169 0 53 0;
#X connect 170 0 17 0;
#X connect 171 0 17 0;
#X connect 172 0 23 0;
#X connect 173 0 23 0;
#X connect 174 0 59 0;
#X connect 175 0 59 0;
#X connect 176 0 29 0;
#X connect 177 0 29 0;
#X connect 178 0 65 0;
#X connect 179 0 65 0;
#X connect 180 0 35 0;
#X connect 181 0 35 0;
#X connect 182 0 71 0;
#X connect 183 0 71 0;
#X connect 184 0 41 0;
#X connect 185 0 7 0;
#X connect 186 0 9 0;
#X connect 189 0 49 0;
#X connect 190 0 51 0;
#X connect 191 0 13 0;
#X connect 192 0 15 0;
#X connect 193 0 19 0;
#X connect 194 0 21 0;
#X connect 203 0 25 0;
#X connect 204 0 27 0;
#X connect 205 0 55 0;
#X connect 206 0 57 0;
#X connect 207 0 61 0;
#X connect 208 0 63 0;
#X connect 209 0 31 0;
#X connect 210 0 33 0;
#X connect 211 0 67 0;
#X connect 212 0 69 0;
#X connect 213 0 37 0;
#X connect 214 0 39 0;
#X connect 215 0 101 0;
#X connect 216 0 101 0;
#X connect 217 0 107 0;
#X connect 218 0 107 0;
#X connect 219 0 113 0;
#X connect 220 0 113 0;
#X connect 221 0 119 0;
#X connect 222 0 119 0;
#X connect 223 0 125 0;
#X connect 224 0 125 0;
#X connect 225 0 97 0;
#X connect 226 0 99 0;
#X connect 227 0 103 0;
#X connect 228 0 105 0;
#X connect 229 0 109 0;
#X connect 230 0 111 0;
#X connect 231 0 115 0;
#X connect 232 0 117 0;
#X connect 233 0 121 0;
#X connect 234 0 123 0;
#X connect 235 0 153 0;
#X connect 236 0 151 0;
#X connect 237 0 147 0;
#X connect 238 0 145 0;
#X connect 239 0 141 0;
#X connect 240 0 139 0;
#X connect 241 0 127 0;
#X connect 242 0 129 0;
#X connect 243 0 133 0;
#X connect 244 0 135 0;
#X connect 255 0 131 0;
#X connect 256 0 131 0;
#X connect 257 0 137 0;
#X connect 258 0 137 0;
#X connect 259 0 143 0;
#X connect 260 0 143 0;
#X connect 261 0 149 0;
#X connect 262 0 149 0;
#X connect 263 0 155 0;
#X connect 264 0 155 0;
#X connect 266 0 130 0;
#X connect 268 0 89 0;
#X connect 270 0 136 0;
#X connect 272 0 100 0;
#X connect 274 0 106 0;
#X connect 276 0 142 0;
#X connect 278 0 112 0;
#X connect 280 0 148 0;
#X connect 282 0 118 0;
#X connect 284 0 154 0;
#X connect 286 0 124 0;
#X connect 287 0 46 0;
#X connect 290 0 4 0;
#X connect 292 0 10 0;
#X connect 294 0 52 0;
#X connect 296 0 16 0;
#X connect 298 0 22 0;
#X connect 300 0 58 0;
#X connect 302 0 28 0;
#X connect 304 0 64 0;
#X connect 306 0 34 0;
#X connect 308 0 70 0;
#X connect 310 0 40 0;
#X connect 312 0 314 0;
#X connect 313 0 315 0;
#X connect 314 0 316 0;
#X connect 315 0 321 0;
#X connect 316 0 317 0;
#X connect 316 1 319 0;
#X connect 317 0 318 0;
#X connect 318 0 322 0;
#X connect 319 0 321 0;
#X connect 320 0 318 0;
#X connect 321 0 320 0;
#X connect 323 0 41 0;
#X restore -128 481 pd keyboard-keys;
#X obj 298 124 pack 0 0 0;
#X obj 297 158 route 1 2 3 4;
#X obj 400 215 bng 15 250 50 0 empty empty empty 17 7 0 10 -262144
-1 -1;
#X obj 268 264 voice;
#X obj 350 265 voice;
#X obj 423 269 voice;
#X obj 301 77 poly 4 0;
#N canvas 0 0 450 300 (subpatch) 0;
#X array array 1000 float 1;
#A 0 0 0 0 0 0 0 0 0 0 0 0 0 0 0 0 0 0 0 0 0 0 0 0 0 0 0 0 0 0 0 0
0 0 0 0 0 0 0 0 0 0 0 0 0 0 0 0 0 0 0 0 0 0 0 0 0 0 0 0 0 0 0 0 0 0
0 0 0 0 0 0 0 0 0 0 0 0 0 0 0 0 0 0 0 0 0 0 0 0 0 0 0 0 0 0 0 0 0 0
0 0 0 0 0 0 0 0 0 0 0 0 0 0 0 0 0 0 0 0 0 0 0 0 0 0 0 0 0 0 0 0 0 0
0 0 0 0 0 0 0 0 0 0 0 0 0 0 0 0 0 0 0 0 0 0 0 0 0 0 0 0 0 0 0 0 0 0
0 0 0 0 0 0 0 0 0 0 0 0 0 0 0 0 0 0 0 0 0 0 0 0 0 0 0 0 0 0 0 0 0 0
0 0 0 0 0 0 0 0 0 0 0 0 0 0 0 0 0 0 0 0 0 0 0 0 0 0 0 0 0 0 0 0 0 0
0 0 0 0 0 0 0 0 0 0 0 0 0 0 0 0 0 0 0 0 0 0 0 0 0 0 0 0 0 0 0 0 0 0
0 0 0 0 0 0 0 0 0 0 0 0 0 0 0 0 0 0 0 0 0 0 0 0 0 0 0 0 0 0 0 0 0 0
0 0 0 0 0 0 0 0 0 0 0 0 0 0 0 0 0 0 0 0 0 0 0 0 0 0 0 0 0 0 0 0 0 0
0 0 0 0 0 0 0 0 0 0 0 0 0 0 0 0 0 0 0 0 0 0 0 0 0 0 0 0 0 0 0 0 0 0
0 0 0 0 0 0 0 0 0 0 0 0 0 0 0 0 0 0 0 0 0 0 0 0 0 0 0 0 0 0 0 0 0 0
0 0 0 0 0 0 0 0 0 0 0 0 0 0 0 0 0 0 0 0 0 0 0 0 0 0 0 0 0 0 0 0 0 0
0 0 0 0 0 0 0 0 0 0 0 0 0 0 0 0 0 0 0 0 0 0 0 0 0 0 0 0 0 0 0 0 0 0
0 0 0 0 0 0 0 0 0 0 0 0 0 0 0 0 0 0 0 0 0 0 0 0 0 0 0 0 0 0 0 0 0 0
0 0 0 0 0 0 0 0 0 0 0 0 0 0 0 0 0 0 0 0 0 0 0 0 0 0 0 0 0 0 0 0 0 0
0 0 0 0 0 0 0 0 0 0 0 0 0 0 0 0 0 0 0 0 0 0 0 0 0 0 0 0 0 0 0 0 0 0
0 0 0 0 0 0 0 0 0 0 0 0 0 0 0 0 0 0 0 0 0 0 0 0 0 0 0 0 0 0 0 0 0 0
0 0 0 0 0 0 0 0 0 0 0 0 0 0 0 0 0 0 0 0 0 0 0 0 0 0 0 0 0 0 0 0 0 0
0 0 0 0 0 0 0 0 0 0 0 0 0 0 0 0 0 0 0 0 0 0 0 0 0 0 0 0 0 0 0 0 0 0
0 0 0 0 0 0 0 0 0 0 0 0 0 0 0 0 0 0 0 0 0 0 0 0 0 0 0 0 0 0 0 0 0 0
0 0 0 0 0 0 0 0 0 0 0 0 0 0 0 0 0 0 0 0 0 0 0 0 0 0 0 0 0 0 0 0 0 0
0 0 0 0 0 0 0 0 0 0 0 0 0 0 0 0 0 0 0 0 0 0 0 0 0 0 0 0 0 0 0 0 0 0
0 0 0 0 0 0 0 0 0 0 0 0 0 0 0 0 0 0 0 0 0 0 0 0 0 0 0 0 0 0 0 0 0 0
0 0 0 0 0 0 0 0 0 0 0 0 0 0 0 0 0 0 0 0 0 0 0 0 0 0 0 0 0 0 0 0 0 0
0 0 0 0 0 0 0 0 0 0 0 0 0 0 0 0 0 0 0 0 0 0 0 0 0 0 0 0 0 0 0 0 0 0
0 0 0 0 0 0 0 0 0 0 0 0 0 0 0 0 0 0 0 0 0 0 0 0 0 0 0 0 0 0 0 0 0 0
0 0 0 0 0 0 0 0 0 0 0 0 0 0 0 0 0 0 0 0 0 0 0 0 0 0 0 0 0 0 0 0 0 0
0 0 0 0 0 0 0 0 0 0 0 0 0 0 0 0 0 0 0 0 0 0 0 0 0 0 0 0 0 0 0 0 0 0
0 0 0 0 0 0 0 0 0 0 0 0 0 0 0 0 0;
#X coords 0 1 999 -1 200 140 1;
#X restore 546 609 graph;
#X obj 628 240 tgl 15 0 empty empty empty 17 7 0 10 -262144 -1 -1 0
1;
#X obj 551 557 tabwrite~ array;
#X obj 93 527 loadbang;
#X obj 79 580 0.95;
#X obj 626 274 metro 2222;
#X obj 632 326 random 333 555;
#X obj 632 405 s notes;
#X obj 1095 85 *~ 0.7;
#X obj 1243 89 *~ 0.7;
#X obj 215 379 *~ 0.3;
#X obj 633 361 pack 0 0;
#X connect 4 0 58 0;
#X connect 5 0 69 0;
#X connect 7 0 68 0;
#X connect 8 0 67 0;
#X connect 9 0 6 0;
#X connect 10 0 6 1;
#X connect 11 0 13 0;
#X connect 12 0 14 0;
#X connect 13 0 12 0;
#X connect 13 1 12 1;
#X connect 14 0 15 0;
#X connect 15 0 10 1;
#X connect 15 0 9 1;
#X connect 16 0 9 0;
#X connect 17 0 10 0;
#X connect 52 0 53 0;
#X connect 53 0 5 0;
#X connect 53 0 48 0;
#X connect 53 1 49 0;
#X connect 53 1 55 0;
#X connect 53 2 50 0;
#X connect 53 2 56 0;
#X connect 53 3 54 0;
#X connect 53 3 57 0;
#X connect 55 0 69 0;
#X connect 56 0 69 0;
#X connect 57 0 61 0;
#X connect 57 0 69 0;
#X connect 58 0 52 0;
#X connect 58 1 52 1;
#X connect 58 2 52 2;
#X connect 60 0 64 0;
#X connect 62 0 63 0;
#X connect 63 0 44 0;
#X connect 64 0 61 0;
#X connect 64 0 65 0;
#X connect 65 0 70 0;
#X connect 67 0 16 0;
#X connect 68 0 17 0;
#X connect 69 0 2 0;
#X connect 69 0 3 0;
#X connect 70 0 66 0;
