#N canvas 67 87 1533 813 12;
#X obj -62 -14 midiin;
#X obj -60 115 pack f f;
#X obj -34 58 f;
#X obj -32 93 + 1;
#X obj -67 19 t f b b f;
#X obj -60 93 mod 3;
#X obj -136 108 + 1;
#X msg -168 25 0;
#X obj -194 -2 loadbang;
#X obj -169 144 route 1;
#X obj -19 175 unpack f f;
#X obj 95 170 route 2;
#X obj 80 260 unpack f f;
#X obj -136 130 t a a;
#X obj -7 204 == 0;
#X obj -8 233 select 1;
#X msg -7 261 0;
#X msg 42 261 1;
#X obj -199 100 select 1;
#X msg -199 122 0;
#X msg -169 122 1;
#X obj -169 166 spigot;
#X obj 7 334 unpack f f;
#X text 12 62 global midi input;
#X text 877 332 sequence the input :1-144 (note) 2-note number 3-velocity
;
#X text 20 11 isolate note number;
#X text -287 184 isolate velocity;
#X text 122 335 convert velocity to on/off;
#X text -49 311 pack the note number/on-off combinations;
#X obj -42 368 pack f f;
#X obj 5 291 pack f f;
#X obj 80 350 pipe 1;
#X floatatom -31 491 1 0 0 0 - - -, f 1;
#X floatatom -23 491 1 0 0 0 - - -, f 1;
#X floatatom -14 491 1 0 0 0 - - -, f 1;
#X floatatom -6 491 1 0 0 0 - - -, f 1;
#X floatatom 2 491 1 0 0 0 - - -, f 1;
#X floatatom 11 491 1 0 0 0 - - -, f 1;
#X floatatom 19 491 1 0 0 0 - - -, f 1;
#X floatatom 28 491 1 0 0 0 - - -, f 1;
#X floatatom 37 488 1 0 0 0 - - -, f 1;
#X floatatom 46 494 1 0 0 0 - - -, f 1;
#X floatatom 54 491 1 0 0 0 - - -, f 1;
#X floatatom 61 491 1 0 0 0 - - -, f 1;
#X floatatom 70 491 1 0 0 0 - - -, f 1;
#X floatatom 78 491 1 0 0 0 - - -, f 1;
#X floatatom 86 491 1 0 0 0 - - -, f 1;
#X floatatom 94 491 1 0 0 0 - - -, f 1;
#X floatatom 102 491 1 0 0 0 - - -, f 1;
#X floatatom 110 491 1 0 0 0 - - -, f 1;
#X floatatom 119 491 1 0 0 0 - - -, f 1;
#X floatatom 128 491 1 0 0 0 - - -, f 1;
#X floatatom 137 491 1 0 0 0 - - -, f 1;
#X floatatom 145 491 1 0 0 0 - - -, f 1;
#X floatatom 154 491 1 0 0 0 - - -, f 1;
#X obj 897 165 cnv 15 100 60 empty empty empty 20 12 0 14 -233017 -66577
0;
#X obj -44 415 route 36 37 38 39 40 41 42 43 44 45 46 47 48 49 50 51
52 53 54 55 56 57 58 59 60 61 62 63 64 65 66 67 68 69 70 71 72 73 74
75 76 77 78 79 80 81 82 83 84 85 86 87 88 89 90 91 92 93 94 95 96;
#N canvas 67 87 1533 813 note 0;
#X obj 95 17 inlet;
#X obj 132 17 inlet;
#X obj 169 17 inlet;
#X obj 206 17 inlet;
#X obj 243 17 inlet;
#X obj 280 17 inlet;
#X msg 95 153 36;
#X obj 78 239 f;
#X obj 95 131 sel 1;
#X msg 1272 464 set;
#X msg 1305 462 add2;
#X obj 1226 430 t b b b;
#X obj 1188 71 t b b;
#X obj 115 239 f;
#X obj 132 131 sel 1;
#X msg 132 153 37;
#X obj 152 239 f;
#X obj 169 131 sel 1;
#X obj 189 239 f;
#X obj 206 131 sel 1;
#X obj 226 239 f;
#X obj 243 131 sel 1;
#X obj 263 239 f;
#X obj 280 131 sel 1;
#X obj 300 239 f;
#X obj 317 131 sel 1;
#X obj 337 239 f;
#X obj 354 131 sel 1;
#X msg 169 153 38;
#X msg 206 153 39;
#X msg 243 153 40;
#X msg 280 153 41;
#X msg 317 153 42;
#X msg 354 153 43;
#X obj 317 17 inlet;
#X obj 354 17 inlet;
#X obj 391 17 inlet;
#X obj 428 17 inlet;
#X obj 465 17 inlet;
#X obj 502 17 inlet;
#X obj 539 17 inlet;
#X obj 374 239 f;
#X obj 391 131 sel 1;
#X obj 411 239 f;
#X obj 428 131 sel 1;
#X obj 448 239 f;
#X obj 465 131 sel 1;
#X obj 485 239 f;
#X obj 502 131 sel 1;
#X obj 522 239 f;
#X obj 539 131 sel 1;
#X obj 559 239 f;
#X obj 576 131 sel 1;
#X obj 596 239 f;
#X obj 613 131 sel 1;
#X obj 576 17 inlet;
#X obj 613 17 inlet;
#X obj 651 17 inlet;
#X obj 688 17 inlet;
#X obj 725 17 inlet;
#X obj 762 17 inlet;
#X obj 799 17 inlet;
#X obj 836 17 inlet;
#X obj 634 240 f;
#X obj 651 132 sel 1;
#X obj 671 240 f;
#X obj 688 132 sel 1;
#X obj 708 240 f;
#X obj 725 132 sel 1;
#X obj 745 240 f;
#X obj 762 132 sel 1;
#X obj 782 240 f;
#X obj 799 132 sel 1;
#X obj 819 240 f;
#X obj 836 132 sel 1;
#X obj 856 240 f;
#X obj 873 132 sel 1;
#X obj 893 240 f;
#X obj 910 132 sel 1;
#X obj 873 17 inlet;
#X obj 910 17 inlet;
#X obj 947 17 inlet;
#X obj 984 17 inlet;
#X obj 1021 17 inlet;
#X obj 1058 17 inlet;
#X obj 1095 17 inlet;
#X obj 1132 17 inlet;
#X obj 930 241 f;
#X obj 947 133 sel 1;
#X obj 967 241 f;
#X obj 984 133 sel 1;
#X obj 1004 241 f;
#X obj 1021 133 sel 1;
#X obj 1041 241 f;
#X obj 1058 133 sel 1;
#X obj 1078 241 f;
#X obj 1095 133 sel 1;
#X obj 1115 241 f;
#X obj 1132 133 sel 1;
#X obj 1152 241 f;
#X obj 1169 133 sel 1;
#X obj 1189 241 f;
#X obj 1206 133 sel 1;
#X obj 1169 17 inlet;
#X obj 1206 17 inlet;
#X msg 391 153 44;
#X msg 428 153 45;
#X msg 465 153 46;
#X msg 502 153 47;
#X msg 539 153 48;
#X msg 576 153 49;
#X msg 613 153 50;
#X msg 651 154 51;
#X msg 725 154 53;
#X msg 688 154 52;
#X msg 762 154 54;
#X msg 799 154 55;
#X msg 836 154 56;
#X msg 873 154 57;
#X msg 910 154 58;
#X msg 947 155 59;
#X msg 984 155 60;
#X msg 1022 154 61;
#X msg 1058 155 62;
#X msg 1095 155 63;
#X msg 1132 155 64;
#X msg 1169 155 65;
#X msg 1206 155 66;
#X obj 1244 17 inlet;
#X obj 1281 17 inlet;
#X obj 1318 17 inlet;
#X obj 1392 17 inlet;
#X obj 1429 17 inlet;
#X obj 1466 17 inlet;
#X obj 1227 240 f;
#X obj 1244 131 sel 1;
#X obj 1264 240 f;
#X obj 1281 131 sel 1;
#X obj 1301 239 f;
#X obj 1318 131 sel 1;
#X obj 1375 240 f;
#X obj 1392 131 sel 1;
#X obj 1412 239 f;
#X obj 1429 131 sel 1;
#X obj 1449 239 f;
#X obj 1466 131 sel 1;
#X obj 1486 239 f;
#X obj 1503 131 sel 1;
#X obj 1521 238 f;
#X obj 1540 131 sel 1;
#X obj 1503 17 inlet;
#X obj 1540 17 inlet;
#X obj 1577 17 inlet;
#X obj 1614 17 inlet;
#X obj 1651 17 inlet;
#X obj 1688 17 inlet;
#X obj 1725 17 inlet;
#X obj 1558 239 f;
#X obj 1577 131 sel 1;
#X obj 1595 237 f;
#X obj 1614 131 sel 1;
#X obj 1632 237 f;
#X obj 1651 131 sel 1;
#X obj 1669 238 f;
#X obj 1688 131 sel 1;
#X obj 1706 238 f;
#X obj 1725 131 sel 1;
#X obj 1743 238 f;
#X obj 1762 131 sel 1;
#X obj 1780 238 f;
#X obj 1799 131 sel 1;
#X obj 1762 17 inlet;
#X obj 1799 17 inlet;
#X obj 1837 17 inlet;
#X obj 1874 17 inlet;
#X obj 1911 17 inlet;
#X obj 1948 17 inlet;
#X obj 1985 17 inlet;
#X obj 2022 17 inlet;
#X obj 1818 239 f;
#X obj 1837 132 sel 1;
#X obj 1855 239 f;
#X obj 1874 132 sel 1;
#X obj 1892 239 f;
#X obj 1911 132 sel 1;
#X obj 1929 239 f;
#X obj 1948 132 sel 1;
#X obj 1966 239 f;
#X obj 1985 132 sel 1;
#X obj 2003 239 f;
#X obj 2022 132 sel 1;
#X obj 2040 239 f;
#X obj 2059 132 sel 1;
#X obj 2077 239 f;
#X obj 2096 132 sel 1;
#X obj 2059 17 inlet;
#X obj 2096 17 inlet;
#X obj 2133 17 inlet;
#X obj 2170 17 inlet;
#X obj 2207 17 inlet;
#X obj 2244 17 inlet;
#X obj 2281 17 inlet;
#X obj 2318 17 inlet;
#X obj 2114 240 f;
#X obj 2133 133 sel 1;
#X obj 2151 240 f;
#X obj 2170 133 sel 1;
#X obj 2188 240 f;
#X obj 2207 133 sel 1;
#X obj 2225 240 f;
#X obj 2244 133 sel 1;
#X obj 2262 240 f;
#X obj 2281 133 sel 1;
#X obj 2299 240 f;
#X obj 2323 133 sel 1;
#X msg 1281 153 68;
#X msg 1318 153 69;
#X msg 1244 153 67;
#X msg 1392 153 71;
#X msg 1429 153 72;
#X msg 1465 153 73;
#X msg 1503 153 74;
#X msg 1540 153 75;
#X msg 1577 153 76;
#X msg 1614 153 77;
#X msg 1651 153 78;
#X msg 1688 153 79;
#X msg 1725 153 80;
#X msg 1762 153 81;
#X msg 1799 153 82;
#X msg 1837 154 83;
#X msg 1874 154 84;
#X msg 1911 154 85;
#X msg 1948 154 86;
#X msg 1985 154 87;
#X msg 2022 154 88;
#X msg 2059 154 89;
#X msg 2096 154 90;
#X msg 2133 155 91;
#X msg 2170 155 92;
#X msg 2208 154 93;
#X msg 2244 155 94;
#X msg 2281 155 95;
#X msg 2323 155 96;
#X obj 1355 17 inlet;
#X obj 1338 241 f;
#X obj 1355 131 sel 1;
#X msg 1355 153 70;
#X obj 2383 365 inlet;
#X obj 2426 328 inlet;
#X obj 2006 523 metro 333;
#X floatatom 1210 605 5 0 0 0 - - -, f 5;
#X obj 1213 575 list length;
#X obj 1234 523 t b a;
#X floatatom 1418 704 5 0 0 0 - - -, f 5;
#X floatatom 1851 680 5 0 0 0 - - -, f 5;
#X obj 1637 587 f;
#X obj 1665 587 + 1;
#X obj 1925 573 f;
#X obj 1735 582 - 1;
#X obj 2006 554 random;
#X obj 1637 609 mod;
#X floatatom 1637 650 5 0 0 0 - - -, f 5;
#X obj 1637 629 + 1;
#X floatatom 2005 612 5 0 0 0 - - -, f 5;
#X obj 2006 584 + 1;
#X obj 1711 611 select 1;
#X obj 1686 631 bang;
#X obj 1637 473 loadbang;
#X msg 2505 533 stop;
#X msg 1654 498 bang;
#X obj 1637 691 spigot;
#X obj 1849 643 spigot;
#X obj 2052 612 spigot;
#X obj 1825 426 select 0 1 2;
#X msg 2069 438 0;
#X msg 2099 437 1;
#X msg 1847 598 0;
#X msg 1876 598 1;
#X msg 1649 670 0;
#X msg 1679 669 1;
#N canvas 67 89 450 300 bpmtometro 0;
#X floatatom 69 102 5 0 0 0 - - -, f 5;
#X obj 65 72 / 60;
#X obj 53 136 /;
#X msg 19 101 1000;
#X obj 65 34 inlet;
#X obj 53 172 outlet;
#X obj 109 170 outlet;
#X obj 109 141 expr (1/$f1)*1000;
#X connect 0 0 2 1;
#X connect 0 0 3 0;
#X connect 1 0 0 0;
#X connect 2 0 5 0;
#X connect 2 0 7 0;
#X connect 3 0 2 0;
#X connect 4 0 1 0;
#X connect 7 0 6 0;
#X restore 2110 497 pd bpmtometro;
#X obj 1418 728 outlet;
#X obj 2469 295 inlet;
#X obj 2500 442 inlet;
#X text 2191 297 note list;
#X text 1949 638 backward/forward/random;
#X text 1816 516 clock;
#X obj 1430 625 t b f b;
#X obj 1418 452 f;
#X obj 1351 471 select 0;
#X msg 1314 545;
#X obj 1120 487 notein;
#X floatatom 1148 540 5 0 0 0 - - -, f 5;
#X obj 1191 643 select 1;
#X msg 1200 680 0;
#X msg 1233 680 1;
#X obj 1146 711 spigot;
#X msg 1116 744 10;
#X obj 1109 570 != 0;
#X obj 1150 744 == 10;
#X obj 1173 771 ==;
#X floatatom 1173 805 5 0 0 0 - - -, f 5;
#X obj 1149 604 pipe 1;
#X obj 1149 569 bang;
#X text 849 579 "all notes off" detection;
#X obj 1418 680 spigot;
#X text 1177 702 0= no note played on keyboard;
#X obj 1173 834 select 0 1;
#X obj 1118 862 != 0;
#X obj 1156 862 == 1;
#X obj 1140 892 &&;
#X obj 1201 877 spigot;
#X obj 1202 856 pipe 1;
#X text 871 743 logical gate to prevent;
#X text 870 757 retriggering the metro;
#X text 871 770 when going from 1 to 2;
#X text 873 784 notes arpeggio;
#X obj 1388 849 s display;
#X text 1431 827 note number display;
#X msg 1388 826 label;
#X obj 1101 537 t f f;
#X obj 1118 840 pipe 0;
#X obj 2013 721 mod 16;
#X obj 2013 699 f;
#X obj 2041 699 + 1;
#X msg 2033 662 0;
#X obj 2013 750 outlet;
#X obj 1234 493 list prepend;
#X obj 1287 617 list;
#X obj 1418 652 list;
#X floatatom 1412 490 5 0 0 0 - - -, f 5;
#X obj 1231 551 bng 15 250 50 0 empty empty empty 17 7 0 10 -262144
-1 -1;
#X floatatom 2114 672 5 0 0 0 - - -, f 5;
#X connect 0 0 8 0;
#X connect 0 0 12 0;
#X connect 1 0 14 0;
#X connect 1 0 12 0;
#X connect 2 0 17 0;
#X connect 2 0 12 0;
#X connect 3 0 19 0;
#X connect 3 0 12 0;
#X connect 4 0 21 0;
#X connect 4 0 12 0;
#X connect 5 0 23 0;
#X connect 5 0 12 0;
#X connect 6 0 7 1;
#X connect 7 0 289 0;
#X connect 8 0 6 0;
#X connect 8 1 7 1;
#X connect 9 0 328 1;
#X connect 10 0 328 1;
#X connect 11 0 10 0;
#X connect 11 1 328 0;
#X connect 11 2 9 0;
#X connect 12 0 7 0;
#X connect 12 0 13 0;
#X connect 12 0 16 0;
#X connect 12 0 18 0;
#X connect 12 0 20 0;
#X connect 12 0 22 0;
#X connect 12 0 24 0;
#X connect 12 0 26 0;
#X connect 12 0 41 0;
#X connect 12 0 43 0;
#X connect 12 0 45 0;
#X connect 12 0 49 0;
#X connect 12 0 47 0;
#X connect 12 0 51 0;
#X connect 12 0 53 0;
#X connect 12 0 63 0;
#X connect 12 0 65 0;
#X connect 12 0 67 0;
#X connect 12 0 69 0;
#X connect 12 0 71 0;
#X connect 12 0 73 0;
#X connect 12 0 75 0;
#X connect 12 0 77 0;
#X connect 12 0 87 0;
#X connect 12 0 89 0;
#X connect 12 0 91 0;
#X connect 12 0 93 0;
#X connect 12 0 95 0;
#X connect 12 0 97 0;
#X connect 12 0 99 0;
#X connect 12 0 101 0;
#X connect 12 0 134 0;
#X connect 12 0 138 0;
#X connect 12 0 140 0;
#X connect 12 0 142 0;
#X connect 12 0 144 0;
#X connect 12 0 146 0;
#X connect 12 0 148 0;
#X connect 12 0 157 0;
#X connect 12 0 159 0;
#X connect 12 0 163 0;
#X connect 12 0 165 0;
#X connect 12 0 167 0;
#X connect 12 0 169 0;
#X connect 12 0 179 0;
#X connect 12 0 181 0;
#X connect 12 0 183 0;
#X connect 12 0 185 0;
#X connect 12 0 187 0;
#X connect 12 0 189 0;
#X connect 12 0 191 0;
#X connect 12 0 193 0;
#X connect 12 0 203 0;
#X connect 12 0 205 0;
#X connect 12 0 207 0;
#X connect 12 0 209 0;
#X connect 12 0 211 0;
#X connect 12 0 213 0;
#X connect 12 0 245 0;
#X connect 12 0 161 0;
#X connect 12 0 136 0;
#X connect 12 1 11 0;
#X connect 13 0 289 0;
#X connect 14 0 15 0;
#X connect 14 1 13 1;
#X connect 15 0 13 1;
#X connect 16 0 289 0;
#X connect 17 0 28 0;
#X connect 17 1 16 1;
#X connect 18 0 289 0;
#X connect 19 0 29 0;
#X connect 19 1 18 1;
#X connect 20 0 289 0;
#X connect 21 0 30 0;
#X connect 21 1 20 1;
#X connect 22 0 289 0;
#X connect 23 0 31 0;
#X connect 23 1 22 1;
#X connect 24 0 289 0;
#X connect 25 0 32 0;
#X connect 25 1 24 1;
#X connect 26 0 289 0;
#X connect 27 0 33 0;
#X connect 27 1 26 1;
#X connect 28 0 16 1;
#X connect 29 0 18 1;
#X connect 30 0 20 1;
#X connect 31 0 22 1;
#X connect 32 0 24 1;
#X connect 33 0 26 1;
#X connect 34 0 25 0;
#X connect 34 0 12 0;
#X connect 35 0 27 0;
#X connect 35 0 12 0;
#X connect 36 0 42 0;
#X connect 36 0 12 0;
#X connect 37 0 44 0;
#X connect 37 0 12 0;
#X connect 38 0 46 0;
#X connect 38 0 12 0;
#X connect 39 0 48 0;
#X connect 39 0 12 0;
#X connect 40 0 50 0;
#X connect 40 0 12 0;
#X connect 41 0 289 0;
#X connect 42 0 105 0;
#X connect 42 1 41 1;
#X connect 43 0 289 0;
#X connect 44 0 106 0;
#X connect 44 1 43 1;
#X connect 45 0 289 0;
#X connect 46 0 107 0;
#X connect 46 1 45 1;
#X connect 47 0 289 0;
#X connect 48 0 108 0;
#X connect 48 1 47 1;
#X connect 49 0 289 0;
#X connect 50 0 109 0;
#X connect 50 1 49 1;
#X connect 51 0 289 0;
#X connect 52 0 110 0;
#X connect 52 1 51 1;
#X connect 53 0 289 0;
#X connect 54 0 111 0;
#X connect 54 1 53 1;
#X connect 55 0 52 0;
#X connect 55 0 12 0;
#X connect 56 0 54 0;
#X connect 56 0 12 0;
#X connect 57 0 64 0;
#X connect 57 0 12 0;
#X connect 58 0 66 0;
#X connect 58 0 12 0;
#X connect 59 0 68 0;
#X connect 59 0 12 0;
#X connect 60 0 70 0;
#X connect 60 0 12 0;
#X connect 61 0 72 0;
#X connect 61 0 12 0;
#X connect 62 0 74 0;
#X connect 62 0 12 0;
#X connect 63 0 289 0;
#X connect 64 0 112 0;
#X connect 64 1 63 1;
#X connect 65 0 289 0;
#X connect 66 0 114 0;
#X connect 66 1 65 1;
#X connect 67 0 289 0;
#X connect 68 0 113 0;
#X connect 68 1 67 1;
#X connect 69 0 289 0;
#X connect 70 0 115 0;
#X connect 70 1 69 1;
#X connect 71 0 289 0;
#X connect 72 0 116 0;
#X connect 72 1 71 1;
#X connect 73 0 289 0;
#X connect 74 0 117 0;
#X connect 74 1 73 1;
#X connect 75 0 289 0;
#X connect 76 0 118 0;
#X connect 76 1 75 1;
#X connect 77 0 289 0;
#X connect 78 0 119 0;
#X connect 78 1 77 1;
#X connect 79 0 76 0;
#X connect 79 0 12 0;
#X connect 80 0 78 0;
#X connect 80 0 12 0;
#X connect 81 0 88 0;
#X connect 81 0 12 0;
#X connect 82 0 90 0;
#X connect 82 0 12 0;
#X connect 83 0 92 0;
#X connect 83 0 12 0;
#X connect 84 0 94 0;
#X connect 84 0 12 0;
#X connect 85 0 96 0;
#X connect 85 0 12 0;
#X connect 86 0 98 0;
#X connect 86 0 12 0;
#X connect 87 0 289 0;
#X connect 88 0 120 0;
#X connect 88 1 87 1;
#X connect 89 0 289 0;
#X connect 90 0 121 0;
#X connect 90 1 89 1;
#X connect 91 0 289 0;
#X connect 92 0 122 0;
#X connect 92 1 91 1;
#X connect 93 0 289 0;
#X connect 94 0 123 0;
#X connect 94 1 93 1;
#X connect 95 0 289 0;
#X connect 96 0 124 0;
#X connect 96 1 95 1;
#X connect 97 0 289 0;
#X connect 98 0 125 0;
#X connect 98 1 97 1;
#X connect 99 0 289 0;
#X connect 100 0 126 0;
#X connect 100 1 99 1;
#X connect 101 0 289 0;
#X connect 102 0 127 0;
#X connect 102 1 101 1;
#X connect 103 0 100 0;
#X connect 103 0 12 0;
#X connect 104 0 102 0;
#X connect 104 0 12 0;
#X connect 105 0 41 1;
#X connect 106 0 43 1;
#X connect 107 0 45 1;
#X connect 108 0 47 1;
#X connect 109 0 49 1;
#X connect 110 0 51 1;
#X connect 111 0 53 1;
#X connect 112 0 63 1;
#X connect 113 0 67 1;
#X connect 114 0 65 1;
#X connect 115 0 69 1;
#X connect 116 0 71 1;
#X connect 117 0 73 1;
#X connect 118 0 75 1;
#X connect 119 0 77 1;
#X connect 120 0 87 1;
#X connect 121 0 89 1;
#X connect 122 0 91 1;
#X connect 123 0 93 1;
#X connect 124 0 95 1;
#X connect 125 0 97 1;
#X connect 126 0 99 1;
#X connect 127 0 101 1;
#X connect 128 0 135 0;
#X connect 128 0 12 0;
#X connect 129 0 137 0;
#X connect 129 0 12 0;
#X connect 130 0 139 0;
#X connect 130 0 12 0;
#X connect 131 0 141 0;
#X connect 131 0 12 0;
#X connect 132 0 143 0;
#X connect 132 0 12 0;
#X connect 133 0 145 0;
#X connect 133 0 12 0;
#X connect 134 0 289 0;
#X connect 135 0 217 0;
#X connect 135 1 134 1;
#X connect 136 0 289 0;
#X connect 137 0 215 0;
#X connect 137 1 136 1;
#X connect 138 0 289 0;
#X connect 139 0 216 0;
#X connect 139 1 138 1;
#X connect 140 0 289 0;
#X connect 141 0 218 0;
#X connect 141 1 140 1;
#X connect 142 0 289 0;
#X connect 143 0 219 0;
#X connect 143 1 142 1;
#X connect 144 0 289 0;
#X connect 145 0 220 0;
#X connect 145 1 144 1;
#X connect 146 0 289 0;
#X connect 147 0 221 0;
#X connect 147 1 146 1;
#X connect 148 0 289 0;
#X connect 149 0 222 0;
#X connect 149 1 148 1;
#X connect 150 0 147 0;
#X connect 150 0 12 0;
#X connect 151 0 149 0;
#X connect 151 0 12 0;
#X connect 152 0 158 0;
#X connect 152 0 12 0;
#X connect 153 0 160 0;
#X connect 153 0 12 0;
#X connect 154 0 162 0;
#X connect 154 0 12 0;
#X connect 155 0 164 0;
#X connect 155 0 12 0;
#X connect 156 0 166 0;
#X connect 156 0 12 0;
#X connect 157 0 289 0;
#X connect 158 0 223 0;
#X connect 158 1 157 1;
#X connect 159 0 289 0;
#X connect 160 0 224 0;
#X connect 160 1 159 1;
#X connect 161 0 289 0;
#X connect 162 0 225 0;
#X connect 162 1 161 1;
#X connect 163 0 289 0;
#X connect 164 0 226 0;
#X connect 164 1 163 1;
#X connect 165 0 289 0;
#X connect 166 0 227 0;
#X connect 166 1 165 1;
#X connect 167 0 289 0;
#X connect 168 0 228 0;
#X connect 168 1 167 1;
#X connect 169 0 289 0;
#X connect 170 0 229 0;
#X connect 170 1 169 1;
#X connect 171 0 168 0;
#X connect 171 0 12 0;
#X connect 172 0 170 0;
#X connect 172 0 12 0;
#X connect 173 0 180 0;
#X connect 173 0 12 0;
#X connect 174 0 182 0;
#X connect 174 0 12 0;
#X connect 175 0 184 0;
#X connect 175 0 12 0;
#X connect 176 0 186 0;
#X connect 176 0 12 0;
#X connect 177 0 188 0;
#X connect 177 0 12 0;
#X connect 178 0 190 0;
#X connect 178 0 12 0;
#X connect 179 0 289 0;
#X connect 180 0 230 0;
#X connect 180 1 179 1;
#X connect 181 0 289 0;
#X connect 182 0 231 0;
#X connect 182 1 181 1;
#X connect 183 0 289 0;
#X connect 184 0 232 0;
#X connect 184 1 183 1;
#X connect 185 0 289 0;
#X connect 186 0 233 0;
#X connect 186 1 185 1;
#X connect 187 0 289 0;
#X connect 188 0 234 0;
#X connect 188 1 187 1;
#X connect 189 0 289 0;
#X connect 190 0 235 0;
#X connect 190 1 189 1;
#X connect 191 0 289 0;
#X connect 192 0 236 0;
#X connect 192 1 191 1;
#X connect 193 0 289 0;
#X connect 194 0 237 0;
#X connect 194 1 193 1;
#X connect 195 0 192 0;
#X connect 195 0 12 0;
#X connect 196 0 194 0;
#X connect 196 0 12 0;
#X connect 197 0 204 0;
#X connect 197 0 12 0;
#X connect 198 0 206 0;
#X connect 198 0 12 0;
#X connect 199 0 208 0;
#X connect 199 0 12 0;
#X connect 200 0 210 0;
#X connect 200 0 12 0;
#X connect 201 0 212 0;
#X connect 201 0 12 0;
#X connect 202 0 214 0;
#X connect 202 0 12 0;
#X connect 203 0 289 0;
#X connect 204 0 238 0;
#X connect 204 1 203 1;
#X connect 205 0 289 0;
#X connect 206 0 239 0;
#X connect 206 1 205 1;
#X connect 207 0 289 0;
#X connect 208 0 240 0;
#X connect 208 1 207 1;
#X connect 209 0 289 0;
#X connect 210 0 241 0;
#X connect 210 1 209 1;
#X connect 211 0 289 0;
#X connect 212 0 242 0;
#X connect 212 1 211 1;
#X connect 213 0 289 0;
#X connect 214 0 243 0;
#X connect 214 1 213 1;
#X connect 215 0 136 1;
#X connect 216 0 138 1;
#X connect 217 0 134 1;
#X connect 218 0 140 1;
#X connect 219 0 142 1;
#X connect 220 0 144 1;
#X connect 221 0 146 1;
#X connect 222 0 148 1;
#X connect 223 0 157 1;
#X connect 224 0 159 1;
#X connect 225 0 161 1;
#X connect 226 0 163 1;
#X connect 227 0 165 1;
#X connect 228 0 167 1;
#X connect 229 0 169 1;
#X connect 230 0 179 1;
#X connect 231 0 181 1;
#X connect 232 0 183 1;
#X connect 233 0 185 1;
#X connect 234 0 187 1;
#X connect 235 0 189 1;
#X connect 236 0 191 1;
#X connect 237 0 193 1;
#X connect 238 0 203 1;
#X connect 239 0 205 1;
#X connect 240 0 207 1;
#X connect 241 0 209 1;
#X connect 242 0 211 1;
#X connect 243 0 213 1;
#X connect 244 0 246 0;
#X connect 244 0 12 0;
#X connect 245 0 289 0;
#X connect 246 0 247 0;
#X connect 246 1 245 1;
#X connect 247 0 245 1;
#X connect 248 0 281 0;
#X connect 249 0 274 0;
#X connect 250 0 256 0;
#X connect 250 0 260 0;
#X connect 250 0 258 0;
#X connect 250 0 324 0;
#X connect 251 0 261 1;
#X connect 251 0 260 1;
#X connect 251 0 258 1;
#X connect 251 0 294 0;
#X connect 251 0 310 0;
#X connect 252 0 251 0;
#X connect 253 0 291 0;
#X connect 253 0 332 0;
#X connect 253 1 291 0;
#X connect 253 1 332 0;
#X connect 254 0 282 0;
#X connect 256 0 257 0;
#X connect 256 0 261 0;
#X connect 257 0 256 1;
#X connect 258 0 259 0;
#X connect 258 0 266 0;
#X connect 258 0 272 0;
#X connect 259 0 258 1;
#X connect 260 0 265 0;
#X connect 261 0 263 0;
#X connect 263 0 262 0;
#X connect 263 0 271 0;
#X connect 265 0 264 0;
#X connect 265 0 273 0;
#X connect 266 0 267 0;
#X connect 267 0 251 0;
#X connect 268 0 250 0;
#X connect 269 0 250 0;
#X connect 269 0 326 0;
#X connect 270 0 250 0;
#X connect 271 0 255 0;
#X connect 271 0 288 0;
#X connect 272 0 255 0;
#X connect 272 0 288 0;
#X connect 273 0 288 0;
#X connect 273 0 333 0;
#X connect 274 0 280 0;
#X connect 274 0 277 0;
#X connect 274 0 275 0;
#X connect 274 1 278 0;
#X connect 274 1 279 0;
#X connect 274 1 275 0;
#X connect 274 2 276 0;
#X connect 274 2 277 0;
#X connect 274 2 279 0;
#X connect 275 0 273 1;
#X connect 276 0 273 1;
#X connect 277 0 272 1;
#X connect 278 0 272 1;
#X connect 279 0 271 1;
#X connect 280 0 271 1;
#X connect 281 0 250 1;
#X connect 283 0 270 0;
#X connect 284 0 269 0;
#X connect 288 0 330 0;
#X connect 288 1 330 1;
#X connect 288 2 329 0;
#X connect 289 0 290 0;
#X connect 289 0 331 0;
#X connect 290 1 328 0;
#X connect 291 0 252 0;
#X connect 291 0 329 1;
#X connect 292 0 293 0;
#X connect 292 1 321 0;
#X connect 293 0 304 0;
#X connect 294 0 296 0;
#X connect 294 1 295 0;
#X connect 295 0 297 1;
#X connect 296 0 297 1;
#X connect 297 0 298 0;
#X connect 298 0 300 0;
#X connect 299 0 301 1;
#X connect 300 0 301 0;
#X connect 301 0 302 0;
#X connect 302 0 306 1;
#X connect 302 0 308 0;
#X connect 303 0 297 0;
#X connect 304 0 303 0;
#X connect 306 0 254 0;
#X connect 308 0 269 0;
#X connect 308 0 320 0;
#X connect 308 1 313 0;
#X connect 309 0 311 0;
#X connect 310 0 311 1;
#X connect 311 0 312 1;
#X connect 312 0 270 0;
#X connect 313 0 312 0;
#X connect 320 0 318 0;
#X connect 321 0 309 0;
#X connect 321 1 299 0;
#X connect 322 0 309 0;
#X connect 323 0 327 0;
#X connect 324 0 325 0;
#X connect 324 0 323 0;
#X connect 325 0 324 1;
#X connect 326 0 324 1;
#X connect 328 0 253 0;
#X connect 329 0 330 0;
#X connect 330 0 306 0;
#X restore -21 538 pd note trigger-----------------------------------------------------
, f 73;
#X floatatom 162 491 1 0 0 0 - - -, f 1;
#X floatatom 170 491 1 0 0 0 - - -, f 1;
#X floatatom 187 491 1 0 0 0 - - -, f 1;
#X floatatom 195 491 1 0 0 0 - - -, f 1;
#X floatatom 204 491 1 0 0 0 - - -, f 1;
#X floatatom 213 491 1 0 0 0 - - -, f 1;
#X floatatom 231 491 1 0 0 0 - - -, f 1;
#X floatatom 222 491 1 0 0 0 - - -, f 1;
#X floatatom 240 491 1 0 0 0 - - -, f 1;
#X floatatom 249 491 1 0 0 0 - - -, f 1;
#X floatatom 258 491 1 0 0 0 - - -, f 1;
#X floatatom 266 491 1 0 0 0 - - -, f 1;
#X floatatom 275 491 1 0 0 0 - - -, f 1;
#X floatatom 283 491 1 0 0 0 - - -, f 1;
#X floatatom 292 491 1 0 0 0 - - -, f 1;
#X floatatom 301 491 1 0 0 0 - - -, f 1;
#X floatatom 310 491 1 0 0 0 - - -, f 1;
#X floatatom 319 491 1 0 0 0 - - -, f 1;
#X floatatom 328 491 1 0 0 0 - - -, f 1;
#X floatatom 337 491 1 0 0 0 - - -, f 1;
#X floatatom 354 491 1 0 0 0 - - -, f 1;
#X floatatom 346 491 1 0 0 0 - - -, f 1;
#X floatatom 363 491 1 0 0 0 - - -, f 1;
#X floatatom 371 491 1 0 0 0 - - -, f 1;
#X floatatom 380 491 1 0 0 0 - - -, f 1;
#X floatatom 397 491 1 0 0 0 - - -, f 1;
#X floatatom 389 491 1 0 0 0 - - -, f 1;
#X floatatom 405 491 1 0 0 0 - - -, f 1;
#X floatatom 413 491 1 0 0 0 - - -, f 1;
#X floatatom 433 492 1 0 0 0 - - -, f 1;
#X floatatom 446 496 1 0 0 0 - - -, f 1;
#X floatatom 445 491 1 0 0 0 - - -, f 1;
#X floatatom 467 491 1 0 0 0 - - -, f 1;
#X floatatom 452 491 1 0 0 0 - - -, f 1;
#X floatatom 459 491 1 0 0 0 - - -, f 1;
#X floatatom 476 491 1 0 0 0 - - -, f 1;
#X floatatom 421 491 1 0 0 0 - - -, f 1;
#X floatatom 423 308 5 0 1000 0 - - -, f 5;
#X obj 625 269 inlet;
#X obj 748 500 inlet;
#X floatatom -142 571 5 0 0 0 - - -, f 5;
#X obj 521 478 inlet;
#X obj 576 477 inlet;
#X text -44 387 notes routing;
#X obj 16 682 makenote;
#X obj 608 108 loadbang;
#X msg 42 629 127;
#X msg 91 633 200;
#X obj 34 715 noteout 127 1;
#X msg 154 595 1;
#X floatatom 179 491 1 0 0 0 - - -, f 1;
#X msg -419 397 2;
#X obj -376 498 sel 0 1 2 3 4;
#X obj -136 593 +;
#X msg -396 601 0;
#X msg -443 540 24;
#X msg -443 601 12;
#X msg -365 601 -12;
#X msg -344 555 -24;
#X obj -427 601 f;
#X obj -418 426 inlet;
#X text -116 591 transpose engine;
#X obj 401 287 f;
#X obj 416 222 sel 0 1 2 3;
#X msg 388 249 4;
#X msg 426 248 3;
#X msg 461 252 2;
#X msg 493 253 1;
#X obj 633 367 *;
#X obj 393 358 bang;
#X msg 450 144 3;
#X obj 401 140 inlet;
#X obj 91 592 inlet;
#X obj 40 590 inlet;
#X text 387 334 tempo multiplier;
#X text -303 522 octave changer;
#X obj 1142 409 cnv 15 115 60 empty display 2 20 30 0 50 -255494 -66577
0;
#X msg -365 623 label \$1;
#X obj -365 645 s display;
#X obj -363 667 makefilename %d;
#X text -286 625 note number display;
#X obj 1071 409 cnv 15 112 60 empty empty empty 20 12 0 14 -255494
-66577 0;
#X obj 1322 491 cnv 15 145 70 empty empty empty 20 12 0 14 -187255
-66577 0;
#X text -34 611 pattern;
#X obj 1134 53 tgl 15 0 empty empty empty 17 7 0 10 -260097 -1 -1 1
1;
#X obj 1169 53 tgl 15 0 empty empty empty 17 7 0 10 -262144 -1 -1 1
1;
#X obj 1195 55 tgl 15 0 empty empty empty 17 7 0 10 -262144 -1 -1 1
1;
#X obj 1207 55 tgl 15 0 empty empty empty 17 7 0 10 -262144 -1 -1 1
1;
#X obj 1238 53 tgl 15 0 empty empty empty 17 7 0 10 -260097 -1 -1 1
1;
#X obj 1274 55 tgl 15 0 empty empty empty 17 7 0 10 -262144 -1 -1 1
1;
#X obj 1305 53 tgl 15 0 empty empty empty 17 7 0 10 -262144 -1 -1 1
1;
#X obj 1337 56 tgl 15 0 empty empty empty 17 7 0 10 -262144 -1 -1 1
1;
#X obj 1363 51 tgl 15 0 empty empty empty 17 7 0 10 -260097 -1 -1 1
1;
#X obj 1416 55 tgl 15 0 empty empty empty 17 7 0 10 -262144 -1 -1 1
1;
#X obj 1438 53 tgl 15 0 empty empty empty 17 7 0 10 -262144 -1 -1 1
1;
#X obj 1533 52 tgl 15 0 empty empty empty 17 7 0 10 -262144 -1 -1 1
1;
#X obj 1493 54 tgl 15 0 empty empty empty 17 7 0 10 -260097 -1 -1 1
1;
#X obj 1511 54 tgl 15 0 empty empty empty 15 7 0 10 -262144 -1 -1 1
1;
#X obj 1550 55 tgl 15 0 empty empty empty 17 7 0 10 -262144 -1 -1 1
1;
#X obj 1574 57 tgl 15 0 empty empty empty 17 7 0 10 -262144 -1 -1 1
1;
#X obj 881 56 hradio 15 1 0 16 empty empty empty 0 -8 0 10 -262144
-1 -1 3;
#X obj 1142 426 cnv 15 100 30 empty empty arpeggio 3 12 0 20 -257985
-66577 0;
#X obj 1202 107 route 0 1 2 3 4 5 6 7 8 9 10 11 12 13 14 15;
#X obj 1114 165 f;
#X obj 1143 165 f;
#X obj 1173 165 f;
#X obj 1198 165 f;
#X obj 1228 165 f;
#X obj 1260 165 f;
#X obj 1289 165 f;
#X obj 1330 165 f;
#X obj 1373 165 f;
#X obj 1402 165 f;
#X obj 1434 165 f;
#X obj 1471 168 f;
#X obj 1439 165 f;
#X obj 1466 168 f;
#X obj 1501 168 f;
#X obj 1527 168 f;
#X obj 1338 207 f;
#X msg 1336 -16 1;
#X obj -124 663 spigot;
#X obj -133 630 pipe 1;
#X text -418 519 all 1;
#X obj 1390 -23 bng 15 250 50 0 empty empty empty 17 7 0 10 -262144
-1 -1;
#X text 91 613 BPM;
#X floatatom 23 651 5 0 127 0 - - -, f 5;
#X text 661 173 velocity;
#X floatatom 94 662 5 0 10000 0 - - -, f 5;
#X text 151 614 duration;
#X floatatom 631 335 5 0 0 0 - - -, f 5;
#X text -418 448 octave;
#X obj -418 468 vradio 10 1 0 5 empty empty empty 0 -8 0 10 -262144
-1 -1 2;
#X obj 419 179 vradio 10 1 0 4 empty empty empty 0 -8 0 10 -262144
-1 -1 3;
#X text -515 448 bpm multiply;
#X text -385 466 0;
#X text -443 479 *4;
#X text -462 479 *3;
#X text -462 479 *2;
#X text -443 498 *1;
#X text -404 498 -2;
#X text -404 498 -1;
#X text -403 464 1;
#X text -405 479 2;
#X obj 521 518 bng 15 250 50 0 empty empty empty 17 7 0 10 -4034 -1
-1;
#X text 576 498 play;
#X text 658 143 stop;
#X obj 753 536 vradio 15 1 0 3 empty empty empty 0 -8 0 10 -262144
-1 -1 1;
#X text 792 170 forward;
#X text 792 189 backward;
#X text 792 208 random;
#X text 400 125 midi out ch;
#X floatatom 147 631 2 0 0 0 - - -, f 2;
#X obj 905 657 tgl 15 0 empty empty empty 17 7 0 10 -258113 -1 -1 1
1;
#X text 521 499 monitor;
#X obj 802 616 mtof;
#X obj 867 659 osc~;
#X obj 885 778 dac~;
#X obj 828 776 outlet;
#X obj 873 720 *~;
#X obj 451 718 vline~;
#X obj 332 676 f;
#X obj 353 634 bang;
#X text 425 672 direct audio monitoring;
#X obj 446 630 spigot;
#X msg 629 304 120;
#X text 1503 834 schafferdavid@hotmail.com;
#X obj 576 518 bng 15 250 50 0 empty empty empty 17 7 0 10 -4034 -1
-1;
#X obj 884 689 *~;
#X text 1027 408 sequencer;
#X obj -64 745 s notes;
#X floatatom -135 739 5 0 0 0 - - -, f 5;
#X floatatom -193 703 5 0 0 0 - - -, f 5;
#X msg -152 358 95 0;
#X obj 1345 274 bng 15 250 50 0 empty empty empty 17 7 0 10 -262144
-1 -1;
#X msg 381 692 1 10 \, 0 10 \$1;
#X obj 1042 709 tabwrite~ dacOut;
#N canvas 0 50 450 250 (subpatch) 0;
#X array dacOut 444 float 3;
#A 0 0 0 0 0 0 0 0 0 0 0 0 0 0 0 0 0 0 0 0 0 0 0 0 0 0 0 0 0 -0.00116369
-0.00342775 -0.00569148 -0.00795488 -0.0102179 -0.0124807 -0.0147431
-0.017005 -0.0192664 -0.0215274 -0.023788 -0.0260482 -0.0283081 -0.0305675
-0.0328265 -0.0350851 -0.037343 -0.0396002 -0.0418569 -0.0441131 -0.0463689
-0.0486242 -0.050879 -0.0531333 -0.0553872 -0.0576404 -0.0598924 -0.0621438
-0.0643946 -0.066645 -0.0688947 -0.0711439 -0.0733926 -0.0756408 -0.0778883
-0.0801344 -0.0823796 -0.0846241 -0.086868 -0.0891113 -0.091354 -0.0935961
-0.0958375 -0.0980783 -0.100318 -0.102556 -0.104793 -0.10703 -0.109266
-0.111501 -0.113735 -0.115969 -0.118202 -0.120435 -0.122664 -0.124893
-0.127122 -0.129349 -0.131576 -0.133802 -0.136027 -0.138251 -0.140475
-0.142697 -0.144916 -0.147135 -0.149353 -0.151571 -0.153787 -0.156003
-0.158218 -0.160431 -0.162644 -0.164854 -0.167062 -0.16927 -0.171477
-0.173683 -0.175888 -0.178092 -0.180296 -0.182498 -0.184697 -0.186895
-0.189091 -0.191287 -0.193481 -0.195675 -0.197868 -0.200059 -0.20225
-0.204438 -0.206624 -0.208808 -0.210992 -0.213174 -0.215355 -0.217535
-0.219714 -0.221892 0 0 0 0 0 0 0 0 0 0 0 0 0 0 0 0 0 0 0 0 0 0 0 0
0 0 0 0 0 0 0 0 0 0 0 0 0 0 0 0 0 0 0 0 0 0 0 0 0 0 0 0 0 0 0 0 0 0
0 0 0 0 0 0 0 0 0 0 0 0 0 0 0 0 0 0 0 0 0 0 0 0 0 0 0 0 0 0 0 0 0 0
0 0 0 0 0 0 0 0 0 0 0 0 0 0 0 0 0 0 0 0 0 0 0 0 0 0 0 0 0 0 0 0 0 0
0 0 0 0 0 0 0 0 0 0 0 0 0 0 0 0 0 0 0 0 0 0 0 0 0 0 0 0 0 0 0 0 0 0
0 0 0 0 0 0 0 0 0 0 0 0 0 0 0 0 0 0 0 0 0 0 0 0 0 0 0 0 0 0 0 0 0 0
0 0 0 0 0 0 0 0 0 0 0 0 0 0 0 0 0 0 0 0 0 0 0 0 0 0 0 0 0 0 0 0 0 0
0 0 0 0 0 0 0 0 0 0 0 0 0 0 0 0 0 0 0 0 0 0 0 0 0 0 0 0 0 0 0 0 0 0
0 0 0 0 0 0 0 0 0 0 0 0 0 0 0 0 0 0 0 0 0 0 0 0 0 0 0 0 0 0 0 0 0 0
0 0 0 0 0 0 0 0 0 0 0 0 0 0 0 0 0 0 0 0;
#X coords 0 1 444 -1 200 140 1;
#X restore 1149 546 graph;
#X obj 1024 576 bng 15 250 50 0 empty empty empty 17 7 0 10 -262144
-1 -1;
#X obj 1032 608 tgl 15 0 empty empty empty 17 7 0 10 -262144 -1 -1
1 1;
#X msg 903 627 1;
#X obj 1015 639 metro 50;
#X msg -163 334 95 1;
#X connect 0 0 4 0;
#X connect 1 0 13 0;
#X connect 2 0 3 0;
#X connect 2 0 5 0;
#X connect 3 0 2 1;
#X connect 4 2 2 0;
#X connect 4 3 1 1;
#X connect 5 0 6 0;
#X connect 6 0 1 0;
#X connect 6 0 18 0;
#X connect 7 0 2 1;
#X connect 8 0 7 0;
#X connect 9 1 10 0;
#X connect 10 1 14 0;
#X connect 11 0 12 0;
#X connect 12 0 30 1;
#X connect 13 1 21 0;
#X connect 13 1 11 0;
#X connect 14 0 15 0;
#X connect 15 0 16 0;
#X connect 15 1 17 0;
#X connect 16 0 30 0;
#X connect 17 0 30 0;
#X connect 18 0 19 0;
#X connect 18 1 20 0;
#X connect 19 0 21 1;
#X connect 20 0 21 1;
#X connect 21 0 9 0;
#X connect 22 0 29 1;
#X connect 22 1 31 0;
#X connect 29 0 56 0;
#X connect 30 0 22 0;
#X connect 31 0 29 0;
#X connect 32 0 57 0;
#X connect 33 0 57 1;
#X connect 34 0 57 2;
#X connect 35 0 57 3;
#X connect 36 0 57 4;
#X connect 37 0 57 5;
#X connect 38 0 57 6;
#X connect 39 0 57 7;
#X connect 40 0 57 8;
#X connect 41 0 57 9;
#X connect 42 0 57 10;
#X connect 43 0 57 11;
#X connect 44 0 57 12;
#X connect 45 0 57 13;
#X connect 46 0 57 14;
#X connect 47 0 57 15;
#X connect 48 0 57 16;
#X connect 49 0 57 17;
#X connect 50 0 57 18;
#X connect 51 0 57 19;
#X connect 52 0 57 20;
#X connect 53 0 57 21;
#X connect 54 0 57 22;
#X connect 56 0 32 0;
#X connect 56 1 33 0;
#X connect 56 2 34 0;
#X connect 56 3 35 0;
#X connect 56 4 36 0;
#X connect 56 5 37 0;
#X connect 56 6 38 0;
#X connect 56 7 39 0;
#X connect 56 8 40 0;
#X connect 56 9 41 0;
#X connect 56 10 42 0;
#X connect 56 11 43 0;
#X connect 56 12 44 0;
#X connect 56 13 45 0;
#X connect 56 14 46 0;
#X connect 56 15 47 0;
#X connect 56 16 48 0;
#X connect 56 17 49 0;
#X connect 56 18 50 0;
#X connect 56 19 51 0;
#X connect 56 20 52 0;
#X connect 56 21 53 0;
#X connect 56 22 54 0;
#X connect 56 23 58 0;
#X connect 56 24 59 0;
#X connect 56 25 108 0;
#X connect 56 26 60 0;
#X connect 56 27 61 0;
#X connect 56 28 62 0;
#X connect 56 29 63 0;
#X connect 56 30 65 0;
#X connect 56 31 64 0;
#X connect 56 32 66 0;
#X connect 56 33 67 0;
#X connect 56 34 68 0;
#X connect 56 35 69 0;
#X connect 56 36 70 0;
#X connect 56 37 71 0;
#X connect 56 38 72 0;
#X connect 56 39 73 0;
#X connect 56 40 74 0;
#X connect 56 41 75 0;
#X connect 56 42 76 0;
#X connect 56 43 77 0;
#X connect 56 44 79 0;
#X connect 56 45 78 0;
#X connect 56 46 80 0;
#X connect 56 47 81 0;
#X connect 56 48 82 0;
#X connect 56 49 84 0;
#X connect 56 50 83 0;
#X connect 56 51 85 0;
#X connect 56 52 86 0;
#X connect 56 53 94 0;
#X connect 56 54 87 0;
#X connect 56 55 88 0;
#X connect 56 56 89 0;
#X connect 56 57 91 0;
#X connect 56 58 92 0;
#X connect 56 59 90 0;
#X connect 56 60 93 0;
#X connect 57 0 98 0;
#X connect 57 1 158 0;
#X connect 57 1 220 0;
#X connect 58 0 57 23;
#X connect 59 0 57 24;
#X connect 60 0 57 26;
#X connect 61 0 57 27;
#X connect 62 0 57 28;
#X connect 63 0 57 29;
#X connect 64 0 57 31;
#X connect 65 0 57 30;
#X connect 66 0 57 32;
#X connect 67 0 57 33;
#X connect 68 0 57 34;
#X connect 69 0 57 35;
#X connect 70 0 57 36;
#X connect 71 0 57 37;
#X connect 72 0 57 38;
#X connect 73 0 57 39;
#X connect 74 0 57 40;
#X connect 75 0 57 41;
#X connect 76 0 57 42;
#X connect 77 0 57 43;
#X connect 78 0 57 45;
#X connect 79 0 57 44;
#X connect 80 0 57 46;
#X connect 81 0 57 47;
#X connect 82 0 57 48;
#X connect 83 0 57 50;
#X connect 84 0 57 49;
#X connect 85 0 57 51;
#X connect 86 0 57 52;
#X connect 87 0 57 54;
#X connect 88 0 57 55;
#X connect 89 0 57 56;
#X connect 90 0 57 59;
#X connect 91 0 57 57;
#X connect 92 0 57 58;
#X connect 93 0 57 60;
#X connect 94 0 57 53;
#X connect 95 0 57 61;
#X connect 96 0 188 0;
#X connect 97 0 205 0;
#X connect 98 0 111 0;
#X connect 99 0 202 0;
#X connect 100 0 225 0;
#X connect 102 0 106 0;
#X connect 102 1 106 1;
#X connect 103 0 104 0;
#X connect 103 0 105 0;
#X connect 103 0 107 0;
#X connect 103 0 238 0;
#X connect 103 0 223 0;
#X connect 103 0 109 0;
#X connect 103 0 128 0;
#X connect 103 0 178 0;
#X connect 104 0 184 0;
#X connect 105 0 186 0;
#X connect 107 0 210 0;
#X connect 108 0 57 25;
#X connect 109 0 190 0;
#X connect 110 0 113 0;
#X connect 110 1 114 0;
#X connect 110 2 112 0;
#X connect 110 3 115 0;
#X connect 110 4 116 0;
#X connect 111 0 137 0;
#X connect 111 0 180 0;
#X connect 111 0 213 0;
#X connect 111 0 230 0;
#X connect 112 0 117 0;
#X connect 113 0 117 0;
#X connect 114 0 117 0;
#X connect 115 0 117 0;
#X connect 116 0 117 0;
#X connect 117 0 111 1;
#X connect 118 0 190 0;
#X connect 120 0 126 1;
#X connect 120 0 127 0;
#X connect 121 0 122 0;
#X connect 121 1 123 0;
#X connect 121 2 124 0;
#X connect 121 3 125 0;
#X connect 122 0 120 0;
#X connect 123 0 120 0;
#X connect 124 0 120 0;
#X connect 125 0 120 0;
#X connect 126 0 95 0;
#X connect 127 0 126 0;
#X connect 128 0 191 0;
#X connect 129 0 191 0;
#X connect 130 0 186 0;
#X connect 131 0 184 0;
#X connect 135 0 136 0;
#X connect 137 0 135 0;
#X connect 142 0 161 1;
#X connect 143 0 162 1;
#X connect 144 0 163 1;
#X connect 145 0 164 1;
#X connect 146 0 165 1;
#X connect 147 0 166 1;
#X connect 148 0 167 1;
#X connect 149 0 168 1;
#X connect 150 0 169 1;
#X connect 151 0 170 1;
#X connect 152 0 171 1;
#X connect 153 0 172 1;
#X connect 154 0 173 1;
#X connect 155 0 174 1;
#X connect 156 0 175 1;
#X connect 157 0 176 1;
#X connect 158 0 160 0;
#X connect 160 0 161 0;
#X connect 160 1 162 0;
#X connect 160 2 163 0;
#X connect 160 3 164 0;
#X connect 160 4 165 0;
#X connect 160 5 166 0;
#X connect 160 6 167 0;
#X connect 160 7 168 0;
#X connect 160 8 169 0;
#X connect 160 9 170 0;
#X connect 160 10 171 0;
#X connect 160 11 172 0;
#X connect 160 12 173 0;
#X connect 160 13 174 0;
#X connect 160 14 175 0;
#X connect 160 15 176 0;
#X connect 161 0 177 0;
#X connect 162 0 177 0;
#X connect 163 0 177 0;
#X connect 164 0 177 0;
#X connect 165 0 177 0;
#X connect 166 0 177 0;
#X connect 167 0 177 0;
#X connect 168 0 177 0;
#X connect 169 0 177 0;
#X connect 170 0 177 0;
#X connect 171 0 177 0;
#X connect 172 0 177 0;
#X connect 173 0 177 0;
#X connect 174 0 177 0;
#X connect 175 0 177 0;
#X connect 176 0 177 0;
#X connect 177 0 179 1;
#X connect 177 0 222 1;
#X connect 177 0 232 0;
#X connect 178 0 142 0;
#X connect 178 0 143 0;
#X connect 178 0 144 0;
#X connect 178 0 145 0;
#X connect 178 0 146 0;
#X connect 178 0 147 0;
#X connect 178 0 148 0;
#X connect 178 0 149 0;
#X connect 178 0 150 0;
#X connect 178 0 151 0;
#X connect 178 0 152 0;
#X connect 178 0 153 0;
#X connect 178 0 154 0;
#X connect 178 0 155 0;
#X connect 178 0 156 0;
#X connect 178 0 157 0;
#X connect 179 0 102 0;
#X connect 179 0 229 0;
#X connect 180 0 179 0;
#X connect 182 0 178 0;
#X connect 184 0 102 1;
#X connect 184 0 228 0;
#X connect 186 0 102 2;
#X connect 186 0 219 1;
#X connect 188 0 126 0;
#X connect 190 0 110 0;
#X connect 191 0 121 0;
#X connect 202 0 57 63;
#X connect 205 0 57 62;
#X connect 210 0 106 2;
#X connect 211 0 226 1;
#X connect 213 0 216 0;
#X connect 213 0 214 0;
#X connect 214 0 226 0;
#X connect 217 0 215 0;
#X connect 217 0 215 1;
#X connect 217 0 234 0;
#X connect 218 0 217 1;
#X connect 219 0 233 0;
#X connect 220 0 222 0;
#X connect 222 0 219 0;
#X connect 223 0 188 0;
#X connect 225 0 57 64;
#X connect 226 0 217 0;
#X connect 231 0 29 0;
#X connect 233 0 218 0;
#X connect 237 0 239 0;
#X connect 238 0 205 0;
#X connect 238 0 211 0;
#X connect 238 0 158 0;
#X connect 239 0 234 0;
#X connect 240 0 29 0;
#X coords 0 -1 1 1 320 208 2 900 300;
