#N canvas 643 76 636 394 10;
#X obj 47 128 cnv 15 60 15 empty \$0-cnv .1011 30 5 0 10 -233017 -66577
0;
#N canvas 309 149 722 490 togglecreate 0;
#X obj 46 380 outlet;
#X msg 149 185 reset;
#X obj 107 24 inlet;
#X msg 301 290 clear;
#X obj 149 71 *;
#X floatatom 206 89 5 0 0 0 - - -, f 5;
#X obj 180 33 inlet;
#X obj 107 47 t b f f;
#X msg 168 232 set created \$1 x \$1;
#X msg 167 275 created 1 x 1 1 \;;
#X msg 203 203 vis 1;
#X obj 179 130 t b b b;
#X msg 204 252 add \$1;
#X obj 408 381 outlet;
#N canvas 400 139 656 521 selectobject 0;
#X msg 19 306 obj 10 50 sel 0;
#X obj 18 462 outlet;
#X obj 138 31 inlet;
#X obj 194 32 inlet;
#X obj 25 34 inlet;
#X msg 138 57 add2 \$1;
#X obj 319 32 inlet;
#X msg 244 189 connect \$2 \$3 \$1 0;
#X obj 244 168 pack 1 2 3;
#X obj 244 122 * 2;
#X obj 244 144 + 1;
#X obj 244 100 t f f;
#X obj 321 109 * 2;
#X obj 321 88 - 1;
#X obj 321 131 + 2;
#X obj 159 272 print sequencer;
#X msg 160 250 created;
#X obj 244 79 - 1;
#X msg 25 58 set obj 10 50 sel;
#X msg 261 272 connect \$2 0 \$3 0;
#X obj 261 252 pack 1 2 3;
#X obj 261 209 t b b b;
#X obj 194 54 t b b b;
#X msg 516 270 connect \$1 0 \$2 0;
#X obj 515 248 pack 1 2;
#X obj 560 225 + 1;
#X obj 289 230 + 2;
#X obj 100 162 f \$0;
#X obj 387 236 f \$0;
#X msg 373 273 obj 10 10 r \$0-seqin;
#X msg 87 186 obj 10 210 send \$1-seqout;
#N canvas 780 272 450 323 suzi 0;
#X obj 89 98 until;
#X obj 89 120 f;
#X obj 89 142 + 1;
#X msg 116 120 0;
#X obj 89 76 t f b;
#X obj 104 14 inlet;
#X obj 74 210 outlet;
#X obj 89 53 f;
#X obj 137 36 inlet;
#X obj 74 189 sel 0;
#X obj 89 164 t f f;
#X obj 118 210 outlet;
#X msg 29 187 bang;
#X obj 29 209 outlet;
#X connect 0 0 1 0;
#X connect 1 0 2 0;
#X connect 2 0 1 1;
#X connect 2 0 10 0;
#X connect 3 0 1 1;
#X connect 4 0 0 0;
#X connect 4 1 3 0;
#X connect 5 0 7 0;
#X connect 7 0 4 0;
#X connect 8 0 7 1;
#X connect 8 0 9 1;
#X connect 9 0 6 0;
#X connect 10 0 9 0;
#X connect 10 0 12 0;
#X connect 10 1 11 0;
#X connect 12 0 13 0;
#X restore 246 55 pd suzi;
#X connect 0 0 1 0;
#X connect 2 0 5 0;
#X connect 3 0 22 0;
#X connect 4 0 18 0;
#X connect 5 0 0 0;
#X connect 6 0 13 0;
#X connect 6 0 31 1;
#X connect 7 0 1 0;
#X connect 8 0 7 0;
#X connect 9 0 10 0;
#X connect 10 0 8 0;
#X connect 10 0 24 0;
#X connect 11 0 9 0;
#X connect 11 1 8 2;
#X connect 12 0 14 0;
#X connect 13 0 12 0;
#X connect 14 0 8 1;
#X connect 14 0 20 2;
#X connect 14 0 25 0;
#X connect 14 0 26 0;
#X connect 16 0 15 0;
#X connect 17 0 11 0;
#X connect 18 0 0 0;
#X connect 19 0 1 0;
#X connect 20 0 19 0;
#X connect 21 0 16 0;
#X connect 21 1 20 0;
#X connect 21 2 28 0;
#X connect 22 0 31 0;
#X connect 22 1 27 0;
#X connect 22 2 0 0;
#X connect 23 0 1 0;
#X connect 24 0 23 0;
#X connect 25 0 24 1;
#X connect 26 0 20 1;
#X connect 27 0 30 0;
#X connect 28 0 29 0;
#X connect 29 0 1 0;
#X connect 30 0 1 0;
#X connect 31 1 21 0;
#X connect 31 2 17 0;
#X restore 506 302 pd selectobject;
#X obj 168 312 print grid;
#X obj 246 178 - 1;
#N canvas 389 329 450 323 floatobjects 0;
#X obj 70 151 + 30;
#X obj 70 131 f;
#X obj 214 186 + 30;
#X obj 169 207 pack 1 2;
#X obj 336 156 + 1;
#X obj 292 177 pack 1 2;
#X msg 169 227 obj \$1 \$2 f;
#X msg 98 104 0;
#X msg 292 196 connect \$1 0 \$2 1;
#X obj 291 127 t f f;
#X obj 52 63 t f b f;
#X floatatom 357 242 5 0 0 0 - - -, f 5;
#X msg 357 220 \$2;
#X floatatom 318 243 5 0 0 0 - - -, f 5;
#X msg 318 221 \$1;
#X msg 157 131 150;
#X obj 71 261 outlet;
#X obj 52 39 inlet;
#X obj 167 37 inlet;
#X obj 24 208 pack 1 2 3 \$0;
#X msg 24 230 obj \$1 \$2 r \$4-\$3-snd;
#X obj 70 173 t f f;
#X obj 291 105 * 2;
#X connect 0 0 1 1;
#X connect 0 0 21 0;
#X connect 1 0 0 0;
#X connect 2 0 3 1;
#X connect 3 0 6 0;
#X connect 4 0 5 1;
#X connect 5 0 8 0;
#X connect 5 0 14 0;
#X connect 5 0 12 0;
#X connect 6 0 16 0;
#X connect 7 0 1 1;
#X connect 8 0 16 0;
#X connect 9 0 5 0;
#X connect 9 1 4 0;
#X connect 10 0 22 0;
#X connect 10 1 1 0;
#X connect 10 2 19 2;
#X connect 12 0 11 0;
#X connect 14 0 13 0;
#X connect 15 0 2 0;
#X connect 15 0 19 1;
#X connect 17 0 10 0;
#X connect 18 0 7 0;
#X connect 18 0 15 0;
#X connect 19 0 20 0;
#X connect 20 0 16 0;
#X connect 21 0 3 0;
#X connect 21 1 19 0;
#X connect 22 0 9 0;
#X restore 406 303 pd floatobjects;
#N canvas 56 239 450 323 count 0;
#X obj 75 41 inlet;
#X obj 95 143 f 0;
#X obj 96 179 + 1;
#X obj 131 143 mod \$1;
#X msg 107 107 0;
#X obj 79 204 outlet;
#X obj 76 65 route reset;
#X msg 45 108 bang;
#X obj 167 41 inlet;
#X connect 0 0 6 0;
#X connect 1 0 2 0;
#X connect 1 0 5 0;
#X connect 2 0 3 0;
#X connect 3 0 1 1;
#X connect 4 0 1 1;
#X connect 6 0 4 0;
#X connect 6 1 7 0;
#X connect 7 0 1 0;
#X connect 8 0 3 1;
#X restore 41 192 pd count;
#X obj 47 311 pack 1 2 3 \$0;
#X obj 52 125 mod 8;
#X obj 52 100 t f f;
#X obj 72 264 * 26;
#X obj 72 286 + 26;
#X obj 41 170 sel 0;
#X obj 41 214 + 1;
#X obj 41 236 * 26;
#X obj 32 270 f;
#X obj 52 147 t b f f;
#X msg 47 333 obj \$1 \$2 tgl 25 0 \$4-\$3-snd \$4-\$3-rcv T-\$3 30
14 0 10 400 -1 -1 0 1 \;;
#X msg 389 168 vis 0 \, relocate \$1x\$1+1+1 1x1+100+200;
#X obj 363 100 f;
#X obj 389 146 expr ($f1 + 3) * 26;
#N canvas 780 272 450 323 suzi 0;
#X obj 89 98 until;
#X obj 89 120 f;
#X obj 89 142 + 1;
#X msg 116 120 0;
#X obj 89 76 t f b;
#X obj 88 21 inlet;
#X obj 73 210 outlet;
#X obj 89 53 f;
#X obj 137 36 inlet;
#X obj 73 189 sel 0;
#X obj 89 164 t f f;
#X obj 118 210 outlet;
#X msg 29 187 bang;
#X obj 29 209 outlet;
#X connect 0 0 1 0;
#X connect 1 0 2 0;
#X connect 2 0 1 1;
#X connect 2 0 10 0;
#X connect 3 0 1 1;
#X connect 4 0 0 0;
#X connect 4 1 3 0;
#X connect 5 0 7 0;
#X connect 7 0 4 0;
#X connect 8 0 7 1;
#X connect 8 0 9 1;
#X connect 9 0 6 0;
#X connect 10 0 9 0;
#X connect 10 0 12 0;
#X connect 10 1 11 0;
#X connect 12 0 13 0;
#X restore 179 156 pd suzi;
#X connect 1 0 18 0;
#X connect 2 0 7 0;
#X connect 3 0 0 0;
#X connect 3 0 13 0;
#X connect 3 0 15 0;
#X connect 4 0 5 0;
#X connect 4 0 14 3;
#X connect 4 0 33 1;
#X connect 5 0 12 0;
#X connect 6 0 11 0;
#X connect 7 1 4 0;
#X connect 7 2 4 1;
#X connect 7 2 8 0;
#X connect 7 2 20 1;
#X connect 7 2 18 1;
#X connect 7 2 31 1;
#X connect 8 0 9 0;
#X connect 9 0 15 0;
#X connect 10 0 0 0;
#X connect 11 0 33 0;
#X connect 11 1 1 0;
#X connect 11 1 3 0;
#X connect 11 2 14 0;
#X connect 11 2 17 1;
#X connect 11 2 31 0;
#X connect 12 0 9 0;
#X connect 14 0 13 0;
#X connect 16 0 14 1;
#X connect 16 0 17 0;
#X connect 16 0 21 0;
#X connect 17 0 13 0;
#X connect 18 0 25 0;
#X connect 19 0 29 0;
#X connect 20 0 28 0;
#X connect 21 0 20 0;
#X connect 21 1 19 2;
#X connect 22 0 23 0;
#X connect 23 0 19 1;
#X connect 24 0 18 0;
#X connect 25 0 26 0;
#X connect 26 0 27 1;
#X connect 27 0 19 0;
#X connect 28 0 27 0;
#X connect 28 1 24 0;
#X connect 28 2 22 0;
#X connect 29 0 0 0;
#X connect 30 0 0 0;
#X connect 31 0 32 0;
#X connect 32 0 30 0;
#X connect 33 1 14 2;
#X connect 33 1 10 0;
#X connect 33 1 9 0;
#X connect 33 2 16 0;
#X restore 22 201 pd togglecreate;
#X msg 35 244 clear;
#X floatatom 33 104 5 0 0 0 - - -, f 5;
#X obj 70 105 bng 15 250 50 0 empty empty gen 17 7 0 10 -262144 -1
-1;
#X msg 140 244 vis 1;
#X obj 294 273 r \$0-seqout;
#X obj 294 295 outlet;
#X obj 79 51 s \$0-seqin;
#X obj 79 30 inlet;
#X obj 33 28 inlet;
#X obj 33 50 t b f;
#X obj 34 127 tgl 15 0 empty empty vis 17 7 0 10 -262144 -1 -1 0 1
;
#X msg 76 244 vis \$1;
#X obj 332 53 unpack 1 2;
#X obj 332 76 pack 1 2 \$0;
#X obj 332 32 inlet;
#X msg 332 98 \; \$3-\$1-rcv \$2;
#N canvas 0 0 450 300 colours 0;
#X msg 65 157 -44801;
#X msg 136 158 400;
#X obj 35 188 pack 1 2 \$0;
#X msg 35 212 \; \$3-\$1-rcv color \$2 -1 -1;
#X obj 35 135 t f b;
#X obj 110 135 t f b;
#X obj 35 75 inlet;
#X obj 110 110 pipe 100;
#X obj 116 60 inlet;
#X msg 116 82 clear;
#X connect 0 0 2 1;
#X connect 1 0 2 1;
#X connect 2 0 3 0;
#X connect 4 0 2 0;
#X connect 4 1 0 0;
#X connect 5 0 2 0;
#X connect 5 1 1 0;
#X connect 6 0 4 0;
#X connect 6 0 7 0;
#X connect 7 0 5 0;
#X connect 8 0 9 0;
#X connect 9 0 7 0;
#X restore 149 51 pd colours;
#N canvas 100 200 104 104 \$0-togglegrid 1;
#X obj 26 26 tgl 25 0 1011-0-snd 1011-0-rcv T-0 30 14 0 10 -261744
-1 -1 0 1;
#X restore 21 296 pd \$0-togglegrid;
#N canvas 602 233 450 507 \$0-togglerecieves 0;
#X obj 30 150 r 1011-0-snd;
#X obj 30 180 f;
#X obj 10 50 sel 0;
#X obj 10 210 send 1011-seqout;
#X obj 10 10 r 1011-seqin;
#X connect 0 0 1 1;
#X connect 1 0 3 0;
#X connect 2 0 1 0;
#X connect 4 0 2 0;
#X restore 132 296 pd \$0-togglerecieves;
#X obj 140 272 s pd-\$0-togglerecieves;
#X obj 21 271 s pd-\$0-togglegrid;
#X obj 263 51 metro 200;
#X obj 263 28 tgl 15 0 empty empty example 17 7 0 10 -262144 -1 -1
0 1;
#X text 376 31 values in: cell nr \, value to store;
#X text 121 28 sequence in \, cell nr;
#X text 341 294 values out;
#X obj 22 153 abs;
#X obj 22 175 max 1;
#X obj 206 183 t b f;
#X obj 206 161 f \$1;
#X obj 206 140 loadbang;
#X text 21 321 Grid v1.2 \; Created by Taavi Viikman \, 2017;
#N canvas 385 344 450 323 sequencers 0;
#N canvas 56 239 450 323 count 0;
#X obj 75 41 inlet;
#X obj 95 143 f 0;
#X obj 96 179 + 1;
#X obj 131 143 mod \$1;
#X msg 107 107 0;
#X obj 79 204 outlet;
#X obj 76 65 route reset;
#X msg 45 108 bang;
#X obj 167 41 inlet;
#X connect 0 0 6 0;
#X connect 1 0 2 0;
#X connect 1 0 5 0;
#X connect 2 0 3 0;
#X connect 3 0 1 1;
#X connect 4 0 1 1;
#X connect 6 0 4 0;
#X connect 6 1 7 0;
#X connect 7 0 1 0;
#X connect 8 0 3 1;
#X restore 43 70 pd count;
#N canvas 507 324 450 323 randomer 0;
#X obj 235 69 inlet;
#X obj 152 68 inlet;
#X obj 190 149 random 8;
#X obj 153 204 random 8;
#N canvas 780 272 450 323 suzi 0;
#X obj 89 98 until;
#X obj 89 120 f;
#X obj 89 142 + 1;
#X msg 116 120 0;
#X obj 89 76 t f b;
#X obj 88 21 inlet;
#X obj 73 210 outlet;
#X obj 89 53 f;
#X obj 137 36 inlet;
#X obj 73 189 sel 0;
#X obj 89 164 t f f;
#X obj 118 210 outlet;
#X msg 29 187 bang;
#X obj 29 209 outlet;
#X connect 0 0 1 0;
#X connect 1 0 2 0;
#X connect 2 0 1 1;
#X connect 2 0 10 0;
#X connect 3 0 1 1;
#X connect 4 0 0 0;
#X connect 4 1 3 0;
#X connect 5 0 7 0;
#X connect 7 0 4 0;
#X connect 8 0 7 1;
#X connect 8 0 9 1;
#X connect 9 0 6 0;
#X connect 10 0 9 0;
#X connect 10 0 12 0;
#X connect 10 1 11 0;
#X connect 12 0 13 0;
#X restore 152 180 pd suzi;
#X obj 152 90 t b b;
#X obj 235 91 t f f;
#X obj 235 113 * 1;
#X obj 153 226 outlet;
#X connect 0 0 6 0;
#X connect 1 0 5 0;
#X connect 2 0 4 1;
#X connect 3 0 8 0;
#X connect 4 0 3 0;
#X connect 5 0 4 0;
#X connect 5 1 2 0;
#X connect 6 0 7 0;
#X connect 6 0 2 1;
#X connect 6 1 7 1;
#X connect 7 0 3 1;
#X restore 243 108 pd randomer;
#N canvas 954 223 264 323 versquarer 0;
#X obj 45 199 outlet;
#X obj 20 30 inlet;
#X obj 58 30 inlet;
#X obj 20 86 t b f;
#N canvas 780 272 450 323 suzi 0;
#X obj 89 98 until;
#X obj 89 120 f;
#X obj 89 142 + 1;
#X msg 116 120 0;
#X obj 89 76 t f b;
#X obj 88 21 inlet;
#X obj 73 210 outlet;
#X obj 89 53 f;
#X obj 137 36 inlet;
#X obj 73 189 sel 0;
#X obj 89 164 t f f;
#X obj 118 210 outlet;
#X msg 29 187 bang;
#X obj 29 209 outlet;
#X connect 0 0 1 0;
#X connect 1 0 2 0;
#X connect 2 0 1 1;
#X connect 2 0 10 0;
#X connect 3 0 1 1;
#X connect 4 0 0 0;
#X connect 4 1 3 0;
#X connect 5 0 7 0;
#X connect 7 0 4 0;
#X connect 8 0 7 1;
#X connect 8 0 9 1;
#X connect 9 0 6 0;
#X connect 10 0 9 0;
#X connect 10 0 12 0;
#X connect 10 1 11 0;
#X connect 12 0 13 0;
#X restore 20 107 pd suzi;
#X obj 45 176 +;
#X obj 45 153 * 7;
#X obj 44 132 - 1;
#X connect 1 0 3 0;
#X connect 2 0 4 1;
#X connect 2 0 6 1;
#X connect 3 0 4 0;
#X connect 3 1 5 1;
#X connect 4 2 7 0;
#X connect 5 0 0 0;
#X connect 6 0 5 0;
#X connect 7 0 6 0;
#X restore 66 109 pd versquarer;
#N canvas 954 223 264 323 horsquarer 0;
#X obj 61 253 outlet;
#X obj 20 30 inlet;
#X obj 58 30 inlet;
#X obj 22 166 t b f;
#X obj 61 230 +;
#X obj 22 145 * 8;
#X obj 61 210 - 1;
#N canvas 780 272 450 323 suzi 0;
#X obj 89 98 until;
#X obj 89 120 f;
#X obj 89 142 + 1;
#X msg 116 120 0;
#X obj 89 76 t f b;
#X obj 88 21 inlet;
#X obj 73 210 outlet;
#X obj 89 53 f;
#X obj 137 36 inlet;
#X obj 73 189 sel 0;
#X obj 89 164 t f f;
#X obj 118 210 outlet;
#X msg 29 187 bang;
#X obj 29 209 outlet;
#X connect 0 0 1 0;
#X connect 1 0 2 0;
#X connect 2 0 1 1;
#X connect 2 0 10 0;
#X connect 3 0 1 1;
#X connect 4 0 0 0;
#X connect 4 1 3 0;
#X connect 5 0 7 0;
#X connect 7 0 4 0;
#X connect 8 0 7 1;
#X connect 8 0 9 1;
#X connect 9 0 6 0;
#X connect 10 0 9 0;
#X connect 10 0 12 0;
#X connect 10 1 11 0;
#X connect 12 0 13 0;
#X restore 22 187 pd suzi;
#X connect 1 0 5 0;
#X connect 2 0 5 1;
#X connect 2 0 7 1;
#X connect 3 0 7 0;
#X connect 3 1 4 1;
#X connect 4 0 0 0;
#X connect 5 0 3 0;
#X connect 6 0 4 0;
#X connect 7 2 6 0;
#X restore 156 109 pd horsquarer;
#X obj 43 43 inlet;
#X obj 207 40 inlet;
#X obj 66 160 outlet;
#X connect 0 0 2 0;
#X connect 0 0 3 0;
#X connect 1 0 6 0;
#X connect 2 0 6 0;
#X connect 3 0 6 0;
#X connect 4 0 0 0;
#X connect 4 0 1 0;
#X connect 5 0 0 1;
#X connect 5 0 2 1;
#X connect 5 0 1 1;
#X connect 5 0 3 1;
#X restore 235 77 pd sequencers;
#X obj 133 161 f \$0;
#X obj 133 217 s \$0-cnv;
#X text 239 160 Creation argument (float) defines grid size and creates
it;
#X msg 133 183 label .\$1;
#X connect 1 0 22 0;
#X connect 1 1 21 0;
#X connect 2 0 21 0;
#X connect 2 0 22 0;
#X connect 2 0 18 1;
#X connect 3 0 28 0;
#X connect 4 0 1 1;
#X connect 4 0 18 1;
#X connect 5 0 21 0;
#X connect 6 0 7 0;
#X connect 9 0 8 0;
#X connect 9 0 18 0;
#X connect 10 0 11 0;
#X connect 11 0 4 0;
#X connect 11 1 3 0;
#X connect 12 0 13 0;
#X connect 13 0 22 0;
#X connect 14 0 15 0;
#X connect 14 1 15 1;
#X connect 15 0 17 0;
#X connect 16 0 14 0;
#X connect 23 0 34 0;
#X connect 24 0 23 0;
#X connect 28 0 29 0;
#X connect 29 0 1 0;
#X connect 29 0 34 1;
#X connect 30 0 4 0;
#X connect 30 1 3 0;
#X connect 31 0 30 0;
#X connect 32 0 31 0;
#X connect 32 0 35 0;
#X connect 34 0 18 0;
#X connect 34 0 8 0;
#X connect 35 0 38 0;
#X connect 38 0 36 0;
#X coords 0 -1 1 1 85 60 1 26 86;
