#N canvas 229 103 450 300 10;
#X obj 101 54 inlet;
#X obj 104 128 i;
#X obj 103 155 / 256;
#X obj 103 229 s fknob1;
#X obj 194 59 hsl 128 15 0 1 0 0 empty empty empty -2 -8 0 10 -262144
-1 -1 0 1;
#X floatatom 197 223 5 0 0 0 - - -;
#X obj 102 85 * 265;
#X obj 103 187 min 1;
#X connect 0 0 6 0;
#X connect 1 0 2 0;
#X connect 2 0 7 0;
#X connect 4 0 6 0;
#X connect 6 0 1 0;
#X connect 7 0 5 0;
#X connect 7 0 3 0;
