#N canvas 15 22 450 300 10;
#X obj 121 74 inlet;
#X obj 124 148 i;
#X obj 123 175 / 256;
#X obj 122 241 s fknob3;
#X obj 122 106 * 265;
#X obj 122 199 min 1;
#X connect 0 0 4 0;
#X connect 1 0 2 0;
#X connect 2 0 5 0;
#X connect 4 0 1 0;
#X connect 5 0 3 0;
