#N canvas 0 22 1280 752 10;
#X obj 382 -56 fknob1;
#X obj 382 -93 r knob1;
#X obj 444 -91 r knob2;
#X obj 498 -90 r knob3;
#X obj 552 -88 r knob4;
#X obj 444 -54 fknob2;
#X obj 498 -53 fknob3;
#X obj 552 -51 fknob4;
#X text 436 -25 some knob filtering;
#X obj 168 -61 r notes;
#X obj 168 -30 poly 8;
#X obj 167 1 pack 0 0 0;
#X obj 167 33 route 1 2 3 4 5 6 7 8;
#X obj 574 242 s up;
#X obj 614 242 s down;
#X obj 838 59 s decay;
#X floatatom 837 36 5 0 0 0 - - -;
#X obj 574 144 r fknob1;
#X floatatom 808 239 4 0 100 0 - - -;
#X floatatom 884 242 4 0 100 0 - - -;
#X obj 705 280 phasor~;
#X floatatom 705 259 5 0 0 0 - - -;
#X obj 788 328 *~;
#X obj 705 314 *~ -1;
#X obj 705 339 +~ 1;
#X obj 863 348 *~;
#X text 814 222 up;
#X text 887 223 down;
#X obj 40 481 throw~ outL;
#X obj 124 480 throw~ outR;
#N canvas 606 142 598 524 math 0;
#X obj 205 8 inlet;
#X obj 50 455 outlet;
#X obj 141 457 outlet;
#X obj 205 32 moses 0.5;
#X floatatom 47 120 5 0 0 0 - - -;
#X obj 47 203 abs;
#X obj 203 89 * 2000;
#X floatatom 47 295 5 0 0 0 - - -;
#X floatatom 141 121 5 0 0 0 - - -;
#X floatatom 140 269 5 0 0 0 - - -;
#X obj 139 329 + 0;
#X obj 256 85 - 0.5;
#X floatatom 161 373 5 0 0 0 - - -;
#X floatatom 63 373 5 0 0 0 - - -;
#X floatatom 256 270 5 0 0 0 - - -;
#X obj 220 272 bng 15 250 50 0 empty empty empty 17 7 0 10 -262144
-1 -1;
#X obj 142 146 / 1000;
#X msg 226 59 0.5;
#X obj 139 400 bng 15 250 50 0 empty empty empty 17 7 0 10 -262144
-1 -1;
#X obj 163 432 line;
#X msg 134 432 10;
#X obj 32 393 bng 15 250 50 0 empty empty empty 17 7 0 10 -262144 -1
-1;
#X obj 56 425 line;
#X msg 27 425 10;
#X obj 140 236 abs;
#X obj 49 236 + 300;
#X obj 140 206 - 300;
#X obj 48 161 * 1.7;
#X obj 141 177 * 100;
#X obj 256 305 - 1800;
#X floatatom 257 368 5 0 0 0 - - -;
#X obj 254 337 max 0;
#X obj 50 335 + 0;
#X obj 256 116 * 10000;
#X connect 0 0 3 0;
#X connect 3 0 6 0;
#X connect 3 0 17 0;
#X connect 3 1 11 0;
#X connect 4 0 27 0;
#X connect 5 0 25 0;
#X connect 6 0 8 0;
#X connect 6 0 4 0;
#X connect 7 0 32 0;
#X connect 8 0 16 0;
#X connect 9 0 10 0;
#X connect 10 0 12 0;
#X connect 11 0 33 0;
#X connect 12 0 19 0;
#X connect 12 0 18 0;
#X connect 13 0 22 0;
#X connect 13 0 21 0;
#X connect 14 0 15 0;
#X connect 14 0 10 1;
#X connect 14 0 29 0;
#X connect 15 0 10 0;
#X connect 15 0 32 0;
#X connect 16 0 28 0;
#X connect 17 0 11 0;
#X connect 18 0 19 0;
#X connect 18 0 20 0;
#X connect 19 0 2 0;
#X connect 20 0 19 2;
#X connect 21 0 22 0;
#X connect 21 0 23 0;
#X connect 22 0 1 0;
#X connect 23 0 22 2;
#X connect 24 0 9 0;
#X connect 25 0 7 0;
#X connect 26 0 24 0;
#X connect 27 0 5 0;
#X connect 28 0 26 0;
#X connect 29 0 31 0;
#X connect 30 0 32 1;
#X connect 31 0 30 0;
#X connect 32 0 13 0;
#X connect 33 0 14 0;
#X restore 574 209 pd math;
#X obj 706 144 r fknob2;
#X obj 823 147 r fknob3;
#X floatatom 956 300 5 0 0 0 - - -;
#X obj 956 269 change;
#X obj 817 441 +~;
#X obj 100 406 *~ 1;
#X obj 817 473 s~ trem;
#X obj 535 89 r~ trem;
#X obj 621 -89 r aux;
#X obj 83 173 *~;
#X obj 817 415 *~;
#X obj 962 344 expr 1-$f1;
#N canvas 53 201 1100 514 math 0;
#X obj 208 21 inlet;
#X obj 284 450 outlet;
#X obj 386 451 outlet;
#X obj 208 78 hsl 128 15 0 100 0 0 empty empty empty -2 -8 0 10 -262144
-1 -1 0 1;
#X floatatom 205 200 5 0 0 0 - - -;
#X floatatom 456 199 5 0 0 0 - - -;
#X obj 452 175 abs;
#X floatatom 270 180 5 0 0 0 - - -;
#X obj 266 156 abs;
#X floatatom 386 179 5 0 0 0 - - -;
#X obj 382 155 abs;
#X obj 205 166 min 50;
#X obj 454 126 max 50;
#X obj 454 153 - 100;
#X obj 267 134 - 100;
#X obj 384 133 - 100;
#X obj 456 229 + 50;
#X floatatom 455 258 5 0 0 0 - - -;
#X floatatom 385 300 5 0 0 0 - - -;
#X obj 385 199 * 2;
#X obj 384 223 - 100;
#X obj 385 272 + 100;
#X floatatom 270 305 5 0 0 0 - - -;
#X obj 270 204 * 2;
#X obj 269 228 - 100;
#X obj 270 277 + 100;
#X obj 206 227 + 50;
#X floatatom 205 256 5 0 0 0 - - -;
#X obj 455 292 change;
#X obj 270 331 change;
#X obj 206 300 change;
#X obj 386 328 change;
#X obj 205 53 * 100;
#X obj 270 254 * 19;
#X obj 385 249 * 19;
#X connect 0 0 32 0;
#X connect 3 0 11 0;
#X connect 3 0 12 0;
#X connect 4 0 26 0;
#X connect 5 0 15 0;
#X connect 5 0 16 0;
#X connect 6 0 5 0;
#X connect 7 0 23 0;
#X connect 8 0 7 0;
#X connect 9 0 19 0;
#X connect 10 0 9 0;
#X connect 11 0 4 0;
#X connect 11 0 14 0;
#X connect 12 0 13 0;
#X connect 13 0 6 0;
#X connect 14 0 8 0;
#X connect 15 0 10 0;
#X connect 16 0 17 0;
#X connect 17 0 28 0;
#X connect 18 0 31 0;
#X connect 19 0 20 0;
#X connect 20 0 34 0;
#X connect 21 0 18 0;
#X connect 22 0 29 0;
#X connect 23 0 24 0;
#X connect 24 0 33 0;
#X connect 25 0 22 0;
#X connect 26 0 27 0;
#X connect 27 0 30 0;
#X connect 28 0 1 0;
#X connect 29 0 1 0;
#X connect 30 0 2 0;
#X connect 31 0 2 0;
#X connect 32 0 3 0;
#X connect 33 0 25 0;
#X connect 34 0 21 0;
#X restore 829 204 pd math;
#X obj 808 262 / 100;
#X obj 883 262 / 100;
#X obj 788 373 min~;
#X obj 1062 379 s led;
#X obj 369 220 loadbang;
#X msg 749 253 0;
#X floatatom 310 -19 5 0 0 0 - - -;
#X obj 310 5 s reset;
#X obj 751 199 r reset;
#X obj 750 224 sel 100;
#X obj 264 -35 poly 1;
#X obj 85 367 *~ 1;
#X obj 132 368 *~ 0;
#X obj 706 199 * 15;
#X obj 1060 262 s~ depth;
#X obj 1061 235 sig~;
#X obj 794 536 s~ rate;
#N canvas 797 28 450 300 knob4 0;
#X obj 90 51 r fknob4;
#X obj 92 178 moses 0;
#X floatatom 66 213 5 0 0 0 - - -;
#X floatatom 132 211 5 0 0 0 - - -;
#X obj 90 84 * 200;
#X obj 90 115 - 100;
#X obj 90 149 / 100;
#X obj 68 243 abs;
#X obj 131 245 abs;
#X obj 71 276 s knob4A;
#X obj 142 276 s knob4B;
#X connect 0 0 4 0;
#X connect 1 0 2 0;
#X connect 1 1 3 0;
#X connect 2 0 7 0;
#X connect 3 0 8 0;
#X connect 4 0 5 0;
#X connect 5 0 6 0;
#X connect 6 0 1 0;
#X connect 7 0 9 0;
#X connect 8 0 10 0;
#X restore 460 10 pd knob4;
#X obj 1061 207 * 50;
#X obj 957 148 r knob4A;
#X msg 527 444 \; screenLine4 4: Pitch \$1%;
#X obj 358 382 * 100;
#X obj 357 402 i;
#X obj 529 384 * 100;
#X obj 528 404 i;
#X obj 478 476 r decay;
#X obj 878 317 line~;
#X obj 878 294 pack;
#X msg 916 293 10;
#X obj 807 306 line~;
#X obj 807 283 pack;
#X msg 845 282 10;
#X obj 234 385 line;
#X obj 486 85 voice;
#X obj 4 502 tabwrite~ wave;
#X obj -24 412 tgl 15 0 empty empty empty 17 7 0 10 -262144 -1 -1 0
1;
#N canvas 0 22 450 278 (subpatch) 0;
#X array wave 1000 float 1;
#A 0 0 0 0 0 0 0 0 0 0 0 0 0 0 0 0 0 0 0 0 0 0 0 0 0 0 0 0 0 0 0 0
0 0 0 0 0 0 0 0 0 0 0 0 0 0 0 0 0 0 0 0 0 0 0 0 0 0 0 0 0 0 0 0 0 0
0 0 0 0 0 0 0 0 0 0 0 0 0 0 0 0 0 0 0 0 0 0 0 0 0 0 0 0 0 0 0 0 0 0
0 0 0 0 0 0 0 0 0 0 0 0 0 0 0 0 0 0 0 0 0 0 0 0 0 0 0 0 0 0 0 0 0 0
0 0 0 0 0 0 0 0 0 0 0 0 0 0 0 0 0 0 0 0 0 0 0 0 0 0 0 0 0 0 0 0 0 0
0 0 0 0 0 0 0 0 0 0 0 0 0 0 0 0 0 0 0 0 0 0 0 0 0 0 0 0 0 0 0 0 0 0
0 0 0 0 0 0 0 0 0 0 0 0 0 0 0 0 0 0 0 0 0 0 0 0 0 0 0 0 0 0 0 0 0 0
0 0 0 0 0 0 0 0 0 0 0 0 0 0 0 0 0 0 0 0 0 0 0 0 0 0 0 0 0 0 0 0 0 0
0 0 0 0 0 0 0 0 0 0 0 0 0 0 0 0 0 0 0 0 0 0 0 0 0 0 0 0 0 0 0 0 0 0
0 0 0 0 0 0 0 0 0 0 0 0 0 0 0 0 0 0 0 0 0 0 0 0 0 0 0 0 0 0 0 0 0 0
0 0 0 0 0 0 0 0 0 0 0 0 0 0 0 0 0 0 0 0 0 0 0 0 0 0 0 0 0 0 0 0 0 0
0 0 0 0 0 0 0 0 0 0 0 0 0 0 0 0 0 0 0 0 0 0 0 0 0 0 0 0 0 0 0 0 0 0
0 0 0 0 0 0 0 0 0 0 0 0 0 0 0 0 0 0 0 0 0 0 0 0 0 0 0 0 0 0 0 0 0 0
0 0 0 0 0 0 0 0 0 0 0 0 0 0 0 0 0 0 0 0 0 0 0 0 0 0 0 0 0 0 0 0 0 0
0 0 0 0 0 0 0 0 0 0 0 0 0 0 0 0 0 0 0 0 0 0 0 0 0 0 0 0 0 0 0 0 0 0
0 0 0 0 0 0 0 0 0 0 0 0 0 0 0 0 0 0 0 0 0 0 0 0 0 0 0 0 0 0 0 0 0 0
0 0 0 0 0 0 0 0 0 0 0 0 0 0 0 0 0 0 0 0 0 0 0 0 0 0 0 0 0 0 0 0 0 0
0 0 0 0 0 0 0 0 0 0 0 0 0 0 0 0 0 0 0 0 0 0 0 0 0 0 0 0 0 0 0 0 0 0
0 0 0 0 0 0 0 0 0 0 0 0 0 0 0 0 0 0 0 0 0 0 0 0 0 0 0 0 0 0 0 0 0 0
0 0 0 0 0 0 0 0 0 0 0 0 0 0 0 0 0 0 0 0 0 0 0 0 0 0 0 0 0 0 0 0 0 0
0 0 0 0 0 0 0 0 0 0 0 0 0 0 0 0 0 0 0 0 0 0 0 0 0 0 0 0 0 0 0 0 0 0
0 0 0 0 0 0 0 0 0 0 0 0 0 0 0 0 0 0 0 0 0 0 0 0 0 0 0 0 0 0 0 0 0 0
0 0 0 0 0 0 0 0 0 0 0 0 0 0 0 0 0 0 0 0 0 0 0 0 0 0 0 0 0 0 0 0 0 0
0 0 0 0 0 0 0 0 0 0 0 0 0 0 0 0 0 0 0 0 0 0 0 0 0 0 0 0 0 0 0 0 0 0
0 0 0 0 0 0 0 0 0 0 0 0 0 0 0 0 0 0 0 0 0 0 0 0 0 0 0 0 0 0 0 0 0 0
0 0 0 0 0 0 0 0 0 0 0 0 0 0 0 0 0 0 0 0 0 0 0 0 0 0 0 0 0 0 0 0 0 0
0 0 0 0 0 0 0 0 0 0 0 0 0 0 0 0 0 0 0 0 0 0 0 0 0 0 0 0 0 0 0 0 0 0
0 0 0 0 0 0 0 0 0 0 0 0 0 0 0 0 0 0 0 0 0 0 0 0 0 0 0 0 0 0 0 0 0 0
0 0 0 0 0 0 0 0 0 0 0 0 0 0 0 0 0 0 0 0 0 0 0 0 0 0 0 0 0 0 0 0 0 0
0 0 0 0 0 0 0 0 0 0 0 0 0 0 0 0 0;
#X coords 0 1 999 -1 200 140 1;
#X restore -44 -94 graph;
#X obj 20 77 voice;
#X obj 152 80 voice;
#X obj 85 78 voice;
#X obj 287 82 voice;
#X obj 219 80 voice;
#X obj 355 81 voice;
#X obj 421 83 voice;
#N canvas 311 130 368 453 antialias~ 0;
#X obj 69 79 inlet~;
#X obj 70 291 rzero~ -1;
#X obj 70 314 rzero~ -1;
#X obj 70 337 rzero~ -1;
#X text 240 120 anti-aliasing;
#X obj 71 409 outlet~;
#X obj 229 89 block~ 1024 1 16;
#X obj 69 142 *~ 0.12532;
#X obj 69 165 rpole~ 0.87467;
#X obj 69 188 *~ 0.01668;
#X obj 69 211 cpole~ 0.9293 0.10812;
#X obj 69 237 cpole~ 0.9293 -0.10812;
#X obj 70 268 *~ 0.12532;
#X obj 70 378 *~ 1;
#X obj 69 112 *~ 1;
#X connect 0 0 14 0;
#X connect 1 0 2 0;
#X connect 2 0 3 0;
#X connect 3 0 13 0;
#X connect 7 0 8 0;
#X connect 8 0 9 0;
#X connect 9 0 10 0;
#X connect 10 0 11 0;
#X connect 10 1 11 1;
#X connect 11 0 12 0;
#X connect 12 0 1 0;
#X connect 13 0 5 0;
#X connect 14 0 7 0;
#X restore 78 455 pd antialias~;
#X floatatom 262 273 5 0 0 0 - - -;
#X obj 260 243 change;
#X floatatom 263 334 5 0 0 0 - - -;
#X obj 262 306 + 1;
#X obj 244 359 pack;
#X msg 284 361 10;
#X obj -33 432 metro 100;
#X floatatom 31 355 5 0 1 0 - - -;
#X obj -35 306 loadbang;
#X msg -35 334 1;
#X floatatom 101 316 5 0 1 0 - - -;
#N canvas 342 167 714 434 attack 0;
#X obj 178 -51 r notes;
#X obj 178 -20 poly 8;
#X obj 177 11 pack 0 0 0;
#X obj 177 43 route 1 2 3 4 5 6 7 8;
#X obj 137 268 outlet~;
#X obj 93 185 *~ 0.5;
#X obj 229 90 transient;
#X obj 30 87 transient;
#X obj 95 88 transient;
#X obj 162 90 transient;
#X obj 297 92 transient;
#X obj 365 91 transient;
#X obj 431 93 transient;
#X obj 496 95 transient;
#X connect 0 0 1 0;
#X connect 1 0 2 0;
#X connect 1 1 2 1;
#X connect 1 2 2 2;
#X connect 2 0 3 0;
#X connect 3 0 7 0;
#X connect 3 1 8 0;
#X connect 3 2 9 0;
#X connect 3 3 6 0;
#X connect 3 4 10 0;
#X connect 3 5 11 0;
#X connect 3 6 12 0;
#X connect 3 7 13 0;
#X connect 5 0 4 0;
#X connect 6 0 5 0;
#X connect 7 0 5 0;
#X connect 8 0 5 0;
#X connect 9 0 5 0;
#X connect 10 0 5 0;
#X connect 11 0 5 0;
#X connect 12 0 5 0;
#X connect 13 0 5 0;
#X restore -11 136 pd attack;
#X obj 31 327 abs;
#X obj 31 304 - 1;
#N canvas 536 361 451 365 filter 0;
#X obj 72 217 moog~;
#X floatatom 112 166 5 0 0 0 - - -;
#X obj 124 244 env~;
#X floatatom 124 264 5 0 0 0 - - -;
#X msg 68 170 reset;
#X obj 112 189 sig~ 3;
#X msg 222 60 \; pd dsp 1 \;;
#X text 158 170 Q (1-4);
#N canvas 284 271 494 344 META 0;
#X text 12 165 HELP_PATCH_AUTHORS "pd meta" information added by Jonathan
Wilkes for Pd version 0.42.;
#X text 12 25 LICENSE Tcl/Tk;
#X text 12 145 AUTHOR Guenter Geiger;
#X text 12 5 KEYWORDS signal;
#X text 12 45 DESCRIPTION a signal controlled moog resonant lowpass
;
#X text 12 65 INLET_0 reset signal;
#X text 12 85 INLET_1 signal;
#X text 12 105 INLET_2 signal;
#X text 12 125 OUTLET_0 signal;
#X restore 180 315 pd META;
#X obj -5 46 inlet~;
#X obj 111 46 inlet;
#X obj 73 327 outlet~;
#X obj 55 49 inlet~;
#X obj 48 101 *~ 13000;
#X obj 72 263 *~ 2;
#X obj 49 81 +~ 1;
#X obj 49 120 +~ -13000;
#X connect 0 0 2 0;
#X connect 0 0 14 0;
#X connect 1 0 5 0;
#X connect 2 0 3 0;
#X connect 4 0 0 0;
#X connect 5 0 0 2;
#X connect 9 0 0 0;
#X connect 10 0 1 0;
#X connect 12 0 15 0;
#X connect 13 0 16 0;
#X connect 14 0 11 0;
#X connect 15 0 13 0;
#X connect 16 0 0 1;
#X restore 139 319 pd filter;
#X obj 269 152 r A;
#X obj 574 186 override;
#X obj 634 157 tgl 15 0 empty empty empty 17 7 0 10 -262144 -1 -1 0
1;
#X obj 707 174 override;
#X obj 767 145 tgl 15 0 empty empty empty 17 7 0 10 -262144 -1 -1 0
1;
#X obj 825 179 override;
#X obj 885 150 tgl 15 0 empty empty empty 17 7 0 10 -262144 -1 -1 0
1;
#X obj 956 184 override;
#X obj 1016 155 tgl 15 0 empty empty empty 17 7 0 10 -262144 -1 -1
0 1;
#X obj 1062 148 r knob4B;
#X obj 1061 179 override;
#X obj 1121 150 tgl 15 0 empty empty empty 17 7 0 10 -262144 -1 -1
0 1;
#X obj 621 -13 tgl 15 0 empty empty empty 17 7 0 10 -262144 -1 -1 0
1;
#X msg 1061 354 2;
#X obj 624 13 s switch;
#X obj 637 133 r switch;
#X obj 765 119 r switch;
#X obj 887 123 r switch;
#X obj 1016 123 r switch;
#X obj 1119 121 r switch;
#X obj 1058 305 r switch;
#X obj 1059 330 sel 1;
#X msg 1097 355 0;
#X obj 250 -63 r trans;
#X obj 712 29 s trans;
#X obj 712 -49 override;
#X obj 599 68 tgl 15 0 empty empty empty 17 7 0 10 -262144 -1 -1 1
1;
#X obj 601 93 s switch2;
#X floatatom 589 15 5 0 0 0 - - -;
#X obj 599 39 tglsel 0;
#X obj 621 -63 sel 1;
#X obj 770 -104 r switch2;
#X obj 771 -75 tgl 15 0 empty empty empty 17 7 0 10 -262144 -1 -1 1
1;
#X obj 712 -24 expr [$f1 *48] -24;
#X obj 711 3 i;
#X floatatom 745 5 5 0 0 0 - - -;
#X obj 711 -79 r fknob1;
#X msg 292 519 \; screenLine1 1: Transpose \$1;
#X obj 99 213 r filter;
#X obj 839 -45 override;
#X obj 897 -100 r switch2;
#X obj 898 -71 tgl 15 0 empty empty empty 17 7 0 10 -262144 -1 -1 1
1;
#X obj 838 -76 r fknob2;
#X obj 838 -16 * 2900;
#X obj 837 9 + 100;
#X obj 293 477 r trans;
#X floatatom 293 500 5 0 0 0 - - -;
#X msg 366 250 \; screenLine1 1: Voicing \; screenLine2 2: Rate \;
screenLine3 3: Shape \; screenLine4 4: Depth \; screenLine5 Aux: Page
1/2 \;;
#X obj 982 -38 override;
#X obj 1040 -93 r switch2;
#X obj 1041 -64 tgl 15 0 empty empty empty 17 7 0 10 -262144 -1 -1
1 1;
#X obj 981 -68 r fknob3;
#X obj 982 13 s filter;
#X obj 228 -23 + 0;
#X obj 223 -43 bng 15 250 50 0 empty empty empty 17 7 0 10 -262144
-1 -1;
#X obj 220 256 r depth;
#X obj 1057 -3 override;
#X obj 1115 -58 r switch2;
#X obj 1116 -29 tgl 15 0 empty empty empty 17 7 0 10 -262144 -1 -1
1 1;
#X obj 1056 82 s depth;
#X obj 1056 48 expr [$f1 * 4] +1;
#X floatatom 1018 72 5 0 0 0 - - -;
#X obj 1056 -33 r fknob4;
#X obj 982 -12 * 2;
#X obj 192 291 * 1.9;
#X obj 100 293 min 1;
#X obj 1057 20 - 1;
#X obj 1099 19 abs;
#X obj 315 236 sel 1;
#X floatatom 357 424 5 0 0 0 - - -;
#X floatatom 526 426 5 0 0 0 - - -;
#X msg 292 582 \; screenLine3 3: Filter Q \$1%;
#X msg 487 585 \; screenLine4 4: Filter Freq;
#X obj 201 559 r filter;
#X obj 200 589 * 50;
#X floatatom 290 561 5 0 0 0 - - -;
#X obj 203 497 sel 1;
#X floatatom 474 504 5 0 0 0 - - -;
#X msg 476 524 \; screenLine2 2: Decay \$1ms \;;
#X msg 358 445 \; screenLine4 4: Tremolo \$1%;
#X obj 359 359 r A;
#X obj 528 359 r B;
#X obj 973 218 s A;
#X obj 1111 210 s B;
#X obj 244 590 i;
#X obj 438 500 i;
#X obj 75 433 hip~ 1;
#X obj 159 215 r~ rate;
#X obj 159 279 /~ 2;
#X obj 158 248 max~ 0;
#X floatatom 213 226 5 0 0 0 - - -;
#X obj 1006 46 s max;
#X obj 213 181 r max;
#X obj 215 202 / 4;
#X obj 705 230 + 0.1;
#N canvas 233 341 450 300 brain 0;
#X floatatom 196 95 4 0 100 0 - - -;
#X floatatom 272 98 4 0 100 0 - - -;
#X obj 93 136 phasor~;
#X floatatom 93 115 5 0 0 0 - - -;
#X obj 176 184 *~;
#X obj 93 170 *~ -1;
#X obj 93 195 +~ 1;
#X obj 251 204 *~;
#X text 202 78 up;
#X text 275 79 down;
#N canvas 53 201 1100 514 math 0;
#X obj 208 21 inlet;
#X obj 284 450 outlet;
#X obj 386 451 outlet;
#X obj 208 78 hsl 128 15 0 100 0 0 empty empty empty -2 -8 0 10 -262144
-1 -1 0 1;
#X floatatom 205 200 5 0 0 0 - - -;
#X floatatom 456 199 5 0 0 0 - - -;
#X obj 452 175 abs;
#X floatatom 270 180 5 0 0 0 - - -;
#X obj 266 156 abs;
#X floatatom 386 179 5 0 0 0 - - -;
#X obj 382 155 abs;
#X obj 205 166 min 50;
#X obj 454 126 max 50;
#X obj 454 153 - 100;
#X obj 267 134 - 100;
#X obj 384 133 - 100;
#X obj 456 229 + 50;
#X floatatom 455 258 5 0 0 0 - - -;
#X floatatom 385 300 5 0 0 0 - - -;
#X obj 385 199 * 2;
#X obj 384 223 - 100;
#X obj 385 272 + 100;
#X floatatom 270 305 5 0 0 0 - - -;
#X obj 270 204 * 2;
#X obj 269 228 - 100;
#X obj 270 277 + 100;
#X obj 206 227 + 50;
#X floatatom 205 256 5 0 0 0 - - -;
#X obj 455 292 change;
#X obj 270 331 change;
#X obj 206 300 change;
#X obj 386 328 change;
#X obj 205 53 * 100;
#X obj 270 254 * 19;
#X obj 385 249 * 19;
#X connect 0 0 32 0;
#X connect 3 0 11 0;
#X connect 3 0 12 0;
#X connect 4 0 26 0;
#X connect 5 0 15 0;
#X connect 5 0 16 0;
#X connect 6 0 5 0;
#X connect 7 0 23 0;
#X connect 8 0 7 0;
#X connect 9 0 19 0;
#X connect 10 0 9 0;
#X connect 11 0 4 0;
#X connect 11 0 14 0;
#X connect 12 0 13 0;
#X connect 13 0 6 0;
#X connect 14 0 8 0;
#X connect 15 0 10 0;
#X connect 16 0 17 0;
#X connect 17 0 28 0;
#X connect 18 0 31 0;
#X connect 19 0 20 0;
#X connect 20 0 34 0;
#X connect 21 0 18 0;
#X connect 22 0 29 0;
#X connect 23 0 24 0;
#X connect 24 0 33 0;
#X connect 25 0 22 0;
#X connect 26 0 27 0;
#X connect 27 0 30 0;
#X connect 28 0 1 0;
#X connect 29 0 1 0;
#X connect 30 0 2 0;
#X connect 31 0 2 0;
#X connect 32 0 3 0;
#X connect 33 0 25 0;
#X connect 34 0 21 0;
#X restore 217 60 pd math;
#X obj 196 118 / 100;
#X obj 271 118 / 100;
#X obj 176 229 min~;
#X msg 137 109 0;
#X obj 139 55 r reset;
#X obj 138 80 sel 100;
#X obj 94 55 * 15;
#X obj 266 173 line~;
#X obj 266 150 pack;
#X msg 304 149 10;
#X obj 195 162 line~;
#X obj 195 139 pack;
#X msg 233 138 10;
#X obj 93 86 + 0.1;
#X obj 96 9 inlet;
#X obj 217 13 inlet;
#X obj 176 260 outlet~;
#X connect 0 0 11 0;
#X connect 1 0 12 0;
#X connect 2 0 4 0;
#X connect 2 0 5 0;
#X connect 3 0 2 0;
#X connect 4 0 13 0;
#X connect 5 0 6 0;
#X connect 6 0 7 0;
#X connect 7 0 13 1;
#X connect 10 0 0 0;
#X connect 10 1 1 0;
#X connect 11 0 22 0;
#X connect 11 0 23 0;
#X connect 12 0 19 0;
#X connect 12 0 20 0;
#X connect 13 0 27 0;
#X connect 14 0 2 1;
#X connect 15 0 16 0;
#X connect 16 0 14 0;
#X connect 17 0 24 0;
#X connect 18 0 7 1;
#X connect 19 0 18 0;
#X connect 20 0 19 1;
#X connect 21 0 4 1;
#X connect 22 0 21 0;
#X connect 23 0 22 1;
#X connect 24 0 3 0;
#X connect 25 0 17 0;
#X connect 26 0 10 0;
#X restore 682 378 pd brain;
#X msg 553 308 \; screenLine2 2: Rate \$1;
#X floatatom 552 285 5 0 0 0 - - -;
#X obj 318 208 r switch2;
#X obj 205 470 r switch;
#X connect 1 0 0 0;
#X connect 2 0 5 0;
#X connect 3 0 6 0;
#X connect 4 0 7 0;
#X connect 9 0 10 0;
#X connect 9 0 54 0;
#X connect 10 0 11 0;
#X connect 10 1 157 0;
#X connect 10 2 11 2;
#X connect 11 0 12 0;
#X connect 12 0 81 0;
#X connect 12 1 83 0;
#X connect 12 2 82 0;
#X connect 12 3 85 0;
#X connect 12 4 84 0;
#X connect 12 5 86 0;
#X connect 12 6 87 0;
#X connect 12 7 77 0;
#X connect 16 0 15 0;
#X connect 17 0 105 0;
#X connect 18 0 44 0;
#X connect 19 0 45 0;
#X connect 20 0 22 0;
#X connect 20 0 23 0;
#X connect 21 0 20 0;
#X connect 21 0 201 0;
#X connect 22 0 46 0;
#X connect 23 0 24 0;
#X connect 24 0 25 0;
#X connect 25 0 46 1;
#X connect 30 0 13 0;
#X connect 30 1 14 0;
#X connect 31 0 107 0;
#X connect 32 0 109 0;
#X connect 33 0 41 1;
#X connect 33 0 42 0;
#X connect 34 0 33 0;
#X connect 35 0 37 0;
#X connect 36 0 190 0;
#X connect 38 0 40 1;
#X connect 39 0 134 0;
#X connect 40 0 103 0;
#X connect 40 0 55 0;
#X connect 41 0 35 0;
#X connect 42 0 35 1;
#X connect 43 0 18 0;
#X connect 43 1 19 0;
#X connect 44 0 74 0;
#X connect 44 0 75 0;
#X connect 45 0 71 0;
#X connect 45 0 72 0;
#X connect 46 0 41 0;
#X connect 46 0 60 0;
#X connect 48 0 151 0;
#X connect 49 0 20 1;
#X connect 50 0 51 0;
#X connect 52 0 53 0;
#X connect 53 0 49 0;
#X connect 54 2 50 0;
#X connect 55 0 36 0;
#X connect 56 0 36 0;
#X connect 57 0 198 0;
#X connect 59 0 58 0;
#X connect 62 0 59 0;
#X connect 63 0 111 0;
#X connect 65 0 66 0;
#X connect 66 0 173 0;
#X connect 67 0 68 0;
#X connect 68 0 174 0;
#X connect 69 0 189 0;
#X connect 70 0 25 1;
#X connect 71 0 70 0;
#X connect 72 0 71 1;
#X connect 73 0 22 1;
#X connect 74 0 73 0;
#X connect 75 0 74 1;
#X connect 76 0 36 1;
#X connect 77 0 40 0;
#X connect 79 0 95 0;
#X connect 81 0 40 0;
#X connect 82 0 40 0;
#X connect 83 0 40 0;
#X connect 84 0 40 0;
#X connect 85 0 40 0;
#X connect 86 0 40 0;
#X connect 87 0 40 0;
#X connect 88 0 28 0;
#X connect 88 0 29 0;
#X connect 88 0 78 0;
#X connect 89 0 92 0;
#X connect 90 0 89 0;
#X connect 91 0 93 0;
#X connect 91 0 94 0;
#X connect 92 0 91 0;
#X connect 93 0 76 0;
#X connect 94 0 93 1;
#X connect 95 0 78 0;
#X connect 96 0 55 1;
#X connect 97 0 98 0;
#X connect 98 0 96 0;
#X connect 99 0 56 1;
#X connect 100 0 40 0;
#X connect 101 0 96 0;
#X connect 102 0 101 0;
#X connect 103 0 56 0;
#X connect 104 0 90 0;
#X connect 105 0 30 0;
#X connect 106 0 105 1;
#X connect 107 0 57 0;
#X connect 108 0 107 1;
#X connect 109 0 43 0;
#X connect 110 0 109 1;
#X connect 111 0 34 0;
#X connect 111 0 186 0;
#X connect 112 0 111 1;
#X connect 113 0 114 0;
#X connect 114 0 62 0;
#X connect 114 0 187 0;
#X connect 115 0 114 1;
#X connect 116 0 118 0;
#X connect 116 0 132 0;
#X connect 117 0 47 0;
#X connect 119 0 106 0;
#X connect 120 0 108 0;
#X connect 121 0 110 0;
#X connect 122 0 112 0;
#X connect 123 0 115 0;
#X connect 124 0 125 0;
#X connect 125 0 117 0;
#X connect 125 1 126 0;
#X connect 126 0 47 0;
#X connect 127 0 157 1;
#X connect 127 0 158 0;
#X connect 129 0 137 0;
#X connect 130 0 131 0;
#X connect 132 0 133 0;
#X connect 133 0 130 0;
#X connect 134 0 116 0;
#X connect 135 0 136 0;
#X connect 136 0 129 1;
#X connect 137 0 138 0;
#X connect 138 0 139 0;
#X connect 138 0 128 0;
#X connect 140 0 129 0;
#X connect 142 0 168 0;
#X connect 142 0 169 0;
#X connect 143 0 147 0;
#X connect 144 0 145 0;
#X connect 145 0 143 1;
#X connect 146 0 143 0;
#X connect 147 0 148 0;
#X connect 148 0 16 0;
#X connect 149 0 150 0;
#X connect 150 0 141 0;
#X connect 152 0 167 0;
#X connect 153 0 154 0;
#X connect 154 0 152 1;
#X connect 155 0 152 0;
#X connect 157 0 11 1;
#X connect 158 0 157 0;
#X connect 159 0 192 1;
#X connect 160 0 170 0;
#X connect 161 0 162 0;
#X connect 162 0 160 1;
#X connect 164 0 163 0;
#X connect 164 0 165 0;
#X connect 166 0 160 0;
#X connect 166 0 195 0;
#X connect 167 0 156 0;
#X connect 168 0 103 2;
#X connect 169 0 99 0;
#X connect 169 0 102 0;
#X connect 170 0 171 0;
#X connect 171 0 164 0;
#X connect 172 0 151 0;
#X connect 172 0 173 0;
#X connect 172 0 174 0;
#X connect 172 0 201 0;
#X connect 173 0 183 0;
#X connect 174 0 64 0;
#X connect 177 0 178 0;
#X connect 178 0 188 0;
#X connect 179 0 175 0;
#X connect 180 0 150 0;
#X connect 180 0 179 0;
#X connect 180 0 176 0;
#X connect 180 0 181 0;
#X connect 181 0 182 0;
#X connect 184 0 65 0;
#X connect 185 0 67 0;
#X connect 188 0 179 0;
#X connect 189 0 181 0;
#X connect 190 0 88 0;
#X connect 191 0 193 0;
#X connect 192 0 103 1;
#X connect 193 0 192 0;
#X connect 194 0 193 1;
#X connect 196 0 197 0;
#X connect 197 0 194 0;
#X connect 198 0 21 0;
#X connect 201 0 200 0;
#X connect 202 0 172 0;
#X connect 203 0 180 0;
