#N canvas 0 22 861 630 10;
#X obj 216 215 / 100;
#X floatatom 216 194 4 0 100 0 - - -;
#X obj 292 216 / 100;
#X floatatom 292 195 4 0 100 0 - - -;
#X obj 105 203 phasor~;
#X floatatom 105 182 5 0 0 0 - - -;
#X obj 194 245 *~;
#X obj 105 237 *~ -1;
#X obj 105 262 +~ 1;
#X obj 270 264 *~;
#X obj 194 297 min~;
#X text 222 175 up;
#X text 295 176 down;
#X obj 386 71 mtof;
#X obj 386 -5 inlet;
#X obj 386 511 *~;
#X obj 435 104 sel 0;
#X obj 465 430 line~;
#X obj 470 460 *~;
#X obj 387 570 outlet~;
#X floatatom 435 52 5 0 0 0 - - -;
#X obj 385 27 unpack f f;
#X obj 461 310 r decay;
#X floatatom 459 359 5 0 0 0 - - -;
#X obj 435 386 list;
#X msg 424 358 0;
#X obj 216 153 r up;
#X obj 293 155 r down;
#X obj 461 336 / 10;
#X obj 464 166 t b b;
#X msg 489 394 1 2;
#X obj 440 235 delay 2;
#X obj 376 102 * 2;
#X obj 224 346 clip~ 0.99 -0.99;
#X obj 386 540 *~ 0.5;
#X connect 0 0 6 1;
#X connect 1 0 0 0;
#X connect 2 0 9 1;
#X connect 3 0 2 0;
#X connect 4 0 6 0;
#X connect 4 0 7 0;
#X connect 5 0 4 0;
#X connect 6 0 10 0;
#X connect 7 0 8 0;
#X connect 8 0 9 0;
#X connect 9 0 10 1;
#X connect 10 0 33 0;
#X connect 13 0 32 0;
#X connect 14 0 21 0;
#X connect 15 0 34 0;
#X connect 16 1 29 0;
#X connect 17 0 18 0;
#X connect 17 0 18 1;
#X connect 18 0 15 1;
#X connect 20 0 16 0;
#X connect 21 0 13 0;
#X connect 21 1 20 0;
#X connect 22 0 28 0;
#X connect 23 0 24 1;
#X connect 24 0 17 0;
#X connect 25 0 24 0;
#X connect 26 0 1 0;
#X connect 27 0 3 0;
#X connect 28 0 23 0;
#X connect 29 0 31 0;
#X connect 29 1 30 0;
#X connect 30 0 17 0;
#X connect 31 0 25 0;
#X connect 32 0 5 0;
#X connect 33 0 15 0;
#X connect 34 0 19 0;
