#N canvas 539 46 680 697 10;
#X obj 206 166 / 100;
#X floatatom 206 144 4 0 5000 0 - - -;
#X obj 282 167 / 100;
#X floatatom 282 147 4 0 1000 0 - - -;
#X obj 95 193 phasor~;
#X floatatom 95 106 5 0 0 0 - - -;
#X obj 184 246 *~;
#X obj 95 227 *~ -1;
#X obj 95 252 +~ 1;
#X obj 260 265 *~;
#X obj 184 287 min~;
#X text 212 126 up;
#X text 285 127 down;
#X obj 376 61 mtof;
#X obj 376 -15 inlet;
#X obj 376 501 *~;
#X obj 444 90 sel 0;
#X obj 455 420 line~;
#X obj 460 450 *~;
#X msg 480 385 1 5;
#X obj 379 650 outlet~;
#X floatatom 425 42 5 0 0 0 - - -;
#X obj 375 17 unpack f f;
#X obj 447 321 r decay;
#X floatatom 449 349 5 0 0 0 - - -;
#X obj 425 376 list;
#X msg 414 348 0;
#X obj 206 104 r up;
#X obj 283 106 r down;
#X obj 376 538 lop~;
#X obj 572 330 r decay;
#X floatatom 574 358 5 0 0 0 - - -;
#X obj 550 385 list;
#X msg 539 357 0;
#X obj 579 430 line;
#X floatatom 509 481 5 0 0 0 - - -;
#X obj 378 560 lop~;
#X msg 605 394 13000 1;
#X obj 379 585 lop~;
#X obj 95 163 +~;
#X obj 160 141 *~;
#X obj 95 132 sig~;
#X obj 202 64 r~ depth;
#X obj 144 45 r~ rate;
#X obj 198 222 line~;
#X obj 199 201 pack;
#X msg 236 204 10;
#X obj 285 230 line~;
#X obj 286 209 pack;
#X msg 323 212 10;
#X obj 184 316 hip~ 5;
#X obj 182 339 clip~ -0.95 0.95;
#X obj 378 617 *~ 0.5;
#X connect 0 0 46 0;
#X connect 0 0 45 0;
#X connect 1 0 0 0;
#X connect 2 0 48 0;
#X connect 2 0 49 0;
#X connect 3 0 2 0;
#X connect 4 0 6 0;
#X connect 4 0 7 0;
#X connect 5 0 41 0;
#X connect 6 0 10 0;
#X connect 7 0 8 0;
#X connect 8 0 9 0;
#X connect 9 0 10 1;
#X connect 10 0 50 0;
#X connect 13 0 5 0;
#X connect 14 0 22 0;
#X connect 15 0 29 0;
#X connect 16 0 26 0;
#X connect 16 0 33 0;
#X connect 16 1 19 0;
#X connect 16 1 37 0;
#X connect 17 0 18 0;
#X connect 17 0 18 1;
#X connect 18 0 15 1;
#X connect 19 0 17 0;
#X connect 21 0 16 0;
#X connect 22 0 13 0;
#X connect 22 1 21 0;
#X connect 23 0 24 0;
#X connect 24 0 25 1;
#X connect 25 0 17 0;
#X connect 26 0 25 0;
#X connect 27 0 1 0;
#X connect 28 0 3 0;
#X connect 29 0 36 0;
#X connect 30 0 31 0;
#X connect 31 0 32 1;
#X connect 32 0 34 0;
#X connect 33 0 32 0;
#X connect 34 0 35 0;
#X connect 35 0 29 1;
#X connect 35 0 36 1;
#X connect 35 0 38 1;
#X connect 36 0 38 0;
#X connect 37 0 34 0;
#X connect 38 0 52 0;
#X connect 39 0 4 0;
#X connect 40 0 39 1;
#X connect 41 0 39 0;
#X connect 42 0 40 1;
#X connect 43 0 40 0;
#X connect 44 0 6 1;
#X connect 45 0 44 0;
#X connect 46 0 45 1;
#X connect 47 0 9 1;
#X connect 48 0 47 0;
#X connect 49 0 48 1;
#X connect 50 0 51 0;
#X connect 51 0 15 0;
#X connect 52 0 20 0;
