#N canvas 0 0 1912 978 10;
#X declare -path o-knob;
#N canvas 658 207 542 477 delay 0;
#X obj 68 103 inlet~;
#X obj 57 296 outlet~;
#X floatatom 142 47 5 0 0 0 - - -;
#X floatatom 9 -52 5 0 0 0 - - -;
#X obj 9 -6 sig~;
#X obj 9 75 *~;
#X obj 119 103 r cutoff;
#X obj 142 19 r feedback;
#N canvas 803 153 450 300 convertPitchCo 0;
#X obj 98 46 inlet;
#X obj 110 208 outlet;
#X obj 110 150 pow;
#X obj 98 102 t b f;
#X msg 98 125 2;
#X obj 110 175 * 10;
#X obj 98 77 * 11;
#X connect 0 0 6 0;
#X connect 2 0 5 0;
#X connect 3 0 4 0;
#X connect 3 1 2 1;
#X connect 4 0 2 0;
#X connect 5 0 1 0;
#X connect 6 0 3 0;
#X restore 119 130 pd convertPitchCo;
#X obj 9 -136 r time;
#X obj 9 -106 * 1000;
#X obj 9 -82 + 60;
#X obj 53 174 lop~;
#X obj 67 268 delwrite~ delbuffer 1100;
#X obj 53 143 +~;
#X obj 9 47 vd~ delbuffer;
#X msg 252 232 \; screenLine1 1: cutoff \$1kHz;
#X obj 119 174 i;
#X obj 119 152 / 10;
#X obj 119 196 / 100;
#X connect 0 0 14 1;
#X connect 2 0 5 1;
#X connect 3 0 4 0;
#X connect 4 0 15 0;
#X connect 5 0 14 0;
#X connect 6 0 8 0;
#X connect 7 0 2 0;
#X connect 8 0 12 1;
#X connect 8 0 18 0;
#X connect 9 0 10 0;
#X connect 10 0 11 0;
#X connect 11 0 3 0;
#X connect 12 0 1 0;
#X connect 12 0 13 0;
#X connect 14 0 12 0;
#X connect 15 0 5 0;
#X connect 17 0 19 0;
#X connect 18 0 17 0;
#X connect 19 0 16 0;
#X restore 112 430 pd delay;
#N canvas 762 50 514 639 triangle 0;
#X obj 32 -57 inlet;
#X obj 32 162 outlet~;
#X obj 32 -16 phasor~;
#X obj 53 12 *~ -1;
#X obj 53 38 +~ 1;
#X obj 32 64 min~;
#X obj 32 93 *~ 14;
#X obj 32 118 -~ 5;
#X connect 0 0 2 0;
#X connect 2 0 5 0;
#X connect 2 0 3 0;
#X connect 3 0 4 0;
#X connect 4 0 5 1;
#X connect 5 0 6 0;
#X connect 6 0 7 0;
#X connect 7 0 1 0;
#X restore 222 103 pd triangle;
#X obj 222 206 *~;
#X obj 237 178 r interval;
#X obj 112 495 hip~ 5;
#X msg 187 301 1 10;
#X obj 187 277 r start;
#X obj 244 277 r stop;
#X obj 111 369 *~;
#X obj 187 342 line~;
#N canvas 826 384 450 300 square 0;
#X obj 38 36 inlet rate;
#X obj 38 218 outlet~;
#X obj 38 64 osc~;
#X obj 38 92 *~ 8192;
#X obj 38 120 clip~ -1 1;
#X obj 38 145 *~ 3.5;
#X obj 38 171 -~ 1.5;
#X connect 0 0 2 0;
#X connect 2 0 3 0;
#X connect 3 0 4 0;
#X connect 4 0 5 0;
#X connect 5 0 6 0;
#X connect 6 0 1 0;
#X restore 303 103 pd square;
#N canvas 761 286 521 523 select~ 0;
#X obj 72 214 inlet~;
#X obj 124 214 inlet~;
#X obj 252 49 inlet;
#X obj 109 374 outlet~;
#X obj 57 303 *~;
#X text 296 47 1 left in \, 0 right in;
#X obj 252 91 select 1;
#X obj 109 302 *~;
#X msg 221 123 1;
#X msg 252 123 0;
#X msg 297 150 0;
#X msg 330 150 1;
#X obj 171 47 loadbang;
#X msg 171 74 1;
#X connect 0 0 4 1;
#X connect 1 0 7 1;
#X connect 2 0 6 0;
#X connect 4 0 3 0;
#X connect 6 0 8 0;
#X connect 6 0 9 0;
#X connect 6 1 10 0;
#X connect 6 1 11 0;
#X connect 7 0 3 0;
#X connect 8 0 4 0;
#X connect 9 0 7 0;
#X connect 10 0 4 0;
#X connect 11 0 7 0;
#X connect 12 0 13 0;
#X connect 13 0 6 0;
#X restore 222 146 pd select~;
#X obj 112 282 *~;
#X msg 157 202 2;
#X obj 157 178 loadbang;
#X obj 265 -26 pow 4;
#X obj 189 239 pow~;
#X obj 265 -50 r rate;
#X obj 628 296 vsl 15 128 0 1 0 0 empty empty empty 0 -9 0 10 -262144
-1 -1 12700 1;
#X obj 628 463 s rate;
#X floatatom 628 431 5 0 0 0 - - -;
#X obj 681 291 vsl 15 128 0 1 0 0 empty empty empty 0 -9 0 10 -262144
-1 -1 10160 1;
#X floatatom 679 431 5 0 0 0 - - -;
#X obj 679 463 s interval;
#N canvas 572 50 704 634 saw~ 0;
#X floatatom 221 183 0 0 0 0 - - -;
#X obj 73 407 -~;
#X obj 221 257 /~;
#X obj 228 234 clip~ 1 999999;
#X obj 96 215 phasor~;
#X obj 108 277 *~;
#X obj 108 301 clip~ -0.5 0.5;
#X floatatom 221 135 0 0 0 0 - - -;
#X obj 221 159 mtof;
#X obj 221 87 loadbang;
#X obj 108 325 *~ 1000;
#X obj 108 349 +~ 501;
#X obj 96 239 -~ 0.5;
#X obj 108 373 tabread4~ \$0-transition;
#X obj 221 206 * 0.4;
#X msg 221 111 136.766;
#N canvas 152 50 754 634 transition-table 0;
#X text 242 138 back the phase up one sample;
#X obj 204 259 cos~;
#X obj 156 254 cos~;
#X msg 100 323 bang;
#X msg 13 195 \; pd dsp 1;
#X msg 237 169 -0.0005;
#X obj 204 233 *~ 3;
#X obj 204 284 *~ 0.33333;
#X obj 156 282 *~ -1;
#X msg 100 150 bang;
#X obj 155 193 phasor~ 22.05;
#X obj 156 315 *~ 0.75;
#X obj 156 342 tabwrite~ \$0-transition;
#X obj 100 128 loadbang;
#X text 292 216 twice the table length;
#X text 280 193 period is 2000 samples \,;
#X text 80 369 This one is used - first and third harmonics only.;
#N canvas 0 50 450 300 (subpatch) 0;
#X array \$0-transition 1002 float 0;
#X coords 0 1 1002 -1 200 140 1;
#X restore 539 32 graph;
#X text 537 179 ----- 1002 samples ----;
#X text 24 27 This network puts a half cycle of a band-limited square
wave into the table "array1.";
#X text 22 64 Logically the half-cycle is in samples 1 through 1000
\; samples 0 and 1001 are provided so that the 4-point interpolation
will work everywhere.;
#X connect 1 0 7 0;
#X connect 2 0 8 0;
#X connect 3 0 12 0;
#X connect 5 0 10 1;
#X connect 6 0 1 0;
#X connect 7 0 11 0;
#X connect 8 0 11 0;
#X connect 9 0 5 0;
#X connect 9 0 4 0;
#X connect 9 0 3 0;
#X connect 10 0 2 0;
#X connect 10 0 6 0;
#X connect 11 0 12 0;
#X connect 13 0 9 0;
#X restore 202 485 pd transition-table;
#X obj 43 32 inlet~;
#X obj 63 527 outlet~;
#X connect 0 0 14 0;
#X connect 1 0 18 0;
#X connect 2 0 5 1;
#X connect 3 0 2 1;
#X connect 4 0 12 0;
#X connect 5 0 6 0;
#X connect 6 0 10 0;
#X connect 7 0 8 0;
#X connect 8 0 0 0;
#X connect 9 0 15 0;
#X connect 10 0 11 0;
#X connect 11 0 13 0;
#X connect 12 0 5 0;
#X connect 12 0 1 1;
#X connect 13 0 1 0;
#X connect 14 0 2 0;
#X connect 15 0 7 0;
#X connect 17 0 4 0;
#X connect 17 0 3 0;
#X restore 112 331 pd saw~;
#N canvas 236 320 450 300 convertPitch 0;
#X obj 98 46 inlet;
#X obj 110 208 outlet;
#X obj 98 77 * 7.05;
#X obj 110 150 pow;
#X obj 98 102 t b f;
#X msg 98 125 2;
#X obj 110 175 * 35;
#X connect 0 0 2 0;
#X connect 2 0 4 0;
#X connect 3 0 6 0;
#X connect 4 0 5 0;
#X connect 4 1 3 1;
#X connect 5 0 3 0;
#X connect 6 0 1 0;
#X restore 112 50 pd convertPitch;
#X obj 758 289 vsl 15 128 0 1 0 0 empty empty empty 0 -9 0 10 -262144
-1 -1 8890 1;
#X floatatom 754 431 5 0 0 0 - - -;
#X obj 754 463 s cutoff;
#X obj 819 293 vsl 15 128 0 1 0 0 empty empty empty 0 -9 0 10 -262144
-1 -1 12700 1;
#X floatatom 817 431 5 0 0 0 - - -;
#X obj 817 463 s time;
#X obj 879 284 vsl 15 128 0 1 0 0 empty empty empty 0 -9 0 10 -262144
-1 -1 12065 1;
#X floatatom 868 431 5 0 0 0 - - -;
#X obj 868 463 s feedback;
#X obj 112 16 r pitch;
#X obj 266 -4 * 40;
#X obj 265 21 + 0.016;
#X obj 111 173 vline~;
#X msg 244 300 0 10;
#X obj 112 144 pack 0 95;
#N canvas 766 206 450 300 convertPitch 0;
#X obj 98 46 inlet;
#X obj 110 208 outlet;
#X obj 98 77 * 7.05;
#X obj 110 150 pow;
#X obj 98 102 t b f;
#X msg 98 125 2;
#X obj 110 175 * 35;
#X connect 0 0 2 0;
#X connect 2 0 4 0;
#X connect 3 0 6 0;
#X connect 4 0 5 0;
#X connect 4 1 3 1;
#X connect 5 0 3 0;
#X connect 6 0 1 0;
#X restore 7 50 pd convertPitch;
#X obj 7 16 r newPitch;
#X obj 342 287 bng 15 250 50 0 empty empty empty 17 7 0 10 -262144
-1 -1;
#X obj 68 562 throw~ outL;
#X obj 159 562 throw~ outR;
#X obj 451 -26 unpack f f;
#X floatatom 451 -4 5 0 0 0 - - -;
#X floatatom 518 -4 5 0 0 0 - - -;
#X obj 451 -48 r notes;
#X obj 374 257 sel 0;
#X obj 423 229 sel 1;
#X obj 1179 56 browsing;
#X obj 1180 86 menupages;
#X obj 753 229 r cutoffknob;
#X obj 821 498 r notes;
#X obj 821 520 unpack f f;
#X obj 888 542 / 100;
#X obj 888 564 s gatenote;
#X obj 423 207 r gatenote;
#X obj 815 175 r timeknob;
#X obj 872 251 r feedbackknob;
#X obj 623 229 r rateknob;
#X obj 688 177 r intervalknob;
#X obj 406 112 r lfoselect;
#X obj 958 292 vsl 15 128 0 1 0 0 empty empty empty 0 -9 0 10 -262144
-1 -1 12700 1;
#X floatatom 956 431 5 0 0 0 - - -;
#X obj 955 463 s audioin;
#X obj 961 224 r audioinknob;
#X obj 456 268 r~ inL;
#X obj 506 268 r~ inL;
#X obj 456 290 +~;
#X obj 456 371 *~;
#X obj 487 345 r audioin;
#X obj 456 313 /~ 10;
#X obj 111 391 *~ 0.2;
#X obj 611 184 r knob1;
#X obj 686 254 r knob2;
#X obj 759 139 r knob3;
#X obj 808 258 r knob4;
#X obj 875 223 r exp;
#X obj 961 193 r vol;
#X obj 959 47 1;
#X obj 791 5 loadbang;
#X obj 718 -37 bng 15 250 50 0 empty empty empty 17 7 0 10 -262144
-1 -1;
#X obj 618 56 1;
#X obj 880 44 0.95;
#X obj 694 56 0.8;
#X obj 823 49 1;
#X obj 754 53 0.7;
#X obj 617 87 s knob1;
#X obj 684 88 s knob2;
#X obj 754 84 s knob3;
#X obj 825 82 s knob4;
#X obj 888 80 s exp;
#X obj 955 74 s vol;
#X floatatom 333 57 5 0 0 0 - - -;
#X obj 405 447 env~;
#X connect 0 0 4 0;
#X connect 1 0 11 0;
#X connect 2 0 16 1;
#X connect 3 0 2 1;
#X connect 4 0 44 0;
#X connect 4 0 45 0;
#X connect 5 0 9 0;
#X connect 6 0 5 0;
#X connect 7 0 39 0;
#X connect 8 0 75 0;
#X connect 9 0 8 1;
#X connect 10 0 11 1;
#X connect 11 0 2 0;
#X connect 12 0 24 0;
#X connect 13 0 16 0;
#X connect 14 0 13 0;
#X connect 15 0 36 0;
#X connect 16 0 12 1;
#X connect 17 0 15 0;
#X connect 18 0 20 0;
#X connect 20 0 19 0;
#X connect 21 0 22 0;
#X connect 22 0 23 0;
#X connect 24 0 8 0;
#X connect 25 0 40 0;
#X connect 26 0 27 0;
#X connect 27 0 28 0;
#X connect 29 0 30 0;
#X connect 30 0 31 0;
#X connect 32 0 33 0;
#X connect 33 0 34 0;
#X connect 35 0 25 0;
#X connect 36 0 37 0;
#X connect 37 0 1 0;
#X connect 37 0 10 0;
#X connect 37 0 96 0;
#X connect 38 0 12 0;
#X connect 39 0 9 0;
#X connect 40 0 38 0;
#X connect 41 0 38 0;
#X connect 42 0 41 0;
#X connect 43 0 5 0;
#X connect 46 0 47 0;
#X connect 46 1 48 0;
#X connect 49 0 46 0;
#X connect 50 0 39 0;
#X connect 51 0 5 0;
#X connect 54 0 26 0;
#X connect 55 0 56 0;
#X connect 56 1 57 0;
#X connect 57 0 58 0;
#X connect 59 0 50 0;
#X connect 59 0 51 0;
#X connect 60 0 29 0;
#X connect 61 0 32 0;
#X connect 62 0 18 0;
#X connect 63 0 21 0;
#X connect 64 0 11 2;
#X connect 65 0 66 0;
#X connect 66 0 67 0;
#X connect 68 0 65 0;
#X connect 69 0 71 0;
#X connect 69 0 97 0;
#X connect 70 0 71 1;
#X connect 71 0 74 0;
#X connect 72 0 0 0;
#X connect 73 0 72 1;
#X connect 74 0 72 0;
#X connect 75 0 0 0;
#X connect 76 0 18 0;
#X connect 77 0 21 0;
#X connect 78 0 26 0;
#X connect 79 0 29 0;
#X connect 80 0 32 0;
#X connect 81 0 65 0;
#X connect 82 0 95 0;
#X connect 83 0 82 0;
#X connect 83 0 85 0;
#X connect 83 0 86 0;
#X connect 83 0 87 0;
#X connect 83 0 88 0;
#X connect 83 0 89 0;
#X connect 84 0 83 0;
#X connect 85 0 90 0;
#X connect 86 0 94 0;
#X connect 87 0 91 0;
#X connect 88 0 93 0;
#X connect 89 0 92 0;
