#N canvas 255 98 547 495 10;
#X obj 130 48 inlet;
#X obj 130 104 mtof;
#X obj 130 69 t f b b, f 36;
#X obj 152 138 phasor~;
#X obj 152 159 *~ 2051;
#X obj 152 180 tabread4~ wavetable;
#X obj 173 400 *~;
#X obj 173 421 outlet~;
#X obj 152 331 vcf~ 2;
#X obj 520 88 r volDur;
#N canvas 0 23 453 473 filterEnv 0;
#X obj 201 53 inlet;
#X obj 230 183 line~;
#X obj 230 204 *~;
#X obj 232 310 +~ 60;
#X obj 198 93 t b b, f 14;
#X msg 285 141 1;
#X msg 193 121 0;
#X floatatom 271 257 5 0 0 0 - - -;
#X obj 230 246 *~;
#X obj 193 142 pack 0 1000;
#X obj 232 331 outlet~;
#X obj 333 67 inlet;
#X obj 232 289 *~ 6000;
#X connect 0 0 4 0;
#X connect 1 0 2 0;
#X connect 1 0 2 1;
#X connect 2 0 8 0;
#X connect 2 0 8 1;
#X connect 3 0 10 0;
#X connect 4 0 6 0;
#X connect 4 1 5 0;
#X connect 5 0 1 0;
#X connect 6 0 9 0;
#X connect 7 0 12 1;
#X connect 8 0 12 0;
#X connect 9 0 1 0;
#X connect 11 0 9 1;
#X connect 12 0 3 0;
#X restore 281 182 pd filterEnv;
#X obj 330 157 r filterDur;
#N canvas 45 254 450 300 amplitudeEnv 0;
#X obj 95 28 inlet;
#X obj 98 144 line~;
#X obj 98 165 *~;
#X obj 98 186 *~;
#X obj 97 52 t b b, f 14;
#X msg 97 94 0;
#X floatatom 150 86 5 0 0 0 - - -;
#X obj 97 115 pack 0 1000;
#X text 132 167 amplitude env;
#X obj 98 207 outlet~;
#X obj 212 58 inlet;
#X msg 180 117 1 1;
#X obj 97 72 del 50;
#X connect 0 0 4 0;
#X connect 1 0 2 0;
#X connect 1 0 2 1;
#X connect 2 0 3 0;
#X connect 2 0 3 1;
#X connect 3 0 9 0;
#X connect 4 0 12 0;
#X connect 4 1 11 0;
#X connect 5 0 7 0;
#X connect 6 0 7 1;
#X connect 7 0 1 0;
#X connect 10 0 6 0;
#X connect 11 0 1 0;
#X connect 12 0 5 0;
#X restore 448 153 pd amplitudeEnv;
#X obj 209 294 r resonance;
#X obj 25 140 phasor~;
#X obj 25 161 *~ 2051;
#X obj 25 182 tabread4~ wavetable;
#X obj 24 121 * 1.0051;
#X text 79 146 detune;
#X connect 0 0 2 0;
#X connect 1 0 3 0;
#X connect 1 0 17 0;
#X connect 2 0 1 0;
#X connect 2 1 10 0;
#X connect 2 2 12 0;
#X connect 3 0 4 0;
#X connect 4 0 5 0;
#X connect 5 0 8 0;
#X connect 6 0 7 0;
#X connect 8 1 6 0;
#X connect 9 0 12 1;
#X connect 10 0 8 1;
#X connect 11 0 10 1;
#X connect 12 0 6 1;
#X connect 13 0 8 2;
#X connect 14 0 15 0;
#X connect 15 0 16 0;
#X connect 16 0 8 0;
#X connect 17 0 14 0;
