#N canvas 4 49 1912 1011 10;
#X floatatom 520 56 5 0 0 0 - - -, f 5;
#X obj 523 39 r nl.mainBang;
#N canvas 49 107 450 250 (subpatch) 0;
#X array nl.notes 64 float 2;
#X coords 0 60 64 0 222 222 1 0 0;
#X restore 48 -48 graph;
#X msg 1480 70 \; nl.notes bounds 0 60 8 0;
#X text 1509 10 init;
#X msg 1479 225 \; nl.bpm 125;
#X obj 1415 25 loadbang;
#N canvas 735 429 450 251 (subpatch) 0;
#X array nl.repeats 64 float 3;
#A 0 1.83333 0.133333 0.133333 0.133333 0.15 0.166667 0.166667 0.2
0.233333 0.233333 0.233333 0.233333 0.333333 0.344444 0.355555 0.366667
0.366667 0.366667 0.366667 0.366667 0.366667 0.366667 0.366667 0.366667
0.366667 0.366667 0.366667 0.366667 0.366667 0.366667 0.366667 0.366667
0.35 0.333333 0.333333 0.333333 0.333333 0.333333 0.333333 0.333333
0.333333 0.333333 0.333333 0.333333 0.333333 0.3 0.277778 0.255556
0.233333 0.2 0.2 0.2 0.166667 0.133333 0.116667 0.1 0.0333335 0.0333335
0.0333335 0.0333335 0.0333335 0.0333335 0.0333335 -0.266666;
#X coords 0 4 64 0 100 60 1 0 0;
#X restore 294 -46 graph;
#X msg 1479 103 \; nl.repeats bounds 0 4 8 0;
#N canvas 0 50 450 250 (subpatch) 0;
#X array nl.mode 64 float 3;
#A 0 1.65 1.65 1.65 1.6 1.58333 1.56667 1.55 1.5375 1.525 1.51875 1.5125
1.50625 1.5 1.48 1.46 1.44 1.42 1.4 1.385 1.37 1.355 1.34 1.325 1.31251
1.30001 1.28751 1.27501 1.26251 1.25001 1.21251 1.17501 1.16876 1.16251
1.15626 1.15001 1.13334 1.11667 1.10001 1.07501 1.05001 1.04168 1.03334
1.02501 1.02501 1.02501 1.02501 1.02501 1.02501 1.02501 1.02501 1.02501
1.02501 0.97501 0.96251 0.950011 0.925011 0.900011 0.875012 0.862512
0.850012 0.850012 0.850012 0.850012 0.775013;
#X coords 0 3 64 0 100 60 1 0 0;
#X restore 397 -43 graph;
#X msg 1479 143 \; nl.mode bounds 0 3 8 0;
#X msg 1479 182 \; nl.decay bounds 0 127 8 0;
#X obj 1148 328 metro 125;
#X obj 1383 394 + 1;
#X obj 1355 393 i;
#X floatatom 1355 436 5 0 0 0 - - -, f 5;
#N canvas 715 607 450 300 nl.Couter 0;
#X obj 195 138 + 1;
#X obj 168 138 i;
#X floatatom 168 160 5 0 0 0 - - -, f 5;
#X msg 199 103 0;
#X obj 168 185 moses;
#X text 222 102 reset;
#X obj 168 52 inlet;
#X obj 201 254 outlet;
#X obj 277 52 inlet;
#X floatatom 300 110 5 0 0 0 - - -, f 5;
#X obj 168 80 t b;
#X obj 194 217 bng 15 250 50 0 empty empty empty 17 7 0 10 -262144
-1 -1;
#X text 213 219 next step;
#X obj 11 250 outlet;
#X obj 163 222 bng 15 250 50 0 empty empty empty 17 7 0 10 -262144
-1 -1;
#X obj 131 255 outlet;
#X connect 0 0 1 1;
#X connect 1 0 0 0;
#X connect 1 0 2 0;
#X connect 2 0 4 0;
#X connect 2 0 13 0;
#X connect 3 0 1 0;
#X connect 4 0 14 0;
#X connect 4 1 11 0;
#X connect 6 0 10 0;
#X connect 8 0 4 1;
#X connect 8 0 9 0;
#X connect 10 0 1 0;
#X connect 11 0 3 0;
#X connect 11 0 7 0;
#X connect 14 0 15 0;
#X restore 1286 367 pd nl.Couter;
#X floatatom 1260 387 5 0 0 0 - - -, f 5;
#X obj 1315 305 tabread nl.repeats;
#X obj 1355 455 s nl.mainCouter;
#X obj 1314 288 r nl.mainCouter;
#X obj 1316 323 + 1;
#X floatatom 1316 345 5 0 0 0 - - -, f 5;
#X obj 523 20 r nl.mainCouter;
#X obj 1057 356 s nl.mainBang;
#X obj 688 -38 tgl 30 0 nl.start empty start 0 -7 0 10 -257985 -159808
-4160 1 1;
#N canvas 49 92 450 300 nl.bpm 0;
#X obj 110 58 inlet;
#X obj 110 86 t b f;
#X obj 110 147 /;
#X msg 110 118 15000;
#X obj 110 173 outlet;
#X obj 210 135 outlet;
#X text 211 157 measure frequency;
#X obj 210 111 / 240;
#X text 79 194 quarter note time;
#X text 98 40 bpm input;
#X connect 0 0 1 0;
#X connect 0 0 7 0;
#X connect 1 0 3 0;
#X connect 1 1 2 1;
#X connect 2 0 4 0;
#X connect 3 0 2 0;
#X connect 7 0 5 0;
#X restore 1231 301 pd nl.bpm;
#X obj 1230 344 s nl.timeMs;
#X floatatom 1230 327 5 0 0 0 - - -, f 5;
#X floatatom 1231 280 5 0 0 2 bpm nl.bpm -, f 5;
#X obj 170 551 r nl.mainCouter;
#X obj 172 572 tabread nl.mode;
#X floatatom 172 593 5 0 0 0 - - -, f 5;
#X obj 172 608 moses 1;
#X obj 293 554 r nl.mainCouter;
#X floatatom 291 641 5 0 0 0 - - -, f 5;
#X obj 296 611 i, f 5;
#X obj 212 654 i;
#X obj 220 669 delay 10;
#X obj 168 807 noteout;
#X obj 88 693 makenote 100 75;
#X obj 212 694 makenote 100 250;
#X obj 81 647 delay 10;
#X obj 80 667 i;
#X obj 1385 357 s nl.repetNo;
#X obj 346 657 r nl.repetNo;
#X obj 346 677 * 120;
#X floatatom 346 699 5 0 0 0 - - -, f 5;
#X obj 1285 404 s nl.beat;
#X obj 34 643 tgl 15 0 empty empty empty 17 7 0 10 -262144 -1 -1 0
1;
#N canvas 49 82 450 300 nl.openGate 0;
#X obj 118 141 expr 1;
#X obj 161 140 expr 0;
#X obj 118 174 outlet;
#X obj 118 100 inlet;
#X obj 161 98 inlet;
#X connect 0 0 2 0;
#X connect 1 0 2 0;
#X connect 3 0 0 0;
#X connect 4 0 1 0;
#X restore 35 625 pd nl.openGate;
#X obj -3 661 spigot;
#X obj -2 602 r nl.mainBang;
#X obj 1 697 r nl.timeMs;
#X floatatom 1 741 5 0 0 0 - - -, f 5;
#X obj 1 719 * 0.6;
#X obj 216 631 moses 2;
#X obj 1143 306 r nl.start;
#X obj 734 -41 hsl 128 15 50 200 0 0 empty empty empty -2 -8 0 10 -262144
-1 -1 2455 1;
#X obj 731 -17 i;
#X floatatom 866 -36 4 0 0 1 bpm - nl.bpm, f 4;
#X obj 736 6 r nl.bpm;
#X obj 1474 134 bng 7 250 50 0 empty empty empty 17 7 0 10 -262144
-1 -1;
#X msg 1217 178 \; nl.bpm 125;
#X msg 1217 18 \; nl.notes bounds 0 60 64 0;
#X msg 1217 57 \; nl.repeats bounds 0 4 64 0;
#X msg 1217 96 \; nl.mode bounds 0 3 64 0;
#X msg 1217 134 \; nl.decay bounds 0 127 64 0;
#X obj 1158 26 bng 7 250 50 0 empty empty empty 17 7 0 10 -262144 -1
-1;
#X obj 1435 416 mod 64;
#X obj 1478 384 r step_count;
#X msg 521 -12 64;
#X obj 520 1 s step_count;
#N canvas 49 107 450 250 (subpatch) 0;
#X array nl.notes2 64 float 2;
#X coords 0 60 64 0 222 222 1 0 0;
#X restore 48 191 graph;
#X obj 417 635 s note_out;
#X obj 522 94 r note_out;
#X floatatom 524 111 5 0 0 0 - - -, f 5;
#X obj 1022 366;
#X obj 412 538 bng 22 250 50 0 empty empty empty 17 7 0 10 -262144
-1 -1;
#X msg 415 579 set \$1;
#X obj 416 561 symbol nl.notes;
#X obj 295 593 tabread;
#X obj 583 280 bng 22 250 50 0 empty empty empty 17 7 0 10 -262144
-1 -1;
#X obj 586 331 s prog_change;
#X msg 578 463 set \$1;
#X obj 583 410 r prog_change;
#X obj 581 436 symbol \$1;
#X obj 585 356 r prog_change;
#X symbolatom 585 379 10 0 0 0 - - -, f 10;
#X msg 583 309 symbol nl.notes2;
#X connect 1 0 0 0;
#X connect 6 0 3 0;
#X connect 6 0 5 0;
#X connect 6 0 8 0;
#X connect 6 0 10 0;
#X connect 6 0 11 0;
#X connect 12 0 16 0;
#X connect 12 0 24 0;
#X connect 13 0 14 1;
#X connect 14 0 13 0;
#X connect 14 0 69 0;
#X connect 15 0 19 0;
#X connect 16 0 17 0;
#X connect 16 1 48 0;
#X connect 16 2 14 0;
#X connect 18 0 21 0;
#X connect 20 0 18 0;
#X connect 21 0 22 0;
#X connect 22 0 16 1;
#X connect 22 0 44 0;
#X connect 23 0 0 0;
#X connect 26 0 28 0;
#X connect 26 0 12 1;
#X connect 28 0 27 0;
#X connect 29 0 26 0;
#X connect 30 0 31 0;
#X connect 31 0 32 0;
#X connect 32 0 33 0;
#X connect 33 0 50 0;
#X connect 33 1 50 1;
#X connect 33 1 56 0;
#X connect 34 0 81 0;
#X connect 35 0 37 1;
#X connect 35 0 43 1;
#X connect 36 0 35 0;
#X connect 36 0 74 0;
#X connect 37 0 41 0;
#X connect 38 0 37 0;
#X connect 40 0 39 0;
#X connect 40 1 39 1;
#X connect 41 0 39 0;
#X connect 41 1 39 1;
#X connect 42 0 43 0;
#X connect 43 0 40 0;
#X connect 45 0 46 0;
#X connect 46 0 41 2;
#X connect 46 0 47 0;
#X connect 49 0 51 1;
#X connect 50 0 49 0;
#X connect 51 0 42 0;
#X connect 52 0 51 0;
#X connect 53 0 55 0;
#X connect 54 0 40 2;
#X connect 55 0 54 0;
#X connect 56 0 38 0;
#X connect 57 0 12 0;
#X connect 58 0 59 0;
#X connect 59 0 60 0;
#X connect 61 0 58 0;
#X connect 62 0 5 0;
#X connect 62 0 3 0;
#X connect 62 0 8 0;
#X connect 62 0 10 0;
#X connect 62 0 11 0;
#X connect 68 0 64 0;
#X connect 68 0 65 0;
#X connect 68 0 66 0;
#X connect 68 0 67 0;
#X connect 68 0 63 0;
#X connect 69 0 15 0;
#X connect 70 0 69 1;
#X connect 71 0 72 0;
#X connect 75 0 76 0;
#X connect 78 0 80 0;
#X connect 79 0 81 0;
#X connect 80 0 79 0;
#X connect 81 0 36 0;
#X connect 82 0 89 0;
#X connect 84 0 81 0;
#X connect 85 0 86 0;
#X connect 86 0 84 0;
#X connect 87 0 88 0;
#X connect 89 0 83 0;
#X coords 0 -1 1 1 499 333 2 0 -45;
