#N canvas 0 23 1577 900 12;
#X obj 126 280 t f f;
#X floatatom 126 255 5 0 0 0 - - -;
#X obj 138 385 adsr 1 5 100 50 1000;
#X text 208 142 a;
#X obj 138 411 *~;
#X obj 361 415 sig~;
#X obj 363 383 > 0;
#X obj 77 37 inlet;
#X obj 77 62 route env;
#X obj 192 98 unpack f f f f;
#X obj 207 164 vsl 15 128 1 4000 0 0 empty empty empty 0 -9 0 10 -262144
-1 -1 13 1;
#X obj 227 164 vsl 15 128 1 4000 0 0 empty empty empty 0 -9 0 10 -262144
-1 -1 314 1;
#X text 228 142 d;
#X obj 247 164 vsl 15 128 0 100 0 0 empty empty empty 0 -9 0 10 -262144
-1 -1 6350 1;
#X text 248 142 s;
#X obj 267 164 vsl 15 128 1 5000 0 0 empty empty empty 0 -9 0 10 -262144
-1 -1 2538 1;
#X text 268 142 r;
#X obj 361 439 outlet~;
#X obj 138 437 outlet~;
#X text 166 414 steeper;
#X obj 225 32 loadbang;
#X msg 225 56 5 100 50 1000;
#X connect 0 0 2 0;
#X connect 0 0 6 0;
#X connect 0 1 2 1;
#X connect 1 0 0 0;
#X connect 2 0 4 0;
#X connect 2 0 4 1;
#X connect 4 0 18 0;
#X connect 5 0 17 0;
#X connect 6 0 5 0;
#X connect 7 0 8 0;
#X connect 8 0 9 0;
#X connect 8 1 1 0;
#X connect 9 0 10 0;
#X connect 9 1 11 0;
#X connect 9 2 13 0;
#X connect 9 3 15 0;
#X connect 10 0 2 2;
#X connect 11 0 2 3;
#X connect 13 0 2 4;
#X connect 15 0 2 5;
#X connect 20 0 21 0;
#X connect 21 0 9 0;
#X coords 0 -1 1 1 90 190 1 200 120;
