#N canvas 0 23 963 755 12;
#N canvas 0 23 994 608 LFO 1;
#X obj 403 178 phasor~;
#X obj 403 245 abs~;
#X obj 635 254 abs~;
#X obj 715 144 noise~;
#X obj 635 230 samphold~;
#X floatatom 397 131 5 0 0 0 - - -;
#X obj 403 221 -~ 0.5;
#X obj 490 211 expr~ $v1 > 0.5;
#X obj 403 272 *~ 2;
#N canvas 0 23 672 379 switcher_4 0;
#X obj 90 137 sel 0 1 2 3;
#X obj 86 262 *~;
#X msg 91 195 0;
#X msg 123 195 1;
#X obj 79 104 inlet~;
#X obj 89 316 outlet~;
#X obj 246 142 sel 0 1 2 3;
#X obj 242 267 *~;
#X msg 247 200 0;
#X msg 279 200 1;
#X obj 235 109 inlet~;
#X obj 32 37 inlet;
#X obj 367 142 sel 0 1 2 3;
#X obj 363 267 *~;
#X msg 368 200 0;
#X msg 400 200 1;
#X obj 356 109 inlet~;
#X obj 531 148 sel 0 1 2 3;
#X obj 527 273 *~;
#X msg 532 206 0;
#X obj 520 115 inlet~;
#X msg 571 207 1;
#X connect 0 0 3 0;
#X connect 0 1 2 0;
#X connect 0 2 2 0;
#X connect 0 3 2 0;
#X connect 1 0 5 0;
#X connect 2 0 1 1;
#X connect 3 0 1 1;
#X connect 4 0 1 0;
#X connect 6 0 8 0;
#X connect 6 1 9 0;
#X connect 6 2 8 0;
#X connect 6 3 8 0;
#X connect 7 0 5 0;
#X connect 8 0 7 1;
#X connect 9 0 7 1;
#X connect 10 0 7 0;
#X connect 11 0 0 0;
#X connect 11 0 6 0;
#X connect 11 0 12 0;
#X connect 11 0 17 0;
#X connect 12 0 14 0;
#X connect 12 1 14 0;
#X connect 12 2 15 0;
#X connect 12 3 14 0;
#X connect 13 0 5 0;
#X connect 14 0 13 1;
#X connect 15 0 13 1;
#X connect 16 0 13 0;
#X connect 17 0 19 0;
#X connect 17 1 19 0;
#X connect 17 2 19 0;
#X connect 17 3 21 0;
#X connect 18 0 5 0;
#X connect 19 0 18 1;
#X connect 20 0 18 0;
#X connect 21 0 18 1;
#X restore 289 321 pd switcher_4;
#X f 66;
#X obj 640 176 *~ 0.5;
#X obj 640 200 +~ 0.5;
#X text 111 324 all oscs in range 0-1;
#X obj 289 345 outlet~;
#X obj 223 145 inlet;
#X obj 399 90 inlet;
#X connect 0 0 4 1;
#X connect 0 0 6 0;
#X connect 0 0 7 0;
#X connect 1 0 8 0;
#X connect 2 0 9 3;
#X connect 3 0 10 0;
#X connect 3 0 9 4;
#X connect 4 0 2 0;
#X connect 5 0 0 0;
#X connect 6 0 1 0;
#X connect 7 0 9 2;
#X connect 8 0 9 1;
#X connect 9 0 13 0;
#X connect 10 0 11 0;
#X connect 11 0 4 0;
#X connect 14 0 9 0;
#X connect 15 0 5 0;
#X restore 721 579 pd LFO;
#X floatatom 762 545 5 0.001 30 0 - - -;
#X obj 110 161 vradio 15 1 0 4 empty empty empty 0 -8 0 10 -262144
-1 -1 0;
#X text 127 159 Triangle;
#X text 128 176 Square;
#X text 128 192 Random;
#X text 127 205 Noise;
#X obj 157 336 phasor~;
#X obj 157 403 abs~;
#X obj 389 412 abs~;
#X obj 469 302 noise~;
#X obj 389 388 samphold~;
#X floatatom 151 289 5 0 0 0 - - -;
#X obj 157 379 -~ 0.5;
#X obj 244 369 expr~ $v1 > 0.5;
#X obj 157 430 *~ 2;
#N canvas 0 23 672 379 switcher_4 0;
#X obj 90 137 sel 0 1 2 3;
#X obj 86 262 *~;
#X msg 91 195 0;
#X msg 123 195 1;
#X obj 79 104 inlet~;
#X obj 89 316 outlet~;
#X obj 246 142 sel 0 1 2 3;
#X obj 242 267 *~;
#X msg 247 200 0;
#X msg 279 200 1;
#X obj 235 109 inlet~;
#X obj 32 37 inlet;
#X obj 367 142 sel 0 1 2 3;
#X obj 363 267 *~;
#X msg 368 200 0;
#X msg 400 200 1;
#X obj 356 109 inlet~;
#X obj 531 148 sel 0 1 2 3;
#X obj 527 273 *~;
#X msg 532 206 0;
#X obj 520 115 inlet~;
#X msg 571 207 1;
#X connect 0 0 3 0;
#X connect 0 1 2 0;
#X connect 0 2 2 0;
#X connect 0 3 2 0;
#X connect 1 0 5 0;
#X connect 2 0 1 1;
#X connect 3 0 1 1;
#X connect 4 0 1 0;
#X connect 6 0 8 0;
#X connect 6 1 9 0;
#X connect 6 2 8 0;
#X connect 6 3 8 0;
#X connect 7 0 5 0;
#X connect 8 0 7 1;
#X connect 9 0 7 1;
#X connect 10 0 7 0;
#X connect 11 0 0 0;
#X connect 11 0 6 0;
#X connect 11 0 12 0;
#X connect 11 0 17 0;
#X connect 12 0 14 0;
#X connect 12 1 14 0;
#X connect 12 2 15 0;
#X connect 12 3 14 0;
#X connect 13 0 5 0;
#X connect 14 0 13 1;
#X connect 15 0 13 1;
#X connect 16 0 13 0;
#X connect 17 0 19 0;
#X connect 17 1 19 0;
#X connect 17 2 19 0;
#X connect 17 3 21 0;
#X connect 18 0 5 0;
#X connect 19 0 18 1;
#X connect 20 0 18 0;
#X connect 21 0 18 1;
#X restore 43 479 pd switcher_4;
#X f 66;
#X obj 394 334 *~ 0.5;
#X obj 394 358 +~ 0.5;
#X text 518 480 all oscs in range 0-1;
#X obj 43 503 outlet~;
#X obj 17 14 inlet;
#X obj 62 131 vsl 15 128 0.01 30 1 0 empty empty empty 0 -9 0 10 -262144
-1 -1 0 1;
#X text 108 141 Mode;
#X text 60 107 Rate;
#X obj 17 38 route rate mdoe;
#X connect 1 0 0 1;
#X connect 2 0 16 0;
#X connect 7 0 11 1;
#X connect 7 0 13 0;
#X connect 7 0 14 0;
#X connect 8 0 15 0;
#X connect 9 0 16 3;
#X connect 10 0 17 0;
#X connect 10 0 16 4;
#X connect 11 0 9 0;
#X connect 12 0 7 0;
#X connect 13 0 8 0;
#X connect 14 0 16 2;
#X connect 15 0 16 1;
#X connect 16 0 20 0;
#X connect 17 0 18 0;
#X connect 18 0 11 0;
#X connect 21 0 25 0;
#X connect 22 0 12 0;
#X connect 25 0 22 0;
#X connect 25 1 2 0;
#X coords 0 -1 1 1 150 190 1 50 80;
