#N canvas 0 23 1014 744 12;
#N canvas 0 23 450 300 vol 0;
#X obj 37 37 inlet~;
#X obj 80 139 *~;
#X obj 98 78 pack f 100;
#X obj 98 102 line~;
#X obj 97 42 inlet;
#X obj 80 163 outlet~;
#X connect 0 0 1 0;
#X connect 1 0 5 0;
#X connect 2 0 3 0;
#X connect 3 0 1 1;
#X connect 4 0 2 0;
#X restore 56 411 pd vol;
#N canvas 0 23 450 300 vol 0;
#X obj 37 37 inlet~;
#X obj 80 139 *~;
#X obj 98 78 pack f 100;
#X obj 98 102 line~;
#X obj 97 42 inlet;
#X obj 80 163 outlet~;
#X connect 0 0 1 0;
#X connect 1 0 5 0;
#X connect 2 0 3 0;
#X connect 3 0 1 1;
#X connect 4 0 2 0;
#X restore 133 411 pd vol;
#X obj 93 349 * 0.01;
#X obj 237 349 * 0.01;
#N canvas 0 23 450 300 vol 0;
#X obj 37 37 inlet~;
#X obj 80 139 *~;
#X obj 98 78 pack f 100;
#X obj 98 102 line~;
#X obj 97 42 inlet;
#X obj 80 163 outlet~;
#X connect 0 0 1 0;
#X connect 1 0 5 0;
#X connect 2 0 3 0;
#X connect 3 0 1 1;
#X connect 4 0 2 0;
#X restore 358 406 pd vol;
#X obj 562 355 noise~;
#N canvas 0 23 450 300 vol 0;
#X obj 37 37 inlet~;
#X obj 80 139 *~;
#X obj 98 78 pack f 100;
#X obj 98 102 line~;
#X obj 97 42 inlet;
#X obj 80 163 outlet~;
#X connect 0 0 1 0;
#X connect 1 0 5 0;
#X connect 2 0 3 0;
#X connect 3 0 1 1;
#X connect 4 0 2 0;
#X restore 566 411 pd vol;
#X obj 609 371 * 0.005;
#X obj 55 474 *~ 1;
#X obj 401 366 * 0.02;
#X obj 110 151 vsl 15 128 0 100 0 0 empty empty empty 0 -9 0 10 -262144
-1 -1 12700 1;
#X obj 55 308 inlet~;
#X obj 55 498 outlet~;
#X obj 128 374 inlet~;
#X obj 332 375 inlet~;
#X obj 139 151 vsl 15 128 0 100 0 0 empty empty empty 0 -9 0 10 -262144
-1 -1 0 1;
#X obj 169 151 vsl 15 128 0 100 0 0 empty empty empty 0 -9 0 10 -262144
-1 -1 0 1;
#X obj 212 151 vsl 15 128 0 100 0 0 empty empty empty 0 -9 0 10 -262144
-1 -1 0 1;
#X obj 18 19 inlet;
#X obj 110 55 route square saw sub tri;
#X text 167 125 sub;
#X text 202 125 noise;
#X text 105 125 Squ;
#X text 137 125 Saw;
#X obj 348 64 loadbang;
#X msg 348 88 100;
#X connect 0 0 8 0;
#X connect 1 0 8 0;
#X connect 2 0 0 1;
#X connect 3 0 1 1;
#X connect 4 0 8 0;
#X connect 5 0 6 0;
#X connect 6 0 8 0;
#X connect 7 0 6 1;
#X connect 8 0 12 0;
#X connect 9 0 4 1;
#X connect 10 0 2 0;
#X connect 11 0 0 0;
#X connect 13 0 1 0;
#X connect 14 0 4 0;
#X connect 15 0 3 0;
#X connect 16 0 9 0;
#X connect 17 0 7 0;
#X connect 18 0 19 0;
#X connect 19 0 10 0;
#X connect 19 1 15 0;
#X connect 19 2 16 0;
#X connect 19 3 17 0;
#X connect 24 0 25 0;
#X connect 25 0 10 0;
#X coords 0 -1 1 1 150 190 1 100 100;
