#N canvas 0 23 841 695 12;
#X obj 61 402 *~;
#N canvas 716 336 518 404 mix 0;
#X obj 34 46 inlet~;
#X obj 38 127 *~;
#X obj 277 89 expr (1 - $f1);
#X obj 142 127 *~ 1;
#X obj 278 51 inlet;
#X obj 30 171 outlet~;
#X obj 143 57 lop~ 100;
#X obj 143 27 inlet~;
#X text 208 59 smooth;
#X connect 0 0 1 0;
#X connect 1 0 5 0;
#X connect 2 0 3 1;
#X connect 3 0 5 0;
#X connect 4 0 2 0;
#X connect 4 0 1 1;
#X connect 6 0 3 0;
#X connect 7 0 6 0;
#X restore 173 423 pd mix;
#X f 21;
#X obj 317 399 tgl 15 0 empty empty empty 17 7 0 10 -262144 -1 -1 0
1;
#X obj 112 185 vradio 15 1 0 2 empty empty empty 0 -8 0 10 -262144
-1 -1 1;
#X text 129 183 Gate;
#X text 130 201 Env;
#X obj 68 359 inlet~;
#X obj 62 483 outlet~;
#X obj 15 18 inlet;
#X obj 15 42 route mode;
#X text 109 164 Mode;
#X obj 172 394 inlet~;
#X obj 228 395 inlet~;
#X text 173 374 env;
#X text 237 373 gate;
#X connect 0 0 7 0;
#X connect 1 0 0 1;
#X connect 2 0 1 2;
#X connect 3 0 2 0;
#X connect 6 0 0 0;
#X connect 8 0 9 0;
#X connect 9 0 3 0;
#X connect 11 0 1 0;
#X connect 12 0 1 1;
#X coords 0 -1 1 1 70 190 1 100 100;
