#N canvas 0 23 962 902 12;
#X obj 25 710 inlet~;
#X obj 23 865 outlet~;
#X obj 121 467 pack f 100;
#X obj 121 491 line~;
#X obj 348 777 pack f 100;
#X floatatom 348 750 5 0 8 0 - - -;
#X obj 348 806 line;
#X obj 137 644 +~;
#X obj 521 541 *~;
#X obj 450 471 pack f 100;
#X obj 450 495 line~;
#X obj 121 544 +~, f 15;
#X obj 152 617 *~;
#X obj 216 514 *~;
#X obj 276 456 pack f 100;
#X obj 276 480 line~;
#X text 321 479 kbd, f 5;
#X obj 23 834 bob~ 100 0.5, f 47;
#X obj 167 781 clip~ 10 18000;
#X obj 539 510 *~;
#X msg 57 802 oversample \$1;
#X msg 57 776 2;
#X obj 57 744 loadbang;
#X obj 451 439 - 10;
#X obj 726 461 pack f 100;
#X obj 726 485 line~;
#X obj 166 746 +~;
#X text 777 430 lfo;
#X obj 725 537 *~;
#X obj 183 718 *~;
#X obj 730 419 - 0.05;
#X obj 825 501 *~ 2;
#X obj 825 525 -~ 1;
#X obj 213 475 inlet~;
#X obj 539 478 inlet~;
#X text 594 477 env;
#X obj 825 465 inlet~;
#X text 874 469 LFO;
#X obj 119 152 vsl 15 128 5 10000 1 0 empty empty empty 0 -9 0 10 -262144
-1 -1 8480 1;
#X obj 153 152 vsl 15 128 0.5 5 1 0 empty empty empty 0 -9 0 10 -262144
-1 -1 0 1;
#X obj 195 152 vsl 15 128 10 4000 1 0 empty empty empty 0 -9 0 10 -262144
-1 -1 0 1;
#X obj 257 152 vsl 15 128 0.1 48 1 0 empty empty empty 0 -9 0 10 -262144
-1 -1 0 1;
#X obj 274 434 - 0.1;
#X text 110 126 Freq;
#X text 147 126 Res;
#X obj 10 31 inlet;
#X obj 10 55 route freq res env mod kbd;
#X obj 227 152 vsl 15 128 0.05 10 1 0 empty empty empty 0 -9 0 10 -262144
-1 -1 0 1;
#X text 190 126 Env;
#X text 222 126 Mod;
#X text 253 126 Kbd;
#X text 214 438 note freq;
#X text 388 749 res;
#X obj 330 51 loadbang;
#X msg 330 75 800;
#X connect 0 0 17 0;
#X connect 2 0 3 0;
#X connect 3 0 11 0;
#X connect 4 0 6 0;
#X connect 5 0 4 0;
#X connect 6 0 17 2;
#X connect 7 0 26 0;
#X connect 7 0 29 0;
#X connect 8 0 12 1;
#X connect 9 0 10 0;
#X connect 10 0 8 0;
#X connect 11 0 7 0;
#X connect 11 0 12 0;
#X connect 12 0 7 1;
#X connect 13 0 11 1;
#X connect 14 0 15 0;
#X connect 15 0 13 1;
#X connect 17 0 1 0;
#X connect 18 0 17 1;
#X connect 19 0 8 1;
#X connect 20 0 17 0;
#X connect 21 0 20 0;
#X connect 22 0 21 0;
#X connect 23 0 9 0;
#X connect 24 0 25 0;
#X connect 25 0 28 0;
#X connect 26 0 18 0;
#X connect 28 0 29 1;
#X connect 29 0 26 1;
#X connect 30 0 24 0;
#X connect 31 0 32 0;
#X connect 32 0 28 1;
#X connect 33 0 13 0;
#X connect 34 0 19 0;
#X connect 34 0 19 1;
#X connect 36 0 31 0;
#X connect 38 0 2 0;
#X connect 39 0 5 0;
#X connect 40 0 23 0;
#X connect 41 0 42 0;
#X connect 42 0 14 0;
#X connect 45 0 46 0;
#X connect 46 0 38 0;
#X connect 46 1 39 0;
#X connect 46 2 40 0;
#X connect 46 3 47 0;
#X connect 46 4 41 0;
#X connect 47 0 30 0;
#X connect 53 0 54 0;
#X connect 54 0 38 0;
#X coords 0 -1 1 1 190 190 1 100 100;
