#N canvas 59 67 608 566 10;
#X obj 193 211 delay;
#X floatatom 132 156 5 0 250 0 attack - -;
#X floatatom 218 156 5 0 250 0 decay - -;
#X floatatom 313 156 5 0 100 0 sustain - -;
#X floatatom 410 156 5 0 250 0 release - -;
#X obj 297 262 pack 0 0;
#X obj 465 191 pack 0 0;
#X obj 75 177 t;
#X obj 243 405 line~;
#X obj 75 82 inlet;
#X obj 132 82 inlet;
#X obj 218 82 inlet;
#X obj 313 82 inlet;
#X obj 410 81 inlet;
#X obj 244 460 outlet~;
#X obj 465 81 inlet;
#X text 15 85 Note on;
#X text 511 83 Note off;
#X obj 75 110 b;
#X obj 465 111 b;
#X obj 217 351 pack 1 0;
#X text 14 484 Note on and off are bangs (midi note works fine for
noteon) \, ADR in ms \, S 0-1.;
#X text 967 225 Note off;
#X obj 297 234 f;
#X obj 91 272 spigot;
#X obj 128 250 r reattack_on;
#X obj 75 203 t;
#X obj 91 350 pack 0 5;
#X obj 176 323 delay 5;
#X obj 220 301 * 5;
#X text 17 8 --ADSR Envelope--;
#X text 14 21 This subpatch generates envelopes to control the amplitude
and filter cutoff. The reattack_on control determines whether attacks
will send the value to 0 (in 5 ms) before rising to 1 or whether they
will rise to 1 frm the current value.;
#X connect 0 0 23 0;
#X connect 1 0 0 1;
#X connect 1 0 20 1;
#X connect 2 0 5 1;
#X connect 3 0 23 1;
#X connect 4 0 6 1;
#X connect 5 0 8 0;
#X connect 6 0 8 0;
#X connect 7 0 26 0;
#X connect 7 1 0 0;
#X connect 8 0 14 0;
#X connect 9 0 18 0;
#X connect 10 0 1 0;
#X connect 11 0 2 0;
#X connect 12 0 3 0;
#X connect 13 0 4 0;
#X connect 15 0 19 0;
#X connect 18 0 7 0;
#X connect 19 0 6 0;
#X connect 20 0 8 0;
#X connect 23 0 5 0;
#X connect 24 0 27 0;
#X connect 25 0 24 1;
#X connect 25 0 29 0;
#X connect 26 0 28 0;
#X connect 26 1 24 0;
#X connect 27 0 8 0;
#X connect 28 0 20 0;
#X connect 29 0 28 1;
