#N canvas 0 22 193 147 10;
#X obj 54 56 +;
#X obj 66 31 t b f;
#X obj 54 80 outlet;
#X obj 21 10 inlet;
#X obj 66 10 inlet;
#X connect 0 0 2 0;
#X connect 1 0 0 0;
#X connect 1 1 0 1;
#X connect 3 0 0 0;
#X connect 4 0 1 0;
