#N canvas 673 282 158 154 10;
#X obj 66 32 t b f;
#X obj 54 81 outlet;
#X obj 21 11 inlet;
#X obj 66 11 inlet;
#X obj 54 57 *;
#X connect 0 0 4 0;
#X connect 0 1 4 1;
#X connect 2 0 4 0;
#X connect 3 0 0 0;
#X connect 4 0 1 0;
