#N canvas 211 217 647 368 10;
#X obj 23 261 tabwrite \$1;
#X obj 40 30 inlet;
#X obj 361 30 inlet;
#X text 45 6 Takes an argument of where to write and read the data
;
#X text 101 30 <-- Write;
#X text 280 30 Read -->;
#N canvas 0 22 980 670 receives 0;
#X obj 54 89 r pitch_wheel;
#X obj 53 132 r glide_on;
#X obj 52 173 r glide_time;
#X obj 52 217 r release_send;
#X obj 50 262 r mod_mix;
#X obj 51 307 r tune;
#X obj 49 352 r auto_on;
#X obj 50 400 r auto_length;
#X obj 38 108 f;
#X obj 37 153 f;
#X obj 36 195 f;
#X obj 36 240 f;
#X obj 34 285 f;
#X obj 35 331 f;
#X obj 33 377 f;
#X obj 34 424 f;
#X obj 239 154 f;
#X obj 239 193 f;
#X obj 240 232 f;
#X obj 240 272 f;
#X obj 240 313 f;
#X obj 241 354 f;
#X obj 239 400 f;
#X obj 239 441 f;
#X obj 255 135 r osc2_freq;
#X obj 256 175 r osc3_freq;
#X obj 256 213 r osc1_range;
#X obj 256 253 r osc2_range;
#X obj 256 294 r osc3_range;
#X obj 257 335 r osc1_shape;
#X obj 255 380 r osc2_shape;
#X obj 255 422 r osc3_shape;
#X obj 241 521 f;
#X obj 257 502 r osc_mod_on;
#X obj 240 482 f;
#X obj 256 463 r osc3_kb_on;
#X obj 485 161 f;
#X obj 485 200 f;
#X obj 486 239 f;
#X obj 486 279 f;
#X obj 486 320 f;
#X obj 487 361 f;
#X obj 485 407 f;
#X obj 485 448 f;
#X obj 487 528 f;
#X obj 486 489 f;
#X obj 501 142 r osc1_vol;
#X obj 502 182 r osc1_on;
#X obj 502 220 r osc2_vol;
#X obj 502 260 r osc2_on;
#X obj 502 301 r osc3_vol;
#X obj 503 342 r osc3_on;
#X obj 501 387 r ext_vol;
#X obj 501 429 r ext_on;
#X obj 502 470 r noise_vol;
#X obj 503 509 r noise_on;
#X obj 488 568 f;
#X obj 504 549 r noise_col;
#X obj 680 132 f;
#X obj 680 171 f;
#X obj 681 210 f;
#X obj 681 250 f;
#X obj 681 291 f;
#X obj 682 332 f;
#X obj 680 378 f;
#X obj 680 419 f;
#X obj 682 499 f;
#X obj 681 460 f;
#X obj 683 539 f;
#X obj 697 112 r amp_attack;
#X obj 698 152 r amp_decay;
#X obj 698 190 r amp_sustain;
#X obj 694 225 r filter_attack;
#X obj 698 271 r filter_decay;
#X obj 699 312 r filter_sustain;
#X obj 697 357 r filter_cutoff;
#X obj 697 399 r filter_emphasis;
#X obj 696 440 r filter_amt;
#X obj 699 479 r filter_mod_on;
#X obj 700 519 r filter_kb_1;
#X obj 684 578 f;
#X obj 701 557 r filter_kb_2;
#X obj 825 106 f;
#X obj 841 87 r main_vol;
#X obj 387 3 inlet;
#X obj 403 611 outlet;
#X obj 845 142 r mod_wheel;
#X obj 829 161 f;
#X obj 220 36 sel 1 2 3 4 5 6 7 8 9 10 11 12 13 14 15 16 17 18 19 20
21 22 23 24 25 26 27 28 29 30 31 32 33 34 35 36 37 38 39 40 41 42 43
44 45;
#X obj 852 258 r osc3_rev_on;
#X obj 836 278 f;
#X obj 853 203 r reattack_on;
#X obj 837 224 f;
#X connect 0 0 8 1;
#X connect 1 0 9 1;
#X connect 2 0 10 1;
#X connect 3 0 11 1;
#X connect 4 0 12 1;
#X connect 5 0 13 1;
#X connect 6 0 14 1;
#X connect 7 0 15 1;
#X connect 8 0 85 0;
#X connect 9 0 85 0;
#X connect 10 0 85 0;
#X connect 11 0 85 0;
#X connect 12 0 85 0;
#X connect 13 0 85 0;
#X connect 14 0 85 0;
#X connect 15 0 85 0;
#X connect 16 0 85 0;
#X connect 17 0 85 0;
#X connect 18 0 85 0;
#X connect 19 0 85 0;
#X connect 20 0 85 0;
#X connect 21 0 85 0;
#X connect 22 0 85 0;
#X connect 23 0 85 0;
#X connect 24 0 16 1;
#X connect 25 0 17 1;
#X connect 26 0 18 1;
#X connect 27 0 19 1;
#X connect 28 0 20 1;
#X connect 29 0 21 1;
#X connect 30 0 22 1;
#X connect 31 0 23 1;
#X connect 32 0 85 0;
#X connect 33 0 32 1;
#X connect 34 0 85 0;
#X connect 35 0 34 1;
#X connect 36 0 85 0;
#X connect 37 0 85 0;
#X connect 38 0 85 0;
#X connect 39 0 85 0;
#X connect 40 0 85 0;
#X connect 41 0 85 0;
#X connect 42 0 85 0;
#X connect 43 0 85 0;
#X connect 44 0 85 0;
#X connect 45 0 85 0;
#X connect 46 0 36 1;
#X connect 47 0 37 1;
#X connect 48 0 38 1;
#X connect 49 0 39 1;
#X connect 50 0 40 1;
#X connect 51 0 41 1;
#X connect 52 0 42 1;
#X connect 53 0 43 1;
#X connect 54 0 45 1;
#X connect 55 0 44 1;
#X connect 56 0 85 0;
#X connect 57 0 56 1;
#X connect 58 0 85 0;
#X connect 59 0 85 0;
#X connect 60 0 85 0;
#X connect 61 0 85 0;
#X connect 62 0 85 0;
#X connect 63 0 85 0;
#X connect 64 0 85 0;
#X connect 65 0 85 0;
#X connect 66 0 85 0;
#X connect 67 0 85 0;
#X connect 68 0 85 0;
#X connect 69 0 58 1;
#X connect 70 0 59 1;
#X connect 71 0 60 1;
#X connect 72 0 61 1;
#X connect 73 0 62 1;
#X connect 74 0 63 1;
#X connect 75 0 64 1;
#X connect 76 0 65 1;
#X connect 77 0 67 1;
#X connect 78 0 66 1;
#X connect 79 0 68 1;
#X connect 80 0 85 0;
#X connect 81 0 80 1;
#X connect 82 0 85 0;
#X connect 83 0 82 1;
#X connect 84 0 88 0;
#X connect 86 0 87 1;
#X connect 87 0 85 0;
#X connect 88 0 8 0;
#X connect 88 1 9 0;
#X connect 88 2 10 0;
#X connect 88 3 11 0;
#X connect 88 4 12 0;
#X connect 88 5 13 0;
#X connect 88 6 14 0;
#X connect 88 7 15 0;
#X connect 88 8 16 0;
#X connect 88 9 17 0;
#X connect 88 10 18 0;
#X connect 88 11 19 0;
#X connect 88 12 20 0;
#X connect 88 13 21 0;
#X connect 88 14 22 0;
#X connect 88 15 23 0;
#X connect 88 16 34 0;
#X connect 88 17 32 0;
#X connect 88 18 36 0;
#X connect 88 19 37 0;
#X connect 88 20 38 0;
#X connect 88 21 39 0;
#X connect 88 22 40 0;
#X connect 88 23 41 0;
#X connect 88 24 42 0;
#X connect 88 25 43 0;
#X connect 88 26 45 0;
#X connect 88 27 44 0;
#X connect 88 28 56 0;
#X connect 88 29 58 0;
#X connect 88 30 59 0;
#X connect 88 31 60 0;
#X connect 88 32 61 0;
#X connect 88 33 62 0;
#X connect 88 34 63 0;
#X connect 88 35 64 0;
#X connect 88 36 65 0;
#X connect 88 37 67 0;
#X connect 88 38 66 0;
#X connect 88 39 68 0;
#X connect 88 40 80 0;
#X connect 88 41 82 0;
#X connect 88 42 87 0;
#X connect 88 43 92 0;
#X connect 88 44 90 0;
#X connect 89 0 90 1;
#X connect 90 0 85 0;
#X connect 91 0 92 1;
#X connect 92 0 85 0;
#X restore 23 237 pd receives;
#X floatatom 87 156 0 0 0 0 - - -;
#X obj 87 125 + 1;
#X obj 40 124 float;
#X obj 40 51 t b 0;
#X obj 40 99 until;
#X obj 70 76 r stopcount-$1;
#X obj 86 205 s stopcount-$1;
#X floatatom 399 176 0 0 0 0 - - -;
#X obj 399 145 + 1;
#X obj 352 144 float;
#X obj 352 71 t b 0;
#X obj 352 119 until;
#X obj 382 96 r stopcount2-$1;
#X obj 398 225 s stopcount2-$1;
#X obj 367 273 tabread \$1;
#N canvas 2 22 993 677 sends 0;
#X obj 67 29 inlet;
#X obj 231 29 inlet;
#X text 108 34 <-- Value;
#X text 272 31 <-- Param;
#X obj 116 69 pack f f;
#X obj 46 172 s pitch_wheel_ctl;
#X obj 45 215 s glide_on_ctl;
#X obj 44 256 s glide_time_ctl;
#X obj 40 297 s release_send_ctl;
#X obj 42 345 s mod_mix_ctl;
#X obj 41 435 s auto_on_ctl;
#X obj 42 483 s auto_length_ctl;
#X obj 249 186 s osc2_freq_ctl;
#X obj 250 226 s osc3_freq_ctl;
#X obj 250 264 s osc1_range_ctl;
#X obj 250 304 s osc2_range_ctl;
#X obj 250 345 s osc3_range_ctl;
#X obj 251 386 s osc1_shape_ctl;
#X obj 249 431 s osc2_shape_ctl;
#X obj 249 473 s osc3_shape_ctl;
#X obj 249 514 s osc3_kb_on_ctl;
#X obj 251 553 s osc_mod_on_ctl;
#X obj 495 193 s osc1_vol_ctl;
#X obj 496 233 s osc1_on_ctl;
#X obj 496 271 s osc2_vol_ctl;
#X obj 496 311 s osc2_on_ctl;
#X obj 496 352 s osc3_vol_ctl;
#X obj 497 393 s osc3_on_ctl;
#X obj 495 438 s ext_vol_ctl;
#X obj 495 480 s ext_on_ctl;
#X obj 496 521 s noise_vol_ctl;
#X obj 497 560 s noise_on_ctl;
#X obj 498 600 s noise_col_ctl;
#X obj 691 163 s amp_attack_ctl;
#X obj 692 203 s amp_decay_ctl;
#X obj 692 241 s amp_sustain_ctl;
#X obj 688 280 s filter_attack_ctl;
#X obj 692 322 s filter_decay_ctl;
#X obj 693 363 s filter_sustain_ctl;
#X obj 691 408 s filter_cutoff_ctl;
#X obj 691 450 s filter_emphasis_ctl;
#X obj 690 491 s filter_amt_ctl;
#X obj 693 530 s filter_mod_on_ctl;
#X obj 694 570 s filter_kb_1_ctl;
#X obj 695 608 s filter_kb_2_ctl;
#X obj 835 138 s main_vol_ctl;
#X obj 43 387 s tune_ctl;
#X obj 836 165 s mod_wheel_ctl;
#X obj 116 91 route 1 2 3 4 5 6 7 8 9 10 11 12 13 14 15 16 17 18 19
20 21 22 23 24 25 26 27 28 29 30 31 32 33 34 35 36 37 38 39 40 41 42
43 44 45;
#X obj 836 196 s reattack_on_ctl;
#X obj 837 227 s osc3_rev_on_ctl;
#X connect 0 0 4 1;
#X connect 1 0 4 0;
#X connect 4 0 48 0;
#X connect 48 0 5 0;
#X connect 48 1 6 0;
#X connect 48 2 7 0;
#X connect 48 3 8 0;
#X connect 48 4 9 0;
#X connect 48 5 46 0;
#X connect 48 6 10 0;
#X connect 48 7 11 0;
#X connect 48 8 12 0;
#X connect 48 9 13 0;
#X connect 48 10 14 0;
#X connect 48 11 15 0;
#X connect 48 12 16 0;
#X connect 48 13 17 0;
#X connect 48 14 18 0;
#X connect 48 15 19 0;
#X connect 48 16 20 0;
#X connect 48 17 21 0;
#X connect 48 18 22 0;
#X connect 48 19 23 0;
#X connect 48 20 24 0;
#X connect 48 21 25 0;
#X connect 48 22 26 0;
#X connect 48 23 27 0;
#X connect 48 24 28 0;
#X connect 48 25 29 0;
#X connect 48 26 30 0;
#X connect 48 27 31 0;
#X connect 48 28 32 0;
#X connect 48 29 33 0;
#X connect 48 30 34 0;
#X connect 48 31 35 0;
#X connect 48 32 36 0;
#X connect 48 33 37 0;
#X connect 48 34 38 0;
#X connect 48 35 39 0;
#X connect 48 36 40 0;
#X connect 48 37 41 0;
#X connect 48 38 42 0;
#X connect 48 39 43 0;
#X connect 48 40 44 0;
#X connect 48 41 45 0;
#X connect 48 42 47 0;
#X connect 48 43 49 0;
#X connect 48 44 50 0;
#X restore 366 294 pd sends;
#X obj 86 183 sel 45;
#X obj 398 203 sel 45;
#X connect 1 0 10 0;
#X connect 2 0 17 0;
#X connect 6 0 0 0;
#X connect 7 0 6 0;
#X connect 7 0 0 1;
#X connect 7 0 23 0;
#X connect 8 0 7 0;
#X connect 8 0 9 1;
#X connect 9 0 8 0;
#X connect 10 0 11 0;
#X connect 10 1 9 1;
#X connect 11 0 9 0;
#X connect 12 0 11 1;
#X connect 14 0 22 1;
#X connect 14 0 21 0;
#X connect 14 0 24 0;
#X connect 15 0 14 0;
#X connect 15 0 16 1;
#X connect 16 0 15 0;
#X connect 17 0 18 0;
#X connect 17 1 16 1;
#X connect 18 0 16 0;
#X connect 19 0 18 1;
#X connect 21 0 22 0;
#X connect 23 0 13 0;
#X connect 24 0 20 0;
