#N canvas 6 23 1434 855 10;
#X obj 231 234 noise~;
#X obj 234 280 *~;
#X obj 153 214 t b f;
#X obj 166 264 /;
#X msg 154 240 1;
#X obj 165 286 * 1000;
#X obj 163 2 r notes;
#X obj 16 24 unpack;
#X obj 293 177 sel 0;
#X obj 276 283 line~;
#X obj 671 678 throw~ outL;
#X obj 761 678 throw~ outR;
#X obj 153 194 mtof;
#X obj 279 260 r nfil;
#X obj 1254 363 vsl 15 128 0 4000 0 0 empty empty empty 0 -9 0 10 -262144
-1 -1 3492 1;
#X floatatom 1255 504 5 0 0 0 - - -, f 5;
#X obj 1255 523 s nfil;
#X obj 1307 363 vsl 15 128 0 4000 0 0 empty empty empty 0 -9 0 10 -262144
-1 -1 8890 1;
#X floatatom 1306 502 5 0 0 0 - - -, f 5;
#X obj 1306 521 s fil;
#X obj 148 68 pack 0 0 0;
#X obj 146 86 route 1;
#X obj 149 48 poly 1 1;
#X obj 232 258 lop~;
#X obj 561 521 *~;
#X obj 217 174 + 24;
#X obj 566 155 mtof;
#X obj 1352 365 vsl 15 128 0 8000 0 0 empty empty empty 0 -9 0 10 -262144
-1 -1 1032 1;
#X floatatom 1351 504 5 0 0 0 - - -, f 5;
#X obj 1351 523 s fil2;
#X msg 1351 338 650;
#X obj 389 358 line~;
#X obj 616 221 +~;
#X obj 175 370 *~;
#X obj 83 627 dattorroplate~;
#X text 93 511 Predelay;
#X text 158 513 Bandwidth;
#X text 233 511 Damping;
#X text 289 514 Gain;
#X msg 164 546 0.591;
#X msg 225 546 0.345;
#X msg 95 545 49.448;
#X msg 285 547 0.363;
#X obj 83 584 hip~ 500;
#X obj 23 519 loadbang;
#X obj 683 223 +~;
#X obj 695 378 *~ 0.4;
#X obj 664 574 *~;
#X obj 1042 753 +~ 1;
#X obj 4 210 sel 0;
#X msg 227 209 1 10;
#X obj 615 108 *~;
#X obj 540 86 / 200;
#X obj 1043 710 +~ 0.5;
#X obj 1042 732 osc~;
#X obj 1043 690 osc~;
#X obj 1043 669 +~ 2;
#X obj 1249 295 loadbang;
#X obj 235 22 bendin;
#X obj 258 176 +;
#X obj 327 110 +;
#X obj 236 107 t b f;
#X obj 237 47 / 8196;
#X obj 1213 138 touchin;
#X obj 1135 221 t b f;
#X obj 1142 338 +;
#X obj 1173 320 +;
#X obj 1060 254 loadbang;
#X obj 1180 223 s aft;
#X obj 257 326 r aft;
#X obj 257 348 / 127;
#X obj 175 396 *~;
#X obj 26 389 vline~;
#X obj 4 310 pack f f;
#X obj 70 311 pack f f f f;
#X msg 26 339 0 \$2;
#X obj 67 252 loadbang;
#X obj 562 466 hip~;
#X obj 1109 358 +;
#X obj 393 235 / 127;
#X obj 28 235 / 127;
#X msg 71 338 \$1 \$2 \, \$4 \$3 \$2;
#X obj 181 347 hip~ 1600;
#X msg 1110 286 50;
#X msg 15 287 1000;
#X msg 272 209 0 1000;
#X msg 350 330 0 50;
#X obj 1044 648 osc~ 1;
#X obj 394 270 *;
#X msg 1307 337 2800;
#X msg 389 328 \$1 400;
#X obj 605 352 vcf~;
#X obj 697 356 vcf~;
#X obj 466 240 line;
#X floatatom 459 178 5 0 0 0 - - -, f 5;
#X obj 517 157 t b;
#X obj 425 177 *;
#X obj 443 153 / 130;
#X obj 85 606 lop~ 2500;
#X obj 462 94 loadbang;
#X obj 52 656 *~ 3.5;
#X obj 175 654 *~ 3.5;
#X obj 410 111 t b f;
#X obj 614 59 osc~;
#X msg 95 286 300;
#X obj 575 571 *~ 0.4;
#X msg 1146 286 450;
#X msg 1180 286 550;
#X obj 1183 254 * 4;
#X msg 1075 329 3;
#X msg 513 204 0 40;
#X obj 27 259 *;
#X obj 1042 775 *~ 1.2;
#X obj 614 14 osc~ 2;
#X obj 614 37 +~ 0.5;
#X obj 614 81 *~ 1;
#X obj 1166 353 * 1.5;
#X obj 390 301 clip 0.3 1;
#X obj 616 244 +~;
#X obj 682 243 +~;
#X obj 326 713 loadbang;
#X obj 1108 407 / 127;
#X obj 1251 649 i;
#X obj 1245 694 == 0;
#X obj 1285 695 == 1;
#X obj 612 155 *~;
#X obj 678 109 *~;
#X obj 678 156 *~;
#X obj 1043 795 *~;
#X obj 937 755 *~;
#X obj 677 60 osc~;
#X obj 939 693 osc~;
#X obj 1252 580 r aux;
#X floatatom 1252 606 5 0 0 0 - - -, f 5;
#X obj 785 218 +~;
#X obj 785 239 +~;
#X obj 698 200 * 2;
#X obj 604 376 *~;
#X obj 1175 516 swap 1;
#X obj 1176 540 -;
#X obj 787 385 *~;
#X obj 841 216 +~;
#X obj 841 240 +~;
#X obj 840 385 *~;
#X obj 1107 383 ctlin 1, f 8;
#X obj 1252 625 * 1.999;
#X msg 1334 600 0;
#X obj 1332 577 loadbang;
#X msg 889 415 0;
#X obj 175 432 *~;
#X obj 802 179 * 3;
#X obj 858 179 * 4;
#X obj 164 27 unpack;
#X msg 601 745 Aftertouch=Breath-Mod;
#X msg 793 745 Aux=Vibrato;
#X obj 1119 517 lop~ 25;
#X obj 1118 539 lop~ 25;
#X obj 255 435 + 1;
#X obj 236 66 - 1;
#X obj 679 16 osc~ 0.35;
#X obj 941 649 osc~ 0.35;
#X obj 677 82 *~ 11.5;
#X obj 941 671 +~ 5;
#X obj 679 38 +~ 5;
#X obj 936 721 +~ 1;
#X obj 700 575 lop~ 25;
#N canvas 345 333 584 497 breath 0;
#X obj 151 48 inlet;
#X obj 225 89 inlet~;
#X obj 146 397 outlet~;
#X obj 335 82 block~ 1;
#X obj 39 107 delread~ flute2;
#X obj 214 194 delread~ flute1;
#X obj 106 224 lop~;
#X obj 263 219 r fil;
#X obj 23 208 *~ -1;
#X obj 198 278 delwrite~ flute2 500;
#X obj 214 170 delwrite~ flute1 500;
#X obj 23 178 *~ 0.992;
#X obj 35 141 hip~;
#X obj 81 141 r fil2;
#X connect 0 0 5 0;
#X connect 0 0 4 0;
#X connect 1 0 10 0;
#X connect 4 0 12 0;
#X connect 5 0 6 0;
#X connect 6 0 9 0;
#X connect 7 0 6 1;
#X connect 8 0 2 0;
#X connect 8 0 10 0;
#X connect 11 0 8 0;
#X connect 12 0 11 0;
#X connect 13 0 12 1;
#X restore 181 323 pd breath;
#X obj 920 398 loadbang;
#X obj 1287 715 s vib(on);
#X obj 1207 715 s vib(off);
#X obj 964 739 r vib(on);
#X obj 1072 795 r vib(off);
#X obj 623 131 r vib(off);
#X obj 699 131 r vib(on);
#X obj 894 215 +~;
#X obj 894 239 +~;
#X obj 1035 517 s~ ovb(amt);
#X obj 921 322 r~ ovb(amt);
#X obj 879 385 *~;
#X obj 1025 539 s~ ovb2(amt);
#X obj 492 349 r~ ovb2(amt);
#X obj 255 456 *;
#X obj 912 180 * 5;
#X obj 1157 659 s led;
#X obj 539 309 s_bltriangle;
#X obj 650 309 s_bltriangle;
#X obj 894 264 osc~;
#X obj 796 263 osc~;
#X obj 705 265 osc~;
#X obj 682 482 *~;
#X obj 884 523 snapshot~;
#X obj 902 476 metro 5;
#X msg 902 455 1;
#X floatatom 884 542 5 0 0 0 - - -, f 5;
#X obj 720 472 *~ 0.4;
#X obj 721 493 +~ 0.6;
#X obj 1005 469 line~;
#X msg 1043 443 0 10;
#X obj 1040 377 sel 0;
#X floatatom 1269 193 5 0 0 0 - - -, f 5;
#X obj 721 452 osc~ 4;
#X obj 1111 449 spigot;
#X obj 1164 427 == 0;
#X obj 76 76 s vel;
#X obj 293 156 r vel;
#X obj 1039 355 r vel;
#X obj 515 131 r vel;
#X obj 979 8 r knob2;
#X obj 1013 495 spigot;
#X obj 1068 472 == 1;
#X obj 1186 391 r pctl;
#X obj 978 34 * 1.9999;
#X obj 979 57 i;
#X obj 978 86 s pctl;
#X obj 962 550 snapshot~;
#X obj 884 501 *~;
#X obj 829 464 *~ 0.5;
#X obj 1045 51 sel 0 1;
#X obj 1030 113 s screenLine2;
#X obj 4 188 r vel;
#X obj 16 77 s pitch;
#X obj 217 153 r pitch;
#X obj 326 88 r pitch;
#X obj 394 86 r pitch;
#X obj 539 60 r pitch;
#X obj 794 13 r knob1;
#X obj 791 60 i;
#X msg 863 47 0;
#X msg 895 47 12;
#X obj 862 71 s transpose;
#X obj 146 126 -;
#X obj 220 127 r transpose;
#X obj 863 16 sel 0 1;
#X obj 792 38 * 1.999;
#X obj 789 87 sel 0 1;
#X obj 791 143 s screenLine1;
#X msg 818 121 1: Transpose: -12 st.;
#X msg 766 103 1: Transpose: 0 st.;
#X obj 828 486 osc~;
#X obj 828 423 osc~ 0.5;
#X obj 828 443 +~ 0.5;
#X obj 84 103 moses 48;
#X obj 82 125 moses 85;
#X obj 965 574 spigot;
#X msg 1032 85 2: Pressure: Modwheel;
#X msg 1191 85 2: Pressure: Envelope;
#X floatatom 1110 428 5 0 0 0 - - -, f 5;
#X obj 828 505 *~ 0.2;
#X obj 830 524 +~ 0.8;
#X obj 657 403 *~;
#X obj 740 421 lop~ 2500;
#X obj 895 291 *~ 0.27;
#X obj 492 374 *~ 0.8;
#X obj 493 397 +~ 0.2;
#X msg 65 286 25;
#X obj 839 290 *~ 0.47;
#X obj 786 290 *~ 0.37;
#X msg 409 153 35;
#X msg 975 442 0.5 1000;
#X obj 1000 414 delay 600;
#X obj 514 181 delay 90;
#X msg 432 200 \$1 90;
#X obj 256 391 line~;
#X obj 147 101 unpack;
#X obj 144 149 pack 0 0;
#X msg 128 284 0.3;
#X msg 1252 338 1100;
#X obj 290 477 clip 1 2;
#X obj 255 412 clip~ 0.5 0.7;
#X msg 256 369 \$1 80;
#X obj 596 767 s screenLine4;
#X obj 793 771 s screenLine5;
#X obj 174 458 *~ 0.16;
#X connect 0 0 23 0;
#X connect 1 0 166 1;
#X connect 2 0 4 0;
#X connect 2 1 3 1;
#X connect 3 0 5 0;
#X connect 4 0 3 0;
#X connect 5 0 166 0;
#X connect 6 0 152 0;
#X connect 7 0 220 0;
#X connect 7 1 203 0;
#X connect 8 0 85 0;
#X connect 8 0 86 0;
#X connect 8 1 50 0;
#X connect 8 1 79 0;
#X connect 9 0 1 1;
#X connect 12 0 2 0;
#X connect 13 0 23 1;
#X connect 14 0 15 0;
#X connect 15 0 16 0;
#X connect 17 0 18 0;
#X connect 18 0 19 0;
#X connect 20 0 21 0;
#X connect 21 0 263 0;
#X connect 22 0 20 0;
#X connect 22 1 20 1;
#X connect 22 2 20 2;
#X connect 23 0 1 0;
#X connect 24 0 47 0;
#X connect 24 0 105 0;
#X connect 25 0 59 0;
#X connect 26 0 32 1;
#X connect 26 0 136 0;
#X connect 26 0 150 0;
#X connect 26 0 151 0;
#X connect 26 0 182 0;
#X connect 27 0 28 0;
#X connect 28 0 29 0;
#X connect 30 0 27 0;
#X connect 31 0 24 1;
#X connect 32 0 118 0;
#X connect 33 0 71 0;
#X connect 34 0 100 0;
#X connect 34 1 101 0;
#X connect 39 0 34 2;
#X connect 40 0 34 3;
#X connect 41 0 34 1;
#X connect 42 0 34 4;
#X connect 43 0 98 0;
#X connect 44 0 41 0;
#X connect 44 0 39 0;
#X connect 44 0 40 0;
#X connect 44 0 42 0;
#X connect 45 0 119 0;
#X connect 46 0 249 0;
#X connect 47 0 10 0;
#X connect 47 0 11 0;
#X connect 47 0 43 0;
#X connect 48 0 112 0;
#X connect 49 0 73 0;
#X connect 49 1 80 0;
#X connect 50 0 9 0;
#X connect 51 0 125 0;
#X connect 52 0 51 1;
#X connect 52 0 126 1;
#X connect 53 0 54 0;
#X connect 54 0 48 0;
#X connect 55 0 53 0;
#X connect 56 0 55 0;
#X connect 57 0 266 0;
#X connect 57 0 89 0;
#X connect 57 0 30 0;
#X connect 58 0 62 0;
#X connect 59 0 12 0;
#X connect 60 0 26 0;
#X connect 61 0 60 0;
#X connect 61 0 59 0;
#X connect 61 1 60 1;
#X connect 61 1 59 1;
#X connect 62 0 158 0;
#X connect 63 0 64 0;
#X connect 63 0 68 0;
#X connect 63 0 199 0;
#X connect 64 0 106 0;
#X connect 64 0 107 0;
#X connect 64 0 65 0;
#X connect 64 0 66 0;
#X connect 64 0 78 0;
#X connect 64 1 106 0;
#X connect 64 1 108 0;
#X connect 64 1 116 0;
#X connect 65 0 91 1;
#X connect 66 0 92 1;
#X connect 67 0 106 0;
#X connect 67 0 107 0;
#X connect 67 0 83 0;
#X connect 67 0 109 0;
#X connect 69 0 70 0;
#X connect 70 0 269 0;
#X connect 71 0 149 0;
#X connect 72 0 33 1;
#X connect 73 0 75 0;
#X connect 74 0 81 0;
#X connect 75 0 72 0;
#X connect 76 0 254 0;
#X connect 76 0 84 0;
#X connect 76 0 104 0;
#X connect 76 0 265 0;
#X connect 77 0 24 0;
#X connect 78 0 77 1;
#X connect 79 0 88 0;
#X connect 79 0 88 1;
#X connect 80 0 111 0;
#X connect 80 0 111 1;
#X connect 81 0 72 0;
#X connect 82 0 33 0;
#X connect 83 0 78 0;
#X connect 84 0 73 1;
#X connect 85 0 9 0;
#X connect 86 0 31 0;
#X connect 87 0 56 0;
#X connect 88 0 117 0;
#X connect 89 0 17 0;
#X connect 90 0 31 0;
#X connect 91 0 137 0;
#X connect 92 0 46 0;
#X connect 93 0 118 1;
#X connect 93 0 119 1;
#X connect 93 0 135 1;
#X connect 93 0 142 1;
#X connect 93 0 175 1;
#X connect 94 0 261 0;
#X connect 95 0 94 0;
#X connect 95 0 260 0;
#X connect 96 0 94 0;
#X connect 97 0 96 1;
#X connect 98 0 34 0;
#X connect 99 0 257 0;
#X connect 100 0 10 0;
#X connect 101 0 11 0;
#X connect 102 0 257 0;
#X connect 102 1 97 0;
#X connect 103 0 115 0;
#X connect 104 0 74 2;
#X connect 105 0 10 0;
#X connect 105 0 11 0;
#X connect 105 0 43 0;
#X connect 106 0 65 0;
#X connect 107 0 66 0;
#X connect 108 0 66 1;
#X connect 108 0 65 1;
#X connect 109 0 91 2;
#X connect 109 0 92 2;
#X connect 110 0 93 0;
#X connect 111 0 74 0;
#X connect 112 0 128 0;
#X connect 113 0 114 0;
#X connect 114 0 103 0;
#X connect 115 0 51 0;
#X connect 116 0 78 1;
#X connect 117 0 90 0;
#X connect 118 0 184 0;
#X connect 119 0 185 0;
#X connect 120 0 154 0;
#X connect 120 0 153 0;
#X connect 121 0 246 0;
#X connect 122 0 123 0;
#X connect 122 0 124 0;
#X connect 123 0 169 0;
#X connect 124 0 168 0;
#X connect 125 0 32 0;
#X connect 125 0 45 0;
#X connect 125 0 134 0;
#X connect 125 0 141 0;
#X connect 125 0 174 0;
#X connect 126 0 127 0;
#X connect 127 0 32 0;
#X connect 127 0 45 0;
#X connect 127 0 134 0;
#X connect 127 0 141 0;
#X connect 127 0 174 0;
#X connect 128 0 165 0;
#X connect 129 0 165 0;
#X connect 130 0 161 0;
#X connect 131 0 164 0;
#X connect 132 0 133 0;
#X connect 132 0 183 0;
#X connect 133 0 145 0;
#X connect 134 0 135 0;
#X connect 135 0 188 0;
#X connect 136 0 45 1;
#X connect 137 0 77 0;
#X connect 138 0 139 0;
#X connect 138 1 139 1;
#X connect 139 0 156 0;
#X connect 140 0 250 0;
#X connect 141 0 142 0;
#X connect 142 0 187 0;
#X connect 143 0 250 0;
#X connect 144 0 121 0;
#X connect 145 0 122 0;
#X connect 146 0 123 0;
#X connect 147 0 146 0;
#X connect 148 0 157 0;
#X connect 148 0 155 0;
#X connect 148 0 138 0;
#X connect 149 0 272 0;
#X connect 150 0 134 1;
#X connect 151 0 141 1;
#X connect 152 0 22 0;
#X connect 152 1 22 1;
#X connect 153 0 270 0;
#X connect 154 0 271 0;
#X connect 155 0 176 0;
#X connect 156 0 179 0;
#X connect 157 0 181 0;
#X connect 157 0 181 1;
#X connect 158 0 61 0;
#X connect 159 0 163 0;
#X connect 160 0 162 0;
#X connect 161 0 126 0;
#X connect 162 0 131 0;
#X connect 163 0 130 0;
#X connect 164 0 129 0;
#X connect 165 0 47 1;
#X connect 166 0 82 0;
#X connect 167 0 148 0;
#X connect 167 0 192 0;
#X connect 170 0 129 1;
#X connect 171 0 128 1;
#X connect 172 0 125 1;
#X connect 173 0 127 1;
#X connect 174 0 175 0;
#X connect 175 0 186 0;
#X connect 177 0 143 1;
#X connect 177 0 140 1;
#X connect 177 0 178 1;
#X connect 178 0 250 0;
#X connect 180 0 252 0;
#X connect 181 0 267 0;
#X connect 182 0 174 1;
#X connect 184 0 91 0;
#X connect 185 0 92 0;
#X connect 186 0 251 0;
#X connect 187 0 255 0;
#X connect 188 0 256 0;
#X connect 189 0 77 0;
#X connect 190 0 193 0;
#X connect 191 0 190 0;
#X connect 191 0 214 0;
#X connect 192 0 191 0;
#X connect 193 0 208 0;
#X connect 194 0 195 0;
#X connect 195 0 189 1;
#X connect 196 0 215 0;
#X connect 196 0 214 0;
#X connect 197 0 196 0;
#X connect 198 0 197 0;
#X connect 198 1 259 0;
#X connect 200 0 194 0;
#X connect 201 0 155 0;
#X connect 201 0 138 0;
#X connect 201 0 157 0;
#X connect 202 0 201 1;
#X connect 204 0 8 0;
#X connect 205 0 198 0;
#X connect 206 0 95 0;
#X connect 207 0 211 0;
#X connect 208 0 155 0;
#X connect 208 0 138 0;
#X connect 209 0 208 1;
#X connect 209 0 243 1;
#X connect 210 0 209 0;
#X connect 210 0 202 0;
#X connect 210 0 246 0;
#X connect 211 0 212 0;
#X connect 212 0 213 0;
#X connect 212 0 217 0;
#X connect 214 0 243 0;
#X connect 215 0 190 0;
#X connect 216 0 238 0;
#X connect 217 0 244 0;
#X connect 217 1 245 0;
#X connect 219 0 49 0;
#X connect 221 0 25 0;
#X connect 222 0 60 0;
#X connect 223 0 102 0;
#X connect 224 0 52 0;
#X connect 225 0 233 0;
#X connect 226 0 232 0;
#X connect 226 0 234 0;
#X connect 227 0 229 0;
#X connect 228 0 229 0;
#X connect 230 0 264 0;
#X connect 231 0 230 1;
#X connect 232 0 227 0;
#X connect 232 1 228 0;
#X connect 233 0 226 0;
#X connect 234 0 237 0;
#X connect 234 1 236 0;
#X connect 236 0 235 0;
#X connect 237 0 235 0;
#X connect 238 0 247 0;
#X connect 239 0 240 0;
#X connect 240 0 216 0;
#X connect 241 1 242 0;
#X connect 242 0 230 0;
#X connect 243 0 157 0;
#X connect 244 0 218 0;
#X connect 245 0 218 0;
#X connect 246 0 201 0;
#X connect 247 0 248 0;
#X connect 248 0 215 1;
#X connect 249 0 77 0;
#X connect 250 0 189 0;
#X connect 251 0 178 0;
#X connect 252 0 253 0;
#X connect 253 0 137 1;
#X connect 253 0 249 1;
#X connect 254 0 74 1;
#X connect 255 0 143 0;
#X connect 256 0 140 0;
#X connect 257 0 96 0;
#X connect 258 0 196 0;
#X connect 259 0 258 0;
#X connect 260 0 110 0;
#X connect 261 0 93 0;
#X connect 262 0 268 0;
#X connect 263 0 241 0;
#X connect 263 1 264 1;
#X connect 264 0 7 0;
#X connect 265 0 74 3;
#X connect 266 0 14 0;
#X connect 267 0 149 1;
#X connect 268 0 71 1;
#X connect 269 0 262 0;
#X connect 272 0 10 0;
#X connect 272 0 11 0;
#X connect 272 0 43 0;
