#N canvas 193 162 466 244 10;
#X obj 23 167 dac~;
#X obj 18 14 r notes;
#X floatatom 18 32 5 0 0 0 - - -;
#X obj 282 98 tgl 15 0 empty empty empty 17 7 0 10 -262144 -1 -1 0
1;
#X obj 283 162 s notes;
#X floatatom 283 139 5 0 0 0 - - -;
#N canvas 0 23 514 326 random_notes 0;
#X obj 37 37 inlet;
#X obj 42 274 outlet;
#X obj 179 150 table pitches;
#X obj 37 188 tabread pitches;
#X floatatom 37 212 5 0 0 0 - - -;
#X floatatom 37 159 5 0 0 0 - - -;
#X obj 185 80 loadbang;
#X obj 37 232 - 12;
#X obj 37 58 metro 250;
#X obj 110 96 sel 0 1;
#X msg 107 126 250;
#X msg 131 147 150;
#X obj 110 75 random 6;
#X obj 37 79 random 12;
#X obj 36 120 + 1;
#X msg 182 104 \; pitches 0 60 67 62 58 63 70 72 65 48 55 53 56 84
;
#X obj 147 178 * 1;
#X obj 107 23 inlet;
#X connect 0 0 8 0;
#X connect 3 0 4 0;
#X connect 4 0 7 0;
#X connect 5 0 3 0;
#X connect 6 0 15 0;
#X connect 7 0 1 0;
#X connect 8 0 12 0;
#X connect 8 0 13 0;
#X connect 9 0 10 0;
#X connect 9 1 11 0;
#X connect 10 0 16 0;
#X connect 11 0 16 0;
#X connect 12 0 9 0;
#X connect 13 0 14 0;
#X connect 14 0 5 0;
#X connect 16 0 8 1;
#X connect 17 0 16 1;
#X restore 283 118 pd random_notes;
#X floatatom 369 91 5 0 0 0 - - -;
#N canvas 498 265 777 497 karplusStrongSynth 0;
#X obj 37 37 inlet;
#X obj 107 170 noise~;
#X obj 117 256 *~;
#X obj 227 170 bng 15 250 50 0 empty empty empty 17 7 0 10 -262144
-1 -1;
#N canvas 603 310 450 300 env 0;
#X obj 37 37 inlet;
#X obj 47 191 tgl 15 0 empty empty empty 17 7 0 10 -262144 -1 -1 0
1;
#X obj 41 67 t b b, f 9;
#X obj 41 104 del 30;
#X msg 41 141 0;
#X msg 146 140 1;
#X obj 47 211 outlet;
#X connect 0 0 2 0;
#X connect 1 0 6 0;
#X connect 2 0 3 0;
#X connect 2 1 5 0;
#X connect 3 0 4 0;
#X connect 4 0 1 0;
#X connect 5 0 1 0;
#X restore 227 205 pd env;
#X obj 117 395 delwrite~ del 500;
#X obj 395 265 delread4~ del;
#X floatatom 395 204 5 0 0 0 - - -;
#X text 469 206 delay time;
#X obj 395 302 *~ 0.99;
#X text 491 303 NEVER > 1!!!!!!;
#X obj 395 339 lop~ 5000;
#X floatatom 392 84 5 0 0 0 - - -;
#X text 460 80 MIDI NOTE;
#X obj 392 119 mtof;
#X obj 392 156 expr 1000 / $f1;
#X obj 43 80 t b f;
#X floatatom 655 259 5 0 1 0 - - -;
#X text 727 261 decay;
#X obj 395 360 outlet~;
#X obj 656 222 inlet;
#X connect 0 0 16 0;
#X connect 1 0 2 0;
#X connect 2 0 5 0;
#X connect 3 0 4 0;
#X connect 4 0 2 1;
#X connect 6 0 9 0;
#X connect 7 0 6 0;
#X connect 9 0 11 0;
#X connect 11 0 5 0;
#X connect 11 0 19 0;
#X connect 12 0 14 0;
#X connect 14 0 15 0;
#X connect 15 0 7 0;
#X connect 16 0 3 0;
#X connect 16 1 12 0;
#X connect 17 0 9 1;
#X connect 20 0 17 0;
#X restore 21 101 pd karplusStrongSynth;
#X floatatom 143 80 5 0 1 0 - - -;
#X text 179 81 decay;
#X obj 23 146 *~ 0.5;
#X connect 1 0 2 0;
#X connect 2 0 8 0;
#X connect 3 0 6 0;
#X connect 5 0 4 0;
#X connect 6 0 5 0;
#X connect 7 0 6 1;
#X connect 8 0 11 0;
#X connect 9 0 8 1;
#X connect 11 0 0 0;
#X connect 11 0 0 1;
