#N canvas 67 87 767 813 16;
#X text 26 12 helper patch to allow for access to the files for data
to run patches;
#X obj 199 534 r index;
#X obj 314 392 print;
#X obj 357 349 textfile;
#X msg 628 321 print;
#X msg 305 319 bang;
#X msg 226 321 rewind;
#X msg 356 318 read ./TrackingData.txt cr;
#X msg 238 461 timeframe 1672;
#X obj 330 271 tgl 15 0 empty empty empty 17 7 0 10 -262144 -1 -1 0
1;
#X obj 377 388 route RightHand;
#X obj 357 283 metro 44444;
#X msg 240 434 set timeframe \$1;
#X msg 414 461 time 13.9333;
#X msg 416 434 set time \$2;
#X msg 453 538 y 1.10958, f 13;
#X msg 313 533 x -0.459347;
#X msg 315 506 set x \$3;
#X msg 600 537 z -1.50493;
#X msg 452 508 set y \$4;
#X msg 603 510 set z \$5;
#X obj 345 713 s notes;
#X obj 277 582 abs;
#X obj 455 585;
#X symbolatom 32 526 10 0 0 0 - - -, f 10;
#X connect 3 0 2 0;
#X connect 3 0 10 0;
#X connect 4 0 3 0;
#X connect 5 0 3 0;
#X connect 6 0 3 0;
#X connect 7 0 3 0;
#X connect 9 0 11 0;
#X connect 10 0 12 0;
#X connect 10 0 14 0;
#X connect 10 0 17 0;
#X connect 10 0 19 0;
#X connect 10 0 20 0;
#X connect 11 0 5 0;
#X connect 12 0 8 0;
#X connect 14 0 13 0;
#X connect 16 0 22 0;
#X connect 17 0 16 0;
#X connect 19 0 15 0;
#X connect 20 0 18 0;
