#N canvas 67 87 1533 813 10;
#X obj 358 264 throw~ outL;
#X obj 469 264 throw~ outR;
#X obj 341 -15 r notes;
#X obj 351 43 pack 0 0 0;
#X obj 330 66 route 1 2 3 4 5 6 7 8;
#X obj 680 608 sig~;
#X obj 680 630 lop~ 5;
#X obj 873 601 sig~;
#X obj 873 623 lop~ 5;
#X obj 680 584 r knob2;
#X obj 873 579 r knob3;
#X obj 1059 576 r knob4;
#X obj 681 652 s~ smoothKnob2;
#X obj 873 645 s~ smoothKnob3;
#X obj 630 719 i;
#X obj 824 736 i;
#X obj 824 711 * 100;
#X obj 1033 669 i;
#X obj 630 795 s screenLine2;
#X obj 824 812 s screenLine3;
#X obj 1033 745 s screenLine4;
#X obj 42 532 loadbang;
#X msg 630 769 2: Vibrato Rate \$1 Hz;
#X msg 824 786 3: Vibrato Depth \$1 %;
#X msg 1033 718 4: Decay Time \$1 ms;
#X obj 1359 654 r aux;
#X obj 1337 756 i 0;
#X obj 1407 756 + 1;
#X floatatom 1337 826 5 0 0 0 - - -, f 5;
#X obj 1359 717 sel 1;
#X obj 1337 847 s led;
#X obj 630 695 * 50;
#X obj 1034 647 + 5;
#X obj 1034 625 * 2000;
#X text 607 545 smooth knobs 1-3 \, send param updates to screen;
#X text 40 510 screen lines;
#X obj 630 742 change -1;
#X obj 824 759 change -1;
#X obj 1033 692 change -1;
#X obj 1233 813 s waveform;
#X obj 1337 782 % 4;
#X obj 1337 804 + 2;
#X obj 1337 618 loadbang;
#X text 1438 753 the aux button changes waveform;
#X msg 42 555 \; screenLine1 1: Tune \; screenLine2 2: Vibrato Rate
\; screenLine3 3: Vibrato Depth \; screenLine4 4: Decay \; screenLine5
Aux: Wave \;;
#X obj 1397 829 sel 0 1 2 3;
#X msg 1523 817 Aux: Square Wave;
#X obj 1523 843 s screenLine5;
#X obj 1523 902 s screenLine5;
#X msg 1523 876 Aux: Sine Wave;
#X obj 1647 899 s screenLine5;
#X obj 1640 848 s screenLine5;
#X msg 1647 873 Aux: Sawtooth Wave;
#X msg 1640 822 Aux: Triangle Wave;
#X text 24 19 basic polyphonic patch with 8 voices;
#X obj 1434 652 r fs;
#X text 508 36 aircraft carrier;
#X obj 637 626 t f f;
#X obj 637 648 *;
#X obj 487 754 send~ f;
#X obj 486 698 sig~;
#X obj 485 729 lop~ 5;
#X obj 431 828 change -1;
#X obj 486 627 / 100;
#X obj 486 649 mtof;
#X obj 486 671 / 8.1785;
#X obj 483 602 * 2400;
#X obj 480 577 r knob1;
#X msg 431 854 1: Tune \$1 cents;
#X obj 431 878 s screenLine1;
#X obj 430 801 i;
#X obj 240 149 voice;
#X obj 137 151 voice;
#X obj 37 150 voice;
#X obj 528 151 voice;
#X obj 430 152 voice;
#X obj 732 150 voice;
#X obj 334 150 voice;
#X obj 632 156 voice;
#X obj 371 228 *~ 0.3;
#X obj 175 154 bng 15 250 50 0 empty empty empty 17 7 0 10 -262144
-1 -1;
#X obj 278 155 bng 15 250 50 0 empty empty empty 17 7 0 10 -262144
-1 -1;
#X obj 376 151 bng 15 250 50 0 empty empty empty 17 7 0 10 -262144
-1 -1;
#X obj 472 154 bng 15 250 50 0 empty empty empty 17 7 0 10 -262144
-1 -1;
#X obj 573 156 bng 15 250 50 0 empty empty empty 17 7 0 10 -262144
-1 -1;
#X obj 672 150 bng 15 250 50 0 empty empty empty 17 7 0 10 -262144
-1 -1;
#X obj 778 152 bng 15 250 50 0 empty empty empty 17 7 0 10 -262144
-1 -1;
#N canvas 67 89 1365 496 noteOnAndOff 0;
#X msg 220 36 \$1 \;;
#X obj 110 154 bng 15 250 50 0 empty empty empty 17 7 0 10 -262144
-1 -1;
#X msg 282 287 \$1 100 \;;
#X msg 132 244 \$1 0 \;, f 8;
#X msg 279 352 0 100;
#X msg 276 322 set \$1 \$2;
#X obj 180 43 bng 15 250 50 0 empty empty empty 17 7 0 10 -262144 -1
-1;
#X obj 178 74 t b b f;
#X msg 121 290 set \$1 \$2;
#X msg 125 330 574 0;
#X obj 209 226 + 1;
#X floatatom 454 153 5 0 0 0 - - -, f 5;
#X obj 151 159 delay 200 1 msec;
#X msg 77 57 111;
#X obj 82 19 inlet;
#X obj 227 420 outlet;
#X connect 0 0 7 0;
#X connect 2 0 5 0;
#X connect 3 0 8 0;
#X connect 4 0 15 0;
#X connect 5 0 4 0;
#X connect 6 0 7 0;
#X connect 7 0 12 0;
#X connect 7 1 4 0;
#X connect 7 2 10 0;
#X connect 8 0 9 0;
#X connect 9 0 15 0;
#X connect 10 0 3 0;
#X connect 10 0 2 0;
#X connect 11 0 10 1;
#X connect 12 0 1 0;
#X connect 12 0 9 0;
#X connect 13 0 0 0;
#X connect 14 0 13 0;
#X restore 101 383 pd noteOnAndOff;
#X obj 82 154 bng 15 250 50 0 empty empty empty 17 7 0 10 -262144 -1
-1;
#X obj 222 71 bng 15 250 50 0 empty empty empty 17 7 0 10 -262144 -1
-1;
#X obj 833 164 loadbang;
#X msg 834 218 \; knob1 0.9 \; knob2 0.5 \; knob3 0.5 \; knob4 0.5
\; vol 0.8 \;;
#X obj 352 15 poly 8;
#X connect 2 0 92 0;
#X connect 3 0 4 0;
#X connect 3 0 89 0;
#X connect 4 0 73 0;
#X connect 4 1 72 0;
#X connect 4 2 71 0;
#X connect 4 3 77 0;
#X connect 4 4 75 0;
#X connect 4 5 74 0;
#X connect 4 6 78 0;
#X connect 4 7 76 0;
#X connect 5 0 6 0;
#X connect 6 0 12 0;
#X connect 7 0 8 0;
#X connect 8 0 13 0;
#X connect 9 0 5 0;
#X connect 9 0 57 0;
#X connect 10 0 7 0;
#X connect 10 0 16 0;
#X connect 11 0 33 0;
#X connect 14 0 36 0;
#X connect 15 0 37 0;
#X connect 16 0 15 0;
#X connect 17 0 38 0;
#X connect 21 0 44 0;
#X connect 22 0 18 0;
#X connect 23 0 19 0;
#X connect 24 0 20 0;
#X connect 25 0 29 0;
#X connect 26 0 27 0;
#X connect 26 0 40 0;
#X connect 27 0 26 1;
#X connect 28 0 30 0;
#X connect 29 0 26 0;
#X connect 31 0 14 0;
#X connect 32 0 17 0;
#X connect 33 0 32 0;
#X connect 36 0 22 0;
#X connect 37 0 23 0;
#X connect 38 0 24 0;
#X connect 40 0 41 0;
#X connect 40 0 39 0;
#X connect 40 0 45 0;
#X connect 41 0 28 0;
#X connect 42 0 26 0;
#X connect 45 0 49 0;
#X connect 45 1 46 0;
#X connect 45 2 52 0;
#X connect 45 3 53 0;
#X connect 46 0 47 0;
#X connect 49 0 48 0;
#X connect 52 0 50 0;
#X connect 53 0 51 0;
#X connect 55 0 29 0;
#X connect 57 0 58 0;
#X connect 57 1 58 1;
#X connect 58 0 31 0;
#X connect 60 0 61 0;
#X connect 61 0 59 0;
#X connect 62 0 68 0;
#X connect 63 0 64 0;
#X connect 64 0 65 0;
#X connect 65 0 60 0;
#X connect 66 0 63 0;
#X connect 66 0 70 0;
#X connect 67 0 66 0;
#X connect 68 0 69 0;
#X connect 70 0 62 0;
#X connect 71 0 79 0;
#X connect 72 0 79 0;
#X connect 73 0 79 0;
#X connect 74 0 79 0;
#X connect 75 0 79 0;
#X connect 76 0 79 0;
#X connect 77 0 79 0;
#X connect 78 0 79 0;
#X connect 79 0 0 0;
#X connect 79 0 1 0;
#X connect 90 0 91 0;
#X connect 92 0 3 0;
#X connect 92 1 3 1;
#X connect 92 2 3 2;
