#N canvas 67 87 1533 813 16;
#X msg 18 748 \; pd dsp 1;
#X obj 18 694 loadbang;
#X obj 18 721 delay 100;
#N canvas 67 87 1533 813 MIDI 0;
#X obj 51 227 spigot 1;
#X obj 139 183 r midiInGate;
#X obj 51 257 t f b;
#X obj 51 295 / 127;
#X obj 51 331 s knob1;
#X obj 103 290 s knob1Override;
#X obj 51 188 change;
#X obj 250 223 spigot 1;
#X obj 338 179 r midiInGate;
#X obj 250 253 t f b;
#X obj 250 291 / 127;
#X obj 250 184 change;
#X obj 444 219 spigot 1;
#X obj 532 175 r midiInGate;
#X obj 444 249 t f b;
#X obj 446 294 / 127;
#X obj 444 180 change;
#X obj 668 226 spigot 1;
#X obj 756 182 r midiInGate;
#X obj 663 254 t f b;
#X obj 663 292 / 127;
#X obj 668 187 change;
#X obj 253 336 s knob2;
#X obj 446 323 s knob3;
#X obj 668 324 s knob4;
#X obj 302 286 s knob2Override;
#X obj 497 282 s knob3Override;
#X obj 720 288 s knob4Override;
#X obj 886 150 notein;
#X obj 884 206 pack;
#X obj 897 249 spigot 1;
#X obj 958 186 r midiInGate;
#X obj 912 300 s notes;
#X text 670 101 MIDI in;
#X text 613 753 MIDI out;
#X obj 444 153 ctlin 23 1;
#X obj 668 160 ctlin 24 1;
#X obj 51 160 ctlin 21 1;
#X obj 250 156 ctlin 22 1;
#X obj 1092 210 spigot 1;
#X obj 1180 166 r midiInGate;
#X obj 1092 151 ctlin 25 1;
#X obj 1092 298 s aux;
#X obj 1285 204 spigot 1;
#X obj 1373 160 r midiInGate;
#X obj 1285 153 ctlin 64 1;
#X obj 1285 301 s fs;
#X obj 1285 234 >= 64;
#X obj 1285 266 change;
#X obj 1092 239 >= 64;
#X obj 1092 271 change;
#X obj 1478 214 spigot 1;
#X obj 1566 170 r midiInGate;
#X obj 1478 244 t f b;
#X obj 1478 282 / 127;
#X obj 1478 175 change;
#X obj 1478 148 ctlin 26 1;
#X obj 1530 277 s expOverride;
#X obj 1478 304 s exp;
#X text 719 736 the 'raw' stuff comes directly from built in controls
;
#X text 553 23 This patch provides the default MIDI behavior. All MIDI
output and input can be suppressed by sending a 0 to midiOutGate and
midiInGate respectively.;
#X text 499 800 This desktop mother patch doesn't currently send any
MIDI;
#X obj 82 458 spigot 1;
#X obj 170 414 r midiInGate;
#X obj 82 488 t f b;
#X obj 82 526 / 127;
#X obj 82 419 change;
#X obj 323 456 spigot 1;
#X obj 411 412 r midiInGate;
#X obj 323 486 t f b;
#X obj 323 524 / 127;
#X obj 323 417 change;
#X obj 82 391 ctlin 21 10;
#X obj 323 389 ctlin 22 10;
#X obj 134 521 s button1Override;
#X obj 375 519 s button2Override;
#X obj 326 569 s button2;
#X obj 82 562 s button1;
#X obj 949 422 mod;
#X obj 967 381 t b f;
#X obj 883 620 s kcv;
#X obj 919 652 s kcsv;
#X obj 958 619 s kdv;
#X obj 1008 655 s kdsv;
#X obj 1028 617 s kev;
#X obj 1086 619 s kfv;
#X obj 1148 618 s kgv;
#X obj 1206 619 s kav;
#X obj 1112 655 s kfsv;
#X obj 1279 621 s kbv;
#X obj 1188 657 s kgsv;
#X obj 1261 655 s kasv;
#X obj 929 545 sel 1 2 3 4 5 6 7 8 9 10 11 12;
#X floatatom 997 514 5 0 0 0 - - -, f 5;
#X obj 1016 442 12;
#X obj 989 478 + 1;
#X text 881 591 kcv = key c \, visual \; this sets the gui keyboard
;
#X obj 61 417 bng 15 250 50 0 empty empty empty 17 7 0 10 -262144 -1
-1;
#X obj 306 415 bng 15 250 50 0 empty empty empty 17 7 0 10 -262144
-1 -1;
#X obj 605 496 spigot 1;
#X obj 693 452 r midiInGate;
#X obj 605 526 t f b;
#X obj 605 564 / 127;
#X obj 605 457 change;
#X obj 605 429 ctlin 23 1;
#X obj 601 615 bng 15 250 50 0 empty empty empty 17 7 0 10 -262144
-1 -1;
#X obj 632 608 s index1;
#X connect 0 0 2 0;
#X connect 1 0 0 1;
#X connect 2 0 3 0;
#X connect 2 1 5 0;
#X connect 3 0 4 0;
#X connect 6 0 0 0;
#X connect 7 0 9 0;
#X connect 8 0 7 1;
#X connect 9 0 10 0;
#X connect 9 1 25 0;
#X connect 10 0 22 0;
#X connect 11 0 7 0;
#X connect 12 0 14 0;
#X connect 13 0 12 1;
#X connect 14 0 15 0;
#X connect 14 1 26 0;
#X connect 15 0 23 0;
#X connect 16 0 12 0;
#X connect 17 0 19 0;
#X connect 18 0 17 1;
#X connect 19 0 20 0;
#X connect 19 1 27 0;
#X connect 20 0 24 0;
#X connect 21 0 17 0;
#X connect 28 0 29 0;
#X connect 28 0 79 0;
#X connect 28 1 29 1;
#X connect 29 0 30 0;
#X connect 30 0 32 0;
#X connect 31 0 30 1;
#X connect 35 0 16 0;
#X connect 36 0 21 0;
#X connect 37 0 6 0;
#X connect 38 0 11 0;
#X connect 39 0 49 0;
#X connect 40 0 39 1;
#X connect 41 0 39 0;
#X connect 43 0 47 0;
#X connect 44 0 43 1;
#X connect 45 0 43 0;
#X connect 47 0 48 0;
#X connect 48 0 46 0;
#X connect 49 0 50 0;
#X connect 50 0 42 0;
#X connect 51 0 53 0;
#X connect 52 0 51 1;
#X connect 53 0 54 0;
#X connect 53 1 57 0;
#X connect 54 0 58 0;
#X connect 55 0 51 0;
#X connect 56 0 55 0;
#X connect 62 0 64 0;
#X connect 63 0 62 1;
#X connect 64 0 65 0;
#X connect 64 1 74 0;
#X connect 65 0 77 0;
#X connect 66 0 62 0;
#X connect 67 0 69 0;
#X connect 68 0 67 1;
#X connect 69 0 70 0;
#X connect 69 1 75 0;
#X connect 70 0 76 0;
#X connect 71 0 67 0;
#X connect 72 0 66 0;
#X connect 72 0 97 0;
#X connect 73 0 71 0;
#X connect 73 0 98 0;
#X connect 78 0 95 0;
#X connect 79 0 94 0;
#X connect 79 1 78 0;
#X connect 92 1 80 0;
#X connect 92 2 81 0;
#X connect 92 3 82 0;
#X connect 92 4 83 0;
#X connect 92 5 84 0;
#X connect 92 6 85 0;
#X connect 92 7 88 0;
#X connect 92 8 86 0;
#X connect 92 9 90 0;
#X connect 92 10 87 0;
#X connect 92 11 91 0;
#X connect 92 12 89 0;
#X connect 93 0 92 0;
#X connect 94 0 78 1;
#X connect 95 0 93 0;
#X connect 99 0 101 0;
#X connect 100 0 99 1;
#X connect 101 0 102 0;
#X connect 102 0 106 0;
#X connect 103 0 99 0;
#X connect 104 0 103 0;
#X connect 104 0 105 0;
#X restore 402 609 pd MIDI;
#N canvas 67 276 922 604 audioIO 0;
#X obj 513 336 dac~;
#X obj 386 104 catch~ outL;
#X obj 192 166 adc~;
#X obj 285 245 s~ inR;
#X obj 110 244 s~ inL;
#X obj 389 273 *~;
#X obj 576 275 *~;
#X obj 810 69 r vol;
#X obj 810 122 *;
#X obj 810 95 t f f;
#X obj 810 150 sig~;
#X obj 810 176 lop~ 2;
#X text 170 34 Receives and sends audio to patch. Outgoing audio is
run through a compressor to provide some headroom if things get too
loud. Also sends values to the Organelle's OLED VU meter.;
#X obj 755 379 vsl 15 128 0 1.5 0 0 empty empty empty 0 -9 0 10 -262144
-1 -1 6773 1;
#X obj 742 326 r vol;
#X obj 461 394 s~ audioVisual;
#X obj 578 102 catch~ outR;
#X obj 384 179 clip~ -1 1;
#X obj 598 170 clip~ -1 1;
#X connect 1 0 17 0;
#X connect 2 0 4 0;
#X connect 2 1 3 0;
#X connect 5 0 0 0;
#X connect 5 0 15 0;
#X connect 6 0 0 1;
#X connect 7 0 9 0;
#X connect 8 0 10 0;
#X connect 9 0 8 0;
#X connect 9 1 8 1;
#X connect 10 0 11 0;
#X connect 11 0 6 1;
#X connect 11 0 5 1;
#X connect 14 0 13 0;
#X connect 16 0 18 0;
#X connect 17 0 5 0;
#X connect 18 0 6 0;
#X restore 8 812 pd audioIO;
#X obj 134 723 tgl 15 0 empty empty empty 17 7 0 10 -262144 -1 -1 1
1;
#X obj 135 767 r~ audioVisual;
#X obj 134 695 loadbang;
#X obj 296 746 adc~;
#X obj 297 728 tgl 15 0 empty empty empty 17 7 0 10 -262144 -1 -1 1
1;
#X obj 295 702 loadbang;
#X obj 298 804 tabwrite~ adc;
#X obj 137 797 tabwrite~ dac;
#X obj 298 774 metro 400;
#X obj 133 740 metro 400;
#X obj 3 -2 cnv 15 785 600 empty empty empty 20 12 0 14 -128992 -66577
0;
#X obj 47 239 tgl 50 0 kcs kcs empty 17 7 0 10 -33289 -262144 -1 0
1;
#X obj 10 19 vsl 40 150 0 1 0 0 knob1 knob1 k1 0 -9 0 22 -66577 -262144
-4160 13410 0;
#X obj 96 20 vsl 40 150 0 1 0 0 knob3 knob3 k3 0 -9 0 22 -66577 -262144
-4160 7450 0;
#X obj 139 20 vsl 40 150 0 1 0 0 knob4 knob4 k4 0 -9 0 22 -66577 -262144
-4160 7450 0;
#X obj 224 20 vsl 40 150 0 1 0 0 exp exp pedl 0 -9 0 22 -66577 -262144
-4160 0 0;
#X obj 164 190 tgl 25 0 send-all-vals empty reset 0 0 0 22 -262144
-1 -4160 0 1;
#X obj 90 191 tgl 25 0 fs fs foot 0 0 0 22 -66577 -262144 -1 0 1;
#X obj 101 239 tgl 50 0 kds kds empty 17 7 0 10 -33289 -262144 -1 0
1;
#X obj 201 239 tgl 50 0 kfs kfs empty 17 7 0 10 -33289 -262144 -1 0
1;
#X obj 253 239 tgl 50 0 kgs kgs empty 17 7 0 10 -33289 -262144 -1 0
1;
#X obj 305 239 tgl 50 0 kas kas empty 17 7 0 10 -33289 -262144 -1 0
1;
#X obj 409 239 tgl 50 0 key14 key14 empty 17 7 0 10 -33289 -262144
-1 0 1;
#X obj 462 239 tgl 50 0 key16 key16 empty 17 7 0 10 -33289 -262144
-1 0 1;
#X obj 562 239 tgl 50 0 key19 key19 empty 17 7 0 10 -33289 -262144
-1 0 1;
#X obj 615 239 tgl 50 0 key21 key21 empty 17 7 0 10 -33289 -262144
-1 0 1;
#X obj 668 239 tgl 50 0 key23 key23 empty 17 7 0 10 -33289 -262144
-1 0 1;
#X obj 20 292 tgl 50 0 kc kc empty 17 7 0 10 -262144 -1 -1 0 1;
#X obj 181 19 vsl 40 150 0.01 2 1 1 vol vol vol 0 -9 0 22 -99865 -262144
-4160 12323 0;
#N canvas 214 221 692 573 desktop-stuff 0;
#X obj 24 95 s knob1;
#X obj 43 49 r send-all-vals;
#X obj 84 96 s knob2;
#X obj 44 124 s knob3;
#X obj 99 122 s knob4;
#X obj 116 162 s exp;
#X obj 208 35 r screenLine1;
#X obj 206 69 r screenLine2;
#X obj 205 104 r screenLine3;
#X obj 202 134 r screenLine4;
#X obj 204 175 r screenLine5;
#X obj 400 208 print;
#X obj 67 240 r led;
#X msg 69 429 \; led-canvas color \$1 0;
#X obj 68 335 sel 0 1 2 3 4 5 6 7;
#X msg 68 365 22;
#X msg 111 365 13;
#X msg 155 366 15;
#X msg 198 364 16;
#X msg 250 367 17;
#X msg 306 367 18;
#X msg 351 376 19;
#X obj 67 284 % 8;
#X msg 396 374 0;
#X obj 202 257 loadbang;
#X msg 202 279 0;
#X connect 1 0 0 0;
#X connect 1 0 2 0;
#X connect 1 0 3 0;
#X connect 1 0 4 0;
#X connect 1 0 5 0;
#X connect 6 0 11 0;
#X connect 7 0 11 0;
#X connect 8 0 11 0;
#X connect 9 0 11 0;
#X connect 10 0 11 0;
#X connect 12 0 22 0;
#X connect 14 0 15 0;
#X connect 14 1 16 0;
#X connect 14 2 17 0;
#X connect 14 3 18 0;
#X connect 14 4 19 0;
#X connect 14 5 20 0;
#X connect 14 6 21 0;
#X connect 14 7 23 0;
#X connect 15 0 13 0;
#X connect 16 0 13 0;
#X connect 17 0 13 0;
#X connect 18 0 13 0;
#X connect 19 0 13 0;
#X connect 20 0 13 0;
#X connect 21 0 13 0;
#X connect 22 0 14 0;
#X connect 23 0 13 0;
#X connect 24 0 25 0;
#X connect 25 0 14 0;
#X restore 53 608 pd desktop-stuff;
#X obj 46 188 cnv 15 25 25 empty led-canvas empty 20 12 0 14 -1 -262144
0;
#X obj 53 19 vsl 40 150 0 1 0 0 knob2 knob2 k2 0 -9 0 22 -66577 -262144
-4160 7450 0;
#N canvas 2 101 450 250 (subpatch) 0;
#X array dac 400 float 3;
#A 0 0 0 0 0 0 0 0 0 0 0 0 0 0 0 0 0 0 0 0 0 0 0 0 0 0 0 0 0 0 0 0
0 0 0 0 0 0 0 0 0 0 0 0 0 0 0 0 0 0 0 0 0 0 0 0 0 0 0 0 0 0 0 0 0 0
0 0 0 0 0 0 0 0 0 0 0 0 0 0 0 0 0 0 0 0 0 0 0 0 0 0 0 0 0 0 0 0 0 0
0 0 0 0 0 0 0 0 0 0 0 0 0 0 0 0 0 0 0 0 0 0 0 0 0 0 0 0 0 0 0 0 0 0
0 0 0 0 0 0 0 0 0 0 0 0 0 0 0 0 0 0 0 0 0 0 0 0 0 0 0 0 0 0 0 0 0 0
0 0 0 0 0 0 0 0 0 0 0 0 0 0 0 0 0 0 0 0 0 0 0 0 0 0 0 0 0 0 0 0 0 0
0 0 0 0 0 0 0 0 0 0 0 0 0 0 0 0 0 0 0 0 0 0 0 0 0 0 0 0 0 0 0 0 0 0
0 0 0 0 0 0 0 0 0 0 0 0 0 0 0 0 0 0 0 0 0 0 0 0 0 0 0 0 0 0 0 0 0 0
0 0 0 0 0 0 0 0 0 0 0 0 0 0 0 0 0 0 0 0 0 0 0 0 0 0 0 0 0 0 0 0 0 0
0 0 0 0 0 0 0 0 0 0 0 0 0 0 0 0 0 0 0 0 0 0 0 0 0 0 0 0 0 0 0 0 0 0
0 0 0 0 0 0 0 0 0 0 0 0 0 0 0 0 0 0 0 0 0 0 0 0 0 0 0 0 0 0 0 0 0 0
0 0 0 0 0 0 0 0 0 0 0 0 0 0 0 0 0 0 0 0 0 0 0 0 0 0 0 0 0;
#X coords 0 1 400 -1 150 50 1 0 0;
#X restore 315 16 graph;
#N canvas 67 87 1533 813 keyboard-keys 0;
#X obj 141 -22 key;
#X msg 141 44 1;
#X obj 229 -22 keyup;
#X msg 197 52 0;
#X obj 197 151 sel 1 0;
#X obj 194 234 s notes;
#X obj 371 314 key;
#X msg 371 380 1;
#X obj 428 314 keyup;
#X msg 460 373 0;
#X obj 395 483 sel 1 0;
#X obj 395 549 s notes;
#X obj 557 314 key;
#X msg 557 380 1;
#X obj 613 314 keyup;
#X msg 613 380 0;
#X obj 556 479 sel 1 0;
#X obj 557 545 s notes;
#X obj 878 271 key;
#X msg 878 340 1;
#X obj 933 271 keyup;
#X msg 933 337 0;
#X obj 900 448 sel 1 0;
#X obj 900 514 s notes;
#X obj 1026 271 key;
#X msg 1026 334 1;
#X obj 1082 271 keyup;
#X msg 1082 337 0;
#X obj 1047 448 sel 1 0;
#X obj 1047 516 s notes;
#X obj 1174 271 key;
#X msg 1175 334 1;
#X obj 1230 271 keyup;
#X msg 1230 337 0;
#X obj 1196 448 sel 1 0;
#X obj 1195 516 s notes;
#X obj 1297 271 key;
#X msg 1297 334 1;
#X obj 1353 271 keyup;
#X msg 1353 340 0;
#X obj 1318 448 sel 1 0;
#X obj 1318 514 s notes;
#X obj 194 297 key;
#X msg 194 363 1;
#X obj 270 314 keyup;
#X msg 270 380 0;
#X obj 235 483 sel 1 0;
#X obj 235 549 s notes;
#X obj 309 -22 key;
#X msg 309 44 1;
#X obj 365 -22 keyup;
#X msg 365 44 0;
#X obj 330 126 sel 1 0;
#X obj 330 234 s notes;
#X obj 886 -22 key;
#X msg 886 44 1;
#X obj 942 -22 keyup;
#X msg 942 44 0;
#X obj 907 126 sel 1 0;
#X obj 907 234 s notes;
#X obj 1033 -22 key;
#X msg 1033 44 1;
#X obj 1089 -22 keyup;
#X msg 1089 44 0;
#X obj 1054 126 sel 1 0;
#X obj 1054 234 s notes;
#X obj 1172 -22 key;
#X msg 1172 44 1;
#X obj 1234 -22 keyup;
#X msg 1234 44 0;
#X obj 1199 126 sel 1 0;
#X obj 1199 234 s notes;
#X obj -42 1056 key;
#X msg -42 1089 1;
#X obj 37 1053 keyup;
#X msg 37 1086 0;
#X obj 2 1193 sel 1 0;
#X msg 2 1226 60 100;
#X msg 42 1226 60 0;
#X obj 2 1259 s notes;
#X obj -41 1089 sel 122;
#X obj 82 1083 sel 122;
#X text -42 1025 z;
#X obj 186 1054 key;
#X msg 186 1087 1;
#X obj 242 1054 keyup;
#X msg 242 1087 0;
#X obj 206 1190 sel 1 0;
#X obj 191 1260 s notes;
#X text 186 1023 x;
#X obj 187 1087 sel 120;
#X obj 242 1087 sel 120;
#X msg 191 1227 62 100;
#X msg 247 1227 62 0;
#X obj 383 1055 key;
#X msg 383 1088 1;
#X obj 439 1055 keyup;
#X msg 439 1088 0;
#X obj 405 1191 sel 1 0;
#X obj 388 1261 s notes;
#X obj 551 1054 key;
#X msg 551 1087 1;
#X obj 607 1054 keyup;
#X msg 607 1087 0;
#X obj 567 1197 sel 1 0;
#X obj 556 1260 s notes;
#X obj 726 1056 key;
#X msg 726 1089 1;
#X obj 782 1056 keyup;
#X msg 782 1089 0;
#X obj 746 1193 sel 1 0;
#X obj 731 1262 s notes;
#X obj 882 1050 key;
#X msg 882 1083 1;
#X obj 938 1050 keyup;
#X msg 938 1083 0;
#X obj 902 1188 sel 1 0;
#X obj 887 1256 s notes;
#X obj 1044 1052 key;
#X msg 1044 1085 1;
#X obj 1100 1052 keyup;
#X msg 1100 1085 0;
#X obj 1064 1193 sel 1 0;
#X obj 1049 1258 s notes;
#X obj 116 727 key;
#X msg 116 793 1;
#X obj 205 731 keyup;
#X msg 168 803 0;
#X obj 116 892 sel 1 0;
#X obj 118 989 s notes;
#X obj 291 731 key;
#X msg 291 797 1;
#X obj 375 720 keyup;
#X msg 372 797 0;
#X obj 321 904 sel 1 0;
#X obj 310 983 s notes;
#X obj 609 709 key;
#X msg 609 775 1;
#X obj 696 719 keyup;
#X msg 696 785 0;
#X obj 614 896 sel 1 0;
#X obj 614 929 s notes;
#X obj 828 729 key;
#X msg 831 792 1;
#X obj 888 718 keyup;
#X msg 888 784 0;
#X obj 831 891 sel 1 0;
#X obj 831 957 s notes;
#X obj 996 736 key;
#X msg 996 769 1;
#X obj 1068 739 keyup;
#X msg 1068 772 0;
#X obj 1041 879 sel 1 0;
#X obj 1041 945 s notes;
#X obj 194 330 sel 113;
#X obj 270 347 sel 113;
#X msg 235 516 72 100;
#X msg 275 516 72 0;
#X text 194 266 q;
#X text 141 -53 2;
#X obj 141 11 sel 50;
#X obj 229 11 sel 50;
#X msg 146 184 73 100;
#X msg 234 184 73 0;
#X msg 363 516 74 100;
#X msg 435 516 74 0;
#X msg 330 159 75 100;
#X msg 370 184 75 0;
#X msg 557 512 76 100;
#X msg 645 512 76 0;
#X msg 900 481 77 100;
#X msg 953 476 77 0;
#X msg 863 184 78 100;
#X msg 947 184 78 0;
#X msg 1006 476 79 100;
#X msg 1087 476 79 0;
#X msg 1025 184 80 100;
#X msg 1094 184 80 0;
#X msg 1159 476 81 100;
#X msg 1236 476 81 0;
#X msg 1199 159 82 100;
#X msg 1259 184 82 0;
#X msg 1318 481 83 100;
#X obj 371 347 sel 119;
#X obj 460 340 sel 119;
#X text 336 270 w;
#X text 309 -53 3;
#X obj 309 11 sel 51;
#X obj 365 11 sel 51;
#X obj 557 347 sel 101;
#X obj 613 347 sel 101;
#X obj 849 314 sel 114;
#X obj 933 304 sel 114;
#X text 878 270 r;
#X text 525 293 e;
#X text 1026 270 t;
#X text 1175 270 y;
#X text 1297 270 u;
#X text 1172 -53 7;
#X text 1033 -53 6;
#X text 886 -53 5;
#X obj 1026 301 sel 116;
#X obj 1082 304 sel 116;
#X obj 886 11 sel 53;
#X obj 942 11 sel 53;
#X obj 1033 11 sel 54;
#X obj 1089 11 sel 54;
#X obj 1175 301 sel 121;
#X obj 1230 304 sel 121;
#X obj 1172 11 sel 55;
#X obj 1234 11 sel 55;
#X obj 1297 301 sel 117;
#X obj 1375 314 sel 117;
#X msg 388 1228 64 100;
#X msg 444 1228 64 0;
#X msg 556 1227 65 100;
#X msg 612 1227 65 0;
#X msg 731 1229 67 100;
#X msg 787 1229 67 0;
#X msg 887 1223 69 100;
#X msg 943 1223 69 0;
#X msg 1049 1225 71 100;
#X msg 1105 1225 71 0;
#X obj 384 1088 sel 99;
#X obj 439 1088 sel 99;
#X obj 552 1087 sel 118;
#X obj 607 1087 sel 118;
#X obj 727 1089 sel 98;
#X obj 782 1089 sel 98;
#X obj 883 1083 sel 110;
#X obj 938 1083 sel 110;
#X obj 1045 1085 sel 109;
#X obj 1100 1085 sel 109;
#X obj 1078 757 sel 106;
#X obj 978 759 sel 106;
#X obj 888 751 sel 104;
#X obj 798 751 sel 104;
#X obj 696 752 sel 103;
#X obj 609 742 sel 103;
#X obj 116 760 sel 115;
#X obj 199 767 sel 115;
#X obj 291 764 sel 100;
#X obj 372 764 sel 100;
#X text 116 696 s;
#X text 261 690 d;
#X text 622 672 g;
#X text 828 698 h;
#X text 996 705 j;
#X text 383 1024 c;
#X text 551 1023 v;
#X text 726 1025 b;
#X text 882 1019 n;
#X text 1070 1010 m;
#X msg 82 950 61 100;
#X msg 171 950 61 0;
#X msg 279 944 63 100;
#X msg 355 944 63 0;
#X msg 614 962 66 100;
#X msg 690 932 66 0, f 5;
#X msg 831 924 68 100;
#X msg 929 931 68 0;
#X msg 1041 912 70 100;
#X msg 1110 919 70 0;
#X obj 235 450 r key13;
#X obj 235 417 s key13;
#X obj 197 85 s key14;
#X obj 197 118 r key14;
#X obj 395 417 s key15;
#X obj 395 450 r key15;
#X obj 330 93 s key16;
#X obj 329 125 r key16;
#X obj 557 413 s key17;
#X obj 557 446 r key17;
#X obj 900 382 s key18;
#X obj 900 415 r key18;
#X obj 907 93 s key19;
#X obj 906 125 r key19;
#X obj 1047 382 s key20;
#X obj 1047 415 r key20;
#X obj 1054 93 s key21;
#X obj 1053 125 r key21;
#X obj 1196 382 s key22;
#X obj 1196 415 r key22;
#X obj 1199 93 s key23;
#X obj 1198 125 r key23;
#X obj 1318 382 s key24;
#X obj 1318 415 r key24;
#X text -70 455 1;
#X obj 276 1322 keyup;
#X msg 1382 476 83 0;
#X obj -65 -5 key;
#X msg -65 61 1;
#X obj 19 -5 keyup;
#X msg 19 61 0;
#X text -37 -36 `;
#X obj -16 110 s keyapost;
#X obj 2 1127 s kc;
#X obj 2 1160 r kc;
#X obj 207 1128 s kd;
#X obj 206 1161 r kd;
#X obj 404 1129 s ke;
#X obj 403 1162 r ke;
#X obj 572 1128 s kf;
#X obj 571 1161 r kf;
#X obj 747 1130 s kg;
#X obj 747 1163 r kg;
#X obj 902 1157 r ka;
#X obj 903 1124 s ka;
#X obj 1066 1126 s kb;
#X obj 1064 1159 r kb;
#X obj 116 826 s kcs;
#X obj 116 859 r kcs;
#X obj 321 838 s kds;
#X obj 321 871 r kds;
#X obj 645 826 s kfs;
#X obj 642 865 r kfs;
#X obj 831 825 s kgs;
#X obj 831 858 r kgs;
#X obj 1040 813 s kas;
#X obj 1040 846 r kas;
#X obj -3 486 key;
#X obj 66 486 keyup;
#X obj -3 519 sel 49;
#X obj 66 519 sel 49;
#X obj -3 552 t b b;
#X msg -26 630 1;
#X obj 4 704 change;
#X msg 20 590 stop;
#X msg 60 663 0;
#X obj 60 630 delay 250;
#X obj 4 737 s aux;
#X obj 48 1397 route 1 2 3 4 5 6 7 8 9 10 11 12 13 14 15 16 17 18 19
20 21 22 23 24 25 26 27 28 29 30 31 32 33 34 35 36 37 38 39 40 41 42
43 44 45 46 47 48, f 140;
#X obj 45 1447 route 49 50 51 52 53 54 55 56 57 58 59 60 61 62 63 64
65 66 67 68 69 70 71 72 73 74 75 76 77 78 79 80 81 82 83 84 85 86 87
88 89 90 91 92 93, f 140;
#X obj 27 1495 route 94 95 96 97 98 99 100 101 102 103 104 105 106
107 108 109 110 111 112 113 114 115 116 117 118 119 120 121 122 123
124 125 126 127 128, f 140;
#X obj 62 1667 route 129 130 131 132 133 134 135 136 137 138 139 140
141 142 143 144 145 146 147 148 149 150 151 152 153 154 155 156 157
158 159 160, f 141;
#X floatatom 167 1323 5 0 0 0 - - -, f 5;
#X obj -57 1391 print;
#X obj 114 1321 key;
#X obj 92 1350 pack 100 1;
#X obj 231 1353 pack 100 0;
#X obj 571 1630 s kcv;
#X obj 592 1600 s kcsv;
#X obj 632 1628 s kdv;
#X obj 662 1600 s kdsv;
#X obj 692 1628 s kev;
#X obj 750 1630 s kfv;
#X obj 812 1629 s kgv;
#X obj 870 1630 s kav;
#X obj 770 1598 s kfsv;
#X obj 928 1629 s kbv;
#X obj 837 1599 s kgsv;
#X obj 905 1600 s kasv;
#X text 251 1549 kcv = key c \, visual \; this sets the gui keyboard
;
#X obj -65 28 sel 96;
#X obj 19 28 sel 96;
#X obj 433 1739 key;
#X msg 437 1798 1;
#X obj 531 1733 key;
#X text 433 1708 +;
#X text 544 1710 -;
#X obj 433 1768 sel 61;
#X obj 533 1759 sel 45;
#X obj 517 1838 + 0, f 5;
#X msg 526 1801 -1;
#X obj 444 1843 float;
#X floatatom 452 1935 5 0 0 0 - - -, f 5;
#X floatatom 445 1871 5 0 0 0 - - -, f 5;
#X obj 719 1738 key;
#X msg 720 1798 1;
#X obj 814 1733 key;
#X msg 809 1801 -1;
#X obj 727 1843 float;
#X floatatom 735 1935 5 0 0 0 - - -, f 5;
#X obj 800 1838 + 0, f 5;
#X obj 716 1768 sel 93;
#X obj 816 1759 sel 91;
#X text 716 1708 [;
#X text 827 1710 ];
#X obj 739 1970 s SampleIndex;
#X obj 456 1970 s PatchIndex;
#X connect 0 0 160 0;
#X connect 1 0 265 0;
#X connect 2 0 161 0;
#X connect 3 0 265 0;
#X connect 4 0 162 0;
#X connect 4 1 163 0;
#X connect 6 0 183 0;
#X connect 7 0 267 0;
#X connect 8 0 184 0;
#X connect 9 0 267 0;
#X connect 10 0 164 0;
#X connect 10 1 165 0;
#X connect 12 0 189 0;
#X connect 13 0 271 0;
#X connect 14 0 190 0;
#X connect 15 0 271 0;
#X connect 16 0 168 0;
#X connect 16 1 169 0;
#X connect 18 0 191 0;
#X connect 19 0 273 0;
#X connect 20 0 192 0;
#X connect 21 0 273 0;
#X connect 22 0 170 0;
#X connect 22 1 171 0;
#X connect 24 0 201 0;
#X connect 25 0 277 0;
#X connect 26 0 202 0;
#X connect 27 0 277 0;
#X connect 28 0 174 0;
#X connect 28 1 175 0;
#X connect 30 0 207 0;
#X connect 31 0 281 0;
#X connect 32 0 208 0;
#X connect 33 0 281 0;
#X connect 34 0 178 0;
#X connect 34 1 179 0;
#X connect 36 0 211 0;
#X connect 37 0 285 0;
#X connect 38 0 212 0;
#X connect 39 0 285 0;
#X connect 40 0 182 0;
#X connect 40 1 289 0;
#X connect 42 0 154 0;
#X connect 43 0 264 0;
#X connect 44 0 155 0;
#X connect 45 0 264 0;
#X connect 46 0 156 0;
#X connect 46 1 157 0;
#X connect 48 0 187 0;
#X connect 49 0 269 0;
#X connect 50 0 188 0;
#X connect 51 0 269 0;
#X connect 52 0 166 0;
#X connect 52 1 167 0;
#X connect 54 0 203 0;
#X connect 55 0 275 0;
#X connect 56 0 204 0;
#X connect 57 0 275 0;
#X connect 58 0 172 0;
#X connect 58 1 173 0;
#X connect 60 0 205 0;
#X connect 61 0 279 0;
#X connect 62 0 206 0;
#X connect 63 0 279 0;
#X connect 64 0 176 0;
#X connect 64 1 177 0;
#X connect 66 0 209 0;
#X connect 67 0 283 0;
#X connect 68 0 210 0;
#X connect 69 0 283 0;
#X connect 70 0 180 0;
#X connect 70 1 181 0;
#X connect 72 0 80 0;
#X connect 73 0 296 0;
#X connect 74 0 81 0;
#X connect 75 0 296 0;
#X connect 76 0 77 0;
#X connect 76 1 78 0;
#X connect 77 0 79 0;
#X connect 78 0 79 0;
#X connect 80 0 73 0;
#X connect 81 0 75 0;
#X connect 83 0 90 0;
#X connect 84 0 298 0;
#X connect 85 0 91 0;
#X connect 86 0 298 0;
#X connect 87 0 92 0;
#X connect 87 1 93 0;
#X connect 90 0 84 0;
#X connect 91 0 86 0;
#X connect 92 0 88 0;
#X connect 93 0 88 0;
#X connect 94 0 223 0;
#X connect 95 0 300 0;
#X connect 96 0 224 0;
#X connect 97 0 300 0;
#X connect 98 0 213 0;
#X connect 98 1 214 0;
#X connect 100 0 225 0;
#X connect 101 0 302 0;
#X connect 102 0 226 0;
#X connect 103 0 302 0;
#X connect 104 0 215 0;
#X connect 104 1 216 0;
#X connect 106 0 227 0;
#X connect 107 0 304 0;
#X connect 108 0 228 0;
#X connect 109 0 304 0;
#X connect 110 0 217 0;
#X connect 110 1 218 0;
#X connect 112 0 229 0;
#X connect 113 0 307 0;
#X connect 114 0 230 0;
#X connect 115 0 307 0;
#X connect 116 0 219 0;
#X connect 116 1 220 0;
#X connect 118 0 231 0;
#X connect 119 0 308 0;
#X connect 120 0 232 0;
#X connect 121 0 308 0;
#X connect 122 0 221 0;
#X connect 122 1 222 0;
#X connect 124 0 239 0;
#X connect 125 0 310 0;
#X connect 126 0 240 0;
#X connect 127 0 310 0;
#X connect 128 0 253 0;
#X connect 128 1 254 0;
#X connect 130 0 241 0;
#X connect 131 0 312 0;
#X connect 132 0 242 0;
#X connect 133 0 312 0;
#X connect 134 0 255 0;
#X connect 134 1 256 0;
#X connect 136 0 238 0;
#X connect 137 0 314 0;
#X connect 138 0 237 0;
#X connect 139 0 314 0;
#X connect 140 0 257 0;
#X connect 140 1 258 0;
#X connect 142 0 236 0;
#X connect 143 0 316 0;
#X connect 144 0 235 0;
#X connect 145 0 316 0;
#X connect 146 0 259 0;
#X connect 146 1 260 0;
#X connect 148 0 234 0;
#X connect 149 0 318 0;
#X connect 150 0 233 0;
#X connect 151 0 318 0;
#X connect 152 0 261 0;
#X connect 152 1 262 0;
#X connect 154 0 43 0;
#X connect 155 0 45 0;
#X connect 156 0 47 0;
#X connect 157 0 47 0;
#X connect 160 0 1 0;
#X connect 161 0 3 0;
#X connect 162 0 5 0;
#X connect 163 0 5 0;
#X connect 164 0 11 0;
#X connect 165 0 11 0;
#X connect 166 0 53 0;
#X connect 167 0 53 0;
#X connect 168 0 17 0;
#X connect 169 0 17 0;
#X connect 170 0 23 0;
#X connect 171 0 23 0;
#X connect 172 0 59 0;
#X connect 173 0 59 0;
#X connect 174 0 29 0;
#X connect 175 0 29 0;
#X connect 176 0 65 0;
#X connect 177 0 65 0;
#X connect 178 0 35 0;
#X connect 179 0 35 0;
#X connect 180 0 71 0;
#X connect 181 0 71 0;
#X connect 182 0 41 0;
#X connect 183 0 7 0;
#X connect 184 0 9 0;
#X connect 187 0 49 0;
#X connect 188 0 51 0;
#X connect 189 0 13 0;
#X connect 190 0 15 0;
#X connect 191 0 19 0;
#X connect 192 0 21 0;
#X connect 201 0 25 0;
#X connect 202 0 27 0;
#X connect 203 0 55 0;
#X connect 204 0 57 0;
#X connect 205 0 61 0;
#X connect 206 0 63 0;
#X connect 207 0 31 0;
#X connect 208 0 33 0;
#X connect 209 0 67 0;
#X connect 210 0 69 0;
#X connect 211 0 37 0;
#X connect 212 0 39 0;
#X connect 213 0 99 0;
#X connect 214 0 99 0;
#X connect 215 0 105 0;
#X connect 216 0 105 0;
#X connect 217 0 111 0;
#X connect 218 0 111 0;
#X connect 219 0 117 0;
#X connect 220 0 117 0;
#X connect 221 0 123 0;
#X connect 222 0 123 0;
#X connect 223 0 95 0;
#X connect 224 0 97 0;
#X connect 225 0 101 0;
#X connect 226 0 103 0;
#X connect 227 0 107 0;
#X connect 228 0 109 0;
#X connect 229 0 113 0;
#X connect 230 0 115 0;
#X connect 231 0 119 0;
#X connect 232 0 121 0;
#X connect 233 0 151 0;
#X connect 234 0 149 0;
#X connect 235 0 145 0;
#X connect 236 0 143 0;
#X connect 237 0 139 0;
#X connect 238 0 137 0;
#X connect 239 0 125 0;
#X connect 240 0 127 0;
#X connect 241 0 131 0;
#X connect 242 0 133 0;
#X connect 253 0 129 0;
#X connect 254 0 129 0;
#X connect 255 0 135 0;
#X connect 256 0 135 0;
#X connect 257 0 141 0;
#X connect 258 0 141 0;
#X connect 259 0 147 0;
#X connect 260 0 147 0;
#X connect 261 0 153 0;
#X connect 262 0 153 0;
#X connect 263 0 46 0;
#X connect 266 0 4 0;
#X connect 268 0 10 0;
#X connect 270 0 52 0;
#X connect 272 0 16 0;
#X connect 274 0 22 0;
#X connect 276 0 58 0;
#X connect 278 0 28 0;
#X connect 280 0 64 0;
#X connect 282 0 34 0;
#X connect 284 0 70 0;
#X connect 286 0 40 0;
#X connect 288 0 339 0;
#X connect 289 0 41 0;
#X connect 290 0 353 0;
#X connect 291 0 295 0;
#X connect 292 0 354 0;
#X connect 293 0 295 0;
#X connect 297 0 76 0;
#X connect 299 0 87 0;
#X connect 301 0 98 0;
#X connect 303 0 104 0;
#X connect 305 0 110 0;
#X connect 306 0 116 0;
#X connect 309 0 122 0;
#X connect 311 0 128 0;
#X connect 313 0 134 0;
#X connect 315 0 140 0;
#X connect 317 0 146 0;
#X connect 319 0 152 0;
#X connect 320 0 322 0;
#X connect 321 0 323 0;
#X connect 322 0 324 0;
#X connect 323 0 329 0;
#X connect 324 0 325 0;
#X connect 324 1 327 0;
#X connect 325 0 326 0;
#X connect 326 0 330 0;
#X connect 327 0 329 0;
#X connect 328 0 326 0;
#X connect 329 0 328 0;
#X connect 333 5 346 0;
#X connect 333 6 344 0;
#X connect 333 24 345 0;
#X connect 333 26 342 0;
#X connect 333 28 340 0;
#X connect 337 0 335 0;
#X connect 337 0 338 0;
#X connect 338 0 331 0;
#X connect 338 0 332 0;
#X connect 338 0 333 0;
#X connect 338 0 336 0;
#X connect 338 0 334 0;
#X connect 339 0 331 0;
#X connect 339 0 332 0;
#X connect 339 0 333 0;
#X connect 339 0 334 0;
#X connect 353 0 291 0;
#X connect 354 0 293 0;
#X connect 355 0 360 0;
#X connect 356 0 362 0;
#X connect 357 0 361 0;
#X connect 360 0 356 0;
#X connect 361 0 363 0;
#X connect 362 0 364 0;
#X connect 363 0 362 0;
#X connect 364 0 362 1;
#X connect 364 0 366 0;
#X connect 365 0 379 0;
#X connect 366 0 365 0;
#X connect 367 0 374 0;
#X connect 368 0 373 0;
#X connect 369 0 375 0;
#X connect 370 0 373 0;
#X connect 371 0 373 1;
#X connect 371 0 372 0;
#X connect 372 0 378 0;
#X connect 373 0 371 0;
#X connect 374 0 368 0;
#X connect 375 0 370 0;
#X restore 224 608 pd keyboard-keys;
#X obj 317 69 tgl 50 0 empty kcsv empty 17 7 0 10 -33289 -262144 -1
0 1;
#X obj 340 123 tgl 50 0 empty kdv empty 17 7 0 10 -262144 -1 -1 0 1
;
#X obj 370 69 tgl 50 0 empty kdsv empty 17 7 0 10 -33289 -262144 -1
0 1;
#X obj 393 123 tgl 50 0 empty kev empty 17 7 0 10 -262144 -1 -1 0 1
;
#X obj 446 123 tgl 50 0 empty kfv empty 17 7 0 10 -262144 -1 -1 0 1
;
#X obj 471 69 tgl 50 0 empty kfsv empty 17 7 0 10 -33289 -262144 -1
0 1;
#X obj 499 123 tgl 50 0 empty kgv empty 17 7 0 10 -262144 -1 -1 0 1
;
#X obj 524 69 tgl 50 0 empty kgsv empty 17 7 0 10 -33289 -262144 -1
0 1;
#X obj 552 123 tgl 50 0 empty kav empty 17 7 0 10 -262144 -1 -1 0 1
;
#X obj 577 69 tgl 50 0 empty kasv empty 17 7 0 10 -33289 -262144 -1
0 1;
#X obj 605 123 tgl 50 0 empty kbv empty 17 7 0 10 -262144 -33289 -1
0 1;
#X obj 287 123 tgl 50 0 empty kcv empty 17 7 0 10 -262144 -1 -1 0 1
;
#N canvas 2 101 450 250 (subpatch) 0;
#X array adc 400 float 3;
#A 0 -0.118256 -0.141025 -0.332355 -0.0858307 -0.191092 -0.280261 -0.195026
-0.214219 -0.00548363 -0.0852346 -0.156403 0.0350475 0.115633 0.165701
0.172019 0.264764 0.263095 0.43869 0.386 0.47195 0.53525 0.701308 0.546098
0.525355 0.509858 0.707626 0.782132 0.969768 1 0.796914 1 1 1 0.932097
1 1 1 0.874639 0.866413 0.833988 0.792265 0.583887 0.447154 0.599265
0.368595 0.378013 0.587225 0.615478 0.670552 0.648618 0.747085 0.521064
0.494719 0.424862 0.384331 0.340939 0.440478 0.391245 0.37694 0.374556
0.504851 0.612378 0.45228 0.413299 0.340462 0.250816 0.255466 0.254393
0.284314 0.412464 0.121474 0.514746 0.463605 0.48697 0.33319 0.669479
0.418663 0.610709 0.761271 0.984788 0.733495 0.919104 0.73266 0.942588
0.791669 0.849247 0.820279 0.865698 0.644207 0.830531 0.864387 0.799537
0.704527 0.720978 0.574231 0.547409 0.473976 0.623703 0.334024 0.231028
0.177264 0.354528 0.296235 0.175595 0.114918 0.277996 0.304937 0.385523
0.308514 0.287175 0.411987 0.236392 0.432014 0.397563 0.394464 0.343919
0.592232 0.388026 0.56982 0.633955 0.853777 0.877023 0.998735 0.975728
1 1 1 1 1 1 1 1 1 1 1 1 1 1 1 1 1 1 1 1 1 1 1 1 1 1 1 1 1 1 1 1 1 0.994921
1 1 1 0.932932 1 1 1 0.947237 0.959992 0.729561 0.749588 0.766635 0.733852
0.695467 0.666022 0.74029 0.654221 0.942707 0.79 0.918508 0.92864 0.930548
1 1 1 1 1 1 1 1 1 1 1 1 1 1 1 1 1 1 1 1 1 1 1 1 1 1 1 1 1 1 1 1 1 1
1 1 1 1 1 0.995994 1 0.74923 0.749111 0.913501 0.653148 0.833511 0.947833
0.933886 0.907421 0.875115 1 1 1 0.992775 1 0.947952 1 1 1 1 1 1 1
1 0.977159 1 1 0.749588 1 0.953674 1 1 1 1 1 1 1 1 1 1 1 1 0.926375
0.948429 0.661612 0.517607 0.614524 0.526786 0.536561 0.542521 0.329614
0.295281 0.149965 0.196815 0.120044 0.0206232 0.183702 -0.179529 0.112772
-0.123739 -0.0544786 0.177741 0.231504 0.112891 0.247836 0.378609 0.279069
0.576735 0.414491 0.543237 0.51868 0.709295 0.820637 0.760317 0.811696
0.810504 0.946641 0.723004 1 0.894427 0.962734 0.876188 0.917077 0.77641
0.805855 0.683188 0.804663 0.764966 0.737429 0.759959 0.720859 0.835896
0.567079 0.880957 0.78845 0.70107 0.949144 0.871897 0.75376 1 0.90158
0.914335 0.962019 0.795484 0.693202 0.744939 0.749946 0.943899 0.692487
0.562668 0.686407 0.308514 0.503659 0.388622 0.199199 0.255466 0.122547
0.286937 0.315905 0.293016 0.406861 0.248194 0.304818 0.323772 0.189424
0.130773 0.196695 0.255346 0.417471 0.296235 0.531077 0.561476 0.797749
0.622869 0.581861 0.766158 0.742435 0.759602 0.789285 0.935316 0.814915
0.881195 0.939727 0.905156 1 1 1 1 1 1 0.909686 1 0.842929 0.862598
0.887156 0.543714 0.730634 0.530601 0.406981 0.281692 0.107288 0.0258684
0.0691414 -0.180364 -0.156164 -0.451088 -0.171304 -0.335217 -0.386715
-0.367165 -0.362754 -0.641942 -0.506878 -0.710368 -0.74017 -0.536323
-0.65887 -0.71466 -0.506639 -0.529885;
#X coords 0 1 400 -1 150 50 1 0 0;
#X restore 472 14 graph;
#X obj 20 188 tgl 25 0 aux aux aux 0 0 0 22 -262144 -1 -4160 0 1;
#X obj 72 292 tgl 50 0 kd kd empty 17 7 0 10 -262144 -1 -1 0 1;
#X obj 124 292 tgl 50 0 ke ke empty 17 7 0 10 -262144 -1 -1 0 1;
#X obj 176 292 tgl 50 0 kf kf empty 17 7 0 10 -262144 -1 -1 0 1;
#X obj 228 292 tgl 50 0 kg kg empty 17 7 0 10 -262144 -1 -1 0 1;
#X obj 280 292 tgl 50 0 ka ka empty 17 7 0 10 -262144 -1 -1 0 1;
#X obj 332 292 tgl 50 0 kb kb empty 17 7 0 10 -262144 -33289 -1 0 1
;
#X obj 384 292 tgl 50 0 key13 key13 empty 17 7 0 10 -262144 -1 -1 0
1;
#X obj 436 292 tgl 50 0 key15 key15 empty 17 7 0 10 -262144 -1 -1 0
1;
#X obj 488 292 tgl 50 0 key17 key17 empty 17 7 0 10 -262144 -1 -1 0
1;
#X obj 540 292 tgl 50 0 key18 key18 empty 17 7 0 10 -262144 -1 -1 0
1;
#X obj 592 292 tgl 50 0 key20 key20 empty 17 7 0 10 -262144 -1 -1 0
1;
#X obj 644 292 tgl 50 0 key22 key22 empty 17 7 0 10 -262144 -1 -1 0
1;
#X obj 696 292 tgl 50 0 key24 key24 empty 17 7 0 10 -262144 -33289
-1 0 1;
#X msg 11 381 ~/GIT_LOCAL_WORKING/A_PURE_DATA/Patches/Pow_Pows_Polybeats
, f 67;
#X msg 9 431 0;
#X obj 834 11 bng 30 250 50 0 major empty mjr 1 14 1 18 -33289 -262144
-258113;
#X obj 871 11 bng 30 250 50 0 major empty mjr 1 14 1 18 -33289 -262144
-258113;
#X obj 906 11 bng 30 250 50 0 major empty mjr 1 14 1 18 -33289 -262144
-258113;
#X obj 942 11 bng 30 250 50 0 major empty mjr 1 14 1 18 -33289 -262144
-258113;
#X obj 798 11 bng 30 250 50 0 major empty mjr 1 14 1 18 -33289 -262144
-258113;
#N canvas 67 87 1533 813 music_scales 0;
#X obj 1194 123 r kcv;
#X msg 1182 356 set \; kev \$1 \; kgv \$1 \;;
#X obj 1198 165 t b f;
#X msg 1142 195 1, f 7;
#X msg 1194 89 set \$1;
#X obj 1181 277 route 1 2 3 4 5 6 7 8 9 10 11 12;
#X obj 1177 230 pack f f;
#X msg 1192 48 2;
#X msg 1259 50 1;
#X obj 1259 17 r major;
#X obj 1477 169 bng 15 250 50 0 empty empty empty 17 7 0 10 -262144
-1 -1;
#X obj 1396 216 qlist;
#X obj 1477 190 bng 15 250 50 0 empty empty empty 17 7 0 10 -262144
-1 -1;
#X obj 1388 114 r tempo;
#X msg 1335 146 tempo \$1;
#X msg 1343 45 read ./sequence.txt;
#X obj 1376 26 bng 15 250 50 0 empty empty empty 17 7 0 10 -262144
-1 -1;
#X obj 1334 92 2;
#X obj -22 8 hsl 100 50 1 15 0 0 arp_seq_count empty sequence_count
-2 -8 0 22 -128992 -262144 -258113 0 1;
#X obj 908 48 list 3 5 7;
#X obj 872 78 del;
#X obj 891 142 print bang;
#X obj 913 109 list append;
#X obj 907 28 bng 15 250 50 0 empty empty empty 17 7 0 10 -262144 -1
-1;
#X obj 912 76 list split 2;
#X msg 977 611 \; readout 1 \; array99 resize 16 \; array99 bounds
0 0 127 16 \; array99 xlabel -0.5 0 1 2 3 4 5 6 7 8 9 10 \; array99
ylabel -1 0 1 2 3 4 5 6 7 8 9 10 \; array99 0 1 4 2 8 5 6 1 4 2 8;
#X msg -8 367 -1 -1 -1 -1 -1 -1 -1 -1 -1 -1 -1 -1 -1 -1 -1 -1, f 24
;
#X msg -5 406 3 3 3 3 3 3 3 3 3 3 3 3 3 3 3 3, f 16;
#X msg -6 457 64 64 64 64 64 64 64 64 64 64 64 64 64 64 64 64, f 23
;
#N canvas 0 50 450 250 (subpatch) 0;
#X array Scales 16 float 2;
#X coords 0 0 16 127 250 200 1 0 0;
#X restore 504 -140 graph;
#X msg 30 611 \; readout 1 \; Scales resize 16 \; Scales bounds 0 0
16 127 \; Scales xlabel 140 0 2 4 6 8 10 12 14 16 \; Scales ylabel
-1 10 20 30 40 50 60 70 80 90 100 110 120 \; Scales 0 11 64 59 23 59
3 23 59 100 121 21 38 54 11 122 22 \;;
#X msg -5 512 \; Scales 0 \$1 \$2 \$3 \$4 \$5 \$6 \$7 \$8 \$9 \$10
\$11 \$12 \$13 \$14 \$15 \$16, f 22;
#X obj 165 -43 array get Scales;
#X floatatom 166 -73 5 0 0 0 - - -, f 5;
#X obj 159 -101 int;
#X obj 38 15 tgl 15 0 empty empty empty 17 7 0 10 -262144 -1 -1 0 1
;
#X obj -27 -134 metro 333;
#X obj -25 -96 float;
#X obj 47 -103 + 1;
#X obj -25 -64 mod 16;
#X floatatom -24 -32 5 0 0 0 - - -, f 5;
#X obj 160 -135 r arp_seq_count;
#X obj 235 -9 int;
#X floatatom 163 15 5 0 0 0 - - -, f 5;
#X floatatom 235 20 5 0 0 0 - - -, f 5;
#X msg 370 487 set \$1 \$2 \$3 \$4 \$5 \$6 \$7 \$8 \$9 \$10 \$11 \$12
\$13 \$14 \$15 \$16;
#X obj 365 445 pack \$1 \$2 \$3 \$4 \$5 \$6 \$7 \$8 \$9 \$10 \$11 \$12
\$13 \$14 \$15 \$16;
#X msg 369 524 73 77 80 0 0 0 0 0 0 0 0 0 0 0 0 0;
#X floatatom 430 313 3 0 0 0 - - -, f 3;
#X floatatom 461 313 3 0 0 0 - - -, f 3;
#X floatatom 498 313 3 0 0 0 - - -, f 3;
#X floatatom 540 313 3 0 0 0 - - -, f 3;
#X floatatom 577 313 3 0 0 0 - - -, f 3;
#X floatatom 618 313 3 0 0 0 - - -, f 3;
#X floatatom 654 313 3 0 0 0 - - -, f 3;
#X floatatom 694 313 3 0 0 0 - - -, f 3;
#X floatatom 753 313 3 0 0 0 - - -, f 3;
#X floatatom 806 313 3 0 0 0 - - -, f 3;
#X floatatom 861 313 3 0 0 0 - - -, f 3;
#X floatatom 917 313 3 0 0 0 - - -, f 3;
#X floatatom 966 313 3 0 0 0 - - -, f 3;
#X floatatom 1019 313 3 0 0 0 - - -, f 3;
#X floatatom 1069 313 3 0 0 0 - - -, f 3;
#X floatatom 392 313 3 0 0 0 - - -, f 3;
#X obj 1035 409 r s16;
#X obj 982 409 r s15;
#X obj 932 409 r s14;
#X obj 882 409 r s13;
#X obj 833 409 r s12;
#X obj 781 409 r s11;
#X obj 737 409 r s10;
#X obj 683 409 r s9;
#X obj 637 409 r s8;
#X obj 589 409 r s7;
#X obj 541 409 r s6;
#X obj 487 409 r s5;
#X obj 441 409 r s4;
#X obj 301 409 r s1;
#X obj 347 409 r s2;
#X obj 396 409 r s3;
#X obj 319 353 s s1;
#X obj 365 353 s s2;
#X obj 414 353 s s3;
#X obj 459 353 s s4;
#X obj 505 353 s s5;
#X obj 559 353 s s6;
#X obj 607 349 s s7;
#X obj 655 353 s s8;
#X obj 709 352 s s9;
#X obj 755 353 s s10;
#X obj 808 355 s s11;
#X obj 862 355 s s12;
#X obj 920 352 s s13;
#X obj 973 352 s s14;
#X obj 1026 353 s s15;
#X obj 1076 352 s s16;
#X msg 396 61 4 6 8;
#X obj 402 269 unpack \$1 \$2 \$3 \$4;
#X obj 323 89 unpack \$1 \$2 \$3;
#X obj 121 323 s s1;
#X obj 187 324 s s2;
#X obj 251 322 s s3;
#X obj 82 -40 bng 15 250 50 0 empty empty empty 17 7 0 10 -262144 -1
-1;
#X obj 256 242 + 1;
#X text 444 154 21 IS A0 24 IS C0 MIDDLE C IS 60 3rd and 5th over the
root is major;
#X obj 173 57 r notes;
#X obj 184 121 bng 15 250 50 0 empty empty empty 17 7 0 10 -262144
-1 -1;
#X obj 208 131 unpack \$1 \$2;
#X floatatom 189 164 5 0 0 0 - - -, f 5;
#X obj 188 243 + 1;
#X obj 189 200 + 3;
#X obj 253 202 + 6;
#X obj 127 242 + 1;
#X obj 59 241 + 1;
#X floatatom 58 283 5 0 0 0 - - -, f 5;
#X floatatom 0 284 5 0 0 0 - - -, f 5;
#X floatatom 124 283 5 0 0 0 - - -, f 5;
#X floatatom 196 282 5 0 0 0 - - -, f 5;
#X floatatom 257 285 5 0 0 0 - - -, f 5;
#X obj 122 202 + 5;
#X obj 60 200 + 3;
#X obj 305 244 + 1;
#X floatatom 313 283 5 0 0 0 - - -, f 5;
#X obj 305 203 + 11;
#X connect 0 0 2 0;
#X connect 2 0 3 0;
#X connect 2 0 6 0;
#X connect 2 1 6 1;
#X connect 3 0 6 0;
#X connect 4 0 3 0;
#X connect 5 0 1 0;
#X connect 6 0 5 0;
#X connect 7 0 4 0;
#X connect 8 0 4 0;
#X connect 9 0 8 0;
#X connect 10 0 11 0;
#X connect 12 0 10 0;
#X connect 13 0 14 0;
#X connect 14 0 11 0;
#X connect 15 0 11 0;
#X connect 16 0 15 0;
#X connect 16 0 17 0;
#X connect 16 0 11 0;
#X connect 17 0 14 0;
#X connect 19 0 24 0;
#X connect 20 0 21 0;
#X connect 20 0 22 0;
#X connect 23 0 19 0;
#X connect 24 0 22 0;
#X connect 24 0 21 0;
#X connect 26 0 31 0;
#X connect 27 0 31 0;
#X connect 28 0 31 0;
#X connect 32 0 43 0;
#X connect 32 0 42 0;
#X connect 33 0 32 0;
#X connect 33 0 32 1;
#X connect 34 0 33 0;
#X connect 35 0 36 0;
#X connect 36 0 37 0;
#X connect 37 0 38 0;
#X connect 37 0 39 0;
#X connect 38 0 37 1;
#X connect 39 0 40 0;
#X connect 40 0 18 0;
#X connect 41 0 34 0;
#X connect 42 0 44 0;
#X connect 45 0 47 0;
#X connect 46 0 45 0;
#X connect 46 0 47 0;
#X connect 47 0 31 0;
#X connect 48 0 81 0;
#X connect 49 0 82 0;
#X connect 50 0 83 0;
#X connect 51 0 84 0;
#X connect 52 0 85 0;
#X connect 53 0 86 0;
#X connect 54 0 87 0;
#X connect 55 0 88 0;
#X connect 56 0 89 0;
#X connect 57 0 90 0;
#X connect 58 0 91 0;
#X connect 59 0 92 0;
#X connect 60 0 93 0;
#X connect 61 0 94 0;
#X connect 62 0 95 0;
#X connect 63 0 80 0;
#X connect 64 0 46 15;
#X connect 65 0 46 14;
#X connect 66 0 46 13;
#X connect 67 0 46 12;
#X connect 68 0 46 11;
#X connect 69 0 46 10;
#X connect 70 0 46 9;
#X connect 71 0 46 8;
#X connect 72 0 46 7;
#X connect 73 0 46 6;
#X connect 74 0 46 5;
#X connect 75 0 46 4;
#X connect 76 0 46 3;
#X connect 77 0 46 0;
#X connect 78 0 46 1;
#X connect 79 0 46 2;
#X connect 96 0 98 0;
#X connect 97 0 63 0;
#X connect 97 1 48 0;
#X connect 97 2 49 0;
#X connect 103 0 101 0;
#X connect 103 0 118 0;
#X connect 105 0 106 0;
#X connect 105 0 107 0;
#X connect 107 0 108 0;
#X connect 108 0 110 0;
#X connect 108 0 99 0;
#X connect 108 0 111 0;
#X connect 108 0 119 0;
#X connect 108 0 120 0;
#X connect 108 0 123 0;
#X connect 109 0 100 0;
#X connect 109 0 117 0;
#X connect 110 0 109 0;
#X connect 111 0 103 0;
#X connect 112 0 116 0;
#X connect 113 0 114 0;
#X connect 119 0 112 0;
#X connect 120 0 113 0;
#X connect 121 0 122 0;
#X connect 123 0 121 0;
#X coords 0 0 1 1 85 60 0;
#X restore 488 606 pd music_scales;
#X msg 556 748 ~/GIT_LOCAL_WORKING/A_PURE_DATA/Patches;
#X obj 960 748 r index;
#N canvas 67 87 1533 813 move_through_files 0;
#X msg 88 652 \; pd-main.pd menuclose \;;
#X msg 84 114 ls ~/GIT_LOCAL_WORKING/A_PURE_DATA/Patches | xargs;
#X obj 67 143 ggee/shell;
#X obj 67 77 r keyapost;
#X obj 841 227 list split 9;
#X floatatom 953 136 5 0 0 0 - - -, f 5;
#X obj 953 167 * 127;
#X obj 67 176 list prepend;
#X msg 85 704 \; pd open main.pd /home/spy/GIT_LOCAL_WORKING/A_PURE_DATA/Patches/AmbientFX
, f 75;
#X msg 85 777 \; pd-main.pd menuclose \;;
#X obj 848 268 list split 1;
#X msg 858 315 symbol /home/spy/GIT_LOCAL_WORKING/A_PURE_DATA/Patches/\$1
, f 74;
#X msg 49 432 set \; pd open \$1 \$2;
#X msg 862 391 /home/spy/GIT_LOCAL_WORKING/A_PURE_DATA/Patches/Sampler
, f 24;
#X obj 48 295 bng 15 250 50 0 empty empty empty 17 7 0 10 -262144 -1
-1;
#X msg 50 517 /home/spy/GIT_LOCAL_WORKING/A_PURE_DATA/Patches/Mutations23
, f 78;
#X msg 50 334 symbol main.pd;
#X obj 48 385 pack s s;
#X msg 854 352 set \$1;
#X obj 49 558 s currentPatch;
#X msg 47 484 set \$2;
#X obj 855 461 s browsePatch;
#X obj 47 259 r selectPatch;
#X obj 49 607 outlet;
#X obj 855 626 outlet;
#X obj 955 11 inlet;
#X obj 295 19 inlet;
#X msg 296 65 set ls \$1 | xargs;
#X floatatom 982 205 5 0 0 0 - - -, f 5;
#X obj 954 102 r index;
#X connect 1 0 2 0;
#X connect 2 0 7 0;
#X connect 3 0 1 0;
#X connect 4 1 10 0;
#X connect 5 0 6 0;
#X connect 6 0 1 0;
#X connect 6 0 4 1;
#X connect 6 0 28 0;
#X connect 7 0 4 0;
#X connect 10 0 11 0;
#X connect 11 0 18 0;
#X connect 11 0 17 1;
#X connect 14 0 17 0;
#X connect 16 0 17 0;
#X connect 17 0 12 0;
#X connect 17 0 20 0;
#X connect 18 0 13 0;
#X connect 18 0 21 0;
#X connect 18 0 24 0;
#X connect 20 0 15 0;
#X connect 20 0 19 0;
#X connect 20 0 23 0;
#X connect 22 0 14 0;
#X connect 25 0 5 0;
#X connect 26 0 27 0;
#X connect 29 0 5 0;
#X restore 560 787 pd move_through_files;
#X msg 10 483 ~/GIT_LOCAL_WORKING/PROD_SAMPLES/image2_w_color_jpg.wav
, f 68;
#X msg 8 547 ~/GIT_LOCAL_WORKING/PROD_SAMPLES/image1_w_color_jpg.wav
, f 68;
#X obj 555 511 bng 33 250 50 0 PickSample empty PickSample 17 7 0 10
-257985 -159808 -1;
#X floatatom 360 514 5 0 0 0 - - -, f 5;
#X floatatom 303 515 5 0 0 0 - - -, f 5;
#X obj 161 516 r SampleIndex;
#X obj 417 514 r SampleCount;
#X obj 552 348 bng 33 250 50 0 PickSample empty PickSample 17 7 0 10
-257985 -159808 -1;
#X floatatom 357 351 5 0 0 0 - - -, f 5;
#X floatatom 300 352 5 0 0 0 - - -, f 5;
#X obj 158 353 r PatchIndex;
#X obj 414 351 r PatchCount;
#X obj 12 354 r BrowsePatch;
#X obj 11 408 r CurrentPatch;
#X obj 9 457 r CurrentSample;
#X obj 681 579 loadbang;
#X msg 1003 39 set \$1 \;;
#X msg 1003 68 0.9;
#X obj 1003 10 r knob1;
#X msg 1096 38 set \$1 \;;
#X msg 1096 67 0.5;
#X msg 1193 39 set \$1 \;;
#X msg 1193 68 0.5;
#X msg 1290 39 set \$1 \;;
#X msg 1290 68 0.5;
#X obj 1096 8 r knob2;
#X obj 1193 10 r knob3;
#X obj 1290 10 r knob4;
#X msg 681 608 \; knob1 0.9 \; knob2 0.5 \; knob3 0.5 \; knob4 0.5
\; vol 0.8 \;;
#X obj 314 644 FileInterface;
#X obj 8 517 r browseSample;
#N canvas 67 87 1533 813 fileBrowser 0;
#X obj 315 63 r SampleIndex;
#X text 136 13 Path to Samples;
#X obj 402 120 s browseSample;
#X obj 176 63 r PickSample;
#X msg 150 34 ~/GIT_LOCAL_WORKING/PROD_SAMPLES;
#X obj 369 145 s SampleCount;
#X obj 53 35 loadbang;
#X obj 196 232 r PickSample;
#X obj 53 172 loadbang;
#X text 156 182 Path to Patches;
#X obj 126 308 s CurrentPatch;
#X obj 388 337 s PatchCount;
#X obj 265 321 s BrowsePatch;
#X obj 107 116 s CurrentSample;
#X msg 85 202 ~/GIT_LOCAL_WORKING/A_PURE_DATA/Patches;
#X obj 335 232 r PatchIndex;
#N canvas 67 87 1533 813 sample_song_browser 0;
#X msg 88 652 \; pd-main.pd menuclose \;;
#X obj 310 164 ggee/shell;
#X obj 763 152 list split 9;
#X floatatom 1022 61 5 0 0 0 - - -, f 5;
#X obj 310 208 list prepend;
#X msg 85 704 \; pd open main.pd /home/spy/GIT_LOCAL_WORKING/A_PURE_DATA/Patches/AmbientFX
, f 75;
#X msg 85 777 \; pd-main.pd menuclose \;;
#X msg 821 424 set \$1;
#X obj 28 587 outlet;
#X obj 780 453 outlet;
#X obj 1021 29 inlet;
#X obj 286 -14 inlet;
#X obj 78 62 inlet;
#X obj 771 314 pack symbol symbol;
#X obj 780 253 bng 15 250 50 0 empty empty empty 17 7 0 10 -262144
-1 -1;
#X obj 770 193 list split 1;
#X msg 284 82 ls ~/GIT_LOCAL_WORKING/PROD_SAMPLES | xargs;
#X obj 289 16 pack symbol;
#X msg 289 48 set ls \$1 | xargs;
#X obj 1181 265 list length;
#X floatatom 1185 293 5 0 0 0 - - -, f 5;
#X obj 1180 329 outlet;
#X msg 538 378 ~/GIT_LOCAL_WORKING/PROD_SAMPLES/image1_w_color_jpg.wav
, f 74;
#X obj 181 386 bng 15 250 50 0 empty empty empty 17 7 0 10 -262144
-1 -1;
#X msg 776 346 set \$2/\$1;
#X msg 171 497 ~/GIT_LOCAL_WORKING/PROD_SAMPLES/image2_w_color_jpg.wav
, f 78;
#X obj 185 429 pack s;
#X msg 180 464 set \$1;
#X connect 1 0 4 0;
#X connect 2 1 15 0;
#X connect 3 0 2 1;
#X connect 3 0 16 0;
#X connect 4 0 2 0;
#X connect 4 0 19 0;
#X connect 10 0 3 0;
#X connect 11 0 17 0;
#X connect 12 0 23 0;
#X connect 13 0 24 0;
#X connect 15 0 13 0;
#X connect 15 0 14 0;
#X connect 16 0 1 0;
#X connect 17 0 18 0;
#X connect 17 0 13 1;
#X connect 18 0 16 0;
#X connect 19 0 20 0;
#X connect 20 0 21 0;
#X connect 22 0 7 0;
#X connect 22 0 26 0;
#X connect 23 0 26 0;
#X connect 23 0 22 0;
#X connect 24 0 22 0;
#X connect 24 0 9 0;
#X connect 26 0 27 0;
#X connect 27 0 25 0;
#X connect 27 0 8 0;
#X restore 186 88 pd sample_song_browser;
#N canvas 67 87 1533 813 sample_patch_browser 0;
#X msg 88 652 \; pd-main.pd menuclose \;;
#X obj 310 164 ggee/shell;
#X obj 763 152 list split 9;
#X floatatom 1022 61 5 0 0 0 - - -, f 5;
#X obj 310 208 list prepend;
#X msg 85 704 \; pd open main.pd /home/spy/GIT_LOCAL_WORKING/A_PURE_DATA/Patches/AmbientFX
, f 75;
#X msg 85 777 \; pd-main.pd menuclose \;;
#X msg 49 423 set \; pd open \$1 \$2;
#X obj 48 295 bng 15 250 50 0 empty empty empty 17 7 0 10 -262144 -1
-1;
#X msg 18 543 0, f 78;
#X msg 50 334 symbol main.pd;
#X obj 42 370 pack s s;
#X msg 821 424 set \$1;
#X msg 47 484 set \$2;
#X obj 47 259 r selectPatch;
#X obj 28 587 outlet;
#X obj 780 453 outlet;
#X obj 1021 29 inlet;
#X obj 286 -14 inlet;
#X obj 78 62 inlet;
#X obj 771 314 pack symbol symbol;
#X obj 780 253 bng 15 250 50 0 empty empty empty 17 7 0 10 -262144
-1 -1;
#X obj 770 193 list split 1;
#X msg 284 82 ls ~/GIT_LOCAL_WORKING/A_PURE_DATA/Patches | xargs;
#X obj 289 16 pack symbol;
#X msg 289 48 set ls \$1 | xargs;
#X msg 776 346 set \$2/\$1;
#X msg 778 385 ~/GIT_LOCAL_WORKING/A_PURE_DATA/Patches/Pow_Pows_Polybeats
, f 74;
#X obj 1181 265 list length;
#X floatatom 1185 293 5 0 0 0 - - -, f 5;
#X obj 1180 329 outlet;
#X connect 1 0 4 0;
#X connect 2 1 22 0;
#X connect 3 0 2 1;
#X connect 3 0 23 0;
#X connect 4 0 2 0;
#X connect 4 0 28 0;
#X connect 8 0 11 0;
#X connect 10 0 11 0;
#X connect 11 0 7 0;
#X connect 11 0 13 0;
#X connect 14 0 8 0;
#X connect 17 0 3 0;
#X connect 18 0 24 0;
#X connect 19 0 8 0;
#X connect 20 0 26 0;
#X connect 22 0 20 0;
#X connect 22 0 21 0;
#X connect 23 0 1 0;
#X connect 24 0 25 0;
#X connect 24 0 20 1;
#X connect 25 0 23 0;
#X connect 26 0 27 0;
#X connect 26 0 11 1;
#X connect 26 0 16 0;
#X connect 27 0 12 0;
#X connect 28 0 29 0;
#X connect 29 0 30 0;
#X restore 203 272 pd sample_patch_browser;
#X connect 0 0 16 2;
#X connect 3 0 16 0;
#X connect 4 0 16 1;
#X connect 6 0 4 0;
#X connect 7 0 17 0;
#X connect 8 0 14 0;
#X connect 14 0 17 1;
#X connect 15 0 17 2;
#X connect 16 0 13 0;
#X connect 16 1 2 0;
#X connect 16 2 5 0;
#X connect 17 0 10 0;
#X connect 17 1 12 0;
#X connect 17 2 11 0;
#X restore 161 644 pd fileBrowser;
#N canvas 67 87 1533 813 HELP_ME 0;
#X text 15 15 http://write.flossmanuals.net/pure-data/debian-ubuntu-mint-etc/
sudo apt-get install puredata sudo apt-get install pd-ggee sudo apt-get
install pd-mrpeach, f 108;
#X restore 459 643 pd HELP_ME;
#X obj 48 644 UDP_Router;
#N canvas 67 89 450 250 (subpatch) 0;
#X array x 333 float 5;
#A 0 0.320004 0 0 0 0 0 0 0 0 0 0 0 0 0 0 0 0 0 0 0 0 0 0 0 0 0 0 0
0 0 0 0 0 0 0 0 0 0 0 0 0 0 0 0 0 0 0 0 0 0 0 0 0 0 0 0 0 0 0 0 0 0
0 0 0 0 0 0 0 0 0 0 0 0 0 0 0 0 0 0 0 0 0 0 0 0 0 0 0 0 0 0 0 0 0 0
0 0 0 0 0 0 0 0 0 0 0 0 0 0 0 0 0 0 0 0 0 0 0 0 0 0 0 0 0 0 0 0 0 0
0 0 0 0 0 0 0 0 0 0 0 0 0 0 0 0 0 0 0 0 0 0 0 0 0 0 0 0 0 0 0 0 0 0
0 0 0 0 0 0 0 0 0 0 0 0 0 0 0 0 0 0 0 0 0 0 0 0 0 0 0 0 0 0 0 0 0 0
0 0 0 0 0 0 0 0 0 0 0 0 0 0 0 0 0 0 0 0 0 0 0 0 0 0 0 0 0 0 0 0 0 0
0 0 0 0 0 0 0 0 0 0 0 0 0 0 0 0 0 0 0 0 0 0 0 0 0 0 0 0 0 0 0 0 0 0
0 0 0 0 0 0 0 0 0 0 0 0 0 0 0 0 0 0 0 0 0 0 0 0 0 0 0 0 0 0 0 0 0 0
0 0 0 0 0 0 0 0 0 0 0 0 0 0 0 0 0 0 0 0 0 0 0 0 0 0 0 0 0 0 0 0 0.288972
;
#X coords 0 1 332 0 200 140 1 0 0;
#X restore 816 544 graph;
#N canvas 67 89 450 250 (subpatch) 0;
#X array z 333 float 5;
#A 0 0.2977 0 0 0 0 0 0 0 0 0 0 0 0 0 0 0 0 0 0 0 0 0 0 0 0 0 0 0 0
0 0 0 0 0 0 0 0 0 0 0 0 0 0 0 0 0 0 0 0 0 0 0 0 0 0 0 0 0 0 0 0 0 0
0 0 0 0 0 0 0 0 0 0 0 0 0 0 0 0 0 0 0 0 0 0 0 0 0 0 0 0 0 0 0 0 0 0
0 0 0 0 0 0 0 0 0 0 0 0 0 0 0 0 0 0 0 0 0 0 0 0 0 0 0 0 0 0 0 0 0 0
0 0 0 0 0 0 0 0 0 0 0 0 0 0 0 0 0 0 0 0 0 0 0 0 0 0 0 0 0 0 0 0 0 0
0 0 0 0 0 0 0 0 0 0 0 0 0 0 0 0 0 0 0 0 0 0 0 0 0 0 0 0 0 0 0 0 0 0
0 0 0 0 0 0 0 0 0 0 0 0 0 0 0 0 0 0 0 0 0 0 0 0 0 0 0 0 0 0 0 0 0 0
0 0 0 0 0 0 0 0 0 0 0 0 0 0 0 0 0 0 0 0 0 0 0 0 0 0 0 0 0 0 0 0 0 0
0 0 0 0 0 0 0 0 0 0 0 0 0 0 0 0 0 0 0 0 0 0 0 0 0 0 0 0 0 0 0 0 0 0
0 0 0 0 0 0 0 0 0 0 0 0 0 0 0 0 0 0 0 0 0 0 0 0 0 0 0 0 0 0 0 0.963778
;
#X coords 0 1 332 0 200 140 1 0 0;
#X restore 1251 545 graph;
#N canvas 67 89 450 250 (subpatch) 0;
#X array y 333 float 5;
#A 0 0.933273 0 0 0 0 0 0 0 0 0 0 0 0 0 0 0 0 0 0 0 0 0 0 0 0 0 0 0
0 0 0 0 0 0 0 0 0 0 0 0 0 0 0 0 0 0 0 0 0 0 0 0 0 0 0 0 0 0 0 0 0 0
0 0 0 0 0 0 0 0 0 0 0 0 0 0 0 0 0 0 0 0 0 0 0 0 0 0 0 0 0 0 0 0 0 0
0 0 0 0 0 0 0 0 0 0 0 0 0 0 0 0 0 0 0 0 0 0 0 0 0 0 0 0 0 0 0 0 0 0
0 0 0 0 0 0 0 0 0 0 0 0 0 0 0 0 0 0 0 0 0 0 0 0 0 0 0 0 0 0 0 0 0 0
0 0 0 0 0 0 0 0 0 0 0 0 0 0 0 0 0 0 0 0 0 0 0 0 0 0 0 0 0 0 0 0 0 0
0 0 0 0 0 0 0 0 0 0 0 0 0 0 0 0 0 0 0 0 0 0 0 0 0 0 0 0 0 0 0 0 0 0
0 0 0 0 0 0 0 0 0 0 0 0 0 0 0 0 0 0 0 0 0 0 0 0 0 0 0 0 0 0 0 0 0 0
0 0 0 0 0 0 0 0 0 0 0 0 0 0 0 0 0 0 0 0 0 0 0 0 0 0 0 0 0 0 0 0 0 0
0 0 0 0 0 0 0 0 0 0 0 0 0 0 0 0 0 0 0 0 0 0 0 0 0 0 0 0 0 0 0 0 0.931793
;
#X coords 0 1 332 0 200 140 1 0 0;
#X restore 1034 545 graph;
#X obj 822 421 s knob1;
#X obj 903 423 s knob3;
#X obj 816 494 s clear;
#X obj 817 474 tgl 15 0 empty empty empty 17 7 0 10 -262144 -1 -1 0
1;
#X text 896 495 Toggle on until data clear, f 33;
#X text 1462 130 Send Smoothed data to synth;
#X obj 902 382 r y;
#X obj 822 381 r x;
#X obj 989 384 r z;
#X obj 989 420 s knob2;
#X obj 655 584 bng 15 250 50 0 empty empty empty 17 7 0 10 -262144
-1 -1;
#X connect 1 0 2 0;
#X connect 2 0 0 0;
#X connect 5 0 14 0;
#X connect 6 0 12 0;
#X connect 7 0 5 0;
#X connect 8 0 11 0;
#X connect 9 0 13 0;
#X connect 10 0 9 0;
#X connect 13 0 11 0;
#X connect 14 0 12 0;
#X connect 74 0 76 0;
#X connect 75 0 76 1;
#X connect 82 0 81 0;
#X connect 83 0 80 0;
#X connect 87 0 86 0;
#X connect 88 0 85 0;
#X connect 89 0 66 0;
#X connect 90 0 67 0;
#X connect 91 0 77 0;
#X connect 92 0 105 0;
#X connect 93 0 94 0;
#X connect 95 0 93 0;
#X connect 96 0 97 0;
#X connect 98 0 99 0;
#X connect 100 0 101 0;
#X connect 102 0 96 0;
#X connect 103 0 98 0;
#X connect 104 0 100 0;
#X connect 107 0 78 0;
#X connect 117 0 116 0;
#X connect 120 0 115 0;
#X connect 121 0 114 0;
#X connect 122 0 123 0;
#X connect 124 0 105 0;
