#N canvas 67 171 1317 604 16;
#X obj 789 399 bng 15 250 50 0 empty empty empty 17 7 0 10 -262144
-1 -1;
#X obj 833 404 bng 15 250 50 0 empty empty empty 17 7 0 10 -262144
-1 -1;
#X obj 873 405 bng 15 250 50 0 empty empty empty 17 7 0 10 -262144
-1 -1;
#X obj 931 397 bng 15 250 50 0 empty empty empty 17 7 0 10 -262144
-1 -1;
#X obj 644 236 netreceive 3000 1;
#X obj 398 270 print topic_payload;
#X obj 989 398 bng 15 250 50 0 empty empty empty 17 7 0 10 -262144
-1 -1;
#X text 215 29 take udp messages hitting this computer on port 3000
route to appropriate function route is determined by mqtt messages
being sent from node-red. Node-Red is being hosted on a local network
and this patch is also on the network \, on a pi independent of node-red
server. The node-red server also has the MQTT broker that is receiving
the messages from the MQTT publishers on the network.;
#X obj 722 374 route up down left right test test3;
#X obj 1037 398 bng 15 250 50 0 empty empty empty 17 7 0 10 -262144
-1 -1;
#X obj 683 267 unpack s 0;
#X obj 711 298 pack s 0;
#X msg 718 335 \$1 \$2 \;;
#X obj 347 487 s notes;
#X obj 346 456 pack 11 100;
#X obj 276 307 route notein;
#X obj 229 353 bng 15 250 50 0 empty empty empty 17 7 0 10 -262144
-1 -1;
#X msg 277 338 \$1 \;;
#X obj 533 411 pack 11 100;
#X obj 490 360 bng 15 250 50 0 empty empty empty 17 7 0 10 -262144
-1 -1;
#X msg 528 371 \$1 \;;
#X obj 527 340 route vol;
#X obj 534 442 s vol;
#X obj 922 240 route knob1 knob2 knob3 knob4;
#X obj 908 297 s knob1;
#X obj 996 300 s knob2;
#X obj 1087 295 s knob3;
#X obj 1172 300 s knob4;
#X obj 669 377 print;
#X obj 332 398 + 100;
#X connect 4 0 10 0;
#X connect 8 0 0 0;
#X connect 8 1 1 0;
#X connect 8 2 2 0;
#X connect 8 3 3 0;
#X connect 8 4 6 0;
#X connect 8 5 9 0;
#X connect 10 0 11 0;
#X connect 10 1 11 1;
#X connect 11 0 12 0;
#X connect 11 0 28 0;
#X connect 12 0 8 0;
#X connect 12 0 15 0;
#X connect 12 0 21 0;
#X connect 12 0 23 0;
#X connect 14 0 13 0;
#X connect 15 0 17 0;
#X connect 15 0 16 0;
#X connect 17 0 29 0;
#X connect 18 0 22 0;
#X connect 20 0 14 1;
#X connect 21 0 20 0;
#X connect 21 0 19 0;
#X connect 23 0 24 0;
#X connect 23 1 25 0;
#X connect 23 2 26 0;
#X connect 23 3 27 0;
#X connect 29 0 14 0;
