#N canvas 284 503 812 434 10;
#X obj 102 349 master;
#X obj 122 246 *~ 0.7;
#X obj 103 374 s~ scopeVis;
#X obj 92 28 r knob1;
#X obj 92 190 t f f f f f;
#X obj 72 271 *~ 0.5;
#X obj 218 295 *~ 0.5;
#X obj 422 140 r~ inL;
#X obj 434 73 r~ inR;
#X obj 483 290 osc~ 2;
#X obj 483 356 vd~ pitchL;
#X obj 685 342 vd~ pitchR;
#X obj 483 312 +~ 1;
#X obj 483 334 *~;
#X obj 685 270 osc~ 2;
#X obj 685 292 +~ 1;
#X obj 685 314 *~;
#X obj 563 231 * 10;
#X obj 730 198 loadbang;
#X msg 730 220 0;
#X msg 646 109 \$1 11;
#N canvas 0 50 252 500 backgndNoise~ 0;
#X obj 52 440 outlet~;
#X obj 60 25 noise~;
#X obj 60 69 hip~ 30;
#X obj 52 402 *~;
#X obj 51 134 samphold~;
#X obj 60 91 *~ 1;
#X obj 76 181 samphold~;
#X obj 60 47 lop~ 1000;
#X obj 51 156 *~ 0.5;
#X obj 52 279 +~;
#X obj 52 345 *~ 0.33;
#X obj 70 378 inlet~;
#X obj 111 106 phasor~ 7777;
#X obj 136 153 phasor~ 22;
#X obj 52 301 hip~ 77;
#X obj 76 247 hip~ 60;
#X obj 76 225 hip~ 40;
#X obj 76 203 lop~ 4000;
#X obj 52 323 lop~ 6000;
#X connect 1 0 7 0;
#X connect 2 0 5 0;
#X connect 3 0 0 0;
#X connect 4 0 8 0;
#X connect 5 0 4 0;
#X connect 5 0 6 0;
#X connect 6 0 17 0;
#X connect 7 0 2 0;
#X connect 8 0 9 0;
#X connect 9 0 14 0;
#X connect 10 0 3 0;
#X connect 11 0 3 1;
#X connect 12 0 4 1;
#X connect 13 0 6 1;
#X connect 14 0 18 0;
#X connect 15 0 9 1;
#X connect 16 0 15 0;
#X connect 17 0 16 0;
#X connect 18 0 10 0;
#X restore 186 190 pd backgndNoise~;
#X obj 186 101 r knob2;
#X obj 186 144 sig~;
#X obj 186 166 lop~ 88;
#X obj 646 65 * 5;
#X text 674 65 rate;
#X text 516 233 depth;
#X msg 272 333 0.7;
#X obj 272 310 loadbang;
#X obj 563 275 sig~;
#X obj 563 206 r knob4;
#X obj 646 42 r knob3;
#X obj 422 182 delwrite~ pitchL 200;
#X obj 434 115 delwrite~ pitchR 200;
#X obj 563 297 lop~ 70;
#X text 284 233 february 2018 \; Kyle Werle \; voidpulse \;;
#X text 571 376 pyramid constructors \;;
#X obj 186 123 + 0.03;
#X obj 184 244 dust~;
#X obj 218 273 dust~;
#X obj 122 224 dust~;
#X obj 22 247 dust~;
#X obj 72 249 dust~;
#N canvas 518 202 314 477 polySynth 0;
#X obj 80 170 poly 4 1;
#X obj 80 255 route 1 2 3 4;
#X obj 80 147 r notes;
#X obj 80 232 pack 0 0 0;
#X obj 155 401 outlet~;
#X obj 146 279 voice~;
#X obj 171 93 r aux;
#X obj 171 140 f;
#X obj 215 142 + 1;
#X obj 171 115 sel 1;
#X obj 171 165 * 12;
#X obj 171 187 - 36;
#X obj 113 204 + -36;
#X obj 215 164 mod 5;
#X obj 80 360 voice~;
#X obj 124 306 voice~;
#X obj 102 333 voice~;
#X connect 0 0 3 0;
#X connect 0 1 12 0;
#X connect 0 2 3 2;
#X connect 1 0 14 0;
#X connect 1 1 16 0;
#X connect 1 2 15 0;
#X connect 1 3 5 0;
#X connect 2 0 0 0;
#X connect 3 0 1 0;
#X connect 5 0 4 0;
#X connect 6 0 9 0;
#X connect 7 0 8 0;
#X connect 7 0 10 0;
#X connect 8 0 13 0;
#X connect 9 0 7 0;
#X connect 10 0 11 0;
#X connect 11 0 12 1;
#X connect 12 0 3 1;
#X connect 13 0 7 1;
#X connect 14 0 4 0;
#X connect 15 0 4 0;
#X connect 16 0 4 0;
#X restore 509 44 pd polySynth;
#X obj 434 95 +~;
#X obj 422 162 +~;
#X obj 563 253 + 0.5;
#X obj 509 88 lop~ 4000;
#X obj 509 66 lop~ 5000;
#X obj 26 147 min 1;
#X obj 26 125 + 0.17;
#X obj 26 103 * 2;
#X msg 26 169 \$1 15;
#X obj 26 191 line~;
#X obj 92 50 t f f;
#X obj 22 269 *~;
#X obj 72 293 *~;
#X obj 122 268 *~;
#X obj 184 266 *~;
#X obj 218 317 *~;
#X obj 297 19 r aux;
#X obj 297 41 sel 1;
#X obj 297 149 s led;
#X obj 297 62 t b b;
#X msg 329 105 0;
#X obj 329 83 del 150;
#X msg 297 127 1;
#X obj 431 382 s~ shifter;
#X obj 430 328 *~;
#X obj 401 293 lop~ 70;
#X obj 410 250 sig~;
#X obj 401 271 *~ 0.25;
#N canvas 416 291 214 283 oscDrift 0;
#X obj 37 75 neuron 100;
#X msg 37 200 \$1 \$2;
#X obj 37 179 pack f f;
#X obj 98 96 neuron 100;
#X obj 98 156 t f f;
#X obj 114 179 del;
#X obj 37 54 t b b b;
#X obj 37 220 line~;
#X obj 37 33 loadbang;
#X obj 98 136 + 33;
#X obj 37 240 outlet~;
#X obj 98 116 * 77;
#X obj 37 95 / 600;
#X connect 0 0 12 0;
#X connect 1 0 7 0;
#X connect 2 0 1 0;
#X connect 3 0 11 0;
#X connect 4 0 2 1;
#X connect 4 1 5 1;
#X connect 5 0 6 0;
#X connect 6 0 0 0;
#X connect 6 1 5 0;
#X connect 6 2 3 0;
#X connect 7 0 10 0;
#X connect 8 0 6 0;
#X connect 9 0 4 0;
#X connect 11 0 9 0;
#X connect 12 0 2 0;
#X restore 663 155 pd oscDrift;
#X obj 645 179 +~;
#X obj 646 131 line~;
#X obj 646 87 + 0.1;
#X connect 0 0 2 0;
#X connect 1 0 58 0;
#X connect 3 0 55 0;
#X connect 4 0 42 0;
#X connect 4 1 43 0;
#X connect 4 2 41 0;
#X connect 4 3 40 0;
#X connect 4 4 39 0;
#X connect 5 0 57 0;
#X connect 6 0 60 0;
#X connect 7 0 46 0;
#X connect 8 0 45 0;
#X connect 9 0 12 0;
#X connect 9 0 69 0;
#X connect 10 0 0 0;
#X connect 11 0 0 1;
#X connect 12 0 13 0;
#X connect 13 0 10 0;
#X connect 14 0 15 0;
#X connect 15 0 16 0;
#X connect 16 0 11 0;
#X connect 17 0 47 0;
#X connect 18 0 19 0;
#X connect 19 0 14 1;
#X connect 19 0 9 1;
#X connect 20 0 75 0;
#X connect 21 0 0 0;
#X connect 21 0 0 1;
#X connect 22 0 38 0;
#X connect 23 0 24 0;
#X connect 24 0 21 0;
#X connect 25 0 76 0;
#X connect 28 0 0 2;
#X connect 29 0 28 0;
#X connect 30 0 35 0;
#X connect 31 0 17 0;
#X connect 31 0 71 0;
#X connect 32 0 25 0;
#X connect 35 0 13 1;
#X connect 35 0 16 1;
#X connect 38 0 23 0;
#X connect 39 0 59 0;
#X connect 40 0 6 0;
#X connect 41 0 1 0;
#X connect 42 0 56 0;
#X connect 43 0 5 0;
#X connect 44 0 49 0;
#X connect 45 0 34 0;
#X connect 46 0 33 0;
#X connect 47 0 30 0;
#X connect 48 0 45 1;
#X connect 48 0 46 1;
#X connect 49 0 48 0;
#X connect 50 0 53 0;
#X connect 51 0 50 0;
#X connect 52 0 51 0;
#X connect 53 0 54 0;
#X connect 54 0 56 1;
#X connect 54 0 57 1;
#X connect 54 0 58 1;
#X connect 54 0 59 1;
#X connect 54 0 60 1;
#X connect 55 0 4 0;
#X connect 55 1 52 0;
#X connect 56 0 0 0;
#X connect 57 0 0 0;
#X connect 58 0 0 0;
#X connect 58 0 0 1;
#X connect 59 0 0 1;
#X connect 60 0 0 1;
#X connect 61 0 62 0;
#X connect 62 0 64 0;
#X connect 64 0 67 0;
#X connect 64 1 66 0;
#X connect 65 0 63 0;
#X connect 66 0 65 0;
#X connect 67 0 63 0;
#X connect 69 0 68 0;
#X connect 70 0 69 1;
#X connect 71 0 72 0;
#X connect 72 0 70 0;
#X connect 73 0 74 1;
#X connect 74 0 9 0;
#X connect 74 0 14 0;
#X connect 75 0 74 0;
#X connect 76 0 20 0;
