#N canvas 88 230 1008 563 10;
#X obj 21 189 realtime;
#X obj 20 163 t b;
#X obj 21 349 random 100;
#X msg 21 216 seed \$1;
#X obj 21 249 t b a;
#X obj 21 275 until;
#X obj 21 297 f;
#X obj 69 298 + 1;
#X obj 106 298 sel 0;
#X obj 21 377 tabwrite neuralCore;
#X obj 21 319 t b f;
#X text 597 295 MAINSPRING;
#X text 638 190 SOURCE;
#X text 838 422 SEED;
#X text 524 206 ORIGIN;
#X text 811 276 HEART;
#X text 21 415 How could you know what I don't know if I don't even
know?;
#X text 39 438 Because \, because.;
#X text 21 461 Because because because because because because because
;
#X obj 194 172 realtime;
#X obj 193 147 t b;
#X obj 194 350 random 100;
#X msg 194 198 seed \$1;
#X obj 194 225 t b a;
#X obj 194 251 until;
#X obj 194 273 f;
#X obj 242 274 + 1;
#X obj 279 274 sel 0;
#X obj 194 378 tabwrite neuralCore;
#X obj 194 295 t b f;
#X obj 366 166 realtime;
#X obj 365 142 t b;
#X obj 366 350 random 100;
#X msg 366 193 seed \$1;
#X obj 366 221 t b a;
#X obj 366 247 until;
#X obj 366 269 f;
#X obj 414 270 + 1;
#X obj 451 270 sel 0;
#X obj 366 378 tabwrite neuralCore;
#X obj 366 291 t b f;
#X obj 20 126 r consciousness;
#X obj 193 113 r awareness;
#X obj 365 115 r emergence;
#X obj 519 83 t b b;
#X obj 519 145 tabwrite neuralCore;
#X obj 69 320 mod 1000;
#X obj 242 296 mod 1000;
#X obj 414 292 mod 1000;
#X obj 393 318 + 2000;
#X obj 221 322 + 1000;
#X obj 615 114 random 3000;
#X obj 615 69 realtime;
#X msg 615 91 seed \$1;
#X obj 273 198 s perceive;
#X obj 519 114 neuron 100;
#X obj 552 453 tabread neuralCore;
#X obj 552 345 t b;
#X obj 552 410 f;
#X obj 600 411 + 1;
#X obj 637 411 sel 0;
#X obj 552 430 t f f;
#X obj 600 433 mod 3000;
#X text 701 418 write to cortex;
#X obj 739 43 loadbang;
#X obj 739 106 until;
#X obj 739 127 f;
#X obj 789 128 + 1;
#X obj 826 128 sel 0;
#X obj 739 222 tabwrite neuralCore;
#X text 798 105 read cortex;
#X obj 739 147 t f f;
#X obj 552 474 text set 001-cortex;
#X msg 637 496 write memories/001-cortex.txt;
#X obj 739 171 text get 001-cortex;
#X obj 552 322 r evolve;
#X obj 614 42 r evolve;
#X obj 519 59 r auxa;
#X obj 637 516 text define 001-cortex;
#X msg 776 86 read memories/001-cortex.txt;
#X obj 739 66 t b b;
#X obj 789 150 mod 2999;
#X obj 552 387 metro 2;
#X obj 552 367 tgl 15 0 empty empty empty 17 7 0 10 -262144 -1 -1 0
1;
#X obj 20 20 cnv 15 480 80 empty empty empty 20 12 0 14 -257972 -66577
0;
#N canvas 0 50 597 320 (subpatch) 0;
#X array neuralCore 3000 float 2;
#X coords 0 99 3000 0 480 65 2 0 0;
#X restore 20 35 graph;
#X connect 0 0 3 0;
#X connect 1 0 0 1;
#X connect 2 0 9 0;
#X connect 3 0 4 0;
#X connect 4 0 5 0;
#X connect 4 1 2 0;
#X connect 5 0 6 0;
#X connect 6 0 7 0;
#X connect 6 0 10 0;
#X connect 7 0 46 0;
#X connect 8 0 5 1;
#X connect 10 0 2 0;
#X connect 10 1 9 1;
#X connect 19 0 22 0;
#X connect 19 0 54 0;
#X connect 20 0 19 1;
#X connect 21 0 28 0;
#X connect 22 0 23 0;
#X connect 23 0 24 0;
#X connect 23 1 21 0;
#X connect 24 0 25 0;
#X connect 25 0 26 0;
#X connect 25 0 29 0;
#X connect 26 0 47 0;
#X connect 27 0 24 1;
#X connect 29 0 21 0;
#X connect 29 1 50 0;
#X connect 30 0 33 0;
#X connect 31 0 30 1;
#X connect 32 0 39 0;
#X connect 33 0 34 0;
#X connect 34 0 35 0;
#X connect 34 1 32 0;
#X connect 35 0 36 0;
#X connect 36 0 37 0;
#X connect 36 0 40 0;
#X connect 37 0 48 0;
#X connect 38 0 35 1;
#X connect 40 0 32 0;
#X connect 40 1 49 0;
#X connect 41 0 1 0;
#X connect 42 0 20 0;
#X connect 43 0 31 0;
#X connect 44 0 55 0;
#X connect 44 1 51 0;
#X connect 46 0 8 0;
#X connect 46 0 6 1;
#X connect 47 0 27 0;
#X connect 47 0 25 1;
#X connect 48 0 38 0;
#X connect 48 0 36 1;
#X connect 49 0 39 1;
#X connect 50 0 28 1;
#X connect 51 0 45 1;
#X connect 52 0 53 0;
#X connect 53 0 51 0;
#X connect 55 0 45 0;
#X connect 56 0 72 0;
#X connect 57 0 83 0;
#X connect 58 0 59 0;
#X connect 58 0 61 0;
#X connect 59 0 62 0;
#X connect 60 0 73 0;
#X connect 60 0 83 0;
#X connect 61 0 56 0;
#X connect 61 1 72 1;
#X connect 62 0 60 0;
#X connect 62 0 58 1;
#X connect 64 0 80 0;
#X connect 65 0 66 0;
#X connect 66 0 67 0;
#X connect 66 0 71 0;
#X connect 67 0 81 0;
#X connect 68 0 65 1;
#X connect 71 0 74 0;
#X connect 71 1 69 1;
#X connect 73 0 78 0;
#X connect 74 0 69 0;
#X connect 75 0 57 0;
#X connect 76 0 52 1;
#X connect 77 0 44 0;
#X connect 79 0 78 0;
#X connect 80 0 65 0;
#X connect 80 1 79 0;
#X connect 81 0 68 0;
#X connect 81 0 66 1;
#X connect 82 0 58 0;
#X connect 83 0 82 0;
#X coords 0 -1 1 1 480 80 2 20 20;
