#N canvas 956 188 349 384 10;
#X obj 50 37 inlet;
#X obj 50 318 outlet~;
#N canvas 122 146 749 750 triOSC 0;
#X obj 65 53 inlet~;
#X obj 94 707 outlet~;
#X obj 265 214 inlet~;
#X text 263 193 PWM CV INPUT;
#X obj 12 202 phasor~;
#X obj 266 486 lop~ 10;
#X obj 384 486 lop~ 10;
#X obj 503 486 lop~ 10;
#X obj 265 313 expr~ if ($v1 < 0.5 \, (1-$v1*2) \, 0 ) \; if ($v1 <
0.5 \, $v1*2 \, (1-$v1+0.5)*2-1 ) \; if ($v1 > 0.5 \, ($v1*2-1) \,
0 );
#X obj 94 533 *~;
#X obj 12 533 *~;
#X obj 54 533 *~;
#X obj 54 324 *~ 1027;
#X obj 12 227 *~ 2051;
#X obj 54 295 phasor~;
#X obj 12 170 +~ 0.5;
#X obj 54 270 -~ 0.5;
#X obj 94 376 tabosc4~ \$0-triangle;
#X obj 54 407 tabread4~ \$0-triangle;
#X obj 12 434 tabread4~ \$0-triangle;
#X obj 94 682 *~ 1;
#X text 285 263 0 to 1 for waveshape;
#X obj 491 223 loadbang;
#X obj 491 267 sig~;
#X msg 491 245 1;
#X connect 0 0 15 0;
#X connect 0 0 16 0;
#X connect 0 0 17 0;
#X connect 2 0 8 0;
#X connect 4 0 13 0;
#X connect 5 0 10 1;
#X connect 6 0 11 1;
#X connect 7 0 9 1;
#X connect 8 0 5 0;
#X connect 8 1 6 0;
#X connect 8 2 7 0;
#X connect 9 0 20 0;
#X connect 10 0 20 0;
#X connect 11 0 20 0;
#X connect 12 0 18 0;
#X connect 13 0 19 0;
#X connect 14 0 12 0;
#X connect 15 0 4 0;
#X connect 16 0 14 0;
#X connect 17 0 9 0;
#X connect 18 0 11 0;
#X connect 19 0 10 0;
#X connect 20 0 1 0;
#X connect 22 0 24 0;
#X connect 24 0 23 0;
#X restore 50 197 pd triOSC;
#N canvas 414 243 214 283 oscDrift 0;
#X obj 37 75 neuron 100;
#X msg 37 200 \$1 \$2;
#X obj 37 179 pack f f;
#X obj 98 96 neuron 100;
#X obj 98 156 t f f;
#X obj 114 179 del;
#X obj 37 54 t b b b;
#X obj 37 95 / 33;
#X obj 37 115 - 1.5;
#X obj 37 220 line~;
#X obj 37 33 loadbang;
#X obj 98 136 + 33;
#X obj 37 240 outlet~;
#X obj 98 116 * 77;
#X connect 0 0 7 0;
#X connect 1 0 9 0;
#X connect 2 0 1 0;
#X connect 3 0 13 0;
#X connect 4 0 2 1;
#X connect 4 1 5 1;
#X connect 5 0 6 0;
#X connect 6 0 0 0;
#X connect 6 1 5 0;
#X connect 6 2 3 0;
#X connect 7 0 8 0;
#X connect 8 0 2 0;
#X connect 9 0 12 0;
#X connect 10 0 6 0;
#X connect 11 0 4 0;
#X connect 13 0 11 0;
#X restore 68 149 pd oscDrift;
#N canvas 143 50 620 305 wavetables 0;
#X obj 45 64 loadbang;
#X text 113 65 TRIANGLE WAVE;
#X msg 45 200 \; \$1-triangle normalize 1;
#X obj 45 86 f \$0;
#X obj 45 117 t f f;
#X obj 45 240 table \$0-triangle;
#X msg 77 144 \; \$1-triangle sinesum 512 1 0 -0.111111 0 0.04 0 -0.0204082
0 0.0123457 0 -0.00826446;
#X connect 0 0 3 0;
#X connect 3 0 4 0;
#X connect 4 0 2 0;
#X connect 4 1 6 0;
#X restore 50 12 pd wavetables;
#X obj 50 59 unpack 0 0;
#X obj 50 81 mtof;
#X obj 50 125 line~;
#X obj 50 173 +~;
#X obj 160 86 sel 0;
#X obj 192 109 / 127;
#X msg 50 103 \$1 7;
#X obj 192 232 vline~;
#X obj 192 131 t f f;
#X obj 192 177 pack 0 0;
#X obj 192 254 *~;
#X obj 50 270 *~;
#X obj 224 153 / 2;
#X msg 160 151 0 1600;
#X msg 192 202 \$1 3 \, \$2 800 3;
#N canvas 666 133 214 283 waveDrift 0;
#X obj 37 75 neuron 100;
#X msg 37 200 \$1 \$2;
#X obj 37 179 pack f f;
#X obj 98 96 neuron 100;
#X obj 98 156 t f f;
#X obj 114 179 del;
#X obj 37 54 t b b b;
#X obj 37 220 line~;
#X obj 37 33 loadbang;
#X obj 98 136 + 33;
#X obj 37 240 outlet~;
#X obj 98 116 * 77;
#X obj 37 95 / 200;
#X obj 37 117 + 0.5;
#X connect 0 0 12 0;
#X connect 1 0 7 0;
#X connect 2 0 1 0;
#X connect 3 0 11 0;
#X connect 4 0 2 1;
#X connect 4 1 5 1;
#X connect 5 0 6 0;
#X connect 6 0 0 0;
#X connect 6 1 5 0;
#X connect 6 2 3 0;
#X connect 7 0 10 0;
#X connect 8 0 6 0;
#X connect 9 0 4 0;
#X connect 11 0 9 0;
#X connect 12 0 13 0;
#X connect 13 0 2 0;
#X restore 82 173 pd waveDrift;
#X obj 50 292 *~ 0.33;
#X connect 0 0 5 0;
#X connect 2 0 16 0;
#X connect 3 0 8 1;
#X connect 5 0 6 0;
#X connect 5 1 9 0;
#X connect 6 0 11 0;
#X connect 7 0 8 0;
#X connect 8 0 2 0;
#X connect 9 0 18 0;
#X connect 9 1 10 0;
#X connect 10 0 13 0;
#X connect 11 0 7 0;
#X connect 12 0 15 0;
#X connect 12 0 15 1;
#X connect 13 0 14 0;
#X connect 13 1 17 0;
#X connect 14 0 19 0;
#X connect 15 0 16 1;
#X connect 16 0 21 0;
#X connect 17 0 14 1;
#X connect 18 0 12 0;
#X connect 19 0 12 0;
#X connect 20 0 2 1;
#X connect 21 0 1 0;
