#N canvas 0 22 1280 752 10;
#X obj 140 196 sig~;
#X obj 140 300 osc~;
#X obj 140 274 +~;
#X obj 206 204 osc~;
#X obj 206 231 *~;
#X obj 333 197 sig~;
#X obj 333 301 osc~;
#X obj 333 275 +~;
#X obj 397 204 osc~;
#X obj 397 231 *~;
#X obj 334 168 / 2;
#X obj 515 202 sig~;
#X obj 515 306 osc~;
#X obj 515 280 +~;
#X obj 579 205 osc~;
#X obj 579 232 *~;
#X obj 516 173 / 4;
#X obj 688 207 sig~;
#X obj 688 311 osc~;
#X obj 688 285 +~;
#X obj 753 206 osc~;
#X obj 753 233 *~;
#X obj 689 178 / 8;
#X obj 851 201 sig~;
#X obj 851 305 osc~;
#X obj 851 279 +~;
#X obj 914 201 osc~;
#X obj 914 228 *~;
#X obj 852 172 / 16;
#X obj 142 26 mtof;
#X obj 142 52 * 8;
#X obj 142 -50 inlet;
#X obj 142 466 *~;
#X obj 56 58 sel 0;
#X obj 67 388 line~;
#X obj 72 418 *~;
#X msg 92 353 1 5;
#X obj 143 525 outlet~;
#X floatatom 191 7 5 0 0 0 - - -;
#X obj 141 -18 unpack f f;
#X obj 837 29 r Evolume;
#N canvas 0 22 1280 752 footage 0;
#X floatatom 370 81 5 0 0 0 - - -;
#X obj 849 283 min 0.2;
#X floatatom 849 314 5 0 0 0 - - -;
#X obj 627 285 max 0.2;
#X obj 628 316 - 0.2;
#X obj 628 345 min 0.2;
#X floatatom 628 376 5 0 0 0 - - -;
#X obj 458 346 min 0.2;
#X floatatom 458 377 5 0 0 0 - - -;
#X obj 457 286 max 0.4;
#X obj 458 317 - 0.4;
#X obj 289 345 min 0.2;
#X floatatom 289 376 5 0 0 0 - - -;
#X obj 288 285 max 0.6;
#X obj 289 316 - 0.6;
#X obj 97 338 min 0.2;
#X floatatom 97 369 5 0 0 0 - - -;
#X obj 96 278 max 0.8;
#X obj 97 309 - 0.8;
#X obj 370 58 * 2;
#X floatatom 370 35 5 0 0 0 - - -;
#X obj 790 426 - 0;
#X obj 914 283 max 1;
#X floatatom 913 358 5 0 0 0 - - -;
#X obj 914 311 - 1;
#X obj 915 335 min 0.2;
#X floatatom 789 452 5 0 0 0 - - -;
#X obj 369 -4 inlet;
#X floatatom 700 359 5 0 0 0 - - -;
#X obj 702 336 min 0.2;
#X obj 701 284 max 1.2;
#X obj 701 312 - 1.2;
#X floatatom 523 360 5 0 0 0 - - -;
#X obj 525 337 min 0.2;
#X obj 524 285 max 1.4;
#X obj 524 313 - 1.4;
#X floatatom 358 359 5 0 0 0 - - -;
#X obj 360 336 min 0.2;
#X obj 359 311 - 1.6;
#X obj 359 284 max 1.6;
#X floatatom 161 354 5 0 0 0 - - -;
#X obj 163 331 min 0.2;
#X obj 162 279 max 1.8;
#X obj 162 307 - 1.8;
#X obj 791 610 outlet;
#X obj 666 425 - 0;
#X floatatom 665 451 5 0 0 0 - - -;
#X obj 666 606 outlet;
#X obj 501 430 - 0;
#X floatatom 500 456 5 0 0 0 - - -;
#X obj 501 606 outlet;
#X obj 336 427 - 0;
#X floatatom 335 453 5 0 0 0 - - -;
#X obj 336 603 outlet;
#X obj 143 428 - 0;
#X floatatom 142 454 5 0 0 0 - - -;
#X obj 143 604 outlet;
#X obj 143 540 pack 0 50;
#X obj 335 536 pack 0 50;
#X obj 497 535 pack 0 50;
#X obj 665 537 pack 0 50;
#X obj 789 537 pack 0 50;
#X connect 0 0 1 0;
#X connect 0 0 3 0;
#X connect 0 0 9 0;
#X connect 0 0 13 0;
#X connect 0 0 17 0;
#X connect 0 0 22 0;
#X connect 0 0 30 0;
#X connect 0 0 34 0;
#X connect 0 0 39 0;
#X connect 0 0 42 0;
#X connect 1 0 2 0;
#X connect 2 0 21 0;
#X connect 3 0 4 0;
#X connect 4 0 5 0;
#X connect 5 0 6 0;
#X connect 6 0 45 0;
#X connect 7 0 8 0;
#X connect 8 0 48 0;
#X connect 9 0 10 0;
#X connect 10 0 7 0;
#X connect 11 0 12 0;
#X connect 12 0 51 0;
#X connect 13 0 14 0;
#X connect 14 0 11 0;
#X connect 15 0 16 0;
#X connect 16 0 54 0;
#X connect 17 0 18 0;
#X connect 18 0 15 0;
#X connect 19 0 0 0;
#X connect 20 0 19 0;
#X connect 21 0 26 0;
#X connect 22 0 24 0;
#X connect 23 0 21 1;
#X connect 24 0 25 0;
#X connect 25 0 23 0;
#X connect 26 0 61 0;
#X connect 27 0 20 0;
#X connect 28 0 45 1;
#X connect 29 0 28 0;
#X connect 30 0 31 0;
#X connect 31 0 29 0;
#X connect 32 0 48 1;
#X connect 33 0 32 0;
#X connect 34 0 35 0;
#X connect 35 0 33 0;
#X connect 36 0 51 1;
#X connect 37 0 36 0;
#X connect 38 0 37 0;
#X connect 39 0 38 0;
#X connect 40 0 54 1;
#X connect 41 0 40 0;
#X connect 42 0 43 0;
#X connect 43 0 41 0;
#X connect 45 0 46 0;
#X connect 46 0 60 0;
#X connect 48 0 49 0;
#X connect 49 0 59 0;
#X connect 51 0 52 0;
#X connect 52 0 58 0;
#X connect 54 0 55 0;
#X connect 55 0 57 0;
#X connect 57 0 56 0;
#X connect 58 0 53 0;
#X connect 59 0 50 0;
#X connect 60 0 47 0;
#X connect 61 0 44 0;
#X restore 836 56 pd footage;
#X obj 204 146 r~ erate;
#X obj 252 145 r~ edepth;
#X obj 388 151 r~ erate;
#X obj 436 150 r~ edepth;
#X obj 575 147 r~ erate;
#X obj 623 146 r~ edepth;
#X obj 743 144 r~ erate;
#X obj 790 143 r~ edepth;
#X obj 914 145 r~ erate;
#X obj 962 144 r~ edepth;
#X obj 141 167 / 1.33;
#X obj 59 289 r decay;
#X floatatom 61 317 5 0 0 0 - - -;
#X obj 37 344 list;
#X msg 26 316 0;
#X obj 141 330 *~;
#X obj 334 332 *~;
#X obj 516 336 *~;
#X obj 689 342 *~;
#X obj 851 336 *~;
#X obj 186 304 line~;
#X obj 368 308 line~;
#X obj 551 307 line~;
#X obj 725 311 line~;
#X obj 888 313 line~;
#X obj 228 302 osc~;
#X obj 421 303 osc~;
#X obj 603 308 osc~;
#X obj 776 313 osc~;
#X obj 939 307 osc~;
#X obj 816 482 *~;
#X obj 817 541 outlet~;
#X obj 229 332 *~;
#X obj 422 334 *~;
#X obj 604 338 *~;
#X obj 777 344 *~;
#X obj 939 338 *~;
#X obj 939 281 -~;
#X obj 776 287 -~;
#X obj 603 282 -~;
#X obj 421 277 -~;
#X obj 228 275 -~;
#X obj 142 495 *~ 0.8;
#X obj 816 511 *~ 0.8;
#X connect 0 0 2 0;
#X connect 0 0 83 0;
#X connect 1 0 57 0;
#X connect 2 0 1 0;
#X connect 3 0 4 0;
#X connect 4 0 2 1;
#X connect 4 0 83 1;
#X connect 5 0 7 0;
#X connect 5 0 82 0;
#X connect 6 0 58 0;
#X connect 7 0 6 0;
#X connect 8 0 9 0;
#X connect 9 0 7 1;
#X connect 9 0 82 1;
#X connect 10 0 5 0;
#X connect 11 0 13 0;
#X connect 11 0 81 0;
#X connect 12 0 59 0;
#X connect 13 0 12 0;
#X connect 14 0 15 0;
#X connect 15 0 13 1;
#X connect 15 0 81 1;
#X connect 16 0 11 0;
#X connect 17 0 19 0;
#X connect 17 0 80 0;
#X connect 18 0 60 0;
#X connect 19 0 18 0;
#X connect 20 0 21 0;
#X connect 21 0 19 1;
#X connect 21 0 80 1;
#X connect 22 0 17 0;
#X connect 23 0 25 0;
#X connect 23 0 79 0;
#X connect 24 0 61 0;
#X connect 25 0 24 0;
#X connect 26 0 27 0;
#X connect 27 0 25 1;
#X connect 27 0 79 1;
#X connect 28 0 23 0;
#X connect 29 0 30 0;
#X connect 30 0 10 0;
#X connect 30 0 16 0;
#X connect 30 0 22 0;
#X connect 30 0 28 0;
#X connect 30 0 52 0;
#X connect 31 0 39 0;
#X connect 32 0 84 0;
#X connect 33 0 56 0;
#X connect 33 1 36 0;
#X connect 34 0 35 0;
#X connect 34 0 35 1;
#X connect 35 0 32 1;
#X connect 35 0 72 1;
#X connect 36 0 34 0;
#X connect 38 0 33 0;
#X connect 39 0 29 0;
#X connect 39 1 38 0;
#X connect 40 0 41 0;
#X connect 41 0 62 0;
#X connect 41 1 63 0;
#X connect 41 2 64 0;
#X connect 41 3 65 0;
#X connect 41 4 66 0;
#X connect 42 0 3 0;
#X connect 43 0 4 1;
#X connect 44 0 8 0;
#X connect 45 0 9 1;
#X connect 46 0 14 0;
#X connect 47 0 15 1;
#X connect 48 0 20 0;
#X connect 49 0 21 1;
#X connect 50 0 26 0;
#X connect 51 0 27 1;
#X connect 52 0 0 0;
#X connect 53 0 54 0;
#X connect 54 0 55 1;
#X connect 55 0 34 0;
#X connect 56 0 55 0;
#X connect 57 0 32 0;
#X connect 58 0 32 0;
#X connect 59 0 32 0;
#X connect 60 0 32 0;
#X connect 61 0 32 0;
#X connect 62 0 57 1;
#X connect 62 0 74 1;
#X connect 63 0 58 1;
#X connect 63 0 75 1;
#X connect 64 0 59 1;
#X connect 64 0 76 1;
#X connect 65 0 60 1;
#X connect 65 0 77 1;
#X connect 66 0 61 1;
#X connect 66 0 78 1;
#X connect 67 0 74 0;
#X connect 68 0 75 0;
#X connect 69 0 76 0;
#X connect 70 0 77 0;
#X connect 71 0 78 0;
#X connect 72 0 85 0;
#X connect 74 0 72 0;
#X connect 75 0 72 0;
#X connect 76 0 72 0;
#X connect 77 0 72 0;
#X connect 78 0 72 0;
#X connect 79 0 71 0;
#X connect 80 0 70 0;
#X connect 81 0 69 0;
#X connect 82 0 68 0;
#X connect 83 0 67 0;
#X connect 84 0 37 0;
#X connect 85 0 73 0;
