#N canvas 15 22 450 300 10;
#X obj 131 84 inlet;
#X obj 134 158 i;
#X obj 133 185 / 256;
#X obj 131 246 s fknob4;
#X obj 132 116 * 265;
#X obj 132 211 min 1;
#X connect 0 0 4 0;
#X connect 1 0 2 0;
#X connect 2 0 5 0;
#X connect 4 0 1 0;
#X connect 5 0 3 0;
