#N canvas 0 22 1280 752 10;
#X obj 182 325 r notes;
#X floatatom 783 27 5 0 0 0 - - -;
#X obj 784 57 s Evolume;
#X obj 182 356 poly 8;
#X obj 181 387 pack 0 0 0;
#X obj 181 419 route 1 2 3 4 5 6 7 8;
#X obj 97 563 throw~ outL;
#X obj 283 564 throw~ outR;
#X obj 811 329 r notes;
#X obj 811 360 poly 8;
#X obj 810 391 pack 0 0 0;
#X obj 810 423 route 1 2 3 4 5 6 7 8;
#X obj 749 566 throw~ outL;
#X obj 1032 568 throw~ outR;
#X obj 663 468 oddvoice;
#X floatatom 860 27 5 0 0 0 - - -;
#X obj 861 57 s Ovolume;
#X obj 785 114 loadbang;
#X obj 1085 -55 r aux;
#X obj 1085 21 sel 1;
#X obj 1078 49 bng 15 250 50 0 empty empty empty 17 7 0 10 -262144
-1 -1;
#X obj 1111 49 bng 15 250 50 0 empty empty empty 17 7 0 10 -262144
-1 -1;
#X obj 1095 187 s decay;
#X msg 1077 70 1000;
#X msg 1118 70 100;
#X obj 1036 186 s led;
#X msg 1029 158 2;
#X msg 1066 160 0;
#X obj 1095 311 s screenLine5;
#X obj 1095 281 list;
#X msg 1092 255 Aux: Decay-;
#X msg 1172 194 Short;
#X msg 1175 233 Long;
#X obj 1091 230 bng 15 250 50 0 empty empty empty 17 7 0 10 -262144
-1 -1;
#X obj 1085 -29 sel 1;
#X obj 1085 -4 tgl 15 0 empty empty empty 17 7 0 10 -262144 -1 -1 0
1;
#X obj 1031 233 loadbang;
#X obj 77 -93 hsl 128 15 0 1 0 0 empty empty empty -2 -8 0 10 -262144
-1 -1 0 1;
#X floatatom 76 32 5 0 0 0 - - -;
#X obj 75 -11 i;
#X obj 76 -33 + 1;
#X obj 77 -61 * 5.9;
#X obj 76 60 sel 1 2 3 4 5 6;
#X obj 47 200 sig~;
#X obj 47 224 lop~ 5;
#X obj 179 223 lop~ 5;
#X obj 179 201 sig~;
#X msg 46 100 0;
#X msg 157 100 0;
#X obj 290 315 s screenLine1;
#X msg 340 217 Off;
#X msg 253 220 1: Vibrato:;
#X obj 340 63 sel 1 2 3 4 5 6;
#X obj 251 65 bng 15 250 50 0 empty empty empty 17 7 0 10 -262144 -1
-1;
#X obj 76 10 change;
#X floatatom 695 28 5 0 0 0 - - -;
#X obj 600 136 r notes;
#X obj 600 167 poly 8;
#X obj 599 198 pack 0 0 0;
#X obj 599 230 route 1 2 3 4 5 6 7 8;
#X obj 696 60 s Tvolume;
#X obj 97 307 s~ Trate;
#X obj 215 305 s~ Tdepth;
#X msg 59 122 5;
#X msg 72 144 9;
#X msg 80 169 4;
#X obj 74 -119 r fknob1;
#X obj 696 -16 r fknob2;
#X obj 784 -16 r fknob3;
#X obj 76 277 s~ orate;
#X obj 49 253 s~ erate;
#X obj 180 252 s~ edepth;
#X obj 204 276 s~ odepth;
#X obj 372 -66 fknob1;
#X obj 372 -103 r knob1;
#X obj 434 -101 r knob2;
#X obj 488 -100 r knob3;
#X obj 542 -98 r knob4;
#X obj 434 -64 fknob2;
#X obj 488 -63 fknob3;
#X obj 542 -61 fknob4;
#X obj 861 -16 r fknob4;
#X msg 147 120 3;
#X msg 135 143 7;
#X msg 126 169 10;
#X obj 287 6 loadbang;
#N canvas 0 22 368 453 antialias~ 0;
#X obj 69 104 inlet~;
#X obj 70 291 rzero~ -1;
#X obj 70 314 rzero~ -1;
#X obj 70 337 rzero~ -1;
#X text 240 120 anti-aliasing;
#X obj 69 375 outlet~;
#X obj 229 89 block~ 1024 1 16;
#X obj 69 142 *~ 0.12532;
#X obj 69 165 rpole~ 0.87467;
#X obj 69 188 *~ 0.01668;
#X obj 69 211 cpole~ 0.9293 0.10812;
#X obj 69 237 cpole~ 0.9293 -0.10812;
#X obj 70 268 *~ 0.12532;
#X connect 0 0 7 0;
#X connect 1 0 2 0;
#X connect 2 0 3 0;
#X connect 3 0 5 0;
#X connect 7 0 8 0;
#X connect 8 0 9 0;
#X connect 9 0 10 0;
#X connect 10 0 11 0;
#X connect 10 1 11 1;
#X connect 11 0 12 0;
#X connect 12 0 1 0;
#X restore 579 347 pd antialias~;
#X obj 515 384 throw~ outL;
#X obj 605 386 throw~ outR;
#X obj 663 -45 dac~;
#X obj 663 -93 adc~;
#X text 711 -90 audio pass through;
#X text 426 -35 some knob filtering;
#X msg 782 144 \; screenLine2 2: Flute \; screenLine3 3: Even Footages
\; screenLine4 4: Odd Footages \;;
#X obj 628 -69 *~ 0.5;
#X obj 684 -70 *~ 0.5;
#X obj 287 254 list;
#X obj 313 289 print;
#X msg 372 165 Light Fast;
#X msg 388 141 Heavy Fast;
#X msg 356 190 Light Slow;
#X msg 400 112 Heavy Slow;
#X obj 1163 -9 loadbang;
#X obj 517 275 trivoice;
#X obj 34 464 evenvoice;
#X obj 233 466 evenvoice;
#X obj 166 466 evenvoice;
#X obj 300 468 evenvoice;
#X obj 500 471 evenvoice;
#X obj 99 464 evenvoice;
#X obj 369 467 evenvoice;
#X obj 434 469 evenvoice;
#X obj 728 468 oddvoice;
#X obj 795 470 oddvoice;
#X obj 862 470 oddvoice;
#X obj 929 471 oddvoice;
#X obj 998 471 oddvoice;
#X obj 1063 474 oddvoice;
#X obj 1129 475 oddvoice;
#X obj 452 275 trivoice;
#X obj 584 277 trivoice;
#X obj 718 278 trivoice;
#X obj 651 277 trivoice;
#X obj 787 278 trivoice;
#X obj 852 281 trivoice;
#X obj 918 282 trivoice;
#X connect 0 0 3 0;
#X connect 1 0 2 0;
#X connect 3 0 4 0;
#X connect 3 1 4 1;
#X connect 3 2 4 2;
#X connect 4 0 5 0;
#X connect 5 0 104 0;
#X connect 5 1 109 0;
#X connect 5 2 106 0;
#X connect 5 3 105 0;
#X connect 5 4 107 0;
#X connect 5 5 110 0;
#X connect 5 6 111 0;
#X connect 5 7 108 0;
#X connect 8 0 9 0;
#X connect 9 0 10 0;
#X connect 9 1 10 1;
#X connect 9 2 10 2;
#X connect 10 0 11 0;
#X connect 11 0 14 0;
#X connect 11 1 112 0;
#X connect 11 2 113 0;
#X connect 11 3 114 0;
#X connect 11 4 115 0;
#X connect 11 5 116 0;
#X connect 11 6 117 0;
#X connect 11 7 118 0;
#X connect 14 0 12 0;
#X connect 14 1 13 0;
#X connect 15 0 16 0;
#X connect 17 0 93 0;
#X connect 18 0 34 0;
#X connect 19 0 20 0;
#X connect 19 1 21 0;
#X connect 20 0 23 0;
#X connect 20 0 26 0;
#X connect 20 0 32 0;
#X connect 21 0 24 0;
#X connect 21 0 27 0;
#X connect 21 0 31 0;
#X connect 23 0 22 0;
#X connect 24 0 22 0;
#X connect 26 0 25 0;
#X connect 27 0 25 0;
#X connect 29 0 28 0;
#X connect 30 0 29 0;
#X connect 31 0 29 1;
#X connect 31 0 33 0;
#X connect 32 0 29 1;
#X connect 32 0 33 0;
#X connect 33 0 30 0;
#X connect 34 0 35 0;
#X connect 35 0 19 0;
#X connect 36 0 30 0;
#X connect 37 0 41 0;
#X connect 38 0 42 0;
#X connect 38 0 52 0;
#X connect 38 0 53 0;
#X connect 39 0 54 0;
#X connect 40 0 39 0;
#X connect 41 0 40 0;
#X connect 42 0 47 0;
#X connect 42 0 48 0;
#X connect 42 1 63 0;
#X connect 42 1 82 0;
#X connect 42 2 64 0;
#X connect 42 2 83 0;
#X connect 42 3 64 0;
#X connect 42 3 84 0;
#X connect 42 4 65 0;
#X connect 42 4 84 0;
#X connect 42 5 48 0;
#X connect 42 5 47 0;
#X connect 43 0 44 0;
#X connect 44 0 61 0;
#X connect 44 0 69 0;
#X connect 44 0 70 0;
#X connect 45 0 62 0;
#X connect 45 0 71 0;
#X connect 45 0 72 0;
#X connect 46 0 45 0;
#X connect 47 0 43 0;
#X connect 48 0 46 0;
#X connect 50 0 96 1;
#X connect 51 0 96 0;
#X connect 52 0 50 0;
#X connect 52 1 100 0;
#X connect 52 2 98 0;
#X connect 52 3 99 0;
#X connect 52 4 101 0;
#X connect 52 5 50 0;
#X connect 53 0 51 0;
#X connect 54 0 38 0;
#X connect 55 0 60 0;
#X connect 56 0 57 0;
#X connect 57 0 58 0;
#X connect 57 1 58 1;
#X connect 57 2 58 2;
#X connect 58 0 59 0;
#X connect 59 0 119 0;
#X connect 59 1 103 0;
#X connect 59 2 120 0;
#X connect 59 3 122 0;
#X connect 59 4 121 0;
#X connect 59 5 123 0;
#X connect 59 6 124 0;
#X connect 59 7 125 0;
#X connect 63 0 43 0;
#X connect 64 0 43 0;
#X connect 65 0 43 0;
#X connect 66 0 37 0;
#X connect 67 0 55 0;
#X connect 68 0 1 0;
#X connect 74 0 73 0;
#X connect 75 0 78 0;
#X connect 76 0 79 0;
#X connect 77 0 80 0;
#X connect 81 0 15 0;
#X connect 82 0 46 0;
#X connect 83 0 46 0;
#X connect 84 0 46 0;
#X connect 85 0 53 0;
#X connect 85 0 38 0;
#X connect 86 0 87 0;
#X connect 86 0 88 0;
#X connect 90 0 94 0;
#X connect 90 1 95 0;
#X connect 94 0 89 0;
#X connect 95 0 89 1;
#X connect 96 0 49 0;
#X connect 96 0 97 0;
#X connect 98 0 96 1;
#X connect 99 0 96 1;
#X connect 100 0 96 1;
#X connect 101 0 96 1;
#X connect 102 0 21 0;
#X connect 103 0 86 0;
#X connect 104 0 6 0;
#X connect 104 1 7 0;
#X connect 105 0 6 0;
#X connect 105 1 7 0;
#X connect 106 0 6 0;
#X connect 106 1 7 0;
#X connect 107 0 6 0;
#X connect 107 1 7 0;
#X connect 108 0 6 0;
#X connect 108 1 7 0;
#X connect 109 0 6 0;
#X connect 109 1 7 0;
#X connect 110 0 6 0;
#X connect 110 1 7 0;
#X connect 111 0 6 0;
#X connect 111 1 7 0;
#X connect 112 0 12 0;
#X connect 112 1 13 0;
#X connect 113 0 12 0;
#X connect 113 1 13 0;
#X connect 114 0 12 0;
#X connect 114 1 13 0;
#X connect 115 0 12 0;
#X connect 115 1 13 0;
#X connect 116 0 12 0;
#X connect 116 1 13 0;
#X connect 117 0 12 0;
#X connect 117 1 13 0;
#X connect 118 0 12 0;
#X connect 118 1 13 0;
#X connect 119 0 86 0;
#X connect 120 0 86 0;
#X connect 121 0 86 0;
#X connect 122 0 86 0;
#X connect 123 0 86 0;
#X connect 124 0 86 0;
#X connect 125 0 86 0;
