#N canvas 0 22 1280 752 10;
#X obj 150 206 sig~;
#X obj 216 215 osc~;
#X obj 216 242 *~;
#X obj 343 207 sig~;
#X obj 409 219 osc~;
#X obj 409 246 *~;
#X obj 525 212 sig~;
#X obj 590 218 osc~;
#X obj 590 245 *~;
#X obj 698 217 sig~;
#X obj 762 225 osc~;
#X obj 762 252 *~;
#X obj 861 216 sig~;
#X obj 925 215 osc~;
#X obj 926 243 *~;
#X obj 152 36 mtof;
#X obj 152 62 * 8;
#X obj 152 -40 inlet;
#X obj 152 476 *~;
#X obj 65 56 sel 0;
#X obj 77 398 line~;
#X obj 82 428 *~;
#X msg 102 363 1 5;
#X obj 151 534 outlet~;
#X floatatom 201 17 5 0 0 0 - - -;
#X obj 151 -8 unpack f f;
#X obj 851 34 r Ovolume;
#X obj 150 310 osc~;
#X obj 343 311 osc~;
#X obj 525 316 osc~;
#X obj 698 321 osc~;
#X obj 860 314 osc~;
#X obj 215 155 r~ orate;
#X obj 275 156 r~ odepth;
#X obj 413 156 r~ orate;
#X obj 473 157 r~ odepth;
#X obj 575 159 r~ orate;
#X obj 634 159 r~ odepth;
#X obj 756 161 r~ orate;
#X obj 815 160 r~ odepth;
#X obj 922 160 r~ orate;
#X obj 981 160 r~ odepth;
#X obj 65 309 r decay;
#X floatatom 67 337 5 0 0 0 - - -;
#N canvas 0 22 1280 752 footage 0;
#X floatatom 370 81 5 0 0 0 - - -;
#X obj 849 283 min 0.2;
#X floatatom 849 314 5 0 0 0 - - -;
#X obj 627 285 max 0.2;
#X obj 628 316 - 0.2;
#X obj 628 345 min 0.2;
#X floatatom 628 376 5 0 0 0 - - -;
#X obj 458 346 min 0.2;
#X floatatom 458 377 5 0 0 0 - - -;
#X obj 457 286 max 0.4;
#X obj 458 317 - 0.4;
#X obj 289 345 min 0.2;
#X floatatom 289 376 5 0 0 0 - - -;
#X obj 288 285 max 0.6;
#X obj 289 316 - 0.6;
#X obj 97 338 min 0.2;
#X floatatom 97 369 5 0 0 0 - - -;
#X obj 96 278 max 0.8;
#X obj 97 309 - 0.8;
#X obj 370 58 * 2;
#X floatatom 370 35 5 0 0 0 - - -;
#X obj 791 412 - 0;
#X obj 914 283 max 1;
#X floatatom 913 358 5 0 0 0 - - -;
#X obj 914 311 - 1;
#X obj 915 335 min 0.2;
#X floatatom 790 438 5 0 0 0 - - -;
#X obj 369 -4 inlet;
#X floatatom 700 359 5 0 0 0 - - -;
#X obj 702 336 min 0.2;
#X obj 701 284 max 1.2;
#X obj 701 312 - 1.2;
#X floatatom 523 360 5 0 0 0 - - -;
#X obj 525 337 min 0.2;
#X obj 524 285 max 1.4;
#X obj 524 313 - 1.4;
#X floatatom 358 359 5 0 0 0 - - -;
#X obj 360 336 min 0.2;
#X obj 359 311 - 1.6;
#X obj 359 284 max 1.6;
#X floatatom 161 354 5 0 0 0 - - -;
#X obj 163 331 min 0.2;
#X obj 162 279 max 1.8;
#X obj 162 307 - 1.8;
#X obj 791 606 outlet;
#X obj 668 413 - 0;
#X floatatom 667 439 5 0 0 0 - - -;
#X obj 670 607 outlet;
#X obj 501 430 - 0;
#X floatatom 500 456 5 0 0 0 - - -;
#X obj 500 612 outlet;
#X obj 336 427 - 0;
#X floatatom 335 453 5 0 0 0 - - -;
#X obj 335 609 outlet;
#X obj 143 428 - 0;
#X floatatom 142 454 5 0 0 0 - - -;
#X obj 143 614 outlet;
#X obj 142 480 / 2;
#X floatatom 159 510 5 0 0 0 - - -;
#X obj 140 555 pack 0 50;
#X obj 329 551 pack 0 50;
#X obj 497 548 pack 0 50;
#X obj 666 546 pack 0 50;
#X obj 788 543 pack 0 50;
#X connect 0 0 1 0;
#X connect 0 0 3 0;
#X connect 0 0 9 0;
#X connect 0 0 13 0;
#X connect 0 0 17 0;
#X connect 0 0 22 0;
#X connect 0 0 30 0;
#X connect 0 0 34 0;
#X connect 0 0 39 0;
#X connect 0 0 42 0;
#X connect 1 0 2 0;
#X connect 2 0 21 0;
#X connect 3 0 4 0;
#X connect 4 0 5 0;
#X connect 5 0 6 0;
#X connect 6 0 45 0;
#X connect 7 0 8 0;
#X connect 8 0 48 0;
#X connect 9 0 10 0;
#X connect 10 0 7 0;
#X connect 11 0 12 0;
#X connect 12 0 51 0;
#X connect 13 0 14 0;
#X connect 14 0 11 0;
#X connect 15 0 16 0;
#X connect 16 0 54 0;
#X connect 17 0 18 0;
#X connect 18 0 15 0;
#X connect 19 0 0 0;
#X connect 20 0 19 0;
#X connect 21 0 26 0;
#X connect 22 0 24 0;
#X connect 23 0 21 1;
#X connect 24 0 25 0;
#X connect 25 0 23 0;
#X connect 26 0 63 0;
#X connect 27 0 20 0;
#X connect 28 0 45 1;
#X connect 29 0 28 0;
#X connect 30 0 31 0;
#X connect 31 0 29 0;
#X connect 32 0 48 1;
#X connect 33 0 32 0;
#X connect 34 0 35 0;
#X connect 35 0 33 0;
#X connect 36 0 51 1;
#X connect 37 0 36 0;
#X connect 38 0 37 0;
#X connect 39 0 38 0;
#X connect 40 0 54 1;
#X connect 41 0 40 0;
#X connect 42 0 43 0;
#X connect 43 0 41 0;
#X connect 45 0 46 0;
#X connect 46 0 62 0;
#X connect 48 0 49 0;
#X connect 49 0 61 0;
#X connect 51 0 52 0;
#X connect 52 0 60 0;
#X connect 54 0 55 0;
#X connect 55 0 57 0;
#X connect 57 0 58 0;
#X connect 57 0 59 0;
#X connect 59 0 56 0;
#X connect 60 0 53 0;
#X connect 61 0 50 0;
#X connect 62 0 47 0;
#X connect 63 0 44 0;
#X restore 852 59 pd footage;
#X obj 526 183 / 5.33;
#X obj 344 178 / 2.66;
#X obj 152 177 / 1.6;
#X obj 43 364 list;
#X msg 32 336 0;
#X obj 186 314 line~;
#X obj 378 318 line~;
#X obj 561 317 line~;
#X obj 735 321 line~;
#X obj 898 323 line~;
#X obj 862 346 *~;
#X obj 699 352 *~;
#X obj 526 346 *~;
#X obj 344 342 *~;
#X obj 150 340 *~;
#X obj 911 493 *~;
#X obj 910 551 outlet~;
#X obj 243 321 osc~;
#X obj 436 322 osc~;
#X obj 618 327 osc~;
#X obj 791 332 osc~;
#X obj 953 325 osc~;
#X obj 955 357 *~;
#X obj 792 363 *~;
#X obj 619 357 *~;
#X obj 437 353 *~;
#X obj 243 351 *~;
#X obj 699 188 / 12;
#X obj 862 187 / 32;
#X obj 150 284 -~;
#X obj 343 285 -~;
#X obj 525 290 -~;
#X obj 698 295 -~;
#X obj 861 289 -~;
#X obj 243 295 +~;
#X obj 436 296 +~;
#X obj 618 301 +~;
#X obj 791 305 +~;
#X obj 954 300 +~;
#X obj 910 521 *~ 0.8;
#X obj 151 504 *~ 0.8;
#X connect 0 0 74 0;
#X connect 0 0 79 0;
#X connect 1 0 2 0;
#X connect 2 0 74 1;
#X connect 2 0 79 1;
#X connect 3 0 75 0;
#X connect 3 0 80 0;
#X connect 4 0 5 0;
#X connect 5 0 75 1;
#X connect 5 0 80 1;
#X connect 6 0 76 0;
#X connect 6 0 81 0;
#X connect 7 0 8 0;
#X connect 8 0 76 1;
#X connect 8 0 81 1;
#X connect 9 0 77 0;
#X connect 9 0 82 0;
#X connect 10 0 11 0;
#X connect 11 0 77 1;
#X connect 11 0 82 1;
#X connect 12 0 78 0;
#X connect 12 0 83 0;
#X connect 13 0 14 0;
#X connect 14 0 78 1;
#X connect 14 0 83 1;
#X connect 15 0 16 0;
#X connect 16 0 45 0;
#X connect 16 0 46 0;
#X connect 16 0 47 0;
#X connect 16 0 72 0;
#X connect 16 0 73 0;
#X connect 17 0 25 0;
#X connect 18 0 85 0;
#X connect 19 0 49 0;
#X connect 19 1 22 0;
#X connect 20 0 21 0;
#X connect 20 0 21 1;
#X connect 21 0 18 1;
#X connect 21 0 60 1;
#X connect 22 0 20 0;
#X connect 24 0 19 0;
#X connect 25 0 15 0;
#X connect 25 1 24 0;
#X connect 26 0 44 0;
#X connect 27 0 59 0;
#X connect 28 0 58 0;
#X connect 29 0 57 0;
#X connect 30 0 56 0;
#X connect 31 0 55 0;
#X connect 32 0 1 0;
#X connect 33 0 2 1;
#X connect 34 0 4 0;
#X connect 35 0 5 1;
#X connect 36 0 7 0;
#X connect 37 0 8 1;
#X connect 38 0 10 0;
#X connect 39 0 11 1;
#X connect 40 0 13 0;
#X connect 41 0 14 1;
#X connect 42 0 43 0;
#X connect 43 0 48 1;
#X connect 44 0 50 0;
#X connect 44 1 51 0;
#X connect 44 2 52 0;
#X connect 44 3 53 0;
#X connect 44 4 54 0;
#X connect 45 0 6 0;
#X connect 46 0 3 0;
#X connect 47 0 0 0;
#X connect 48 0 20 0;
#X connect 49 0 48 0;
#X connect 50 0 59 1;
#X connect 50 0 71 1;
#X connect 51 0 58 1;
#X connect 51 0 70 1;
#X connect 52 0 57 1;
#X connect 52 0 69 1;
#X connect 53 0 56 1;
#X connect 53 0 68 1;
#X connect 54 0 55 1;
#X connect 54 0 67 1;
#X connect 55 0 18 0;
#X connect 56 0 18 0;
#X connect 57 0 18 0;
#X connect 58 0 18 0;
#X connect 59 0 18 0;
#X connect 60 0 84 0;
#X connect 62 0 71 0;
#X connect 63 0 70 0;
#X connect 64 0 69 0;
#X connect 65 0 68 0;
#X connect 66 0 67 0;
#X connect 67 0 60 0;
#X connect 68 0 60 0;
#X connect 69 0 60 0;
#X connect 70 0 60 0;
#X connect 71 0 60 0;
#X connect 72 0 9 0;
#X connect 73 0 12 0;
#X connect 74 0 27 0;
#X connect 75 0 28 0;
#X connect 76 0 29 0;
#X connect 77 0 30 0;
#X connect 78 0 31 0;
#X connect 79 0 62 0;
#X connect 80 0 63 0;
#X connect 81 0 64 0;
#X connect 82 0 65 0;
#X connect 83 0 66 0;
#X connect 84 0 61 0;
#X connect 85 0 23 0;
