#N canvas 0 25 922 711 10;
#X obj 160 216 sig~;
#X obj 160 294 +~;
#X obj 245 241 osc~;
#X obj 245 268 *~;
#X obj 162 46 mtof;
#X obj 162 -30 inlet;
#X obj 162 486 *~;
#X obj 79 46 sel 0;
#X obj 87 408 line~;
#X obj 92 438 *~;
#X obj 161 544 outlet~;
#X floatatom 211 27 5 0 0 0 - - -;
#X obj 161 2 unpack f f;
#X obj 76 289 r decay;
#X floatatom 77 347 5 0 0 0 - - -;
#X obj 53 374 list;
#X msg 42 346 0;
#X obj 246 165 r~ Trate;
#X obj 306 166 r~ Tdepth;
#X obj 480 90 r Tvolume;
#X obj 162 187 / 1;
#X obj 160 320 trianglewave;
#X obj 161 72 * 2;
#X obj 532 224 sig~;
#X obj 532 255 +~;
#X obj 532 281 phasor~;
#X obj 160 350 *~;
#X obj 532 311 *~;
#X obj 620 247 pack 0 50;
#X obj 618 281 line~;
#X obj 247 321 line~;
#X obj 248 296 pack 0 50;
#X obj 724 60 sel 0;
#X obj 738 385 line~;
#X obj 726 434 *~;
#X obj 728 262 r decay;
#X floatatom 728 324 5 0 0 0 - - -;
#X obj 704 351 list;
#X msg 693 323 0;
#X obj 537 473 *~;
#X obj 802 276 t b b;
#N canvas 169 22 1022 681 volume 0;
#X floatatom 380 91 5 0 0 0 - - -;
#X floatatom 413 345 5 0 0 0 - - -;
#X obj 380 68 * 2;
#X floatatom 380 45 5 0 0 0 - - -;
#X obj 379 6 inlet;
#X floatatom 490 335 5 0 0 0 - - -;
#X obj 451 394 - 0;
#X obj 451 575 outlet;
#X obj 450 506 pack 0 50;
#X floatatom 277 285 5 0 0 0 - - -;
#X obj 218 397 - 0;
#X floatatom 341 329 5 0 0 0 - - -;
#X floatatom 218 454 5 0 0 0 - - -;
#X obj 219 581 outlet;
#X obj 217 508 pack 0 50;
#X obj 277 254 min 0.5;
#X obj 412 254 max 0.5;
#X obj 413 285 - 0.5;
#X obj 413 314 min 0.5;
#X obj 492 312 min 0.5;
#X obj 491 260 max 1.5;
#X obj 491 288 - 1.5;
#X obj 343 306 min 0.5;
#X obj 342 254 max 1;
#X obj 342 282 - 1;
#X obj 218 428 * 2;
#X floatatom 451 450 5 0 0 0 - - -;
#X obj 451 424 * 2;
#X connect 0 0 15 0;
#X connect 0 0 16 0;
#X connect 0 0 20 0;
#X connect 0 0 23 0;
#X connect 1 0 6 0;
#X connect 2 0 0 0;
#X connect 3 0 2 0;
#X connect 4 0 3 0;
#X connect 5 0 6 1;
#X connect 6 0 27 0;
#X connect 8 0 7 0;
#X connect 9 0 10 0;
#X connect 10 0 25 0;
#X connect 11 0 10 1;
#X connect 12 0 14 0;
#X connect 14 0 13 0;
#X connect 15 0 9 0;
#X connect 16 0 17 0;
#X connect 17 0 18 0;
#X connect 18 0 1 0;
#X connect 19 0 5 0;
#X connect 20 0 21 0;
#X connect 21 0 19 0;
#X connect 22 0 11 0;
#X connect 23 0 24 0;
#X connect 24 0 22 0;
#X connect 25 0 12 0;
#X connect 26 0 8 0;
#X connect 27 0 26 0;
#X restore 479 122 pd volume split;
#X msg 869 335 1 1;
#X msg 802 336 0.3 40;
#X msg 112 373 1 20;
#X obj 728 297 + 200;
#X obj 802 309 delay 3;
#X obj 534 195 * 3;
#X obj 76 317 / 2;
#X obj 532 341 *~ 0.7;
#X obj 161 514 *~ 0.4;
#X connect 0 0 1 0;
#X connect 1 0 21 0;
#X connect 2 0 3 0;
#X connect 3 0 1 1;
#X connect 4 0 22 0;
#X connect 5 0 12 0;
#X connect 6 0 50 0;
#X connect 7 0 16 0;
#X connect 7 1 44 0;
#X connect 8 0 9 0;
#X connect 8 0 9 1;
#X connect 9 0 6 1;
#X connect 11 0 7 0;
#X connect 11 0 32 0;
#X connect 12 0 4 0;
#X connect 12 1 11 0;
#X connect 13 0 48 0;
#X connect 14 0 15 1;
#X connect 15 0 8 0;
#X connect 16 0 15 0;
#X connect 17 0 2 0;
#X connect 18 0 3 1;
#X connect 19 0 41 0;
#X connect 20 0 0 0;
#X connect 21 0 26 0;
#X connect 22 0 20 0;
#X connect 22 0 47 0;
#X connect 23 0 24 0;
#X connect 24 0 25 0;
#X connect 25 0 27 0;
#X connect 26 0 6 0;
#X connect 27 0 49 0;
#X connect 28 0 29 0;
#X connect 29 0 27 1;
#X connect 30 0 26 1;
#X connect 31 0 30 0;
#X connect 32 0 38 0;
#X connect 32 1 40 0;
#X connect 33 0 34 0;
#X connect 33 0 34 1;
#X connect 34 0 39 1;
#X connect 35 0 45 0;
#X connect 36 0 37 1;
#X connect 37 0 33 0;
#X connect 38 0 37 0;
#X connect 39 0 50 0;
#X connect 40 0 46 0;
#X connect 40 1 42 0;
#X connect 41 0 31 0;
#X connect 41 1 28 0;
#X connect 42 0 33 0;
#X connect 43 0 33 0;
#X connect 44 0 8 0;
#X connect 45 0 36 0;
#X connect 46 0 43 0;
#X connect 47 0 23 0;
#X connect 48 0 14 0;
#X connect 49 0 39 0;
#X connect 50 0 10 0;
