#N canvas 0 0 1912 978 36;
#X declare -lib mrpeach;
#X obj 98 -1176 vsl 44 444 0 1 0 0 knob1 empty empty 0 -9 0 10 -4034
-1 -1 39870 1;
#X floatatom 115 -721 5 0 0 0 - - -;
#X floatatom 270 -719 5 0 0 0 - - -;
#X obj -31 -719 adc~;
#N canvas 950 0 958 1004 quad_delay~ 0;
#X obj 824 -272 tgl 15 0 empty empty empty 17 7 0 10 -262144 -1 -1
1 1;
#X floatatom 1356 -396 5 0 0 0 - - -;
#X obj 533 -63 line~;
#X obj 249 188 *~;
#X msg 575 -124 \$1 2;
#X obj 702 -207 ==;
#X obj 816 -45 line~;
#X msg 823 -120 \$1 2;
#X obj 723 92 *~;
#X obj 821 -383 loadbang;
#X msg 822 -326 1;
#X obj 821 -411 bng 15 250 50 0 empty empty empty 17 7 0 10 -262144
-1 -1;
#X obj 595 372 outlet~;
#X obj 798 373 outlet~;
#X obj 1365 -458 inlet;
#X obj 712 -517 inlet~;
#X obj 1612 -441 inlet;
#X obj 797 218 delay2sec 2;
#X connect 0 0 5 0;
#X connect 0 0 7 0;
#X connect 1 0 17 1;
#X connect 2 0 3 1;
#X connect 3 0 12 0;
#X connect 3 0 13 0;
#X connect 4 0 2 0;
#X connect 5 0 4 0;
#X connect 6 0 8 1;
#X connect 7 0 6 0;
#X connect 8 0 17 0;
#X connect 9 0 10 0;
#X connect 10 0 0 0;
#X connect 11 0 9 0;
#X connect 14 0 1 0;
#X connect 15 0 3 0;
#X connect 15 0 8 0;
#X connect 16 0 17 2;
#X connect 17 0 12 0;
#X connect 17 0 13 0;
#X restore 106 -585 pd quad_delay~;
#N canvas 0 0 1912 978 audioIO 0;
#X obj 774 530 dac~;
#X obj 872 225 catch~ outR;
#X obj 667 264 catch~ outL;
#X obj 453 360 adc~;
#X obj 546 439 s~ inR;
#X obj 371 438 s~ inL;
#X obj 748 467 *~;
#X obj 837 469 *~;
#X obj 1120 120 r vol;
#X obj 1071 316 *;
#X obj 1101 256 t f f;
#X obj 1071 344 sig~;
#X obj 1071 370 lop~ 2;
#X obj 743 373 clip~ -1 1;
#X obj 832 373 clip~ -1 1;
#X text 424 131 Receives and sends audio to patch. Outgoing audio is
run through a compressor to provide some headroom if things get too
loud. Also sends values to the Organelle's OLED VU meter.;
#X obj 1003 554 vsl 15 128 0 1 0 0 empty empty empty 0 -9 0 10 -262144
-1 -1 0 1;
#X obj 1003 520 r vol;
#X obj 746 328 *~ 0.25;
#X obj 843 327 *~ 0.25;
#X obj 1253 65 vsl 15 128 0 1 0 0 empty empty empty 0 -9 0 10 -262144
-1 -1 0 1;
#X obj 1251 238 s vol;
#X connect 1 0 19 0;
#X connect 2 0 18 0;
#X connect 3 0 5 0;
#X connect 3 1 4 0;
#X connect 6 0 0 0;
#X connect 7 0 0 1;
#X connect 8 0 10 0;
#X connect 9 0 11 0;
#X connect 10 0 9 0;
#X connect 10 1 9 1;
#X connect 11 0 12 0;
#X connect 12 0 7 1;
#X connect 12 0 6 1;
#X connect 13 0 6 0;
#X connect 14 0 7 0;
#X connect 17 0 16 0;
#X connect 18 0 13 0;
#X connect 19 0 14 0;
#X connect 20 0 21 0;
#X restore -634 47 pd audioIO;
#X obj -333 85 delay 300;
#X msg -328 123 \; pd dsp 1;
#X obj -405 -766 tgl 15 0 empty empty empty 17 7 0 10 -262144 -1 -1
1 1;
#X obj -404 -739 metro 500;
#N canvas 0 0 450 300 (subpatch) 0;
#X array output 11000 float 2;
#X coords 0 1 11000 -1 1000 333 1 0 0;
#X restore 892 -918 graph;
#X obj 660 -366 tabwrite~ output;
#X msg 237 -451 1;
#X obj -490 -1139 loadbang;
#X obj -493 -1070 s mbang;
#X msg -405 -825 1;
#X obj -406 -888 r mbang;
#X obj 239 -398 tgl 15 0 empty empty empty 17 7 0 10 -262144 -1 -1
1 1;
#X obj -488 -1173 bng 15 250 50 0 empty empty empty 17 7 0 10 -262144
-1 -1;
#X obj 236 -503 r mbang;
#X obj -333 24 r mbang;
#X obj 689 -582 lop~;
#X obj 423 -1186 vsl 44 444 0 4 0 0 depth empty empty 0 -9 0 10 -257985
-1 -1 5781 1;
#X floatatom 434 -716 5 0 0 0 - - -;
#X obj 1091 -374 dac~;
#X text 391 -1228 volume;
#X text 245 -1228 delay;
#X text 98 -1228 delay1;
#X obj 192 -1186 vsl 44 444 0.96 0.99 0 0 knob1 empty empty 0 -9 0
10 -4034 -1 -1 0 1;
#X obj -435 -1300 bng 15 250 50 0 empty empty empty 17 7 0 10 -262144
-1 -1;
#X obj 271 -1186 vsl 44 444 0 5000 0 0 depth empty empty 0 -9 0 10
-257985 -1 -1 886 1;
#X obj 426 -1362 r mbang;
#X obj -213 -1243 * 10;
#X obj -460 -1247 metro 49;
#X obj -381 -1310 counter 2 25 125;
#N canvas 995 57 450 300 volume 0;
#X obj 44 15 inlet~;
#X obj 106 199 outlet~;
#X obj 108 119 *~ 0.5;
#X obj 245 13 inlet;
#X connect 0 0 2 0;
#X connect 2 0 1 0;
#X connect 3 0 2 1;
#X restore 659 -523 pd volume;
#X obj -452 -1276 tgl 15 0 empty empty empty 17 7 0 10 -262144 -1 -1
0 1;
#X obj 327 -1186 vsl 44 444 5 50 0 0 depth empty empty 0 -9 0 10 -257985
-1 -1 0 1;
#X obj 238 -376 metro 360;
#X obj 466 -525 vsl 15 128 200 400 0 0 empty empty empty 0 -9 0 10
-262144 -1 -1 0 1;
#X obj 429 -1292 0.522;
#X obj 269 -1289 100;
#X obj 114 -1280 0.9;
#X obj 576 -1288 1000;
#X obj -66 -175 adumpOSC 8000;
#X obj -85 -264 import mrpeach;
#X obj -21 -67 udpreceive 8100;
#X obj -20 -8 unpackOSC;
#X symbolatom -45 283 10 0 0 0 - - -;
#X obj 300 342 vsl 44 222 0 0.5 0 0 depth empty empty 0 -9 0 10 -260097
-1 -1 5484 1;
#X obj 345 342 vsl 44 222 0 5 0 0 depth empty empty 0 -9 0 10 -258113
-1 -1 14371 1;
#X obj 438 342 vsl 44 222 0 1 0 0 depth empty empty 0 -9 0 10 -261234
-1 -1 5185 1;
#X obj 391 342 vsl 44 222 0 1 0 0 depth empty empty 0 -9 0 10 -261234
-1 -1 3218 1;
#X obj 254 342 vsl 44 222 0 0.5 0 0 depth empty empty 0 -9 0 10 -260097
-1 -1 1386 1;
#X floatatom 251 249 2 0 0 0 - - -;
#X floatatom 296 249 2 0 0 0 - - -;
#X floatatom 345 249 2 0 0 0 - - -;
#X floatatom 394 249 2 0 0 0 - - -;
#X floatatom 442 249 2 0 0 0 - - -;
#X obj 486 342 vsl 44 222 0 1 0 0 depth empty empty 0 -9 0 10 -261234
-1 -1 1630 1;
#X floatatom 490 249 2 0 0 0 - - -;
#X obj 534 342 vsl 44 222 0 1 0 0 depth empty empty 0 -9 0 10 -261234
-1 -1 0 1;
#X floatatom 538 249 2 0 0 0 - - -;
#X obj 582 342 vsl 44 222 0 1 0 0 depth empty empty 0 -9 0 10 -261234
-1 -1 509 1;
#X floatatom 586 249 2 0 0 0 - - -;
#X obj 629 342 vsl 44 222 -100 100 0 0 depth empty empty 0 -9 0 22
-4160 -262144 -262144 8892 1;
#X floatatom 633 249 2 0 0 0 - - -;
#X obj 675 342 vsl 44 222 0 1 0 0 depth empty empty 0 -9 0 10 -262130
-1 -1 22100 1;
#X floatatom 679 249 2 0 0 0 - - -;
#X obj 721 342 vsl 44 222 -1 1 0 0 depth empty empty 0 -9 0 10 -16662
-1 -262144 8201 1;
#X floatatom 725 249 2 0 0 0 - - -;
#X obj 768 342 vsl 44 222 -1 1 0 0 depth empty empty 0 -9 0 10 -262130
-1 -1 12394 1;
#X floatatom 772 249 2 0 0 0 - - -;
#X obj 815 342 vsl 44 222 -1 1 0 0 depth empty empty 0 -9 0 10 -262130
-1 -1 13534 1;
#X floatatom 819 249 2 0 0 0 - - -;
#X obj 861 342 vsl 44 222 -1 1 0 0 depth empty empty 0 -9 0 10 -262130
-1 -1 13501 1;
#X floatatom 865 249 2 0 0 0 - - -;
#X obj 907 342 vsl 44 222 -1 1 0 0 depth empty empty 0 -9 0 10 -262130
-1 -1 10638 1;
#X floatatom 911 249 2 0 0 0 - - -;
#X obj 953 342 vsl 44 222 -1 1 0 0 depth empty empty 0 -9 0 10 -262130
-1 -1 11423 1;
#X floatatom 957 249 2 0 0 0 - - -;
#X obj 999 342 vsl 44 222 -1 1 0 0 depth empty empty 0 -9 0 10 -262130
-1 -1 9802 1;
#X floatatom 1003 249 2 0 0 0 - - -;
#X obj 334 -138 bng 15 250 50 0 empty empty empty 17 7 0 10 -262144
-1 -1;
#X obj 1474 347 vsl 44 222 -1 1 0 0 depth empty empty 0 -9 0 10 -262130
-1 -1 11161 1;
#X floatatom 1478 250 2 0 0 0 - - -;
#X obj 1599 360 vsl 44 222 -1 1 0 0 depth empty empty 0 -9 0 10 -262130
-1 -1 11102 1;
#X floatatom 1603 250 2 0 0 0 - - -;
#X obj 246 84 unpack s f f f f f f f f f f f f f f f f f f f f f f
f f f f f f;
#X obj 1048 343 vsl 44 222 -1 1 0 0 depth empty empty 0 -9 0 10 -262130
-1 -1 12298 1;
#X floatatom 1052 250 2 0 0 0 - - -;
#X obj 1102 346 vsl 44 222 -1 1 0 0 depth empty empty 0 -9 0 10 -262130
-1 -1 13108 1;
#X floatatom 1106 250 2 0 0 0 - - -;
#X obj 1156 345 vsl 44 222 -1 1 0 0 depth empty empty 0 -9 0 10 -262130
-1 -1 12919 1;
#X floatatom 1160 250 2 0 0 0 - - -;
#X obj 1212 344 vsl 44 222 -1 1 0 0 depth empty empty 0 -9 0 10 -262130
-1 -1 12149 1;
#X floatatom 1216 250 2 0 0 0 - - -;
#X obj 1269 346 vsl 44 222 -1 1 0 0 depth empty empty 0 -9 0 10 -262130
-1 -1 11692 1;
#X floatatom 1273 250 2 0 0 0 - - -;
#X obj 1322 349 vsl 44 222 -1 1 0 0 depth empty empty 0 -9 0 10 -262130
-1 -1 11151 1;
#X floatatom 1326 250 2 0 0 0 - - -;
#X obj 1370 349 vsl 44 222 -1 1 0 0 depth empty empty 0 -9 0 10 -262130
-1 -1 11131 1;
#X floatatom 1374 250 2 0 0 0 - - -;
#X obj 1422 348 vsl 44 222 -1 1 0 0 depth empty empty 0 -9 0 10 -262130
-1 -1 11932 1;
#X floatatom 1426 250 2 0 0 0 - - -;
#X obj 1526 348 vsl 44 222 -1 1 0 0 depth empty empty 0 -9 0 10 -262130
-1 -1 11196 1;
#X floatatom 1530 250 2 0 0 0 - - -;
#X obj -183 375 bng 15 250 50 0 empty empty empty 17 7 0 10 -262144
-1 -1;
#X floatatom -130 471 5 0 0 0 - - -;
#N canvas 0 0 1912 978 tabwrites 0;
#X obj 353 370 inlet;
#X obj 363 380 inlet;
#X obj 373 390 inlet;
#X obj 383 400 inlet;
#X obj 393 410 inlet;
#X obj 403 420 inlet;
#X obj 413 430 inlet;
#X obj 423 440 inlet;
#X obj 433 450 inlet;
#X obj 717 438 inlet;
#X obj 727 448 inlet;
#X obj 737 458 inlet;
#X obj 747 468 inlet;
#X obj 757 478 inlet;
#X obj 767 488 inlet;
#X obj 777 498 inlet;
#X obj 787 508 inlet;
#X obj 797 518 inlet;
#X obj 1084 423 inlet;
#X obj 1094 433 inlet;
#X obj 1104 443 inlet;
#X obj 364 689 tabwrite f1;
#X obj 374 699 tabwrite f2;
#X obj 384 709 tabwrite f1;
#X obj 394 719 tabwrite f4;
#X obj 404 729 tabwrite f1;
#X obj 414 739 tabwrite f6;
#X obj 424 749 tabwrite f7;
#X obj 434 759 tabwrite f8;
#X obj 444 769 tabwrite f9;
#X obj 715 688 tabwrite f10;
#X obj 725 698 tabwrite f11;
#X obj 735 708 tabwrite f12;
#X obj 745 718 tabwrite f14;
#X obj 755 728 tabwrite f15;
#X obj 765 738 tabwrite f16;
#X obj 775 748 tabwrite f17;
#X obj 785 758 tabwrite f18;
#X obj 795 768 tabwrite f19;
#X obj 1073 667 tabwrite f20;
#X obj 1083 677 tabwrite f21;
#X obj 1114 453 inlet;
#X obj 1124 463 inlet;
#X obj 1134 473 inlet;
#X obj 1144 483 inlet;
#X obj 1154 493 inlet;
#X obj 1164 503 inlet;
#X obj 1174 513 inlet;
#X obj 1093 687 tabwrite f23;
#X obj 1103 697 tabwrite f24;
#X obj 1113 707 tabwrite f25;
#X obj 1123 717 tabwrite f26;
#X obj 1133 727 tabwrite f27;
#X obj 1143 737 tabwrite f28;
#X obj 1153 747 tabwrite f29;
#X obj 1163 757 tabwrite f30;
#X obj 1586 291 inlet;
#X connect 0 0 21 0;
#X connect 1 0 22 0;
#X connect 2 0 23 0;
#X connect 3 0 24 0;
#X connect 4 0 25 0;
#X connect 5 0 26 0;
#X connect 6 0 27 0;
#X connect 7 0 28 0;
#X connect 8 0 29 0;
#X connect 9 0 30 0;
#X connect 10 0 31 0;
#X connect 11 0 32 0;
#X connect 12 0 33 0;
#X connect 13 0 34 0;
#X connect 14 0 35 0;
#X connect 15 0 36 0;
#X connect 16 0 37 0;
#X connect 17 0 38 0;
#X connect 18 0 39 0;
#X connect 19 0 40 0;
#X connect 20 0 48 0;
#X connect 41 0 49 0;
#X connect 42 0 50 0;
#X connect 43 0 51 0;
#X connect 44 0 52 0;
#X connect 45 0 53 0;
#X connect 46 0 54 0;
#X connect 47 0 55 0;
#X connect 56 0 21 1;
#X connect 56 0 22 1;
#X connect 56 0 23 1;
#X connect 56 0 24 1;
#X connect 56 0 25 1;
#X connect 56 0 26 1;
#X connect 56 0 27 1;
#X connect 56 0 28 1;
#X connect 56 0 29 1;
#X connect 56 0 30 1;
#X connect 56 0 31 1;
#X connect 56 0 32 1;
#X connect 56 0 33 1;
#X connect 56 0 34 1;
#X connect 56 0 35 1;
#X connect 56 0 36 1;
#X connect 56 0 37 1;
#X connect 56 0 38 1;
#X connect 56 0 39 1;
#X connect 56 0 40 1;
#X connect 56 0 48 1;
#X connect 56 0 49 1;
#X connect 56 0 50 1;
#X connect 56 0 51 1;
#X connect 56 0 52 1;
#X connect 56 0 53 1;
#X connect 56 0 54 1;
#X connect 56 0 55 1;
#X restore 739 610 pd tabwrites;
#N canvas 0 0 450 300 (subpatch) 0;
#X array f1 500 float 0;
#X coords 0 1 499 -1 200 140 1 0 0;
#X restore 223 717 graph;
#X obj 601 -1178 vsl 44 444 0 1000 0 0 depth empty empty 0 -9 0 10
-159808 -1 -1 44300 1;
#X floatatom 555 -718 5 0 0 0 - - -;
#X text 556 -1225 cutoff;
#X obj 1112 591 r tableCount;
#X obj -190 526 s tableCount;
#N canvas 0 0 450 300 (subpatch) 0;
#X array f2 500 float 0;
#X coords 0 1 499 -1 200 140 1 0 0;
#X restore 426 714 graph;
#N canvas 0 0 450 300 (subpatch) 0;
#X array f3 500 float 0;
#X coords 0 1 499 -1 200 140 1 0 0;
#X restore 634 709 graph;
#N canvas 0 0 450 300 (subpatch) 0;
#X array f4 500 float 0;
#X coords 0 1 499 -1 200 140 1 0 0;
#X restore 847 711 graph;
#N canvas 0 0 450 300 (subpatch) 0;
#X array f5 500 float 0;
#X coords 0 0 499 0.6 200 140 1 0 0;
#X restore 1055 714 graph;
#N canvas 0 0 450 300 (subpatch) 0;
#X array f6 500 float 0;
#X coords 0 1 499 -1 200 140 1;
#X restore 1261 713 graph;
#N canvas 0 0 450 300 (subpatch) 0;
#X array f7 500 float 0;
#X coords 0 1 499 -1 200 140 1;
#X restore 1465 711 graph;
#N canvas 0 0 450 300 (subpatch) 0;
#X array f8 500 float 0;
#X coords 0 1 499 -1 200 140 1 0 0;
#X restore 220 909 graph;
#N canvas 0 0 450 300 (subpatch) 0;
#X array f9 500 float 0;
#X coords 0 1 499 -1 200 140 1 0 0;
#X restore 423 906 graph;
#N canvas 0 0 450 300 (subpatch) 0;
#X array f10 500 float 0;
#X coords 0 1 499 -1 200 140 1 0 0;
#X restore 631 901 graph;
#N canvas 0 0 450 300 (subpatch) 0;
#X array f11 500 float 0;
#X coords 0 1 499 -1 200 140 1;
#X restore 844 903 graph;
#N canvas 0 0 450 300 (subpatch) 0;
#X array f12 500 float 0;
#X coords 0 1 499 -1 200 140 1;
#X restore 1052 906 graph;
#N canvas 0 0 450 300 (subpatch) 0;
#X array f13 500 float 0;
#X coords 0 1 499 -1 200 140 1 0 0;
#X restore 1258 905 graph;
#N canvas 0 0 450 300 (subpatch) 0;
#X array f14 500 float 0;
#X coords 0 1 499 -1 200 140 1 0 0;
#X restore 1462 903 graph;
#N canvas 0 0 450 300 (subpatch) 0;
#X array f15 500 float 0;
#X coords 0 1 499 -1 200 140 1 0 0;
#X restore 220 1102 graph;
#N canvas 0 0 450 300 (subpatch) 0;
#X array f16 500 float 0;
#X coords 0 1 499 -1 200 140 1 0 0;
#X restore 423 1099 graph;
#N canvas 0 0 450 300 (subpatch) 0;
#X array f17 500 float 0;
#X coords 0 1 499 -1 200 140 1 0 0;
#X restore 631 1094 graph;
#N canvas 0 0 450 300 (subpatch) 0;
#X array f18 500 float 0;
#X coords 0 1 499 -1 200 140 1 0 0;
#X restore 844 1096 graph;
#N canvas 0 0 450 300 (subpatch) 0;
#X array f19 500 float 0;
#X coords 0 1 499 -1 200 140 1 0 0;
#X restore 1052 1099 graph;
#N canvas 0 0 450 300 (subpatch) 0;
#X array f20 500 float 0;
#X coords 0 1 499 -1 200 140 1 0 0;
#X restore 1258 1098 graph;
#N canvas 0 0 450 300 (subpatch) 0;
#X array f21 500 float 0;
#X coords 0 1 499 -1 200 140 1 0 0;
#X restore 1462 1096 graph;
#N canvas 0 0 450 300 (subpatch) 0;
#X array f22 500 float 0;
#X coords 0 1 499 -1 200 140 1 0 0;
#X restore 216 1307 graph;
#N canvas 0 0 450 300 (subpatch) 0;
#X array f23 500 float 0;
#X coords 0 1 499 -1 200 140 1 0 0;
#X restore 419 1304 graph;
#N canvas 0 0 450 300 (subpatch) 0;
#X array f24 500 float 0;
#X coords 0 1 499 -1 200 140 1 0 0;
#X restore 627 1299 graph;
#N canvas 0 0 450 300 (subpatch) 0;
#X array f25 500 float 0;
#X coords 0 1 499 -1 200 140 1 0 0;
#X restore 840 1301 graph;
#N canvas 0 0 450 300 (subpatch) 0;
#X array f26 500 float 0;
#X coords 0 1 499 -1 200 140 1 0 0;
#X restore 1048 1304 graph;
#N canvas 0 0 450 300 (subpatch) 0;
#X array f27 500 float 0;
#X coords 0 1 499 -1 200 140 1 0 0;
#X restore 1254 1303 graph;
#N canvas 0 0 450 300 (subpatch) 0;
#X array f28 500 float 0;
#X coords 0 1 499 -1 200 140 1 0 0;
#X restore 1458 1301 graph;
#N canvas 0 0 450 300 (subpatch) 0;
#X array f29 500 float 0;
#X coords 0 1 499 -1 200 140 1 0 0;
#X restore 211 1505 graph;
#N canvas 0 0 450 300 (subpatch) 0;
#X array f30 500 float 0;
#X coords 0 1 499 -1 200 140 1 0 0;
#X restore 414 1502 graph;
#X obj -161 410 counter 1 1 1000;
#X connect 0 0 1 0;
#X connect 1 0 4 2;
#X connect 2 0 4 1;
#X connect 3 0 4 0;
#X connect 3 1 4 0;
#X connect 4 0 21 0;
#X connect 4 1 21 0;
#X connect 6 0 7 0;
#X connect 8 0 9 0;
#X connect 12 0 17 0;
#X connect 13 0 14 0;
#X connect 15 0 8 0;
#X connect 16 0 15 0;
#X connect 17 0 38 0;
#X connect 18 0 13 0;
#X connect 19 0 12 0;
#X connect 20 0 6 0;
#X connect 21 0 35 0;
#X connect 22 0 23 0;
#X connect 23 0 35 1;
#X connect 28 0 1 0;
#X connect 29 0 36 0;
#X connect 30 0 2 0;
#X connect 31 0 40 0;
#X connect 31 0 41 0;
#X connect 31 0 42 0;
#X connect 31 0 43 0;
#X connect 33 0 34 0;
#X connect 34 0 32 0;
#X connect 35 0 24 0;
#X connect 35 0 24 1;
#X connect 35 0 11 0;
#X connect 36 0 33 0;
#X connect 37 0 2 0;
#X connect 38 0 11 0;
#X connect 39 0 38 1;
#X connect 39 0 38 0;
#X connect 40 0 22 0;
#X connect 41 0 30 0;
#X connect 42 0 0 0;
#X connect 43 0 111 0;
#X connect 46 0 47 0;
#X connect 47 0 88 0;
#X connect 47 0 107 0;
#X connect 54 0 53 0;
#X connect 54 0 109 0;
#X connect 55 0 49 0;
#X connect 55 0 109 1;
#X connect 56 0 50 0;
#X connect 56 0 109 2;
#X connect 57 0 52 0;
#X connect 57 0 109 3;
#X connect 58 0 51 0;
#X connect 58 0 109 4;
#X connect 60 0 59 0;
#X connect 60 0 109 5;
#X connect 62 0 61 0;
#X connect 62 0 109 6;
#X connect 64 0 63 0;
#X connect 64 0 109 7;
#X connect 66 0 65 0;
#X connect 66 0 109 8;
#X connect 68 0 67 0;
#X connect 68 0 109 9;
#X connect 70 0 69 0;
#X connect 70 0 109 10;
#X connect 72 0 71 0;
#X connect 72 0 109 11;
#X connect 74 0 73 0;
#X connect 74 0 109 12;
#X connect 76 0 75 0;
#X connect 76 0 109 13;
#X connect 78 0 77 0;
#X connect 78 0 109 14;
#X connect 80 0 79 0;
#X connect 80 0 109 15;
#X connect 82 0 81 0;
#X connect 82 0 109 16;
#X connect 85 0 84 0;
#X connect 85 0 109 25;
#X connect 87 0 86 0;
#X connect 87 0 109 27;
#X connect 88 0 48 0;
#X connect 88 1 54 0;
#X connect 88 2 55 0;
#X connect 88 3 56 0;
#X connect 88 4 57 0;
#X connect 88 5 58 0;
#X connect 88 6 60 0;
#X connect 88 7 62 0;
#X connect 88 8 64 0;
#X connect 88 9 66 0;
#X connect 88 10 68 0;
#X connect 88 11 70 0;
#X connect 88 12 72 0;
#X connect 88 13 74 0;
#X connect 88 14 76 0;
#X connect 88 15 78 0;
#X connect 88 16 80 0;
#X connect 88 17 82 0;
#X connect 88 18 90 0;
#X connect 88 19 92 0;
#X connect 88 20 94 0;
#X connect 88 21 96 0;
#X connect 88 22 98 0;
#X connect 88 23 100 0;
#X connect 88 24 102 0;
#X connect 88 25 104 0;
#X connect 88 26 85 0;
#X connect 88 27 106 0;
#X connect 88 28 87 0;
#X connect 90 0 89 0;
#X connect 90 0 109 17;
#X connect 92 0 91 0;
#X connect 92 0 109 18;
#X connect 94 0 93 0;
#X connect 94 0 109 19;
#X connect 96 0 95 0;
#X connect 96 0 109 20;
#X connect 98 0 97 0;
#X connect 98 0 109 21;
#X connect 100 0 99 0;
#X connect 100 0 109 22;
#X connect 102 0 101 0;
#X connect 102 0 109 23;
#X connect 104 0 103 0;
#X connect 104 0 109 24;
#X connect 106 0 105 0;
#X connect 106 0 109 26;
#X connect 107 0 145 0;
#X connect 111 0 112 0;
#X connect 112 0 21 1;
#X connect 114 0 109 28;
#X connect 145 0 108 0;
#X connect 145 0 115 0;
