#N canvas 0 0 450 300 10;
#X obj 188 -394 inlet;
#X obj 342 -379 inlet;
#X obj 192 -318 bng 15 250 50 0 empty empty empty 0 -6 0 8 -262144
-1 -1;
#X obj 193 -264 list append;
#X obj 549 -333 t l;
#X obj 350 -312 list prepend;
#X obj 504 -171 t l b;
#X obj 193 -225 list length;
#X floatatom 191 -191 5 0 0 0 - - -;
#X floatatom 421 -173 5 0 0 0 - - -;
#X obj 421 -131 outlet;
#X obj 421 -213 list split 1;
#X text -110 -394 bangs to pop item off list;
#X text 415 -378 putting float values;
#X text 593 -128 sending the popped item;
#X text 603 -220 split off the 1st item;
#X text 600 -172 put the rest of the list back to the source list;
#X text -23 -185 count of all items;
#X msg 340 -495 1 2 3 4 5;
#X text -84 -491 push and pop floats from list;
#X connect 0 0 2 0;
#X connect 1 0 5 0;
#X connect 2 0 3 0;
#X connect 3 0 7 0;
#X connect 3 0 11 0;
#X connect 4 0 5 1;
#X connect 5 0 4 0;
#X connect 5 0 3 1;
#X connect 6 0 5 0;
#X connect 6 1 5 1;
#X connect 7 0 8 0;
#X connect 9 0 10 0;
#X connect 11 0 9 0;
#X connect 11 1 6 0;
#X connect 18 0 5 0;
