#N canvas 0 0 1902 968 36;
#X declare -lib mrpeach;
#X obj -337 -1193 vsl 44 444 0 1 0 0 knob1 empty empty 0 -9 0 10 -4034
-1 -1 39870 1;
#X floatatom -200 -730 5 0 0 0 - - -;
#X floatatom -45 -728 5 0 0 0 - - -;
#X obj -346 -728 adc~;
#N canvas 950 0 958 1004 quad_delay~ 0;
#X obj 824 -272 tgl 15 0 empty empty empty 17 7 0 10 -262144 -1 -1
1 1;
#X floatatom 1356 -396 5 0 0 0 - - -;
#X obj 533 -63 line~;
#X obj 249 188 *~;
#X msg 575 -124 \$1 2;
#X obj 702 -207 ==;
#X obj 816 -45 line~;
#X msg 823 -120 \$1 2;
#X obj 723 92 *~;
#X obj 821 -383 loadbang;
#X msg 822 -326 1;
#X obj 821 -411 bng 15 250 50 0 empty empty empty 17 7 0 10 -262144
-1 -1;
#X obj 595 372 outlet~;
#X obj 798 373 outlet~;
#X obj 1365 -458 inlet;
#X obj 712 -517 inlet~;
#X obj 1612 -441 inlet;
#X obj 797 218 delay2sec 2;
#X connect 0 0 5 0;
#X connect 0 0 7 0;
#X connect 1 0 17 1;
#X connect 2 0 3 1;
#X connect 3 0 12 0;
#X connect 3 0 13 0;
#X connect 4 0 2 0;
#X connect 5 0 4 0;
#X connect 6 0 8 1;
#X connect 7 0 6 0;
#X connect 8 0 17 0;
#X connect 9 0 10 0;
#X connect 10 0 0 0;
#X connect 11 0 9 0;
#X connect 14 0 1 0;
#X connect 15 0 3 0;
#X connect 15 0 8 0;
#X connect 16 0 17 2;
#X connect 17 0 12 0;
#X connect 17 0 13 0;
#X restore -353 -660 pd quad_delay~;
#N canvas 0 0 1912 978 audioIO 0;
#X obj 774 530 dac~;
#X obj 872 225 catch~ outR;
#X obj 667 264 catch~ outL;
#X obj 453 360 adc~;
#X obj 546 439 s~ inR;
#X obj 371 438 s~ inL;
#X obj 748 467 *~;
#X obj 837 469 *~;
#X obj 1120 120 r vol;
#X obj 1071 316 *;
#X obj 1101 256 t f f;
#X obj 1071 344 sig~;
#X obj 1071 370 lop~ 2;
#X obj 743 373 clip~ -1 1;
#X obj 832 373 clip~ -1 1;
#X text 424 131 Receives and sends audio to patch. Outgoing audio is
run through a compressor to provide some headroom if things get too
loud. Also sends values to the Organelle's OLED VU meter.;
#X obj 1003 554 vsl 15 128 0 1 0 0 empty empty empty 0 -9 0 10 -262144
-1 -1 0 1;
#X obj 1003 520 r vol;
#X obj 746 328 *~ 0.25;
#X obj 843 327 *~ 0.25;
#X obj 1253 65 vsl 15 128 0 1 0 0 empty empty empty 0 -9 0 10 -262144
-1 -1 0 1;
#X obj 1251 238 s vol;
#X connect 1 0 19 0;
#X connect 2 0 18 0;
#X connect 3 0 5 0;
#X connect 3 1 4 0;
#X connect 6 0 0 0;
#X connect 7 0 0 1;
#X connect 8 0 10 0;
#X connect 9 0 11 0;
#X connect 10 0 9 0;
#X connect 10 1 9 1;
#X connect 11 0 12 0;
#X connect 12 0 7 1;
#X connect 12 0 6 1;
#X connect 13 0 6 0;
#X connect 14 0 7 0;
#X connect 17 0 16 0;
#X connect 18 0 13 0;
#X connect 19 0 14 0;
#X connect 20 0 21 0;
#X restore -328 -41 pd audioIO;
#X obj -333 85 delay 300;
#X msg -328 123 \; pd dsp 1;
#N canvas 0 0 450 300 (subpatch) 0;
#X array output 11000 float 2;
#X coords 0 1 11000 -1 1000 333 1 0 0;
#X restore 638 -1087 graph;
#X obj 129 -363 tabwrite~ output;
#X msg 500 -488 1;
#X obj 752 -569 loadbang;
#X obj 752 -521 s mbang;
#X obj 502 -432 tgl 15 0 empty empty empty 17 7 0 10 -262144 -1 -1
1 1;
#X obj 754 -603 bng 15 250 50 0 empty empty empty 17 7 0 10 -262144
-1 -1;
#X obj 499 -540 r mbang;
#X obj -333 24 r mbang;
#X obj 6 -617 lop~;
#X obj -12 -1203 vsl 44 444 0 4 0 0 depth empty empty 0 -9 0 10 -257985
-1 -1 5781 1;
#X floatatom 119 -725 5 0 0 0 - - -;
#X obj 385 -520 dac~;
#X text -44 -1245 volume;
#X text -190 -1245 delay;
#X text -337 -1245 delay1;
#X obj -243 -1203 vsl 44 444 0.96 0.99 0 0 knob1 empty empty 0 -9 0
10 -4034 -1 -1 0 1;
#X obj -322 -240 bng 15 250 50 0 empty empty empty 17 7 0 10 -262144
-1 -1;
#X obj -164 -1203 vsl 44 444 0 5000 0 0 depth empty empty 0 -9 0 10
-257985 -1 -1 886 1;
#X obj -9 -1379 r mbang;
#X obj -169 -189 * 10;
#X obj -347 -187 metro 49;
#X obj -300 -239 counter 2 25 125;
#N canvas 995 57 450 300 volume 0;
#X obj 44 15 inlet~;
#X obj 106 199 outlet~;
#X obj 108 119 *~ 0.5;
#X obj 245 13 inlet;
#X connect 0 0 2 0;
#X connect 2 0 1 0;
#X connect 3 0 2 1;
#X restore 130 -570 pd volume;
#X obj -339 -216 tgl 15 0 empty empty empty 17 7 0 10 -262144 -1 -1
0 1;
#X obj -108 -1203 vsl 44 444 5 50 0 0 depth empty empty 0 -9 0 10 -257985
-1 -1 0 1;
#X obj 501 -413 metro 360;
#X obj 702 -543 vsl 15 128 200 400 0 0 empty empty empty 0 -9 0 10
-262144 -1 -1 0 1;
#X obj -6 -1309 0.522;
#X obj -166 -1306 100;
#X obj -321 -1297 0.9;
#X obj 141 -1305 1000;
#X obj -342 -164 adumpOSC 8000;
#X obj -345 -101 import mrpeach;
#X obj -34 -31 udpreceive 8100;
#X obj -33 28 unpackOSC;
#X obj 319 -1014 vsl 44 222 0 0.5 0 0 depth empty empty 0 -9 0 10 -260097
-1 -1 0 1;
#X obj 364 -1014 vsl 44 222 0 5 0 0 depth empty empty 0 -9 0 10 -258113
-1 -1 0 1;
#X obj 457 -1014 vsl 44 222 0 1 0 0 depth empty empty 0 -9 0 10 -261234
-1 -1 0 1;
#X obj 410 -1014 vsl 44 222 0 1 0 0 depth empty empty 0 -9 0 10 -261234
-1 -1 0 1;
#X obj 273 -1014 vsl 44 222 0 0.5 0 0 depth empty empty 0 -9 0 10 -260097
-1 -1 0 1;
#X floatatom 174 330 2 0 0 0 - - -;
#X floatatom 219 330 2 0 0 0 - - -;
#X floatatom 268 330 2 0 0 0 - - -;
#X floatatom 317 330 2 0 0 0 - - -;
#X floatatom 365 330 2 0 0 0 - - -;
#X obj 505 -1014 vsl 44 222 0 1 0 0 depth empty empty 0 -9 0 10 -261234
-1 -1 0 1;
#X floatatom 413 330 2 0 0 0 - - -;
#X obj 553 -1016 vsl 44 222 0 1 0 0 depth empty empty 0 -9 0 10 -261234
-1 -1 0 1;
#X floatatom 466 331 2 0 0 0 - - -;
#X obj 582 342 vsl 44 222 0 1 0 0 depth empty empty 0 -9 0 10 -261234
-1 -1 0 1;
#X floatatom 581 275 2 0 0 0 - - -;
#X obj 629 342 vsl 44 222 -100 100 0 0 depth empty empty 0 -9 0 22
-4160 -262144 -262144 0 1;
#X floatatom 628 275 2 0 0 0 - - -;
#X obj 675 342 vsl 44 222 0 1 0 0 depth empty empty 0 -9 0 10 -262130
-1 -1 0 1;
#X floatatom 674 275 2 0 0 0 - - -;
#X obj 721 342 vsl 44 222 -1 1 0 0 depth empty empty 0 -9 0 10 -16662
-1 -262144 0 1;
#X floatatom 720 275 2 0 0 0 - - -;
#X obj 768 342 vsl 44 222 -1 1 0 0 depth empty empty 0 -9 0 10 -262130
-1 -1 0 1;
#X floatatom 767 275 2 0 0 0 - - -;
#X obj 815 342 vsl 44 222 -1 1 0 0 depth empty empty 0 -9 0 10 -262130
-1 -1 0 1;
#X floatatom 814 275 2 0 0 0 - - -;
#X obj 861 342 vsl 44 222 -1 1 0 0 depth empty empty 0 -9 0 10 -262130
-1 -1 0 1;
#X floatatom 860 275 2 0 0 0 - - -;
#X obj 907 342 vsl 44 222 -1 1 0 0 depth empty empty 0 -9 0 10 -262130
-1 -1 0 1;
#X floatatom 906 275 2 0 0 0 - - -;
#X obj 953 342 vsl 44 222 -1 1 0 0 depth empty empty 0 -9 0 10 -262130
-1 -1 0 1;
#X floatatom 952 275 2 0 0 0 - - -;
#X obj 999 342 vsl 44 222 -1 1 0 0 depth empty empty 0 -9 0 10 -262130
-1 -1 0 1;
#X floatatom 998 275 2 0 0 0 - - -;
#X obj 1474 347 vsl 44 222 -1 1 0 0 depth empty empty 0 -9 0 10 -262130
-1 -1 0 1;
#X floatatom 1473 276 2 0 0 0 - - -;
#X obj 1578 352 vsl 44 222 -1 1 0 0 depth empty empty 0 -9 0 10 -262130
-1 -1 0 1;
#X floatatom 1577 268 2 0 0 0 - - -;
#X obj 348 178 unpack s f f f f f f f f f f f f f f f f f f f f f f
f f f f f f;
#X obj 1048 343 vsl 44 222 -1 1 0 0 depth empty empty 0 -9 0 10 -262130
-1 -1 0 1;
#X floatatom 1047 276 2 0 0 0 - - -;
#X obj 1102 346 vsl 44 222 -1 1 0 0 depth empty empty 0 -9 0 10 -262130
-1 -1 0 1;
#X floatatom 1101 276 2 0 0 0 - - -;
#X obj 1156 345 vsl 44 222 -1 1 0 0 depth empty empty 0 -9 0 10 -262130
-1 -1 0 1;
#X floatatom 1155 276 2 0 0 0 - - -;
#X obj 1212 344 vsl 44 222 -1 1 0 0 depth empty empty 0 -9 0 10 -262130
-1 -1 0 1;
#X floatatom 1211 276 2 0 0 0 - - -;
#X obj 1269 346 vsl 44 222 -1 1 0 0 depth empty empty 0 -9 0 10 -262130
-1 -1 0 1;
#X floatatom 1268 276 2 0 0 0 - - -;
#X obj 1322 349 vsl 44 222 -1 1 0 0 depth empty empty 0 -9 0 10 -262130
-1 -1 0 1;
#X floatatom 1321 276 2 0 0 0 - - -;
#X obj 1370 349 vsl 44 222 -1 1 0 0 depth empty empty 0 -9 0 10 -262130
-1 -1 0 1;
#X floatatom 1369 276 2 0 0 0 - - -;
#X obj 1422 348 vsl 44 222 -1 1 0 0 depth empty empty 0 -9 0 10 -262130
-1 -1 0 1;
#X floatatom 1421 276 2 0 0 0 - - -;
#X obj 1526 348 vsl 44 222 -1 1 0 0 depth empty empty 0 -9 0 10 -262130
-1 -1 0 1;
#X floatatom 1525 276 2 0 0 0 - - -;
#X obj -74 6 bng 15 250 50 0 empty empty empty 17 7 0 10 -262144 -1
-1;
#X floatatom -92 139 5 0 0 0 - - -;
#N canvas 0 0 1912 978 tabwrites 0;
#X obj 353 370 inlet;
#X obj 363 380 inlet;
#X obj 373 390 inlet;
#X obj 383 400 inlet;
#X obj 393 410 inlet;
#X obj 403 420 inlet;
#X obj 413 430 inlet;
#X obj 423 440 inlet;
#X obj 433 450 inlet;
#X obj 717 438 inlet;
#X obj 727 448 inlet;
#X obj 737 458 inlet;
#X obj 747 468 inlet;
#X obj 757 478 inlet;
#X obj 767 488 inlet;
#X obj 777 498 inlet;
#X obj 787 508 inlet;
#X obj 797 518 inlet;
#X obj 1084 423 inlet;
#X obj 1094 433 inlet;
#X obj 1104 443 inlet;
#X obj 364 689 tabwrite f1;
#X obj 374 699 tabwrite f2;
#X obj 384 709 tabwrite f1;
#X obj 394 719 tabwrite f4;
#X obj 404 729 tabwrite f1;
#X obj 414 739 tabwrite f6;
#X obj 424 749 tabwrite f7;
#X obj 434 759 tabwrite f8;
#X obj 444 769 tabwrite f9;
#X obj 715 688 tabwrite f10;
#X obj 725 698 tabwrite f11;
#X obj 735 708 tabwrite f12;
#X obj 745 718 tabwrite f14;
#X obj 755 728 tabwrite f15;
#X obj 765 738 tabwrite f16;
#X obj 775 748 tabwrite f17;
#X obj 785 758 tabwrite f18;
#X obj 795 768 tabwrite f19;
#X obj 1073 667 tabwrite f20;
#X obj 1083 677 tabwrite f21;
#X obj 1114 453 inlet;
#X obj 1124 463 inlet;
#X obj 1134 473 inlet;
#X obj 1144 483 inlet;
#X obj 1154 493 inlet;
#X obj 1164 503 inlet;
#X obj 1174 513 inlet;
#X obj 1093 687 tabwrite f23;
#X obj 1103 697 tabwrite f24;
#X obj 1113 707 tabwrite f25;
#X obj 1123 717 tabwrite f26;
#X obj 1133 727 tabwrite f27;
#X obj 1143 737 tabwrite f28;
#X obj 1153 747 tabwrite f29;
#X obj 1163 757 tabwrite f30;
#X obj 1586 291 inlet;
#X connect 0 0 21 0;
#X connect 1 0 22 0;
#X connect 2 0 23 0;
#X connect 3 0 24 0;
#X connect 4 0 25 0;
#X connect 5 0 26 0;
#X connect 6 0 27 0;
#X connect 7 0 28 0;
#X connect 8 0 29 0;
#X connect 9 0 30 0;
#X connect 10 0 31 0;
#X connect 11 0 32 0;
#X connect 12 0 33 0;
#X connect 13 0 34 0;
#X connect 14 0 35 0;
#X connect 15 0 36 0;
#X connect 16 0 37 0;
#X connect 17 0 38 0;
#X connect 18 0 39 0;
#X connect 19 0 40 0;
#X connect 20 0 48 0;
#X connect 41 0 49 0;
#X connect 42 0 50 0;
#X connect 43 0 51 0;
#X connect 44 0 52 0;
#X connect 45 0 53 0;
#X connect 46 0 54 0;
#X connect 47 0 55 0;
#X connect 56 0 21 1;
#X connect 56 0 22 1;
#X connect 56 0 23 1;
#X connect 56 0 24 1;
#X connect 56 0 25 1;
#X connect 56 0 26 1;
#X connect 56 0 27 1;
#X connect 56 0 28 1;
#X connect 56 0 29 1;
#X connect 56 0 30 1;
#X connect 56 0 31 1;
#X connect 56 0 32 1;
#X connect 56 0 33 1;
#X connect 56 0 34 1;
#X connect 56 0 35 1;
#X connect 56 0 36 1;
#X connect 56 0 37 1;
#X connect 56 0 38 1;
#X connect 56 0 39 1;
#X connect 56 0 40 1;
#X connect 56 0 48 1;
#X connect 56 0 49 1;
#X connect 56 0 50 1;
#X connect 56 0 51 1;
#X connect 56 0 52 1;
#X connect 56 0 53 1;
#X connect 56 0 54 1;
#X connect 56 0 55 1;
#X restore 739 610 pd tabwrites;
#N canvas 0 0 450 300 (subpatch) 0;
#X array f1 50 float 0;
#X coords 0 0 49 0.4 200 222 1 0 0;
#X restore 282 -1333 graph;
#X obj 166 -1195 vsl 44 444 0 1000 0 0 depth empty empty 0 -9 0 10
-159808 -1 -1 44300 1;
#X floatatom 240 -727 5 0 0 0 - - -;
#X text 121 -1242 cutoff;
#X obj 1015 575 r tableCount;
#X obj -94 188 s tableCount;
#N canvas 0 0 450 300 (subpatch) 0;
#X array f2 50 float 0;
#X coords 0 -1 50 1 200 140 1 0 0;
#X restore 489 -1333 graph;
#N canvas 0 0 450 300 (subpatch) 0;
#X array f3 50 float 0;
#X coords 0 -3 50 3 200 140 1 0 0;
#X restore 697 -1333 graph;
#N canvas 0 0 50 300 (subpatch) 0;
#X array f4 50 float 0;
#X coords 0 1 50 -1 200 140 1 0 0;
#X restore 905 -1333 graph;
#N canvas 0 0 450 300 (subpatch) 0;
#X array f5 50 float 0;
#X coords 0 0 50 0.6 200 140 1 0 0;
#X restore 1117 -1333 graph;
#N canvas 0 0 450 300 (subpatch) 0;
#X array f6 50 float 0;
#X coords 0 1 50 -1 200 140 1;
#X restore 1328 -1334 graph;
#N canvas 0 0 450 300 (subpatch) 0;
#X array f7 50 float 0;
#X coords 0 1 50 -1 200 140 1;
#X restore 1538 -1333 graph;
#N canvas 0 0 450 300 (subpatch) 0;
#X array f8 50 float 0;
#X coords 0 1 50 -1 200 140 1 0 0;
#X restore 226 959 graph;
#N canvas 0 0 450 300 (subpatch) 0;
#X array f9 50 float 0;
#X coords 0 1 50 -1 200 140 1 0 0;
#X restore 434 961 graph;
#N canvas 0 0 450 300 (subpatch) 0;
#X array f10 50 float 0;
#X coords 0 -5 50 5 200 140 1 0 0;
#X restore 641 962 graph;
#N canvas 0 0 450 300 (subpatch) 0;
#X array f11 50 float 0;
#X coords 0 1 50 -1 200 140 1;
#X restore 845 961 graph;
#N canvas 0 0 450 300 (subpatch) 0;
#X array f12 50 float 0;
#X coords 0 1 50 -1 200 140 1;
#X restore 1054 960 graph;
#N canvas 0 0 450 300 (subpatch) 0;
#X array f13 50 float 0;
#X coords 0 1 50 -1 200 140 1 0 0;
#X restore 1259 956 graph;
#N canvas 0 0 450 300 (subpatch) 0;
#X array f14 50 float 0;
#X coords 0 1 50 -1 200 140 1 0 0;
#X restore 1466 956 graph;
#N canvas 0 0 450 300 (subpatch) 0;
#X array f15 50 float 0;
#X coords 0 1 50 -1 200 140 1 0 0;
#X restore 229 1159 graph;
#N canvas 0 0 450 300 (subpatch) 0;
#X array f16 50 float 0;
#X coords 0 1 50 -1 200 140 1 0 0;
#X restore 432 1156 graph;
#N canvas 0 0 450 300 (subpatch) 0;
#X array f17 50 float 0;
#X coords 0 1 50 -1 200 140 1 0 0;
#X restore 642 1156 graph;
#N canvas 0 0 450 300 (subpatch) 0;
#X array f18 50 float 0;
#X coords 0 1 50 -1 200 140 1 0 0;
#X restore 853 1153 graph;
#N canvas 0 0 450 300 (subpatch) 0;
#X array f19 50 float 0;
#X coords 0 1 50 -1 200 140 1 0 0;
#X restore 1062 1153 graph;
#N canvas 0 0 450 300 (subpatch) 0;
#X array f20 50 float 0;
#X coords 0 1 50 -1 200 140 1 0 0;
#X restore 230 1415 graph;
#N canvas 0 0 450 300 (subpatch) 0;
#X array f21 50 float 0;
#X coords 0 1 50 -1 200 140 1 0 0;
#X restore 434 1413 graph;
#N canvas 0 0 450 300 (subpatch) 0;
#X array f22 50 float 0;
#X coords 0 1 50 -1 200 140 1 0 0;
#X restore 648 1414 graph;
#N canvas 0 0 450 300 (subpatch) 0;
#X array f23 50 float 0;
#X coords 0 1 50 -1 200 140 1 0 0;
#X restore 887 1407 graph;
#N canvas 0 0 450 300 (subpatch) 0;
#X array f24 50 float 0;
#X coords 0 1 50 -1 200 140 1 0 0;
#X restore 1095 1402 graph;
#N canvas 0 0 450 300 (subpatch) 0;
#X array f25 50 float 0;
#X coords 0 1 50 -1 200 140 1 0 0;
#X restore 1308 1404 graph;
#N canvas 0 0 450 300 (subpatch) 0;
#X array f26 50 float 0;
#X coords 0 1 50 -1 200 140 1 0 0;
#X restore 1519 1402 graph;
#N canvas 0 0 450 300 (subpatch) 0;
#X array f27 50 float 0;
#X coords 0 1 50 -1 200 140 1 0 0;
#X restore 224 1609 graph;
#N canvas 0 0 450 300 (subpatch) 0;
#X array f28 50 float 0;
#X coords 0 1 50 -1 200 140 1 0 0;
#X restore 428 1607 graph;
#N canvas 0 0 450 300 (subpatch) 0;
#X array f29 50 float 0;
#X coords 0 1 50 -1 200 140 1 0 0;
#X restore 651 1610 graph;
#N canvas 0 0 450 300 (subpatch) 0;
#X array f30 50 float 0;
#X coords 0 1 50 -1 200 140 1 0 0;
#X restore 854 1607 graph;
#X obj -93 88 counter 1 1 50;
#X obj 172 388 s f1;
#X obj -314 -1392 r f1;
#X obj 268 387 s f2;
#X obj 371 386 s f3;
#X obj 469 387 s f4;
#X obj 173 442 s f5;
#X obj 273 445 s f6;
#X obj 370 443 s f7;
#N canvas -11 -11 1920 1016 recieves 1;
#X obj 21 74 r f1;
#X obj 116 74 r f2;
#X obj 212 70 r f3;
#X obj 331 59 r f4;
#X obj 447 50 r f5;
#X obj 566 40 r f6;
#X obj 708 43 r f7;
#X obj 920 43 r f8;
#X obj 94 447 outlet;
#X obj 237 446 outlet;
#X obj 382 444 outlet;
#X obj 527 446 outlet;
#X obj 710 442 outlet;
#X obj 863 441 outlet;
#X obj 1175 429 outlet;
#X obj 1026 441 outlet;
#X connect 0 0 8 0;
#X connect 1 0 9 0;
#X connect 2 0 10 0;
#X connect 3 0 11 0;
#X connect 4 0 12 0;
#X connect 5 0 13 0;
#X connect 6 0 15 0;
#X connect 7 0 14 0;
#X restore 285 -1101 pd recieves;
#X connect 0 0 1 0;
#X connect 1 0 4 2;
#X connect 2 0 4 1;
#X connect 3 0 4 0;
#X connect 3 1 4 0;
#X connect 4 0 17 0;
#X connect 4 1 17 0;
#X connect 6 0 7 0;
#X connect 10 0 13 0;
#X connect 11 0 12 0;
#X connect 13 0 34 0;
#X connect 14 0 11 0;
#X connect 15 0 10 0;
#X connect 16 0 6 0;
#X connect 17 0 31 0;
#X connect 18 0 19 0;
#X connect 19 0 31 1;
#X connect 24 0 1 0;
#X connect 25 0 32 0;
#X connect 26 0 2 0;
#X connect 27 0 36 0;
#X connect 27 0 37 0;
#X connect 27 0 38 0;
#X connect 27 0 39 0;
#X connect 29 0 30 0;
#X connect 30 0 28 0;
#X connect 31 0 20 0;
#X connect 31 0 20 1;
#X connect 31 0 9 0;
#X connect 32 0 29 0;
#X connect 33 0 2 0;
#X connect 34 0 9 0;
#X connect 35 0 34 1;
#X connect 35 0 34 0;
#X connect 36 0 18 0;
#X connect 37 0 26 0;
#X connect 38 0 0 0;
#X connect 39 0 105 0;
#X connect 42 0 43 0;
#X connect 43 0 82 0;
#X connect 43 0 101 0;
#X connect 49 0 103 0;
#X connect 49 0 140 0;
#X connect 50 0 103 1;
#X connect 50 0 142 0;
#X connect 51 0 103 2;
#X connect 51 0 143 0;
#X connect 52 0 103 3;
#X connect 52 0 144 0;
#X connect 53 0 103 4;
#X connect 53 0 145 0;
#X connect 55 0 103 5;
#X connect 55 0 146 0;
#X connect 57 0 103 6;
#X connect 57 0 147 0;
#X connect 59 0 58 0;
#X connect 59 0 103 7;
#X connect 61 0 60 0;
#X connect 61 0 103 8;
#X connect 63 0 62 0;
#X connect 63 0 103 9;
#X connect 65 0 64 0;
#X connect 65 0 103 10;
#X connect 67 0 66 0;
#X connect 67 0 103 11;
#X connect 69 0 68 0;
#X connect 69 0 103 12;
#X connect 71 0 70 0;
#X connect 71 0 103 13;
#X connect 73 0 72 0;
#X connect 73 0 103 14;
#X connect 75 0 74 0;
#X connect 75 0 103 15;
#X connect 77 0 76 0;
#X connect 77 0 103 16;
#X connect 79 0 78 0;
#X connect 79 0 103 25;
#X connect 81 0 80 0;
#X connect 81 0 103 27;
#X connect 82 1 49 0;
#X connect 82 2 50 0;
#X connect 82 3 51 0;
#X connect 82 4 52 0;
#X connect 82 5 53 0;
#X connect 82 6 55 0;
#X connect 82 7 57 0;
#X connect 82 8 59 0;
#X connect 82 9 61 0;
#X connect 82 10 63 0;
#X connect 82 11 65 0;
#X connect 82 12 67 0;
#X connect 82 13 69 0;
#X connect 82 14 71 0;
#X connect 82 15 73 0;
#X connect 82 16 75 0;
#X connect 82 17 77 0;
#X connect 82 18 84 0;
#X connect 82 19 86 0;
#X connect 82 20 88 0;
#X connect 82 21 90 0;
#X connect 82 22 92 0;
#X connect 82 23 94 0;
#X connect 82 24 96 0;
#X connect 82 25 98 0;
#X connect 82 26 79 0;
#X connect 82 27 100 0;
#X connect 82 28 81 0;
#X connect 84 0 83 0;
#X connect 84 0 103 17;
#X connect 86 0 85 0;
#X connect 86 0 103 18;
#X connect 88 0 87 0;
#X connect 88 0 103 19;
#X connect 90 0 89 0;
#X connect 90 0 103 20;
#X connect 92 0 91 0;
#X connect 92 0 103 21;
#X connect 94 0 93 0;
#X connect 94 0 103 22;
#X connect 96 0 95 0;
#X connect 96 0 103 23;
#X connect 98 0 97 0;
#X connect 98 0 103 24;
#X connect 100 0 99 0;
#X connect 100 0 103 26;
#X connect 101 0 139 0;
#X connect 105 0 106 0;
#X connect 106 0 17 1;
#X connect 108 0 103 28;
#X connect 139 0 102 0;
#X connect 139 0 109 0;
#X connect 141 0 38 0;
#X connect 148 0 48 0;
#X connect 148 1 44 0;
#X connect 148 2 45 0;
#X connect 148 3 47 0;
#X connect 148 4 46 0;
#X connect 148 5 54 0;
#X connect 148 6 56 0;
