#N canvas 376 52 303 535 10;
#X obj 111 477 line~;
#X msg 35 408 1 \$1;
#X obj 35 33 tgl 15 0 empty empty empty 17 7 0 10 -262144 -1 -1 0 1
;
#X obj 50 163 t f f, f 8;
#X obj 35 207 t b b;
#X obj 35 235 f;
#X obj 80 237 del;
#X obj 83 357 pack;
#X obj 107 327 f;
#X obj 80 327 f;
#X obj 80 270 t b b;
#X obj 35 53 sel 1 0;
#X obj 111 498 outlet~;
#X obj 169 166 dbtorms;
#X floatatom 169 188 5 0 0 0 - - -, f 5;
#X floatatom 222 239 5 0 0 0 - - -, f 5;
#X floatatom 50 144 5 0 0 0 - - -, f 5;
#X floatatom 169 147 5 0 0 0 - - -, f 5;
#X obj 117 54 unpack f f f, f 18;
#X obj 117 9 inlet;
#X obj 35 9 inlet;
#X obj 160 9 loadbang;
#X msg 160 31 60 93 1000;
#X msg 114 196 stop;
#X obj 207 349 pack;
#X obj 117 164 t f b;
#X connect 0 0 12 0;
#X connect 1 0 0 0;
#X connect 2 0 11 0;
#X connect 3 0 5 1;
#X connect 3 1 6 1;
#X connect 4 0 5 0;
#X connect 4 1 6 0;
#X connect 5 0 1 0;
#X connect 6 0 10 0;
#X connect 7 0 0 0;
#X connect 8 0 7 1;
#X connect 9 0 7 0;
#X connect 10 0 9 0;
#X connect 10 1 8 0;
#X connect 11 0 4 0;
#X connect 11 1 25 0;
#X connect 13 0 14 0;
#X connect 14 0 9 1;
#X connect 15 0 8 1;
#X connect 15 0 24 1;
#X connect 16 0 3 0;
#X connect 17 0 13 0;
#X connect 18 0 16 0;
#X connect 18 1 17 0;
#X connect 18 2 15 0;
#X connect 19 0 18 0;
#X connect 20 0 2 0;
#X connect 21 0 22 0;
#X connect 22 0 18 0;
#X connect 23 0 6 0;
#X connect 24 0 0 0;
#X connect 25 0 24 0;
#X connect 25 1 23 0;
