#N canvas 43 22 452 504 10;
#N canvas 283 28 468 243 wavetable-oscilator 0;
#X obj 8 218 outlet~;
#X obj 7 8 inlet~;
#X obj 7 30 phasor~;
#X text 71 30 desired range for tabread4 is from 1 to size-2, f 23
;
#X obj 7 52 *~ 2045;
#X obj 7 74 +~ 1;
#X obj 8 183 tabread4~ square;
#X obj 252 12 inlet, f 35;
#X connect 1 0 2 0;
#X connect 2 0 4 0;
#X connect 4 0 5 0;
#X connect 5 0 6 0;
#X connect 6 0 0 0;
#X connect 7 0 6 0;
#X restore 46 413 pd wavetable-oscilator;
#N canvas 484 123 233 228 waveform-selector 0;
#X obj 16 42 sel 0 1 2 3, f 25;
#X msg 16 64 set square;
#X msg 52 92 set sawtooth;
#X obj 16 -1 inlet;
#X obj 16 176 outlet;
#X floatatom 16 21 5 0 0 0 - - -, f 5;
#X msg 89 119 set triangle;
#X connect 0 0 1 0;
#X connect 0 1 2 0;
#X connect 0 2 6 0;
#X connect 1 0 4 0;
#X connect 2 0 4 0;
#X connect 3 0 5 0;
#X connect 5 0 0 0;
#X connect 6 0 4 0;
#X restore 253 365 pd waveform-selector;
#X obj 8 381 mtof~;
#X obj 10 125 +;
#X floatatom 101 53 5 0 0 0 - - -, f 5;
#X obj 101 72 - 3;
#X floatatom 101 94 5 0 0 0 - - -, f 5;
#X obj 101 113 * 12;
#X floatatom 10 147 5 0 0 0 - - -, f 5;
#X obj 11 33 unpack;
#X floatatom 11 55 5 0 0 0 - - -, f 5;
#X obj 10 215 pack f f;
#X obj 56 172 r glide;
#X floatatom 56 194 5 0 0 0 - - -, f 5;
#X obj 10 237 line~;
#X obj 28 281 +~;
#X obj 169 115 r bend;
#X obj 185 154 *;
#X obj 218 116 r bend-size;
#X obj 185 176 pack f 30;
#X obj 185 198 line~;
#X obj 11 74 +;
#X obj 36 73 r tune;
#X obj 28 332 +~;
#X obj 75 293 r~ mod-signal;
#X obj 74 321 *~;
#X obj 178 265 r midi-modulation;
#X floatatom 178 287 5 0 0 0 - - -, f 5;
#X obj 178 306 pack f 30;
#X obj 178 328 line~;
#X obj 101 31 r octave-\$1;
#X obj 254 319 r oscillator-waveform-\$1;
#X floatatom 254 342 5 0 0 0 - - -, f 5;
#X obj 10 500 *~;
#X obj 262 461 r level-\$1;
#X obj 262 487 pack f 30;
#X obj 264 514 line~;
#X floatatom 346 470 5 0 0 0 - - -, f 5;
#X obj 11 11 r note-data;
#X obj 8 533 throw~ osc-sum;
#X connect 0 0 33 0;
#X connect 1 0 0 1;
#X connect 2 0 0 0;
#X connect 3 0 8 0;
#X connect 4 0 5 0;
#X connect 5 0 6 0;
#X connect 6 0 7 0;
#X connect 7 0 3 1;
#X connect 8 0 11 0;
#X connect 9 0 10 0;
#X connect 10 0 21 0;
#X connect 11 0 14 0;
#X connect 12 0 13 0;
#X connect 13 0 11 1;
#X connect 14 0 15 0;
#X connect 15 0 23 0;
#X connect 16 0 17 0;
#X connect 17 0 19 0;
#X connect 18 0 17 1;
#X connect 19 0 20 0;
#X connect 20 0 15 1;
#X connect 21 0 3 0;
#X connect 22 0 21 1;
#X connect 23 0 2 0;
#X connect 24 0 25 0;
#X connect 25 0 23 1;
#X connect 26 0 27 0;
#X connect 27 0 28 0;
#X connect 28 0 29 0;
#X connect 29 0 25 1;
#X connect 30 0 4 0;
#X connect 31 0 32 0;
#X connect 32 0 1 0;
#X connect 33 0 39 0;
#X connect 34 0 35 0;
#X connect 34 0 37 0;
#X connect 35 0 36 0;
#X connect 36 0 33 1;
#X connect 38 0 9 0;
