#N canvas 0 0 1912 978 10;
#N canvas 1437 359 542 477 delay 0;
#X obj 68 103 inlet~;
#X obj 57 296 outlet~;
#X floatatom 142 47 5 0 0 0 - - -;
#X floatatom 9 -52 5 0 0 0 - - -;
#X obj 9 -6 sig~;
#X obj 9 75 *~;
#X obj 119 103 r cutoff;
#X obj 142 19 r feedback;
#N canvas 803 153 450 300 convertPitchCo 0;
#X obj 98 46 inlet;
#X obj 110 208 outlet;
#X obj 110 150 pow;
#X obj 98 102 t b f;
#X msg 98 125 2;
#X obj 110 175 * 10;
#X obj 98 77 * 11;
#X connect 0 0 6 0;
#X connect 2 0 5 0;
#X connect 3 0 4 0;
#X connect 3 1 2 1;
#X connect 4 0 2 0;
#X connect 5 0 1 0;
#X connect 6 0 3 0;
#X restore 119 130 pd convertPitchCo;
#X obj 9 -136 r time;
#X obj 9 -106 * 1000;
#X obj 9 -82 + 60;
#X obj 53 174 lop~;
#X obj 53 143 +~;
#X obj 9 47 vd~ delbuffer;
#X obj 119 174 i;
#X obj 119 152 / 10;
#X obj 119 196 / 100;
#X connect 0 0 13 1;
#X connect 2 0 5 1;
#X connect 3 0 4 0;
#X connect 4 0 14 0;
#X connect 5 0 13 0;
#X connect 6 0 8 0;
#X connect 7 0 2 0;
#X connect 8 0 12 1;
#X connect 8 0 16 0;
#X connect 9 0 10 0;
#X connect 10 0 11 0;
#X connect 11 0 3 0;
#X connect 12 0 1 0;
#X connect 13 0 12 0;
#X connect 14 0 5 0;
#X connect 15 0 17 0;
#X connect 16 0 15 0;
#X restore 283 607 pd delay;
#N canvas 762 50 514 639 triangle 0;
#X obj 32 -57 inlet;
#X obj 32 162 outlet~;
#X obj 32 -16 phasor~;
#X obj 53 12 *~ -1;
#X obj 53 38 +~ 1;
#X obj 32 64 min~;
#X obj 32 93 *~ 14;
#X obj 32 118 -~ 5;
#X connect 0 0 2 0;
#X connect 2 0 5 0;
#X connect 2 0 3 0;
#X connect 3 0 4 0;
#X connect 4 0 5 1;
#X connect 5 0 6 0;
#X connect 6 0 7 0;
#X connect 7 0 1 0;
#X restore 372 268 pd triangle;
#X obj 372 371 *~;
#X obj 387 343 r interval;
#X obj 262 660 hip~ 5;
#X msg 337 466 1 10;
#X obj 337 442 r start;
#X obj 394 442 r stop;
#X obj 261 534 *~;
#X obj 337 507 line~;
#N canvas 826 384 450 300 square 0;
#X obj 38 36 inlet rate;
#X obj 38 218 outlet~;
#X obj 38 64 osc~;
#X obj 38 92 *~ 8192;
#X obj 38 120 clip~ -1 1;
#X obj 38 145 *~ 3.5;
#X obj 38 171 -~ 1.5;
#X connect 0 0 2 0;
#X connect 2 0 3 0;
#X connect 3 0 4 0;
#X connect 4 0 5 0;
#X connect 5 0 6 0;
#X connect 6 0 1 0;
#X restore 453 268 pd square;
#N canvas 700 61 521 523 select~ 0;
#X obj 72 214 inlet~;
#X obj 124 214 inlet~;
#X obj 252 49 inlet;
#X obj 109 374 outlet~;
#X obj 57 303 *~;
#X text 296 47 1 left in \, 0 right in;
#X obj 252 91 select 1;
#X obj 109 302 *~;
#X msg 221 123 1;
#X msg 252 123 0;
#X msg 297 150 0;
#X msg 330 150 1;
#X obj 171 47 loadbang;
#X msg 171 74 1;
#X connect 0 0 4 1;
#X connect 1 0 7 1;
#X connect 2 0 6 0;
#X connect 4 0 3 0;
#X connect 6 0 8 0;
#X connect 6 0 9 0;
#X connect 6 1 10 0;
#X connect 6 1 11 0;
#X connect 7 0 3 0;
#X connect 8 0 4 0;
#X connect 9 0 7 0;
#X connect 10 0 4 0;
#X connect 11 0 7 0;
#X connect 12 0 13 0;
#X connect 13 0 6 0;
#X restore 372 311 pd select~;
#X obj 262 447 *~;
#X msg 307 367 2;
#X obj 307 343 loadbang;
#X obj 372 192 pow 4;
#X obj 339 404 pow~;
#X obj 372 168 r rate;
#X obj 1007 391 s rate;
#X floatatom 1007 359 5 0 0 0 - - -;
#X floatatom 1058 359 5 0 0 0 - - -;
#X obj 1058 391 s interval;
#N canvas 572 50 704 634 saw~ 0;
#X floatatom 221 183 0 0 0 0 - - -;
#X obj 73 407 -~;
#X obj 221 257 /~;
#X obj 228 234 clip~ 1 999999;
#X obj 96 215 phasor~;
#X obj 108 277 *~;
#X obj 108 301 clip~ -0.5 0.5;
#X floatatom 221 135 0 0 0 0 - - -;
#X obj 221 159 mtof;
#X obj 221 87 loadbang;
#X obj 108 325 *~ 1000;
#X obj 108 349 +~ 501;
#X obj 96 239 -~ 0.5;
#X obj 108 373 tabread4~ \$0-transition;
#X obj 221 206 * 0.4;
#X msg 221 111 136.766;
#N canvas 152 50 754 634 transition-table 0;
#X text 242 138 back the phase up one sample;
#X obj 204 259 cos~;
#X obj 156 254 cos~;
#X msg 100 323 bang;
#X msg 13 195 \; pd dsp 1;
#X msg 237 169 -0.0005;
#X obj 204 233 *~ 3;
#X obj 204 284 *~ 0.33333;
#X obj 156 282 *~ -1;
#X msg 100 150 bang;
#X obj 155 193 phasor~ 22.05;
#X obj 156 315 *~ 0.75;
#X obj 156 342 tabwrite~ \$0-transition;
#X obj 100 128 loadbang;
#X text 292 216 twice the table length;
#X text 280 193 period is 2000 samples \,;
#X text 80 369 This one is used - first and third harmonics only.;
#N canvas 0 50 450 300 (subpatch) 0;
#X array \$0-transition 1002 float 0;
#X coords 0 1 1002 -1 200 140 1;
#X restore 539 32 graph;
#X text 537 179 ----- 1002 samples ----;
#X text 24 27 This network puts a half cycle of a band-limited square
wave into the table "array1.";
#X text 22 64 Logically the half-cycle is in samples 1 through 1000
\; samples 0 and 1001 are provided so that the 4-point interpolation
will work everywhere.;
#X connect 1 0 7 0;
#X connect 2 0 8 0;
#X connect 3 0 12 0;
#X connect 5 0 10 1;
#X connect 6 0 1 0;
#X connect 7 0 11 0;
#X connect 8 0 11 0;
#X connect 9 0 5 0;
#X connect 9 0 4 0;
#X connect 9 0 3 0;
#X connect 10 0 2 0;
#X connect 10 0 6 0;
#X connect 11 0 12 0;
#X connect 13 0 9 0;
#X restore 202 485 pd transition-table;
#X obj 43 32 inlet~;
#X obj 63 527 outlet~;
#X connect 0 0 14 0;
#X connect 1 0 18 0;
#X connect 2 0 5 1;
#X connect 3 0 2 1;
#X connect 4 0 12 0;
#X connect 5 0 6 0;
#X connect 6 0 10 0;
#X connect 7 0 8 0;
#X connect 8 0 0 0;
#X connect 9 0 15 0;
#X connect 10 0 11 0;
#X connect 11 0 13 0;
#X connect 12 0 5 0;
#X connect 12 0 1 1;
#X connect 13 0 1 0;
#X connect 14 0 2 0;
#X connect 15 0 7 0;
#X connect 17 0 4 0;
#X connect 17 0 3 0;
#X restore 262 496 pd saw~;
#N canvas 236 320 450 300 convertPitch 0;
#X obj 98 46 inlet;
#X obj 110 208 outlet;
#X obj 98 77 * 7.05;
#X obj 110 150 pow;
#X obj 98 102 t b f;
#X msg 98 125 2;
#X obj 110 175 * 35;
#X connect 0 0 2 0;
#X connect 2 0 4 0;
#X connect 3 0 6 0;
#X connect 4 0 5 0;
#X connect 4 1 3 1;
#X connect 5 0 3 0;
#X connect 6 0 1 0;
#X restore 262 215 pd convertPitch;
#X floatatom 1133 359 5 0 0 0 - - -;
#X obj 1133 391 s cutoff;
#X floatatom 1196 359 5 0 0 0 - - -;
#X obj 1196 391 s time;
#X floatatom 1256 361 5 0 0 0 - - -;
#X obj 1256 393 s feedback;
#X obj 262 181 r pitch;
#X obj 372 216 * 40;
#X obj 372 239 + 0.016;
#X obj 261 338 vline~;
#X msg 394 465 0 10;
#X obj 262 309 pack 0 95;
#N canvas 766 206 450 300 convertPitch 0;
#X obj 83 15 inlet;
#X obj 110 208 outlet;
#X obj 83 46 * 7.05;
#X obj 110 150 pow;
#X obj 98 102 t b f;
#X msg 98 125 2;
#X obj 110 175 * 35;
#X obj 164 35 + 100;
#X obj 185 73 * 111;
#X connect 0 0 2 0;
#X connect 0 0 7 0;
#X connect 3 0 6 0;
#X connect 4 0 5 0;
#X connect 4 1 3 1;
#X connect 5 0 3 0;
#X connect 6 0 1 0;
#X connect 7 0 8 0;
#X connect 8 0 4 0;
#X restore 157 215 pd convertPitch;
#X obj 157 181 r newPitch;
#X obj 492 452 bng 15 250 50 0 empty empty empty 17 7 0 10 -262144
-1 -1;
#X obj 218 727 throw~ outL;
#X obj 309 727 throw~ outR;
#X obj 1142 157 unpack f f;
#X floatatom 1142 179 5 0 0 0 - - -;
#X floatatom 1209 179 5 0 0 0 - - -;
#X obj 1142 135 r notes;
#X obj 524 422 sel 0;
#X obj 573 394 sel 1;
#X obj 1300 107 r notes;
#X obj 1286 141 unpack f f;
#X obj 1291 170 / 100;
#X obj 1291 192 s gatenote;
#X obj 573 372 r gatenote;
#X obj 556 277 r lfoselect;
#X obj 550 463 r~ inL;
#X obj 518 495 +~;
#X obj 518 518 /~ 10;
#X obj 261 556 *~ 0.2;
#X obj 605 462 r~ inR;
#X obj 1004 412 r knob1;
#X obj 1067 411 r knob2;
#X obj 1136 417 r knob3;
#X obj 1194 415 r knob4;
#X obj 1260 421 r exp;
#X msg 766 145 \; vol 1 \; exp 0.4 \; knob1 0.3 \; knob2 0.2 \; knob3
0.3 \; knob4 0.1;
#X obj 647 526 tabwrite~ audioIn;
#N canvas 0 0 450 300 (subpatch) 0;
#X array audioIn 4500 float 0;
#X coords 0 1 4499 -1 200 140 1 0 0;
#X restore 470 121 graph;
#X obj 729 388 r aux;
#X obj 755 413 tgl 15 0 empty empty empty 17 7 0 10 -262144 -1 -1 0
1;
#X obj 710 448 metro 200;
#X obj 1140 334 * 1;
#X obj 894 340 loadbang;
#X msg 894 205 \; vol 0.8 \; exp 0.8 \; knob1 0.5 \; knob2 0.8 \; knob3
0.8 \; knob4 0.2;
#X msg 902 421 \; vol 0.8 \; exp 0.95 \; knob1 1.2 \; knob2 0.8 \;
knob3 1 \; knob4 0.8;
#X obj 1893 629 tgl 15 0 key2 key2 empty 17 7 0 10 -33289 -262144 -1
0 1;
#X msg 1650 462 \; pd dsp 1;
#X obj 1650 394 loadbang;
#X obj 1650 426 delay 100;
#X obj 1852 398 vsl 15 128 0 1 0 0 knob1 knob1 empty 0 -9 0 10 -262144
-1 -1 6350 1;
#X obj 1915 398 vsl 15 128 0 1 0 0 knob2 knob2 empty 0 -9 0 10 -262144
-1 -1 10160 1;
#X obj 1980 399 vsl 15 128 0 1 0 0 knob3 knob3 empty 0 -9 0 10 -262144
-1 -1 10160 1;
#X obj 2047 397 vsl 15 128 0 1 0 0 knob4 knob4 empty 0 -9 0 10 -262144
-1 -1 9240 1;
#X obj 2147 399 vsl 15 128 0 1 0 0 exp exp empty 0 -9 0 10 -262144
-1 -1 10160 1;
#X obj 1830 648 tgl 15 0 aux aux empty 17 7 0 10 -262144 -1 -1 0 1
;
#X obj 2148 545 tgl 15 0 fs fs empty 17 7 0 10 -262144 -1 -1 0 1;
#N canvas 112 0 922 604 audioIO 0;
#X obj 513 336 dac~;
#X obj 578 102 catch~ outR;
#X obj 484 104 catch~ outL;
#X obj 192 166 adc~;
#X obj 285 245 s~ inR;
#X obj 110 244 s~ inL;
#X obj 487 273 *~;
#X obj 576 275 *~;
#X obj 810 69 r vol;
#X obj 810 122 *;
#X obj 810 95 t f f;
#X obj 810 150 sig~;
#X obj 810 176 lop~ 2;
#X obj 482 179 clip~ -1 1;
#X obj 571 179 clip~ -1 1;
#X text 268 34 Receives and sends audio to patch. Outgoing audio is
run through a compressor to provide some headroom if things get too
loud. Also sends values to the Organelle's OLED VU meter.;
#X obj 742 360 vsl 15 128 0 1 0 0 empty empty empty 0 -9 0 10 -262144
-1 -1 10160 1;
#X obj 742 326 r vol;
#X obj 485 134 *~ 0.25;
#X obj 582 133 *~ 0.25;
#X connect 1 0 19 0;
#X connect 2 0 18 0;
#X connect 3 0 5 0;
#X connect 3 1 4 0;
#X connect 6 0 0 0;
#X connect 7 0 0 1;
#X connect 8 0 10 0;
#X connect 9 0 11 0;
#X connect 10 0 9 0;
#X connect 10 1 9 1;
#X connect 11 0 12 0;
#X connect 12 0 7 1;
#X connect 12 0 6 1;
#X connect 13 0 6 0;
#X connect 14 0 7 0;
#X connect 17 0 16 0;
#X connect 18 0 13 0;
#X connect 19 0 14 0;
#X restore 1651 508 pd audioIO;
#X obj 1906 650 tgl 15 0 key3 key3 empty 17 7 0 10 -262144 -1 -1 0
1;
#X obj 1919 628 tgl 15 0 key4 key4 empty 17 7 0 10 -33289 -262144 -1
0 1;
#X obj 1931 650 tgl 15 0 key5 key5 empty 17 7 0 10 -262144 -1 -1 0
1;
#X obj 1956 650 tgl 15 0 key6 key6 empty 17 7 0 10 -262144 -1 -1 0
1;
#X obj 1967 629 tgl 15 0 key7 key7 empty 17 7 0 10 -33289 -262144 -1
0 1;
#X obj 1981 650 tgl 15 0 key8 key8 empty 17 7 0 10 -262144 -1 -1 0
1;
#X obj 1992 629 tgl 15 0 key9 key9 empty 17 7 0 10 -33289 -262144 -1
0 1;
#X obj 2006 650 tgl 15 0 key10 key10 empty 17 7 0 10 -262144 -1 -1
0 1;
#X obj 2018 629 tgl 15 0 key11 key11 empty 17 7 0 10 -33289 -262144
-1 0 1;
#X obj 2031 650 tgl 15 0 key12 key12 empty 17 7 0 10 -262144 -33289
-1 0 1;
#X obj 2074 650 tgl 15 0 key13 key13 empty 17 7 0 10 -262144 -1 -1
0 1;
#X obj 2085 629 tgl 15 0 key14 key14 empty 17 7 0 10 -33289 -262144
-1 0 1;
#X obj 2098 650 tgl 15 0 key15 key15 empty 17 7 0 10 -262144 -1 -1
0 1;
#X obj 2111 628 tgl 15 0 key16 key16 empty 17 7 0 10 -33289 -262144
-1 0 1;
#X obj 2123 650 tgl 15 0 key17 key17 empty 17 7 0 10 -262144 -1 -1
0 1;
#X obj 2148 650 tgl 15 0 key18 key18 empty 17 7 0 10 -262144 -1 -1
0 1;
#X obj 2159 629 tgl 15 0 key19 key19 empty 17 7 0 10 -33289 -262144
-1 0 1;
#X obj 2173 650 tgl 15 0 key20 key20 empty 17 7 0 10 -262144 -1 -1
0 1;
#X obj 2184 629 tgl 15 0 key21 key21 empty 17 7 0 10 -33289 -262144
-1 0 1;
#X obj 2198 650 tgl 15 0 key22 key22 empty 17 7 0 10 -262144 -1 -1
0 1;
#X obj 2210 629 tgl 15 0 key23 key23 empty 17 7 0 10 -33289 -262144
-1 0 1;
#X obj 2223 650 tgl 15 0 key24 key24 empty 17 7 0 10 -262144 -33289
-1 0 1;
#X obj 1882 650 tgl 15 0 key1 key1 empty 17 7 0 10 -262144 -1 -1 0
1;
#X text 1827 621 aux;
#X obj 2231 398 vsl 15 128 0 1 0 0 vol vol empty 0 -9 0 10 -262144
-1 -1 10160 1;
#X obj 1840 320 bng 15 250 50 0 send-all-vals empty empty 17 7 0 10
-262144 -1 -1;
#X obj 1830 599 cnv 17 17 17 empty empty empty 20 12 0 14 -33289 -262144
0;
#N canvas 0 0 1276 643 keyboard-keys 0;
#X obj 111 -33 key;
#X msg 119 41 1;
#X obj 190 -33 keyup;
#X msg 190 41 0;
#X obj 149 112 sel 1 0;
#X obj 149 216 s notes;
#X obj -20 292 key;
#X msg -16 349 1;
#X obj 61 295 keyup;
#X msg 61 348 0;
#X obj 26 428 sel 1 0;
#X obj 29 502 s notes;
#X obj 166 294 key;
#X msg 166 347 1;
#X obj 246 294 keyup;
#X msg 246 347 0;
#X obj 188 427 sel 1 0;
#X obj 190 501 s notes;
#X obj 349 297 key;
#X msg 349 350 1;
#X obj 427 296 keyup;
#X msg 427 349 0;
#X obj 380 426 sel 1 0;
#X obj 378 501 s notes;
#X obj 531 294 key;
#X msg 531 347 1;
#X obj 610 296 keyup;
#X msg 610 349 0;
#X obj 559 423 sel 1 0;
#X obj 555 498 s notes;
#X obj 708 300 key;
#X msg 708 353 1;
#X obj 786 300 keyup;
#X msg 786 353 0;
#X obj 743 421 sel 1 0;
#X obj 747 492 s notes;
#X obj 884 299 key;
#X msg 884 352 1;
#X obj 963 300 keyup;
#X msg 963 353 0;
#X obj 909 423 sel 1 0;
#X obj 898 493 s notes;
#X obj -196 297 key;
#X msg -196 350 1;
#X obj -113 297 keyup;
#X msg -113 350 0;
#X obj -175 430 sel 1 0;
#X obj -166 504 s notes;
#X obj 307 -36 key;
#X msg 307 38 1;
#X obj 393 -38 keyup;
#X msg 393 36 0;
#X obj 358 110 sel 1 0;
#X obj 358 214 s notes;
#X obj 510 -32 key;
#X msg 510 42 1;
#X obj 584 -32 keyup;
#X msg 584 42 0;
#X obj 550 110 sel 1 0;
#X obj 568 211 s notes;
#X obj 702 -34 key;
#X msg 702 40 1;
#X obj 772 -34 keyup;
#X msg 772 40 0;
#X obj 737 114 sel 1 0;
#X obj 737 218 s notes;
#X obj 896 -33 key;
#X msg 896 41 1;
#X obj 973 -33 keyup;
#X msg 973 41 0;
#X obj 938 115 sel 1 0;
#X obj 938 219 s notes;
#X obj -158 890 key;
#X msg -158 945 1;
#X obj -76 890 keyup;
#X msg -76 945 0;
#X obj -111 986 s key1;
#X obj -111 1019 r key1;
#X obj -111 1052 sel 1 0;
#X msg -111 1085 60 100;
#X msg -37 1083 60 0;
#X obj -111 1118 s notes;
#X obj -157 912 sel 122;
#X obj -76 912 sel 122;
#X text -158 859 z;
#X obj 32 889 key;
#X msg 32 944 1;
#X obj 113 889 keyup;
#X msg 113 944 0;
#X obj 77 1046 sel 1 0;
#X obj 78 1110 s notes;
#X text 32 858 x;
#X obj 33 911 sel 120;
#X obj 113 911 sel 120;
#X msg 45 1077 62 100;
#X msg 118 1076 62 0;
#X obj 220 889 key;
#X msg 220 944 1;
#X obj 286 888 keyup;
#X msg 286 943 0;
#X obj 251 1045 sel 1 0;
#X obj 251 1109 s notes;
#X obj 378 881 key;
#X msg 401 936 1;
#X obj 457 881 keyup;
#X msg 457 936 0;
#X obj 422 1010 sel 1 0;
#X obj 435 1088 s notes;
#X obj 564 879 key;
#X msg 564 934 1;
#X obj 636 879 keyup;
#X msg 636 934 0;
#X obj 601 1008 sel 1 0;
#X obj 595 1077 s notes;
#X obj 730 881 key;
#X msg 730 936 1;
#X obj 807 880 keyup;
#X msg 807 935 0;
#X obj 772 1009 sel 1 0;
#X obj 769 1077 s notes;
#X obj 897 897 key;
#X msg 897 952 1;
#X obj 976 896 keyup;
#X msg 976 951 0;
#X obj 929 1025 sel 1 0;
#X obj 928 1091 s notes;
#X obj -16 584 key;
#X msg -12 636 1;
#X obj 78 607 keyup;
#X msg 78 640 0;
#X obj 29 727 sel 1 0;
#X obj 29 793 s notes;
#X obj 206 579 key;
#X msg 210 631 1;
#X obj 293 606 keyup;
#X msg 293 639 0;
#X obj 251 732 sel 1 0;
#X obj 251 798 s notes;
#X obj 381 561 key;
#X msg 391 620 1;
#X obj 470 590 keyup;
#X msg 470 623 0;
#X obj 440 723 sel 1 0;
#X obj 440 789 s notes;
#X obj 603 570 key;
#X msg 601 622 1;
#X obj 682 597 keyup;
#X msg 682 630 0;
#X obj 628 721 sel 1 0;
#X obj 628 787 s notes;
#X obj 798 565 key;
#X msg 802 617 1;
#X obj 882 592 keyup;
#X msg 882 625 0;
#X obj 819 729 sel 1 0;
#X obj 818 793 s notes;
#X obj -196 320 sel 113;
#X obj -113 320 sel 113;
#X msg -188 464 72 100;
#X msg -113 465 72 0;
#X text -196 266 q;
#X text 163 -65 2;
#X obj 112 -11 sel 50;
#X obj 190 -11 sel 50;
#X msg 114 168 73 100;
#X msg 189 170 73 0;
#X msg -3 461 74 100;
#X msg 69 462 74 0;
#X msg 319 168 75 100;
#X msg 398 168 75 0;
#X msg 160 462 76 100;
#X msg 230 461 76 0;
#X msg 348 461 77 100;
#X msg 418 461 77 0;
#X msg 522 169 78 100;
#X msg 597 169 78 0;
#X msg 530 462 79 100;
#X msg 599 462 79 0;
#X msg 721 170 80 100;
#X msg 799 172 80 0;
#X msg 719 459 81 100;
#X msg 789 460 81 0;
#X msg 901 173 82 100;
#X msg 978 173 82 0;
#X msg 882 459 83 100;
#X obj -20 319 sel 119;
#X obj 61 318 sel 119;
#X text -16 265 w;
#X text 356 -68 3;
#X obj 308 -14 sel 51;
#X obj 393 -16 sel 51;
#X obj 167 317 sel 101;
#X obj 246 317 sel 101;
#X obj 349 320 sel 114;
#X obj 427 319 sel 114;
#X text 349 266 r;
#X text 166 263 e;
#X text 539 266 t;
#X text 708 269 y;
#X text 884 268 u;
#X text 953 -67 7;
#X text 760 -63 6;
#X text 568 -61 5;
#X obj 532 317 sel 116;
#X obj 610 319 sel 116;
#X obj 511 -10 sel 53;
#X obj 584 -10 sel 53;
#X obj 703 -12 sel 54;
#X obj 772 -12 sel 54;
#X obj 709 323 sel 121;
#X obj 786 323 sel 121;
#X obj 897 -11 sel 55;
#X obj 973 -11 sel 55;
#X obj 885 322 sel 117;
#X obj 963 323 sel 117;
#X msg 225 1075 64 100;
#X msg 300 1077 64 0;
#X msg 393 1047 65 100;
#X msg 469 1046 65 0;
#X msg 561 1042 67 100;
#X msg 636 1043 67 0;
#X msg 731 1040 69 100;
#X msg 806 1042 69 0;
#X msg 909 1056 71 100;
#X msg 984 1058 71 0;
#X obj 221 911 sel 99;
#X obj 286 910 sel 99;
#X obj 379 903 sel 118;
#X obj 457 903 sel 118;
#X obj 565 901 sel 98;
#X obj 636 901 sel 98;
#X obj 731 903 sel 110;
#X obj 807 902 sel 110;
#X obj 898 919 sel 109;
#X obj 976 918 sel 109;
#X obj 882 592 sel 106;
#X obj 801 594 sel 106;
#X obj 682 597 sel 104;
#X obj 602 599 sel 104;
#X obj 470 590 sel 103;
#X obj 387 590 sel 103;
#X obj -11 613 sel 115;
#X obj 78 607 sel 115;
#X obj 211 608 sel 100;
#X obj 293 606 sel 100;
#X text -16 553 s;
#X text 206 548 d;
#X text 381 530 g;
#X text 604 542 h;
#X text 798 534 j;
#X text 220 858 c;
#X text 378 850 v;
#X text 565 843 b;
#X text 730 850 n;
#X text 897 866 m;
#X msg 29 760 61 100;
#X msg 105 761 61 0;
#X msg 224 764 63 100;
#X msg 302 763 63 0;
#X msg 412 753 66 100;
#X msg 486 754 66 0;
#X msg 608 752 68 100;
#X msg 682 752 68 0;
#X msg 797 760 70 100;
#X msg 874 760 70 0;
#X obj 30 668 s key2;
#X obj 29 694 r key2;
#X obj 78 985 s key3;
#X obj 77 1017 r key3;
#X obj 250 671 s key4;
#X obj 251 699 r key4;
#X obj 251 984 s key5;
#X obj 250 1016 r key5;
#X obj 422 977 s key6;
#X obj 421 1009 r key6;
#X obj 438 658 s key7;
#X obj 439 690 r key7;
#X obj 601 975 s key8;
#X obj 600 1007 r key8;
#X obj 632 658 s key9;
#X obj 628 688 r key9;
#X obj 772 976 s key10;
#X obj 771 1008 r key10;
#X obj 822 665 s key11;
#X obj 819 696 r key11;
#X obj 929 992 s key12;
#X obj 927 1024 r key12;
#X obj -176 429 r key13;
#X obj -175 397 s key13;
#X obj 149 79 s key14;
#X obj 148 111 r key14;
#X obj 26 395 s key15;
#X obj 25 427 r key15;
#X obj 358 77 s key16;
#X obj 357 109 r key16;
#X obj 188 394 s key17;
#X obj 186 426 r key17;
#X obj 380 393 s key18;
#X obj 377 425 r key18;
#X obj 550 77 s key19;
#X obj 549 109 r key19;
#X obj 559 390 s key20;
#X obj 558 422 r key20;
#X obj 737 81 s key21;
#X obj 736 113 r key21;
#X obj 743 388 s key22;
#X obj 741 420 r key22;
#X obj 938 82 s key23;
#X obj 937 114 r key23;
#X obj 905 386 s key24;
#X obj 908 422 r key24;
#X text -90 -80 1;
#X obj -135 -30 key;
#X obj -66 -30 keyup;
#X obj -135 3 sel 49;
#X obj -66 3 sel 49;
#X obj -135 36 t b b;
#X msg -142 106 1;
#X obj -124 173 change;
#X msg -89 68 stop;
#X msg -86 138 0;
#X obj -86 105 delay 250;
#X obj -124 206 s aux;
#X msg 978 459 83 0;
#X connect 0 0 162 0;
#X connect 1 0 289 0;
#X connect 2 0 163 0;
#X connect 3 0 289 0;
#X connect 4 0 164 0;
#X connect 4 1 165 0;
#X connect 6 0 185 0;
#X connect 7 0 291 0;
#X connect 8 0 186 0;
#X connect 9 0 291 0;
#X connect 10 0 166 0;
#X connect 10 1 167 0;
#X connect 12 0 191 0;
#X connect 13 0 295 0;
#X connect 14 0 192 0;
#X connect 15 0 295 0;
#X connect 16 0 170 0;
#X connect 16 1 171 0;
#X connect 18 0 193 0;
#X connect 19 0 297 0;
#X connect 20 0 194 0;
#X connect 21 0 297 0;
#X connect 22 0 172 0;
#X connect 22 1 173 0;
#X connect 24 0 203 0;
#X connect 25 0 301 0;
#X connect 26 0 204 0;
#X connect 27 0 301 0;
#X connect 28 0 176 0;
#X connect 28 1 177 0;
#X connect 30 0 209 0;
#X connect 31 0 305 0;
#X connect 32 0 210 0;
#X connect 33 0 305 0;
#X connect 34 0 180 0;
#X connect 34 1 181 0;
#X connect 36 0 213 0;
#X connect 37 0 309 0;
#X connect 38 0 214 0;
#X connect 39 0 309 0;
#X connect 40 0 184 0;
#X connect 40 1 323 0;
#X connect 42 0 156 0;
#X connect 43 0 288 0;
#X connect 44 0 157 0;
#X connect 45 0 288 0;
#X connect 46 0 158 0;
#X connect 46 1 159 0;
#X connect 48 0 189 0;
#X connect 49 0 293 0;
#X connect 50 0 190 0;
#X connect 51 0 293 0;
#X connect 52 0 168 0;
#X connect 52 1 169 0;
#X connect 54 0 205 0;
#X connect 55 0 299 0;
#X connect 56 0 206 0;
#X connect 57 0 299 0;
#X connect 58 0 174 0;
#X connect 58 1 175 0;
#X connect 60 0 207 0;
#X connect 61 0 303 0;
#X connect 62 0 208 0;
#X connect 63 0 303 0;
#X connect 64 0 178 0;
#X connect 64 1 179 0;
#X connect 66 0 211 0;
#X connect 67 0 307 0;
#X connect 68 0 212 0;
#X connect 69 0 307 0;
#X connect 70 0 182 0;
#X connect 70 1 183 0;
#X connect 72 0 82 0;
#X connect 73 0 76 0;
#X connect 74 0 83 0;
#X connect 75 0 76 0;
#X connect 77 0 78 0;
#X connect 78 0 79 0;
#X connect 78 1 80 0;
#X connect 79 0 81 0;
#X connect 80 0 81 0;
#X connect 82 0 73 0;
#X connect 83 0 75 0;
#X connect 85 0 92 0;
#X connect 86 0 267 0;
#X connect 87 0 93 0;
#X connect 88 0 267 0;
#X connect 89 0 94 0;
#X connect 89 1 95 0;
#X connect 92 0 86 0;
#X connect 93 0 88 0;
#X connect 94 0 90 0;
#X connect 95 0 90 0;
#X connect 96 0 225 0;
#X connect 97 0 271 0;
#X connect 98 0 226 0;
#X connect 99 0 271 0;
#X connect 100 0 215 0;
#X connect 100 1 216 0;
#X connect 102 0 227 0;
#X connect 103 0 273 0;
#X connect 104 0 228 0;
#X connect 105 0 273 0;
#X connect 106 0 217 0;
#X connect 106 1 218 0;
#X connect 108 0 229 0;
#X connect 109 0 277 0;
#X connect 110 0 230 0;
#X connect 111 0 277 0;
#X connect 112 0 219 0;
#X connect 112 1 220 0;
#X connect 114 0 231 0;
#X connect 115 0 281 0;
#X connect 116 0 232 0;
#X connect 117 0 281 0;
#X connect 118 0 221 0;
#X connect 118 1 222 0;
#X connect 120 0 233 0;
#X connect 121 0 285 0;
#X connect 122 0 234 0;
#X connect 123 0 285 0;
#X connect 124 0 223 0;
#X connect 124 1 224 0;
#X connect 126 0 241 0;
#X connect 127 0 265 0;
#X connect 128 0 242 0;
#X connect 129 0 265 0;
#X connect 130 0 255 0;
#X connect 130 1 256 0;
#X connect 132 0 243 0;
#X connect 133 0 269 0;
#X connect 134 0 244 0;
#X connect 135 0 269 0;
#X connect 136 0 257 0;
#X connect 136 1 258 0;
#X connect 138 0 240 0;
#X connect 139 0 275 0;
#X connect 140 0 239 0;
#X connect 141 0 275 0;
#X connect 142 0 259 0;
#X connect 142 1 260 0;
#X connect 144 0 238 0;
#X connect 145 0 279 0;
#X connect 146 0 237 0;
#X connect 147 0 279 0;
#X connect 148 0 261 0;
#X connect 148 1 262 0;
#X connect 150 0 236 0;
#X connect 151 0 283 0;
#X connect 152 0 235 0;
#X connect 153 0 283 0;
#X connect 154 0 263 0;
#X connect 154 1 264 0;
#X connect 156 0 43 0;
#X connect 157 0 45 0;
#X connect 158 0 47 0;
#X connect 159 0 47 0;
#X connect 162 0 1 0;
#X connect 163 0 3 0;
#X connect 164 0 5 0;
#X connect 165 0 5 0;
#X connect 166 0 11 0;
#X connect 167 0 11 0;
#X connect 168 0 53 0;
#X connect 169 0 53 0;
#X connect 170 0 17 0;
#X connect 171 0 17 0;
#X connect 172 0 23 0;
#X connect 173 0 23 0;
#X connect 174 0 59 0;
#X connect 175 0 59 0;
#X connect 176 0 29 0;
#X connect 177 0 29 0;
#X connect 178 0 65 0;
#X connect 179 0 65 0;
#X connect 180 0 35 0;
#X connect 181 0 35 0;
#X connect 182 0 71 0;
#X connect 183 0 71 0;
#X connect 184 0 41 0;
#X connect 185 0 7 0;
#X connect 186 0 9 0;
#X connect 189 0 49 0;
#X connect 190 0 51 0;
#X connect 191 0 13 0;
#X connect 192 0 15 0;
#X connect 193 0 19 0;
#X connect 194 0 21 0;
#X connect 203 0 25 0;
#X connect 204 0 27 0;
#X connect 205 0 55 0;
#X connect 206 0 57 0;
#X connect 207 0 61 0;
#X connect 208 0 63 0;
#X connect 209 0 31 0;
#X connect 210 0 33 0;
#X connect 211 0 67 0;
#X connect 212 0 69 0;
#X connect 213 0 37 0;
#X connect 214 0 39 0;
#X connect 215 0 101 0;
#X connect 216 0 101 0;
#X connect 217 0 107 0;
#X connect 218 0 107 0;
#X connect 219 0 113 0;
#X connect 220 0 113 0;
#X connect 221 0 119 0;
#X connect 222 0 119 0;
#X connect 223 0 125 0;
#X connect 224 0 125 0;
#X connect 225 0 97 0;
#X connect 226 0 99 0;
#X connect 227 0 103 0;
#X connect 228 0 105 0;
#X connect 229 0 109 0;
#X connect 230 0 111 0;
#X connect 231 0 115 0;
#X connect 232 0 117 0;
#X connect 233 0 121 0;
#X connect 234 0 123 0;
#X connect 235 0 153 0;
#X connect 236 0 151 0;
#X connect 237 0 147 0;
#X connect 238 0 145 0;
#X connect 239 0 141 0;
#X connect 240 0 139 0;
#X connect 241 0 127 0;
#X connect 242 0 129 0;
#X connect 243 0 133 0;
#X connect 244 0 135 0;
#X connect 255 0 131 0;
#X connect 256 0 131 0;
#X connect 257 0 137 0;
#X connect 258 0 137 0;
#X connect 259 0 143 0;
#X connect 260 0 143 0;
#X connect 261 0 149 0;
#X connect 262 0 149 0;
#X connect 263 0 155 0;
#X connect 264 0 155 0;
#X connect 266 0 130 0;
#X connect 268 0 89 0;
#X connect 270 0 136 0;
#X connect 272 0 100 0;
#X connect 274 0 106 0;
#X connect 276 0 142 0;
#X connect 278 0 112 0;
#X connect 280 0 148 0;
#X connect 282 0 118 0;
#X connect 284 0 154 0;
#X connect 286 0 124 0;
#X connect 287 0 46 0;
#X connect 290 0 4 0;
#X connect 292 0 10 0;
#X connect 294 0 52 0;
#X connect 296 0 16 0;
#X connect 298 0 22 0;
#X connect 300 0 58 0;
#X connect 302 0 28 0;
#X connect 304 0 64 0;
#X connect 306 0 34 0;
#X connect 308 0 70 0;
#X connect 310 0 40 0;
#X connect 312 0 314 0;
#X connect 313 0 315 0;
#X connect 314 0 316 0;
#X connect 315 0 321 0;
#X connect 316 0 317 0;
#X connect 316 1 319 0;
#X connect 317 0 318 0;
#X connect 318 0 322 0;
#X connect 319 0 321 0;
#X connect 320 0 318 0;
#X connect 321 0 320 0;
#X connect 323 0 41 0;
#X restore 1652 563 pd keyboard-keys;
#X obj 1831 600 cnv 15 15 15 empty led-canvas empty 20 12 0 14 -1 -262144
0;
#X text 1865 319 Hit this after opening a patch to send the inital
slider values to the patch;
#X text 1839 374 knob 1;
#X text 1904 373 knob 2;
#X text 1967 372 knob 3;
#X text 2032 372 knob 4;
#X text 2124 361 expression;
#X text 2141 375 pedal;
#X text 1659 228 Mother Patch. This patch is the bridge between the
hardware and Pd. Without it open the Organelle does not work. In this
desktop version the computer keyboard sends note messages. The two
octaves are on two rows \, the upper starting with 'Q' and the lower
starting with 'Z'. The Aux button is '1'. You can simulate knob input
using the sliders.;
#X text 2218 371 volume;
#X text 2171 544 foot switch;
#X text 1661 201 Controls taken from Critter and Guittari Forums;
#X connect 0 0 4 0;
#X connect 1 0 11 0;
#X connect 2 0 16 1;
#X connect 3 0 2 1;
#X connect 4 0 39 0;
#X connect 4 0 40 0;
#X connect 5 0 9 0;
#X connect 6 0 5 0;
#X connect 7 0 34 0;
#X connect 8 0 56 0;
#X connect 9 0 8 1;
#X connect 10 0 11 1;
#X connect 11 0 2 0;
#X connect 12 0 22 0;
#X connect 13 0 16 0;
#X connect 14 0 13 0;
#X connect 15 0 31 0;
#X connect 16 0 12 1;
#X connect 17 0 15 0;
#X connect 19 0 18 0;
#X connect 20 0 21 0;
#X connect 22 0 8 0;
#X connect 23 0 35 0;
#X connect 24 0 25 0;
#X connect 26 0 27 0;
#X connect 28 0 29 0;
#X connect 30 0 23 0;
#X connect 31 0 32 0;
#X connect 32 0 1 0;
#X connect 32 0 10 0;
#X connect 33 0 12 0;
#X connect 34 0 9 0;
#X connect 35 0 33 0;
#X connect 36 0 33 0;
#X connect 37 0 36 0;
#X connect 38 0 5 0;
#X connect 41 0 42 0;
#X connect 41 1 43 0;
#X connect 44 0 41 0;
#X connect 45 0 34 0;
#X connect 46 0 5 0;
#X connect 47 0 48 0;
#X connect 48 1 49 0;
#X connect 49 0 50 0;
#X connect 51 0 45 0;
#X connect 51 0 46 0;
#X connect 52 0 11 2;
#X connect 53 0 54 0;
#X connect 53 0 64 0;
#X connect 54 0 55 0;
#X connect 55 0 0 0;
#X connect 56 0 0 0;
#X connect 57 0 54 1;
#X connect 58 0 19 0;
#X connect 59 0 20 0;
#X connect 60 0 69 0;
#X connect 61 0 26 0;
#X connect 62 0 28 0;
#X connect 66 0 67 0;
#X connect 66 0 68 0;
#X connect 68 0 64 0;
#X connect 69 0 24 0;
#X connect 70 0 72 0;
#X connect 75 0 76 0;
#X connect 76 0 74 0;
