#N canvas 381 27 1440 851 10;
#X obj 200 184 float;
#X obj 250 185 + 1;
#X floatatom 197 243 5 0 0 0 - - -, f 5;
#X msg 107 137 1;
#X msg 64 137 0;
#X obj 1212 11 r notes;
#X obj 1257 41 unpack;
#X obj 667 149 i;
#X obj 618 232 s selBD;
#X floatatom 667 169 5 0 0 0 - - -, f 5;
#X obj 668 192 == 0;
#X obj 803 765 readsf~;
#X msg 753 737 start;
#X obj 800 710 delay 1;
#X msg 799 736 open Kick.aif;
#X obj 1158 262 s steps;
#N canvas 0 23 1440 848 sequencer(SD) 0;
#X obj 54 122 spigot;
#X obj 107 143 spigot;
#X obj 158 163 spigot;
#X obj 212 187 spigot;
#X obj 267 209 spigot;
#X obj 317 232 spigot;
#X obj 369 250 spigot;
#X obj 417 268 spigot;
#X obj 530 105 sel 60;
#X obj 569 125 sel 62;
#X obj 497 104 tgl 15 0 empty empty empty 17 7 0 10 -262144 -1 -1 0
1;
#X obj 609 145 sel 64;
#X obj 649 166 sel 65;
#X obj 689 186 sel 67;
#X obj 729 208 sel 69;
#X obj 769 231 sel 71;
#X obj 810 253 sel 72;
#X obj 532 126 tgl 15 0 empty empty empty 17 7 0 10 -262144 -1 -1 0
1;
#X obj 571 146 tgl 15 0 empty empty empty 17 7 0 10 -262144 -1 -1 0
1;
#X obj 610 166 tgl 15 0 empty empty empty 17 7 0 10 -262144 -1 -1 0
1;
#X obj 649 188 tgl 15 0 empty empty empty 17 7 0 10 -262144 -1 -1 0
1;
#X obj 691 208 tgl 15 0 empty empty empty 17 7 0 10 -262144 -1 -1 0
1;
#X obj 730 231 tgl 15 0 empty empty empty 17 7 0 10 -262144 -1 -1 0
1;
#X obj 769 252 tgl 15 0 empty empty empty 17 7 0 10 -262144 -1 -1 0
1;
#X obj 943 79 spigot;
#X obj 44 649 bng 15 250 50 0 empty empty empty 17 7 0 10 -262144 -1
-1;
#X obj 97 648 bng 15 250 50 0 empty empty empty 17 7 0 10 -262144 -1
-1;
#X obj 150 650 bng 15 250 50 0 empty empty empty 17 7 0 10 -262144
-1 -1;
#X obj 206 647 bng 15 250 50 0 empty empty empty 17 7 0 10 -262144
-1 -1;
#X obj 259 647 bng 15 250 50 0 empty empty empty 17 7 0 10 -262144
-1 -1;
#X obj 310 647 bng 15 250 50 0 empty empty empty 17 7 0 10 -262144
-1 -1;
#X obj 361 648 bng 15 250 50 0 empty empty empty 17 7 0 10 -262144
-1 -1;
#X obj 416 648 bng 15 250 50 0 empty empty empty 17 7 0 10 -262144
-1 -1;
#X obj 56 28 inlet;
#X obj 937 58 r steps;
#X obj 993 59 r selSD;
#X obj 43 697 s sd;
#X obj 1345 82 r seq-nmb;
#X obj 1347 110 sel 1;
#X obj 55 80 sel 0 1 2 3 4 5 6 7 8 9 10 11 12 13 14 15, f 62;
#X obj 56 286 spigot;
#X obj 106 302 spigot;
#X obj 157 322 spigot;
#X obj 211 346 spigot;
#X obj 266 368 spigot;
#X obj 316 391 spigot;
#X obj 368 409 spigot;
#X obj 418 435 spigot;
#X obj 643 277 tgl 15 0 empty empty empty 17 7 0 10 -262144 -1 -1 0
1;
#X obj 663 297 tgl 15 0 empty empty empty 17 7 0 10 -262144 -1 -1 0
1;
#X obj 702 317 tgl 15 0 empty empty empty 17 7 0 10 -262144 -1 -1 0
1;
#X obj 741 337 tgl 15 0 empty empty empty 17 7 0 10 -262144 -1 -1 0
1;
#X obj 780 359 tgl 15 0 empty empty empty 17 7 0 10 -262144 -1 -1 0
1;
#X obj 822 379 tgl 15 0 empty empty empty 17 7 0 10 -262144 -1 -1 0
1;
#X obj 861 402 tgl 15 0 empty empty empty 17 7 0 10 -262144 -1 -1 0
1;
#X obj 900 423 tgl 15 0 empty empty empty 17 7 0 10 -262144 -1 -1 0
1;
#X floatatom 937 263 5 0 0 0 - - -, f 5;
#X obj 661 276 sel 84;
#X obj 700 296 sel 86;
#X obj 740 316 sel 88;
#X obj 780 337 sel 89;
#X obj 820 357 sel 91;
#X obj 860 379 sel 93;
#X obj 900 402 sel 95;
#X obj 941 424 sel 96;
#X obj 469 650 bng 15 250 50 0 empty empty empty 17 7 0 10 -262144
-1 -1;
#X obj 522 649 bng 15 250 50 0 empty empty empty 17 7 0 10 -262144
-1 -1;
#X obj 575 651 bng 15 250 50 0 empty empty empty 17 7 0 10 -262144
-1 -1;
#X obj 628 650 bng 15 250 50 0 empty empty empty 17 7 0 10 -262144
-1 -1;
#X obj 684 648 bng 15 250 50 0 empty empty empty 17 7 0 10 -262144
-1 -1;
#X obj 735 648 bng 15 250 50 0 empty empty empty 17 7 0 10 -262144
-1 -1;
#X obj 786 649 bng 15 250 50 0 empty empty empty 17 7 0 10 -262144
-1 -1;
#X obj 841 649 bng 15 250 50 0 empty empty empty 17 7 0 10 -262144
-1 -1;
#X obj 1077 161 pack 0 0 0 0;
#X obj 1047 94 t b f;
#X obj 1087 111 t b f;
#X obj 1128 129 t b f;
#X obj 1180 162 s screenLine2;
#X obj 1014 244 pack 0 0 0 0;
#X obj 984 177 t b f;
#X obj 1024 194 t b f;
#X obj 1065 212 t b f;
#X obj 1115 241 s screenLine3;
#X obj 1079 341 pack 0 0 0 0;
#X obj 1049 274 t b f;
#X obj 1089 291 t b f;
#X obj 1130 309 t b f;
#X obj 1016 424 pack 0 0 0 0;
#X obj 986 357 t b f;
#X obj 1026 374 t b f;
#X obj 1067 392 t b f;
#X obj 1182 342 s screenLine4;
#X obj 1117 421 s screenLine5;
#X msg 1179 139 \$1___\$2___\$3___\$4;
#X msg 1114 218 \$1___\$2___\$3___\$4;
#X msg 1181 319 \$1___\$2___\$3___\$4;
#X msg 1116 398 \$1___\$2___\$3___\$4;
#X connect 0 0 25 0;
#X connect 1 0 26 0;
#X connect 2 0 27 0;
#X connect 3 0 28 0;
#X connect 4 0 29 0;
#X connect 5 0 30 0;
#X connect 6 0 31 0;
#X connect 7 0 32 0;
#X connect 8 0 10 0;
#X connect 9 0 17 0;
#X connect 10 0 0 1;
#X connect 10 0 73 0;
#X connect 11 0 18 0;
#X connect 12 0 19 0;
#X connect 13 0 20 0;
#X connect 14 0 21 0;
#X connect 15 0 22 0;
#X connect 16 0 23 0;
#X connect 17 0 1 1;
#X connect 17 0 74 0;
#X connect 18 0 2 1;
#X connect 18 0 75 0;
#X connect 19 0 3 1;
#X connect 19 0 76 0;
#X connect 20 0 4 1;
#X connect 20 0 78 0;
#X connect 21 0 5 1;
#X connect 21 0 79 0;
#X connect 22 0 6 1;
#X connect 22 0 80 0;
#X connect 23 0 7 1;
#X connect 23 0 81 0;
#X connect 24 0 8 0;
#X connect 24 0 9 0;
#X connect 24 0 11 0;
#X connect 24 0 12 0;
#X connect 24 0 13 0;
#X connect 24 0 14 0;
#X connect 24 0 15 0;
#X connect 24 0 16 0;
#X connect 24 0 56 0;
#X connect 25 0 36 0;
#X connect 26 0 36 0;
#X connect 27 0 36 0;
#X connect 28 0 36 0;
#X connect 29 0 36 0;
#X connect 30 0 36 0;
#X connect 31 0 36 0;
#X connect 32 0 36 0;
#X connect 33 0 39 0;
#X connect 34 0 24 0;
#X connect 35 0 24 1;
#X connect 37 0 38 0;
#X connect 38 0 73 0;
#X connect 38 0 78 0;
#X connect 38 0 83 0;
#X connect 38 0 87 0;
#X connect 39 0 0 0;
#X connect 39 1 1 0;
#X connect 39 2 2 0;
#X connect 39 3 3 0;
#X connect 39 4 4 0;
#X connect 39 5 5 0;
#X connect 39 6 6 0;
#X connect 39 7 7 0;
#X connect 39 8 40 0;
#X connect 39 9 41 0;
#X connect 39 10 42 0;
#X connect 39 11 43 0;
#X connect 39 12 44 0;
#X connect 39 13 45 0;
#X connect 39 14 46 0;
#X connect 39 15 47 0;
#X connect 40 0 65 0;
#X connect 41 0 66 0;
#X connect 42 0 67 0;
#X connect 43 0 68 0;
#X connect 44 0 69 0;
#X connect 45 0 70 0;
#X connect 46 0 71 0;
#X connect 47 0 72 0;
#X connect 48 0 40 1;
#X connect 48 0 83 0;
#X connect 49 0 41 1;
#X connect 49 0 84 0;
#X connect 50 0 42 1;
#X connect 50 0 85 0;
#X connect 51 0 43 1;
#X connect 51 0 86 0;
#X connect 52 0 44 1;
#X connect 52 0 87 0;
#X connect 53 0 45 1;
#X connect 53 0 88 0;
#X connect 54 0 46 1;
#X connect 54 0 89 0;
#X connect 55 0 47 1;
#X connect 55 0 90 0;
#X connect 56 0 57 0;
#X connect 56 0 58 0;
#X connect 56 0 59 0;
#X connect 56 0 60 0;
#X connect 56 0 61 0;
#X connect 56 0 62 0;
#X connect 56 0 63 0;
#X connect 56 0 64 0;
#X connect 57 0 48 0;
#X connect 58 0 49 0;
#X connect 59 0 50 0;
#X connect 60 0 51 0;
#X connect 61 0 52 0;
#X connect 62 0 53 0;
#X connect 63 0 54 0;
#X connect 64 0 55 0;
#X connect 65 0 36 0;
#X connect 66 0 36 0;
#X connect 67 0 36 0;
#X connect 68 0 36 0;
#X connect 69 0 36 0;
#X connect 70 0 36 0;
#X connect 71 0 36 0;
#X connect 72 0 36 0;
#X connect 73 0 93 0;
#X connect 74 0 73 0;
#X connect 74 1 73 1;
#X connect 75 0 73 0;
#X connect 75 1 73 2;
#X connect 76 0 73 0;
#X connect 76 1 73 3;
#X connect 78 0 94 0;
#X connect 79 0 78 0;
#X connect 79 1 78 1;
#X connect 80 0 78 0;
#X connect 80 1 78 2;
#X connect 81 0 78 0;
#X connect 81 1 78 3;
#X connect 83 0 95 0;
#X connect 84 0 83 0;
#X connect 84 1 83 1;
#X connect 85 0 83 0;
#X connect 85 1 83 2;
#X connect 86 0 83 0;
#X connect 86 1 83 3;
#X connect 87 0 96 0;
#X connect 88 0 87 0;
#X connect 88 1 87 1;
#X connect 89 0 87 0;
#X connect 89 1 87 2;
#X connect 90 0 87 0;
#X connect 90 1 87 3;
#X connect 93 0 77 0;
#X connect 94 0 82 0;
#X connect 95 0 91 0;
#X connect 96 0 92 0;
#X restore 186 293 pd sequencer(SD);
#X obj 800 689 r bd;
#X obj 675 232 s selSD;
#X obj 707 193 == 1;
#X obj 851 231 s selHH;
#X obj 58 450 readsf~;
#X msg 3 423 start;
#X obj 55 395 delay 1;
#X msg 54 421 open Snare.aif;
#X obj 55 374 r sd;
#X obj 49 823 throw~ outL;
#X obj 142 825 throw~ outR;
#X floatatom 387 102 5 0 0 0 - - -, f 5;
#X obj 390 76 + 60;
#X obj 390 54 * 140;
#X msg 335 102 60000;
#X obj 336 133 /;
#X obj 381 143 t b f;
#X obj 295 29 loadbang;
#X msg 335 61 120;
#X obj 336 165 / 4;
#X obj 160 159 metro;
#X obj 672 620 readsf~;
#X msg 624 601 start;
#X obj 671 577 delay 1;
#X obj 671 554 r hh;
#X msg 671 599 open HatClosed.aif;
#X obj 537 234 s seq-nmb;
#N canvas 0 30 1440 848 sequencer(HH) 0;
#X obj 54 122 spigot;
#X obj 107 143 spigot;
#X obj 158 163 spigot;
#X obj 212 187 spigot;
#X obj 267 209 spigot;
#X obj 317 232 spigot;
#X obj 369 250 spigot;
#X obj 417 268 spigot;
#X obj 530 105 sel 60;
#X obj 569 125 sel 62;
#X obj 497 104 tgl 15 0 empty empty empty 17 7 0 10 -262144 -1 -1 0
1;
#X obj 609 145 sel 64;
#X obj 649 166 sel 65;
#X obj 689 186 sel 67;
#X obj 729 208 sel 69;
#X obj 769 231 sel 71;
#X obj 810 253 sel 72;
#X obj 532 126 tgl 15 0 empty empty empty 17 7 0 10 -262144 -1 -1 0
1;
#X obj 571 146 tgl 15 0 empty empty empty 17 7 0 10 -262144 -1 -1 0
1;
#X obj 610 166 tgl 15 0 empty empty empty 17 7 0 10 -262144 -1 -1 0
1;
#X obj 649 188 tgl 15 0 empty empty empty 17 7 0 10 -262144 -1 -1 0
1;
#X obj 691 208 tgl 15 0 empty empty empty 17 7 0 10 -262144 -1 -1 0
1;
#X obj 730 231 tgl 15 0 empty empty empty 17 7 0 10 -262144 -1 -1 0
1;
#X obj 769 252 tgl 15 0 empty empty empty 17 7 0 10 -262144 -1 -1 0
1;
#X obj 943 79 spigot;
#X obj 44 649 bng 15 250 50 0 empty empty empty 17 7 0 10 -262144 -1
-1;
#X obj 97 648 bng 15 250 50 0 empty empty empty 17 7 0 10 -262144 -1
-1;
#X obj 150 650 bng 15 250 50 0 empty empty empty 17 7 0 10 -262144
-1 -1;
#X obj 206 647 bng 15 250 50 0 empty empty empty 17 7 0 10 -262144
-1 -1;
#X obj 259 647 bng 15 250 50 0 empty empty empty 17 7 0 10 -262144
-1 -1;
#X obj 310 647 bng 15 250 50 0 empty empty empty 17 7 0 10 -262144
-1 -1;
#X obj 361 648 bng 15 250 50 0 empty empty empty 17 7 0 10 -262144
-1 -1;
#X obj 416 648 bng 15 250 50 0 empty empty empty 17 7 0 10 -262144
-1 -1;
#X obj 56 28 inlet;
#X obj 937 58 r steps;
#X obj 1345 82 r seq-nmb;
#X obj 55 80 sel 0 1 2 3 4 5 6 7 8 9 10 11 12 13 14 15, f 62;
#X obj 56 286 spigot;
#X obj 106 302 spigot;
#X obj 157 322 spigot;
#X obj 211 346 spigot;
#X obj 266 368 spigot;
#X obj 316 391 spigot;
#X obj 368 409 spigot;
#X obj 418 435 spigot;
#X obj 643 277 tgl 15 0 empty empty empty 17 7 0 10 -262144 -1 -1 0
1;
#X obj 663 297 tgl 15 0 empty empty empty 17 7 0 10 -262144 -1 -1 0
1;
#X obj 702 317 tgl 15 0 empty empty empty 17 7 0 10 -262144 -1 -1 0
1;
#X obj 741 337 tgl 15 0 empty empty empty 17 7 0 10 -262144 -1 -1 0
1;
#X obj 780 359 tgl 15 0 empty empty empty 17 7 0 10 -262144 -1 -1 0
1;
#X obj 822 379 tgl 15 0 empty empty empty 17 7 0 10 -262144 -1 -1 0
1;
#X obj 861 402 tgl 15 0 empty empty empty 17 7 0 10 -262144 -1 -1 0
1;
#X obj 900 423 tgl 15 0 empty empty empty 17 7 0 10 -262144 -1 -1 0
1;
#X floatatom 937 263 5 0 0 0 - - -, f 5;
#X obj 661 276 sel 84;
#X obj 700 296 sel 86;
#X obj 740 316 sel 88;
#X obj 780 337 sel 89;
#X obj 820 357 sel 91;
#X obj 860 379 sel 93;
#X obj 900 402 sel 95;
#X obj 941 424 sel 96;
#X obj 469 650 bng 15 250 50 0 empty empty empty 17 7 0 10 -262144
-1 -1;
#X obj 522 649 bng 15 250 50 0 empty empty empty 17 7 0 10 -262144
-1 -1;
#X obj 575 651 bng 15 250 50 0 empty empty empty 17 7 0 10 -262144
-1 -1;
#X obj 628 650 bng 15 250 50 0 empty empty empty 17 7 0 10 -262144
-1 -1;
#X obj 684 648 bng 15 250 50 0 empty empty empty 17 7 0 10 -262144
-1 -1;
#X obj 735 648 bng 15 250 50 0 empty empty empty 17 7 0 10 -262144
-1 -1;
#X obj 786 649 bng 15 250 50 0 empty empty empty 17 7 0 10 -262144
-1 -1;
#X obj 841 649 bng 15 250 50 0 empty empty empty 17 7 0 10 -262144
-1 -1;
#X obj 1077 161 pack 0 0 0 0;
#X obj 1047 94 t b f;
#X obj 1087 111 t b f;
#X obj 1128 129 t b f;
#X obj 1180 162 s screenLine2;
#X obj 1014 244 pack 0 0 0 0;
#X obj 984 177 t b f;
#X obj 1024 194 t b f;
#X obj 1065 212 t b f;
#X obj 1115 241 s screenLine3;
#X obj 1079 341 pack 0 0 0 0;
#X obj 1049 274 t b f;
#X obj 1089 291 t b f;
#X obj 1130 309 t b f;
#X obj 1016 424 pack 0 0 0 0;
#X obj 986 357 t b f;
#X obj 1026 374 t b f;
#X obj 1067 392 t b f;
#X obj 1182 342 s screenLine4;
#X obj 1117 421 s screenLine5;
#X msg 1179 139 \$1___\$2___\$3___\$4;
#X msg 1114 218 \$1___\$2___\$3___\$4;
#X msg 1181 319 \$1___\$2___\$3___\$4;
#X msg 1116 398 \$1___\$2___\$3___\$4;
#X obj 43 697 s hh;
#X obj 993 59 r selHH;
#X obj 1347 110 sel 4;
#X connect 0 0 25 0;
#X connect 1 0 26 0;
#X connect 2 0 27 0;
#X connect 3 0 28 0;
#X connect 4 0 29 0;
#X connect 5 0 30 0;
#X connect 6 0 31 0;
#X connect 7 0 32 0;
#X connect 8 0 10 0;
#X connect 9 0 17 0;
#X connect 10 0 0 1;
#X connect 10 0 70 0;
#X connect 11 0 18 0;
#X connect 12 0 19 0;
#X connect 13 0 20 0;
#X connect 14 0 21 0;
#X connect 15 0 22 0;
#X connect 16 0 23 0;
#X connect 17 0 1 1;
#X connect 17 0 71 0;
#X connect 18 0 2 1;
#X connect 18 0 72 0;
#X connect 19 0 3 1;
#X connect 19 0 73 0;
#X connect 20 0 4 1;
#X connect 20 0 75 0;
#X connect 21 0 5 1;
#X connect 21 0 76 0;
#X connect 22 0 6 1;
#X connect 22 0 77 0;
#X connect 23 0 7 1;
#X connect 23 0 78 0;
#X connect 24 0 8 0;
#X connect 24 0 9 0;
#X connect 24 0 11 0;
#X connect 24 0 12 0;
#X connect 24 0 13 0;
#X connect 24 0 14 0;
#X connect 24 0 15 0;
#X connect 24 0 16 0;
#X connect 24 0 53 0;
#X connect 25 0 94 0;
#X connect 26 0 94 0;
#X connect 27 0 94 0;
#X connect 28 0 94 0;
#X connect 29 0 94 0;
#X connect 30 0 94 0;
#X connect 31 0 94 0;
#X connect 32 0 94 0;
#X connect 33 0 36 0;
#X connect 34 0 24 0;
#X connect 35 0 96 0;
#X connect 36 0 0 0;
#X connect 36 1 1 0;
#X connect 36 2 2 0;
#X connect 36 3 3 0;
#X connect 36 4 4 0;
#X connect 36 5 5 0;
#X connect 36 6 6 0;
#X connect 36 7 7 0;
#X connect 36 8 37 0;
#X connect 36 9 38 0;
#X connect 36 10 39 0;
#X connect 36 11 40 0;
#X connect 36 12 41 0;
#X connect 36 13 42 0;
#X connect 36 14 43 0;
#X connect 36 15 44 0;
#X connect 37 0 62 0;
#X connect 38 0 63 0;
#X connect 39 0 64 0;
#X connect 40 0 65 0;
#X connect 41 0 66 0;
#X connect 42 0 67 0;
#X connect 43 0 68 0;
#X connect 44 0 69 0;
#X connect 45 0 37 1;
#X connect 45 0 80 0;
#X connect 46 0 38 1;
#X connect 46 0 81 0;
#X connect 47 0 39 1;
#X connect 47 0 82 0;
#X connect 48 0 40 1;
#X connect 48 0 83 0;
#X connect 49 0 41 1;
#X connect 49 0 84 0;
#X connect 50 0 42 1;
#X connect 50 0 85 0;
#X connect 51 0 43 1;
#X connect 51 0 86 0;
#X connect 52 0 44 1;
#X connect 52 0 87 0;
#X connect 53 0 54 0;
#X connect 53 0 55 0;
#X connect 53 0 56 0;
#X connect 53 0 57 0;
#X connect 53 0 58 0;
#X connect 53 0 59 0;
#X connect 53 0 60 0;
#X connect 53 0 61 0;
#X connect 54 0 45 0;
#X connect 55 0 46 0;
#X connect 56 0 47 0;
#X connect 57 0 48 0;
#X connect 58 0 49 0;
#X connect 59 0 50 0;
#X connect 60 0 51 0;
#X connect 61 0 52 0;
#X connect 62 0 94 0;
#X connect 63 0 94 0;
#X connect 64 0 94 0;
#X connect 65 0 94 0;
#X connect 66 0 94 0;
#X connect 67 0 94 0;
#X connect 68 0 94 0;
#X connect 69 0 94 0;
#X connect 70 0 90 0;
#X connect 71 0 70 0;
#X connect 71 1 70 1;
#X connect 72 0 70 0;
#X connect 72 1 70 2;
#X connect 73 0 70 0;
#X connect 73 1 70 3;
#X connect 75 0 91 0;
#X connect 76 0 75 0;
#X connect 76 1 75 1;
#X connect 77 0 75 0;
#X connect 77 1 75 2;
#X connect 78 0 75 0;
#X connect 78 1 75 3;
#X connect 80 0 92 0;
#X connect 81 0 80 0;
#X connect 81 1 80 1;
#X connect 82 0 80 0;
#X connect 82 1 80 2;
#X connect 83 0 80 0;
#X connect 83 1 80 3;
#X connect 84 0 93 0;
#X connect 85 0 84 0;
#X connect 85 1 84 1;
#X connect 86 0 84 0;
#X connect 86 1 84 2;
#X connect 87 0 84 0;
#X connect 87 1 84 3;
#X connect 90 0 74 0;
#X connect 91 0 79 0;
#X connect 92 0 88 0;
#X connect 93 0 89 0;
#X connect 95 0 24 1;
#X connect 96 0 70 0;
#X connect 96 0 75 0;
#X connect 96 0 80 0;
#X connect 96 0 84 0;
#X restore 49 292 pd sequencer(HH);
#N canvas 0 30 1440 848 sequencer(BD) 0;
#X obj 54 122 spigot;
#X obj 107 143 spigot;
#X obj 158 163 spigot;
#X obj 212 187 spigot;
#X obj 267 209 spigot;
#X obj 317 232 spigot;
#X obj 369 250 spigot;
#X obj 417 268 spigot;
#X obj 531 99 sel 60;
#X obj 569 125 sel 62;
#X obj 497 104 tgl 15 0 empty empty empty 17 7 0 10 -262144 -1 -1 0
1;
#X obj 609 145 sel 64;
#X obj 649 166 sel 65;
#X obj 689 186 sel 67;
#X obj 729 208 sel 69;
#X obj 769 231 sel 71;
#X obj 810 253 sel 72;
#X obj 532 126 tgl 15 0 empty empty empty 17 7 0 10 -262144 -1 -1 0
1;
#X obj 571 146 tgl 15 0 empty empty empty 17 7 0 10 -262144 -1 -1 0
1;
#X obj 610 166 tgl 15 0 empty empty empty 17 7 0 10 -262144 -1 -1 0
1;
#X obj 649 188 tgl 15 0 empty empty empty 17 7 0 10 -262144 -1 -1 0
1;
#X obj 691 208 tgl 15 0 empty empty empty 17 7 0 10 -262144 -1 -1 0
1;
#X obj 730 231 tgl 15 0 empty empty empty 17 7 0 10 -262144 -1 -1 0
1;
#X obj 769 252 tgl 15 0 empty empty empty 17 7 0 10 -262144 -1 -1 0
1;
#X obj 943 79 spigot;
#X obj 44 649 bng 15 250 50 0 empty empty empty 17 7 0 10 -262144 -1
-1;
#X obj 97 648 bng 15 250 50 0 empty empty empty 17 7 0 10 -262144 -1
-1;
#X obj 150 650 bng 15 250 50 0 empty empty empty 17 7 0 10 -262144
-1 -1;
#X obj 206 647 bng 15 250 50 0 empty empty empty 17 7 0 10 -262144
-1 -1;
#X obj 259 647 bng 15 250 50 0 empty empty empty 17 7 0 10 -262144
-1 -1;
#X obj 310 647 bng 15 250 50 0 empty empty empty 17 7 0 10 -262144
-1 -1;
#X obj 361 648 bng 15 250 50 0 empty empty empty 17 7 0 10 -262144
-1 -1;
#X obj 416 648 bng 15 250 50 0 empty empty empty 17 7 0 10 -262144
-1 -1;
#X obj 56 28 inlet;
#X obj 937 58 r steps;
#X obj 1345 82 r seq-nmb;
#X obj 55 80 sel 0 1 2 3 4 5 6 7 8 9 10 11 12 13 14 15, f 62;
#X obj 56 286 spigot;
#X obj 106 302 spigot;
#X obj 157 322 spigot;
#X obj 211 346 spigot;
#X obj 266 368 spigot;
#X obj 316 391 spigot;
#X obj 368 409 spigot;
#X obj 418 435 spigot;
#X obj 643 277 tgl 15 0 empty empty empty 17 7 0 10 -262144 -1 -1 0
1;
#X obj 663 297 tgl 15 0 empty empty empty 17 7 0 10 -262144 -1 -1 0
1;
#X obj 702 317 tgl 15 0 empty empty empty 17 7 0 10 -262144 -1 -1 0
1;
#X obj 741 337 tgl 15 0 empty empty empty 17 7 0 10 -262144 -1 -1 0
1;
#X obj 780 359 tgl 15 0 empty empty empty 17 7 0 10 -262144 -1 -1 0
1;
#X obj 822 379 tgl 15 0 empty empty empty 17 7 0 10 -262144 -1 -1 0
1;
#X obj 861 402 tgl 15 0 empty empty empty 17 7 0 10 -262144 -1 -1 0
1;
#X obj 900 423 tgl 15 0 empty empty empty 17 7 0 10 -262144 -1 -1 0
1;
#X floatatom 937 263 5 0 0 0 - - -, f 5;
#X obj 661 276 sel 84;
#X obj 700 296 sel 86;
#X obj 740 316 sel 88;
#X obj 780 337 sel 89;
#X obj 820 357 sel 91;
#X obj 860 379 sel 93;
#X obj 900 402 sel 95;
#X obj 941 424 sel 96;
#X obj 469 650 bng 15 250 50 0 empty empty empty 17 7 0 10 -262144
-1 -1;
#X obj 522 649 bng 15 250 50 0 empty empty empty 17 7 0 10 -262144
-1 -1;
#X obj 575 651 bng 15 250 50 0 empty empty empty 17 7 0 10 -262144
-1 -1;
#X obj 628 650 bng 15 250 50 0 empty empty empty 17 7 0 10 -262144
-1 -1;
#X obj 684 648 bng 15 250 50 0 empty empty empty 17 7 0 10 -262144
-1 -1;
#X obj 735 648 bng 15 250 50 0 empty empty empty 17 7 0 10 -262144
-1 -1;
#X obj 786 649 bng 15 250 50 0 empty empty empty 17 7 0 10 -262144
-1 -1;
#X obj 841 649 bng 15 250 50 0 empty empty empty 17 7 0 10 -262144
-1 -1;
#X obj 1077 161 pack 0 0 0 0;
#X obj 1047 94 t b f;
#X obj 1087 111 t b f;
#X obj 1128 129 t b f;
#X obj 1180 162 s screenLine2;
#X obj 1014 244 pack 0 0 0 0;
#X obj 984 177 t b f;
#X obj 1024 194 t b f;
#X obj 1065 212 t b f;
#X obj 1115 241 s screenLine3;
#X obj 1079 341 pack 0 0 0 0;
#X obj 1049 274 t b f;
#X obj 1089 291 t b f;
#X obj 1130 309 t b f;
#X obj 1016 424 pack 0 0 0 0;
#X obj 986 357 t b f;
#X obj 1026 374 t b f;
#X obj 1067 392 t b f;
#X obj 1182 342 s screenLine4;
#X obj 1117 421 s screenLine5;
#X msg 1179 139 \$1___\$2___\$3___\$4;
#X msg 1114 218 \$1___\$2___\$3___\$4;
#X msg 1181 319 \$1___\$2___\$3___\$4;
#X msg 1116 398 \$1___\$2___\$3___\$4;
#X obj 1347 110 sel 0;
#X obj 43 697 s bd;
#X obj 993 59 r selBD;
#X connect 0 0 25 0;
#X connect 1 0 26 0;
#X connect 2 0 27 0;
#X connect 3 0 28 0;
#X connect 4 0 29 0;
#X connect 5 0 30 0;
#X connect 6 0 31 0;
#X connect 7 0 32 0;
#X connect 8 0 10 0;
#X connect 9 0 17 0;
#X connect 10 0 0 1;
#X connect 10 0 70 0;
#X connect 11 0 18 0;
#X connect 12 0 19 0;
#X connect 13 0 20 0;
#X connect 14 0 21 0;
#X connect 15 0 22 0;
#X connect 16 0 23 0;
#X connect 17 0 1 1;
#X connect 17 0 71 0;
#X connect 18 0 2 1;
#X connect 18 0 72 0;
#X connect 19 0 3 1;
#X connect 19 0 73 0;
#X connect 20 0 4 1;
#X connect 20 0 75 0;
#X connect 21 0 5 1;
#X connect 21 0 76 0;
#X connect 22 0 6 1;
#X connect 22 0 77 0;
#X connect 23 0 7 1;
#X connect 23 0 78 0;
#X connect 24 0 8 0;
#X connect 24 0 9 0;
#X connect 24 0 11 0;
#X connect 24 0 12 0;
#X connect 24 0 13 0;
#X connect 24 0 14 0;
#X connect 24 0 15 0;
#X connect 24 0 16 0;
#X connect 24 0 53 0;
#X connect 25 0 95 0;
#X connect 26 0 95 0;
#X connect 27 0 95 0;
#X connect 28 0 95 0;
#X connect 29 0 95 0;
#X connect 30 0 95 0;
#X connect 31 0 95 0;
#X connect 32 0 95 0;
#X connect 33 0 36 0;
#X connect 34 0 24 0;
#X connect 35 0 94 0;
#X connect 36 0 0 0;
#X connect 36 1 1 0;
#X connect 36 2 2 0;
#X connect 36 3 3 0;
#X connect 36 4 4 0;
#X connect 36 5 5 0;
#X connect 36 6 6 0;
#X connect 36 7 7 0;
#X connect 36 8 37 0;
#X connect 36 9 38 0;
#X connect 36 10 39 0;
#X connect 36 11 40 0;
#X connect 36 12 41 0;
#X connect 36 13 42 0;
#X connect 36 14 43 0;
#X connect 36 15 44 0;
#X connect 37 0 62 0;
#X connect 38 0 63 0;
#X connect 39 0 64 0;
#X connect 40 0 65 0;
#X connect 41 0 66 0;
#X connect 42 0 67 0;
#X connect 43 0 68 0;
#X connect 44 0 69 0;
#X connect 45 0 37 1;
#X connect 45 0 80 0;
#X connect 46 0 38 1;
#X connect 46 0 81 0;
#X connect 47 0 39 1;
#X connect 47 0 82 0;
#X connect 48 0 40 1;
#X connect 48 0 83 0;
#X connect 49 0 41 1;
#X connect 49 0 84 0;
#X connect 50 0 42 1;
#X connect 50 0 85 0;
#X connect 51 0 43 1;
#X connect 51 0 86 0;
#X connect 52 0 44 1;
#X connect 52 0 87 0;
#X connect 53 0 54 0;
#X connect 53 0 55 0;
#X connect 53 0 56 0;
#X connect 53 0 57 0;
#X connect 53 0 58 0;
#X connect 53 0 59 0;
#X connect 53 0 60 0;
#X connect 53 0 61 0;
#X connect 54 0 45 0;
#X connect 55 0 46 0;
#X connect 56 0 47 0;
#X connect 57 0 48 0;
#X connect 58 0 49 0;
#X connect 59 0 50 0;
#X connect 60 0 51 0;
#X connect 61 0 52 0;
#X connect 62 0 95 0;
#X connect 63 0 95 0;
#X connect 64 0 95 0;
#X connect 65 0 95 0;
#X connect 66 0 95 0;
#X connect 67 0 95 0;
#X connect 68 0 95 0;
#X connect 69 0 95 0;
#X connect 70 0 90 0;
#X connect 71 0 70 0;
#X connect 71 1 70 1;
#X connect 72 0 70 0;
#X connect 72 1 70 2;
#X connect 73 0 70 0;
#X connect 73 1 70 3;
#X connect 75 0 91 0;
#X connect 76 0 75 0;
#X connect 76 1 75 1;
#X connect 77 0 75 0;
#X connect 77 1 75 2;
#X connect 78 0 75 0;
#X connect 78 1 75 3;
#X connect 80 0 92 0;
#X connect 81 0 80 0;
#X connect 81 1 80 1;
#X connect 82 0 80 0;
#X connect 82 1 80 2;
#X connect 83 0 80 0;
#X connect 83 1 80 3;
#X connect 84 0 93 0;
#X connect 85 0 84 0;
#X connect 85 1 84 1;
#X connect 86 0 84 0;
#X connect 86 1 84 2;
#X connect 87 0 84 0;
#X connect 87 1 84 3;
#X connect 90 0 74 0;
#X connect 91 0 79 0;
#X connect 92 0 88 0;
#X connect 93 0 89 0;
#X connect 94 0 70 0;
#X connect 94 0 75 0;
#X connect 94 0 80 0;
#X connect 94 0 84 0;
#X connect 96 0 24 1;
#X restore 200 273 pd sequencer(BD);
#X obj 199 207 % 16;
#X obj 1044 557 sel 1;
#X obj 1044 536 sel 0;
#X obj 1099 29 r knob3;
#X obj 1100 50 * 1.9999;
#X obj 1098 73 i;
#X obj 1212 98 moses 60;
#X obj 1212 121 moses 73;
#X obj 920 519 r seq-nmb;
#X obj 1330 738 s screenLine1;
#X obj 668 96 r knob2;
#X obj 391 24 r knob1;
#X obj 68 20 r aux;
#X obj 68 41 sel 1;
#X obj 97 63 + 1;
#X obj 64 109 sel 0;
#X obj 114 109 sel 1;
#X obj 68 63 i 0;
#X obj 65 86 % 2;
#X obj 3 20 loadbang;
#X msg 32 41 0;
#X obj 159 136 s led;
#X obj 1061 736 sel 0;
#X obj 1002 61 s editmode;
#X msg 1097 537 EDIT Bass Drum;
#X msg 1115 738 EDIT Steps 1-8;
#X obj 1062 762 sel 1;
#X msg 1116 764 EDIT Steps 9-16;
#X obj 948 731 r editmode;
#X obj 438 154 s bpm;
#X obj 439 132 i;
#X obj 1006 805 r bpm;
#X msg 1118 802 BPM: \$1;
#X obj 1215 69 spigot;
#X floatatom 1158 241 5 0 0 0 - - -, f 5;
#X obj 1055 104 == 0;
#X obj 1099 104 == 1;
#X obj 1229 189 + 24;
#X obj 1168 160 spigot;
#X obj 1226 160 spigot;
#X obj 517 138 timer;
#X obj 545 40 midirealtimein;
#X obj 535 69 sel 248;
#X obj 534 96 t b b;
#X obj 502 179 expr 2500 / $f1;
#X obj 63 206 / 24;
#X msg 16 226 248;
#X obj 44 255 midiout;
#X msg 143 207 250;
#X msg 108 207 252;
#X obj 14 205 metro;
#X obj 63 184 r bpm2;
#X floatatom 382 124 5 0 0 0 - - -, f 5;
#X obj 278 133 s bpm2;
#N canvas 0 23 1440 848 sequencer(OH) 0;
#X obj 54 122 spigot;
#X obj 107 143 spigot;
#X obj 158 163 spigot;
#X obj 212 187 spigot;
#X obj 267 209 spigot;
#X obj 317 232 spigot;
#X obj 369 250 spigot;
#X obj 417 268 spigot;
#X obj 530 105 sel 60;
#X obj 569 125 sel 62;
#X obj 497 104 tgl 15 0 empty empty empty 17 7 0 10 -262144 -1 -1 0
1;
#X obj 609 145 sel 64;
#X obj 649 166 sel 65;
#X obj 689 186 sel 67;
#X obj 729 208 sel 69;
#X obj 769 231 sel 71;
#X obj 810 253 sel 72;
#X obj 532 126 tgl 15 0 empty empty empty 17 7 0 10 -262144 -1 -1 0
1;
#X obj 571 146 tgl 15 0 empty empty empty 17 7 0 10 -262144 -1 -1 0
1;
#X obj 610 166 tgl 15 0 empty empty empty 17 7 0 10 -262144 -1 -1 0
1;
#X obj 649 188 tgl 15 0 empty empty empty 17 7 0 10 -262144 -1 -1 0
1;
#X obj 691 208 tgl 15 0 empty empty empty 17 7 0 10 -262144 -1 -1 0
1;
#X obj 730 231 tgl 15 0 empty empty empty 17 7 0 10 -262144 -1 -1 0
1;
#X obj 769 252 tgl 15 0 empty empty empty 17 7 0 10 -262144 -1 -1 0
1;
#X obj 943 79 spigot;
#X obj 44 649 bng 15 250 50 0 empty empty empty 17 7 0 10 -262144 -1
-1;
#X obj 97 648 bng 15 250 50 0 empty empty empty 17 7 0 10 -262144 -1
-1;
#X obj 150 650 bng 15 250 50 0 empty empty empty 17 7 0 10 -262144
-1 -1;
#X obj 206 647 bng 15 250 50 0 empty empty empty 17 7 0 10 -262144
-1 -1;
#X obj 259 647 bng 15 250 50 0 empty empty empty 17 7 0 10 -262144
-1 -1;
#X obj 310 647 bng 15 250 50 0 empty empty empty 17 7 0 10 -262144
-1 -1;
#X obj 361 648 bng 15 250 50 0 empty empty empty 17 7 0 10 -262144
-1 -1;
#X obj 416 648 bng 15 250 50 0 empty empty empty 17 7 0 10 -262144
-1 -1;
#X obj 56 28 inlet;
#X obj 937 58 r steps;
#X obj 1345 82 r seq-nmb;
#X obj 55 80 sel 0 1 2 3 4 5 6 7 8 9 10 11 12 13 14 15, f 62;
#X obj 56 286 spigot;
#X obj 106 302 spigot;
#X obj 157 322 spigot;
#X obj 211 346 spigot;
#X obj 266 368 spigot;
#X obj 316 391 spigot;
#X obj 368 409 spigot;
#X obj 418 435 spigot;
#X obj 643 277 tgl 15 0 empty empty empty 17 7 0 10 -262144 -1 -1 0
1;
#X obj 663 297 tgl 15 0 empty empty empty 17 7 0 10 -262144 -1 -1 0
1;
#X obj 702 317 tgl 15 0 empty empty empty 17 7 0 10 -262144 -1 -1 0
1;
#X obj 741 337 tgl 15 0 empty empty empty 17 7 0 10 -262144 -1 -1 0
1;
#X obj 780 359 tgl 15 0 empty empty empty 17 7 0 10 -262144 -1 -1 0
1;
#X obj 822 379 tgl 15 0 empty empty empty 17 7 0 10 -262144 -1 -1 0
1;
#X obj 861 402 tgl 15 0 empty empty empty 17 7 0 10 -262144 -1 -1 0
1;
#X obj 900 423 tgl 15 0 empty empty empty 17 7 0 10 -262144 -1 -1 0
1;
#X floatatom 937 263 5 0 0 0 - - -, f 5;
#X obj 661 276 sel 84;
#X obj 700 296 sel 86;
#X obj 740 316 sel 88;
#X obj 780 337 sel 89;
#X obj 820 357 sel 91;
#X obj 860 379 sel 93;
#X obj 900 402 sel 95;
#X obj 941 424 sel 96;
#X obj 469 650 bng 15 250 50 0 empty empty empty 17 7 0 10 -262144
-1 -1;
#X obj 522 649 bng 15 250 50 0 empty empty empty 17 7 0 10 -262144
-1 -1;
#X obj 575 651 bng 15 250 50 0 empty empty empty 17 7 0 10 -262144
-1 -1;
#X obj 628 650 bng 15 250 50 0 empty empty empty 17 7 0 10 -262144
-1 -1;
#X obj 684 648 bng 15 250 50 0 empty empty empty 17 7 0 10 -262144
-1 -1;
#X obj 735 648 bng 15 250 50 0 empty empty empty 17 7 0 10 -262144
-1 -1;
#X obj 786 649 bng 15 250 50 0 empty empty empty 17 7 0 10 -262144
-1 -1;
#X obj 841 649 bng 15 250 50 0 empty empty empty 17 7 0 10 -262144
-1 -1;
#X obj 1077 161 pack 0 0 0 0;
#X obj 1047 94 t b f;
#X obj 1087 111 t b f;
#X obj 1128 129 t b f;
#X obj 1180 162 s screenLine2;
#X obj 1014 244 pack 0 0 0 0;
#X obj 984 177 t b f;
#X obj 1024 194 t b f;
#X obj 1065 212 t b f;
#X obj 1115 241 s screenLine3;
#X obj 1079 341 pack 0 0 0 0;
#X obj 1049 274 t b f;
#X obj 1089 291 t b f;
#X obj 1130 309 t b f;
#X obj 1016 424 pack 0 0 0 0;
#X obj 986 357 t b f;
#X obj 1026 374 t b f;
#X obj 1067 392 t b f;
#X obj 1182 342 s screenLine4;
#X obj 1117 421 s screenLine5;
#X msg 1179 139 \$1___\$2___\$3___\$4;
#X msg 1114 218 \$1___\$2___\$3___\$4;
#X msg 1181 319 \$1___\$2___\$3___\$4;
#X msg 1116 398 \$1___\$2___\$3___\$4;
#X obj 993 59 r selOH;
#X obj 43 697 s oh;
#X obj 1347 110 sel 5;
#X connect 0 0 25 0;
#X connect 1 0 26 0;
#X connect 2 0 27 0;
#X connect 3 0 28 0;
#X connect 4 0 29 0;
#X connect 5 0 30 0;
#X connect 6 0 31 0;
#X connect 7 0 32 0;
#X connect 8 0 10 0;
#X connect 9 0 17 0;
#X connect 10 0 0 1;
#X connect 10 0 70 0;
#X connect 11 0 18 0;
#X connect 12 0 19 0;
#X connect 13 0 20 0;
#X connect 14 0 21 0;
#X connect 15 0 22 0;
#X connect 16 0 23 0;
#X connect 17 0 1 1;
#X connect 17 0 71 0;
#X connect 18 0 2 1;
#X connect 18 0 72 0;
#X connect 19 0 3 1;
#X connect 19 0 73 0;
#X connect 20 0 4 1;
#X connect 20 0 75 0;
#X connect 21 0 5 1;
#X connect 21 0 76 0;
#X connect 22 0 6 1;
#X connect 22 0 77 0;
#X connect 23 0 7 1;
#X connect 23 0 78 0;
#X connect 24 0 8 0;
#X connect 24 0 9 0;
#X connect 24 0 11 0;
#X connect 24 0 12 0;
#X connect 24 0 13 0;
#X connect 24 0 14 0;
#X connect 24 0 15 0;
#X connect 24 0 16 0;
#X connect 24 0 53 0;
#X connect 25 0 95 0;
#X connect 26 0 95 0;
#X connect 27 0 95 0;
#X connect 28 0 95 0;
#X connect 29 0 95 0;
#X connect 30 0 95 0;
#X connect 31 0 95 0;
#X connect 32 0 95 0;
#X connect 33 0 36 0;
#X connect 34 0 24 0;
#X connect 35 0 96 0;
#X connect 36 0 0 0;
#X connect 36 1 1 0;
#X connect 36 2 2 0;
#X connect 36 3 3 0;
#X connect 36 4 4 0;
#X connect 36 5 5 0;
#X connect 36 6 6 0;
#X connect 36 7 7 0;
#X connect 36 8 37 0;
#X connect 36 9 38 0;
#X connect 36 10 39 0;
#X connect 36 11 40 0;
#X connect 36 12 41 0;
#X connect 36 13 42 0;
#X connect 36 14 43 0;
#X connect 36 15 44 0;
#X connect 37 0 62 0;
#X connect 38 0 63 0;
#X connect 39 0 64 0;
#X connect 40 0 65 0;
#X connect 41 0 66 0;
#X connect 42 0 67 0;
#X connect 43 0 68 0;
#X connect 44 0 69 0;
#X connect 45 0 37 1;
#X connect 45 0 80 0;
#X connect 46 0 38 1;
#X connect 46 0 81 0;
#X connect 47 0 39 1;
#X connect 47 0 82 0;
#X connect 48 0 40 1;
#X connect 48 0 83 0;
#X connect 49 0 41 1;
#X connect 49 0 84 0;
#X connect 50 0 42 1;
#X connect 50 0 85 0;
#X connect 51 0 43 1;
#X connect 51 0 86 0;
#X connect 52 0 44 1;
#X connect 52 0 87 0;
#X connect 53 0 54 0;
#X connect 53 0 55 0;
#X connect 53 0 56 0;
#X connect 53 0 57 0;
#X connect 53 0 58 0;
#X connect 53 0 59 0;
#X connect 53 0 60 0;
#X connect 53 0 61 0;
#X connect 54 0 45 0;
#X connect 55 0 46 0;
#X connect 56 0 47 0;
#X connect 57 0 48 0;
#X connect 58 0 49 0;
#X connect 59 0 50 0;
#X connect 60 0 51 0;
#X connect 61 0 52 0;
#X connect 62 0 95 0;
#X connect 63 0 95 0;
#X connect 64 0 95 0;
#X connect 65 0 95 0;
#X connect 66 0 95 0;
#X connect 67 0 95 0;
#X connect 68 0 95 0;
#X connect 69 0 95 0;
#X connect 70 0 90 0;
#X connect 71 0 70 0;
#X connect 71 1 70 1;
#X connect 72 0 70 0;
#X connect 72 1 70 2;
#X connect 73 0 70 0;
#X connect 73 1 70 3;
#X connect 75 0 91 0;
#X connect 76 0 75 0;
#X connect 76 1 75 1;
#X connect 77 0 75 0;
#X connect 77 1 75 2;
#X connect 78 0 75 0;
#X connect 78 1 75 3;
#X connect 80 0 92 0;
#X connect 81 0 80 0;
#X connect 81 1 80 1;
#X connect 82 0 80 0;
#X connect 82 1 80 2;
#X connect 83 0 80 0;
#X connect 83 1 80 3;
#X connect 84 0 93 0;
#X connect 85 0 84 0;
#X connect 85 1 84 1;
#X connect 86 0 84 0;
#X connect 86 1 84 2;
#X connect 87 0 84 0;
#X connect 87 1 84 3;
#X connect 90 0 74 0;
#X connect 91 0 79 0;
#X connect 92 0 88 0;
#X connect 93 0 89 0;
#X connect 94 0 24 1;
#X connect 96 0 70 0;
#X connect 96 0 75 0;
#X connect 96 0 80 0;
#X connect 96 0 84 0;
#X restore 14 313 pd sequencer(OH);
#N canvas 0 23 1440 848 sequencer(CL) 0;
#X obj 54 122 spigot;
#X obj 107 143 spigot;
#X obj 158 163 spigot;
#X obj 212 187 spigot;
#X obj 267 209 spigot;
#X obj 317 232 spigot;
#X obj 369 250 spigot;
#X obj 417 268 spigot;
#X obj 530 105 sel 60;
#X obj 569 125 sel 62;
#X obj 497 104 tgl 15 0 empty empty empty 17 7 0 10 -262144 -1 -1 0
1;
#X obj 609 145 sel 64;
#X obj 649 166 sel 65;
#X obj 689 186 sel 67;
#X obj 729 208 sel 69;
#X obj 769 231 sel 71;
#X obj 810 253 sel 72;
#X obj 532 126 tgl 15 0 empty empty empty 17 7 0 10 -262144 -1 -1 0
1;
#X obj 571 146 tgl 15 0 empty empty empty 17 7 0 10 -262144 -1 -1 0
1;
#X obj 610 166 tgl 15 0 empty empty empty 17 7 0 10 -262144 -1 -1 0
1;
#X obj 649 188 tgl 15 0 empty empty empty 17 7 0 10 -262144 -1 -1 0
1;
#X obj 691 208 tgl 15 0 empty empty empty 17 7 0 10 -262144 -1 -1 0
1;
#X obj 730 231 tgl 15 0 empty empty empty 17 7 0 10 -262144 -1 -1 0
1;
#X obj 769 252 tgl 15 0 empty empty empty 17 7 0 10 -262144 -1 -1 0
1;
#X obj 943 79 spigot;
#X obj 44 649 bng 15 250 50 0 empty empty empty 17 7 0 10 -262144 -1
-1;
#X obj 97 648 bng 15 250 50 0 empty empty empty 17 7 0 10 -262144 -1
-1;
#X obj 150 650 bng 15 250 50 0 empty empty empty 17 7 0 10 -262144
-1 -1;
#X obj 206 647 bng 15 250 50 0 empty empty empty 17 7 0 10 -262144
-1 -1;
#X obj 259 647 bng 15 250 50 0 empty empty empty 17 7 0 10 -262144
-1 -1;
#X obj 310 647 bng 15 250 50 0 empty empty empty 17 7 0 10 -262144
-1 -1;
#X obj 361 648 bng 15 250 50 0 empty empty empty 17 7 0 10 -262144
-1 -1;
#X obj 416 648 bng 15 250 50 0 empty empty empty 17 7 0 10 -262144
-1 -1;
#X obj 56 28 inlet;
#X obj 937 58 r steps;
#X obj 1345 82 r seq-nmb;
#X obj 55 80 sel 0 1 2 3 4 5 6 7 8 9 10 11 12 13 14 15, f 62;
#X obj 56 286 spigot;
#X obj 106 302 spigot;
#X obj 157 322 spigot;
#X obj 211 346 spigot;
#X obj 266 368 spigot;
#X obj 316 391 spigot;
#X obj 368 409 spigot;
#X obj 418 435 spigot;
#X obj 643 277 tgl 15 0 empty empty empty 17 7 0 10 -262144 -1 -1 0
1;
#X obj 663 297 tgl 15 0 empty empty empty 17 7 0 10 -262144 -1 -1 0
1;
#X obj 702 317 tgl 15 0 empty empty empty 17 7 0 10 -262144 -1 -1 0
1;
#X obj 741 337 tgl 15 0 empty empty empty 17 7 0 10 -262144 -1 -1 0
1;
#X obj 780 359 tgl 15 0 empty empty empty 17 7 0 10 -262144 -1 -1 0
1;
#X obj 822 379 tgl 15 0 empty empty empty 17 7 0 10 -262144 -1 -1 0
1;
#X obj 861 402 tgl 15 0 empty empty empty 17 7 0 10 -262144 -1 -1 0
1;
#X obj 900 423 tgl 15 0 empty empty empty 17 7 0 10 -262144 -1 -1 0
1;
#X floatatom 937 263 5 0 0 0 - - -, f 5;
#X obj 661 276 sel 84;
#X obj 700 296 sel 86;
#X obj 740 316 sel 88;
#X obj 780 337 sel 89;
#X obj 820 357 sel 91;
#X obj 860 379 sel 93;
#X obj 900 402 sel 95;
#X obj 941 424 sel 96;
#X obj 469 650 bng 15 250 50 0 empty empty empty 17 7 0 10 -262144
-1 -1;
#X obj 522 649 bng 15 250 50 0 empty empty empty 17 7 0 10 -262144
-1 -1;
#X obj 575 651 bng 15 250 50 0 empty empty empty 17 7 0 10 -262144
-1 -1;
#X obj 628 650 bng 15 250 50 0 empty empty empty 17 7 0 10 -262144
-1 -1;
#X obj 684 648 bng 15 250 50 0 empty empty empty 17 7 0 10 -262144
-1 -1;
#X obj 735 648 bng 15 250 50 0 empty empty empty 17 7 0 10 -262144
-1 -1;
#X obj 786 649 bng 15 250 50 0 empty empty empty 17 7 0 10 -262144
-1 -1;
#X obj 841 649 bng 15 250 50 0 empty empty empty 17 7 0 10 -262144
-1 -1;
#X obj 1077 161 pack 0 0 0 0;
#X obj 1047 94 t b f;
#X obj 1087 111 t b f;
#X obj 1128 129 t b f;
#X obj 1180 162 s screenLine2;
#X obj 1014 244 pack 0 0 0 0;
#X obj 984 177 t b f;
#X obj 1024 194 t b f;
#X obj 1065 212 t b f;
#X obj 1115 241 s screenLine3;
#X obj 1079 341 pack 0 0 0 0;
#X obj 1049 274 t b f;
#X obj 1089 291 t b f;
#X obj 1130 309 t b f;
#X obj 1016 424 pack 0 0 0 0;
#X obj 986 357 t b f;
#X obj 1026 374 t b f;
#X obj 1067 392 t b f;
#X obj 1182 342 s screenLine4;
#X obj 1117 421 s screenLine5;
#X msg 1179 139 \$1___\$2___\$3___\$4;
#X msg 1114 218 \$1___\$2___\$3___\$4;
#X msg 1181 319 \$1___\$2___\$3___\$4;
#X msg 1116 398 \$1___\$2___\$3___\$4;
#X obj 993 59 r selCL;
#X obj 43 697 s cl;
#X obj 1347 111 sel 6;
#X connect 0 0 25 0;
#X connect 1 0 26 0;
#X connect 2 0 27 0;
#X connect 3 0 28 0;
#X connect 4 0 29 0;
#X connect 5 0 30 0;
#X connect 6 0 31 0;
#X connect 7 0 32 0;
#X connect 8 0 10 0;
#X connect 9 0 17 0;
#X connect 10 0 0 1;
#X connect 10 0 70 0;
#X connect 11 0 18 0;
#X connect 12 0 19 0;
#X connect 13 0 20 0;
#X connect 14 0 21 0;
#X connect 15 0 22 0;
#X connect 16 0 23 0;
#X connect 17 0 1 1;
#X connect 17 0 71 0;
#X connect 18 0 2 1;
#X connect 18 0 72 0;
#X connect 19 0 3 1;
#X connect 19 0 73 0;
#X connect 20 0 4 1;
#X connect 20 0 75 0;
#X connect 21 0 5 1;
#X connect 21 0 76 0;
#X connect 22 0 6 1;
#X connect 22 0 77 0;
#X connect 23 0 7 1;
#X connect 23 0 78 0;
#X connect 24 0 8 0;
#X connect 24 0 9 0;
#X connect 24 0 11 0;
#X connect 24 0 12 0;
#X connect 24 0 13 0;
#X connect 24 0 14 0;
#X connect 24 0 15 0;
#X connect 24 0 16 0;
#X connect 24 0 53 0;
#X connect 25 0 95 0;
#X connect 26 0 95 0;
#X connect 27 0 95 0;
#X connect 28 0 95 0;
#X connect 29 0 95 0;
#X connect 30 0 95 0;
#X connect 31 0 95 0;
#X connect 32 0 95 0;
#X connect 33 0 36 0;
#X connect 34 0 24 0;
#X connect 35 0 96 0;
#X connect 36 0 0 0;
#X connect 36 1 1 0;
#X connect 36 2 2 0;
#X connect 36 3 3 0;
#X connect 36 4 4 0;
#X connect 36 5 5 0;
#X connect 36 6 6 0;
#X connect 36 7 7 0;
#X connect 36 8 37 0;
#X connect 36 9 38 0;
#X connect 36 10 39 0;
#X connect 36 11 40 0;
#X connect 36 12 41 0;
#X connect 36 13 42 0;
#X connect 36 14 43 0;
#X connect 36 15 44 0;
#X connect 37 0 62 0;
#X connect 38 0 63 0;
#X connect 39 0 64 0;
#X connect 40 0 65 0;
#X connect 41 0 66 0;
#X connect 42 0 67 0;
#X connect 43 0 68 0;
#X connect 44 0 69 0;
#X connect 45 0 37 1;
#X connect 45 0 80 0;
#X connect 46 0 38 1;
#X connect 46 0 81 0;
#X connect 47 0 39 1;
#X connect 47 0 82 0;
#X connect 48 0 40 1;
#X connect 48 0 83 0;
#X connect 49 0 41 1;
#X connect 49 0 84 0;
#X connect 50 0 42 1;
#X connect 50 0 85 0;
#X connect 51 0 43 1;
#X connect 51 0 86 0;
#X connect 52 0 44 1;
#X connect 52 0 87 0;
#X connect 53 0 54 0;
#X connect 53 0 55 0;
#X connect 53 0 56 0;
#X connect 53 0 57 0;
#X connect 53 0 58 0;
#X connect 53 0 59 0;
#X connect 53 0 60 0;
#X connect 53 0 61 0;
#X connect 54 0 45 0;
#X connect 55 0 46 0;
#X connect 56 0 47 0;
#X connect 57 0 48 0;
#X connect 58 0 49 0;
#X connect 59 0 50 0;
#X connect 60 0 51 0;
#X connect 61 0 52 0;
#X connect 62 0 95 0;
#X connect 63 0 95 0;
#X connect 64 0 95 0;
#X connect 65 0 95 0;
#X connect 66 0 95 0;
#X connect 67 0 95 0;
#X connect 68 0 95 0;
#X connect 69 0 95 0;
#X connect 70 0 90 0;
#X connect 71 0 70 0;
#X connect 71 1 70 1;
#X connect 72 0 70 0;
#X connect 72 1 70 2;
#X connect 73 0 70 0;
#X connect 73 1 70 3;
#X connect 75 0 91 0;
#X connect 76 0 75 0;
#X connect 76 1 75 1;
#X connect 77 0 75 0;
#X connect 77 1 75 2;
#X connect 78 0 75 0;
#X connect 78 1 75 3;
#X connect 80 0 92 0;
#X connect 81 0 80 0;
#X connect 81 1 80 1;
#X connect 82 0 80 0;
#X connect 82 1 80 2;
#X connect 83 0 80 0;
#X connect 83 1 80 3;
#X connect 84 0 93 0;
#X connect 85 0 84 0;
#X connect 85 1 84 1;
#X connect 86 0 84 0;
#X connect 86 1 84 2;
#X connect 87 0 84 0;
#X connect 87 1 84 3;
#X connect 90 0 74 0;
#X connect 91 0 79 0;
#X connect 92 0 88 0;
#X connect 93 0 89 0;
#X connect 94 0 24 1;
#X connect 96 0 70 0;
#X connect 96 0 75 0;
#X connect 96 0 80 0;
#X connect 96 0 84 0;
#X restore 325 273 pd sequencer(CL);
#X obj 750 190 == 2;
#X obj 964 231 s selCL;
#X obj 907 232 s selOH;
#X obj 1044 577 sel 2;
#X msg 1096 616 EDIT Closed HiHat;
#N canvas 0 23 1440 848 sequencer(SD2) 0;
#X obj 54 122 spigot;
#X obj 107 143 spigot;
#X obj 158 163 spigot;
#X obj 212 187 spigot;
#X obj 267 209 spigot;
#X obj 317 232 spigot;
#X obj 369 250 spigot;
#X obj 417 268 spigot;
#X obj 530 105 sel 60;
#X obj 569 125 sel 62;
#X obj 497 104 tgl 15 0 empty empty empty 17 7 0 10 -262144 -1 -1 0
1;
#X obj 609 145 sel 64;
#X obj 649 166 sel 65;
#X obj 689 186 sel 67;
#X obj 729 208 sel 69;
#X obj 769 231 sel 71;
#X obj 810 253 sel 72;
#X obj 532 126 tgl 15 0 empty empty empty 17 7 0 10 -262144 -1 -1 0
1;
#X obj 571 146 tgl 15 0 empty empty empty 17 7 0 10 -262144 -1 -1 0
1;
#X obj 610 166 tgl 15 0 empty empty empty 17 7 0 10 -262144 -1 -1 0
1;
#X obj 649 188 tgl 15 0 empty empty empty 17 7 0 10 -262144 -1 -1 0
1;
#X obj 691 208 tgl 15 0 empty empty empty 17 7 0 10 -262144 -1 -1 0
1;
#X obj 730 231 tgl 15 0 empty empty empty 17 7 0 10 -262144 -1 -1 0
1;
#X obj 769 252 tgl 15 0 empty empty empty 17 7 0 10 -262144 -1 -1 0
1;
#X obj 943 79 spigot;
#X obj 44 649 bng 15 250 50 0 empty empty empty 17 7 0 10 -262144 -1
-1;
#X obj 97 648 bng 15 250 50 0 empty empty empty 17 7 0 10 -262144 -1
-1;
#X obj 150 650 bng 15 250 50 0 empty empty empty 17 7 0 10 -262144
-1 -1;
#X obj 206 647 bng 15 250 50 0 empty empty empty 17 7 0 10 -262144
-1 -1;
#X obj 259 647 bng 15 250 50 0 empty empty empty 17 7 0 10 -262144
-1 -1;
#X obj 310 647 bng 15 250 50 0 empty empty empty 17 7 0 10 -262144
-1 -1;
#X obj 361 648 bng 15 250 50 0 empty empty empty 17 7 0 10 -262144
-1 -1;
#X obj 416 648 bng 15 250 50 0 empty empty empty 17 7 0 10 -262144
-1 -1;
#X obj 56 28 inlet;
#X obj 937 58 r steps;
#X obj 1345 82 r seq-nmb;
#X obj 55 80 sel 0 1 2 3 4 5 6 7 8 9 10 11 12 13 14 15, f 62;
#X obj 56 286 spigot;
#X obj 106 302 spigot;
#X obj 157 322 spigot;
#X obj 211 346 spigot;
#X obj 266 368 spigot;
#X obj 316 391 spigot;
#X obj 368 409 spigot;
#X obj 418 435 spigot;
#X obj 643 277 tgl 15 0 empty empty empty 17 7 0 10 -262144 -1 -1 0
1;
#X obj 663 297 tgl 15 0 empty empty empty 17 7 0 10 -262144 -1 -1 0
1;
#X obj 702 317 tgl 15 0 empty empty empty 17 7 0 10 -262144 -1 -1 0
1;
#X obj 741 337 tgl 15 0 empty empty empty 17 7 0 10 -262144 -1 -1 0
1;
#X obj 780 359 tgl 15 0 empty empty empty 17 7 0 10 -262144 -1 -1 0
1;
#X obj 822 379 tgl 15 0 empty empty empty 17 7 0 10 -262144 -1 -1 0
1;
#X obj 861 402 tgl 15 0 empty empty empty 17 7 0 10 -262144 -1 -1 0
1;
#X obj 900 423 tgl 15 0 empty empty empty 17 7 0 10 -262144 -1 -1 0
1;
#X floatatom 937 263 5 0 0 0 - - -, f 5;
#X obj 661 276 sel 84;
#X obj 700 296 sel 86;
#X obj 740 316 sel 88;
#X obj 780 337 sel 89;
#X obj 820 357 sel 91;
#X obj 860 379 sel 93;
#X obj 900 402 sel 95;
#X obj 941 424 sel 96;
#X obj 469 650 bng 15 250 50 0 empty empty empty 17 7 0 10 -262144
-1 -1;
#X obj 522 649 bng 15 250 50 0 empty empty empty 17 7 0 10 -262144
-1 -1;
#X obj 575 651 bng 15 250 50 0 empty empty empty 17 7 0 10 -262144
-1 -1;
#X obj 628 650 bng 15 250 50 0 empty empty empty 17 7 0 10 -262144
-1 -1;
#X obj 684 648 bng 15 250 50 0 empty empty empty 17 7 0 10 -262144
-1 -1;
#X obj 735 648 bng 15 250 50 0 empty empty empty 17 7 0 10 -262144
-1 -1;
#X obj 786 649 bng 15 250 50 0 empty empty empty 17 7 0 10 -262144
-1 -1;
#X obj 841 649 bng 15 250 50 0 empty empty empty 17 7 0 10 -262144
-1 -1;
#X obj 1077 161 pack 0 0 0 0;
#X obj 1047 94 t b f;
#X obj 1087 111 t b f;
#X obj 1128 129 t b f;
#X obj 1180 162 s screenLine2;
#X obj 1014 244 pack 0 0 0 0;
#X obj 984 177 t b f;
#X obj 1024 194 t b f;
#X obj 1065 212 t b f;
#X obj 1115 241 s screenLine3;
#X obj 1079 341 pack 0 0 0 0;
#X obj 1049 274 t b f;
#X obj 1089 291 t b f;
#X obj 1130 309 t b f;
#X obj 1016 424 pack 0 0 0 0;
#X obj 986 357 t b f;
#X obj 1026 374 t b f;
#X obj 1067 392 t b f;
#X obj 1182 342 s screenLine4;
#X obj 1117 421 s screenLine5;
#X msg 1179 139 \$1___\$2___\$3___\$4;
#X msg 1114 218 \$1___\$2___\$3___\$4;
#X msg 1181 319 \$1___\$2___\$3___\$4;
#X msg 1116 398 \$1___\$2___\$3___\$4;
#X obj 993 59 r selSD2;
#X obj 43 697 s sd2;
#X obj 1347 110 sel 2;
#X connect 0 0 25 0;
#X connect 1 0 26 0;
#X connect 2 0 27 0;
#X connect 3 0 28 0;
#X connect 4 0 29 0;
#X connect 5 0 30 0;
#X connect 6 0 31 0;
#X connect 7 0 32 0;
#X connect 8 0 10 0;
#X connect 9 0 17 0;
#X connect 10 0 0 1;
#X connect 10 0 70 0;
#X connect 11 0 18 0;
#X connect 12 0 19 0;
#X connect 13 0 20 0;
#X connect 14 0 21 0;
#X connect 15 0 22 0;
#X connect 16 0 23 0;
#X connect 17 0 1 1;
#X connect 17 0 71 0;
#X connect 18 0 2 1;
#X connect 18 0 72 0;
#X connect 19 0 3 1;
#X connect 19 0 73 0;
#X connect 20 0 4 1;
#X connect 20 0 75 0;
#X connect 21 0 5 1;
#X connect 21 0 76 0;
#X connect 22 0 6 1;
#X connect 22 0 77 0;
#X connect 23 0 7 1;
#X connect 23 0 78 0;
#X connect 24 0 8 0;
#X connect 24 0 9 0;
#X connect 24 0 11 0;
#X connect 24 0 12 0;
#X connect 24 0 13 0;
#X connect 24 0 14 0;
#X connect 24 0 15 0;
#X connect 24 0 16 0;
#X connect 24 0 53 0;
#X connect 25 0 95 0;
#X connect 26 0 95 0;
#X connect 27 0 95 0;
#X connect 28 0 95 0;
#X connect 29 0 95 0;
#X connect 30 0 95 0;
#X connect 31 0 95 0;
#X connect 32 0 95 0;
#X connect 33 0 36 0;
#X connect 34 0 24 0;
#X connect 35 0 96 0;
#X connect 36 0 0 0;
#X connect 36 1 1 0;
#X connect 36 2 2 0;
#X connect 36 3 3 0;
#X connect 36 4 4 0;
#X connect 36 5 5 0;
#X connect 36 6 6 0;
#X connect 36 7 7 0;
#X connect 36 8 37 0;
#X connect 36 9 38 0;
#X connect 36 10 39 0;
#X connect 36 11 40 0;
#X connect 36 12 41 0;
#X connect 36 13 42 0;
#X connect 36 14 43 0;
#X connect 36 15 44 0;
#X connect 37 0 62 0;
#X connect 38 0 63 0;
#X connect 39 0 64 0;
#X connect 40 0 65 0;
#X connect 41 0 66 0;
#X connect 42 0 67 0;
#X connect 43 0 68 0;
#X connect 44 0 69 0;
#X connect 45 0 37 1;
#X connect 45 0 80 0;
#X connect 46 0 38 1;
#X connect 46 0 81 0;
#X connect 47 0 39 1;
#X connect 47 0 82 0;
#X connect 48 0 40 1;
#X connect 48 0 83 0;
#X connect 49 0 41 1;
#X connect 49 0 84 0;
#X connect 50 0 42 1;
#X connect 50 0 85 0;
#X connect 51 0 43 1;
#X connect 51 0 86 0;
#X connect 52 0 44 1;
#X connect 52 0 87 0;
#X connect 53 0 54 0;
#X connect 53 0 55 0;
#X connect 53 0 56 0;
#X connect 53 0 57 0;
#X connect 53 0 58 0;
#X connect 53 0 59 0;
#X connect 53 0 60 0;
#X connect 53 0 61 0;
#X connect 54 0 45 0;
#X connect 55 0 46 0;
#X connect 56 0 47 0;
#X connect 57 0 48 0;
#X connect 58 0 49 0;
#X connect 59 0 50 0;
#X connect 60 0 51 0;
#X connect 61 0 52 0;
#X connect 62 0 95 0;
#X connect 63 0 95 0;
#X connect 64 0 95 0;
#X connect 65 0 95 0;
#X connect 66 0 95 0;
#X connect 67 0 95 0;
#X connect 68 0 95 0;
#X connect 69 0 95 0;
#X connect 70 0 90 0;
#X connect 71 0 70 0;
#X connect 71 1 70 1;
#X connect 72 0 70 0;
#X connect 72 1 70 2;
#X connect 73 0 70 0;
#X connect 73 1 70 3;
#X connect 75 0 91 0;
#X connect 76 0 75 0;
#X connect 76 1 75 1;
#X connect 77 0 75 0;
#X connect 77 1 75 2;
#X connect 78 0 75 0;
#X connect 78 1 75 3;
#X connect 80 0 92 0;
#X connect 81 0 80 0;
#X connect 81 1 80 1;
#X connect 82 0 80 0;
#X connect 82 1 80 2;
#X connect 83 0 80 0;
#X connect 83 1 80 3;
#X connect 84 0 93 0;
#X connect 85 0 84 0;
#X connect 85 1 84 1;
#X connect 86 0 84 0;
#X connect 86 1 84 2;
#X connect 87 0 84 0;
#X connect 87 1 84 3;
#X connect 90 0 74 0;
#X connect 91 0 79 0;
#X connect 92 0 88 0;
#X connect 93 0 89 0;
#X connect 94 0 24 1;
#X connect 96 0 70 0;
#X connect 96 0 75 0;
#X connect 96 0 80 0;
#X connect 96 0 84 0;
#X restore 170 313 pd sequencer(SD2);
#X msg 1098 636 EDIT Open HiHat;
#X msg 1100 656 EDIT Clap;
#X text 916 479 Screen:;
#X obj 798 511 r oh;
#X obj 802 587 readsf~;
#X msg 755 560 start;
#X obj 799 532 delay 1;
#X msg 798 558 open HatOpen.aif;
#X obj 217 441 readsf~;
#X obj 217 393 delay 1;
#X obj 389 429 readsf~;
#X msg 332 418 start;
#X obj 388 389 delay 1;
#X obj 216 372 r sd2;
#X obj 387 369 r cl;
#X msg 388 409 open Clap.aif;
#X obj 733 232 s selSD2;
#X msg 167 420 start;
#X obj 837 189 == 4;
#X obj 882 188 == 5;
#X obj 922 186 == 6;
#X obj 795 190 == 3;
#X obj 793 231 s selRS;
#N canvas 0 23 1440 848 sequencer(RS) 0;
#X obj 54 122 spigot;
#X obj 107 143 spigot;
#X obj 158 163 spigot;
#X obj 212 187 spigot;
#X obj 267 209 spigot;
#X obj 317 232 spigot;
#X obj 369 250 spigot;
#X obj 417 268 spigot;
#X obj 530 105 sel 60;
#X obj 569 125 sel 62;
#X obj 497 104 tgl 15 0 empty empty empty 17 7 0 10 -262144 -1 -1 0
1;
#X obj 609 145 sel 64;
#X obj 649 166 sel 65;
#X obj 689 186 sel 67;
#X obj 729 208 sel 69;
#X obj 769 231 sel 71;
#X obj 810 253 sel 72;
#X obj 532 126 tgl 15 0 empty empty empty 17 7 0 10 -262144 -1 -1 0
1;
#X obj 571 146 tgl 15 0 empty empty empty 17 7 0 10 -262144 -1 -1 0
1;
#X obj 610 166 tgl 15 0 empty empty empty 17 7 0 10 -262144 -1 -1 0
1;
#X obj 649 188 tgl 15 0 empty empty empty 17 7 0 10 -262144 -1 -1 0
1;
#X obj 691 208 tgl 15 0 empty empty empty 17 7 0 10 -262144 -1 -1 0
1;
#X obj 730 231 tgl 15 0 empty empty empty 17 7 0 10 -262144 -1 -1 0
1;
#X obj 769 252 tgl 15 0 empty empty empty 17 7 0 10 -262144 -1 -1 0
1;
#X obj 943 79 spigot;
#X obj 44 649 bng 15 250 50 0 empty empty empty 17 7 0 10 -262144 -1
-1;
#X obj 97 648 bng 15 250 50 0 empty empty empty 17 7 0 10 -262144 -1
-1;
#X obj 150 650 bng 15 250 50 0 empty empty empty 17 7 0 10 -262144
-1 -1;
#X obj 206 647 bng 15 250 50 0 empty empty empty 17 7 0 10 -262144
-1 -1;
#X obj 259 647 bng 15 250 50 0 empty empty empty 17 7 0 10 -262144
-1 -1;
#X obj 310 647 bng 15 250 50 0 empty empty empty 17 7 0 10 -262144
-1 -1;
#X obj 361 648 bng 15 250 50 0 empty empty empty 17 7 0 10 -262144
-1 -1;
#X obj 416 648 bng 15 250 50 0 empty empty empty 17 7 0 10 -262144
-1 -1;
#X obj 56 28 inlet;
#X obj 937 58 r steps;
#X obj 1345 82 r seq-nmb;
#X obj 55 80 sel 0 1 2 3 4 5 6 7 8 9 10 11 12 13 14 15, f 62;
#X obj 56 286 spigot;
#X obj 106 302 spigot;
#X obj 157 322 spigot;
#X obj 211 346 spigot;
#X obj 266 368 spigot;
#X obj 316 391 spigot;
#X obj 368 409 spigot;
#X obj 418 435 spigot;
#X obj 643 277 tgl 15 0 empty empty empty 17 7 0 10 -262144 -1 -1 0
1;
#X obj 663 297 tgl 15 0 empty empty empty 17 7 0 10 -262144 -1 -1 0
1;
#X obj 702 317 tgl 15 0 empty empty empty 17 7 0 10 -262144 -1 -1 0
1;
#X obj 741 337 tgl 15 0 empty empty empty 17 7 0 10 -262144 -1 -1 0
1;
#X obj 780 359 tgl 15 0 empty empty empty 17 7 0 10 -262144 -1 -1 0
1;
#X obj 822 379 tgl 15 0 empty empty empty 17 7 0 10 -262144 -1 -1 0
1;
#X obj 861 402 tgl 15 0 empty empty empty 17 7 0 10 -262144 -1 -1 0
1;
#X obj 900 423 tgl 15 0 empty empty empty 17 7 0 10 -262144 -1 -1 0
1;
#X floatatom 937 263 5 0 0 0 - - -, f 5;
#X obj 661 276 sel 84;
#X obj 700 296 sel 86;
#X obj 740 316 sel 88;
#X obj 780 337 sel 89;
#X obj 820 357 sel 91;
#X obj 860 379 sel 93;
#X obj 900 402 sel 95;
#X obj 941 424 sel 96;
#X obj 469 650 bng 15 250 50 0 empty empty empty 17 7 0 10 -262144
-1 -1;
#X obj 522 649 bng 15 250 50 0 empty empty empty 17 7 0 10 -262144
-1 -1;
#X obj 575 651 bng 15 250 50 0 empty empty empty 17 7 0 10 -262144
-1 -1;
#X obj 628 650 bng 15 250 50 0 empty empty empty 17 7 0 10 -262144
-1 -1;
#X obj 684 648 bng 15 250 50 0 empty empty empty 17 7 0 10 -262144
-1 -1;
#X obj 735 648 bng 15 250 50 0 empty empty empty 17 7 0 10 -262144
-1 -1;
#X obj 786 649 bng 15 250 50 0 empty empty empty 17 7 0 10 -262144
-1 -1;
#X obj 841 649 bng 15 250 50 0 empty empty empty 17 7 0 10 -262144
-1 -1;
#X obj 1077 161 pack 0 0 0 0;
#X obj 1047 94 t b f;
#X obj 1087 111 t b f;
#X obj 1128 129 t b f;
#X obj 1180 162 s screenLine2;
#X obj 1014 244 pack 0 0 0 0;
#X obj 984 177 t b f;
#X obj 1024 194 t b f;
#X obj 1065 212 t b f;
#X obj 1115 241 s screenLine3;
#X obj 1079 341 pack 0 0 0 0;
#X obj 1049 274 t b f;
#X obj 1089 291 t b f;
#X obj 1130 309 t b f;
#X obj 1016 424 pack 0 0 0 0;
#X obj 986 357 t b f;
#X obj 1026 374 t b f;
#X obj 1067 392 t b f;
#X obj 1182 342 s screenLine4;
#X obj 1117 421 s screenLine5;
#X msg 1179 139 \$1___\$2___\$3___\$4;
#X msg 1114 218 \$1___\$2___\$3___\$4;
#X msg 1181 319 \$1___\$2___\$3___\$4;
#X msg 1116 398 \$1___\$2___\$3___\$4;
#X obj 993 59 r selRS;
#X obj 43 697 s rs;
#X obj 1347 110 sel 3;
#X connect 0 0 25 0;
#X connect 1 0 26 0;
#X connect 2 0 27 0;
#X connect 3 0 28 0;
#X connect 4 0 29 0;
#X connect 5 0 30 0;
#X connect 6 0 31 0;
#X connect 7 0 32 0;
#X connect 8 0 10 0;
#X connect 9 0 17 0;
#X connect 10 0 0 1;
#X connect 10 0 70 0;
#X connect 11 0 18 0;
#X connect 12 0 19 0;
#X connect 13 0 20 0;
#X connect 14 0 21 0;
#X connect 15 0 22 0;
#X connect 16 0 23 0;
#X connect 17 0 1 1;
#X connect 17 0 71 0;
#X connect 18 0 2 1;
#X connect 18 0 72 0;
#X connect 19 0 3 1;
#X connect 19 0 73 0;
#X connect 20 0 4 1;
#X connect 20 0 75 0;
#X connect 21 0 5 1;
#X connect 21 0 76 0;
#X connect 22 0 6 1;
#X connect 22 0 77 0;
#X connect 23 0 7 1;
#X connect 23 0 78 0;
#X connect 24 0 8 0;
#X connect 24 0 9 0;
#X connect 24 0 11 0;
#X connect 24 0 12 0;
#X connect 24 0 13 0;
#X connect 24 0 14 0;
#X connect 24 0 15 0;
#X connect 24 0 16 0;
#X connect 24 0 53 0;
#X connect 25 0 95 0;
#X connect 26 0 95 0;
#X connect 27 0 95 0;
#X connect 28 0 95 0;
#X connect 29 0 95 0;
#X connect 30 0 95 0;
#X connect 31 0 95 0;
#X connect 32 0 95 0;
#X connect 33 0 36 0;
#X connect 34 0 24 0;
#X connect 35 0 96 0;
#X connect 36 0 0 0;
#X connect 36 1 1 0;
#X connect 36 2 2 0;
#X connect 36 3 3 0;
#X connect 36 4 4 0;
#X connect 36 5 5 0;
#X connect 36 6 6 0;
#X connect 36 7 7 0;
#X connect 36 8 37 0;
#X connect 36 9 38 0;
#X connect 36 10 39 0;
#X connect 36 11 40 0;
#X connect 36 12 41 0;
#X connect 36 13 42 0;
#X connect 36 14 43 0;
#X connect 36 15 44 0;
#X connect 37 0 62 0;
#X connect 38 0 63 0;
#X connect 39 0 64 0;
#X connect 40 0 65 0;
#X connect 41 0 66 0;
#X connect 42 0 67 0;
#X connect 43 0 68 0;
#X connect 44 0 69 0;
#X connect 45 0 37 1;
#X connect 45 0 80 0;
#X connect 46 0 38 1;
#X connect 46 0 81 0;
#X connect 47 0 39 1;
#X connect 47 0 82 0;
#X connect 48 0 40 1;
#X connect 48 0 83 0;
#X connect 49 0 41 1;
#X connect 49 0 84 0;
#X connect 50 0 42 1;
#X connect 50 0 85 0;
#X connect 51 0 43 1;
#X connect 51 0 86 0;
#X connect 52 0 44 1;
#X connect 52 0 87 0;
#X connect 53 0 54 0;
#X connect 53 0 55 0;
#X connect 53 0 56 0;
#X connect 53 0 57 0;
#X connect 53 0 58 0;
#X connect 53 0 59 0;
#X connect 53 0 60 0;
#X connect 53 0 61 0;
#X connect 54 0 45 0;
#X connect 55 0 46 0;
#X connect 56 0 47 0;
#X connect 57 0 48 0;
#X connect 58 0 49 0;
#X connect 59 0 50 0;
#X connect 60 0 51 0;
#X connect 61 0 52 0;
#X connect 62 0 95 0;
#X connect 63 0 95 0;
#X connect 64 0 95 0;
#X connect 65 0 95 0;
#X connect 66 0 95 0;
#X connect 67 0 95 0;
#X connect 68 0 95 0;
#X connect 69 0 95 0;
#X connect 70 0 90 0;
#X connect 71 0 70 0;
#X connect 71 1 70 1;
#X connect 72 0 70 0;
#X connect 72 1 70 2;
#X connect 73 0 70 0;
#X connect 73 1 70 3;
#X connect 75 0 91 0;
#X connect 76 0 75 0;
#X connect 76 1 75 1;
#X connect 77 0 75 0;
#X connect 77 1 75 2;
#X connect 78 0 75 0;
#X connect 78 1 75 3;
#X connect 80 0 92 0;
#X connect 81 0 80 0;
#X connect 81 1 80 1;
#X connect 82 0 80 0;
#X connect 82 1 80 2;
#X connect 83 0 80 0;
#X connect 83 1 80 3;
#X connect 84 0 93 0;
#X connect 85 0 84 0;
#X connect 85 1 84 1;
#X connect 86 0 84 0;
#X connect 86 1 84 2;
#X connect 87 0 84 0;
#X connect 87 1 84 3;
#X connect 90 0 74 0;
#X connect 91 0 79 0;
#X connect 92 0 88 0;
#X connect 93 0 89 0;
#X connect 94 0 24 1;
#X connect 96 0 70 0;
#X connect 96 0 75 0;
#X connect 96 0 80 0;
#X connect 96 0 84 0;
#X restore 322 296 pd sequencer(RS);
#X obj 531 498 readsf~;
#X msg 472 472 start;
#X obj 528 443 delay 1;
#X msg 526 469 open Rimshot.aif;
#X obj 527 423 r rs;
#X obj 1043 595 sel 3;
#X obj 1044 614 sel 4;
#X obj 1045 635 sel 5;
#X obj 1046 657 sel 6;
#X msg 1096 596 EDIT Rimshot;
#X msg 216 419 open Snare2.aif;
#X obj 800 643 *~;
#X msg 892 588 1;
#X msg 860 587 0;
#X obj 667 126 * 7.9999;
#X obj 1048 678 sel 7;
#X msg 1102 677 EDIT TomToms;
#X obj 961 186 == 7;
#X obj 1022 231 s selTO;
#X text 731 147 Selects Drumssounds to edit;
#X text 844 16 This here let's you switch between step 1-8 and 9-16:
;
#X obj 328 808 dattorroplate~;
#X obj 593 767 loadbang;
#X text 550 769 Gain;
#X text 490 768 Damping;
#X text 425 767 Bandwith;
#X text 351 766 Predelay;
#X msg 409 787 0.332;
#X msg 355 788 30;
#X msg 534 789 0.2;
#X msg 484 787 0.23;
#N canvas 0 23 1440 848 sequencer(TO) 0;
#X obj 54 122 spigot;
#X obj 107 143 spigot;
#X obj 158 163 spigot;
#X obj 212 187 spigot;
#X obj 267 209 spigot;
#X obj 317 232 spigot;
#X obj 369 250 spigot;
#X obj 417 268 spigot;
#X obj 530 105 sel 60;
#X obj 569 125 sel 62;
#X obj 497 104 tgl 15 0 empty empty empty 17 7 0 10 -262144 -1 -1 0
1;
#X obj 609 145 sel 64;
#X obj 649 166 sel 65;
#X obj 689 186 sel 67;
#X obj 729 208 sel 69;
#X obj 769 231 sel 71;
#X obj 810 253 sel 72;
#X obj 532 126 tgl 15 0 empty empty empty 17 7 0 10 -262144 -1 -1 0
1;
#X obj 571 146 tgl 15 0 empty empty empty 17 7 0 10 -262144 -1 -1 0
1;
#X obj 610 166 tgl 15 0 empty empty empty 17 7 0 10 -262144 -1 -1 0
1;
#X obj 649 188 tgl 15 0 empty empty empty 17 7 0 10 -262144 -1 -1 0
1;
#X obj 691 208 tgl 15 0 empty empty empty 17 7 0 10 -262144 -1 -1 0
1;
#X obj 730 231 tgl 15 0 empty empty empty 17 7 0 10 -262144 -1 -1 0
1;
#X obj 769 252 tgl 15 0 empty empty empty 17 7 0 10 -262144 -1 -1 0
1;
#X obj 943 79 spigot;
#X obj 44 649 bng 15 250 50 0 empty empty empty 17 7 0 10 -262144 -1
-1;
#X obj 97 648 bng 15 250 50 0 empty empty empty 17 7 0 10 -262144 -1
-1;
#X obj 150 650 bng 15 250 50 0 empty empty empty 17 7 0 10 -262144
-1 -1;
#X obj 206 647 bng 15 250 50 0 empty empty empty 17 7 0 10 -262144
-1 -1;
#X obj 259 647 bng 15 250 50 0 empty empty empty 17 7 0 10 -262144
-1 -1;
#X obj 310 647 bng 15 250 50 0 empty empty empty 17 7 0 10 -262144
-1 -1;
#X obj 361 648 bng 15 250 50 0 empty empty empty 17 7 0 10 -262144
-1 -1;
#X obj 416 648 bng 15 250 50 0 empty empty empty 17 7 0 10 -262144
-1 -1;
#X obj 56 28 inlet;
#X obj 937 58 r steps;
#X obj 1345 82 r seq-nmb;
#X obj 55 80 sel 0 1 2 3 4 5 6 7 8 9 10 11 12 13 14 15, f 62;
#X obj 56 286 spigot;
#X obj 106 302 spigot;
#X obj 157 322 spigot;
#X obj 211 346 spigot;
#X obj 266 368 spigot;
#X obj 316 391 spigot;
#X obj 368 409 spigot;
#X obj 418 435 spigot;
#X obj 643 277 tgl 15 0 empty empty empty 17 7 0 10 -262144 -1 -1 0
1;
#X obj 663 297 tgl 15 0 empty empty empty 17 7 0 10 -262144 -1 -1 0
1;
#X obj 702 317 tgl 15 0 empty empty empty 17 7 0 10 -262144 -1 -1 0
1;
#X obj 741 337 tgl 15 0 empty empty empty 17 7 0 10 -262144 -1 -1 0
1;
#X obj 780 359 tgl 15 0 empty empty empty 17 7 0 10 -262144 -1 -1 0
1;
#X obj 822 379 tgl 15 0 empty empty empty 17 7 0 10 -262144 -1 -1 0
1;
#X obj 861 402 tgl 15 0 empty empty empty 17 7 0 10 -262144 -1 -1 0
1;
#X obj 900 423 tgl 15 0 empty empty empty 17 7 0 10 -262144 -1 -1 0
1;
#X floatatom 937 263 5 0 0 0 - - -, f 5;
#X obj 661 276 sel 84;
#X obj 700 296 sel 86;
#X obj 740 316 sel 88;
#X obj 780 337 sel 89;
#X obj 820 357 sel 91;
#X obj 860 379 sel 93;
#X obj 900 402 sel 95;
#X obj 941 424 sel 96;
#X obj 469 650 bng 15 250 50 0 empty empty empty 17 7 0 10 -262144
-1 -1;
#X obj 522 649 bng 15 250 50 0 empty empty empty 17 7 0 10 -262144
-1 -1;
#X obj 575 651 bng 15 250 50 0 empty empty empty 17 7 0 10 -262144
-1 -1;
#X obj 628 650 bng 15 250 50 0 empty empty empty 17 7 0 10 -262144
-1 -1;
#X obj 684 648 bng 15 250 50 0 empty empty empty 17 7 0 10 -262144
-1 -1;
#X obj 735 648 bng 15 250 50 0 empty empty empty 17 7 0 10 -262144
-1 -1;
#X obj 786 649 bng 15 250 50 0 empty empty empty 17 7 0 10 -262144
-1 -1;
#X obj 841 649 bng 15 250 50 0 empty empty empty 17 7 0 10 -262144
-1 -1;
#X obj 1077 161 pack 0 0 0 0;
#X obj 1047 94 t b f;
#X obj 1087 111 t b f;
#X obj 1128 129 t b f;
#X obj 1180 162 s screenLine2;
#X obj 1014 244 pack 0 0 0 0;
#X obj 984 177 t b f;
#X obj 1024 194 t b f;
#X obj 1065 212 t b f;
#X obj 1115 241 s screenLine3;
#X obj 1079 341 pack 0 0 0 0;
#X obj 1049 274 t b f;
#X obj 1089 291 t b f;
#X obj 1130 309 t b f;
#X obj 1016 424 pack 0 0 0 0;
#X obj 986 357 t b f;
#X obj 1026 374 t b f;
#X obj 1067 392 t b f;
#X obj 1182 342 s screenLine4;
#X obj 1117 421 s screenLine5;
#X msg 1179 139 \$1___\$2___\$3___\$4;
#X msg 1114 218 \$1___\$2___\$3___\$4;
#X msg 1181 319 \$1___\$2___\$3___\$4;
#X msg 1116 398 \$1___\$2___\$3___\$4;
#X obj 1347 110 sel 7;
#X obj 43 697 s to;
#X obj 993 59 r selTO;
#X connect 0 0 25 0;
#X connect 1 0 26 0;
#X connect 2 0 27 0;
#X connect 3 0 28 0;
#X connect 4 0 29 0;
#X connect 5 0 30 0;
#X connect 6 0 31 0;
#X connect 7 0 32 0;
#X connect 8 0 10 0;
#X connect 9 0 17 0;
#X connect 10 0 0 1;
#X connect 10 0 70 0;
#X connect 11 0 18 0;
#X connect 12 0 19 0;
#X connect 13 0 20 0;
#X connect 14 0 21 0;
#X connect 15 0 22 0;
#X connect 16 0 23 0;
#X connect 17 0 1 1;
#X connect 17 0 71 0;
#X connect 18 0 2 1;
#X connect 18 0 72 0;
#X connect 19 0 3 1;
#X connect 19 0 73 0;
#X connect 20 0 4 1;
#X connect 20 0 75 0;
#X connect 21 0 5 1;
#X connect 21 0 76 0;
#X connect 22 0 6 1;
#X connect 22 0 77 0;
#X connect 23 0 7 1;
#X connect 23 0 78 0;
#X connect 24 0 8 0;
#X connect 24 0 9 0;
#X connect 24 0 11 0;
#X connect 24 0 12 0;
#X connect 24 0 13 0;
#X connect 24 0 14 0;
#X connect 24 0 15 0;
#X connect 24 0 16 0;
#X connect 24 0 53 0;
#X connect 25 0 95 0;
#X connect 26 0 95 0;
#X connect 27 0 95 0;
#X connect 28 0 95 0;
#X connect 29 0 95 0;
#X connect 30 0 95 0;
#X connect 31 0 95 0;
#X connect 32 0 95 0;
#X connect 33 0 36 0;
#X connect 34 0 24 0;
#X connect 35 0 94 0;
#X connect 36 0 0 0;
#X connect 36 1 1 0;
#X connect 36 2 2 0;
#X connect 36 3 3 0;
#X connect 36 4 4 0;
#X connect 36 5 5 0;
#X connect 36 6 6 0;
#X connect 36 7 7 0;
#X connect 36 8 37 0;
#X connect 36 9 38 0;
#X connect 36 10 39 0;
#X connect 36 11 40 0;
#X connect 36 12 41 0;
#X connect 36 13 42 0;
#X connect 36 14 43 0;
#X connect 36 15 44 0;
#X connect 37 0 62 0;
#X connect 38 0 63 0;
#X connect 39 0 64 0;
#X connect 40 0 65 0;
#X connect 41 0 66 0;
#X connect 42 0 67 0;
#X connect 43 0 68 0;
#X connect 44 0 69 0;
#X connect 45 0 37 1;
#X connect 45 0 80 0;
#X connect 46 0 38 1;
#X connect 46 0 81 0;
#X connect 47 0 39 1;
#X connect 47 0 82 0;
#X connect 48 0 40 1;
#X connect 48 0 83 0;
#X connect 49 0 41 1;
#X connect 49 0 84 0;
#X connect 50 0 42 1;
#X connect 50 0 85 0;
#X connect 51 0 43 1;
#X connect 51 0 86 0;
#X connect 52 0 44 1;
#X connect 52 0 87 0;
#X connect 53 0 54 0;
#X connect 53 0 55 0;
#X connect 53 0 56 0;
#X connect 53 0 57 0;
#X connect 53 0 58 0;
#X connect 53 0 59 0;
#X connect 53 0 60 0;
#X connect 53 0 61 0;
#X connect 54 0 45 0;
#X connect 55 0 46 0;
#X connect 56 0 47 0;
#X connect 57 0 48 0;
#X connect 58 0 49 0;
#X connect 59 0 50 0;
#X connect 60 0 51 0;
#X connect 61 0 52 0;
#X connect 62 0 95 0;
#X connect 63 0 95 0;
#X connect 64 0 95 0;
#X connect 65 0 95 0;
#X connect 66 0 95 0;
#X connect 67 0 95 0;
#X connect 68 0 95 0;
#X connect 69 0 95 0;
#X connect 70 0 90 0;
#X connect 71 0 70 0;
#X connect 71 1 70 1;
#X connect 72 0 70 0;
#X connect 72 1 70 2;
#X connect 73 0 70 0;
#X connect 73 1 70 3;
#X connect 75 0 91 0;
#X connect 76 0 75 0;
#X connect 76 1 75 1;
#X connect 77 0 75 0;
#X connect 77 1 75 2;
#X connect 78 0 75 0;
#X connect 78 1 75 3;
#X connect 80 0 92 0;
#X connect 81 0 80 0;
#X connect 81 1 80 1;
#X connect 82 0 80 0;
#X connect 82 1 80 2;
#X connect 83 0 80 0;
#X connect 83 1 80 3;
#X connect 84 0 93 0;
#X connect 85 0 84 0;
#X connect 85 1 84 1;
#X connect 86 0 84 0;
#X connect 86 1 84 2;
#X connect 87 0 84 0;
#X connect 87 1 84 3;
#X connect 90 0 74 0;
#X connect 91 0 79 0;
#X connect 92 0 88 0;
#X connect 93 0 89 0;
#X connect 94 0 70 0;
#X connect 94 0 75 0;
#X connect 94 0 80 0;
#X connect 94 0 84 0;
#X connect 96 0 24 1;
#X restore 314 313 pd sequencer(TO);
#X obj 112 731 tb_compressor~;
#X obj 643 394 s comp;
#X obj 205 706 r comp;
#X obj 639 309 loadbang;
#X obj 640 332 delay 2;
#X obj 216 492 clip~ -1 1;
#X obj 111 476 hip~ 150;
#X obj 215 515 hip~ 200;
#X obj 669 670 hip~ 600;
#X obj 800 667 hip~ 600;
#X obj 428 720 r knob4;
#X obj 332 751 *~;
#X obj 1289 571 r knob4;
#X obj 1286 599 * 100;
#X obj 1284 625 i;
#X msg 1290 653 REVERB: \$1%;
#X obj 708 508 readsf~;
#X msg 658 480 start;
#X obj 705 453 delay 1;
#X msg 704 479 open Tom.aif;
#X obj 705 432 r to;
#X msg 1097 578 EDIT Snare (2);
#X msg 1098 558 EDIT Snare (1);
#X obj 801 615 *~ 0.8;
#X obj 671 648 *~ 0.8;
#X obj 217 463 *~ 1.5;
#X obj 707 530 hip~ 150;
#X obj 603 515 *~ 0.9;
#X msg 641 356 threshold -10 \, ratio 4 \, response 40 \, gain 1 \,
rmspeak 1 \, lookahead 5;
#X obj 387 493 hip~ 400;
#X obj 390 460 *~ 1.2;
#X obj 387 721 * 1.5;
#X text 488 720 Reverb Mix;
#X connect 0 0 1 0;
#X connect 0 0 46 0;
#X connect 1 0 0 1;
#X connect 2 0 16 0;
#X connect 2 0 44 0;
#X connect 2 0 45 0;
#X connect 2 0 100 0;
#X connect 2 0 107 0;
#X connect 2 0 101 0;
#X connect 2 0 131 0;
#X connect 2 0 163 0;
#X connect 3 0 37 0;
#X connect 3 0 67 0;
#X connect 3 0 96 0;
#X connect 3 0 94 0;
#X connect 4 0 37 0;
#X connect 4 0 67 0;
#X connect 4 0 96 0;
#X connect 4 0 0 1;
#X connect 4 0 95 0;
#X connect 5 0 6 0;
#X connect 6 0 79 0;
#X connect 6 1 79 1;
#X connect 7 0 9 0;
#X connect 9 0 10 0;
#X connect 9 0 19 0;
#X connect 9 0 43 0;
#X connect 9 0 102 0;
#X connect 9 0 126 0;
#X connect 9 0 127 0;
#X connect 9 0 128 0;
#X connect 9 0 129 0;
#X connect 9 0 149 0;
#X connect 10 0 8 0;
#X connect 11 0 164 0;
#X connect 12 0 11 0;
#X connect 13 0 14 0;
#X connect 13 0 12 0;
#X connect 14 0 11 0;
#X connect 17 0 13 0;
#X connect 19 0 18 0;
#X connect 21 0 170 0;
#X connect 22 0 21 0;
#X connect 23 0 24 0;
#X connect 23 0 22 0;
#X connect 24 0 21 0;
#X connect 25 0 23 0;
#X connect 28 0 76 0;
#X connect 28 0 98 0;
#X connect 29 0 28 0;
#X connect 30 0 29 0;
#X connect 31 0 32 0;
#X connect 32 0 36 0;
#X connect 32 0 99 0;
#X connect 33 0 32 0;
#X connect 33 1 32 1;
#X connect 34 0 31 0;
#X connect 34 0 35 0;
#X connect 35 0 28 0;
#X connect 36 0 37 1;
#X connect 37 0 0 0;
#X connect 38 0 188 0;
#X connect 39 0 38 0;
#X connect 40 0 42 0;
#X connect 40 0 39 0;
#X connect 41 0 40 0;
#X connect 41 0 145 0;
#X connect 42 0 38 0;
#X connect 46 0 2 0;
#X connect 47 0 186 0;
#X connect 48 0 70 0;
#X connect 49 0 50 0;
#X connect 50 0 51 0;
#X connect 51 0 69 0;
#X connect 51 0 82 0;
#X connect 51 0 81 0;
#X connect 52 1 53 0;
#X connect 53 0 85 0;
#X connect 53 0 84 0;
#X connect 54 0 48 0;
#X connect 54 0 47 0;
#X connect 54 0 105 0;
#X connect 54 0 137 0;
#X connect 54 0 138 0;
#X connect 54 0 139 0;
#X connect 54 0 140 0;
#X connect 54 0 147 0;
#X connect 56 0 146 0;
#X connect 57 0 30 0;
#X connect 58 0 59 0;
#X connect 59 0 63 0;
#X connect 60 0 63 1;
#X connect 61 0 4 0;
#X connect 62 0 3 0;
#X connect 63 0 60 0;
#X connect 63 0 64 0;
#X connect 64 0 61 0;
#X connect 64 0 62 0;
#X connect 65 0 66 0;
#X connect 66 0 63 0;
#X connect 68 0 71 0;
#X connect 70 0 55 0;
#X connect 71 0 55 0;
#X connect 72 0 73 0;
#X connect 73 0 55 0;
#X connect 74 0 68 0;
#X connect 74 0 72 0;
#X connect 76 0 75 0;
#X connect 77 0 78 0;
#X connect 78 0 55 0;
#X connect 79 0 52 0;
#X connect 80 0 15 0;
#X connect 81 0 84 1;
#X connect 82 0 85 1;
#X connect 83 0 80 0;
#X connect 84 0 80 0;
#X connect 85 0 83 0;
#X connect 86 0 90 0;
#X connect 87 0 88 0;
#X connect 88 0 89 0;
#X connect 89 0 86 0;
#X connect 89 1 86 1;
#X connect 90 0 98 0;
#X connect 91 0 96 1;
#X connect 92 0 93 0;
#X connect 94 0 93 0;
#X connect 95 0 93 0;
#X connect 96 0 92 0;
#X connect 97 0 91 0;
#X connect 98 0 33 0;
#X connect 102 0 124 0;
#X connect 105 0 185 0;
#X connect 106 0 55 0;
#X connect 108 0 55 0;
#X connect 109 0 55 0;
#X connect 111 0 114 0;
#X connect 111 0 144 0;
#X connect 112 0 187 0;
#X connect 113 0 112 0;
#X connect 114 0 115 0;
#X connect 114 0 113 0;
#X connect 115 0 112 0;
#X connect 116 0 189 0;
#X connect 117 0 142 0;
#X connect 117 0 125 0;
#X connect 118 0 194 0;
#X connect 119 0 118 0;
#X connect 120 0 123 0;
#X connect 120 0 119 0;
#X connect 121 0 117 0;
#X connect 122 0 120 0;
#X connect 123 0 118 0;
#X connect 125 0 116 0;
#X connect 126 0 20 0;
#X connect 127 0 104 0;
#X connect 128 0 103 0;
#X connect 129 0 130 0;
#X connect 132 0 164 0;
#X connect 132 0 175 0;
#X connect 133 0 132 0;
#X connect 134 0 135 0;
#X connect 134 0 133 0;
#X connect 135 0 132 0;
#X connect 136 0 134 0;
#X connect 137 0 141 0;
#X connect 138 0 106 0;
#X connect 139 0 108 0;
#X connect 140 0 109 0;
#X connect 141 0 55 0;
#X connect 142 0 116 0;
#X connect 143 0 173 0;
#X connect 144 0 143 1;
#X connect 145 0 143 1;
#X connect 146 0 7 0;
#X connect 147 0 148 0;
#X connect 148 0 55 0;
#X connect 149 0 150 0;
#X connect 153 0 26 0;
#X connect 153 1 27 0;
#X connect 154 0 160 0;
#X connect 154 0 159 0;
#X connect 154 0 161 0;
#X connect 154 0 162 0;
#X connect 159 0 153 2;
#X connect 160 0 153 1;
#X connect 161 0 153 4;
#X connect 162 0 153 3;
#X connect 164 0 26 0;
#X connect 164 0 27 0;
#X connect 166 0 164 1;
#X connect 167 0 168 0;
#X connect 168 0 192 0;
#X connect 169 0 171 0;
#X connect 170 0 164 0;
#X connect 170 0 175 0;
#X connect 171 0 164 0;
#X connect 171 0 175 0;
#X connect 172 0 164 0;
#X connect 173 0 164 0;
#X connect 174 0 195 0;
#X connect 175 0 153 0;
#X connect 176 0 177 0;
#X connect 177 0 178 0;
#X connect 178 0 179 0;
#X connect 179 0 55 0;
#X connect 180 0 190 0;
#X connect 181 0 180 0;
#X connect 182 0 183 0;
#X connect 182 0 181 0;
#X connect 183 0 180 0;
#X connect 184 0 182 0;
#X connect 185 0 55 0;
#X connect 186 0 55 0;
#X connect 187 0 143 0;
#X connect 188 0 172 0;
#X connect 189 0 169 0;
#X connect 190 0 191 0;
#X connect 191 0 175 0;
#X connect 191 0 27 0;
#X connect 191 0 26 0;
#X connect 192 0 165 0;
#X connect 193 0 164 0;
#X connect 193 0 175 0;
#X connect 194 0 193 0;
#X connect 195 0 175 1;
