#N canvas 0 55 1366 697 10;
#X obj 288 75 inlet control;
#X obj 184 557 outlet~;
#X obj 131 438 vline~;
#X obj 261 337 list;
#X obj 260 367 list trim;
#X obj 188 439 vline~;
#X obj 131 11 loadbang;
#X obj 79 154 bng 15 250 50 0 empty empty empty 17 7 0 10 -262144 -1
-1;
#X obj 111 153 tgl 15 0 empty empty empty 17 7 0 10 -262144 -1 -1 0
1;
#X obj 68 216 route bang;
#X obj 124 249 select 1 0;
#X obj 27 11 inlet trigger;
#N canvas 635 184 450 300 mtf 0;
#X obj 89 44 inlet;
#X obj 134 45 inlet;
#X obj 90 71 pow -1;
#X obj 91 104 *;
#X obj 141 71 t b f;
#X obj 92 129 outlet;
#X connect 0 0 2 0;
#X connect 1 0 4 0;
#X connect 2 0 3 0;
#X connect 3 0 5 0;
#X connect 4 0 3 0;
#X connect 4 1 3 1;
#X restore 343 176 pd mtf;
#N canvas 633 187 450 300 mtf 1;
#X obj 89 44 inlet;
#X obj 134 45 inlet;
#X obj 90 71 pow -1;
#X obj 91 104 *;
#X obj 141 71 t b f;
#X obj 92 129 outlet;
#X connect 0 0 2 0;
#X connect 1 0 4 0;
#X connect 2 0 3 0;
#X connect 3 0 5 0;
#X connect 4 0 3 0;
#X connect 4 1 3 1;
#X restore 299 177 pd mtf;
#X obj 288 111 route a r c;
#X msg 53 337 0;
#X obj 199 338 f;
#X obj 227 338 f;
#X obj 114 314 f;
#X msg 115 349 1 \, 0 0 \$1;
#X obj 282 307 pack f f f;
#X obj 341 228 t b f;
#X obj 296 227 t b f;
#X msg 260 403 \$2 \, \$3 0 \$1;
#X msg 176 387 \$1;
#X msg 214 389 \$1;
#X obj 134 478 vcf~ 0.1;
#X msg 15 337 1;
#X msg 202 11 a 30 \, r 100;
#X obj 169 506 *~ 9.7;
#X msg 134 38 c 100;
#X connect 0 0 14 0;
#X connect 2 0 26 0;
#X connect 3 0 4 0;
#X connect 4 0 23 0;
#X connect 5 0 26 1;
#X connect 6 0 30 0;
#X connect 7 0 9 0;
#X connect 8 0 9 0;
#X connect 9 0 18 0;
#X connect 9 0 3 0;
#X connect 9 1 10 0;
#X connect 10 0 27 0;
#X connect 10 0 16 0;
#X connect 10 1 15 0;
#X connect 10 1 17 0;
#X connect 11 0 9 0;
#X connect 12 0 17 1;
#X connect 12 0 21 0;
#X connect 13 0 16 1;
#X connect 13 0 22 0;
#X connect 14 0 13 0;
#X connect 14 0 18 1;
#X connect 14 0 20 0;
#X connect 14 1 12 0;
#X connect 14 2 12 1;
#X connect 14 2 13 1;
#X connect 15 0 2 0;
#X connect 16 0 24 0;
#X connect 17 0 25 0;
#X connect 18 0 19 0;
#X connect 19 0 2 0;
#X connect 20 0 3 1;
#X connect 21 0 20 0;
#X connect 21 1 20 2;
#X connect 22 0 20 0;
#X connect 22 1 20 1;
#X connect 23 0 5 0;
#X connect 24 0 5 0;
#X connect 25 0 5 0;
#X connect 26 1 29 0;
#X connect 27 0 2 0;
#X connect 28 0 14 0;
#X connect 29 0 1 0;
#X connect 30 0 14 0;
