#N canvas 394 237 831 484 10;
#X obj 112 82 phasor~;
#X obj 74 162 clip~ 0 1;
#X obj 134 127 /~;
#N canvas 626 438 450 300 rev 0;
#X obj 87 51 inlet~;
#X obj 84 81 *~ -1;
#X obj 79 109 +~ 1;
#X obj 80 145 outlet~;
#X connect 0 0 1 0;
#X connect 1 0 2 0;
#X connect 2 0 3 0;
#X restore 88 268 pd rev;
#X obj 136 215 -~;
#X obj 228 130 pow~ -1;
#X obj 228 175 -~ 1;
#X obj 184 258 /~;
#X obj 124 357 -~;
#X obj 79 299 pow~;
#X obj 185 302 pow~;
#N canvas 626 438 450 300 rev 0;
#X obj 87 51 inlet~;
#X obj 84 81 *~ -1;
#X obj 79 109 +~ 1;
#X obj 80 145 outlet~;
#X connect 0 0 1 0;
#X connect 1 0 2 0;
#X connect 2 0 3 0;
#X restore 183 279 pd rev;
#N canvas 626 438 450 300 rev 0;
#X obj 87 51 inlet~;
#X obj 84 81 *~ -1;
#X obj 79 109 +~ 1;
#X obj 80 145 outlet~;
#X connect 0 0 1 0;
#X connect 1 0 2 0;
#X connect 2 0 3 0;
#X restore 82 334 pd rev;
#N canvas 626 438 450 300 rev 0;
#X obj 87 51 inlet~;
#X obj 84 81 *~ -1;
#X obj 79 109 +~ 1;
#X obj 80 145 outlet~;
#X connect 0 0 1 0;
#X connect 1 0 2 0;
#X connect 2 0 3 0;
#X restore 183 347 pd rev;
#X obj 130 426 -~ 1;
#X obj 129 398 +~;
#X obj 269 33 inlet~ shape;
#X obj 184 30 inlet~ pw;
#X obj 30 38 inlet~ freq;
#X obj 596 39 inlet phase;
#X obj 128 451 outlet~;
#X connect 0 0 2 0;
#X connect 1 0 4 1;
#X connect 1 0 3 0;
#X connect 2 0 1 0;
#X connect 2 0 4 0;
#X connect 3 0 9 0;
#X connect 4 0 7 0;
#X connect 5 0 6 0;
#X connect 6 0 7 1;
#X connect 7 0 11 0;
#X connect 8 0 15 0;
#X connect 8 0 15 1;
#X connect 9 0 12 0;
#X connect 10 0 13 0;
#X connect 11 0 10 0;
#X connect 12 0 8 0;
#X connect 13 0 8 1;
#X connect 14 0 20 0;
#X connect 15 0 14 0;
#X connect 16 0 9 1;
#X connect 16 0 10 1;
#X connect 17 0 2 1;
#X connect 17 0 5 0;
#X connect 18 0 0 0;
#X connect 19 0 0 1;
