#N canvas 2 82 450 300 10;
#X obj 172 103 random 65536;
#X obj 172 128 / 65536;
#X obj 172 150 * \$1;
#X obj 172 172 outlet;
#X obj 172 79 inlet;
#X obj 216 57 \$0;
#X obj 216 33 loadbang;
#X msg 216 79 seed \$1;
#X connect 0 0 1 0;
#X connect 1 0 2 0;
#X connect 2 0 3 0;
#X connect 4 0 0 0;
#X connect 5 0 7 0;
#X connect 6 0 5 0;
#X connect 7 0 0 0;
