#N canvas 363 183 450 300 10;
#X obj 36 38 inlet~;
#X obj 91 39 inlet~;
#X obj 143 38 inlet~;
#X obj 36 68 -~;
#X obj 36 90 *~;
#X obj 36 112 +~;
#X obj 36 134 outlet~;
#X connect 0 0 3 0;
#X connect 1 0 3 1;
#X connect 1 0 5 1;
#X connect 2 0 4 1;
#X connect 3 0 4 0;
#X connect 4 0 5 0;
#X connect 5 0 6 0;
