#N canvas 0 22 450 300 10;
#X obj 110 49 inlet;
#X obj 112 212 outlet;
#X obj 207 212 outlet;
#X obj 272 48 inlet;
#X obj 272 70 sel 0 1;
#X obj 272 117 unpack f f;
#X msg 272 94 1 0;
#X msg 305 94 0 1;
#X obj 109 163 spigot;
#X obj 204 164 spigot;
#X connect 0 0 8 0;
#X connect 0 0 9 0;
#X connect 3 0 4 0;
#X connect 4 0 6 0;
#X connect 4 1 7 0;
#X connect 5 0 8 1;
#X connect 5 1 9 1;
#X connect 6 0 5 0;
#X connect 7 0 5 0;
#X connect 8 0 1 0;
#X connect 9 0 2 0;
