#N canvas 0 22 450 300 10;
#X obj 125 43 inlet;
#X obj 125 65 delay \$1;
#X obj 125 87 outlet;
#X obj 230 47 r allsequencers;
#X msg 230 69 stop;
#X connect 0 0 1 0;
#X connect 1 0 2 0;
#X connect 3 0 4 0;
#X connect 4 0 1 0;
