#N canvas 0 22 538 316 10;
#X obj 65 42 inlet~;
#X obj 135 43 inlet~;
#X obj 275 42 inlet~;
#X obj 327 41 inlet~;
#X obj 110 188 *~;
#X obj 145 189 *~;
#X obj 275 188 *~;
#X obj 317 189 *~;
#X obj 184 152 smoother 20;
#X obj 326 156 smoother 20;
#X obj 171 243 outlet~;
#X obj 267 245 outlet~;
#X obj 406 23 inlet;
#X obj 406 45 sel 0 1;
#X obj 407 90 unpack f f;
#X msg 407 68 1 0;
#X msg 436 67 0 1;
#X connect 0 0 4 0;
#X connect 1 0 5 0;
#X connect 2 0 6 0;
#X connect 3 0 7 0;
#X connect 4 0 10 0;
#X connect 5 0 11 0;
#X connect 6 0 10 0;
#X connect 7 0 11 0;
#X connect 8 0 5 1;
#X connect 8 0 4 1;
#X connect 9 0 7 1;
#X connect 9 0 6 1;
#X connect 12 0 13 0;
#X connect 13 0 15 0;
#X connect 13 1 16 0;
#X connect 14 0 8 0;
#X connect 14 1 9 0;
#X connect 15 0 14 0;
#X connect 16 0 14 0;
