#N canvas 695 96 354 245 10;
#X obj 97 39 inlet~;
#X obj 212 39 inlet~;
#X obj 97 211 outlet~;
#X obj 196 211 outlet~;
#X obj 157 39 inlet;
#X obj 99 182 *~;
#X obj 206 180 *~;
#X obj 136 93 expr~ 1 - $v1;
#X obj 137 115 pow~ 0.45;
#X obj 228 112 pow~ 0.45;
#X obj 168 67 smoother 50;
#X connect 0 0 5 0;
#X connect 1 0 6 0;
#X connect 4 0 10 0;
#X connect 5 0 2 0;
#X connect 6 0 3 0;
#X connect 7 0 8 0;
#X connect 8 0 5 1;
#X connect 9 0 6 1;
#X connect 10 0 7 0;
#X connect 10 0 9 0;
