#N canvas 0 113 1280 699 10;
#X obj 83 72 inlet~;
#X obj 134 569 outlet~;
#X obj 166 416 vline~;
#X obj 134 530 *~;
#X obj 145 79 inlet;
#X obj 145 114 select 0;
#X msg 320 215 0 0.041173;
#X msg 404 191 set 0 \$1;
#X obj 170 154 / 127;
#X msg 166 367 \$1 82.8233 \, \$2 98.8506 82.8233;
#X msg 259 158 set \, adddollar 1 \, add2 \$1 \, addcomma \, adddollar
2 \, add2 \$2 \$1;
#X obj 170 187 t f f;
#X obj 165 291 pack 0 0;
#X obj 200 211 *;
#X obj 210 51 unpack f f f f;
#X obj 216 29 inlet;
#X obj 340 18 r \$1attack;
#X obj 354 33 r \$1decay;
#X obj 366 52 r \$1sustain;
#X obj 377 69 r \$1release;
#X obj 163 235 sqrt;
#X obj 164 263 sqrt;
#X obj 203 238 sqrt;
#X obj 204 266 sqrt;
#X obj 167 315 t l b;
#X obj 208 326 spigot;
#X obj 371 274 loadbang;
#X obj 373 308 f \$2;
#X msg 195 348 0 2;
#X obj 233 130 pack 0 0;
#X obj 315 74 t b f;
#X obj 273 193 t b b;
#X msg 270 236 stop;
#X connect 0 0 3 0;
#X connect 2 0 3 1;
#X connect 3 0 1 0;
#X connect 4 0 5 0;
#X connect 5 0 31 0;
#X connect 5 1 8 0;
#X connect 6 0 2 0;
#X connect 7 0 6 0;
#X connect 8 0 11 0;
#X connect 9 0 2 0;
#X connect 10 0 9 0;
#X connect 11 0 20 0;
#X connect 11 1 13 0;
#X connect 12 0 24 0;
#X connect 13 0 22 0;
#X connect 14 0 29 0;
#X connect 14 1 29 1;
#X connect 14 2 13 1;
#X connect 14 3 7 0;
#X connect 15 0 14 0;
#X connect 16 0 29 0;
#X connect 17 0 30 0;
#X connect 18 0 13 1;
#X connect 19 0 7 0;
#X connect 20 0 21 0;
#X connect 21 0 12 0;
#X connect 22 0 23 0;
#X connect 23 0 12 1;
#X connect 24 0 9 0;
#X connect 24 1 25 0;
#X connect 25 0 28 0;
#X connect 26 0 27 0;
#X connect 27 0 25 1;
#X connect 28 0 2 0;
#X connect 29 0 10 0;
#X connect 30 0 29 0;
#X connect 30 1 29 1;
#X connect 31 0 6 0;
#X connect 31 1 32 0;
#X connect 32 0 2 0;
