#N canvas 297 124 540 393 10;
#X msg 285 211 set \$1;
#X obj 110 157 makefilename bus%dL;
#X obj 147 175 makefilename bus%dR;
#X obj 349 255 throw~;
#X obj 419 255 throw~;
#X obj 104 123 f \$1;
#X obj 96 17 loadbang;
#X msg 342 211 set \$1;
#X obj 352 148 inlet~;
#X obj 420 148 inlet~;
#X obj 96 38 t b b;
#X obj 182 11 bng 15 250 50 0 empty empty empty 17 7 0 10 -262144 -1
-1;
#X obj 182 11 bng 15 250 50 0 empty empty empty 17 7 0 10 -262144 -1
-1;
#X obj 142 76 canvasdollarzero 1;
#X msg 151 116 set \$1-bus%dL;
#X msg 193 136 set \$1-bus%dR;
#X connect 0 0 3 0;
#X connect 1 0 0 0;
#X connect 2 0 7 0;
#X connect 5 0 1 0;
#X connect 5 0 2 0;
#X connect 6 0 10 0;
#X connect 7 0 4 0;
#X connect 8 0 3 0;
#X connect 9 0 4 0;
#X connect 10 0 5 0;
#X connect 10 1 13 0;
#X connect 11 0 10 0;
#X connect 13 0 14 0;
#X connect 13 0 15 0;
#X connect 14 0 1 0;
#X connect 15 0 2 0;
