#N canvas 648 184 1735 1247 12;
#N canvas 0 22 616 507 TASCAM 1;
#N canvas 1009 254 1520 1105 channel1 0;
#N canvas 0 22 450 300 (subpatch) 0;
#X array array1 176400 float 2;
#X coords 0 1 176400 -1 200 140 1;
#X restore 403 124 graph;
#X obj 4 77 expr 44100 / $f1;
#X floatatom 4 237 5 0 0 0 - - -, f 5;
#X obj 4 332 phasor~;
#X text 402 295 0;
#X text 602 292 1;
#X obj 5 549 tabread4~ array1;
#X obj 4 305 *;
#X obj 114 182 hsl 128 15 -2 2 0 0 empty empty empty -2 -6 0 8 -262144
-1 -1 0 1;
#X text 101 199 -2;
#X text 239 200 2;
#X obj 401 90 hsl 200 15 0 1 0 0 empty empty empty -2 -6 0 8 -262144
-1 -1 0 1;
#X obj 400 56 hsl 200 15 0 1 0 0 empty empty empty -2 -6 0 8 -262144
-1 -1 0 1;
#X obj 5 433 +~;
#X obj 155 326 -;
#X floatatom 155 292 5 0 0 0 - - -, f 5;
#X obj 223 288 t f b;
#X obj 4 513 *~;
#X obj 34 116 expr 1 / $f1;
#X obj 34 167 *;
#X text 396 30 0;
#X text 595 30 1;
#X text 310 51 left limit;
#X text 614 87 right limit;
#X text 413 319 slider shows playing position;
#X obj 41 205 t b f;
#X obj 5 396 *~;
#X text 110 158 playback speed;
#X obj 750 221 soundfiler;
#X obj 750 61 inlet;
#X obj 750 159 pack s s;
#X msg 750 190 read \$1 \$2;
#X text 748 38 Specify file;
#X obj 750 91 trigger a bang;
#X text 633 -31 Open and specify file are effectively the same \, except
open file shows an open dialogue box so the user can choose.;
#X obj 956 272 bng 15 250 50 0 empty empty empty 17 7 0 10 -262144
-1 -1;
#X obj 937 188 writesf~;
#X obj 908 77 adc~;
#X obj 992 85 bng 15 250 50 0 empty empty empty 17 7 0 10 -262144 -1
-1;
#X obj 1013 151 bng 15 250 50 0 empty empty empty 17 7 0 10 -262144
-1 -1;
#X msg 962 146 start;
#X msg 1025 184 stop;
#X msg 955 42 open cha1.wav;
#X msg 698 14 cha1.wav;
#X obj 952 20 loadbang;
#X obj 1060 5 bng 15 250 50 0 empty empty empty 17 7 0 10 -262144 -1
-1;
#X obj 1082 45 delay 100;
#X obj 954 235 delay 100;
#X obj 774 127 symbol array1;
#X msg 211 134 1;
#X obj 1013 118 delay 4000;
#X obj 607 689 u_channelstrip MYSTRIP;
#X obj 721 838 catch~ \$0-AUX2;
#X obj 682 897 throw~ \$0-AUX1;
#X obj 721 803 throw~ \$0-AUX2;
#X msg 773 657 help;
#X msg 826 654 save;
#X obj 826 686 t a b;
#X obj 758 715 u_cocollect;
#X obj 686 938 catch~ \$0-AUX1;
#X obj 441 752 throw~ \$0-LEFT;
#X obj 562 753 throw~ \$0-RIGHT;
#X obj 791 966 env~;
#X floatatom 791 986 5 0 0 0 - - -, f 5;
#X obj 830 854 env~;
#X floatatom 830 874 5 0 0 0 - - -, f 5;
#X obj 826 633 bng 15 250 50 0 empty empty empty 17 7 1 10 -204786
-1 -1;
#N canvas 0 22 806 672 dubdelay 0;
#X obj 137 105 e_dubdel somedel;
#X obj 138 180 throw~ \$0-LEFT;
#X obj 191 146 throw~ \$0-RIGHT;
#X obj 136 45 inlet~;
#X msg 246 69 dry 0.2 \, bq 2 \, basedur 500 \, bpitch 83 \, feedback
0.99 \, dell 2 \, delr 3 \,;
#X obj 246 50 loadbang;
#X connect 0 0 1 0;
#X connect 0 1 2 0;
#X connect 3 0 0 0;
#X connect 3 0 0 1;
#X connect 4 0 0 2;
#X connect 5 0 4 0;
#X restore 638 998 pd dubdelay;
#N canvas 0 22 457 248 reverb 0;
#X obj 78 141 throw~ \$0-LEFT;
#X obj 148 103 throw~ \$0-RIGHT;
#X obj 77 80 e_platereverb somerev;
#X obj 78 38 inlet~;
#X connect 2 0 0 0;
#X connect 2 1 1 0;
#X connect 3 0 2 0;
#X connect 3 0 2 1;
#X restore 721 862 pd reverb;
#X text 882 846 a reverb effect on aux2;
#X text 837 949 a pingpong delay on aux1;
#X text 1100 574 panning;
#X text 1099 473 aux1 level (0-1);
#X text 1099 495 aux1 throw~ target (optional);
#X text 1099 522 aux2 level (0-1);
#X text 1099 544 aux2 throw~ target (optional);
#X text 1098 448 level fader (dB \, 0...100);
#X text 1100 602 mute;
#X text 431 366 u_channelstrip - simple mixing strip with two postfader
aux;
#X obj 849 714 loadbang;
#X obj 953 470 g_nhsl aux1 0 1;
#X obj 952 442 g_nhsl level 0 110;
#X obj 953 607 g_tgl mute;
#X obj 953 520 g_nhsl aux2 0 1;
#X obj 953 495 g_symbol aux1name;
#X obj 953 545 g_symbol aux2name;
#X obj 953 570 g_hsl pan 0 1;
#X floatatom 149 210 5 0 0 0 - - -, f 5;
#X floatatom 280 517 5 0 0 0 - - -, f 5;
#X floatatom 206 517 5 0 0 0 - - -, f 5;
#X obj 133 629 sigpack/foldover~ 0.5 0.5;
#X obj 205 479 hsl 128 15 0 1 0 0 empty empty amplification/drive 5
8 0 10 -262144 -1 -1 0 1;
#X obj 283 498 hsl 128 15 0 1 0 0 empty empty symetry/push 5 8 0 10
-262144 -1 -1 0 1;
#X obj 378 618 sigpack/diode~ 0;
#X obj 469 485 vradio 15 1 0 3 empty empty empty 0 -8 0 10 -262144
-1 -1 1;
#X text 486 515 no rectify;
#X text 486 499 half wave rectify;
#X text 486 484 full wave rectify;
#X obj 399 858 catch~ a1;
#X obj 398 885 env~;
#X floatatom 398 910 5 0 0 0 - - -, f 5;
#X obj 482 885 env~;
#X floatatom 482 910 5 0 0 0 - - -, f 5;
#X obj 483 858 catch~ a2;
#X text 329 806 these are targets for renamed throws;
#X obj 953 638 s 1-strip;
#X obj 758 609 r 1-strip;
#X obj 758 777 s 1-setstrip;
#X obj 953 418 r 1-setstrip;
#X msg 758 737 aux2name a2 \, aux1name a1 \, aux2 0.43038 \, aux1 0.632911
\, pan 0.464567 \, level 71.0127 \, mute 0 \,;
#X connect 1 0 19 1;
#X connect 2 0 7 0;
#X connect 3 0 26 0;
#X connect 6 0 90 0;
#X connect 7 0 3 0;
#X connect 8 0 25 0;
#X connect 8 0 87 0;
#X connect 11 0 15 0;
#X connect 12 0 16 0;
#X connect 13 0 17 0;
#X connect 14 0 18 0;
#X connect 14 0 26 1;
#X connect 15 0 14 0;
#X connect 16 0 14 1;
#X connect 16 0 13 1;
#X connect 16 1 15 0;
#X connect 17 0 6 0;
#X connect 18 0 19 0;
#X connect 19 0 2 0;
#X connect 25 0 2 0;
#X connect 25 1 7 1;
#X connect 26 0 13 0;
#X connect 28 0 1 0;
#X connect 28 0 17 1;
#X connect 29 0 33 0;
#X connect 30 0 31 0;
#X connect 31 0 28 0;
#X connect 33 0 30 0;
#X connect 33 1 48 0;
#X connect 35 0 43 0;
#X connect 37 0 36 0;
#X connect 37 1 36 0;
#X connect 38 0 40 0;
#X connect 38 0 50 0;
#X connect 39 0 41 0;
#X connect 39 0 47 0;
#X connect 40 0 36 0;
#X connect 41 0 36 0;
#X connect 42 0 36 0;
#X connect 43 0 33 0;
#X connect 44 0 42 0;
#X connect 45 0 42 0;
#X connect 45 0 46 0;
#X connect 46 0 38 0;
#X connect 47 0 35 0;
#X connect 48 0 30 1;
#X connect 49 0 8 0;
#X connect 50 0 39 0;
#X connect 51 0 60 0;
#X connect 51 1 61 0;
#X connect 51 2 53 0;
#X connect 51 3 54 0;
#X connect 51 4 58 0;
#X connect 52 0 64 0;
#X connect 52 0 68 0;
#X connect 55 0 51 1;
#X connect 56 0 57 0;
#X connect 57 0 51 1;
#X connect 57 1 58 1;
#X connect 58 0 109 0;
#X connect 59 0 62 0;
#X connect 59 0 67 0;
#X connect 62 0 63 0;
#X connect 64 0 65 0;
#X connect 66 0 56 0;
#X connect 79 0 109 0;
#X connect 80 0 84 0;
#X connect 81 0 80 0;
#X connect 82 0 105 0;
#X connect 83 0 85 0;
#X connect 84 0 83 0;
#X connect 85 0 86 0;
#X connect 86 0 82 0;
#X connect 88 0 90 2;
#X connect 89 0 90 1;
#X connect 90 0 93 0;
#X connect 91 0 89 0;
#X connect 92 0 88 0;
#X connect 93 0 51 0;
#X connect 94 0 93 1;
#X connect 98 0 99 0;
#X connect 98 0 67 0;
#X connect 99 0 100 0;
#X connect 101 0 102 0;
#X connect 103 0 101 0;
#X connect 103 0 68 0;
#X connect 106 0 51 1;
#X connect 108 0 81 0;
#X connect 109 0 107 0;
#X restore 38 58 pd channel1;
#N canvas 856 284 1520 1105 channel2 0;
#N canvas 0 22 450 300 (subpatch) 0;
#X array array2 176400 float 2;
#X coords 0 1 176400 -1 200 140 1 0 0;
#X restore 403 124 graph;
#X obj 4 77 expr 44100 / $f1;
#X floatatom 4 237 5 0 0 0 - - -, f 5;
#X obj 4 332 phasor~;
#X text 402 295 0;
#X text 602 292 1;
#X obj 4 305 *;
#X obj 114 182 hsl 128 15 -2 2 0 0 empty empty empty -2 -6 0 8 -262144
-1 -1 0 1;
#X text 101 199 -2;
#X text 239 200 2;
#X obj 401 90 hsl 200 15 0 1 0 0 empty empty empty -2 -6 0 8 -262144
-1 -1 0 1;
#X obj 400 56 hsl 200 15 0 1 0 0 empty empty empty -2 -6 0 8 -262144
-1 -1 0 1;
#X obj 5 433 +~;
#X obj 155 326 -;
#X floatatom 155 292 5 0 0 0 - - -, f 5;
#X obj 223 288 t f b;
#X obj 4 513 *~;
#X obj 34 116 expr 1 / $f1;
#X obj 34 167 *;
#X text 396 30 0;
#X text 595 30 1;
#X text 310 51 left limit;
#X text 614 87 right limit;
#X text 413 319 slider shows playing position;
#X obj 41 205 t b f;
#X obj 5 396 *~;
#X text 110 158 playback speed;
#X obj 750 221 soundfiler;
#X obj 750 61 inlet;
#X obj 750 159 pack s s;
#X msg 750 190 read \$1 \$2;
#X text 748 38 Specify file;
#X obj 750 91 trigger a bang;
#X text 633 -31 Open and specify file are effectively the same \, except
open file shows an open dialogue box so the user can choose.;
#X obj 956 272 bng 15 250 50 0 empty empty empty 17 7 0 10 -262144
-1 -1;
#X obj 937 188 writesf~;
#X obj 908 77 adc~;
#X obj 992 85 bng 15 250 50 0 empty empty empty 17 7 0 10 -262144 -1
-1;
#X obj 1013 151 bng 15 250 50 0 empty empty empty 17 7 0 10 -262144
-1 -1;
#X msg 962 146 start;
#X msg 1025 184 stop;
#X msg 698 14 cha1.wav;
#X obj 952 20 loadbang;
#X obj 1060 5 bng 15 250 50 0 empty empty empty 17 7 0 10 -262144 -1
-1;
#X obj 1082 45 delay 100;
#X obj 954 235 delay 100;
#X msg 211 134 1;
#X obj 1013 118 delay 4000;
#X obj 607 689 u_channelstrip MYSTRIP;
#X msg 773 657 help;
#X msg 826 654 save;
#X obj 826 686 t a b;
#X obj 758 715 u_cocollect;
#X obj 455 753 throw~ \$0-LEFT;
#X obj 562 753 throw~ \$0-RIGHT;
#X obj 1045 968 env~;
#X floatatom 1045 988 5 0 0 0 - - -, f 5;
#X obj 830 854 env~;
#X floatatom 830 874 5 0 0 0 - - -, f 5;
#X obj 826 633 bng 15 250 50 0 empty empty empty 17 7 1 10 -204786
-1 -1;
#N canvas 0 22 806 672 dubdelay 0;
#X obj 137 105 e_dubdel somedel;
#X obj 138 180 throw~ \$0-LEFT;
#X obj 191 146 throw~ \$0-RIGHT;
#X obj 136 45 inlet~;
#X msg 246 69 dry 0.2 \, bq 2 \, basedur 500 \, bpitch 83 \, feedback
0.99 \, dell 2 \, delr 3 \,;
#X obj 246 50 loadbang;
#X connect 0 0 1 0;
#X connect 0 1 2 0;
#X connect 3 0 0 0;
#X connect 3 0 0 1;
#X connect 4 0 0 2;
#X connect 5 0 4 0;
#X restore 935 978 pd dubdelay;
#N canvas 0 22 457 248 reverb 0;
#X obj 78 141 throw~ \$0-LEFT;
#X obj 148 103 throw~ \$0-RIGHT;
#X obj 77 80 e_platereverb somerev;
#X obj 78 38 inlet~;
#X connect 2 0 0 0;
#X connect 2 1 1 0;
#X connect 3 0 2 0;
#X connect 3 0 2 1;
#X restore 721 862 pd reverb;
#X text 1037 806 a reverb effect on aux2;
#X text 872 926 a pingpong delay on aux1;
#X text 1100 574 panning;
#X text 1099 473 aux1 level (0-1);
#X text 1099 495 aux1 throw~ target (optional);
#X text 1099 522 aux2 level (0-1);
#X text 1099 544 aux2 throw~ target (optional);
#X text 1098 448 level fader (dB \, 0...100);
#X text 1100 602 mute;
#X text 431 366 u_channelstrip - simple mixing strip with two postfader
aux;
#X obj 849 714 loadbang;
#X obj 953 470 g_nhsl aux1 0 1;
#X obj 952 442 g_nhsl level 0 110;
#X obj 953 607 g_tgl mute;
#X obj 953 520 g_nhsl aux2 0 1;
#X obj 953 495 g_symbol aux1name;
#X obj 953 545 g_symbol aux2name;
#X obj 953 570 g_hsl pan 0 1;
#X floatatom 149 210 5 0 0 0 - - -, f 5;
#X floatatom 280 517 5 0 0 0 - - -, f 5;
#X floatatom 206 517 5 0 0 0 - - -, f 5;
#X obj 133 629 sigpack/foldover~ 0.5 0.5;
#X obj 205 479 hsl 128 15 0 1 0 0 empty empty amplification/drive 5
8 0 10 -262144 -1 -1 0 1;
#X obj 283 498 hsl 128 15 0 1 0 0 empty empty symetry/push 5 8 0 10
-262144 -1 -1 0 1;
#X obj 378 618 sigpack/diode~ 0;
#X obj 469 485 vradio 15 1 0 3 empty empty empty 0 -8 0 10 -262144
-1 -1 1;
#X text 486 515 no rectify;
#X text 486 499 half wave rectify;
#X text 486 484 full wave rectify;
#X msg 955 42 open cha2.wav;
#X obj 774 127 symbol array2;
#X obj 5 549 tabread4~ array2;
#X obj 734 802 throw~ \$0-AUX4;
#X obj 915 806 catch~ \$0-AUX4;
#X obj 684 897 throw~ \$0-AUX3;
#X obj 936 952 catch~ \$0-AUX3;
#X obj 1117 872 env~;
#X floatatom 1117 897 5 0 0 0 - - -, f 5;
#X obj 1201 872 env~;
#X floatatom 1201 897 5 0 0 0 - - -, f 5;
#X obj 945 887 catch~ b1;
#X obj 1202 845 catch~ b2;
#X obj 953 418 r 2-setstrip;
#X obj 953 638 s 2-strip;
#X obj 758 609 r 2-strip;
#X obj 758 777 s 2-setstrip;
#X msg 758 737 aux2name b2 \, aux1name b1 \, aux2 0.43038 \, aux1 0.632911
\, pan 0.464567 \, level 71.0127 \, mute 0 \,;
#X connect 1 0 18 1;
#X connect 2 0 6 0;
#X connect 3 0 25 0;
#X connect 6 0 3 0;
#X connect 7 0 24 0;
#X connect 7 0 80 0;
#X connect 10 0 14 0;
#X connect 11 0 15 0;
#X connect 12 0 16 0;
#X connect 13 0 17 0;
#X connect 13 0 25 1;
#X connect 14 0 13 0;
#X connect 15 0 13 1;
#X connect 15 0 12 1;
#X connect 15 1 14 0;
#X connect 16 0 93 0;
#X connect 17 0 18 0;
#X connect 18 0 2 0;
#X connect 24 0 2 0;
#X connect 24 1 6 1;
#X connect 25 0 12 0;
#X connect 27 0 1 0;
#X connect 27 0 16 1;
#X connect 28 0 32 0;
#X connect 29 0 30 0;
#X connect 30 0 27 0;
#X connect 32 0 29 0;
#X connect 32 1 92 0;
#X connect 34 0 41 0;
#X connect 36 0 35 0;
#X connect 36 1 35 0;
#X connect 37 0 39 0;
#X connect 37 0 47 0;
#X connect 38 0 40 0;
#X connect 38 0 45 0;
#X connect 39 0 35 0;
#X connect 40 0 35 0;
#X connect 41 0 32 0;
#X connect 42 0 91 0;
#X connect 43 0 91 0;
#X connect 43 0 44 0;
#X connect 44 0 37 0;
#X connect 45 0 34 0;
#X connect 46 0 7 0;
#X connect 47 0 38 0;
#X connect 48 0 53 0;
#X connect 48 1 54 0;
#X connect 48 2 96 0;
#X connect 48 3 94 0;
#X connect 48 4 52 0;
#X connect 49 0 48 1;
#X connect 50 0 51 0;
#X connect 51 0 48 1;
#X connect 51 1 52 1;
#X connect 52 0 108 0;
#X connect 55 0 56 0;
#X connect 57 0 58 0;
#X connect 59 0 50 0;
#X connect 72 0 108 0;
#X connect 73 0 77 0;
#X connect 74 0 73 0;
#X connect 75 0 105 0;
#X connect 76 0 78 0;
#X connect 77 0 76 0;
#X connect 78 0 79 0;
#X connect 79 0 75 0;
#X connect 81 0 83 2;
#X connect 82 0 83 1;
#X connect 83 0 86 0;
#X connect 84 0 82 0;
#X connect 85 0 81 0;
#X connect 86 0 48 0;
#X connect 87 0 86 1;
#X connect 91 0 35 0;
#X connect 92 0 29 1;
#X connect 93 0 83 0;
#X connect 95 0 57 0;
#X connect 95 0 61 0;
#X connect 97 0 55 0;
#X connect 97 0 60 0;
#X connect 98 0 99 0;
#X connect 100 0 101 0;
#X connect 102 0 98 0;
#X connect 102 0 60 0;
#X connect 103 0 100 0;
#X connect 103 0 61 0;
#X connect 104 0 74 0;
#X connect 106 0 48 1;
#X connect 108 0 107 0;
#X restore 138 57 pd channel2;
#N canvas 770 142 1520 1105 channel3 0;
#N canvas 0 22 450 300 (subpatch) 0;
#X array array3 176400 float 2;
#X coords 0 1 176400 -1 200 140 1 0 0;
#X restore 403 124 graph;
#X obj 4 77 expr 44100 / $f1;
#X floatatom 4 237 5 0 0 0 - - -, f 5;
#X obj 4 332 phasor~;
#X text 402 295 0;
#X text 602 292 1;
#X obj 4 305 *;
#X obj 114 182 hsl 128 15 -2 2 0 0 empty empty empty -2 -6 0 8 -262144
-1 -1 0 1;
#X text 101 199 -2;
#X text 239 200 2;
#X obj 401 90 hsl 200 15 0 1 0 0 empty empty empty -2 -6 0 8 -262144
-1 -1 0 1;
#X obj 400 56 hsl 200 15 0 1 0 0 empty empty empty -2 -6 0 8 -262144
-1 -1 0 1;
#X obj 5 433 +~;
#X obj 155 326 -;
#X floatatom 155 292 5 0 0 0 - - -, f 5;
#X obj 223 288 t f b;
#X obj 4 513 *~;
#X obj 34 116 expr 1 / $f1;
#X obj 34 167 *;
#X text 396 30 0;
#X text 595 30 1;
#X text 310 51 left limit;
#X text 614 87 right limit;
#X text 413 319 slider shows playing position;
#X obj 41 205 t b f;
#X obj 5 396 *~;
#X text 110 158 playback speed;
#X obj 750 221 soundfiler;
#X obj 750 61 inlet;
#X obj 750 159 pack s s;
#X msg 750 190 read \$1 \$2;
#X text 748 38 Specify file;
#X obj 750 91 trigger a bang;
#X text 633 -31 Open and specify file are effectively the same \, except
open file shows an open dialogue box so the user can choose.;
#X obj 956 272 bng 15 250 50 0 empty empty empty 17 7 0 10 -262144
-1 -1;
#X obj 937 188 writesf~;
#X obj 908 77 adc~;
#X obj 992 85 bng 15 250 50 0 empty empty empty 17 7 0 10 -262144 -1
-1;
#X obj 1013 151 bng 15 250 50 0 empty empty empty 17 7 0 10 -262144
-1 -1;
#X msg 962 146 start;
#X msg 1025 184 stop;
#X msg 955 42 open cha1.wav;
#X msg 698 14 cha1.wav;
#X obj 952 20 loadbang;
#X obj 1060 5 bng 15 250 50 0 empty empty empty 17 7 0 10 -262144 -1
-1;
#X obj 1082 45 delay 100;
#X obj 954 235 delay 100;
#X msg 211 134 1;
#X obj 1013 118 delay 4000;
#X obj 607 689 u_channelstrip MYSTRIP;
#X msg 773 657 help;
#X obj 953 391 r \$0-setstrip;
#X msg 826 654 save;
#X obj 826 686 t a b;
#X obj 758 715 u_cocollect;
#X obj 758 777 s \$0-setstrip;
#X obj 702 599 r \$0-strip;
#X obj 455 753 throw~ \$0-LEFT;
#X obj 562 753 throw~ \$0-RIGHT;
#X obj 791 966 env~;
#X floatatom 791 986 5 0 0 0 - - -, f 5;
#X obj 1079 1012 env~;
#X floatatom 1079 1032 5 0 0 0 - - -, f 5;
#X obj 826 633 bng 15 250 50 0 empty empty empty 17 7 1 10 -204786
-1 -1;
#N canvas 0 22 806 672 dubdelay 0;
#X obj 137 105 e_dubdel somedel;
#X obj 138 180 throw~ \$0-LEFT;
#X obj 191 146 throw~ \$0-RIGHT;
#X obj 136 45 inlet~;
#X msg 246 69 dry 0.2 \, bq 2 \, basedur 500 \, bpitch 83 \, feedback
0.99 \, dell 2 \, delr 3 \,;
#X obj 246 50 loadbang;
#X connect 0 0 1 0;
#X connect 0 1 2 0;
#X connect 3 0 0 0;
#X connect 3 0 0 1;
#X connect 4 0 0 2;
#X connect 5 0 4 0;
#X restore 681 976 pd dubdelay;
#N canvas 0 22 457 248 reverb 0;
#X obj 78 141 throw~ \$0-LEFT;
#X obj 148 103 throw~ \$0-RIGHT;
#X obj 77 80 e_platereverb somerev;
#X obj 78 38 inlet~;
#X connect 2 0 0 0;
#X connect 2 1 1 0;
#X connect 3 0 2 0;
#X connect 3 0 2 1;
#X restore 970 1020 pd reverb;
#X text 837 949 a pingpong delay on aux1;
#X text 1100 574 panning;
#X text 1099 473 aux1 level (0-1);
#X text 1099 495 aux1 throw~ target (optional);
#X text 1099 522 aux2 level (0-1);
#X text 1099 544 aux2 throw~ target (optional);
#X text 1098 448 level fader (dB \, 0...100);
#X text 1100 602 mute;
#X text 431 366 u_channelstrip - simple mixing strip with two postfader
aux;
#X obj 849 714 loadbang;
#X obj 953 470 g_nhsl aux1 0 1;
#X obj 952 442 g_nhsl level 0 110;
#X obj 953 607 g_tgl mute;
#X obj 953 638 s \$0-strip;
#X obj 953 520 g_nhsl aux2 0 1;
#X obj 953 495 g_symbol aux1name;
#X obj 956 546 g_symbol aux2name;
#X obj 953 570 g_hsl pan 0 1;
#X floatatom 149 210 5 0 0 0 - - -, f 5;
#X floatatom 280 517 5 0 0 0 - - -, f 5;
#X floatatom 206 517 5 0 0 0 - - -, f 5;
#X obj 133 629 sigpack/foldover~ 0.5 0.5;
#X obj 205 479 hsl 128 15 0 1 0 0 empty empty amplification/drive 5
8 0 10 -262144 -1 -1 0 1;
#X obj 283 498 hsl 128 15 0 1 0 0 empty empty symetry/push 5 8 0 10
-262144 -1 -1 0 1;
#X obj 378 618 sigpack/diode~ 0;
#X obj 469 485 vradio 15 1 0 3 empty empty empty 0 -8 0 10 -262144
-1 -1 1;
#X text 486 515 no rectify;
#X text 486 499 half wave rectify;
#X text 486 484 full wave rectify;
#X obj 737 823 throw~ \$0-AUX6;
#X obj 971 971 catch~ \$0-AUX6;
#X obj 688 895 throw~ \$0-AUX5;
#X obj 682 950 catch~ \$0-AUX5;
#X obj 774 127 symbol array3;
#X obj 5 549 tabread4~ array3;
#X obj 1113 872 env~;
#X floatatom 1113 897 5 0 0 0 - - -, f 5;
#X obj 1197 872 env~;
#X floatatom 1197 897 5 0 0 0 - - -, f 5;
#X obj 1082 836 catch~ c1;
#X obj 1198 845 catch~ c2;
#X msg 758 737 aux2name c2 \, aux1name c1 \, aux2 0.43038 \, aux1 0.632911
\, pan 0.464567 \, level 71.0127 \, mute 0 \,;
#X connect 1 0 18 1;
#X connect 2 0 6 0;
#X connect 3 0 25 0;
#X connect 6 0 3 0;
#X connect 7 0 24 0;
#X connect 7 0 84 0;
#X connect 10 0 14 0;
#X connect 11 0 15 0;
#X connect 12 0 16 0;
#X connect 13 0 17 0;
#X connect 13 0 25 1;
#X connect 14 0 13 0;
#X connect 15 0 13 1;
#X connect 15 0 12 1;
#X connect 15 1 14 0;
#X connect 16 0 100 0;
#X connect 17 0 18 0;
#X connect 18 0 2 0;
#X connect 24 0 2 0;
#X connect 24 1 6 1;
#X connect 25 0 12 0;
#X connect 27 0 1 0;
#X connect 27 0 16 1;
#X connect 28 0 32 0;
#X connect 29 0 30 0;
#X connect 30 0 27 0;
#X connect 32 0 29 0;
#X connect 32 1 99 0;
#X connect 34 0 42 0;
#X connect 36 0 35 0;
#X connect 36 1 35 0;
#X connect 37 0 39 0;
#X connect 37 0 48 0;
#X connect 38 0 40 0;
#X connect 38 0 46 0;
#X connect 39 0 35 0;
#X connect 40 0 35 0;
#X connect 41 0 35 0;
#X connect 42 0 32 0;
#X connect 43 0 41 0;
#X connect 44 0 41 0;
#X connect 44 0 45 0;
#X connect 45 0 37 0;
#X connect 46 0 34 0;
#X connect 47 0 7 0;
#X connect 48 0 38 0;
#X connect 49 0 57 0;
#X connect 49 1 58 0;
#X connect 49 2 97 0;
#X connect 49 3 95 0;
#X connect 49 4 54 0;
#X connect 50 0 49 1;
#X connect 51 0 77 0;
#X connect 52 0 53 0;
#X connect 53 0 49 1;
#X connect 53 1 54 1;
#X connect 54 0 107 0;
#X connect 56 0 49 1;
#X connect 59 0 60 0;
#X connect 61 0 62 0;
#X connect 63 0 52 0;
#X connect 75 0 107 0;
#X connect 76 0 81 0;
#X connect 77 0 76 0;
#X connect 78 0 79 0;
#X connect 80 0 82 0;
#X connect 81 0 80 0;
#X connect 82 0 83 0;
#X connect 83 0 78 0;
#X connect 85 0 87 2;
#X connect 86 0 87 1;
#X connect 87 0 90 0;
#X connect 88 0 86 0;
#X connect 89 0 85 0;
#X connect 90 0 49 0;
#X connect 91 0 90 1;
#X connect 96 0 61 0;
#X connect 96 0 65 0;
#X connect 98 0 59 0;
#X connect 98 0 64 0;
#X connect 99 0 29 1;
#X connect 100 0 87 0;
#X connect 101 0 102 0;
#X connect 103 0 104 0;
#X connect 105 0 101 0;
#X connect 105 0 64 0;
#X connect 106 0 103 0;
#X connect 106 0 65 0;
#X connect 107 0 55 0;
#X restore 239 57 pd channel3;
#N canvas 766 261 1520 1105 channel4 0;
#N canvas 0 22 450 300 (subpatch) 0;
#X array array4 176400 float 2;
#X coords 0 1 176400 -1 200 140 1 0 0;
#X restore 403 124 graph;
#X obj 6 36 expr 44100 / $f1;
#X floatatom 6 196 5 0 0 0 - - -, f 5;
#X obj 6 291 phasor~;
#X text 369 269 0;
#X text 625 270 1;
#X obj 6 264 *;
#X obj 116 141 hsl 128 15 -2 2 0 0 empty empty empty -2 -6 0 8 -262144
-1 -1 0 1;
#X text 103 158 -2;
#X text 241 159 2;
#X obj 401 90 hsl 200 15 0 1 0 0 empty empty empty -2 -6 0 8 -262144
-1 -1 0 1;
#X obj 400 56 hsl 200 15 0 1 0 0 empty empty empty -2 -6 0 8 -262144
-1 -1 0 1;
#X obj 5 358 +~;
#X obj 157 285 -;
#X floatatom 157 251 5 0 0 0 - - -, f 5;
#X obj 225 247 t f b;
#X obj 5 387 *~;
#X obj 36 75 expr 1 / $f1;
#X obj 36 126 *;
#X text 396 30 0;
#X text 595 30 1;
#X text 310 51 left limit;
#X text 614 87 right limit;
#X text 384 267 slider shows playing position;
#X obj 43 164 t b f;
#X obj 5 321 *~;
#X text 112 117 playback speed;
#X obj 730 239 soundfiler;
#X obj 730 79 inlet;
#X obj 730 177 pack s s;
#X msg 730 208 read \$1 \$2;
#X text 728 56 Specify file;
#X obj 730 109 trigger a bang;
#X text 633 -31 Open and specify file are effectively the same \, except
open file shows an open dialogue box so the user can choose.;
#X obj 876 249 bng 15 250 50 0 empty empty empty 17 7 0 10 -262144
-1 -1;
#X obj 901 210 writesf~;
#X obj 872 99 adc~;
#X obj 956 107 bng 15 250 50 0 empty empty empty 17 7 0 10 -262144
-1 -1;
#X obj 977 173 bng 15 250 50 0 empty empty empty 17 7 0 10 -262144
-1 -1;
#X msg 926 168 start;
#X msg 989 206 stop;
#X obj 916 42 loadbang;
#X obj 1041 44 bng 15 250 50 0 empty empty empty 17 7 0 10 -262144
-1 -1;
#X obj 1063 84 delay 100;
#X obj 918 257 delay 100;
#X msg 213 93 1;
#X obj 977 140 delay 4000;
#X obj 381 566 u_channelstrip MYSTRIP;
#X msg 547 534 help;
#X obj 1104 136 r \$0-setstrip;
#X msg 600 531 save;
#X obj 600 563 t a b;
#X obj 532 592 u_cocollect;
#X obj 532 654 s \$0-setstrip;
#X obj 532 486 r \$0-strip;
#X obj 229 630 throw~ \$0-LEFT;
#X obj 336 630 throw~ \$0-RIGHT;
#X obj 973 871 env~;
#X floatatom 973 891 5 0 0 0 - - -, f 5;
#X obj 604 731 env~;
#X floatatom 604 751 5 0 0 0 - - -, f 5;
#X obj 600 510 bng 15 250 50 0 empty empty empty 17 7 1 10 -204786
-1 -1;
#N canvas 0 22 806 672 dubdelay 0;
#X obj 137 105 e_dubdel somedel;
#X obj 138 180 throw~ \$0-LEFT;
#X obj 191 146 throw~ \$0-RIGHT;
#X obj 136 45 inlet~;
#X msg 246 69 dry 0.2 \, bq 2 \, basedur 500 \, bpitch 83 \, feedback
0.99 \, dell 2 \, delr 3 \,;
#X obj 246 50 loadbang;
#X connect 0 0 1 0;
#X connect 0 1 2 0;
#X connect 3 0 0 0;
#X connect 3 0 0 1;
#X connect 4 0 0 2;
#X connect 5 0 4 0;
#X restore 863 881 pd dubdelay;
#N canvas 0 22 457 248 reverb 0;
#X obj 78 141 throw~ \$0-LEFT;
#X obj 148 103 throw~ \$0-RIGHT;
#X obj 77 80 e_platereverb somerev;
#X obj 78 38 inlet~;
#X connect 2 0 0 0;
#X connect 2 1 1 0;
#X connect 3 0 2 0;
#X connect 3 0 2 1;
#X restore 495 739 pd reverb;
#X text 656 723 a reverb effect on aux2;
#X text 611 826 a pingpong delay on aux1;
#X obj 717 899 env~;
#X floatatom 717 924 5 0 0 0 - - -, f 5;
#X obj 962 737 env~;
#X floatatom 962 762 5 0 0 0 - - -, f 5;
#X text 1251 292 panning;
#X text 1250 191 aux1 level (0-1);
#X text 1250 213 aux1 throw~ target (optional);
#X text 1250 240 aux2 level (0-1);
#X text 1250 262 aux2 throw~ target (optional);
#X text 1249 166 level fader (dB \, 0...100);
#X text 1251 320 mute;
#X text 300 295 u_channelstrip - simple mixing strip with two postfader
aux;
#X obj 623 591 loadbang;
#X text 872 684 these are targets for renamed throws;
#X obj 1104 188 g_nhsl aux1 0 1;
#X obj 1103 160 g_nhsl level 0 110;
#X obj 1104 325 g_tgl mute;
#X obj 1104 356 s \$0-strip;
#X obj 1104 238 g_nhsl aux2 0 1;
#X obj 1104 213 g_symbol aux1name;
#X obj 1104 263 g_symbol aux2name;
#X obj 1104 288 g_hsl pan 0 1;
#X floatatom 151 169 5 0 0 0 - - -, f 5;
#X floatatom 331 380 5 0 0 0 - - -, f 5;
#X floatatom 234 355 5 0 0 0 - - -, f 5;
#X obj 134 503 sigpack/foldover~ 0.5 0.5;
#X obj 239 329 hsl 128 15 0 1 0 0 empty empty amplification/drive 5
8 0 10 -262144 -1 -1 0 1;
#X obj 334 361 hsl 128 15 0 1 0 0 empty empty symetry/push 5 8 0 10
-262144 -1 -1 0 1;
#X obj 372 416 sigpack/diode~ 0;
#X obj 496 345 vradio 15 1 0 3 empty empty empty 0 -8 0 10 -262144
-1 -1 2;
#X text 519 373 no rectify;
#X text 519 357 half wave rectify;
#X text 519 342 full wave rectify;
#X msg 919 64 open cha4.wav;
#X obj 754 145 symbol array4;
#X msg 678 32 cha4.wav;
#X obj 6 423 tabread4~ array4;
#X obj 495 715 catch~ \$0-AUX7;
#X obj 503 683 throw~ \$0-AUX7;
#X obj 458 780 throw~ \$0-AUX8;
#X obj 864 855 catch~ \$0-AUX8;
#X obj 718 872 catch~ d1;
#X obj 963 710 catch~ d2;
#X msg 532 614 aux2name d2 \, aux1name d1 \, aux2 0.43038 \, aux1 0.632911
\, pan 0.464567 \, level 71.0127 \, mute 0 \,;
#X connect 1 0 18 1;
#X connect 2 0 6 0;
#X connect 3 0 25 0;
#X connect 6 0 3 0;
#X connect 7 0 24 0;
#X connect 7 0 88 0;
#X connect 10 0 14 0;
#X connect 11 0 15 0;
#X connect 12 0 16 0;
#X connect 13 0 17 0;
#X connect 13 0 25 1;
#X connect 14 0 13 0;
#X connect 15 0 13 1;
#X connect 15 0 12 1;
#X connect 15 1 14 0;
#X connect 16 0 102 0;
#X connect 17 0 18 0;
#X connect 18 0 2 0;
#X connect 24 0 2 0;
#X connect 24 1 6 1;
#X connect 25 0 12 0;
#X connect 27 0 1 0;
#X connect 27 0 16 1;
#X connect 28 0 32 0;
#X connect 29 0 30 0;
#X connect 30 0 27 0;
#X connect 32 0 29 0;
#X connect 32 1 100 0;
#X connect 34 0 101 0;
#X connect 36 0 35 0;
#X connect 36 1 35 0;
#X connect 37 0 39 0;
#X connect 37 0 46 0;
#X connect 38 0 40 0;
#X connect 38 0 44 0;
#X connect 39 0 35 0;
#X connect 40 0 35 0;
#X connect 41 0 99 0;
#X connect 42 0 99 0;
#X connect 42 0 43 0;
#X connect 43 0 37 0;
#X connect 44 0 34 0;
#X connect 45 0 7 0;
#X connect 46 0 38 0;
#X connect 47 0 55 0;
#X connect 47 1 56 0;
#X connect 47 2 105 0;
#X connect 47 3 104 0;
#X connect 47 4 52 0;
#X connect 48 0 47 1;
#X connect 49 0 81 0;
#X connect 50 0 51 0;
#X connect 51 0 47 1;
#X connect 51 1 52 1;
#X connect 52 0 109 0;
#X connect 54 0 47 1;
#X connect 57 0 58 0;
#X connect 59 0 60 0;
#X connect 61 0 50 0;
#X connect 66 0 67 0;
#X connect 68 0 69 0;
#X connect 78 0 109 0;
#X connect 80 0 85 0;
#X connect 81 0 80 0;
#X connect 82 0 83 0;
#X connect 84 0 86 0;
#X connect 85 0 84 0;
#X connect 86 0 87 0;
#X connect 87 0 82 0;
#X connect 89 0 91 2;
#X connect 90 0 91 1;
#X connect 91 0 94 0;
#X connect 92 0 90 0;
#X connect 93 0 89 0;
#X connect 94 0 47 0;
#X connect 95 0 94 1;
#X connect 99 0 35 0;
#X connect 100 0 29 1;
#X connect 101 0 32 0;
#X connect 102 0 91 0;
#X connect 103 0 59 0;
#X connect 103 0 63 0;
#X connect 106 0 57 0;
#X connect 106 0 62 0;
#X connect 107 0 66 0;
#X connect 107 0 62 0;
#X connect 108 0 68 0;
#X connect 108 0 63 0;
#X connect 109 0 53 0;
#X restore 338 59 pd channel4;
#X obj 143 427 dac~;
#X msg 306 265 medium \$1;
#X msg 383 265 treeble \$1;
#X msg 242 265 bass \$1;
#X obj 242 200 vsl 15 50 0 1 0 0 empty empty 0-1 0 -9 0 10 -262144
-1 -1 0 1;
#X obj 306 200 vsl 15 50 0 1 0 0 empty empty 0-1 0 -9 0 10 -262144
-1 -1 0 1;
#X obj 383 200 vsl 15 50 0 1 0 0 empty empty 0-1 0 -9 0 10 -262144
-1 -1 0 1;
#X obj 458 200 vsl 15 50 0 1 0 0 empty empty 0-1 0 -9 0 10 -262144
-1 -1 0 1;
#X msg 458 265 mix \$1;
#X obj 138 309 audio-3eq;
#X obj 58 180 catch~ \$0-LEFT;
#X obj 107 227 catch~ \$0-RIGHT;
#X connect 5 0 13 1;
#X connect 6 0 13 1;
#X connect 7 0 13 1;
#X connect 8 0 7 0;
#X connect 9 0 5 0;
#X connect 10 0 6 0;
#X connect 11 0 12 0;
#X connect 12 0 13 1;
#X connect 13 0 4 0;
#X connect 13 0 4 1;
#X connect 14 0 13 0;
#X connect 15 0 13 0;
#X restore 798 200 pd TASCAM;
