#N canvas 238 112 911 516 10;
#X obj 102 102 cnv 15 146 46 empty empty empty 20 12 0 14 -211870 -66577
0;
#X floatatom 150 107 5 1 1500 0 bpm #0-bpmrcv #0-bpmsnd, f 5;
#X obj 276 228 metro;
#X obj 238 196 f;
#X obj 316 191 *;
#X obj 239 164 expr 60000/$f1/4;
#X obj 164 219 sel 0;
#X msg 192 245 0;
#X obj 200 48 loadbang;
#X obj 106 104 tgl20 5 21;
#X text 361 43 creation arguments \; 1 object index number \; 2 initial
tempo in bpm \; 3 initial on-off state \; 4 \, 5 \, 6 - clock divider
ratios \;;
#X obj 272 278 divider \$4;
#X obj 349 279 divider \$5;
#X obj 432 279 divider \$6;
#X text 105 129 16th;
#X floatatom 147 130 3 2 100 0 - #0-div1rcv #0-div1snd, f 3;
#X floatatom 187 130 3 2 100 0 - #0-div2rcv #0-div2snd, f 3;
#X floatatom 226 130 3 2 100 0 - #0-div3rcv #0-div3snd, f 3;
#X text 186 106 dividers;
#X obj 396 206 r \$0-div1snd;
#X obj 406 226 r \$0-div2snd;
#X obj 416 246 r \$0-div3snd;
#N canvas 0 22 450 300 state 0;
#X obj 80 104 t b f;
#X obj 29 110 t b f;
#X obj 23 70 r savemessage;
#X obj 50 147 pack \$1 f f \$4 \$5 \$6;
#X obj 26 35 r \$0-bpmsnd;
#X obj 102 36 r \$0-tglsnd;
#X obj 193 38 r \$0-div1snd;
#X obj 203 58 r \$0-div2snd;
#X obj 213 78 r \$0-div3snd;
#X obj 150 73 t b f;
#X obj 160 93 t b f;
#X obj 170 113 t b f;
#X obj 70 192 outlet;
#X connect 0 0 3 0;
#X connect 0 1 3 2;
#X connect 1 0 3 0;
#X connect 1 1 3 1;
#X connect 2 0 3 0;
#X connect 3 0 12 0;
#X connect 4 0 1 0;
#X connect 5 0 0 0;
#X connect 6 0 9 0;
#X connect 7 0 10 0;
#X connect 8 0 11 0;
#X connect 9 0 3 0;
#X connect 9 1 3 3;
#X connect 10 0 3 0;
#X connect 10 1 3 4;
#X connect 11 0 3 0;
#X connect 11 1 3 5;
#X restore 50 312 pd state saving;
#X obj 161 193 r \$0-tglsnd;
#X obj 83 163 s \$0-tglsnd;
#X obj 33 58 r \$0-tglrcv;
#X obj 50 339 canvasargs;
#N canvas 316 110 450 300 state 0;
#X obj 165 154 s \$0-tglrcv;
#X obj 154 121 s \$0-bpmrcv;
#X obj 177 179 s \$0-div1rcv;
#X obj 187 199 s \$0-div2rcv;
#X obj 198 219 s \$0-div3rcv;
#X obj 189 31 loadbang;
#X obj 189 53 pack \$1 \$2 \$3 \$4 \$5 \$6;
#X obj 189 75 unpack f f f f f f;
#X connect 5 0 6 0;
#X connect 6 0 7 0;
#X connect 7 1 1 0;
#X connect 7 2 0 0;
#X connect 7 3 2 0;
#X connect 7 4 3 0;
#X connect 7 5 4 0;
#X restore 300 389 pd state loading;
#X obj 186 308 outlet 16ths;
#X obj 266 307 outlet div1;
#X obj 346 309 outlet div2;
#X obj 433 310 outlet div3;
#X obj 258 27 inlet modifier;
#X obj 270 133 r \$0-bpmsnd;
#X obj 505 249 r allsequencers;
#X connect 2 0 11 0;
#X connect 2 0 12 0;
#X connect 2 0 13 0;
#X connect 2 0 28 0;
#X connect 3 0 2 1;
#X connect 4 0 2 1;
#X connect 5 0 4 1;
#X connect 5 0 3 0;
#X connect 6 1 7 0;
#X connect 7 0 11 2;
#X connect 7 0 12 2;
#X connect 7 0 13 2;
#X connect 8 0 7 0;
#X connect 9 0 24 0;
#X connect 11 0 29 0;
#X connect 12 0 30 0;
#X connect 13 0 31 0;
#X connect 19 0 11 1;
#X connect 20 0 12 1;
#X connect 21 0 13 1;
#X connect 22 0 26 0;
#X connect 23 0 2 0;
#X connect 23 0 6 0;
#X connect 25 0 9 0;
#X connect 32 0 4 0;
#X connect 33 0 5 0;
#X connect 34 0 13 2;
#X connect 34 0 12 2;
#X connect 34 0 11 2;
#X coords 0 -1 1 1 150 50 2 100 100;
