#N canvas 226 102 1052 653 10;
#X obj 102 113 cnv 15 146 122 empty empty key 5 115 0 12 -231071 -261718
0;
#X obj 87 30 inlet;
#X obj 583 247 f 1;
#X obj 613 247 + 1;
#X obj 138 28 inlet;
#X obj 172 28 inlet;
#X obj 206 28 inlet;
#X obj 240 28 inlet;
#X obj 577 222 bang;
#X obj 675 80 inlet;
#X obj 274 28 inlet;
#X obj 308 28 inlet;
#X obj 342 28 inlet;
#X obj 376 28 inlet;
#X obj 582 268 mod 8;
#X obj 104 117 vsl 16 70 -1 1 0 0 \$0-step1snd \$0-step1rcv empty 0
-9 0 10 -251930 -253514 -1 0 1;
#X obj 122 117 vsl 16 70 -1 1 0 0 \$0-step2snd \$0-step2rcv empty 0
-9 0 10 -251930 -253514 -1 6255 1;
#X obj 140 117 vsl 16 70 -1 1 0 0 \$0-step3snd \$0-step3rcv empty 0
-9 0 10 -251930 -253514 -1 950 1;
#X obj 158 117 vsl 16 70 -1 1 0 0 \$0-step4snd \$0-step4rcv empty 0
-9 0 10 -251930 -253514 -1 2400 1;
#X obj 176 117 vsl 16 70 -1 1 0 0 \$0-step5snd \$0-step5rcv empty 0
-9 0 10 -251930 -253514 -1 0 1;
#X obj 194 117 vsl 16 70 -1 1 0 0 \$0-step6snd \$0-step6rcv empty 0
-9 0 10 -251930 -253514 -1 4650 1;
#X obj 212 117 vsl 16 70 -1 1 0 0 \$0-step7snd \$0-step7rcv empty 0
-9 0 10 -251930 -253514 -1 5000 1;
#X obj 230 117 vsl 16 70 -1 1 0 0 \$0-step8snd \$0-step8rcv empty 0
-9 0 10 -251930 -253514 -1 0 1;
#X text 129 450 state saving;
#X obj 59 428 canvasargs;
#X text 717 211 inlets \; 1: bang for next step \; 2-9: change steps
1 to 8 (-1 to 1) \;;
#X obj 593 541 smoother 20;
#X obj 107 210 hsl 137 12 0.01 2500 1 0 \$0-glideamtsnd \$0-glideamtrcv
glide 45 5 0 9 -261355 -247320 -168707 0 1;
#X obj 104 192 tgl 16 0 \$0-glide1snd \$0-glide1rcv empty 17 7 0 10
-259863 -261830 -1 0 1;
#X obj 122 192 tgl 16 0 \$0-glide2snd \$0-glide2rcv empty 17 7 0 10
-259863 -261830 -1 0 1;
#X obj 140 192 tgl 16 0 \$0-glide3snd \$0-glide3rcv empty 17 7 0 10
-259863 -261830 -1 1 1;
#X obj 158 192 tgl 16 0 \$0-glide4snd \$0-glide4rcv empty 17 7 0 10
-259863 -261830 -1 0 1;
#X obj 176 192 tgl 16 0 \$0-glide5snd \$0-glide5rcv empty 17 7 0 10
-259863 -261830 -1 1 1;
#X obj 194 192 tgl 16 0 \$0-glide6snd \$0-glide6rcv empty 17 7 0 10
-259863 -261830 -1 0 1;
#X obj 212 192 tgl 16 0 \$0-glide7snd \$0-glide7rcv empty 17 7 0 10
-259863 -261830 -1 0 1;
#X obj 230 192 tgl 16 0 \$0-glide8snd \$0-glide8rcv empty 17 7 0 10
-259863 -261830 -1 0 1;
#X obj 700 564 *~ -1;
#X obj 593 566 outlet~ signal;
#X obj 701 590 outlet~ signal inv;
#X obj 635 222 r allsequencers;
#N canvas 572 158 567 313 blink 0;
#X obj 39 8 inlet;
#X obj 183 144 rgb, f 4;
#X obj 366 147 rgb;
#X obj 39 59 t f b b;
#X obj 174 200 pack s f f;
#X msg 177 240 \; \$1 color \$2 \$3;
#X obj 39 30 + 1;
#X obj 198 63 t f b b;
#X obj 198 41 pipe 75;
#X obj 18 133 makefilename \$0-step%drcv;
#X msg 254 121 244 130 100;
#X msg 430 120 244 231 38;
#X msg 173 119 255 250 144;
#X msg 364 121 222 121 168;
#X obj 31 163 makefilename \$0-vel%drcv;
#X connect 0 0 6 0;
#X connect 1 0 4 1;
#X connect 2 0 4 2;
#X connect 3 0 9 0;
#X connect 3 0 14 0;
#X connect 3 1 12 0;
#X connect 3 2 13 0;
#X connect 4 0 5 0;
#X connect 6 0 3 0;
#X connect 6 0 8 0;
#X connect 7 0 9 0;
#X connect 7 0 14 0;
#X connect 7 1 10 0;
#X connect 7 2 11 0;
#X connect 8 0 7 0;
#X connect 9 0 4 0;
#X connect 10 0 1 0;
#X connect 11 0 2 0;
#X connect 12 0 1 0;
#X connect 13 0 2 0;
#X connect 14 0 4 0;
#X restore 808 359 pd blink;
#N canvas 0 23 815 321 state_saving 0;
#X obj 71 22 r \$0-step1snd;
#X obj 82 42 r \$0-step2snd;
#X obj 91 62 r \$0-step3snd;
#X obj 101 82 r \$0-step4snd;
#X obj 167 22 r \$0-step5snd;
#X obj 177 42 r \$0-step6snd;
#X obj 187 62 r \$0-step7snd;
#X obj 197 82 r \$0-step8snd;
#X obj 34 217 r savemessage;
#X obj 252 24 r \$0-glide1snd;
#X obj 261 44 r \$0-glide2snd;
#X obj 271 64 r \$0-glide3snd;
#X obj 282 84 r \$0-glide4snd;
#X obj 340 23 r \$0-glide5snd;
#X obj 350 43 r \$0-glide6snd;
#X obj 361 63 r \$0-glide7snd;
#X obj 370 83 r \$0-glide8snd;
#X obj 155 248 outlet;
#X obj 435 19 r \$0-vel1snd;
#X obj 445 39 r \$0-vel2snd;
#X obj 465 59 r \$0-vel3snd;
#X obj 475 79 r \$0-vel4snd;
#X obj 525 19 r \$0-vel5snd;
#X obj 535 39 r \$0-vel6snd;
#X obj 545 59 r \$0-vel7snd;
#X obj 555 79 r \$0-vel8snd;
#X obj 619 17 r \$0-losnd;
#X obj 630 41 r \$0-hisnd;
#X obj 655 85 r \$0-quantsnd;
#X obj 646 63 r \$0-dursnd;
#X obj 153 165 cyclone/bondo 30, f 96;
#X obj 719 20 r \$0-glideamtsnd;
#X obj 153 202 pack \$1 f f f f f f f f f f f f f f f f f f f f f f
f f f f f f f, f 96;
#X obj 21 82 r \$0-indexsnd;
#X connect 0 0 30 1;
#X connect 1 0 30 2;
#X connect 2 0 30 3;
#X connect 3 0 30 4;
#X connect 4 0 30 5;
#X connect 5 0 30 6;
#X connect 6 0 30 7;
#X connect 7 0 30 8;
#X connect 8 0 32 0;
#X connect 9 0 30 9;
#X connect 10 0 30 10;
#X connect 11 0 30 11;
#X connect 12 0 30 12;
#X connect 13 0 30 13;
#X connect 14 0 30 14;
#X connect 15 0 30 15;
#X connect 16 0 30 16;
#X connect 18 0 30 17;
#X connect 19 0 30 18;
#X connect 20 0 30 19;
#X connect 21 0 30 20;
#X connect 22 0 30 21;
#X connect 23 0 30 22;
#X connect 24 0 30 23;
#X connect 25 0 30 24;
#X connect 26 0 30 25;
#X connect 27 0 30 26;
#X connect 28 0 30 28;
#X connect 29 0 30 27;
#X connect 30 0 32 0;
#X connect 30 1 32 1;
#X connect 30 2 32 2;
#X connect 30 3 32 3;
#X connect 30 4 32 4;
#X connect 30 5 32 5;
#X connect 30 6 32 6;
#X connect 30 7 32 7;
#X connect 30 8 32 8;
#X connect 30 9 32 9;
#X connect 30 10 32 10;
#X connect 30 11 32 11;
#X connect 30 12 32 12;
#X connect 30 13 32 13;
#X connect 30 14 32 14;
#X connect 30 15 32 15;
#X connect 30 16 32 16;
#X connect 30 17 32 17;
#X connect 30 18 32 18;
#X connect 30 19 32 19;
#X connect 30 20 32 20;
#X connect 30 21 32 21;
#X connect 30 22 32 22;
#X connect 30 23 32 23;
#X connect 30 24 32 24;
#X connect 30 25 32 25;
#X connect 30 26 32 26;
#X connect 30 27 32 27;
#X connect 30 28 32 28;
#X connect 30 29 32 29;
#X connect 31 0 30 29;
#X connect 32 0 17 0;
#X connect 33 0 30 0;
#X restore 59 404 pd state_saving;
#N canvas 0 22 974 439 state_loading 0;
#X obj 48 136 s \$0-step1rcv;
#X obj 48 154 s \$0-step2rcv;
#X obj 49 173 s \$0-step3rcv;
#X obj 49 192 s \$0-step4rcv;
#X obj 49 210 s \$0-step5rcv;
#X obj 49 229 s \$0-step6rcv;
#X obj 50 248 s \$0-step7rcv;
#X obj 50 267 s \$0-step8rcv;
#X obj 158 136 s \$0-glide1rcv;
#X obj 158 154 s \$0-glide2rcv;
#X obj 159 173 s \$0-glide3rcv;
#X obj 159 192 s \$0-glide4rcv;
#X obj 159 210 s \$0-glide5rcv;
#X obj 159 229 s \$0-glide6rcv;
#X obj 160 248 s \$0-glide7rcv;
#X obj 160 267 s \$0-glide8rcv;
#X obj 378 223 s \$0-glideamtrcv;
#X obj 108 8 loadbang;
#X obj 108 34 pack \$1 \$2 \$3 \$4 \$5 \$6 \$7 \$8 \$9 \$10 \$11 \$12
\$13 \$14 \$15 \$16 \$17 \$18 \$19 \$20 \$21 \$22 \$23 \$24 \$25 \$26
\$27 \$28 \$29 \$30, f 121;
#X obj 56 91 unpack f f f f f f f f f f f f f f f f f f f f f f f f
f f f f f f, f 70;
#X obj 282 136 s \$0-vel1rcv;
#X obj 282 158 s \$0-vel2rcv;
#X obj 282 180 s \$0-vel3rcv;
#X obj 282 202 s \$0-vel4rcv;
#X obj 282 224 s \$0-vel5rcv;
#X obj 282 246 s \$0-vel6rcv;
#X obj 282 268 s \$0-vel7rcv;
#X obj 282 290 s \$0-vel8rcv;
#X obj 378 137 s \$0-lorcv;
#X obj 378 159 s \$0-hircv;
#X obj 378 181 s \$0-durrcv;
#X obj 378 203 s \$0-quantrcv;
#X obj 15 111 s \$0-indexrcv;
#X connect 17 0 18 0;
#X connect 18 0 19 0;
#X connect 19 0 32 0;
#X connect 19 1 0 0;
#X connect 19 2 1 0;
#X connect 19 3 2 0;
#X connect 19 4 3 0;
#X connect 19 5 4 0;
#X connect 19 6 5 0;
#X connect 19 7 6 0;
#X connect 19 8 7 0;
#X connect 19 9 8 0;
#X connect 19 10 9 0;
#X connect 19 11 10 0;
#X connect 19 12 11 0;
#X connect 19 13 12 0;
#X connect 19 14 13 0;
#X connect 19 15 14 0;
#X connect 19 16 15 0;
#X connect 19 17 20 0;
#X connect 19 18 21 0;
#X connect 19 19 22 0;
#X connect 19 20 23 0;
#X connect 19 21 24 0;
#X connect 19 22 25 0;
#X connect 19 23 26 0;
#X connect 19 24 27 0;
#X connect 19 25 28 0;
#X connect 19 26 29 0;
#X connect 19 27 30 0;
#X connect 19 28 31 0;
#X connect 19 29 16 0;
#X restore 57 481 pd state_loading;
#X obj 216 224 hradio 10 1 0 3 \$0-tabsnd \$0-tabrcv empty 0 -8 0 10
-261481 -87616 -1 0;
#N canvas 0 23 450 300 tabs 0;
#X msg 51 108 0;
#X obj 50 159 pack f f;
#X obj 30 81 t f f b;
#X obj 84 109 sel 0 1 2;
#X msg 159 83 set \$1;
#X obj 168 38 loadbang;
#X msg 168 60 0;
#X obj 50 209 s \$0-cvseq8;
#X msg 84 134 100;
#X msg 112 134 260;
#X msg 139 134 420;
#X obj 30 58 r \$0-tabsnd;
#X obj 159 105 s \$0-tabrcv;
#X msg 50 183 donecanvasdialog 1 -1 \$1 0 -1 1 1 150 150 \$2 100 \,
dirty 0;
#X msg 29 109 -1;
#X connect 0 0 1 0;
#X connect 1 0 13 0;
#X connect 2 0 14 0;
#X connect 2 1 3 0;
#X connect 2 2 0 0;
#X connect 3 0 8 0;
#X connect 3 1 9 0;
#X connect 3 2 10 0;
#X connect 4 0 12 0;
#X connect 5 0 6 0;
#X connect 6 0 2 0;
#X connect 6 0 4 0;
#X connect 8 0 1 1;
#X connect 9 0 1 1;
#X connect 10 0 1 1;
#X connect 11 0 2 0;
#X connect 11 0 4 0;
#X connect 13 0 7 0;
#X connect 14 0 1 0;
#X restore 59 347 pd tabs;
#X obj 59 377 namecanvas \$0-cvseq8;
#X obj 102 236 cnv 10 45 12 empty empty k/v 0 6 0 10 -261416 -258826
0;
#X obj 145 236 cnv 10 40 12 empty empty ~ 3 6 0 10 -261416 -258826
0;
#X obj 175 236 cnv 10 44 12 empty empty ~(inv) 3 6 0 10 -261416 -258826
0;
#X obj 218 236 cnv 10 30 12 empty empty stp 12 6 0 10 -261416 -258826
0;
#X obj 102 102 cnv 10 20 10 empty empty ! 0 5 0 10 -261416 -258826
0;
#X obj 117 102 cnv 10 20 10 empty empty 1 0 5 0 10 -261416 -258826
0;
#X obj 132 102 cnv 10 20 10 empty empty 2 0 5 0 10 -261416 -258826
0;
#X obj 148 102 cnv 10 20 10 empty empty 3 0 5 0 10 -261416 -258826
0;
#X obj 164 102 cnv 10 20 10 empty empty 4 0 5 0 10 -261416 -258826
0;
#X obj 180 102 cnv 10 20 10 empty empty 5 0 5 0 10 -261416 -258826
0;
#X obj 196 102 cnv 10 20 10 empty empty 6 0 5 0 10 -261416 -258826
0;
#X obj 212 102 cnv 10 20 10 empty empty 7 0 5 0 10 -261416 -258826
0;
#X obj 228 102 cnv 10 20 10 empty empty 8 0 5 0 10 -261416 -258826
0;
#X obj 238 102 cnv 10 10 10 empty empty Φ 2 5 0 10 -261416 -258826
0;
#X obj 262 102 cnv 10 20 10 empty empty ! 0 5 0 10 -261416 -258826
0;
#X obj 277 102 cnv 10 20 10 empty empty 1 0 5 0 10 -261416 -258826
0;
#X obj 292 102 cnv 10 20 10 empty empty 2 0 5 0 10 -261416 -258826
0;
#X obj 308 102 cnv 10 20 10 empty empty 3 0 5 0 10 -261416 -258826
0;
#X obj 324 102 cnv 10 20 10 empty empty 4 0 5 0 10 -261416 -258826
0;
#X obj 340 102 cnv 10 20 10 empty empty 5 0 5 0 10 -261416 -258826
0;
#X obj 356 102 cnv 10 20 10 empty empty 6 0 5 0 10 -261416 -258826
0;
#X obj 372 102 cnv 10 20 10 empty empty 7 0 5 0 10 -261416 -258826
0;
#X obj 388 102 cnv 10 20 10 empty empty 8 0 5 0 10 -261416 -258826
0;
#X obj 398 102 cnv 10 10 10 empty empty Φ 2 5 0 10 -261416 -258826
0;
#X obj 262 236 cnv 10 40 12 empty empty k/v 0 6 0 10 -261416 -258826
0;
#X obj 303 236 cnv 10 40 12 empty empty ~ 3 6 0 10 -261416 -258826
0;
#X obj 335 236 cnv 10 44 12 empty empty ~(inv) 3 6 0 10 -261416 -258826
0;
#X obj 378 236 cnv 10 30 12 empty empty stp 12 6 0 10 -261416 -258826
0;
#X obj 376 224 hradio 10 1 0 3 \$0-tabsnd \$0-tabrcv empty 0 -8 0 10
-261481 -87616 -1 0;
#X obj 422 113 cnv 15 146 122 empty empty empty 20 12 0 14 -231071
-66577 0;
#X floatatom 448 124 5 0 0 0 lo #0-lorcv #0-losnd, f 5;
#X floatatom 448 142 5 0 0 0 hi #0-hircv #0-hisnd, f 5;
#X obj 422 102 cnv 10 20 10 empty empty ! 0 5 0 10 -261416 -258826
0;
#X obj 437 102 cnv 10 20 10 empty empty 1 0 5 0 10 -261416 -258826
0;
#X obj 452 102 cnv 10 20 10 empty empty 2 0 5 0 10 -261416 -258826
0;
#X obj 468 102 cnv 10 20 10 empty empty 3 0 5 0 10 -261416 -258826
0;
#X obj 484 102 cnv 10 20 10 empty empty 4 0 5 0 10 -261416 -258826
0;
#X obj 500 102 cnv 10 20 10 empty empty 5 0 5 0 10 -261416 -258826
0;
#X obj 516 102 cnv 10 20 10 empty empty 6 0 5 0 10 -261416 -258826
0;
#X obj 532 102 cnv 10 20 10 empty empty 7 0 5 0 10 -261416 -258826
0;
#X obj 548 102 cnv 10 20 10 empty empty 8 0 5 0 10 -261416 -258826
0;
#X obj 558 102 cnv 10 10 10 empty empty Φ 2 5 0 10 -261416 -258826
0;
#X obj 422 236 cnv 10 40 12 empty empty k/v 0 6 0 10 -261416 -258826
0;
#X obj 463 236 cnv 10 40 12 empty empty ~ 3 6 0 10 -261416 -258826
0;
#X obj 495 236 cnv 10 44 12 empty empty ~(inv) 3 6 0 10 -261416 -258826
0;
#X obj 538 236 cnv 10 30 12 empty empty stp 12 6 0 10 -261416 -258826
0;
#X obj 536 224 hradio 10 1 0 3 \$0-tabsnd \$0-tabrcv empty 0 -8 0 10
-261481 -87616 -1 0;
#X obj 262 113 cnv 15 146 122 empty empty velocity 5 115 0 12 -231071
-261718 0;
#X obj 264 117 vsl 16 70 0 127 0 0 \$0-vel1snd \$0-vel1rcv empty 0
-9 0 10 -251930 -253514 -1 2700 1;
#X obj 282 117 vsl 16 70 0 127 0 0 \$0-vel2snd \$0-vel2rcv empty 0
-9 0 10 -251930 -253514 -1 6700 1;
#X obj 300 117 vsl 16 70 0 127 0 0 \$0-vel3snd \$0-vel3rcv empty 0
-9 0 10 -251930 -253514 -1 4100 1;
#X obj 318 117 vsl 16 70 0 127 0 0 \$0-vel4snd \$0-vel4rcv empty 0
-9 0 10 -251930 -253514 -1 1200 1;
#X obj 336 117 vsl 16 70 0 127 0 0 \$0-vel5snd \$0-vel5rcv empty 0
-9 0 10 -251930 -253514 -1 5800 1;
#X obj 354 117 vsl 16 70 0 127 0 0 \$0-vel6snd \$0-vel6rcv empty 0
-9 0 10 -251930 -253514 -1 5100 1;
#X obj 372 117 vsl 16 70 0 127 0 0 \$0-vel7snd \$0-vel7rcv empty 0
-9 0 10 -251930 -253514 -1 2900 1;
#X obj 390 117 vsl 16 70 0 127 0 0 \$0-vel8snd \$0-vel8rcv empty 0
-9 0 10 -251930 -253514 -1 2800 1;
#N canvas 0 22 450 300 velocity 0;
#X obj 20 73 r \$0-vel1snd;
#X obj 97 208 f 0;
#X obj 121 208 f 0;
#X obj 145 208 f 0;
#X obj 169 208 f 0;
#X obj 193 208 f 0;
#X obj 217 208 f 0;
#X obj 241 208 f 0;
#X obj 265 208 f 0;
#X obj 151 122 inlet;
#X obj 151 144 sel 0 1 2 3 4 5 6 7;
#X obj 157 252 outlet;
#X obj 30 93 r \$0-vel2snd;
#X obj 100 73 r \$0-vel3snd;
#X obj 110 93 r \$0-vel4snd;
#X obj 180 73 r \$0-vel5snd;
#X obj 190 93 r \$0-vel6snd;
#X obj 260 73 r \$0-vel7snd;
#X obj 270 93 r \$0-vel8snd;
#X connect 0 0 1 1;
#X connect 1 0 11 0;
#X connect 2 0 11 0;
#X connect 3 0 11 0;
#X connect 4 0 11 0;
#X connect 5 0 11 0;
#X connect 6 0 11 0;
#X connect 7 0 11 0;
#X connect 8 0 11 0;
#X connect 9 0 10 0;
#X connect 10 0 1 0;
#X connect 10 1 2 0;
#X connect 10 2 3 0;
#X connect 10 3 4 0;
#X connect 10 4 5 0;
#X connect 10 5 6 0;
#X connect 10 6 7 0;
#X connect 10 7 8 0;
#X connect 12 0 2 1;
#X connect 13 0 3 1;
#X connect 14 0 4 1;
#X connect 15 0 5 1;
#X connect 16 0 6 1;
#X connect 17 0 7 1;
#X connect 18 0 8 1;
#X restore 520 361 pd velocity;
#N canvas 0 22 450 300 key 0;
#X obj 90 217 f 0;
#X obj 114 217 f 0;
#X obj 138 217 f 0;
#X obj 162 217 f 0;
#X obj 186 217 f 0;
#X obj 210 217 f 0;
#X obj 234 217 f 0;
#X obj 258 217 f 0;
#X obj -6 99 r \$0-step1snd;
#X obj 15 118 r \$0-step2snd;
#X obj 81 98 r \$0-step3snd;
#X obj 101 118 r \$0-step4snd;
#X obj 166 98 r \$0-step5snd;
#X obj 189 116 r \$0-step6snd;
#X obj 256 95 r \$0-step7snd;
#X obj 280 114 r \$0-step8snd;
#X obj 151 148 inlet;
#X obj 151 170 sel 0 1 2 3 4 5 6 7;
#X obj 170 258 outlet;
#X connect 0 0 18 0;
#X connect 1 0 18 0;
#X connect 2 0 18 0;
#X connect 3 0 18 0;
#X connect 4 0 18 0;
#X connect 5 0 18 0;
#X connect 6 0 18 0;
#X connect 7 0 18 0;
#X connect 8 0 0 1;
#X connect 9 0 1 1;
#X connect 10 0 2 1;
#X connect 11 0 3 1;
#X connect 12 0 4 1;
#X connect 13 0 5 1;
#X connect 14 0 6 1;
#X connect 15 0 7 1;
#X connect 16 0 17 0;
#X connect 17 0 0 0;
#X connect 17 1 1 0;
#X connect 17 2 2 0;
#X connect 17 3 3 0;
#X connect 17 4 4 0;
#X connect 17 5 5 0;
#X connect 17 6 6 0;
#X connect 17 7 7 0;
#X restore 473 364 pd key;
#N canvas 0 22 467 381 glide 0;
#X obj 99 199 f 0;
#X obj 123 199 f 0;
#X obj 147 199 f 0;
#X obj 171 199 f 0;
#X obj 195 199 f 0;
#X obj 219 199 f 0;
#X obj 243 199 f 0;
#X obj 267 199 f 0;
#X obj 140 233 sel 1 0;
#X msg 158 264 0.01;
#X obj 143 30 r \$0-glide1snd;
#X obj 152 50 r \$0-glide2snd;
#X obj 162 70 r \$0-glide3snd;
#X obj 173 90 r \$0-glide4snd;
#X obj 239 29 r \$0-glide5snd;
#X obj 241 49 r \$0-glide6snd;
#X obj 252 69 r \$0-glide7snd;
#X obj 261 89 r \$0-glide8snd;
#X obj 58 98 inlet;
#X obj 58 120 sel 0 1 2 3 4 5 6 7;
#X obj 186 322 - 0.01;
#X obj 144 296 f 0;
#X obj 34 252 r \$0-glideamtsnd;
#X obj 166 350 outlet;
#X connect 0 0 8 0;
#X connect 1 0 8 0;
#X connect 2 0 8 0;
#X connect 3 0 8 0;
#X connect 4 0 8 0;
#X connect 5 0 8 0;
#X connect 6 0 8 0;
#X connect 7 0 8 0;
#X connect 8 0 21 0;
#X connect 8 1 9 0;
#X connect 9 0 20 0;
#X connect 10 0 0 1;
#X connect 11 0 1 1;
#X connect 12 0 2 1;
#X connect 13 0 3 1;
#X connect 14 0 4 1;
#X connect 15 0 5 1;
#X connect 16 0 6 1;
#X connect 17 0 7 1;
#X connect 18 0 19 0;
#X connect 19 0 0 0;
#X connect 19 1 1 0;
#X connect 19 2 2 0;
#X connect 19 3 3 0;
#X connect 19 4 4 0;
#X connect 19 5 5 0;
#X connect 19 6 6 0;
#X connect 19 7 7 0;
#X connect 20 0 23 0;
#X connect 21 0 20 0;
#X connect 22 0 21 1;
#X restore 651 452 pd glide;
#X obj 573 304 t f f f;
#X obj 481 562 outlet k/v;
#X obj 481 511 makenote;
#X floatatom 448 160 5 0 0 0 dur #0-durrcv #0-dursnd, f 5;
#X obj 481 533 pack f f;
#X obj 836 561 outlet stepnumber;
#X obj 376 224 hradio 10 1 0 3 \$0-tabsnd \$0-tabrcv empty 0 -8 0 10
-261481 -87616 -1 0;
#X obj 394 403 cyclone/scale -1 1 30 50;
#X obj 419 467 adamux;
#X obj 489 124 tgl 15 1 \$0-quantsnd \$0-quantrcv quant 17 7 0 10 -260138
-249838 -1 1 1;
#X obj 434 435 int;
#X obj 462 435 r \$0-quantsnd;
#X obj 595 361 r \$0-losnd;
#X obj 664 360 r \$0-hisnd;
#X obj 550 434 r \$0-dursnd;
#X obj 704 299 spigot;
#X obj 762 272 r allguis;
#X obj 203 281 propertybang;
#X obj 203 303 f \$0;
#X msg 203 325 \; pd-\$1-properties vis 1;
#N canvas 602 287 95 46 \$0-properties 0;
#X floatatom 44 10 5 0 0 0 index #0-indexrcv #0-indexsnd, f 5;
#X restore 57 315 pd \$0-properties;
#X connect 1 0 8 0;
#X connect 2 0 3 0;
#X connect 2 0 14 0;
#X connect 3 0 2 1;
#X connect 4 0 15 0;
#X connect 5 0 16 0;
#X connect 6 0 17 0;
#X connect 7 0 18 0;
#X connect 8 0 2 0;
#X connect 9 0 2 1;
#X connect 10 0 19 0;
#X connect 11 0 20 0;
#X connect 12 0 21 0;
#X connect 13 0 22 0;
#X connect 14 0 105 0;
#X connect 14 0 110 0;
#X connect 14 0 120 0;
#X connect 26 0 36 0;
#X connect 26 0 37 0;
#X connect 36 0 38 0;
#X connect 39 0 2 1;
#X connect 41 0 24 0;
#X connect 102 0 107 1;
#X connect 103 0 26 0;
#X connect 103 0 112 0;
#X connect 104 0 26 1;
#X connect 105 0 103 0;
#X connect 105 1 102 0;
#X connect 105 2 104 0;
#X connect 107 0 109 0;
#X connect 107 1 109 1;
#X connect 109 0 106 0;
#X connect 112 0 113 0;
#X connect 112 0 115 0;
#X connect 113 0 107 0;
#X connect 115 0 113 1;
#X connect 116 0 113 2;
#X connect 117 0 112 3;
#X connect 118 0 112 4;
#X connect 119 0 107 2;
#X connect 120 0 40 0;
#X connect 121 0 120 1;
#X connect 122 0 123 0;
#X connect 123 0 124 0;
#X coords 0 -1 1 1 150 150 2 100 100;
