#N canvas 437 230 772 486 10;
#X obj 102 102 cnv 15 146 136 empty \$0-cnv empty 20 12 0 14 -248043
-66577 0;
#X obj 268 97 inlet~ L;
#X obj 342 97 inlet~ R;
#N canvas 0 23 450 300 delwrites 0;
#X obj 107 24 inlet~;
#X obj 226 25 inlet~;
#X obj 114 214 outlet~;
#X obj 239 215 outlet~;
#X obj 164 89 r~ \$0-fbL;
#X obj 274 90 r~ \$0-fbR;
#X obj 146 172 delwrite~ \$0-delL 4000;
#X obj 265 192 delwrite~ \$0-delR 4000;
#X connect 0 0 2 0;
#X connect 0 0 6 0;
#X connect 1 0 3 0;
#X connect 1 0 7 0;
#X connect 4 0 6 0;
#X connect 5 0 7 0;
#X restore 255 216 pd delwrites;
#N canvas 0 23 629 419 delreads 0;
#X obj 139 177 vd~ \$0-delL;
#X obj 231 176 vd~ \$0-delR;
#X obj 75 355 outlet~;
#X obj 178 354 outlet~;
#X obj 79 39 inlet~ L;
#X obj 151 42 inlet~ R;
#X obj 359 49 r \$0-deltimesnd;
#X obj 320 118 smoother 40;
#N canvas 689 108 560 486 filters 0;
#X obj 274 201 r \$0-filterswitchsnd;
#X obj 24 71 inlet~;
#X obj 95 70 inlet~;
#X obj 58 324 bob~;
#X obj 125 323 bob~;
#X obj 45 401 outlet~;
#X obj 123 401 outlet~;
#X msg 407 96 oversample 2;
#X obj 208 86 smoother 40;
#X obj 407 72 loadbang;
#X obj 408 28 r \$0-saturationsnd;
#X msg 408 49 saturation \$1;
#X obj 274 222 switch~;
#X obj 300 66 r \$0-qsnd;
#X obj 208 65 r \$0-cutoffsnd;
#X obj 300 87 smoother 40;
#X obj 147 162 *~;
#X obj 151 28 inlet~ cutoff;
#X connect 0 0 12 0;
#X connect 1 0 3 0;
#X connect 2 0 4 0;
#X connect 3 0 5 0;
#X connect 4 0 6 0;
#X connect 7 0 4 0;
#X connect 7 0 3 0;
#X connect 8 0 16 0;
#X connect 9 0 7 0;
#X connect 10 0 11 0;
#X connect 11 0 3 0;
#X connect 11 0 4 0;
#X connect 13 0 15 0;
#X connect 14 0 8 0;
#X connect 15 0 4 2;
#X connect 15 0 3 2;
#X connect 16 0 4 1;
#X connect 16 0 3 1;
#X connect 17 0 16 1;
#X restore 214 312 pd filters;
#X obj 78 312 *~;
#X obj 175 315 *~;
#X obj 312 197 r \$0-filterswitchsnd;
#X obj 312 218 == 0;
#X obj 312 239 smoother 25;
#X obj 245 43 inlet~ deltime;
#X obj 473 51 r \$0-decouplesnd;
#X obj 422 120 smoother 40;
#X obj 410 96 * 1;
#X obj 216 148 *~;
#X obj 287 152 *~;
#X obj 245 85 +~ 1;
#X obj 245 64 *~ 0.75;
#X obj 359 70 f;
#X obj 473 72 t b f;
#X obj 351 280 inlet~ cutoff;
#X connect 0 0 9 0;
#X connect 0 0 8 0;
#X connect 1 0 10 0;
#X connect 1 0 8 1;
#X connect 4 0 9 0;
#X connect 4 0 8 0;
#X connect 5 0 10 0;
#X connect 5 0 8 1;
#X connect 6 0 22 0;
#X connect 7 0 18 0;
#X connect 8 0 2 0;
#X connect 8 1 3 0;
#X connect 9 0 2 0;
#X connect 10 0 3 0;
#X connect 11 0 12 0;
#X connect 12 0 13 0;
#X connect 13 0 10 1;
#X connect 13 0 9 1;
#X connect 14 0 21 0;
#X connect 15 0 23 0;
#X connect 16 0 19 0;
#X connect 17 0 16 0;
#X connect 18 0 0 0;
#X connect 19 0 1 0;
#X connect 20 0 18 1;
#X connect 20 0 19 1;
#X connect 21 0 20 0;
#X connect 22 0 17 0;
#X connect 22 0 7 0;
#X connect 23 0 22 0;
#X connect 23 1 17 1;
#X connect 24 0 8 2;
#X restore 258 259 pd delreads;
#X obj 240 354 outlet~ L;
#X obj 340 357 outlet~ R;
#X text 203 238 dummy connection to ensure execution order;
#N canvas 0 23 634 308 feedback 0;
#X obj 91 107 *~;
#X obj 166 108 *~;
#X obj 91 221 s~ \$0-fbL;
#X obj 166 221 s~ \$0-fbR;
#X obj 91 30 inlet~ L;
#X obj 166 30 inlet~ R;
#X obj 247 52 smoother 50;
#X obj 247 31 r \$0-feedbacksnd;
#X obj 368 33 inlet~ feedback;
#X obj 247 73 *~;
#X obj 247 94 min~ 0.98;
#X connect 0 0 2 0;
#X connect 1 0 3 0;
#X connect 4 0 0 0;
#X connect 5 0 1 0;
#X connect 6 0 9 0;
#X connect 7 0 6 0;
#X connect 8 0 9 1;
#X connect 9 0 10 0;
#X connect 10 0 1 1;
#X connect 10 0 0 1;
#X restore 394 334 pd feedback;
#X obj 107 150 hsl 128 15 0 0.9 0 0 \$0-feedbacksnd \$0-feedbackrcv
feedback -2 6 0 9 -260975 -258511 -1 8200 1;
#X obj 107 133 hsl 128 15 1 4000 1 0 \$0-deltimesnd \$0-deltimercv
time -2 6 0 9 -260125 -258511 -1 7800 1;
#X obj 107 167 hsl 128 15 40 15000 1 0 \$0-cutoffsnd \$0-cutoffrcv
cutoff -2 6 0 9 -227366 -258511 -1 7000 1;
#X obj 107 184 hsl 128 15 0 4 0 0 \$0-qsnd \$0-qrcv q -2 6 0 9 -226911
-261557 -1 3900 1;
#X obj 104 116 tgl 15 0 \$0-filterswitchsnd \$0-filterswitchrcv filter
17 7 0 9 -260266 -261331 -1 1 1;
#X obj 107 201 hsl 128 15 3 0.1 0 0 \$0-saturationsnd \$0-saturationrcv
saturation -2 6 0 9 -247066 -261630 -1 0 1;
#X obj 232 118 tgl 12 0 \$0-switchsnd \$0-switchrcv empty 17 7 0 10
-260271 -262144 -1 1 1;
#N canvas 0 23 716 346 colours 0;
#X obj 76 82 r \$0-filterswitchsnd;
#X obj 76 103 sel 0 1;
#X obj 100 167 rgb, f 8;
#X msg 100 188 color \$1;
#X obj 100 209 s \$0-cutoffrcv;
#X obj 143 233 s \$0-qrcv;
#X obj 146 264 s \$0-saturationrcv;
#X msg 101 139 150 150 150;
#X obj 219 160 rgb, f 7;
#X obj 279 160 rgb, f 7;
#X obj 339 160 rgb, f 7;
#X msg 219 181 color \$1;
#X msg 279 181 color \$1;
#X msg 339 181 color \$1;
#X msg 211 134 220 130 150;
#X msg 282 110 220 100 120;
#X msg 341 138 240 80 100;
#X obj 452 84 r \$0-switchsnd;
#X obj 452 105 sel 0 1;
#X msg 468 144 180 180 180;
#X obj 468 165 rgb;
#X msg 482 207 color \$1;
#X obj 482 228 s \$0-cnv;
#X msg 557 145 240 140 170;
#X connect 0 0 1 0;
#X connect 1 0 7 0;
#X connect 1 1 14 0;
#X connect 1 1 15 0;
#X connect 1 1 16 0;
#X connect 2 0 3 0;
#X connect 3 0 4 0;
#X connect 3 0 5 0;
#X connect 3 0 6 0;
#X connect 7 0 2 0;
#X connect 8 0 11 0;
#X connect 9 0 12 0;
#X connect 10 0 13 0;
#X connect 11 0 4 0;
#X connect 12 0 5 0;
#X connect 13 0 6 0;
#X connect 14 0 8 0;
#X connect 15 0 9 0;
#X connect 16 0 10 0;
#X connect 17 0 18 0;
#X connect 18 0 19 0;
#X connect 18 1 23 0;
#X connect 19 0 20 0;
#X connect 20 0 21 0;
#X connect 21 0 22 0;
#X connect 23 0 20 0;
#X restore 43 247 pd colours;
#N canvas 0 23 450 300 state_saving 0;
#X obj 48 33 r \$0-filterswitchsnd;
#X obj 63 56 r \$0-deltimesnd;
#X obj 93 98 r \$0-cutoffsnd;
#X obj 132 119 r \$0-qsnd;
#X obj 145 142 r \$0-saturationsnd;
#X obj 76 77 r \$0-feedbacksnd;
#X obj 167 164 r \$0-switchsnd;
#X obj 39 244 outlet;
#X obj 39 202 cyclone/bondo 9, f 27;
#X obj 273 170 r \$0-decouplesnd;
#X obj 39 223 pack \$1 f f f f f f f f, f 27;
#X connect 0 0 8 1;
#X connect 1 0 8 2;
#X connect 2 0 8 4;
#X connect 3 0 8 5;
#X connect 4 0 8 6;
#X connect 5 0 8 3;
#X connect 6 0 8 7;
#X connect 8 0 10 0;
#X connect 8 1 10 1;
#X connect 8 2 10 2;
#X connect 8 3 10 3;
#X connect 8 4 10 4;
#X connect 8 5 10 5;
#X connect 8 6 10 6;
#X connect 8 7 10 7;
#X connect 8 8 10 8;
#X connect 9 0 8 8;
#X connect 10 0 7 0;
#X restore 45 278 pd state_saving;
#X obj 45 299 canvasargs;
#N canvas 0 23 450 300 state_loading 0;
#X obj 38 32 loadbang;
#X obj 41 123 s \$0-filterswitchrcv;
#X obj 41 142 s \$0-deltimercv;
#X obj 41 185 s \$0-cutoffrcv;
#X obj 41 206 s \$0-qrcv;
#X obj 41 227 s \$0-saturationrcv;
#X obj 41 162 s \$0-feedbackrcv;
#X obj 183 121 s \$0-switchrcv;
#X obj 183 142 s \$0-decouplercv;
#X obj 38 53 pack \$1 \$2 \$3 \$4 \$5 \$6 \$7 \$8 \$9;
#X obj 38 74 unpack f f f f f f f f f;
#X connect 0 0 9 0;
#X connect 9 0 10 0;
#X connect 10 1 1 0;
#X connect 10 2 2 0;
#X connect 10 3 6 0;
#X connect 10 4 3 0;
#X connect 10 5 4 0;
#X connect 10 6 5 0;
#X connect 10 7 7 0;
#X connect 10 8 8 0;
#X restore 45 330 pd state_loading;
#X obj 102 102 cnv 8 40 12 empty empty L 4 5 0 9 -261502 -258642 0
;
#X obj 126 102 cnv 8 40 12 empty empty R 4 5 0 9 -261502 -258642 0
;
#X obj 404 96 inlet~ deltime;
#X obj 498 96 inlet~ fb;
#X obj 562 94 inlet~ cutoff;
#X obj 652 98 inlet~ q;
#X obj 148 102 cnv 8 40 12 empty empty time 2 5 0 9 -261502 -258642
0;
#X obj 183 102 cnv 8 40 12 empty empty fb 2 5 0 9 -261502 -258642 0
;
#X obj 207 102 cnv 8 27 12 empty empty cut 2 5 0 9 -261502 -258642
0;
#X obj 233 102 cnv 8 15 12 empty empty q 8 5 0 9 -261502 -258642 0
;
#X obj 107 218 hsl 128 15 0.5 1.5 0 0 \$0-decouplesnd \$0-decouplercv
decouple -2 6 0 9 -218467 -261630 -1 5500 1;
#X obj 689 276 r \$0-decouplesnd;
#X floatatom 689 297 5 0 0 0 - - -, f 5;
#X obj 562 115 *~ 0.6;
#X obj 562 136 +~ 1;
#X obj 498 138 +~ 1;
#X obj 498 117 *~ 0.8;
#X connect 1 0 3 0;
#X connect 2 0 3 1;
#X connect 3 0 4 0;
#X connect 3 1 4 1;
#X connect 4 0 5 0;
#X connect 4 0 8 0;
#X connect 4 1 6 0;
#X connect 4 1 8 1;
#X connect 17 0 18 0;
#X connect 22 0 4 2;
#X connect 23 0 36 0;
#X connect 24 0 33 0;
#X connect 31 0 32 0;
#X connect 33 0 34 0;
#X connect 34 0 4 3;
#X connect 35 0 8 2;
#X connect 36 0 35 0;
#X coords 0 -1 1 1 150 140 2 100 100;
