#N canvas 43 29 450 300 10;
#X obj 160 43 inlet;
#X obj 214 191 outlet;
#X obj 238 109 + 1;
#X obj 196 110 f 0;
#X obj 204 157 sel 0;
#X obj 188 83 bang;
#X obj 201 133 mod \$1;
#X obj 272 27 inlet;
#X obj 350 43 inlet;
#X obj 272 49 t b f;
#X msg 272 71 0;
#X connect 0 0 5 0;
#X connect 2 0 3 1;
#X connect 3 0 2 0;
#X connect 3 0 6 0;
#X connect 4 0 1 0;
#X connect 5 0 3 0;
#X connect 6 0 4 0;
#X connect 7 0 9 0;
#X connect 8 0 3 1;
#X connect 9 0 10 0;
#X connect 9 1 6 1;
#X connect 10 0 3 1;
