#N canvas -11 271 2195 912 10;
#X declare -lib /Users/shree/Library/Pd/arraysize;
#X declare -path /Users/shree/Documents/Pd/abs;
#X declare -path /Users/shree/Documents/Pd/abs;
#X declare -path /Users/shree/Library/Pd/maxlib;
#X declare -lib /Users/shree/Library/Pd/maxlib/arraycopy;
#X declare -path /Users/shree/Library/Pd/bsaylor;
#X declare -lib /Users/shree/Library/Pd/maxlib/svf~;
#X declare -path /Users/shree/Library/Pd/sigpack;
#N canvas 1059 447 1384 729 (subpatch) 0;
#X obj 23 58 tgl 20 0 \$0on \$0on empty 17 7 0 10 -261234 -1 -1 1 1
;
#N canvas 0 22 800 532 (subpatch) 0;
#X array loop 352802 float 2;
#X coords 0 1 352802 -1 212 70 1 0 0;
#X restore 4 106 graph;
#X obj 7 178 hsl 207 8 0 352802 0 0 empty \$0pos empty -2 -8 0 10 -262144
-1 -1 17974 1;
#X text 14 43 ON/OFF;
#X obj 87 58 bng 20 250 50 0 \$0open \$0open empty 17 7 0 10 -261234
-1 -1;
#X text 84 22 Open;
#X text 74 33 WAV/AIFF;
#X text 78 42 sample;
#X obj 152 59 nbx 3 20 0 1e+26 0 0 \$0tempo \$0tempo empty 0 -8 0 10
-261234 -1 -1 59.9997 256;
#X text 154 20 Tempo;
#X text 146 31 (Slices;
#X text 139 42 per minute);
#N canvas 976 211 638 388 open 0;
#X restore 14 231 pd open file;
#N canvas 0 22 669 514 read 0;
#X obj 184 136 pack f f f;
#X obj 184 188 vline~;
#X msg 184 163 \$1 \, \$2 \$3;
#X obj 128 142 line;
#X obj 130 171 s \$0pos;
#X obj 188 243 outlet~;
#X obj 107 29 inlet;
#X obj 173 32 inlet;
#X obj 234 36 inlet;
#X obj 184 211 tabread~ loop;
#X connect 0 0 2 0;
#X connect 1 0 9 0;
#X connect 2 0 1 0;
#X connect 2 0 3 0;
#X connect 3 0 4 0;
#X connect 6 0 0 0;
#X connect 7 0 0 1;
#X connect 8 0 0 2;
#X connect 9 0 5 0;
#X restore 305 497 pd read table;
#X obj 292 566 throw~ \$0beat;
#X obj 572 -9 loadbang;
#X msg 573 34 \; pd dsp 1;
#X obj 650 48 s \$0ns;
#X msg 651 26 8;
#X obj 401 53 f;
#X obj 467 53 f;
#X obj 308 164 f;
#X obj 453 229 *;
#X obj 524 289 f;
#X obj 429 282 +;
#X obj 400 325 f;
#X obj 308 53 t b b b;
#X obj 308 16 metro 100;
#X obj 504 168 bng 15 250 50 0 empty empty empty 17 7 0 10 -262144
-1 -1;
#X obj 504 191 t b b;
#X floatatom 487 107 5 0 0 0 - #0ns -, f 5;
#X obj 614 314 spigot;
#X obj 647 283 tgl 15 0 empty empty empty 17 7 0 10 -262144 -1 -1 0
1;
#X obj 306 -45 r \$0on;
#X obj 416 -11 r \$0smp;
#X obj 482 -12 r \$0ms;
#X obj 565 214 r \$0slice;
#X obj 647 252 r \$0rev;
#X obj 250 114 s \$0oo;
#X obj 318 -13 b;
#X obj 302 524 *~;
#X obj 347 526 r \$0on;
#N canvas 0 22 450 300 tempo 0;
#X obj 101 238 s \$0ms;
#X obj 102 19 r \$0length;
#X obj 100 88 s \$0tempo;
#X obj 102 114 r \$0tempo;
#X obj 100 43 expr 60000 / $f1;
#X obj 101 147 expr 60000 / $f1;
#X obj 99 62 * 8;
#X obj 98 192 * 8;
#X obj 303 92 r \$0ns;
#X connect 1 0 4 0;
#X connect 3 0 5 0;
#X connect 4 0 6 0;
#X connect 5 0 7 0;
#X connect 6 0 2 0;
#X connect 7 0 0 0;
#X connect 8 0 7 1;
#X connect 8 0 6 1;
#X restore 15 282 pd tempo;
#X obj 386 163 / 8;
#X obj 452 163 / 8;
#X connect 8 0 39 0;
#X connect 13 0 40 0;
#X connect 15 0 16 0;
#X connect 15 0 18 0;
#X connect 18 0 17 0;
#X connect 19 0 43 0;
#X connect 20 0 44 0;
#X connect 21 0 13 0;
#X connect 22 0 23 1;
#X connect 22 0 24 1;
#X connect 22 0 21 1;
#X connect 23 0 13 1;
#X connect 24 0 25 1;
#X connect 24 0 13 1;
#X connect 25 0 13 0;
#X connect 26 0 21 0;
#X connect 26 1 19 0;
#X connect 26 2 20 0;
#X connect 27 0 26 0;
#X connect 27 0 31 0;
#X connect 27 0 38 0;
#X connect 28 0 29 0;
#X connect 29 0 25 0;
#X connect 29 1 23 0;
#X connect 30 0 43 1;
#X connect 30 0 44 1;
#X connect 31 0 28 0;
#X connect 32 0 31 1;
#X connect 33 0 27 0;
#X connect 34 0 19 1;
#X connect 35 0 20 1;
#X connect 36 0 22 1;
#X connect 37 0 32 0;
#X connect 39 0 27 0;
#X connect 40 0 14 0;
#X connect 41 0 40 1;
#X connect 43 0 22 0;
#X connect 43 0 24 0;
#X connect 44 0 13 2;
#X connect 44 0 27 1;
#X coords 0 1 100 -1 220 189 1 0 0;
#X restore 181 103 graph;
#N canvas 0 22 1079 829 (subpatch) 0;
#X obj 264 252 + 1;
#X obj 236 333 sel 0 1 2 3 4 5 6 7;
#X obj 427 426 i;
#X obj 399 426 i;
#X obj 373 426 i;
#X obj 345 426 i;
#X obj 318 426 i;
#X obj 290 426 i;
#X obj 264 426 i;
#X obj 236 426 i;
#X obj 116 3 vradio 15 1 0 8 empty empty empty 0 -8 0 10 -262144 -1
-1 6;
#X obj 100 3 vradio 15 1 0 8 empty empty empty 0 -8 0 10 -262144 -1
-1 3;
#X obj 84 3 vradio 15 1 0 8 empty empty empty 0 -8 0 10 -262144 -1
-1 0;
#X obj 68 3 vradio 15 1 0 8 empty empty empty 0 -8 0 10 -262144 -1
-1 2;
#X obj 52 3 vradio 15 1 0 8 empty empty empty 0 -8 0 10 -262144 -1
-1 7;
#X obj 36 3 vradio 15 1 0 8 empty empty empty 0 -8 0 10 -262144 -1
-1 5;
#X obj 20 3 vradio 15 1 0 8 empty empty empty 0 -8 0 10 -262144 -1
-1 5;
#X obj 4 3 vradio 15 1 0 8 empty empty empty 0 -8 0 10 -262144 -1 -1
3;
#X obj 711 366 i;
#X obj 684 366 i;
#X obj 655 366 i;
#X obj 628 366 i;
#X obj 601 366 i;
#X obj 574 366 i;
#X obj 545 366 i;
#X obj 518 366 i;
#X obj 116 132 tgl 15 0 empty empty empty 17 7 0 10 -262144 -1 -1 1
1;
#X obj 100 132 tgl 15 0 empty empty empty 17 7 0 10 -262144 -1 -1 0
1;
#X obj 84 132 tgl 15 0 empty empty empty 17 7 0 10 -262144 -1 -1 0
1;
#X obj 68 132 tgl 15 0 empty empty empty 17 7 0 10 -262144 -1 -1 1
1;
#X obj 52 132 tgl 15 0 empty empty empty 17 7 0 10 -262144 -1 -1 1
1;
#X obj 36 132 tgl 15 0 empty empty empty 17 7 0 10 -262144 -1 -1 1
1;
#X obj 20 132 tgl 15 0 empty empty empty 17 7 0 10 -262144 -1 -1 0
1;
#X obj 3 132 tgl 15 0 empty empty empty 17 7 0 10 -262144 -1 -1 0 1
;
#X text 141 131 REVERSE;
#X obj 115 168 bng 15 100 50 0 empty empty empty 17 7 0 10 -1 -258113
-1;
#X obj 99 168 bng 15 100 50 0 empty empty empty 17 7 0 10 -1 -258113
-1;
#X obj 83 168 bng 15 100 50 0 empty empty empty 17 7 0 10 -1 -258113
-1;
#X obj 67 168 bng 15 100 50 0 empty empty empty 17 7 0 10 -1 -258113
-1;
#X obj 51 168 bng 15 100 50 0 empty empty empty 17 7 0 10 -1 -258113
-1;
#X obj 35 168 bng 15 100 50 0 empty empty empty 17 7 0 10 -1 -258113
-1;
#X obj 19 168 bng 15 100 50 0 empty empty empty 17 7 0 10 -1 -258113
-1;
#X obj 3 168 bng 15 100 50 0 empty empty empty 17 7 0 10 -1 -258113
-1;
#X obj 133 5 bng 15 250 50 0 empty empty straight 17 7 0 10 -262144
-1 -1;
#X msg 246 34 0;
#X msg 255 55 1;
#X msg 264 74 2;
#X msg 269 95 3;
#X msg 281 119 4;
#X msg 287 139 5;
#X msg 295 160 6;
#X msg 311 183 7;
#X obj 133 25 bng 15 250 50 0 empty empty random 17 7 0 10 -262144
-1 -1;
#X obj 366 39 random 8;
#X obj 378 64 random 8;
#X obj 391 92 random 8;
#X obj 405 114 random 8;
#X obj 418 136 random 8;
#X obj 431 160 random 8;
#X obj 443 189 random 8;
#X obj 457 211 random 8;
#X obj 135 149 bng 15 250 50 0 empty empty random 17 7 0 10 -262144
-1 -1;
#X obj 106 255 random 2;
#X obj 87 272 random 2;
#X obj 76 293 random 2;
#X obj 66 315 random 2;
#X obj 54 334 random 2;
#X obj 41 360 random 2;
#X obj 17 408 random 2;
#X obj 121 235 random 2;
#X obj 300 11 loadbang;
#X obj 133 43 bng 15 250 50 0 empty empty back 17 7 0 10 -262144 -1
-1;
#X msg 629 25 0;
#X msg 612 47 1;
#X msg 595 69 2;
#X msg 585 91 3;
#X msg 572 112 4;
#X msg 559 133 5;
#X msg 547 154 6;
#X msg 537 177 7;
#X obj 498 478 s \$0rev;
#X obj 237 475 s \$0slice;
#X obj 236 226 r \$0oo;
#X floatatom 236 308 5 0 0 0 - - -, f 5;
#X obj 236 252 f;
#X obj 236 287 mod 8;
#X connect 0 0 84 1;
#X connect 1 0 9 0;
#X connect 1 0 25 0;
#X connect 1 0 42 0;
#X connect 1 1 8 0;
#X connect 1 1 24 0;
#X connect 1 1 41 0;
#X connect 1 2 7 0;
#X connect 1 2 23 0;
#X connect 1 2 40 0;
#X connect 1 3 6 0;
#X connect 1 3 22 0;
#X connect 1 3 39 0;
#X connect 1 4 5 0;
#X connect 1 4 21 0;
#X connect 1 4 38 0;
#X connect 1 5 4 0;
#X connect 1 5 20 0;
#X connect 1 5 37 0;
#X connect 1 6 3 0;
#X connect 1 6 19 0;
#X connect 1 6 36 0;
#X connect 1 7 2 0;
#X connect 1 7 18 0;
#X connect 1 7 35 0;
#X connect 2 0 81 0;
#X connect 3 0 81 0;
#X connect 4 0 81 0;
#X connect 5 0 81 0;
#X connect 6 0 81 0;
#X connect 7 0 81 0;
#X connect 8 0 81 0;
#X connect 9 0 81 0;
#X connect 10 0 2 1;
#X connect 11 0 3 1;
#X connect 12 0 4 1;
#X connect 13 0 5 1;
#X connect 14 0 6 1;
#X connect 15 0 7 1;
#X connect 16 0 8 1;
#X connect 17 0 9 1;
#X connect 18 0 80 0;
#X connect 19 0 80 0;
#X connect 20 0 80 0;
#X connect 21 0 80 0;
#X connect 22 0 80 0;
#X connect 23 0 80 0;
#X connect 24 0 80 0;
#X connect 25 0 80 0;
#X connect 26 0 18 1;
#X connect 27 0 19 1;
#X connect 28 0 20 1;
#X connect 29 0 21 1;
#X connect 30 0 22 1;
#X connect 31 0 23 1;
#X connect 32 0 24 1;
#X connect 33 0 25 1;
#X connect 43 0 44 0;
#X connect 43 0 45 0;
#X connect 43 0 46 0;
#X connect 43 0 47 0;
#X connect 43 0 48 0;
#X connect 43 0 49 0;
#X connect 43 0 50 0;
#X connect 43 0 51 0;
#X connect 44 0 17 0;
#X connect 45 0 16 0;
#X connect 46 0 15 0;
#X connect 47 0 14 0;
#X connect 48 0 13 0;
#X connect 49 0 12 0;
#X connect 50 0 11 0;
#X connect 51 0 10 0;
#X connect 52 0 53 0;
#X connect 52 0 54 0;
#X connect 52 0 55 0;
#X connect 52 0 56 0;
#X connect 52 0 57 0;
#X connect 52 0 58 0;
#X connect 52 0 59 0;
#X connect 52 0 60 0;
#X connect 53 0 17 0;
#X connect 54 0 16 0;
#X connect 55 0 15 0;
#X connect 56 0 14 0;
#X connect 57 0 13 0;
#X connect 58 0 12 0;
#X connect 59 0 11 0;
#X connect 60 0 10 0;
#X connect 61 0 69 0;
#X connect 61 0 62 0;
#X connect 61 0 63 0;
#X connect 61 0 64 0;
#X connect 61 0 65 0;
#X connect 61 0 66 0;
#X connect 61 0 67 0;
#X connect 61 0 68 0;
#X connect 62 0 27 0;
#X connect 63 0 28 0;
#X connect 64 0 29 0;
#X connect 65 0 30 0;
#X connect 66 0 31 0;
#X connect 67 0 32 0;
#X connect 68 0 33 0;
#X connect 69 0 26 0;
#X connect 70 0 43 0;
#X connect 71 0 72 0;
#X connect 71 0 73 0;
#X connect 71 0 74 0;
#X connect 71 0 75 0;
#X connect 71 0 76 0;
#X connect 71 0 77 0;
#X connect 71 0 78 0;
#X connect 71 0 79 0;
#X connect 72 0 10 0;
#X connect 73 0 11 0;
#X connect 74 0 12 0;
#X connect 75 0 13 0;
#X connect 76 0 14 0;
#X connect 77 0 15 0;
#X connect 78 0 16 0;
#X connect 79 0 17 0;
#X connect 82 0 84 0;
#X connect 83 0 1 0;
#X connect 84 0 0 0;
#X connect 84 0 85 0;
#X connect 85 0 83 0;
#X coords 0 1 100 -1 200 189 1 0 0;
#X restore 404 103 graph;
#X msg 712 21 bang;
#X msg 776 116 stop;
#X obj 764 90 bng 15 250 50 0 empty empty empty 17 7 0 10 -262144 -1
-1;
#X obj 659 35 adc~;
#X obj 793 290 / 44.1;
#X obj 720 316 s \$0pos;
#X msg 720 297 range 0 \$1;
#X obj 663 296 s \$0smp;
#X obj 794 338 s \$0length;
#X obj 112 20 declare -lib /Users/shree/Library/Pd/arraysize;
#X msg 826 164 bang;
#X obj 860 104 del 20;
#X obj 860 130 bng 15 250 50 0 empty empty empty 17 7 0 10 -262144
-1 -1;
#X obj 763 66 del 8000;
#X obj 1069 134 vsl 15 160 0 120 0 0 empty empty empty 0 -9 0 10 -262144
-1 -1 12000 1;
#X obj 1069 69 loadbang;
#N canvas 1259 509 960 658 output~ 0;
#X obj 44 400 dac~;
#X text 89 377 audio;
#X obj 54 36 inlet~;
#X obj 45 370 *~;
#X text 15 20 ouput~;
#X obj 566 173 dbtorms;
#X obj 519 91 inlet;
#X text 519 68 level;
#X obj 566 219 line~;
#X text 576 155 show level;
#X obj 566 197 pack 0 500;
#X obj 566 110 loadbang;
#X msg 566 131 100;
#X obj 194 455 r~ 1-nothing;
#X obj 399 460 r~ 1-nothing;
#X obj 194 435 r \$1-\$2L-r;
#X obj 403 434 r \$1-\$2R-r;
#X obj 399 520 s~ \$1-\$2R;
#X obj 194 515 s~ \$1-\$2L;
#N canvas 401 243 448 396 output_mixer 0;
#X obj 169 11 inlet bass;
#X obj 245 11 inlet mids;
#X obj 321 11 inlet highs;
#X obj 22 357 outlet~;
#X obj 191 255 *~;
#X obj 221 255 *~;
#X obj 151 255 *~;
#X obj 22 318 *~;
#X obj 130 318 *~;
#N canvas 172 59 711 324 biquad~ 0;
#X obj 26 15 inlet~;
#X obj 26 255 outlet~;
#X obj 154 255 outlet~;
#X obj 296 255 outlet~;
#X obj 26 55 biquad~ 1.86972 -0.872325 0.000650245 0.00130049 0.000650245
;
#X obj 26 75 biquad~ 1.86972 -0.872325 0.000650245 0.00130049 0.000650245
;
#X obj 26 95 biquad~ 1.86972 -0.872325 0.000650245 0.00130049 0.000650245
;
#X obj 154 125 biquad~ 1.36591 -0.385279 0.307361 0 -0.307361;
#X obj 154 145 biquad~ 1.36591 -0.385279 0.307361 0 -0.307361;
#X obj 154 165 biquad~ 1.36591 -0.385279 0.307361 0 -0.307361;
#X obj 296 195 biquad~ 1.63386 -0.729864 0.840931 -1.68186 0.840931
;
#X obj 296 215 biquad~ 1.63386 -0.729864 0.840931 -1.68186 0.840931
;
#X connect 0 0 4 0;
#X connect 0 0 7 0;
#X connect 0 0 10 0;
#X connect 4 0 5 0;
#X connect 5 0 6 0;
#X connect 6 0 1 0;
#X connect 7 0 8 0;
#X connect 8 0 9 0;
#X connect 9 0 2 0;
#X connect 10 0 11 0;
#X connect 11 0 3 0;
#X restore 128 161 pd biquad~;
#X obj 22 11 inlet~;
#X obj 38 258 cos;
#X obj 88 258 sin;
#X obj 71 41 * 0.015708;
#X obj 38 298 line~;
#X msg 38 278 \$1 50;
#X obj 88 298 line~;
#X msg 88 278 \$1 50;
#X obj 71 11 inlet dry-wet;
#X connect 0 0 6 1;
#X connect 1 0 4 1;
#X connect 2 0 5 1;
#X connect 4 0 8 1;
#X connect 5 0 8 1;
#X connect 6 0 8 1;
#X connect 7 0 3 0;
#X connect 8 0 3 0;
#X connect 9 0 6 0;
#X connect 9 1 4 0;
#X connect 9 2 5 0;
#X connect 10 0 7 0;
#X connect 10 0 9 0;
#X connect 11 0 15 0;
#X connect 12 0 17 0;
#X connect 13 0 12 0;
#X connect 13 0 11 0;
#X connect 14 0 7 1;
#X connect 15 0 14 0;
#X connect 16 0 8 0;
#X connect 17 0 16 0;
#X connect 18 0 13 0;
#X restore 194 485 pd output_mixer;
#X obj 464 213 * 4;
#X obj 521 254 * 4;
#X obj 594 284 * 4;
#X obj 630 342 * 4;
#X obj 280 372 * 0.04;
#X obj 354 375 * 0.04;
#X obj 416 373 * 0.04;
#X obj 218 380 * 4;
#N canvas 401 243 448 396 output_mixer 0;
#X obj 169 11 inlet bass;
#X obj 245 11 inlet mids;
#X obj 321 11 inlet highs;
#X obj 22 357 outlet~;
#X obj 191 255 *~;
#X obj 221 255 *~;
#X obj 151 255 *~;
#X obj 22 318 *~;
#X obj 130 318 *~;
#N canvas 172 59 711 324 biquad~ 0;
#X obj 26 15 inlet~;
#X obj 26 255 outlet~;
#X obj 154 255 outlet~;
#X obj 296 255 outlet~;
#X obj 26 55 biquad~ 1.86972 -0.872325 0.000650245 0.00130049 0.000650245
;
#X obj 26 75 biquad~ 1.86972 -0.872325 0.000650245 0.00130049 0.000650245
;
#X obj 26 95 biquad~ 1.86972 -0.872325 0.000650245 0.00130049 0.000650245
;
#X obj 154 125 biquad~ 1.36591 -0.385279 0.307361 0 -0.307361;
#X obj 154 145 biquad~ 1.36591 -0.385279 0.307361 0 -0.307361;
#X obj 154 165 biquad~ 1.36591 -0.385279 0.307361 0 -0.307361;
#X obj 296 195 biquad~ 1.63386 -0.729864 0.840931 -1.68186 0.840931
;
#X obj 296 215 biquad~ 1.63386 -0.729864 0.840931 -1.68186 0.840931
;
#X connect 0 0 4 0;
#X connect 0 0 7 0;
#X connect 0 0 10 0;
#X connect 4 0 5 0;
#X connect 5 0 6 0;
#X connect 6 0 1 0;
#X connect 7 0 8 0;
#X connect 8 0 9 0;
#X connect 9 0 2 0;
#X connect 10 0 11 0;
#X connect 11 0 3 0;
#X restore 128 161 pd biquad~;
#X obj 22 11 inlet~;
#X obj 38 258 cos;
#X obj 88 258 sin;
#X obj 71 41 * 0.015708;
#X obj 38 298 line~;
#X msg 38 278 \$1 50;
#X obj 88 298 line~;
#X msg 88 278 \$1 50;
#X obj 71 11 inlet dry-wet;
#X connect 0 0 6 1;
#X connect 1 0 4 1;
#X connect 2 0 5 1;
#X connect 4 0 8 1;
#X connect 5 0 8 1;
#X connect 6 0 8 1;
#X connect 7 0 3 0;
#X connect 8 0 3 0;
#X connect 9 0 6 0;
#X connect 9 1 4 0;
#X connect 9 2 5 0;
#X connect 10 0 7 0;
#X connect 10 0 9 0;
#X connect 11 0 15 0;
#X connect 12 0 17 0;
#X connect 13 0 12 0;
#X connect 13 0 11 0;
#X connect 14 0 7 1;
#X connect 15 0 14 0;
#X connect 16 0 8 0;
#X connect 17 0 16 0;
#X connect 18 0 13 0;
#X restore 399 490 pd output_mixer;
#X obj 204 213 mmm-ctrl \$1 \$2 1 dry-wet 0 25 25 ext;
#X obj 281 254 mmm-ctrl \$1 \$2 2 bass 0 25 25 ext;
#X obj 355 284 mmm-ctrl \$1 \$2 3 mids 0 25 25 ext;
#X obj 415 340 mmm-ctrl \$1 \$2 4 high 0 25 25 ext;
#X msg 212 698 version 0.3.1;
#X obj 213 725 declare -path /Users/shree/Documents/Pd/abs;
#X obj 675 64 declare -path /Users/shree/Documents/Pd/abs;
#X connect 2 0 3 0;
#X connect 3 0 0 1;
#X connect 3 0 0 0;
#X connect 5 0 10 0;
#X connect 6 0 5 0;
#X connect 8 0 3 1;
#X connect 10 0 8 0;
#X connect 11 0 12 0;
#X connect 12 0 5 0;
#X connect 13 0 19 0;
#X connect 14 0 28 0;
#X connect 15 0 13 0;
#X connect 16 0 14 0;
#X connect 19 0 18 0;
#X connect 20 0 29 1;
#X connect 21 0 30 1;
#X connect 22 0 31 1;
#X connect 23 0 32 1;
#X connect 24 0 19 2;
#X connect 24 0 28 2;
#X connect 25 0 19 3;
#X connect 25 0 28 3;
#X connect 26 0 19 4;
#X connect 26 0 28 4;
#X connect 27 0 19 1;
#X connect 27 0 28 1;
#X connect 28 0 17 0;
#X connect 29 0 27 0;
#X connect 29 2 20 0;
#X connect 30 0 24 0;
#X connect 30 2 21 0;
#X connect 31 0 25 0;
#X connect 31 2 22 0;
#X connect 32 0 26 0;
#X connect 32 2 23 0;
#X restore 967 169 pd output~;
#X msg 1071 106 100;
#X obj 917 223 catch~ \$0beat;
#X obj 1004 106 r~ \$1-\$2R;
#X obj 962 86 r~ \$1-\$2L;
#X obj 880 600 sig~;
#X obj 925 600 sig~;
#X obj 832 528 mtof;
#X obj 832 391 vsl 15 128 16 135 0 0 empty empty empty 0 -8 0 8 -262144
-1 -1 3100 1;
#X obj 880 391 vsl 15 128 0 1 0 0 empty empty empty 0 -8 0 8 -262144
-1 -1 8000 1;
#X obj 925 390 vsl 15 128 0 1 0 0 empty empty empty 0 -8 0 8 -262144
-1 -1 4800 1;
#X obj 832 600 line~;
#X msg 832 577 \$1 100;
#X floatatom 935 552 5 0 0 0 - - -, f 5;
#X floatatom 890 552 5 0 0 0 - - -, f 5;
#X floatatom 832 552 7 0 0 0 - - -, f 7;
#X msg 992 396 low;
#X msg 992 420 high;
#X msg 992 444 band;
#X msg 992 468 notch;
#X msg 992 492 peak;
#N canvas 10 112 328 354 fft-analysis 0;
#X obj 69 15 inlet~;
#X obj 43 74 rfft~;
#X obj 37 123 *~;
#X obj 81 124 *~;
#X obj 49 167 +~;
#X obj 49 196 sqrt~;
#X obj 27 297 tabsend~ response;
#X obj 171 209 block~ 512 2;
#X obj 182 61 tabreceive~ hanning;
#X obj 164 99 *~;
#X obj 69 36 /~ 8;
#X obj 51 249 clip~ 0 1;
#X connect 0 0 10 0;
#X connect 1 0 2 0;
#X connect 1 0 2 1;
#X connect 1 1 3 0;
#X connect 1 1 3 1;
#X connect 2 0 4 0;
#X connect 3 0 4 1;
#X connect 4 0 5 0;
#X connect 5 0 11 0;
#X connect 8 0 9 1;
#X connect 9 0 1 0;
#X connect 10 0 9 0;
#X connect 11 0 6 0;
#X restore 1042 715 pd fft-analysis;
#N canvas 0 22 450 300 (subpatch) 0;
#X array response 256 float 0;
#X coords 0 1 255 0 256 140 1;
#X restore 1114 109 graph;
#X text 881 370 q;
#X text 906 371 resonance;
#X text 802 371 frequency;
#X text 938 374 filter type;
#X obj 876 669 svf~ low;
#X text 1010 747 Notes:;
#X text 1023 768 'q' controls the filter resonance. The resonance input
is for 'extra' resonance.. :);
#X text 1031 444 <- keep q below 0.1;
#X text 1024 804 The filters don't use the same scale for frequency.
Bandpass frequency seems to be in Hz. If the frequency is set too high
\, LOUD aliasing is produced.;
#X text 1024 852 The bandpass filter is very sensitive to q - normal
range is 0 to 0.1.;
#X text 323 399 tb_peakcomp~ v1.0;
#X text 323 432 Two Big Ears;
#X text 323 445 varun@twobigears.com;
#X text 323 462 ----------------------;
#X text 323 381 ----------------------;
#X text 323 413 Stereo L+R peak compressor;
#X obj 879 722 filterpanel;
#X obj 219 833 env~;
#X floatatom 219 855 5 0 0 0 - - -, f 5;
#X msg 234 485 threshold \$1;
#X msg 235 533 ratio \$1;
#X msg 236 580 attack \$1;
#X msg 237 624 release \$1;
#X msg 239 711 makeup \$1;
#X floatatom 234 467 5 -100 0 0 - - -, f 5;
#X floatatom 235 514 5 1 100 0 - - -, f 5;
#X floatatom 236 562 5 0.001 1000 0 - - -, f 5;
#X floatatom 237 604 5 0.001 1000 0 - - -, f 5;
#X floatatom 239 691 5 0 0 0 - - -, f 5;
#X msg 239 664 knee \$1;
#X floatatom 239 646 5 0 1 0 - - -, f 5;
#X text 325 486 Threshold in dBFS (0 to -infinity);
#X text 324 580 Attack in ms. Default = 0.001 ms;
#X text 324 533 Ratio. Default = 1:1;
#X text 324 625 Release in ms. Default = 0.001 ms;
#X text 324 654 Knee smoothening \, from 0 to 1;
#X text 324 668 0 = hard. 1 = smooth. Default = 0;
#X text 324 711 Makeup gain \, in dB. Default = 0 dB.;
#X obj 60 776 tb_peakcomp~ -10 8 10 100 0;
#X text 237 777 Optional arguments: threshold \, ratio \, attack \,
release \, makeup gain;
#X text 255 832 Gain reduction signal (linear). Analyse or get creative?
;
#X obj 1180 58 declare -path /Users/shree/Library/Pd/maxlib;
#X obj 1182 83 declare -lib /Users/shree/Library/Pd/maxlib/arraycopy
;
#X obj 1585 79 cnv 15 552 40 empty empty arraycopy 3 12 0 18 -204280
-1 0;
#X obj 2074 83 arraycopy;
#X text 1593 102 copy data from one array to another;
#X msg 1694 195 copy \$1-a1 10 15;
#X obj 1614 148 \$0;
#X obj 1614 130 bng 15 250 50 0 empty empty empty 17 7 0 10 -262144
-1 -1;
#X obj 1694 148 \$0;
#X obj 1694 130 bng 15 250 50 0 empty empty empty 17 7 0 10 -262144
-1 -1;
#N canvas 287 450 478 495 advanced 1;
#N canvas 0 50 450 300 (subpatch) 0;
#X array \$0-a4 20 float 1;
#A 0 0 0 0.342857 0.542857 0.6 -0.442857 -0.485714 0.0142858 -0.428571
-0.114286 0.0857143 -0.2 -0.214285 0.314285 -0.157143 -0.314285 -0.142857
-0.0428571 0.114286 -0.685713 ;
#X coords 0 1 19 -1 100 70 1 0 0;
#X restore 336 49 graph;
#N canvas 0 50 450 300 (subpatch) 0;
#X array \$0-a5 20 float 1;
#A 0 -0.082577 0.242578 0.54191 0.78357 0.94185 0.999875 0.951492 0.801858
0.56688 0.271565 -0.0526462 -0.371261 -0.650353 -0.860233 -0.978574
-0.992755 -0.901278 -0.713892 -0.450527 -0.139207;
#X coords 0 1 19 -1 100 70 1 0 0;
#X restore 336 137 graph;
#N canvas 0 50 450 300 (subpatch) 0;
#X array \$0-a6 20 float 1;
#A 0 0 0 0 0 0 0 0 0 0 0 0 0 0 0 0 0 0 0 0 0;
#X coords 0 1 19 -1 100 70 1 0 0;
#X restore 336 226 graph;
#N canvas 1 80 450 300 (subpatch) 0;
#X array \$0-a7 20 float 1;
#A 0 0 0 0 0 0 0 0 0 0 0 0 0 0 0 0 0 0 0 0 0;
#X coords 0 1 19 -1 100 70 1 0 0;
#X restore 336 316 graph;
#X obj 0 0 cnv 15 425 20 empty empty empty 3 12 0 14 -204280 -1 0;
#X text 6 1 Advanced copy operations;
#X text 45 55 copy from value 10 the next 5 values;
#X text 53 105 copy from value 10 to 15;
#X text 58 186 copy from value 10 to 15;
#X text 53 119 into a2 (starting at 0);
#X text 57 200 into a2 starting at 4;
#X obj 17 52 \$0;
#X obj 17 34 bng 15 250 50 0 empty empty empty 17 7 0 10 -262144 -1
-1;
#X obj 26 115 \$0;
#X obj 26 97 bng 15 250 50 0 empty empty empty 17 7 0 10 -262144 -1
-1;
#X msg 26 137 \$1 \$1;
#X obj 32 201 \$0;
#X obj 32 183 bng 15 250 50 0 empty empty empty 17 7 0 10 -262144 -1
-1;
#X msg 32 223 \$1 \$1;
#X msg 57 347 print 1;
#X obj 57 325 loadbang;
#X msg 17 73 copy \$1-a4 10 +5;
#X obj 17 443 arraycopy \$0-a6;
#X msg 26 158 copy \$1-a5 10 15 \$2-a7;
#X msg 32 244 copy \$1-a5 10 15 \$2-a7 4;
#X obj 161 405 symbol;
#X obj 161 362 \$0;
#X obj 161 344 bng 15 250 50 0 empty empty empty 17 7 0 10 -262144
-1 -1;
#X msg 161 383 \$1-a6;
#X obj 203 362 \$0;
#X obj 203 344 bng 15 250 50 0 empty empty empty 17 7 0 10 -262144
-1 -1;
#X msg 203 383 \$1-a7;
#X connect 11 0 21 0;
#X connect 12 0 11 0;
#X connect 13 0 15 0;
#X connect 14 0 13 0;
#X connect 15 0 23 0;
#X connect 16 0 18 0;
#X connect 17 0 16 0;
#X connect 18 0 24 0;
#X connect 19 0 22 0;
#X connect 20 0 19 0;
#X connect 21 0 22 0;
#X connect 23 0 22 0;
#X connect 24 0 22 0;
#X connect 25 0 22 1;
#X connect 26 0 28 0;
#X connect 27 0 26 0;
#X connect 28 0 25 0;
#X connect 29 0 31 0;
#X connect 30 0 29 0;
#X connect 31 0 25 0;
#X restore 1833 372 pd advanced copy options;
#N canvas 0 50 450 300 (subpatch) 0;
#X array \$0-a1 20 float 1;
#A 0 0 0 0.342857 0.542857 0.6 -0.442857 -0.485714 0.0142858 -0.428571
-0.114286 0.0857143 -0.2 -0.214285 0.314285 -0.157143 -0.314285 -0.142857
-0.0428571 0.114286 -0.685713;
#X coords 0 1 19 -1 100 70 1 0 0;
#X restore 2025 139 graph;
#N canvas 0 50 450 300 (subpatch) 0;
#X array \$0-a2 20 float 1;
#A 0 -0.378345 -0.454949 -0.48196 -0.474298 -0.47921 -0.493861 -0.461782
-0.392804 -0.343088 -0.290094 -0.199591 -0.111714 -0.0490533 0.00840104
0.0595539 0.100451 0.129575 0.126884 0.0940646 0.0646292;
#X coords 0 1 19 -1 100 70 1 0 0;
#X restore 2025 229 graph;
#X text 1731 170 copy the whole array;
#X msg 1724 275 print \$1;
#X msg 1724 303 bang;
#X obj 1724 256 tgl 15 0 empty empty empty 17 7 0 10 -262144 -1 -1
0 1;
#N canvas 0 50 450 300 (subpatch) 0;
#X array \$0-a3 20 float 1;
#A 0 -0.0501102 -0.110027 -0.150831 -0.165333 -0.155188 -0.119318 -0.0511861
0.0208551 0.0399559 -0.00973205 -0.0806067 -0.11691 -0.111445 -0.104955
-0.136212 -0.20084 -0.263306 -0.298907 -0.304931 -0.279244;
#X coords 0 1 19 -1 100 70 1 0 0;
#X restore 2025 318 graph;
#X obj 1811 318 symbol;
#X obj 1811 272 \$0;
#X obj 1862 272 \$0;
#X obj 1811 254 bng 15 250 50 0 empty empty empty 17 7 0 10 -262144
-1 -1;
#X obj 1862 254 bng 15 250 50 0 empty empty empty 17 7 0 10 -262144
-1 -1;
#X msg 1811 293 \$1-a2;
#X msg 1862 292 \$1-a3;
#X text 1799 195 copy from position 10 to 15;
#X text -80 351 [colin@loomer.co.uk];
#X obj 1173 8 declare -path /Users/shree/Library/Pd/bsaylor;
#X obj 1175 33 declare -lib /Users/shree/Library/Pd/maxlib/svf~;
#X obj 1472 33 declare -path /Users/shree/Library/Pd/sigpack;
#X obj 832 222 bng 15 250 50 0 empty empty empty 17 7 0 10 -262144
-1 -1;
#X obj 818 248 s b1;
#X obj 687 171 tabwrite~ loop;
#X obj 860 189 arraysize loop;
#X msg 658 197 write -wave foo sampleloop;
#X obj 1032 394 s \$0-sample_count;
#X text 851 294;
#X obj 633 239 tabwrite~ sampleloop;
#X msg 1615 170 copy loop;
#X obj 1663 368 arraycopy sampleloop;
#X connect 2 0 15 0;
#X connect 2 0 114 0;
#X connect 2 0 119 0;
#X connect 3 0 114 0;
#X connect 3 0 116 0;
#X connect 3 0 119 0;
#X connect 4 0 3 0;
#X connect 4 0 13 0;
#X connect 5 0 114 0;
#X connect 5 0 119 0;
#X connect 5 1 114 0;
#X connect 5 1 119 0;
#X connect 6 0 10 0;
#X connect 8 0 7 0;
#X connect 12 0 115 0;
#X connect 13 0 14 0;
#X connect 14 0 12 0;
#X connect 15 0 4 0;
#X connect 16 0 18 1;
#X connect 17 0 19 0;
#X connect 19 0 16 0;
#X connect 20 0 45 0;
#X connect 21 0 18 0;
#X connect 22 0 18 0;
#X connect 23 0 45 2;
#X connect 25 0 33 0;
#X connect 26 0 25 0;
#X connect 27 0 23 0;
#X connect 27 0 32 0;
#X connect 28 0 24 0;
#X connect 28 0 31 0;
#X connect 29 0 45 1;
#X connect 30 0 29 0;
#X connect 33 0 30 0;
#X connect 34 0 45 0;
#X connect 35 0 45 0;
#X connect 36 0 45 0;
#X connect 37 0 45 0;
#X connect 38 0 45 0;
#X connect 45 0 39 0;
#X connect 45 0 57 0;
#X connect 45 0 79 0;
#X connect 45 0 79 1;
#X connect 57 0 18 0;
#X connect 58 0 59 0;
#X connect 60 0 79 0;
#X connect 61 0 79 0;
#X connect 62 0 79 0;
#X connect 63 0 79 0;
#X connect 64 0 79 0;
#X connect 65 0 60 0;
#X connect 66 0 61 0;
#X connect 67 0 62 0;
#X connect 68 0 63 0;
#X connect 69 0 64 0;
#X connect 70 0 79 0;
#X connect 71 0 70 0;
#X connect 79 0 18 0;
#X connect 79 1 18 0;
#X connect 79 2 58 0;
#X connect 87 0 121 0;
#X connect 88 0 120 0;
#X connect 89 0 88 0;
#X connect 90 0 87 0;
#X connect 91 0 90 0;
#X connect 96 0 121 0;
#X connect 97 0 121 0;
#X connect 98 0 96 0;
#X connect 100 0 121 1;
#X connect 101 0 105 0;
#X connect 102 0 106 0;
#X connect 103 0 101 0;
#X connect 104 0 102 0;
#X connect 105 0 100 0;
#X connect 106 0 100 0;
#X connect 112 0 113 0;
#X connect 115 0 9 0;
#X connect 115 0 8 0;
#X connect 115 0 6 0;
#X connect 115 0 112 0;
#X connect 115 0 117 0;
#X connect 116 0 119 0;
#X connect 120 0 121 0;
