#N canvas 279 171 835 494 10;
#X obj 55 230 outlet~;
#X obj 263 58 inlet;
#N canvas 574 51 187 137 \$0-dynamicstuff 0;
#X obj 10 80 outlet~;
#X obj 10 20 catch~ hello;
#X connect 1 0 0 0;
#X restore 53 175 pd \$0-dynamicstuff;
#N canvas 0 23 450 300 \$0-messages 1;
#X obj 73 53 inlet;
#X msg 134 209 obj 10 20 catch~ \$1;
#X obj 134 248 s pd-\$0-dynamicstuff;
#X msg 452 213 clear;
#X obj 75 97 symbol;
#X msg 23 156 connect 1 0 0 0;
#X obj 75 123 t b a b b;
#X msg 270 207 obj 10 80 outlet~;
#X msg 184 59 hello;
#X connect 0 0 4 0;
#X connect 1 0 2 0;
#X connect 3 0 2 0;
#X connect 4 0 6 0;
#X connect 5 0 2 0;
#X connect 6 0 5 0;
#X connect 6 1 1 0;
#X connect 6 2 7 0;
#X connect 6 3 3 0;
#X connect 7 0 2 0;
#X connect 8 0 4 0;
#X restore 291 134 pd \$0-messages;
#X obj 372 53 namecanvas \$0-dyncatch~;
#X obj 263 215 s \$0-dyncatch~;
#X msg 263 184 connect 2 0 0 0;
#X obj 263 95 t b a;
#X connect 1 0 7 0;
#X connect 2 0 0 0;
#X connect 6 0 5 0;
#X connect 7 0 6 0;
#X connect 7 1 3 0;
