#N canvas 477 82 778 442 10;
#X floatatom 148 104 5 0 0 0 keydown #0-keydown -, f 5;
#X floatatom 215 104 5 0 0 0 keyup #0-keyup -, f 5;
#X obj 504 269 s \$0-transp;
#X obj 504 220 * 12;
#X floatatom 148 121 5 -48 48 0 transp #0-transp -, f 5;
#X obj 653 70 loadbang;
#X obj 504 242 + 64;
#X floatatom 148 138 5 0 0 0 transp2 - #0-transp2, f 5;
#X obj 366 358 outlet transp2;
#X obj 160 359 outlet main;
#X obj 240 358 outlet just keydowns;
#X obj 459 360 outlet transp2 just keydowns;
#X obj 512 20 key;
#X obj 483 84 sel 59 113;
#X obj 504 185 expr $f1+$f2;
#X msg 593 154 -1;
#X msg 527 157 0;
#X msg 609 195 set \$1;
#X obj 510 113 t b b;
#X obj 553 115 t b b;
#X msg 628 158 1;
#N canvas 210 182 934 410 keydown_dvorak 1;
#X msg 25 156 0;
#X msg 56 156 1;
#X msg 87 156 2;
#X msg 121 156 3;
#X msg 156 156 4;
#X msg 188 156 5;
#X msg 220 156 6;
#X msg 255 156 7;
#X msg 289 156 8;
#X msg 320 156 9;
#X msg 350 156 10;
#X msg 384 156 11;
#X msg 415 156 12;
#X msg 445 156 13;
#X msg 478 156 14;
#X obj 59 214 + 64;
#X obj 44 355 outlet;
#X obj 131 221 r \$0-transp;
#X obj 46 317 pack f 100;
#X obj 290 307 pack f 0;
#X msg 295 200 0;
#X msg 326 200 1;
#X msg 357 200 2;
#X msg 391 200 3;
#X msg 426 200 4;
#X msg 458 200 5;
#X msg 490 200 6;
#X msg 525 200 7;
#X msg 559 200 8;
#X msg 590 200 9;
#X msg 620 200 10;
#X msg 654 200 11;
#X msg 685 200 12;
#X msg 715 200 13;
#X msg 748 200 14;
#X obj 329 285 + 64;
#X obj 401 292 r \$0-transp;
#X obj 142 358 outlet;
#X obj 134 250 s \$0-keydown;
#X obj 315 328 s \$0-keyup;
#X obj 589 273 r \$0-transp2;
#X obj 595 307 +;
#X obj 653 310 +;
#X obj 605 362 outlet;
#X obj 671 364 outlet;
#X obj 593 339 pack f 100;
#X obj 664 340 pack f 0;
#X text 684 256 secondary outlet;
#X obj 55 52 keysupress 97;
#X obj 74 72 keysupress 44;
#X obj 155 51 keysupress 46;
#X obj 192 94 keysupress 117;
#X obj 255 51 keysupress 121;
#X obj 274 72 keysupress 105;
#X obj 292 94 keysupress 102;
#X obj 355 51 keysupress 100;
#X obj 374 72 keysupress 103;
#X obj 392 94 keysupress 104;
#X obj 455 51 keysupress 116;
#X obj 474 72 keysupress 114;
#X obj 492 94 keysupress 110;
#X obj 92 94 keysupress 111;
#X obj 174 72 keysupress 101;
#X obj 161 10 inlet;
#X obj 278 9 inlet;
#X msg 512 159 15;
#X msg 781 205 15;
#X msg 546 162 16;
#X msg 815 203 16;
#X obj 755 31 key;
#X floatatom 755 53 5 0 0 0 - - -, f 5;
#X obj 583 49 keysupress 108;
#X obj 593 69 keysupress 115;
#X obj 603 89 keysupress 47;
#X obj 697 81 keysupress 45;
#X msg 582 156 17;
#X msg 617 158 18;
#X msg 848 202 17;
#X msg 883 204 18;
#X connect 0 0 15 0;
#X connect 1 0 15 0;
#X connect 2 0 15 0;
#X connect 3 0 15 0;
#X connect 4 0 15 0;
#X connect 5 0 15 0;
#X connect 6 0 15 0;
#X connect 7 0 15 0;
#X connect 8 0 15 0;
#X connect 9 0 15 0;
#X connect 10 0 15 0;
#X connect 11 0 15 0;
#X connect 12 0 15 0;
#X connect 13 0 15 0;
#X connect 14 0 15 0;
#X connect 15 0 18 0;
#X connect 15 0 38 0;
#X connect 15 0 41 0;
#X connect 17 0 15 1;
#X connect 18 0 16 0;
#X connect 19 0 37 0;
#X connect 19 0 39 0;
#X connect 20 0 35 0;
#X connect 21 0 35 0;
#X connect 22 0 35 0;
#X connect 23 0 35 0;
#X connect 24 0 35 0;
#X connect 25 0 35 0;
#X connect 26 0 35 0;
#X connect 27 0 35 0;
#X connect 28 0 35 0;
#X connect 29 0 35 0;
#X connect 30 0 35 0;
#X connect 31 0 35 0;
#X connect 32 0 35 0;
#X connect 33 0 35 0;
#X connect 34 0 35 0;
#X connect 35 0 19 0;
#X connect 35 0 42 0;
#X connect 36 0 35 1;
#X connect 40 0 41 1;
#X connect 40 0 42 1;
#X connect 41 0 45 0;
#X connect 42 0 46 0;
#X connect 45 0 43 0;
#X connect 46 0 44 0;
#X connect 48 0 0 0;
#X connect 48 1 20 0;
#X connect 49 0 1 0;
#X connect 49 1 21 0;
#X connect 50 0 3 0;
#X connect 50 1 23 0;
#X connect 51 0 5 0;
#X connect 51 1 25 0;
#X connect 52 0 6 0;
#X connect 52 1 26 0;
#X connect 53 0 7 0;
#X connect 53 1 27 0;
#X connect 54 0 8 0;
#X connect 54 1 28 0;
#X connect 55 0 9 0;
#X connect 55 1 29 0;
#X connect 56 0 10 0;
#X connect 56 1 30 0;
#X connect 57 0 11 0;
#X connect 57 1 31 0;
#X connect 58 0 12 0;
#X connect 58 1 32 0;
#X connect 59 0 13 0;
#X connect 59 1 33 0;
#X connect 60 0 14 0;
#X connect 60 1 34 0;
#X connect 61 0 2 0;
#X connect 61 1 22 0;
#X connect 62 0 4 0;
#X connect 62 1 24 0;
#X connect 63 0 48 0;
#X connect 63 0 49 0;
#X connect 63 0 61 0;
#X connect 63 0 50 0;
#X connect 63 0 62 0;
#X connect 63 0 51 0;
#X connect 63 0 52 0;
#X connect 63 0 53 0;
#X connect 63 0 54 0;
#X connect 63 0 55 0;
#X connect 63 0 56 0;
#X connect 63 0 57 0;
#X connect 63 0 58 0;
#X connect 63 0 59 0;
#X connect 63 0 60 0;
#X connect 63 0 71 0;
#X connect 63 0 72 0;
#X connect 63 0 73 0;
#X connect 63 0 74 0;
#X connect 64 0 48 1;
#X connect 64 0 49 1;
#X connect 64 0 61 1;
#X connect 64 0 50 1;
#X connect 64 0 62 1;
#X connect 64 0 51 1;
#X connect 64 0 52 1;
#X connect 64 0 53 1;
#X connect 64 0 54 1;
#X connect 64 0 55 1;
#X connect 64 0 56 1;
#X connect 64 0 57 1;
#X connect 64 0 58 1;
#X connect 64 0 59 1;
#X connect 64 0 60 1;
#X connect 64 0 71 1;
#X connect 64 0 72 1;
#X connect 64 0 73 1;
#X connect 64 0 74 1;
#X connect 65 0 15 0;
#X connect 66 0 35 0;
#X connect 67 0 15 0;
#X connect 68 0 35 0;
#X connect 69 0 70 0;
#X connect 71 0 65 0;
#X connect 71 1 66 0;
#X connect 72 0 67 0;
#X connect 72 1 68 0;
#X connect 73 0 75 0;
#X connect 73 1 77 0;
#X connect 74 0 76 0;
#X connect 74 1 78 0;
#X connect 75 0 15 0;
#X connect 76 0 15 0;
#X connect 77 0 35 0;
#X connect 78 0 35 0;
#X restore 164 307 pd keydown_dvorak;
#X obj 282 98 key;
#X obj 320 98 keyup;
#N canvas 325 152 814 405 keydown_qwerty 0;
#X msg 25 156 0;
#X msg 56 156 1;
#X msg 87 156 2;
#X msg 121 156 3;
#X msg 156 156 4;
#X msg 188 156 5;
#X msg 220 156 6;
#X msg 255 156 7;
#X msg 289 156 8;
#X msg 320 156 9;
#X msg 350 156 10;
#X msg 384 156 11;
#X msg 415 156 12;
#X msg 445 156 13;
#X msg 478 156 14;
#X obj 59 214 + 64;
#X obj 44 355 outlet;
#X obj 131 221 r \$0-transp;
#X obj 46 317 pack f 100;
#X obj 290 307 pack f 0;
#X msg 295 200 0;
#X msg 326 200 1;
#X msg 357 200 2;
#X msg 391 200 3;
#X msg 426 200 4;
#X msg 458 200 5;
#X msg 490 200 6;
#X msg 525 200 7;
#X msg 559 200 8;
#X msg 590 200 9;
#X msg 620 200 10;
#X msg 654 200 11;
#X msg 685 200 12;
#X msg 715 200 13;
#X msg 748 200 14;
#X obj 329 285 + 64;
#X obj 401 292 r \$0-transp;
#X obj 142 358 outlet;
#X obj 134 250 s \$0-keydown;
#X obj 315 328 s \$0-keyup;
#X obj 589 273 r \$0-transp2;
#X obj 595 307 +;
#X obj 653 310 +;
#X obj 605 362 outlet;
#X obj 671 364 outlet;
#X obj 593 339 pack f 100;
#X obj 664 340 pack f 0;
#X text 684 256 secondary outlet;
#X obj 55 52 keysupress 97;
#X obj 161 10 inlet;
#X obj 278 9 inlet;
#X obj 75 71 keysupress 119;
#X obj 92 94 keysupress 115;
#X obj 155 51 keysupress 101;
#X obj 174 72 keysupress 100;
#X obj 192 94 keysupress 102;
#X obj 274 72 keysupress 103;
#X obj 255 51 keysupress 116;
#X obj 292 94 keysupress 121;
#X obj 355 51 keysupress 104;
#X obj 374 72 keysupress 117;
#X obj 392 94 keysupress 106;
#X obj 455 51 keysupress 107;
#X obj 474 72 keysupress 111;
#X obj 492 94 keysupress 108;
#X connect 0 0 15 0;
#X connect 1 0 15 0;
#X connect 2 0 15 0;
#X connect 3 0 15 0;
#X connect 4 0 15 0;
#X connect 5 0 15 0;
#X connect 6 0 15 0;
#X connect 7 0 15 0;
#X connect 8 0 15 0;
#X connect 9 0 15 0;
#X connect 10 0 15 0;
#X connect 11 0 15 0;
#X connect 12 0 15 0;
#X connect 13 0 15 0;
#X connect 14 0 15 0;
#X connect 15 0 18 0;
#X connect 15 0 38 0;
#X connect 15 0 41 0;
#X connect 17 0 15 1;
#X connect 18 0 16 0;
#X connect 19 0 37 0;
#X connect 19 0 39 0;
#X connect 20 0 35 0;
#X connect 21 0 35 0;
#X connect 22 0 35 0;
#X connect 23 0 35 0;
#X connect 24 0 35 0;
#X connect 25 0 35 0;
#X connect 26 0 35 0;
#X connect 27 0 35 0;
#X connect 28 0 35 0;
#X connect 29 0 35 0;
#X connect 30 0 35 0;
#X connect 31 0 35 0;
#X connect 32 0 35 0;
#X connect 33 0 35 0;
#X connect 34 0 35 0;
#X connect 35 0 19 0;
#X connect 35 0 42 0;
#X connect 36 0 35 1;
#X connect 40 0 41 1;
#X connect 40 0 42 1;
#X connect 41 0 45 0;
#X connect 42 0 46 0;
#X connect 45 0 43 0;
#X connect 46 0 44 0;
#X connect 48 0 0 0;
#X connect 48 1 20 0;
#X connect 49 0 48 0;
#X connect 49 0 51 0;
#X connect 49 0 52 0;
#X connect 49 0 53 0;
#X connect 49 0 54 0;
#X connect 49 0 55 0;
#X connect 49 0 56 0;
#X connect 49 0 57 0;
#X connect 49 0 58 0;
#X connect 49 0 59 0;
#X connect 49 0 60 0;
#X connect 49 0 61 0;
#X connect 49 0 62 0;
#X connect 49 0 63 0;
#X connect 49 0 64 0;
#X connect 50 0 48 1;
#X connect 50 0 51 1;
#X connect 50 0 52 1;
#X connect 50 0 53 1;
#X connect 50 0 54 1;
#X connect 50 0 55 1;
#X connect 50 0 56 1;
#X connect 50 0 57 1;
#X connect 50 0 58 1;
#X connect 50 0 59 1;
#X connect 50 0 60 1;
#X connect 50 0 61 1;
#X connect 50 0 62 1;
#X connect 50 0 63 1;
#X connect 50 0 64 1;
#X connect 51 0 1 0;
#X connect 51 1 21 0;
#X connect 52 0 2 0;
#X connect 52 1 22 0;
#X connect 53 0 3 0;
#X connect 53 1 23 0;
#X connect 54 0 4 0;
#X connect 54 1 24 0;
#X connect 55 0 5 0;
#X connect 55 1 25 0;
#X connect 56 0 7 0;
#X connect 56 1 27 0;
#X connect 57 0 6 0;
#X connect 57 1 26 0;
#X connect 58 0 8 0;
#X connect 58 1 28 0;
#X connect 59 0 9 0;
#X connect 59 1 29 0;
#X connect 60 0 10 0;
#X connect 60 1 30 0;
#X connect 61 0 11 0;
#X connect 61 1 31 0;
#X connect 62 0 12 0;
#X connect 62 1 32 0;
#X connect 63 0 13 0;
#X connect 63 1 33 0;
#X connect 64 0 14 0;
#X connect 64 1 34 0;
#X restore 286 306 pd keydown_qwerty;
#X obj 192 136 hradio 15 1 0 2 empty empty dvorak/qwerty -8 -8 0 8
-262144 -1 -1 0;
#X obj 263 142 spigot;
#X obj 353 140 spigot;
#X obj 277 164 spigot;
#X obj 363 163 spigot;
#X obj 192 181 sel 0 1;
#X obj 393 111 unpack f f;
#X msg 394 82 1 0;
#X msg 424 83 0 1;
#X obj 194 59 loadbang;
#X msg 194 81 0;
#X msg 646 125 set 1;
#X obj 653 92 t b b b;
#X obj 551 82 sel 122 120;
#X obj 483 61 spigot;
#X obj 551 62 spigot;
#X connect 3 0 6 0;
#X connect 5 0 37 0;
#X connect 6 0 2 0;
#X connect 12 0 39 0;
#X connect 12 0 40 0;
#X connect 13 0 18 0;
#X connect 13 1 19 0;
#X connect 14 0 17 0;
#X connect 14 0 3 0;
#X connect 15 0 14 1;
#X connect 16 0 14 0;
#X connect 17 0 16 0;
#X connect 18 0 16 0;
#X connect 18 1 15 0;
#X connect 19 0 16 0;
#X connect 19 1 20 0;
#X connect 20 0 14 1;
#X connect 21 0 9 0;
#X connect 21 0 10 0;
#X connect 21 1 9 0;
#X connect 21 2 8 0;
#X connect 21 2 11 0;
#X connect 21 3 8 0;
#X connect 22 0 26 0;
#X connect 22 0 27 0;
#X connect 23 0 28 0;
#X connect 23 0 29 0;
#X connect 24 0 9 0;
#X connect 24 0 10 0;
#X connect 24 1 9 0;
#X connect 24 2 8 0;
#X connect 24 2 11 0;
#X connect 24 3 8 0;
#X connect 25 0 30 0;
#X connect 26 0 21 0;
#X connect 27 0 24 0;
#X connect 28 0 21 1;
#X connect 29 0 24 1;
#X connect 30 0 32 0;
#X connect 30 1 33 0;
#X connect 31 0 26 1;
#X connect 31 0 28 1;
#X connect 31 0 39 1;
#X connect 31 1 27 1;
#X connect 31 1 29 1;
#X connect 31 1 40 1;
#X connect 32 0 31 0;
#X connect 33 0 31 0;
#X connect 34 0 35 0;
#X connect 35 0 25 0;
#X connect 36 0 16 0;
#X connect 37 0 16 0;
#X connect 37 1 15 0;
#X connect 37 2 36 0;
#X connect 38 0 18 0;
#X connect 38 1 19 0;
#X connect 39 0 13 0;
#X connect 40 0 38 0;
#X coords 0 -1 1 1 150 60 2 100 100;
