#N canvas 446 44 439 431 10;
#X obj 93 134 sel \$1;
#X obj 182 143 sel \$1;
#X obj 93 156 t b b;
#X msg 127 185 stop;
#X msg 174 244 0;
#X obj 95 279 change;
#X msg 94 245 1;
#X obj 174 222 del 10;
#X obj 99 364 outlet;
#X obj 147 313 sel 1 0;
#X obj 184 361 outlet;
#X obj 95 72 inlet;
#X obj 184 74 inlet;
#X connect 0 0 2 0;
#X connect 1 0 7 0;
#X connect 2 0 6 0;
#X connect 2 1 3 0;
#X connect 3 0 7 0;
#X connect 4 0 5 0;
#X connect 5 0 9 0;
#X connect 6 0 5 0;
#X connect 7 0 4 0;
#X connect 9 0 8 0;
#X connect 9 1 10 0;
#X connect 11 0 0 0;
#X connect 12 0 1 0;
