#N canvas 95 62 776 575 10;
#X obj 102 102 cnv 15 71 71 empty empty empty 20 12 0 14 -150905 -66577
0;
#X obj 124 40 inlet~;
#X obj 318 358 outlet~;
#X obj 420 164 *~ 2;
#X obj 420 186 -~ 1;
#X obj 385 142 phasor~ 1;
#X obj 544 219 abs~;
#X obj 318 329 multiplex~ . . . .;
#X obj 384 255 expr~ $v1 < $v2;
#X text 593 221 triangle;
#X obj 482 183 sig~ 0.5;
#X obj 384 277 -~ 0.5;
#X obj 384 299 *~ 2;
#X obj 544 241 *~ 4;
#X obj 544 263 -~ 1;
#X obj 527 152 -~ 0.5;
#X text 398 237 square with pwm;
#X obj 104 144 hradio 17 1 0 4 \$0-typesnd \$0-typercv empty 0 -8 0
10 -188160 -45952 -1 2;
#X obj 340 203 cos~;
#X obj 109 115 moonlib/mknob 25 100 0.05 40 1 1 \$0-freqsnd \$0-freqrcv
freq -2 -6 0 8 -109312 -200448 -1 7000 1;
#X obj 215 41 inlet~;
#X obj 320 89 scalearound1;
#X obj 327 121 *~;
#X obj 242 122 smoother 50;
#X obj 467 80 scalearound1;
#X obj 476 216 *~;
#X obj 141 115 moonlib/mknob 25 100 0.05 0.95 0 0 \$0-pwmsnd \$0-pwmrcv
pwm -2 -6 0 8 -104576 -191616 -1 2200 1;
#X obj 316 44 inlet;
#X obj 525 26 loadbang;
#X msg 552 54 0.5;
#X obj 373 42 inlet;
#X obj 65 286 r \$0-freqsnd;
#X obj 76 307 r \$0-pwmsnd;
#X obj 86 327 r \$0-typesnd;
#X obj 65 356 t b f;
#X obj 76 376 t b f;
#X obj 86 396 t b f;
#X obj 70 432 pack \$1 f f f;
#X obj 70 454 canvasargs;
#X obj 204 472 s \$0-freqrcv;
#X obj 204 494 s \$0-pwmrcv;
#X obj 204 516 s \$0-typercv;
#X obj 206 377 loadbang;
#X obj 206 399 pack \$1 \$2 \$3 \$4;
#X obj 206 421 unpack f f f f;
#X text 103 158 sn sw;
#X text 461 372 inlets \; 1: freq cv \; 2: pwm cv \; 3: type selector
(0-3) \; 4: phase reset (0-1) \;;
#X text 138 158 pl tr;
#X connect 1 0 21 0;
#X connect 3 0 4 0;
#X connect 4 0 7 1;
#X connect 5 0 3 0;
#X connect 5 0 8 0;
#X connect 5 0 15 0;
#X connect 5 0 18 0;
#X connect 6 0 13 0;
#X connect 7 0 2 0;
#X connect 8 0 11 0;
#X connect 10 0 25 0;
#X connect 11 0 12 0;
#X connect 12 0 7 2;
#X connect 13 0 14 0;
#X connect 14 0 7 3;
#X connect 15 0 6 0;
#X connect 17 0 7 0;
#X connect 18 0 7 0;
#X connect 19 0 23 0;
#X connect 20 0 24 0;
#X connect 21 0 22 0;
#X connect 22 0 5 0;
#X connect 23 0 22 1;
#X connect 24 0 25 1;
#X connect 25 0 8 1;
#X connect 26 0 10 0;
#X connect 27 0 17 0;
#X connect 28 0 29 0;
#X connect 29 0 24 1;
#X connect 29 0 21 1;
#X connect 30 0 5 1;
#X connect 31 0 34 0;
#X connect 32 0 35 0;
#X connect 33 0 36 0;
#X connect 34 0 37 0;
#X connect 34 1 37 1;
#X connect 35 0 37 0;
#X connect 35 1 37 2;
#X connect 36 0 37 0;
#X connect 36 1 37 3;
#X connect 37 0 38 0;
#X connect 42 0 43 0;
#X connect 43 0 44 0;
#X connect 44 1 39 0;
#X connect 44 2 40 0;
#X connect 44 3 41 0;
#X coords 0 -1 1 1 75 75 2 100 100;
