#N canvas 257 160 571 622 10;
#X declare -path patchmenu;
#N canvas 471 84 976 737 mapping 0;
#X obj 387 224 r page-ready;
#X obj 382 17 r page-ready;
#X obj 382 39 sel 3;
#X obj 387 246 sel 4;
#X msg 382 94 \; p3s1 This is Page 3 \; p3s2 It does nothing! \; p3s3
See the 'mapping' \; p3s4 subpatch to define \; p3s5 stuff. \;;
#X msg 523 297 \; p4s1 This is Page 4 \; p4s2 It does nothing! \; p4s3
See the 'mapping' \; p4s4 subpatch to define \; p4s5 stuff. \;;
#X obj 100 35 r p1k1;
#X obj 159 35 r p1k2;
#X obj 217 35 r p1k3;
#X obj 266 36 r p1k4;
#X obj 87 110 r p2k1;
#X obj 157 111 r p2k2;
#X obj 236 112 r p2k3;
#X obj 289 111 r p2k4;
#X obj 100 67 s tempo;
#X obj 160 68 s env;
#X obj 217 68 s tone;
#X obj 268 69 s verb1;
#X obj 84 138 s rings_ch;
#X obj 156 140 s rings_chd;
#X obj 236 140 s ens;
#X obj 290 148 s ensd;
#X obj 138 184 r p3k2;
#X obj 205 185 r p3k3;
#X obj 271 188 r p3k4;
#X obj 78 185 r p3k1;
#X obj 81 224 s rvba;
#X obj 141 219 s rvbt;
#X obj 203 217 s rvbd;
#X obj 269 219 s rvbc;
#X obj 66 275 r p4k1;
#X obj 149 260 r p4k2;
#X obj 207 261 r p4k3;
#X obj 263 261 r p4k4;
#X obj 66 449 s trnsp;
#X obj 151 441 s invs;
#X obj 245 439 s rota;
#X obj 340 499 s rinv;
#X floatatom 348 363 5 0 0 0 - - -, f 5;
#X obj 68 360 int;
#X obj 228 384 int;
#X msg 208 528 \; p4s3 3:rotate \$1;
#X msg 47 529 \; p4s1 1:transpo \$1;
#X obj 66 309 d-scale 0 1 -24 25 10;
#X obj 176 286 d-scale 0 1 -12 13 10;
#X msg 398 490 \; p4s4 4: Note Decay \$1;
#X obj 347 392 d-scale 0 1 1500 -7.5 10;
#X obj 149 377 * 127;
#X obj 335 582 int;
#X msg 333 626 \; p4s2 2:Vibrato \$1%;
#X obj 332 552 * 101;
#X connect 0 0 3 0;
#X connect 1 0 2 0;
#X connect 6 0 14 0;
#X connect 7 0 15 0;
#X connect 8 0 16 0;
#X connect 9 0 17 0;
#X connect 10 0 18 0;
#X connect 11 0 19 0;
#X connect 12 0 20 0;
#X connect 13 0 21 0;
#X connect 22 0 27 0;
#X connect 23 0 28 0;
#X connect 24 0 29 0;
#X connect 25 0 26 0;
#X connect 30 0 43 0;
#X connect 31 0 47 0;
#X connect 31 0 50 0;
#X connect 32 0 44 0;
#X connect 33 0 38 0;
#X connect 38 0 46 0;
#X connect 39 0 34 0;
#X connect 39 0 42 0;
#X connect 40 0 36 0;
#X connect 40 0 41 0;
#X connect 43 0 39 0;
#X connect 44 0 40 0;
#X connect 46 0 37 0;
#X connect 46 0 45 0;
#X connect 47 0 35 0;
#X connect 48 0 49 0;
#X connect 50 0 48 0;
#X restore 29 559 pd mapping;
#X obj 32 45 declare -path patchmenu;
#X obj 28 312 patchmenu;
#X obj 60 181 s enableSubMenu;
#X obj 28 80 loadbang;
#X msg 28 261 0;
#X obj 28 146 t b b;
#X obj 308 62 vsl 15 64 0 1 0 0 empty empty empty 0 -9 0 10 -262144
-1 -1 677 1;
#X obj 308 38 r p1k1;
#X obj 365 62 vsl 15 64 0 1 0 0 empty empty empty 0 -9 0 10 -262144
-1 -1 4239 1;
#X obj 422 62 vsl 15 64 0 1 0 0 empty empty empty 0 -9 0 10 -262144
-1 -1 0 1;
#X obj 479 62 vsl 15 64 0 1 0 0 empty empty empty 0 -9 0 10 -262144
-1 -1 1058 1;
#X obj 365 38 r p1k2;
#X obj 422 38 r p1k3;
#X obj 479 38 r p1k4;
#X obj 306 166 vsl 15 64 0 1 0 0 empty empty empty 0 -9 0 10 -262144
-1 -1 0 1;
#X obj 363 166 vsl 15 64 0 1 0 0 empty empty empty 0 -9 0 10 -262144
-1 -1 0 1;
#X obj 420 166 vsl 15 64 0 1 0 0 empty empty empty 0 -9 0 10 -262144
-1 -1 0 1;
#X obj 477 166 vsl 15 64 0 1 0 0 empty empty empty 0 -9 0 10 -262144
-1 -1 0 1;
#X obj 306 269 vsl 15 64 0 1 0 0 empty empty empty 0 -9 0 10 -262144
-1 -1 4122 1;
#X obj 363 269 vsl 15 64 0 1 0 0 empty empty empty 0 -9 0 10 -262144
-1 -1 6035 1;
#X obj 420 269 vsl 15 64 0 1 0 0 empty empty empty 0 -9 0 10 -262144
-1 -1 4817 1;
#X obj 477 269 vsl 15 64 0 1 0 0 empty empty empty 0 -9 0 10 -262144
-1 -1 1255 1;
#X obj 306 374 vsl 15 64 0 1 0 0 empty empty empty 0 -9 0 10 -262144
-1 -1 4805 1;
#X obj 363 374 vsl 15 64 0 1 0 0 empty empty empty 0 -9 0 10 -262144
-1 -1 6288 1;
#X obj 420 374 vsl 15 64 0 1 0 0 empty empty empty 0 -9 0 10 -262144
-1 -1 3156 1;
#X obj 477 374 vsl 15 64 0 1 0 0 empty empty empty 0 -9 0 10 -262144
-1 -1 6288 1;
#X obj 256 71 r p1a;
#X obj 256 93 tgl 15 0 empty empty empty 17 7 0 10 -262144 -1 -1 0
1;
#X obj 258 200 tgl 15 0 empty empty empty 17 7 0 10 -262144 -1 -1 0
1;
#X obj 259 302 tgl 15 0 empty empty empty 17 7 0 10 -262144 -1 -1 0
1;
#X obj 260 410 tgl 15 0 empty empty empty 17 7 0 10 -262144 -1 -1 0
1;
#X obj 306 142 r p2k1;
#X obj 363 143 r p2k2;
#X obj 420 142 r p2k3;
#X obj 477 142 r p2k4;
#X obj 306 247 r p3k1;
#X obj 362 246 r p3k2;
#X obj 420 245 r p3k3;
#X obj 478 245 r p3k4;
#X obj 306 350 r p4k1;
#X obj 363 350 r p4k2;
#X obj 421 351 r p4k3;
#X obj 477 351 r p4k4;
#X obj 258 178 r p2a;
#X obj 259 281 r p3a;
#X obj 260 390 r p4a;
#N canvas 109 153 679 492 more-menu-info 0;
#X text 74 180 When you select a page from the menu (or turn the wheel
which brings up the menu page) \, the following events are triggered:
;
#X text 72 26 We like to thinkg of these pages as functional spaces
as opposed to simple knob pages. Having the Aux button paged means
it is possible to have \, for example \, a sample record page. In this
context it is helpful to have some signals that indicate page change
events. For example consider a page that was recording a sample to
be manipulated elsewhere in the patch. If you started a recording on
the record page but didn't stop it \, you might want to stop it automatically
when you navigate to a new page. To help solve this kind of issue the
menu system provides the following signals and values.;
#X obj 89 235 r page-closing;
#X floatatom 89 257 5 0 0 0 - - -, f 5;
#X text 189 244 First the current page numer is sent out as page-closing.
;
#X text 190 287 Then the OLED is cleard \, the new OLED page is activated
\, and the page knob paramters are recalled.;
#X text 191 334 The curpage value is updated with the new page value.
;
#X obj 92 333 v curpage;
#X floatatom 89 401 5 0 0 0 - - -, f 5;
#X obj 89 379 r page-ready;
#X text 189 382 Finally the new page number is sent out as page-ready.
;
#X connect 2 0 3 0;
#X connect 9 0 8 0;
#X restore 26 498 pd more-menu-info;
#N canvas 881 815 112 104 guts 0;
#N canvas 15 128 1847 868 (subpatch) 0;
#X obj 746 224 pack 0 0;
#X obj 748 370 *~ 0.25;
#X obj 748 281 u_makepoly 16 1 s_rhodey \$0-MYINST;
#X obj 1030 355 hsl 128 15 0 1 0 0 empty empty tone_(0...1) 20 7 1
10 -262144 -1 -1 0 1;
#X obj 901 236 r \$0-in1;
#X obj 1027 400 s \$0-in1;
#X msg 1027 376 tone \$1;
#X obj 1488 399 s \$0-in1;
#X floatatom 1488 354 5 0 0 0 - - -, f 5;
#X obj 1384 399 s \$0-in1;
#X floatatom 1384 354 5 0 0 0 - - -, f 5;
#X obj 1385 479 s \$0-in1;
#X floatatom 1385 434 5 0 0 0 - - -, f 5;
#X msg 1385 456 mod \$1;
#X msg 1488 375 vib-freq \$1;
#X msg 1384 376 vib-depth \$1;
#X obj 1293 400 s \$0-in1;
#X floatatom 1293 355 5 0 127 0 - - -, f 5;
#X msg 1293 377 adsr24 \$1;
#X obj 1196 400 s \$0-in1;
#X floatatom 1196 355 5 0 0 0 - - -, f 5;
#X msg 1196 377 decay \$1;
#X obj 799 -7 r notes;
#X obj 803 19 unpack 0 0;
#X obj 746 413 throw~ samp_voice_out;
#X obj 1062 212 * 100;
#X obj 1055 250 i;
#X obj 1055 272 change -1;
#X obj 1299 197 * 100;
#X obj 1292 235 i;
#X obj 1330 250 change -1;
#X obj 1188 213 loadbang;
#X msg 1182 269 1500;
#X obj 1333 127 * 127;
#X msg 1225 270 11;
#X msg 1254 271 1;
#X obj 416 228 hradio 15 1 0 12 empty empty empty 0 -8 0 10 -262144
-1 -1 4;
#X obj 496 320 t a;
#X obj 415 295 list prepend;
#X obj 246 546 pack 0 0;
#X floatatom 261 490 5 0 0 0 - - -, f 5;
#N canvas 0 50 450 300 show 0;
#X obj 41 39 inlet;
#X obj 186 36 inlet;
#X obj 41 124 outlet;
#X msg 186 76 set;
#X obj 41 59 list prepend set;
#X obj 41 83 list trim;
#X connect 0 0 4 0;
#X connect 1 0 3 0;
#X connect 3 0 2 0;
#X connect 4 0 5 0;
#X connect 5 0 2 0;
#X restore 430 320 pd show;
#X msg 430 345 70 70 68 68 65 65 64 64 60 60 67 67 69 69 71 72 72 71
67 67 71 71 72 72 62 62 62 62 62 62 60 60 60 60 60 60 69 69 68 68 71
71 64 64 74 74 73 73 62 62 62 62 62 62 60 60;
#N canvas 0 50 450 300 show 0;
#X obj 41 39 inlet;
#X obj 186 36 inlet;
#X obj 41 124 outlet;
#X msg 186 76 set;
#X obj 41 59 list prepend set;
#X obj 41 83 list trim;
#X connect 0 0 4 0;
#X connect 1 0 3 0;
#X connect 3 0 2 0;
#X connect 4 0 5 0;
#X connect 5 0 2 0;
#X restore 355 440 pd show;
#X msg 774 233 retrograde;
#X msg 313 164 retro-inversion;
#X msg 316 108 bang;
#X floatatom 270 136 5 0 0 0 - - -, f 5;
#X msg 313 139 transpose \$1;
#X msg 543 180 inversion;
#X msg 311 281 rotate \$1;
#X floatatom 267 226 5 0 0 0 - - -, f 5;
#X obj 584 168 s \$0-reset;
#X msg 584 143 bang;
#X obj 511 295 r \$0-reset;
#X obj 430 370 r \$0-reset;
#X text 608 228 record pitches;
#X msg 355 465 70 70 68 68 65 65 64 64 60 60 67 67 69 69 71 72 72 71
67 67 71 71 72 72 62 62 62 62 62 62 60 60 60 60 60 60 69 69 68 68 71
71 64 64;
#X obj 415 251 m_majorscale 60;
#X obj 313 364 c_patternchange;
#X obj 246 465 u_listloop;
#X obj 67 340 master-metronome;
#X obj 67 305 tgl 15 0 empty empty empty 17 7 0 10 -262144 -1 -1 1
1;
#X floatatom 176 299 5 0 0 0 - - -, f 5;
#X obj 67 228 loadbang;
#X msg 67 260 1;
#X msg 119 259 120;
#X obj 176 227 * 250;
#X obj 176 262 + 10;
#X obj 175 201 override;
#X obj 318 54 r aux;
#X obj 319 83 bng 15 250 50 0 empty empty empty 17 7 0 10 -262144 -1
-1;
#X obj 246 521 makenote 80 250;
#X obj 682 156 bng 15 250 50 0 empty empty empty 17 7 0 10 -262144
-1 -1;
#X obj 841 88 sel 77 78 79 80 81 82 83;
#X obj 846 114 bng 15 250 50 0 empty empty empty 17 7 0 10 -262144
-1 -1;
#X obj 868 113 bng 15 250 50 0 empty empty empty 17 7 0 10 -262144
-1 -1;
#X floatatom 751 41 5 0 0 0 - - -, f 5;
#X floatatom 780 90 5 0 0 0 - - -, f 5;
#X obj 965 112 bng 15 250 50 0 empty empty empty 17 7 0 10 -262144
-1 -1;
#X obj 890 111 bng 15 250 50 0 empty empty empty 17 7 0 10 -262144
-1 -1;
#X obj 913 115 bng 15 250 50 0 empty empty empty 17 7 0 10 -262144
-1 -1;
#X msg 937 145 -12;
#X msg 947 155 -12;
#X msg 31 258 -7;
#X msg 36 282 7;
#X obj 786 62 moses 77;
#X obj 1024 130 r p1k3;
#X obj 175 163 r tempo;
#X obj 1319 55 r env;
#X msg 1336 283 \; p1s2 2:Env \$1 %;
#X msg 1053 303 \; p1s3 3:Tone \$1 %;
#X obj 748 182 makenote 90 1000;
#X obj 1487 193 * 100;
#X obj 1480 231 i;
#X obj 1480 253 change -1;
#X msg 1473 287 \; p1s4 4:Mod \$1 %;
#X obj 1485 120 r verb1;
#X obj 1505 147 * 20;
#X floatatom 377 601 5 0 0 0 - - -, f 5;
#X msg 369 620 transpose \$1;
#X msg 619 517 rotate \$1;
#X floatatom 629 497 5 0 0 0 - - -, f 5;
#X obj 377 569 r trnsp;
#X obj 1533 442 r invs;
#X obj 630 469 r rota;
#X obj 1207 453 r rinv;
#X connect 0 0 2 0;
#X connect 1 0 24 0;
#X connect 2 0 1 0;
#X connect 3 0 6 0;
#X connect 4 0 2 1;
#X connect 6 0 5 0;
#X connect 8 0 14 0;
#X connect 10 0 15 0;
#X connect 12 0 13 0;
#X connect 13 0 11 0;
#X connect 14 0 7 0;
#X connect 15 0 9 0;
#X connect 17 0 18 0;
#X connect 18 0 16 0;
#X connect 20 0 21 0;
#X connect 21 0 19 0;
#X connect 22 0 23 0;
#X connect 23 0 77 0;
#X connect 23 1 92 1;
#X connect 25 0 26 0;
#X connect 26 0 27 0;
#X connect 27 0 91 0;
#X connect 28 0 29 0;
#X connect 29 0 30 0;
#X connect 30 0 90 0;
#X connect 31 0 32 0;
#X connect 31 0 34 0;
#X connect 31 0 35 0;
#X connect 32 0 20 0;
#X connect 33 0 17 0;
#X connect 34 0 8 0;
#X connect 35 0 10 0;
#X connect 35 0 12 0;
#X connect 36 0 58 0;
#X connect 37 0 38 1;
#X connect 38 0 37 0;
#X connect 38 0 41 0;
#X connect 38 0 59 1;
#X connect 39 0 2 0;
#X connect 41 0 42 0;
#X connect 43 0 57 0;
#X connect 44 0 59 0;
#X connect 45 0 59 0;
#X connect 46 0 59 0;
#X connect 47 0 48 0;
#X connect 48 0 59 0;
#X connect 49 0 59 0;
#X connect 50 0 59 0;
#X connect 51 0 50 0;
#X connect 53 0 52 0;
#X connect 53 0 84 0;
#X connect 53 0 85 0;
#X connect 54 0 38 1;
#X connect 54 0 41 1;
#X connect 55 0 43 1;
#X connect 55 0 59 1;
#X connect 55 0 60 1;
#X connect 58 0 38 0;
#X connect 59 0 43 0;
#X connect 59 0 60 1;
#X connect 60 0 40 0;
#X connect 60 0 72 0;
#X connect 61 0 60 0;
#X connect 62 0 61 0;
#X connect 63 0 61 1;
#X connect 64 0 65 0;
#X connect 64 0 66 0;
#X connect 64 0 84 0;
#X connect 64 0 85 0;
#X connect 65 0 62 0;
#X connect 66 0 63 0;
#X connect 67 0 68 0;
#X connect 68 0 63 0;
#X connect 69 0 67 0;
#X connect 70 0 71 0;
#X connect 71 0 46 0;
#X connect 72 0 39 0;
#X connect 72 1 39 1;
#X connect 73 0 53 0;
#X connect 74 0 75 0;
#X connect 74 1 76 0;
#X connect 74 2 80 0;
#X connect 74 3 81 0;
#X connect 74 4 82 0;
#X connect 74 5 83 0;
#X connect 74 6 79 0;
#X connect 75 0 44 0;
#X connect 76 0 49 0;
#X connect 77 0 86 0;
#X connect 78 0 38 0;
#X connect 78 0 92 0;
#X connect 79 0 53 0;
#X connect 80 0 45 0;
#X connect 81 0 50 0;
#X connect 82 0 51 0;
#X connect 83 0 47 0;
#X connect 84 0 47 0;
#X connect 85 0 51 0;
#X connect 86 0 78 0;
#X connect 86 1 74 0;
#X connect 87 0 25 0;
#X connect 87 0 3 0;
#X connect 88 0 69 0;
#X connect 89 0 33 0;
#X connect 89 0 28 0;
#X connect 92 0 0 0;
#X connect 92 1 0 1;
#X connect 93 0 94 0;
#X connect 94 0 95 0;
#X connect 95 0 96 0;
#X connect 97 0 93 0;
#X connect 97 0 98 0;
#X connect 98 0 12 0;
#X connect 99 0 100 0;
#X connect 100 0 59 0;
#X connect 101 0 59 0;
#X connect 102 0 101 0;
#X connect 103 0 99 0;
#X connect 104 0 10 0;
#X connect 105 0 102 0;
#X connect 106 0 20 0;
#X restore 6 25 pd;
#N canvas 99 104 1715 940 (subpatch) 0;
#X obj 1256 364 *~ 1;
#X obj 1135 339 sig~;
#X obj 1135 361 lop~ 5;
#X obj 1139 402 -~ 1;
#X obj 1185 577 *~;
#X obj 1187 423 *~;
#X obj 1139 424 abs~;
#X obj 1110 216 catch~ samp_voice_out;
#X obj 1116 244 *~ 1;
#X text 1121 117 get the output from voices and feed it into rev3~
\, a fun reverb included with Pd;
#X obj 1115 276 rev3~ 100 80 3000 20;
#X obj 1190 717 throw~ outL;
#X obj 1295 718 throw~ outR;
#X obj 492 150 i;
#X obj 492 172 change -1;
#X obj 493 223 s screenLine1;
#X msg 492 198 1: Amount \$1 %;
#X obj 494 118 * 100;
#X obj 1191 677 rngs_reverb~, f 15;
#X msg 869 258 lp \$1;
#X msg 597 260 time \$1;
#X msg 725 256 diffusion \$1;
#X obj 635 148 i;
#X obj 635 170 change -1;
#X obj 637 116 * 100;
#X obj 744 145 i;
#X obj 744 167 change -1;
#X obj 746 113 * 100;
#X obj 902 145 i;
#X obj 901 170 change -1;
#X obj 903 116 * 100;
#X obj 636 221 s screenLine2;
#X msg 635 196 2: Time \$1 %;
#X msg 744 193 3: Diffusion \$1 %;
#X obj 745 218 s screenLine3;
#X obj 902 221 s screenLine4;
#X msg 901 196 4: Cutoff \$1 %;
#X obj 1185 643 rngs_ensemble~, f 15;
#X obj 1523 534 i;
#X obj 1523 507 * 100;
#X obj 1341 538 i;
#X obj 1341 560 change -1;
#X obj 1523 557 change -1;
#X obj 1343 506 * 100;
#X obj 1183 613 rngs_chorus~;
#X obj 1517 341 i;
#X obj 1517 314 * 100;
#X obj 1335 345 i;
#X obj 1335 367 change -1;
#X obj 1517 364 change -1;
#X obj 1337 313 * 100;
#X obj 1333 275 r rings_ch;
#X obj 1518 285 r rings_chd;
#X obj 1347 475 r ens;
#X obj 1522 473 r ensd;
#X msg 1333 395 \; p2s1 1: Amount \$1 %;
#X msg 1510 398 \; p2s2 2:Depth \$1 %;
#X msg 1338 592 \; p2s3 3:Amount \$1 %;
#X msg 1518 589 \; p2s4 4:Depth \$1 %;
#X obj 489 71 r rvba;
#X obj 622 61 r rvbt;
#X obj 736 61 r rvbd;
#X obj 879 71 r rvbc;
#X obj 1055 305 r verb1;
#X connect 0 0 4 1;
#X connect 0 0 44 1;
#X connect 1 0 2 0;
#X connect 2 0 3 0;
#X connect 2 0 4 0;
#X connect 3 0 6 0;
#X connect 4 0 44 1;
#X connect 4 0 44 0;
#X connect 5 0 44 0;
#X connect 6 0 5 0;
#X connect 7 0 8 0;
#X connect 8 0 5 1;
#X connect 8 0 10 0;
#X connect 8 0 10 1;
#X connect 10 0 0 0;
#X connect 10 1 0 0;
#X connect 10 2 0 0;
#X connect 10 3 0 0;
#X connect 13 0 14 0;
#X connect 14 0 16 0;
#X connect 16 0 15 0;
#X connect 17 0 13 0;
#X connect 18 0 11 0;
#X connect 18 1 12 0;
#X connect 19 0 18 0;
#X connect 20 0 18 0;
#X connect 21 0 18 0;
#X connect 22 0 23 0;
#X connect 23 0 32 0;
#X connect 24 0 22 0;
#X connect 25 0 26 0;
#X connect 26 0 33 0;
#X connect 27 0 25 0;
#X connect 28 0 29 0;
#X connect 29 0 36 0;
#X connect 30 0 28 0;
#X connect 32 0 31 0;
#X connect 33 0 34 0;
#X connect 36 0 35 0;
#X connect 37 0 18 0;
#X connect 37 1 18 1;
#X connect 38 0 42 0;
#X connect 39 0 38 0;
#X connect 40 0 41 0;
#X connect 41 0 57 0;
#X connect 42 0 58 0;
#X connect 43 0 40 0;
#X connect 44 0 37 0;
#X connect 44 1 37 1;
#X connect 45 0 49 0;
#X connect 46 0 45 0;
#X connect 47 0 48 0;
#X connect 48 0 55 0;
#X connect 49 0 56 0;
#X connect 50 0 47 0;
#X connect 51 0 50 0;
#X connect 51 0 44 2;
#X connect 52 0 46 0;
#X connect 52 0 44 3;
#X connect 53 0 43 0;
#X connect 53 0 37 2;
#X connect 54 0 39 0;
#X connect 54 0 37 3;
#X connect 59 0 17 0;
#X connect 59 0 18 2;
#X connect 60 0 24 0;
#X connect 60 0 20 0;
#X connect 61 0 21 0;
#X connect 61 0 27 0;
#X connect 62 0 30 0;
#X connect 62 0 19 0;
#X connect 63 0 1 0;
#X restore 43 26 pd;
#X restore 25 531 pd guts;
#X obj 28 112 versioncheck 2;
#X msg 28 371 \; screenLine1 1) Tempo & Synth \; screenLine2 2) Rings
Chorus \; screenLine3 3) Rings Reverb \; screenLine4 4) Advanced Tweak
\; screenLine5 <-- HOME \;;
#X connect 2 0 50 0;
#X connect 4 0 49 0;
#X connect 5 0 2 0;
#X connect 6 0 5 0;
#X connect 6 1 3 0;
#X connect 8 0 7 0;
#X connect 12 0 9 0;
#X connect 13 0 10 0;
#X connect 14 0 11 0;
#X connect 27 0 28 0;
#X connect 32 0 15 0;
#X connect 33 0 16 0;
#X connect 34 0 17 0;
#X connect 35 0 18 0;
#X connect 36 0 19 0;
#X connect 37 0 20 0;
#X connect 38 0 21 0;
#X connect 39 0 22 0;
#X connect 40 0 23 0;
#X connect 41 0 24 0;
#X connect 42 0 25 0;
#X connect 43 0 26 0;
#X connect 44 0 29 0;
#X connect 45 0 30 0;
#X connect 46 0 31 0;
#X connect 49 0 6 0;
