#N canvas 454 118 450 300 10;
#X obj 108 211 makenote \$1 \$2;
#X obj 107 83 unpack f f f f f f;
#X obj 102 34 inlet;
#X obj 98 265 outlet;
#X obj 108 238 pack f f;
#X obj 261 37 inlet;
#X obj 185 39 inlet;
#X connect 0 0 4 0;
#X connect 0 1 4 1;
#X connect 1 0 0 0;
#X connect 1 1 0 0;
#X connect 1 2 0 0;
#X connect 1 3 0 0;
#X connect 1 4 0 0;
#X connect 1 5 0 0;
#X connect 2 0 1 0;
#X connect 4 0 3 0;
#X connect 5 0 0 2;
#X connect 6 0 0 1;
