#N canvas 448 92 450 300 10;
#X obj 123 55 inlet;
#X obj 123 105 unpack f f f f f f f;
#X obj 139 169 list append;
#X obj 123 77 t l l;
#X obj 218 82 unpack f f f f f f f;
#X obj 159 233 outlet;
#X connect 0 0 3 0;
#X connect 1 1 2 0;
#X connect 1 2 2 0;
#X connect 1 3 2 0;
#X connect 1 4 2 0;
#X connect 1 5 2 0;
#X connect 1 6 2 0;
#X connect 2 0 5 0;
#X connect 3 0 1 0;
#X connect 3 1 4 0;
#X connect 4 0 2 1;
