#N canvas 596 72 1124 740 10;
#X obj 456 111 tgl 15 0 empty empty empty 17 7 0 10 -262144 -1 -1 1
1;
#X floatatom 601 95 5 0 0 0 - - -, f 5;
#X text 641 94 dial in bpm;
#N canvas 274 291 186 266 mstobpm 0;
#X obj 37 15 inlet;
#X obj 37 101 timer;
#X obj 37 191 outlet;
#X obj 37 128 expr 60000 / $f1;
#X obj 37 42 sel 0;
#X obj 37 64 t b b;
#X connect 0 0 4 0;
#X connect 1 0 3 0;
#X connect 3 0 2 0;
#X connect 4 0 5 0;
#X connect 5 0 1 0;
#X connect 5 1 1 1;
#X restore 545 322 pd mstobpm;
#X floatatom 545 349 5 0 0 0 - - -, f 5;
#X text 583 349 tempo in bpm;
#N canvas 944 202 174 209 dialinbpm 0;
#X obj 29 41 inlet;
#X obj 29 72 expr 1000/($f1/60);
#X floatatom 29 121 5 0 0 0 - - -, f 5;
#X obj 29 96 / 24;
#X obj 30 150 outlet;
#X connect 0 0 1 0;
#X connect 1 0 3 0;
#X connect 2 0 4 0;
#X connect 3 0 2 0;
#X restore 601 130 pd dialinbpm;
#N canvas 127 50 1016 842 mainmetro 0;
#X obj 280 49 inlet;
#X obj 333 49 inlet;
#X obj 280 93 metro 50;
#X obj 389 438 + 1, f 5;
#X obj 280 462 f;
#X floatatom 280 581 5 0 0 0 - - -, f 5;
#X obj 280 607 outlet;
#X msg 565 496 0;
#X obj 350 484 >= 23;
#X obj 350 516 sel 1;
#X obj 408 145 midirealtimein;
#X obj 280 387 spigot 1;
#X obj 408 388 spigot 0;
#X obj 423 300 tgl 15 0 empty empty empty 17 7 0 10 -262144 -1 -1 0
1;
#X obj 333 323 ==;
#X obj 333 349 tgl 15 0 empty empty empty 17 7 0 10 -262144 -1 -1 1
1;
#X obj 461 350 tgl 15 0 empty empty empty 17 7 0 10 -262144 -1 -1 0
1;
#X obj 408 167 sel 248 250 251;
#X obj 580 243 delay 1000;
#X msg 423 241 1;
#X obj 408 190 t b b b b, f 25;
#X msg 580 218 stop;
#X msg 580 267 0;
#X text 67 12 autoswitch between internal and MIDI clock;
#X text 525 144 MIDI 248 = clock \; 250 = start \; 251 = continue.
;
#X obj 578 348 s midi-clock-present;
#X obj 325 207 loadbang;
#X msg 325 229 0;
#X connect 0 0 2 0;
#X connect 1 0 2 1;
#X connect 2 0 11 0;
#X connect 3 0 4 1;
#X connect 4 0 3 0;
#X connect 4 0 5 0;
#X connect 4 0 8 0;
#X connect 5 0 6 0;
#X connect 7 0 4 1;
#X connect 8 0 9 0;
#X connect 9 0 7 0;
#X connect 10 0 17 0;
#X connect 11 0 4 0;
#X connect 12 0 4 0;
#X connect 13 0 14 0;
#X connect 13 0 16 0;
#X connect 13 0 25 0;
#X connect 14 0 15 0;
#X connect 15 0 11 1;
#X connect 16 0 12 1;
#X connect 17 0 20 0;
#X connect 17 1 7 0;
#X connect 17 2 7 0;
#X connect 18 0 22 0;
#X connect 19 0 13 0;
#X connect 20 0 12 0;
#X connect 20 1 18 0;
#X connect 20 2 19 0;
#X connect 20 3 21 0;
#X connect 21 0 18 0;
#X connect 22 0 13 0;
#X connect 26 0 27 0;
#X connect 27 0 13 0;
#X restore 456 192 pd mainmetro;
#X obj 456 75 inlet;
#X obj 601 59 inlet;
#X obj 498 503 i;
#X obj 498 525 change -1;
#X obj 334 501 i;
#X obj 334 523 change -1;
#X obj 498 465 spigot 1;
#X obj 334 461 spigot 0;
#X obj 661 379 r midi-clock-present;
#X obj 661 403 ==;
#N canvas 599 170 450 300 32nd 0;
#X obj 73 41 inlet;
#X obj 58 168 outlet;
#X obj 73 63 % 3;
#X obj 73 85 sel 0;
#X connect 0 0 2 0;
#X connect 2 0 3 0;
#X connect 3 0 1 0;
#X restore 203 422 pd 32nd;
#X obj 203 444 outlet;
#X obj 686 263 r page1;
#X obj 686 285 sel 0;
#X obj 686 307 t b b;
#X msg 717 337 set 0;
#X msg 335 588 \; p1s1 1:Tempo \$1 BPM MIDI;
#X msg 498 586 \; p1s1 1:Tempo \$1 BPM;
#X connect 0 0 7 0;
#X connect 1 0 6 0;
#X connect 3 0 4 0;
#X connect 4 0 15 0;
#X connect 4 0 14 0;
#X connect 6 0 7 1;
#X connect 7 0 3 0;
#X connect 7 0 18 0;
#X connect 8 0 0 0;
#X connect 9 0 1 0;
#X connect 10 0 11 0;
#X connect 11 0 25 0;
#X connect 12 0 13 0;
#X connect 13 0 24 0;
#X connect 14 0 10 0;
#X connect 15 0 12 0;
#X connect 16 0 15 1;
#X connect 16 0 17 0;
#X connect 17 0 14 1;
#X connect 18 0 19 0;
#X connect 20 0 21 0;
#X connect 21 0 22 0;
#X connect 22 0 4 0;
#X connect 22 1 23 0;
#X connect 23 0 11 0;
#X connect 23 0 13 0;
