#N canvas 0 22 450 300 10;
#X obj 142 61 inlet;
#X obj 142 217 outlet;
#X obj 198 136 expr pow(2 \, (1.0/12));
#X obj 198 111 loadbang;
#X obj 145 171 expr pow($f2 \, $f1);
#X connect 0 0 4 0;
#X connect 2 0 4 1;
#X connect 3 0 2 0;
#X connect 4 0 1 0;
