#N canvas 334 23 920 495 10;
#X obj 300 17 inlet;
#X obj 263 500 outlet;
#X obj 102 102 cnv 15 146 106 empty empty empty 20 12 0 14 -87252 -66577
0;
#X obj 357 390 qlist;
#X obj 357 212 qlistwriter;
#X msg 290 359 rewind;
#X obj 223 124 bng 20 250 50 0 \$0-replaysnd \$0-replayrcv > 7 9 0
10 -260338 -91328 -1;
#X msg 504 176 clear;
#X obj 290 337 bng 15 250 50 0 empty empty rewind 17 7 0 10 -262144
-1 -1;
#X obj 105 174 bng 15 250 50 0 \$0-clrsnd \$0-clrrcv clr 17 7 0 10
-228856 -1 -262144;
#X msg 267 212 bang;
#X msg 364 185 start;
#X msg 405 185 stop;
#X obj 201 124 tgl 20 0 \$0-recsnd \$0-recrcv r 2 7 0 15 -261237 -1
-258698 0 1;
#X obj 397 30 r \$0-recsnd;
#X obj 267 178 r \$0-replaysnd;
#X obj 201 145 tgl 15 0 \$0-loopsnd \$0-looprcv loop 17 7 0 10 -261503
-1 -262144 0 1;
#X obj 406 428 spigot;
#X obj 452 396 r \$0-loopsnd;
#X obj 421 461 s \$0-replayrcv;
#X obj 300 39 route bang;
#X obj 503 220 r \$0-temposnd;
#X obj 503 242 / 100;
#N canvas 781 65 450 300 state_saving 0;
#X obj 99 71 r \$0-temposnd;
#X obj 139 94 r \$0-loopsnd;
#X obj 95 247 outlet;
#X obj 244 165 r \$0-savefilename;
#X obj 237 187 t b s;
#X obj 208 66 r \$0-thrusnd;
#X obj 244 88 r \$0-syncsnd;
#X obj 260 111 r \$0-stepssnd;
#X obj 349 65 r \$0-offsetsnd;
#X obj 95 166 cyclone/bondo 7;
#X obj 95 225 pack \$1 f f f f f f s;
#X connect 0 0 9 1;
#X connect 1 0 9 2;
#X connect 3 0 4 0;
#X connect 4 0 10 0;
#X connect 4 1 10 7;
#X connect 5 0 9 3;
#X connect 6 0 9 4;
#X connect 7 0 9 5;
#X connect 8 0 9 6;
#X connect 9 0 10 0;
#X connect 9 1 10 1;
#X connect 9 2 10 2;
#X connect 9 3 10 3;
#X connect 9 4 10 4;
#X connect 9 5 10 5;
#X connect 9 6 10 6;
#X connect 10 0 2 0;
#X restore 37 272 pd state_saving;
#X obj 37 294 canvasargs;
#X obj 504 143 r \$0-clrsnd;
#X obj 155 112 cnv 15 40 90 empty empty empty 20 12 0 14 -253565 -66577
0;
#X floatatom 157 114 4 0 0 3 tempo #0-temporcv #0-temposnd, f 4;
#X obj 105 157 bng 15 250 50 0 \$0-loadsnd \$0-loadrcv load 17 7 0
10 -228856 -1 -262144;
#X obj 105 140 bng 15 250 50 0 \$0-savesnd \$0-savercv save 17 7 0
10 -228856 -1 -262144;
#X obj 699 115 r \$0-loadsnd;
#X obj 699 179 openpanel;
#X msg 699 203 read \$1;
#X obj 292 263 spigot;
#X obj 308 237 == 0;
#X obj 396 155 t b b b;
#X obj 201 179 tgl 15 0 \$0-thrusnd \$0-thrurcv thru 17 7 0 10 -260979
-1 -262144 1 1;
#X obj 201 162 tgl 15 0 \$0-syncsnd \$0-syncrcv sync 17 7 0 10 -260659
-1 -262144 0 1;
#X obj 90 365 r \$0-thru;
#X obj 90 434 spigot;
#X obj 129 404 r \$0-thrusnd;
#X obj 204 221 loadbang;
#X msg 204 243 1;
#X obj 368 68 s \$0-thru;
#X obj 709 238 r \$0-savesnd;
#X obj 709 312 savepanel;
#X msg 709 336 write \$1;
#X obj 699 136 adagetdir;
#X obj 699 158 makefilename %s/qlists/;
#X obj 709 266 adagetdir;
#X obj 709 288 makefilename %s/qlists/;
#X msg 357 237 add \$1 \$2 \$3;
#X obj 245 393 qlistplayer;
#N canvas 714 126 450 300 state_loading 0;
#X obj 71 29 loadbang;
#X obj 60 127 s \$0-temporcv;
#X obj 60 149 s \$0-looprcv;
#X obj 60 171 s \$0-thrurcv;
#X obj 60 193 s \$0-syncrcv;
#X obj 170 126 s \$0-loadfilename;
#X obj 61 214 s \$0-stepsrcv;
#X obj 61 234 s \$0-offsetrcv;
#X obj 232 50 symbol \$8;
#X obj 71 51 pack \$1 \$2 \$3 \$4 \$5 \$6 \$7;
#X obj 71 73 unpack f f f f f f f;
#X connect 0 0 8 0;
#X connect 0 0 9 0;
#X connect 8 0 5 0;
#X connect 9 0 10 0;
#X connect 10 1 1 0;
#X connect 10 2 2 0;
#X connect 10 3 3 0;
#X connect 10 4 4 0;
#X connect 10 5 6 0;
#X connect 10 6 7 0;
#X restore 36 323 pd state_loading;
#X obj 563 315 r \$0-loadfilename;
#X msg 563 337 read \$1;
#X obj 785 338 s \$0-savefilename;
#X obj 533 53 expr if ($f1==1&&$f2==1 \, 1 \, 0);
#X floatatom 524 27 5 0 0 0 - - -, f 5;
#X floatatom 694 26 5 0 0 0 - - -, f 5;
#X floatatom 533 75 5 0 0 0 - - -, f 5;
#N canvas 772 51 661 464 synclogic 0;
#X obj 340 55 r \$0-syncsnd;
#X obj 77 49 inlet bangtrigs;
#X obj 190 35 inlet recordfloats;
#X obj 101 102 spigot;
#X obj 309 168 spigot;
#X obj 190 57 sel 1 0;
#X obj 367 105 == 0;
#X obj 382 262 outlet 0s;
#X obj 309 264 outlet 1s;
#X obj 381 166 spigot;
#X msg 121 129 reset;
#X obj 340 77 sel 1 0;
#X obj 94 224 adademux;
#X obj 181 124 t b b;
#X msg 154 203 0;
#X msg 188 203 1;
#X msg 50 255 0;
#X obj 50 277 s \$0-recrcv;
#X obj 101 176 t b b;
#X obj 101 156 twice;
#X connect 0 0 3 1;
#X connect 0 0 6 0;
#X connect 0 0 11 0;
#X connect 1 0 3 0;
#X connect 2 0 5 0;
#X connect 3 0 19 0;
#X connect 4 0 8 0;
#X connect 5 0 4 0;
#X connect 5 0 13 0;
#X connect 5 1 9 0;
#X connect 6 0 4 1;
#X connect 6 0 9 1;
#X connect 9 0 7 0;
#X connect 10 0 19 1;
#X connect 12 0 8 0;
#X connect 12 1 7 0;
#X connect 12 1 16 0;
#X connect 13 0 10 0;
#X connect 13 1 14 0;
#X connect 14 0 12 1;
#X connect 15 0 12 1;
#X connect 16 0 17 0;
#X connect 18 0 15 0;
#X connect 18 1 12 0;
#X connect 19 0 18 0;
#X restore 395 104 pd synclogic;
#X obj 424 137 bng 15 250 50 0 empty empty empty 17 7 0 10 -262144
-1 -1;
#X obj 480 137 bng 15 250 50 0 empty empty empty 17 7 0 10 -262144
-1 -1;
#X obj 300 92 t b b;
#X floatatom 158 143 4 1 256 3 steps #0-stepsrcv #0-stepssnd, f 4
;
#N canvas 0 22 450 300 divider 0;
#X obj 150 44 inlet;
#X obj 156 205 outlet;
#X obj 194 66 r \$0-stepssnd;
#X obj 336 72 r allsequencers;
#N canvas 0 22 450 300 qldivider 0;
#X obj 160 43 inlet;
#X obj 214 191 outlet;
#X obj 238 109 + 1;
#X obj 196 110 f 0;
#X obj 204 157 sel 0;
#X obj 188 83 bang;
#X obj 201 133 mod \$1;
#X obj 272 27 inlet;
#X obj 388 60 inlet;
#X obj 272 49 t b f;
#X msg 272 71 0;
#X obj 328 25 inlet offset;
#X connect 0 0 5 0;
#X connect 2 0 3 1;
#X connect 3 0 2 0;
#X connect 3 0 6 0;
#X connect 4 0 1 0;
#X connect 5 0 3 0;
#X connect 6 0 4 0;
#X connect 7 0 9 0;
#X connect 8 0 3 1;
#X connect 9 0 10 0;
#X connect 9 1 6 1;
#X connect 10 0 3 1;
#X connect 11 0 4 1;
#X restore 159 103 pd qldivider;
#X obj 277 42 r \$0-offsetsnd;
#X connect 0 0 4 0;
#X connect 2 0 4 1;
#X connect 3 0 4 3;
#X connect 4 0 1 0;
#X connect 5 0 4 2;
#X restore 281 65 pd divider;
#X obj 105 123 bng 15 250 50 0 empty empty empty 17 7 0 10 -261043
-259800 -1;
#X floatatom 158 173 4 0 256 3 offset #0-offsetrcv #0-offsetsnd, f
4;
#X connect 0 0 20 0;
#X connect 3 0 52 0;
#X connect 3 1 17 0;
#X connect 4 0 51 0;
#X connect 5 0 3 0;
#X connect 7 0 3 0;
#X connect 8 0 5 0;
#X connect 10 0 33 0;
#X connect 11 0 4 0;
#X connect 12 0 4 0;
#X connect 14 0 61 1;
#X connect 14 0 34 0;
#X connect 15 0 10 0;
#X connect 17 0 19 0;
#X connect 18 0 17 1;
#X connect 20 0 66 0;
#X connect 20 1 4 0;
#X connect 20 1 43 0;
#X connect 21 0 22 0;
#X connect 22 0 52 1;
#X connect 23 0 24 0;
#X connect 25 0 7 0;
#X connect 30 0 47 0;
#X connect 31 0 32 0;
#X connect 31 0 56 0;
#X connect 32 0 3 0;
#X connect 33 0 52 0;
#X connect 34 0 33 1;
#X connect 35 1 11 0;
#X connect 35 2 7 0;
#X connect 38 0 39 0;
#X connect 39 0 1 0;
#X connect 40 0 39 1;
#X connect 41 0 42 0;
#X connect 42 0 33 1;
#X connect 44 0 49 0;
#X connect 45 0 46 0;
#X connect 45 0 56 0;
#X connect 46 0 3 0;
#X connect 47 0 48 0;
#X connect 48 0 31 0;
#X connect 49 0 50 0;
#X connect 50 0 45 0;
#X connect 51 0 3 0;
#X connect 52 0 3 0;
#X connect 52 1 1 0;
#X connect 54 0 55 0;
#X connect 54 0 56 0;
#X connect 55 0 3 0;
#X connect 57 0 60 0;
#X connect 58 0 57 0;
#X connect 59 0 57 1;
#X connect 61 0 35 0;
#X connect 61 0 62 0;
#X connect 61 1 12 0;
#X connect 61 1 63 0;
#X connect 64 0 10 0;
#X connect 64 1 61 0;
#X connect 66 0 64 0;
#X connect 66 0 67 0;
#X coords 0 -1 1 1 150 110 2 100 100;
