#N canvas 309 47 450 300 10;
#X obj 127 50 inlet;
#X text 249 57 outputs one bang until reset;
#X obj 127 72 t b b;
#X obj 202 51 inlet;
#X obj 202 73 route reset;
#X msg 184 127 1;
#X msg 152 128 0;
#X obj 124 155 spigot;
#X obj 124 177 outlet;
#X obj 245 99 loadbang;
#X connect 0 0 2 0;
#X connect 2 0 6 0;
#X connect 2 1 7 0;
#X connect 3 0 4 0;
#X connect 4 0 5 0;
#X connect 5 0 7 1;
#X connect 6 0 7 1;
#X connect 7 0 8 0;
#X connect 9 0 5 0;
