#N canvas 322 70 998 700 10;
#X obj 102 102 cnv 15 146 106 empty \$0-canvas oscbl_\$1 90 8 0 12
-88819 -240893 0;
#X obj 107 123 moonlib/mknob 35 100 1 127 1 1 \$0-freqsnd \$0-freqrcv
freq -2 -6 0 8 -203904 -159808 -261758 2400 1;
#X obj 367 283 osc~;
#X obj 123 173 moonlib/mknob 20 100 0 1 0 1 \$0-modsnd \$0-modrcv mod_Amt
-2 -6 0 8 -203904 -159808 -261824 0 1;
#X obj 492 214 expr 1 - $f1;
#X obj 519 195 expr 1 + $f1;
#X obj 367 257 *~;
#X obj 362 370 fold~ 2;
#X obj 146 124 moonlib/mknob 35 100 0.48 4 0 1 \$0-foldsnd \$0-foldrcv
fold -2 -6 0 8 -203904 -159808 -261824 0 1;
#X obj 411 234 cyclone/scale~ -1 1 1 1;
#X obj 431 275 smoother 100;
#X obj 389 143 cyclone/scale 0 127 30 17000 2;
#X obj 453 329 *~;
#X obj 164 173 moonlib/mknob 20 100 0 1 0 1 \$0-foldmodsnd \$0-foldmodrcv
foldmod_Amt -2 -6 0 8 -203904 -159808 -261824 0 1;
#X obj 510 275 cyclone/scale~ -1 1 1 1;
#X obj 591 254 expr 1 - $f1;
#X obj 618 235 expr 1 + $f1;
#X obj 224 157 vradio 15 1 1 2 \$0-ratesnd \$0-ratercv empty 0 -8 0
10 -261349 -95040 -260097 0;
#X msg 597 95 17000;
#X obj 390 120 f 0;
#X obj 500 61 sel 1 0;
#X text 216 142 audio;
#X text 221 189 LFO;
#X obj 492 336 osc~;
#X obj 493 377 fold~ 2;
#X obj 186 128 moonlib/mknob 30 100 0 0.04 0 1 \$0-detunesnd \$0-detunercv
detune -2 -6 0 8 -203904 -159808 -261824 0 1;
#X obj 277 274 smoother 50;
#X obj 401 282 *~;
#X obj 401 261 +~ 1;
#X obj 529 303 cyclone/scale~ -1 1 0.5 1.5;
#X obj 289 308 *~;
#X msg 494 91 0.03;
#X msg 531 90 40;
#X msg 565 91 27;
#X obj 371 443 outlet~;
#X obj 484 446 outlet~;
#X obj 32 276 canvasargs;
#X text 586 28 creation arguments: 1 panel index 2 freq in hz 3 fold
amount (0.48 -4) 4 detune amount (0 - 0.04) 5 freq mod amount 6 fold
mod amount 7 rate (0 or 1 - audio / LFO);
#X obj 387 171 smoother 50;
#N canvas 0 22 456 405 antialias 0;
#X obj 118 39 inlet~;
#X obj 243 43 inlet~;
#X obj 71 224 *~ 0.125;
#X obj 71 247 rzero~ -1;
#X obj 71 270 rzero~ -1;
#X obj 71 293 rzero~ -1;
#X obj 70 121 rpole~ 0.87467;
#X obj 70 98 *~ 0.12532;
#X obj 70 144 *~ 0.01668;
#X obj 70 167 cpole~ 0.9293 0.10812;
#X obj 70 193 cpole~ 0.9293 -0.10812;
#X obj 271 224 *~ 0.125;
#X obj 271 247 rzero~ -1;
#X obj 271 270 rzero~ -1;
#X obj 271 293 rzero~ -1;
#X obj 270 121 rpole~ 0.87467;
#X obj 270 98 *~ 0.12532;
#X obj 270 144 *~ 0.01668;
#X obj 270 167 cpole~ 0.9293 0.10812;
#X obj 270 193 cpole~ 0.9293 -0.10812;
#X obj 86 351 outlet~;
#X obj 279 346 outlet~;
#X connect 0 0 7 0;
#X connect 1 0 16 0;
#X connect 2 0 3 0;
#X connect 3 0 4 0;
#X connect 4 0 5 0;
#X connect 5 0 20 0;
#X connect 6 0 8 0;
#X connect 7 0 6 0;
#X connect 8 0 9 0;
#X connect 9 0 10 0;
#X connect 9 1 10 1;
#X connect 10 0 2 0;
#X connect 11 0 12 0;
#X connect 12 0 13 0;
#X connect 13 0 14 0;
#X connect 14 0 21 0;
#X connect 15 0 17 0;
#X connect 16 0 15 0;
#X connect 17 0 18 0;
#X connect 18 0 19 0;
#X connect 18 1 19 1;
#X connect 19 0 11 0;
#X restore 414 409 pd antialias;
#X obj 67 76 inlet~ freq;
#X obj 150 78 inlet~ fold;
#X obj 230 76 inlet~ detune;
#X obj 322 76 inlet phase;
#N canvas 442 39 450 300 state_loading 0;
#X obj 55 44 loadbang;
#X obj 36 138 s \$0-freqrcv;
#X obj 44 160 s \$0-foldrcv;
#X obj 59 180 s \$0-detunercv;
#X obj 148 145 s \$0-modrcv;
#X obj 173 184 s \$0-ratercv;
#X obj 156 163 s \$0-foldmodrcv;
#X obj 53 74 pack \$1 \$2 \$3 \$4 \$5 \$6 \$7 \$8;
#X obj 64 103 unpack f f f f f f f f;
#X obj 177 206 s \$0-switchrcv;
#X connect 0 0 7 0;
#X connect 7 0 8 0;
#X connect 8 1 1 0;
#X connect 8 2 2 0;
#X connect 8 3 3 0;
#X connect 8 4 4 0;
#X connect 8 5 6 0;
#X connect 8 6 5 0;
#X connect 8 7 9 0;
#X restore 32 229 pd state_loading;
#N canvas 0 22 662 300 state_saving 0;
#X obj 20 58 r \$0-freqsnd;
#X obj 103 58 r \$0-foldsnd;
#X obj 181 58 r \$0-detunesnd;
#X obj 272 58 r \$0-modsnd;
#X obj 344 58 r \$0-foldmodsnd;
#X obj 20 80 t b f;
#X obj 103 80 t b f;
#X obj 181 80 t b f;
#X obj 272 80 t b f;
#X obj 344 80 t b f;
#X obj 440 80 t b f;
#X obj 166 35 r savemessage;
#X text 282 35 for saving state;
#X obj 440 58 r \$0-ratesnd;
#X obj 234 151 outlet;
#X obj 519 58 r \$0-switchsnd;
#X obj 519 80 t b f;
#X obj 234 129 pack \$1 f f f f f f f;
#X connect 0 0 5 0;
#X connect 1 0 6 0;
#X connect 2 0 7 0;
#X connect 3 0 8 0;
#X connect 4 0 9 0;
#X connect 5 0 17 0;
#X connect 5 1 17 1;
#X connect 6 0 17 0;
#X connect 6 1 17 2;
#X connect 7 0 17 0;
#X connect 7 1 17 3;
#X connect 8 0 17 0;
#X connect 8 1 17 4;
#X connect 9 0 17 0;
#X connect 9 1 17 5;
#X connect 10 0 17 0;
#X connect 10 1 17 6;
#X connect 11 0 17 0;
#X connect 13 0 10 0;
#X connect 15 0 16 0;
#X connect 16 0 17 0;
#X connect 16 1 17 7;
#X connect 17 0 14 0;
#X restore 32 253 pd state_saving;
#X obj 227 118 tgl 15 0 \$0-switchsnd \$0-switchrcv empty 17 7 0 10
-154752 -261739 -1 1 1;
#X obj 67 350 r \$0-switchsnd;
#X msg 165 447 195 205 214;
#X obj 165 469 rgb, f 8;
#X obj 165 494 pack f \$0;
#X obj 166 376 sel 1 0;
#X msg 165 516 \; \$2-canvas color \$1;
#X msg 136 405 84 175 203;
#X text 59 469 color switching;
#X obj 28 398 switch~ 1024 1 16;
#X connect 1 0 19 0;
#X connect 2 0 7 0;
#X connect 3 0 4 0;
#X connect 3 0 5 0;
#X connect 4 0 9 3;
#X connect 5 0 9 4;
#X connect 6 0 2 0;
#X connect 6 0 27 0;
#X connect 7 0 39 0;
#X connect 8 0 10 0;
#X connect 9 0 6 1;
#X connect 10 0 12 0;
#X connect 11 0 38 0;
#X connect 12 0 7 1;
#X connect 12 0 24 1;
#X connect 13 0 15 0;
#X connect 13 0 16 0;
#X connect 14 0 12 1;
#X connect 15 0 14 3;
#X connect 16 0 14 4;
#X connect 17 0 20 0;
#X connect 18 0 11 4;
#X connect 19 0 11 0;
#X connect 20 0 31 0;
#X connect 20 0 32 0;
#X connect 20 0 19 0;
#X connect 20 1 33 0;
#X connect 20 1 18 0;
#X connect 20 1 19 0;
#X connect 23 0 24 0;
#X connect 24 0 39 1;
#X connect 25 0 26 0;
#X connect 26 0 30 0;
#X connect 27 0 23 0;
#X connect 28 0 27 1;
#X connect 29 0 30 1;
#X connect 30 0 28 0;
#X connect 31 0 11 3;
#X connect 32 0 11 4;
#X connect 33 0 11 3;
#X connect 38 0 6 0;
#X connect 39 0 34 0;
#X connect 39 1 35 0;
#X connect 40 0 9 0;
#X connect 41 0 14 0;
#X connect 42 0 29 0;
#X connect 43 0 2 1;
#X connect 43 0 23 1;
#X connect 45 0 36 0;
#X connect 47 0 51 0;
#X connect 47 0 55 0;
#X connect 48 0 49 0;
#X connect 49 0 50 0;
#X connect 50 0 52 0;
#X connect 51 0 53 0;
#X connect 51 1 48 0;
#X connect 53 0 49 0;
#X coords 0 -1 1 1 150 110 2 100 100;
