#N canvas 174 23 998 700 10;
#X obj 102 102 cnv 15 146 106 empty \$0-canvas osc_\$1 110 8 0 12 -125299
-240893 0;
#X obj 107 123 moonlib/mknob 35 100 1 127 1 1 \$0-freqsnd \$0-freqrcv
freq -2 -6 0 8 -203904 -159808 -1 0 1;
#X obj 367 283 osc~;
#X obj 102 78 inlet~;
#X obj 123 173 moonlib/mknob 20 100 0 1 0 1 \$0-modsnd \$0-modrcv mod_Amt
-2 -6 0 8 -203904 -159808 -1 0 1;
#X obj 492 214 expr 1 - $f1;
#X obj 519 195 expr 1 + $f1;
#X obj 367 257 *~;
#X obj 362 370 fold~ 2;
#X obj 146 124 moonlib/mknob 35 100 0.48 4 0 1 \$0-foldsnd \$0-foldrcv
fold -2 -6 0 8 -203904 -159808 -1 0 1;
#X obj 150 78 inlet~;
#X obj 411 234 cyclone/scale~ -1 1 1 1;
#X obj 431 275 smoother 100;
#X obj 389 143 cyclone/scale 0 127 30 17000 2;
#X obj 453 329 *~;
#X obj 164 173 moonlib/mknob 20 100 0 1 0 1 \$0-foldmodsnd \$0-foldmodrcv
foldmod_Amt -2 -6 0 8 -203904 -159808 -1 0 1;
#X obj 510 275 cyclone/scale~ -1 1 1 1;
#X obj 591 254 expr 1 - $f1;
#X obj 618 235 expr 1 + $f1;
#X obj 224 157 vradio 15 1 1 2 \$0-ratesnd \$0-ratercv empty 0 -8 0
10 -261349 -95040 -260097 0;
#X msg 597 95 17000;
#X obj 390 120 f 0;
#X obj 500 61 sel 1 0;
#X text 216 142 audio;
#X text 221 189 LFO;
#X obj 492 336 osc~;
#X obj 493 377 fold~ 2;
#X obj 186 128 moonlib/mknob 30 100 0 0.04 0 1 \$0-detunesnd \$0-detunercv
detune -2 -6 0 8 -203904 -159808 -1 0 1;
#X obj 277 274 smoother 50;
#X obj 401 282 *~;
#X obj 199 77 inlet~;
#X obj 401 261 +~ 1;
#X obj 529 303 cyclone/scale~ -1 1 0.5 1.5;
#X obj 289 308 *~;
#X msg 494 91 0.03;
#X msg 531 90 40;
#X msg 565 91 27;
#X obj 245 78 inlet;
#X obj 371 443 outlet~;
#X obj 484 446 outlet~;
#X obj 29 413 canvasargs;
#X text 586 28 creation arguments: 1 panel index 2 freq in hz 3 fold
amount (0.48 -4) 4 detune amount (0 - 0.04) 5 freq mod amount 6 fold
mod amount 7 rate (0 or 1 - audio / LFO);
#X obj 387 171 smoother 50;
#X obj 769 114 inlet;
#X obj 724 146 route freq fold detune modamt foldmodamt;
#X obj 724 175 cyclone/scale 0 127 0 127 3;
#X obj 724 197 s \$0-freqrcv;
#X obj 770 223 cyclone/scale 0 127 0.48 4;
#X obj 770 245 s \$0-foldrcv;
#X obj 227 118 tgl 15 0 \$0-switchsnd \$0-switchrcv empty 17 7 0 10
-154752 -261739 -1 1 1;
#X obj 128 413 r \$0-switchsnd;
#X msg 226 510 195 205 214;
#X obj 226 532 rgb, f 8;
#X obj 226 557 pack f \$0;
#X obj 227 439 sel 1 0;
#X msg 226 579 \; \$2-canvas color \$1;
#X text 120 532 color switching;
#N canvas 0 22 450 300 state_loading 0;
#X obj 50 80 loadbang;
#X obj 31 174 s \$0-freqrcv;
#X obj 39 196 s \$0-foldrcv;
#X obj 54 216 s \$0-detunercv;
#X obj 143 181 s \$0-modrcv;
#X obj 168 220 s \$0-ratercv;
#X obj 151 199 s \$0-foldmodrcv;
#X text 63 60 for loading state;
#X obj 48 110 pack \$1 \$2 \$3 \$4 \$5 \$6 \$7;
#X obj 59 139 unpack f f f f f f f;
#X connect 0 0 8 0;
#X connect 8 0 9 0;
#X connect 9 1 1 0;
#X connect 9 2 2 0;
#X connect 9 3 3 0;
#X connect 9 4 4 0;
#X connect 9 5 6 0;
#X connect 9 6 5 0;
#X restore 28 369 pd state_loading;
#N canvas 0 22 450 300 state_saving 0;
#X obj 10 88 r \$0-freqsnd;
#X obj 93 88 r \$0-foldsnd;
#X obj 171 88 r \$0-detunesnd;
#X obj 262 88 r \$0-modsnd;
#X obj 334 88 r \$0-foldmodsnd;
#X obj 224 159 pack \$1 f f f f f f;
#X obj 10 110 t b f;
#X obj 93 110 t b f;
#X obj 171 110 t b f;
#X obj 262 110 t b f;
#X obj 334 110 t b f;
#X obj 430 110 t b f;
#X obj 156 65 r savemessage;
#X text 272 65 for saving state;
#X obj 430 88 r \$0-ratesnd;
#X obj 224 181 outlet;
#X connect 0 0 6 0;
#X connect 1 0 7 0;
#X connect 2 0 8 0;
#X connect 3 0 9 0;
#X connect 4 0 10 0;
#X connect 5 0 15 0;
#X connect 6 0 5 0;
#X connect 6 1 5 1;
#X connect 7 0 5 0;
#X connect 7 1 5 2;
#X connect 8 0 5 0;
#X connect 8 1 5 3;
#X connect 9 0 5 0;
#X connect 9 1 5 4;
#X connect 10 0 5 0;
#X connect 10 1 5 5;
#X connect 11 0 5 0;
#X connect 11 1 5 6;
#X connect 12 0 5 0;
#X connect 14 0 11 0;
#X restore 29 388 pd state_saving;
#X msg 197 468 120 150 203;
#X obj 89 461 switch~;
#X connect 1 0 21 0;
#X connect 2 0 8 0;
#X connect 3 0 11 0;
#X connect 4 0 5 0;
#X connect 4 0 6 0;
#X connect 5 0 11 3;
#X connect 6 0 11 4;
#X connect 7 0 2 0;
#X connect 7 0 29 0;
#X connect 8 0 38 0;
#X connect 9 0 12 0;
#X connect 10 0 16 0;
#X connect 11 0 7 1;
#X connect 12 0 14 0;
#X connect 13 0 42 0;
#X connect 14 0 8 1;
#X connect 14 0 26 1;
#X connect 15 0 17 0;
#X connect 15 0 18 0;
#X connect 16 0 14 1;
#X connect 17 0 16 3;
#X connect 18 0 16 4;
#X connect 19 0 22 0;
#X connect 20 0 13 4;
#X connect 21 0 13 0;
#X connect 22 0 34 0;
#X connect 22 0 35 0;
#X connect 22 0 21 0;
#X connect 22 1 36 0;
#X connect 22 1 20 0;
#X connect 22 1 21 0;
#X connect 25 0 26 0;
#X connect 26 0 39 0;
#X connect 27 0 28 0;
#X connect 28 0 33 0;
#X connect 29 0 25 0;
#X connect 30 0 32 0;
#X connect 31 0 29 1;
#X connect 32 0 33 1;
#X connect 33 0 31 0;
#X connect 34 0 13 3;
#X connect 35 0 13 4;
#X connect 36 0 13 3;
#X connect 37 0 2 1;
#X connect 37 0 25 1;
#X connect 42 0 7 0;
#X connect 43 0 44 0;
#X connect 44 0 45 0;
#X connect 44 1 47 0;
#X connect 45 0 46 0;
#X connect 47 0 48 0;
#X connect 50 0 54 0;
#X connect 50 0 60 0;
#X connect 51 0 52 0;
#X connect 52 0 53 0;
#X connect 53 0 55 0;
#X connect 54 0 59 0;
#X connect 54 1 51 0;
#X connect 58 0 40 0;
#X connect 59 0 52 0;
#X coords 0 -1 1 1 150 110 2 100 100;
