#N canvas 117 45 450 300 10;
#X obj 129 58 inlet;
#X msg 35 158 0;
#X msg 64 158 2;
#X msg 92 158 4;
#X msg 119 158 7;
#X msg 146 158 9;
#X msg 173 158 12;
#X obj 124 269 outlet;
#X obj 136 120 sel 0 1 2 3 4 5 6 7;
#X msg 201 158 14;
#X msg 228 158 16;
#X connect 0 0 8 0;
#X connect 1 0 7 0;
#X connect 2 0 7 0;
#X connect 3 0 7 0;
#X connect 4 0 7 0;
#X connect 5 0 7 0;
#X connect 6 0 7 0;
#X connect 8 0 1 0;
#X connect 8 1 2 0;
#X connect 8 2 3 0;
#X connect 8 3 4 0;
#X connect 8 4 5 0;
#X connect 8 5 6 0;
#X connect 8 6 9 0;
#X connect 9 0 7 0;
