#N canvas 750 130 450 300 10;
#X obj 115 46 inlet;
#X obj 115 68 route bang;
#X msg 83 162 rewind;
#X obj 109 108 t b b;
#X obj 90 224 outlet toqlist;
#X obj 218 227 outlet kvpair;
#X obj 216 113 unpack f f f;
#X obj 256 154 pack f f;
#X obj 189 159 delay;
#X obj 233 191 list;
#X obj 185 80 t b b a;
#X msg 141 186 next;
#X obj 253 47 inlet tempo;
#X obj 213 139 /;
#X connect 0 0 1 0;
#X connect 1 0 3 0;
#X connect 1 1 10 0;
#X connect 2 0 4 0;
#X connect 3 0 11 0;
#X connect 3 1 2 0;
#X connect 6 0 13 0;
#X connect 6 1 7 0;
#X connect 6 2 7 1;
#X connect 7 0 9 1;
#X connect 8 0 9 0;
#X connect 8 0 11 0;
#X connect 9 0 5 0;
#X connect 10 1 8 0;
#X connect 10 2 6 0;
#X connect 11 0 4 0;
#X connect 12 0 13 1;
#X connect 13 0 8 1;
