#N canvas 208 116 454 435 10;
#X obj 115 347 outlet time-message pair;
#X obj 111 52 inlet message;
#X obj 111 160 timer;
#X obj 185 123 t b b a;
#X obj 185 201 pack f f f;
#X obj 217 167 unpack f f;
#X obj 111 86 route start stop;
#X obj 95 114 t b b;
#X obj 140 279 spigot;
#X msg 188 250 1;
#X msg 223 251 0;
#X connect 1 0 6 0;
#X connect 2 0 4 0;
#X connect 3 0 2 0;
#X connect 3 1 2 1;
#X connect 3 2 5 0;
#X connect 4 0 8 0;
#X connect 5 0 4 1;
#X connect 5 1 4 2;
#X connect 6 0 7 0;
#X connect 6 1 10 0;
#X connect 6 2 3 0;
#X connect 7 0 2 0;
#X connect 7 1 9 0;
#X connect 8 0 0 0;
#X connect 9 0 8 1;
#X connect 10 0 8 1;
