#N canvas 150 75 450 300 10;
#X obj 147 58 inlet;
#X obj 208 124 unpack f f;
#X obj 147 80 t l l;
#X obj 208 146 sel 0;
#X msg 199 174 0;
#X msg 247 175 1;
#X obj 139 211 spigot;
#X text 237 87 rejects lists that start with 0;
#X obj 139 233 outlet;
#X connect 0 0 2 0;
#X connect 1 0 3 0;
#X connect 2 0 6 0;
#X connect 2 1 1 0;
#X connect 3 0 4 0;
#X connect 3 1 5 0;
#X connect 4 0 6 1;
#X connect 5 0 6 1;
#X connect 6 0 8 0;
