#N canvas 0 22 450 300 10;
#X obj 157 107 unpack f f;
#X obj 157 129 swap;
#X obj 157 151 pack f f;
#X obj 140 40 inlet;
#X obj 146 219 outlet;
#X connect 0 0 1 0;
#X connect 0 1 1 1;
#X connect 1 0 2 0;
#X connect 1 1 2 1;
#X connect 2 0 4 0;
#X connect 3 0 0 0;
