#N canvas 0 22 473 363 10;
#X obj 123 44 inlet;
#X obj 200 46 inlet;
#X obj 266 47 inlet;
#X obj 265 146 t b f;
#X obj 198 169 +;
#X obj 198 194 t b f;
#X obj 198 225 +;
#X obj 122 123 * -65536;
#X obj 199 124 * -256;
#X obj 265 124 * -1;
#X obj 198 256 - 1;
#X obj 192 291 outlet;
#X obj 44 49 inlet;
#X obj 44 71 unpack f f f;
#X connect 0 0 7 0;
#X connect 1 0 8 0;
#X connect 2 0 9 0;
#X connect 3 0 4 0;
#X connect 3 1 4 1;
#X connect 4 0 5 0;
#X connect 5 0 6 0;
#X connect 5 1 6 1;
#X connect 6 0 10 0;
#X connect 7 0 6 0;
#X connect 8 0 4 0;
#X connect 9 0 3 0;
#X connect 10 0 11 0;
#X connect 12 0 13 0;
#X connect 13 0 7 0;
#X connect 13 1 8 0;
#X connect 13 2 9 0;
