#N canvas 293 66 915 678 10;
#X obj 332 12 cnv 15 146 146 empty \$0-cnvrcv empty 20 12 0 14 -244085
-66577 0;
#X obj 12 12 cnv 15 146 146 empty \$0-cnvrcv empty 20 12 0 14 -244085
-66577 0;
#X obj 529 364 phasor~;
#X obj 529 387 *~ 88200;
#X obj 529 409 +~ 1;
#X obj 528 319 smoother 50;
#X floatatom 117 46 5 0 0 2 rate #0-ratercv #0-ratesnd, f 5;
#X obj 527 431 +~;
#X obj 557 644 outlet~;
#X obj 607 644 outlet~;
#X obj 14 120 bng 30 250 50 0 empty empty load 3 15 0 10 -260846 -211840
-1;
#X obj 528 296 expr ($f1/100)/($f2/88200);
#X obj 464 239 cyclone/scale~ -1 1 0.2 1.8;
#X obj 302 553 inlet~ audioL;
#X obj 387 553 inlet~ audioR;
#X obj 527 458 tabread4~ \$0-samp1L;
#X obj 581 479 tabread4~ \$0-samp1R;
#X obj 654 250 r \$0-sampsize;
#X obj 14 15 tgl 30 0 \$0-recsnd \$0-recrcv rec 6 25 0 10 -257024 -213060
-1 0 1;
#X obj 527 502 hip~ 28;
#X obj 581 502 hip~ 28;
#X obj 14 50 tgl 30 0 \$0-overdubsnd \$0-overdubrcv dub 6 25 0 10 -261361
-213060 -1 0 1;
#X obj 385 457 snapshot~;
#X obj 385 433 metro 25;
#X obj 340 40 hsl 130 8 0 100 0 0 \$0-positionsnd \$0-positionrcv empty
-2 -8 0 10 -190656 -241472 -1 0 1;
#X obj 385 480 expr $f1 * (100/$f2);
#X obj 654 272 t b f;
#X obj 411 216 inlet~;
#X obj 413 313 *~ 0;
#X obj 567 215 inlet reset;
#X obj 413 240 +~ 1;
#X obj 435 287 / 16;
#X obj 413 262 *~ 8;
#X obj 117 63 tgl 15 0 \$0-posmodsnd \$0-posmodrcv pos_Mod 0 20 0 8
-187904 -1 -1 0 1;
#X obj 413 337 *~ 0;
#X obj 385 389 loadbang;
#X msg 385 411 1;
#X obj 464 216 inlet~ rate;
#N canvas 0 22 662 500 recording 0;
#X obj 254 95 inlet~ index;
#X obj 55 404 inlet~ audioL;
#X obj 145 404 inlet~ audioR;
#X obj 60 439 tabwrite~ \$0-samp1L;
#X obj 150 462 tabwrite~ \$0-samp1R;
#X obj 111 169 timer;
#X obj 84 119 sel 1 0;
#X obj 84 145 t b b;
#X obj 111 240 s \$0-sampsize;
#X obj 269 234 s \$0-samp1L;
#X obj 269 256 s \$0-samp1R;
#X msg 269 202 resize \$1;
#X obj 154 192 samplerate~;
#X obj 159 163 r pd-dsp-started;
#X obj 151 141 loadbang;
#X obj 111 192 / 1000;
#X obj 111 215 *;
#X msg 269 175 resize 441000;
#X obj 142 302 sel 1 0;
#X obj 226 381 *~;
#X obj 260 405 *~;
#X obj 241 335 smoother 15;
#X obj 142 278 r \$0-overdubsnd;
#X obj 252 311 snapshot~;
#X msg 151 363 start \$1;
#X msg 104 364 stop;
#X text 358 164 resize to 10s while recording, f 17;
#X obj 333 353 inlet~ overdubL;
#X obj 448 354 inlet~ overdubR;
#X obj 79 80 r \$0-recsnd;
#X text 38 191 calculate number of samples, f 11;
#X text 341 198 resize to recording length after recording, f 19;
#X text 315 308 start overdubbing at current play position;
#X connect 0 0 23 0;
#X connect 1 0 3 0;
#X connect 2 0 4 0;
#X connect 5 0 15 0;
#X connect 6 0 7 0;
#X connect 6 1 5 1;
#X connect 7 0 3 0;
#X connect 7 0 4 0;
#X connect 7 1 5 0;
#X connect 7 1 17 0;
#X connect 11 0 9 0;
#X connect 11 0 10 0;
#X connect 12 0 16 1;
#X connect 13 0 12 0;
#X connect 14 0 12 0;
#X connect 15 0 16 0;
#X connect 16 0 11 0;
#X connect 16 0 8 0;
#X connect 17 0 9 0;
#X connect 17 0 10 0;
#X connect 18 0 23 0;
#X connect 18 1 25 0;
#X connect 19 0 3 0;
#X connect 20 0 4 0;
#X connect 21 0 19 1;
#X connect 21 0 20 1;
#X connect 22 0 18 0;
#X connect 22 0 21 0;
#X connect 23 0 24 0;
#X connect 24 0 4 0;
#X connect 24 0 3 0;
#X connect 25 0 3 0;
#X connect 25 0 4 0;
#X connect 27 0 19 0;
#X connect 28 0 20 0;
#X connect 29 0 6 0;
#X restore 437 578 pd recording;
#X obj 385 502 s \$0-positionrcv;
#X obj 528 269 r \$0-ratesnd;
#X text 690 295 rate calculation;
#X text 590 387 scaling;
#X text 321 406 display playback position, f 9;
#X obj 108 139 hradio 15 1 0 3 \$0-tabselectorsnd \$0-tabselectorrcv
empty 0 -8 0 10 -248799 -222740 -1 0;
#X obj 320 311 r \$0-posmodsnd;
#X obj 14 206 namecanvas \$0-sampler;
#X obj 172 12 cnv 15 146 146 empty \$0-cnvrcv empty 20 12 0 14 -244085
-66577 0;
#X obj 268 139 hradio 15 1 0 3 \$0-tabselectorsnd \$0-tabselectorrcv
empty 0 -8 0 10 -248799 -222740 -1 0;
#X obj 428 139 hradio 15 1 0 3 \$0-tabselectorsnd \$0-tabselectorrcv
empty 0 -8 0 10 -248799 -222740 -1 0;
#X obj 48 17 vsl 20 100 0 1.8 0 0 \$0-levelsnd \$0-levelrcv Vol 2 3
0 8 -261302 -260006 -1 1800 1;
#X obj 557 620 *~;
#X obj 607 620 *~;
#X obj 641 573 r \$0-levelsnd;
#X obj 641 595 smoother 50;
#N canvas 0 22 450 300 tabs 0;
#X msg 51 108 0;
#X obj 50 159 pack f f;
#X obj 30 81 t f f b;
#X obj 84 109 sel 0 1 2;
#X msg 84 134 10;
#X obj 50 209 s \$0-sampler;
#X msg 112 134 170;
#X msg 139 134 330;
#X obj 30 58 r \$0-tabselectorsnd;
#X msg 159 83 set \$1;
#X obj 159 105 s \$0-tabselectorrcv;
#X obj 168 38 loadbang;
#X msg 168 60 0;
#X msg 29 109 2;
#X msg 50 183 donecanvasdialog 1 -1 \$1 0 -1 1 1 150 150 \$2 10 \,
dirty 0;
#X connect 0 0 1 0;
#X connect 1 0 14 0;
#X connect 2 0 13 0;
#X connect 2 1 3 0;
#X connect 2 2 0 0;
#X connect 3 0 4 0;
#X connect 3 1 6 0;
#X connect 3 2 7 0;
#X connect 4 0 1 1;
#X connect 6 0 1 1;
#X connect 7 0 1 1;
#X connect 8 0 2 0;
#X connect 8 0 9 0;
#X connect 9 0 10 0;
#X connect 11 0 12 0;
#X connect 12 0 2 0;
#X connect 12 0 9 0;
#X connect 13 0 1 0;
#X connect 14 0 5 0;
#X restore 123 179 pd tabs;
#N canvas 598 97 581 567 fx 0;
#X obj 125 46 inlet~;
#X obj 193 47 inlet~;
#X obj 121 350 outlet~;
#X obj 228 351 outlet~;
#N canvas 638 65 465 452 secondstage 0;
#X obj 102 49 inlet~;
#X obj 207 50 inlet~;
#X obj 102 227 outlet~;
#X obj 215 229 outlet~;
#X obj 290 56 inlet;
#X obj 290 78 switch~;
#X obj 197 87 r \$0-distsnd;
#X obj 188 115 * 2;
#X obj 111 141 stereodist;
#X connect 0 0 8 0;
#X connect 1 0 8 1;
#X connect 4 0 5 0;
#X connect 6 0 7 0;
#X connect 7 0 8 2;
#X connect 8 0 2 0;
#X connect 8 1 3 0;
#X restore 149 244 pd secondstage;
#X obj 279 206 tgl 15 0 empty empty empty 17 7 0 10 -262144 -1 -1 1
1;
#X obj 289 235 expr 1-$f1;
#X obj 217 310 *~ 0;
#X obj 124 306 *~ 0;
#X obj 279 180 r \$0-2stagesnd;
#N canvas 1 23 450 300 firststage 0;
#X obj 125 46 inlet~;
#X obj 193 47 inlet~;
#X obj 195 109 r \$0-distsnd;
#X obj 278 108 r \$0-filtsnd;
#X obj 243 141 smoother 20;
#X obj 115 249 outlet~;
#X obj 215 249 outlet~;
#X obj 137 169 vcf~ 3;
#X obj 217 169 vcf~ 3;
#X obj 137 139 stereodist;
#X connect 0 0 9 0;
#X connect 1 0 9 1;
#X connect 2 0 9 2;
#X connect 3 0 4 0;
#X connect 4 0 7 1;
#X connect 4 0 8 1;
#X connect 7 0 5 0;
#X connect 8 0 6 0;
#X connect 9 0 7 0;
#X connect 9 1 8 0;
#X restore 123 167 pd firststage;
#X connect 0 0 10 0;
#X connect 1 0 10 1;
#X connect 4 0 2 0;
#X connect 4 1 3 0;
#X connect 5 0 4 2;
#X connect 5 0 6 0;
#X connect 6 0 7 1;
#X connect 6 0 8 1;
#X connect 7 0 3 0;
#X connect 8 0 2 0;
#X connect 9 0 5 0;
#X connect 10 0 4 0;
#X connect 10 0 8 0;
#X connect 10 1 4 1;
#X connect 10 1 7 0;
#X restore 563 568 pd fx;
#X obj 70 17 vsl 20 100 1 110 0 0 \$0-distsnd \$0-distrcv Dist 0 3
0 8 -244544 -260006 -1 8800 1;
#X obj 92 17 vsl 20 100 40 15000 1 0 \$0-filtsnd \$0-filtrcv Filt 0
3 0 8 -260394 -260006 -1 8100 1;
#X obj 117 89 tgl 15 0 \$0-2stagesnd \$0-2stagercv 2stage 0 21 0 8
-208320 -259412 -1 1 1;
#X obj 139 15 tgl 15 0 \$0-switchsnd \$0-switchrcv empty 17 7 0 10
-259567 -261773 -1 1 1;
#X obj 13 308 s \$0-cnvrcv;
#X obj 14 282 switch~;
#X obj 14 259 r \$0-switchsnd;
#X obj 299 15 tgl 15 0 \$0-switchsnd \$0-switchrcv empty 17 7 0 10
-259567 -261773 -1 1 1;
#X obj 459 15 tgl 15 0 \$0-switchsnd \$0-switchrcv empty 17 7 0 10
-259567 -261773 -1 1 1;
#X msg 105 282 set \$1;
#X obj 105 304 s \$0-switchrcv;
#X obj 14 85 bng 30 250 50 0 empty empty save 3 15 0 10 -261549 -211840
-1;
#X msg 17 402 195 205 214;
#X obj 17 424 rgb, f 8;
#X obj 17 449 pack f \$0;
#X msg 17 471 \; \$2-cnvrcv color \$1;
#X msg 23 373 239 151 208;
#X obj 12 332 sel 1 0;
#X symbolatom 48 122 17 0 0 0 - #0-filedisprcv #0-filedispsnd, f 17
;
#N canvas 562 236 691 323 state_loading 0;
#X obj 126 152 s \$0-levelrcv;
#X obj 126 174 s \$0-distrcv;
#X obj 126 196 s \$0-filtrcv;
#X obj 126 238 s \$0-posmodrcv;
#X obj 126 260 s \$0-2stagercv;
#X obj 126 216 s \$0-ratercv;
#X obj 129 25 loadbang;
#X obj 254 248 s \$0-filenamercv;
#X obj 320 84 bng 15 250 50 0 empty empty empty 17 7 0 10 -262144 -1
-1;
#X obj 129 47 pack \$1 \$2 \$3 \$4 \$5 \$6 \$7;
#X obj 129 69 unpack f f f f f f f;
#X obj 125 282 s \$0-switchrcv;
#X obj 297 118 symbol \$8;
#X connect 6 0 9 0;
#X connect 6 0 12 0;
#X connect 8 0 12 0;
#X connect 9 0 10 0;
#X connect 10 0 0 0;
#X connect 10 1 1 0;
#X connect 10 2 2 0;
#X connect 10 3 5 0;
#X connect 10 4 3 0;
#X connect 10 5 4 0;
#X connect 10 6 11 0;
#X connect 12 0 7 0;
#X restore 178 183 pd state_loading;
#N canvas 278 116 902 486 saving_loading 0;
#X obj 328 284 soundfiler;
#X obj 290 72 openpanel;
#X msg 467 249 read -maxsize 1.323e+07 -resize /Users/adamadhiyatma/Documents/Pd/samples/entering.wav
1498-samp1L 1498-samp1R;
#X obj 345 125 f \$0;
#X msg 365 170 add2 \$1-samp1L;
#X obj 345 147 t f f;
#X msg 368 190 add2 \$1-samp1R;
#X obj 329 315 s \$0-sampsize;
#X obj 178 233 moonlib/basedir;
#X obj 179 290 pack s \$0;
#X obj 178 255 unpack s s;
#X obj 70 15 inlet save;
#X obj 254 29 inlet load;
#X obj 79 63 savepanel;
#X obj 79 85 pack s \$0;
#X msg 79 107 write \$1 \$2-samp1L \$2-samp1R;
#X obj 82 133 soundfiler;
#X obj 397 36 r \$0-filenamercv;
#X obj 408 102 s \$0-filenamesnd;
#X obj 29 175 s \$0-filenamesnd;
#X msg 179 312 \; \$2-filedisprcv set \$1;
#X msg 497 168 set;
#X obj 440 78 print;
#X obj 290 94 t b b a b;
#X msg 321 216 set read -maxsize 1.323e+07 -resize \$1;
#X obj 446 314 f \$0;
#X msg 446 336 \; \$1-samp1L normalize \; \$1-samp1R normalize \;;
#X obj 412 295 bang;
#X connect 0 0 7 0;
#X connect 0 0 27 0;
#X connect 1 0 18 0;
#X connect 1 0 23 0;
#X connect 2 0 0 0;
#X connect 3 0 5 0;
#X connect 4 0 2 0;
#X connect 5 0 6 0;
#X connect 5 1 4 0;
#X connect 6 0 2 0;
#X connect 8 0 10 0;
#X connect 9 0 20 0;
#X connect 10 0 9 0;
#X connect 11 0 13 0;
#X connect 12 0 1 0;
#X connect 13 0 14 0;
#X connect 13 0 19 0;
#X connect 14 0 15 0;
#X connect 15 0 16 0;
#X connect 17 0 22 0;
#X connect 17 0 23 0;
#X connect 17 0 18 0;
#X connect 21 0 2 0;
#X connect 23 0 2 0;
#X connect 23 1 3 0;
#X connect 23 2 24 0;
#X connect 23 2 8 0;
#X connect 23 3 21 0;
#X connect 24 0 2 0;
#X connect 25 0 26 0;
#X connect 27 0 25 0;
#X restore 13 179 pd saving_loading;
#N canvas 466 117 516 394 state_saving 0;
#X obj 110 288 outlet;
#X obj 108 52 r \$0-levelsnd;
#X obj 124 72 r \$0-distsnd;
#X obj 140 92 r \$0-filtsnd;
#X obj 160 112 r \$0-ratesnd;
#X obj 173 133 r \$0-posmodsnd;
#X obj 189 156 r \$0-2stagesnd;
#X obj 320 202 r \$0-filenamesnd;
#X obj 320 224 t b s;
#X obj 212 180 r \$0-switchsnd;
#X obj 113 217 cyclone/bondo 7;
#X obj 113 266 pack f f f f f f f s;
#X connect 1 0 10 0;
#X connect 2 0 10 1;
#X connect 3 0 10 2;
#X connect 4 0 10 3;
#X connect 5 0 10 4;
#X connect 6 0 10 5;
#X connect 7 0 8 0;
#X connect 8 0 11 0;
#X connect 8 1 11 7;
#X connect 9 0 10 6;
#X connect 10 0 11 0;
#X connect 10 1 11 1;
#X connect 10 2 11 2;
#X connect 10 3 11 3;
#X connect 10 4 11 4;
#X connect 10 5 11 5;
#X connect 10 6 11 6;
#X connect 11 0 0 0;
#X restore 180 208 pd state_saving;
#X obj 180 230 canvasargs;
#X obj 266 238 print;
#X text 299 183 Note: Spaces in file names are still very badly handled!
recommend not having any.;
#X obj 338 20 bng 15 250 50 0 \$0-viewsamplessnd empty view 17 7 0
10 -259992 -261750 -1;
#X obj 625 67 r \$0-viewsamplessnd;
#N canvas 0 23 348 394 \$0-samples 0;
#X obj 7 9 cnv 15 330 370 empty empty empty 20 12 0 14 -155129 -66577
0;
#X obj 23 37 hsl 295 320 0 100 0 0 \$0-positionsnd \$0-positionrcv
empty -2 -8 0 10 -190656 -241472 -1 0 1;
#N canvas 0 22 450 278 (subpatch) 0;
#X array \$0-samp1L 981120 float 2;
#X coords 0 1 981120 -1 300 150 1 0 0;
#X restore 20 37 graph;
#N canvas 0 22 450 278 (subpatch) 0;
#X array \$0-samp1R 981120 float 2;
#X coords 0 1 981120 -1 300 150 1 0 0;
#X restore 20 207 graph;
#X restore 625 147 pd \$0-samples;
#X obj 625 89 f \$0;
#X msg 625 111 \; pd-\$1-samples vis 1;
#X obj 48 139 bng 15 250 50 0 \$0-viewsamplessnd empty view 17 7 0
10 -259992 -261750 -1;
#X text 624 49 view samples;
#X obj 528 340 *~;
#X connect 2 0 3 0;
#X connect 3 0 4 0;
#X connect 4 0 7 0;
#X connect 5 0 89 0;
#X connect 7 0 15 0;
#X connect 7 0 16 0;
#X connect 7 0 22 0;
#X connect 7 0 38 2;
#X connect 10 0 77 1;
#X connect 11 0 5 0;
#X connect 12 0 89 1;
#X connect 13 0 38 0;
#X connect 14 0 38 1;
#X connect 15 0 19 0;
#X connect 16 0 20 0;
#X connect 17 0 26 0;
#X connect 17 0 31 0;
#X connect 19 0 38 3;
#X connect 19 0 56 0;
#X connect 20 0 38 4;
#X connect 20 0 56 1;
#X connect 22 0 25 0;
#X connect 23 0 22 0;
#X connect 25 0 39 0;
#X connect 26 0 11 0;
#X connect 26 1 11 1;
#X connect 26 1 3 1;
#X connect 26 1 25 1;
#X connect 27 0 30 0;
#X connect 28 0 34 0;
#X connect 29 0 2 1;
#X connect 30 0 32 0;
#X connect 31 0 28 1;
#X connect 32 0 28 0;
#X connect 34 0 7 1;
#X connect 35 0 36 0;
#X connect 36 0 23 0;
#X connect 37 0 12 0;
#X connect 40 0 11 0;
#X connect 45 0 34 1;
#X connect 51 0 8 0;
#X connect 52 0 9 0;
#X connect 53 0 54 0;
#X connect 54 0 52 1;
#X connect 54 0 51 1;
#X connect 56 0 51 0;
#X connect 56 1 52 0;
#X connect 63 0 62 0;
#X connect 63 0 66 0;
#X connect 63 0 74 0;
#X connect 66 0 67 0;
#X connect 68 0 77 0;
#X connect 69 0 70 0;
#X connect 70 0 71 0;
#X connect 71 0 72 0;
#X connect 73 0 70 0;
#X connect 74 0 73 0;
#X connect 74 1 69 0;
#X connect 78 0 79 0;
#X connect 83 0 85 0;
#X connect 85 0 86 0;
#X connect 89 0 2 0;
#X coords 0 -1 1 1 150 150 2 10 10;
