#N canvas 0 22 450 300 10;
#X obj 124 65 inlet~;
#X obj 219 67 inlet;
#X obj 124 166 cyclone/scale~ -1 1 1 1;
#X obj 231 123 expr 1 + $f1;
#X obj 206 144 expr 1 - $f1;
#X obj 147 232 outlet~;
#X text 224 50 deviation from 1;
#X text 125 47 signal;
#X connect 0 0 2 0;
#X connect 1 0 3 0;
#X connect 1 0 4 0;
#X connect 2 0 5 0;
#X connect 3 0 2 4;
#X connect 4 0 2 3;
