#N canvas 144 23 1100 738 10;
#X obj 203 22 inlet;
#X obj 622 93 f 1;
#X obj 652 93 + 1;
#X obj 355 262 f 0;
#X obj 379 262 f 0;
#X obj 403 262 f 0;
#X obj 427 262 f 0;
#X obj 546 390 outlet;
#X obj 462 384 outlet;
#X msg 573 351 1;
#X msg 628 354 0;
#X obj 603 389 outlet;
#X obj 612 67 bang;
#X obj 451 262 f 0;
#X obj 475 262 f 0;
#X obj 499 262 f 0;
#X obj 523 262 f 0;
#X obj 540 33 inlet;
#X obj 657 388 outlet;
#N canvas 262 61 570 321 state_loading 0;
#X obj 92 34 loadbang;
#X obj 50 117 s \$0-indexrcv;
#X obj 49 10 r recallpreset-\$1;
#X obj 92 56 pack \$1 \$2 \$3 \$4 \$5 \$6 \$7 \$8 \$9 \$10 \$11 \$12
\$13 \$14 \$15 \$16 \$17, f 69;
#X obj 80 162 s \$0-tgl1rcv;
#X obj 80 184 s \$0-tgl2rcv;
#X obj 80 206 s \$0-tgl3rcv;
#X obj 80 228 s \$0-tgl4rcv;
#X obj 180 161 s \$0-tgl5rcv;
#X obj 180 183 s \$0-tgl6rcv;
#X obj 180 205 s \$0-tgl7rcv;
#X obj 180 227 s \$0-tgl8rcv;
#X obj 281 162 s \$0-tgl9rcv;
#X obj 281 184 s \$0-tgl10rcv;
#X obj 281 206 s \$0-tgl11rcv;
#X obj 281 228 s \$0-tgl12rcv;
#X obj 390 186 s \$0-tgl14rcv;
#X obj 390 208 s \$0-tgl15rcv;
#X obj 390 230 s \$0-tgl16rcv;
#X obj 390 164 s \$0-tgl13rcv;
#X obj 92 85 unpack f f f f f f f f f f f f f f f f f, f 69;
#X connect 0 0 3 0;
#X connect 2 0 20 0;
#X connect 3 0 20 0;
#X connect 20 0 1 0;
#X connect 20 1 4 0;
#X connect 20 2 5 0;
#X connect 20 3 6 0;
#X connect 20 4 7 0;
#X connect 20 5 8 0;
#X connect 20 6 9 0;
#X connect 20 7 10 0;
#X connect 20 8 11 0;
#X connect 20 9 12 0;
#X connect 20 10 13 0;
#X connect 20 11 14 0;
#X connect 20 12 15 0;
#X connect 20 13 19 0;
#X connect 20 14 16 0;
#X connect 20 15 17 0;
#X connect 20 16 18 0;
#X restore 49 210 pd state_loading;
#N canvas 0 23 610 380 state_saving 0;
#X text 103 17 state saving;
#X obj 98 277 outlet;
#X obj 5 96 r \$0-indexsnd;
#X obj 418 170 r storebang;
#X obj 418 192 t b b b;
#X msg 463 227 1;
#X obj 408 283 spigot;
#X msg 401 229 0;
#X obj 408 346 s storeinfo;
#X obj 408 305 reject0;
#X obj 98 218 cyclone/bondo 17, f 39;
#X obj 98 255 pack \$1 f f f f f f f f f f f f f f f f;
#X obj 84 68 r \$0-tgl1snd;
#X obj 99 88 r \$0-tgl2snd;
#X obj 109 108 r \$0-tgl3snd;
#X obj 120 130 r \$0-tgl4snd;
#X obj 192 67 r \$0-tgl5snd;
#X obj 202 87 r \$0-tgl6snd;
#X obj 213 108 r \$0-tgl7snd;
#X obj 222 127 r \$0-tgl8snd;
#X obj 284 68 r \$0-tgl9snd;
#X obj 299 88 r \$0-tgl10snd;
#X obj 309 108 r \$0-tgl11snd;
#X obj 320 130 r \$0-tgl12snd;
#X obj 392 67 r \$0-tgl13snd;
#X obj 403 87 r \$0-tgl14snd;
#X obj 413 108 r \$0-tgl15snd;
#X obj 422 127 r \$0-tgl16snd;
#X connect 2 0 10 0;
#X connect 3 0 4 0;
#X connect 4 0 7 0;
#X connect 4 1 10 0;
#X connect 4 2 5 0;
#X connect 5 0 6 1;
#X connect 6 0 9 0;
#X connect 7 0 6 1;
#X connect 9 0 8 0;
#X connect 10 0 11 0;
#X connect 10 1 11 1;
#X connect 10 2 11 2;
#X connect 10 3 11 3;
#X connect 10 4 11 4;
#X connect 10 5 11 5;
#X connect 10 6 11 6;
#X connect 10 7 11 7;
#X connect 10 8 11 8;
#X connect 10 9 11 9;
#X connect 10 10 11 10;
#X connect 10 11 11 11;
#X connect 10 12 11 12;
#X connect 10 13 11 13;
#X connect 10 14 11 14;
#X connect 10 15 11 15;
#X connect 10 16 11 16;
#X connect 11 0 1 0;
#X connect 11 0 6 0;
#X connect 12 0 10 1;
#X connect 13 0 10 2;
#X connect 14 0 10 3;
#X connect 15 0 10 4;
#X connect 16 0 10 5;
#X connect 17 0 10 6;
#X connect 18 0 10 7;
#X connect 19 0 10 8;
#X connect 20 0 10 9;
#X connect 21 0 10 10;
#X connect 22 0 10 11;
#X connect 23 0 10 12;
#X connect 24 0 10 13;
#X connect 25 0 10 14;
#X connect 26 0 10 15;
#X connect 27 0 10 16;
#X restore 49 230 pd state_saving;
#X obj 49 251 canvasargs;
#X obj 498 317 sel 1 0;
#X obj 668 32 r allsequencers;
#N canvas 349 31 787 519 offset 0;
#X obj 204 284 f 0;
#X obj 234 284 f 0;
#X obj 264 284 f 0;
#X obj 294 284 f 0;
#X obj 324 284 f 0;
#X obj 354 284 f 0;
#X obj 384 284 f 0;
#X obj 414 284 f 0;
#X msg 52 381 symbol \$1;
#X obj 301 453 send;
#X obj 184 314 f 0;
#X obj 214 314 f 0;
#X obj 244 314 f 0;
#X obj 274 314 f 0;
#X obj 304 314 f 0;
#X obj 334 314 f 0;
#X obj 364 314 f 0;
#X obj 394 314 f 0;
#X obj 49 86 until;
#X msg 103 67 0;
#X obj 49 108 f 0;
#X obj 88 108 + 1;
#X obj 405 231 bang;
#X obj 50 39 t f f b;
#X obj 49 130 t f f;
#X obj 76 193 + 1;
#X obj 76 150 + 1;
#X obj 444 284 f 0;
#X obj 474 284 f 0;
#X obj 504 284 f 0;
#X obj 534 284 f 0;
#X obj 564 284 f 0;
#X obj 594 284 f 0;
#X obj 624 284 f 0;
#X obj 654 284 f 0;
#X obj 424 314 f 0;
#X obj 454 314 f 0;
#X obj 484 314 f 0;
#X obj 514 314 f 0;
#X obj 544 314 f 0;
#X obj 574 314 f 0;
#X obj 604 314 f 0;
#X obj 634 314 f 0;
#X obj 206 149 r \$0-tgl1snd;
#X obj 216 169 r \$0-tgl2snd;
#X obj 226 189 r \$0-tgl3snd;
#X obj 236 209 r \$0-tgl4snd;
#X obj 309 148 r \$0-tgl5snd;
#X obj 319 168 r \$0-tgl6snd;
#X obj 329 189 r \$0-tgl7snd;
#X obj 339 208 r \$0-tgl8snd;
#X obj 406 149 r \$0-tgl9snd;
#X obj 416 169 r \$0-tgl10snd;
#X obj 426 189 r \$0-tgl11snd;
#X obj 435 209 r \$0-tgl12snd;
#X obj 509 149 r \$0-tgl13snd;
#X obj 519 168 r \$0-tgl14snd;
#X obj 529 189 r \$0-tgl15snd;
#X obj 538 209 r \$0-tgl16snd;
#X obj 76 171 mod 16;
#X msg 50 17 16;
#X obj 38 235 sel 0 1 2 3 4 5 6 7 8 9 10 11 12 13 14 15;
#X obj 52 359 makefilename \$0-tgl%drcv;
#X obj 204 33 r \$0-offsetplussnd;
#X obj 340 32 r \$0-offsetminussnd;
#X obj 204 54 t b f;
#X msg 229 84 1;
#X obj 340 53 t b f;
#X msg 370 83 -1;
#X connect 0 0 10 1;
#X connect 1 0 11 1;
#X connect 2 0 12 1;
#X connect 3 0 13 1;
#X connect 4 0 14 1;
#X connect 5 0 15 1;
#X connect 6 0 16 1;
#X connect 7 0 17 1;
#X connect 8 0 9 1;
#X connect 10 0 9 0;
#X connect 11 0 9 0;
#X connect 12 0 9 0;
#X connect 13 0 9 0;
#X connect 14 0 9 0;
#X connect 15 0 9 0;
#X connect 16 0 9 0;
#X connect 17 0 9 0;
#X connect 18 0 20 0;
#X connect 19 0 20 1;
#X connect 20 0 21 0;
#X connect 20 0 24 0;
#X connect 21 0 20 1;
#X connect 22 0 0 0;
#X connect 22 0 1 0;
#X connect 22 0 2 0;
#X connect 22 0 3 0;
#X connect 22 0 4 0;
#X connect 22 0 5 0;
#X connect 22 0 6 0;
#X connect 22 0 7 0;
#X connect 22 0 27 0;
#X connect 22 0 28 0;
#X connect 22 0 29 0;
#X connect 22 0 30 0;
#X connect 22 0 31 0;
#X connect 22 0 32 0;
#X connect 22 0 33 0;
#X connect 22 0 34 0;
#X connect 23 0 18 0;
#X connect 23 1 19 0;
#X connect 23 2 22 0;
#X connect 24 0 61 0;
#X connect 24 1 26 0;
#X connect 25 0 62 0;
#X connect 26 0 59 0;
#X connect 27 0 35 1;
#X connect 28 0 36 1;
#X connect 29 0 37 1;
#X connect 30 0 38 1;
#X connect 31 0 39 1;
#X connect 32 0 40 1;
#X connect 33 0 41 1;
#X connect 34 0 42 1;
#X connect 35 0 9 0;
#X connect 36 0 9 0;
#X connect 37 0 9 0;
#X connect 38 0 9 0;
#X connect 39 0 9 0;
#X connect 40 0 9 0;
#X connect 41 0 9 0;
#X connect 42 0 9 0;
#X connect 43 0 0 1;
#X connect 44 0 1 1;
#X connect 45 0 2 1;
#X connect 46 0 3 1;
#X connect 47 0 4 1;
#X connect 48 0 5 1;
#X connect 49 0 6 1;
#X connect 50 0 7 1;
#X connect 51 0 27 1;
#X connect 52 0 28 1;
#X connect 53 0 29 1;
#X connect 54 0 30 1;
#X connect 55 0 31 1;
#X connect 56 0 32 1;
#X connect 57 0 33 1;
#X connect 58 0 34 1;
#X connect 59 0 25 0;
#X connect 60 0 23 0;
#X connect 61 0 10 0;
#X connect 61 1 11 0;
#X connect 61 2 12 0;
#X connect 61 3 13 0;
#X connect 61 4 14 0;
#X connect 61 5 15 0;
#X connect 61 6 16 0;
#X connect 61 7 17 0;
#X connect 61 8 35 0;
#X connect 61 9 36 0;
#X connect 61 10 37 0;
#X connect 61 11 38 0;
#X connect 61 12 39 0;
#X connect 61 13 40 0;
#X connect 61 14 41 0;
#X connect 61 15 42 0;
#X connect 62 0 8 0;
#X connect 63 0 65 0;
#X connect 64 0 67 0;
#X connect 65 0 60 0;
#X connect 65 1 66 0;
#X connect 66 0 26 1;
#X connect 67 0 60 0;
#X connect 67 1 68 0;
#X connect 68 0 26 1;
#X restore 49 161 pd offset;
#X obj 182 104 bng 15 250 50 0 \$0-offsetplussnd \$0-offsetplusrcv
+ 5 7 0 10 -145664 -184192 -1;
#X obj 884 138 propertybang;
#N canvas 469 151 124 63 \$0-properties 0;
#X floatatom 62 24 5 0 0 0 index #0-indexrcv #0-indexsnd, f 5;
#X restore 885 225 pd \$0-properties;
#X msg 884 187 \; pd-\$1-properties vis 1;
#X obj 884 160 f \$0;
#X obj 53 104 tgl 15 0 \$0-tgl1snd \$0-tgl1rcv empty 17 7 0 10 -117052
-117052 -1 0 1;
#X obj 69 104 tgl 15 0 \$0-tgl2snd \$0-tgl2rcv empty 17 7 0 10 -117052
-117052 -1 0 1;
#X obj 85 104 tgl 15 0 \$0-tgl3snd \$0-tgl3rcv empty 17 7 0 10 -255414
-255414 -1 1 1;
#X obj 101 104 tgl 15 0 \$0-tgl4snd \$0-tgl4rcv empty 17 7 0 10 -117052
-117052 -1 0 1;
#X obj 117 104 tgl 15 0 \$0-tgl5snd \$0-tgl5rcv empty 17 7 0 10 -117052
-117052 -1 0 1;
#X obj 133 104 tgl 15 0 \$0-tgl6snd \$0-tgl6rcv empty 17 7 0 10 -255414
-255414 -1 1 1;
#X obj 149 104 tgl 15 0 \$0-tgl7snd \$0-tgl7rcv empty 17 7 0 10 -255414
-255414 -1 1 1;
#X obj 165 104 tgl 15 0 \$0-tgl8snd \$0-tgl8rcv empty 17 7 0 10 -117052
-117052 -1 0 1;
#X obj 53 121 tgl 15 0 \$0-tgl9snd \$0-tgl9rcv empty 17 7 0 10 -117052
-117052 -1 0 1;
#X obj 69 121 tgl 15 0 \$0-tgl10snd \$0-tgl10rcv empty 17 7 0 10 -117052
-117052 -1 0 1;
#X obj 85 121 tgl 15 0 \$0-tgl11snd \$0-tgl11rcv empty 17 7 0 10 -255414
-255414 -1 1 1;
#X obj 101 121 tgl 15 0 \$0-tgl12snd \$0-tgl12rcv empty 17 7 0 10 -117052
-117052 -1 0 1;
#X obj 117 121 tgl 15 0 \$0-tgl13snd \$0-tgl13rcv empty 17 7 0 10 -117052
-117052 -1 0 1;
#X obj 133 121 tgl 15 0 \$0-tgl14snd \$0-tgl14rcv empty 17 7 0 10 -255414
-255414 -1 1 1;
#X obj 149 121 tgl 15 0 \$0-tgl15snd \$0-tgl15rcv empty 17 7 0 10 -117052
-117052 -1 0 1;
#X obj 165 121 tgl 15 0 \$0-tgl16snd \$0-tgl16rcv empty 17 7 0 10 -255414
-255414 -1 1 1;
#N canvas 0 22 901 306 receives 0;
#X obj 37 51 r \$0-tgl1snd;
#X obj 47 71 r \$0-tgl2snd;
#X obj 57 91 r \$0-tgl3snd;
#X obj 67 111 r \$0-tgl4snd;
#X obj 197 51 r \$0-tgl5snd;
#X obj 207 71 r \$0-tgl6snd;
#X obj 217 91 r \$0-tgl7snd;
#X obj 227 111 r \$0-tgl8snd;
#X obj 367 51 r \$0-tgl9snd;
#X obj 377 71 r \$0-tgl10snd;
#X obj 387 91 r \$0-tgl11snd;
#X obj 397 111 r \$0-tgl12snd;
#X obj 567 51 r \$0-tgl13snd;
#X obj 577 71 r \$0-tgl14snd;
#X obj 587 91 r \$0-tgl15snd;
#X obj 597 111 r \$0-tgl16snd;
#X obj 17 183 outlet;
#X obj 60 183 outlet;
#X obj 103 183 outlet;
#X obj 146 183 outlet;
#X obj 189 183 outlet;
#X obj 232 183 outlet;
#X obj 275 183 outlet;
#X obj 318 183 outlet;
#X obj 361 183 outlet;
#X obj 404 183 outlet;
#X obj 447 183 outlet;
#X obj 490 183 outlet;
#X obj 533 183 outlet;
#X obj 576 183 outlet;
#X obj 619 183 outlet;
#X obj 662 183 outlet, f 54;
#X connect 0 0 16 0;
#X connect 1 0 17 0;
#X connect 2 0 18 0;
#X connect 3 0 19 0;
#X connect 4 0 20 0;
#X connect 5 0 21 0;
#X connect 6 0 22 0;
#X connect 7 0 23 0;
#X connect 8 0 24 0;
#X connect 9 0 25 0;
#X connect 10 0 26 0;
#X connect 11 0 27 0;
#X connect 12 0 28 0;
#X connect 13 0 29 0;
#X connect 14 0 30 0;
#X connect 15 0 31 0;
#X restore 217 166 pd receives;
#X obj 547 262 f 0;
#X obj 571 262 f 0;
#X obj 595 262 f 0;
#X obj 619 262 f 0;
#X obj 643 262 f 0;
#X obj 667 262 f 0;
#X obj 691 262 f 0;
#X obj 715 262 f 0;
#X obj 621 114 mod 16;
#X obj 501 151 route 0 1 2 3 4 5 6 7 8 9 10 11 12 13 14 15;
#N canvas 491 35 789 437 colors 1;
#X obj 14 48 r \$0-tgl1snd;
#X obj 29 68 r \$0-tgl2snd;
#X obj 39 88 r \$0-tgl3snd;
#X obj 50 110 r \$0-tgl4snd;
#X obj 122 47 r \$0-tgl5snd;
#X obj 132 67 r \$0-tgl6snd;
#X obj 143 88 r \$0-tgl7snd;
#X obj 152 107 r \$0-tgl8snd;
#X obj 214 48 r \$0-tgl9snd;
#X obj 229 68 r \$0-tgl10snd;
#X obj 239 88 r \$0-tgl11snd;
#X obj 250 110 r \$0-tgl12snd;
#X obj 322 47 r \$0-tgl13snd;
#X obj 333 67 r \$0-tgl14snd;
#X obj 343 88 r \$0-tgl15snd;
#X obj 352 107 r \$0-tgl16snd;
#X obj 30 242 s \$0-tgl1rcv;
#X obj 30 264 s \$0-tgl2rcv;
#X obj 30 286 s \$0-tgl3rcv;
#X obj 30 308 s \$0-tgl4rcv;
#X obj 130 241 s \$0-tgl5rcv;
#X obj 130 263 s \$0-tgl6rcv;
#X obj 130 285 s \$0-tgl7rcv;
#X obj 130 307 s \$0-tgl8rcv;
#X obj 231 242 s \$0-tgl9rcv;
#X obj 231 264 s \$0-tgl10rcv;
#X obj 231 286 s \$0-tgl11rcv;
#X obj 231 308 s \$0-tgl12rcv;
#X obj 340 266 s \$0-tgl14rcv;
#X obj 340 288 s \$0-tgl15rcv;
#X obj 340 310 s \$0-tgl16rcv;
#X obj 340 244 s \$0-tgl13rcv;
#X obj 26 137 tglrgb;
#X obj 36 157 tglrgb;
#X obj 46 177 tglrgb;
#X obj 56 197 tglrgb;
#X obj 126 147 tglrgb;
#X obj 136 167 tglrgb;
#X obj 146 187 tglrgb;
#X obj 156 207 tglrgb;
#X obj 226 147 tglrgb;
#X obj 236 167 tglrgb;
#X obj 246 187 tglrgb;
#X obj 256 207 tglrgb;
#X obj 336 147 tglrgb;
#X obj 346 169 tglrgb;
#X obj 356 187 tglrgb;
#X obj 366 207 tglrgb;
#X connect 0 0 32 0;
#X connect 1 0 33 0;
#X connect 2 0 34 0;
#X connect 3 0 35 0;
#X connect 4 0 36 0;
#X connect 5 0 37 0;
#X connect 6 0 38 0;
#X connect 7 0 39 0;
#X connect 8 0 40 0;
#X connect 9 0 41 0;
#X connect 10 0 42 0;
#X connect 11 0 43 0;
#X connect 12 0 44 0;
#X connect 13 0 45 0;
#X connect 14 0 46 0;
#X connect 15 0 47 0;
#X connect 32 0 16 0;
#X connect 33 0 17 0;
#X connect 34 0 18 0;
#X connect 35 0 19 0;
#X connect 36 0 20 0;
#X connect 37 0 21 0;
#X connect 38 0 22 0;
#X connect 39 0 23 0;
#X connect 40 0 24 0;
#X connect 41 0 25 0;
#X connect 42 0 26 0;
#X connect 43 0 27 0;
#X connect 44 0 31 0;
#X connect 45 0 28 0;
#X connect 46 0 29 0;
#X connect 47 0 30 0;
#X restore 49 186 pd colors;
#X obj 152 107 cnv 4 4 4 empty \$0-cnv empty 0 0 0 14 -61638 -66577
0;
#N canvas 0 23 450 300 blinker 0;
#X obj 213 238 spigot;
#X obj 297 228 r allguis;
#X obj 137 98 expr $f1*16+56;
#X obj 91 70 div 8;
#X obj 133 68 mod 8;
#X obj 90 33 t f f;
#X obj 214 195 pack f f \$0;
#X obj 91 112 + 107;
#X msg 213 281 \; \$3-cnv pos \$2 \$1;
#X obj 91 91 * 16;
#X obj 78 5 inlet stepnumber;
#X connect 0 0 8 0;
#X connect 1 0 0 1;
#X connect 2 0 6 1;
#X connect 3 0 9 0;
#X connect 4 0 2 0;
#X connect 5 0 3 0;
#X connect 5 1 4 0;
#X connect 6 0 0 0;
#X connect 7 0 6 0;
#X connect 9 0 7 0;
#X connect 10 0 5 0;
#X restore 825 335 pd blinker;
#X obj 182 121 bng 15 250 50 0 \$0-offsetminussnd \$0-offsetminusrcv
- 5 7 0 10 -105472 -184192 -1;
#X connect 0 0 12 0;
#X connect 1 0 2 0;
#X connect 1 0 55 0;
#X connect 2 0 1 1;
#X connect 3 0 22 0;
#X connect 4 0 22 0;
#X connect 5 0 22 0;
#X connect 6 0 22 0;
#X connect 9 0 11 0;
#X connect 10 0 11 0;
#X connect 12 0 1 0;
#X connect 13 0 22 0;
#X connect 14 0 22 0;
#X connect 15 0 22 0;
#X connect 16 0 22 0;
#X connect 17 0 1 1;
#X connect 20 0 21 0;
#X connect 22 0 9 0;
#X connect 22 0 8 0;
#X connect 22 1 10 0;
#X connect 22 1 7 0;
#X connect 23 0 1 1;
#X connect 26 0 29 0;
#X connect 29 0 28 0;
#X connect 46 0 3 1;
#X connect 46 1 4 1;
#X connect 46 2 5 1;
#X connect 46 3 6 1;
#X connect 46 4 13 1;
#X connect 46 5 14 1;
#X connect 46 6 15 1;
#X connect 46 7 16 1;
#X connect 46 8 47 1;
#X connect 46 9 48 1;
#X connect 46 10 49 1;
#X connect 46 11 50 1;
#X connect 46 12 51 1;
#X connect 46 13 52 1;
#X connect 46 14 53 1;
#X connect 46 15 54 1;
#X connect 47 0 22 0;
#X connect 48 0 22 0;
#X connect 49 0 22 0;
#X connect 50 0 22 0;
#X connect 51 0 22 0;
#X connect 52 0 22 0;
#X connect 53 0 22 0;
#X connect 54 0 22 0;
#X connect 55 0 18 0;
#X connect 55 0 56 0;
#X connect 55 0 59 0;
#X connect 56 0 3 0;
#X connect 56 1 4 0;
#X connect 56 2 5 0;
#X connect 56 3 6 0;
#X connect 56 4 13 0;
#X connect 56 5 14 0;
#X connect 56 6 15 0;
#X connect 56 7 16 0;
#X connect 56 8 47 0;
#X connect 56 9 48 0;
#X connect 56 10 49 0;
#X connect 56 11 50 0;
#X connect 56 12 51 0;
#X connect 56 13 52 0;
#X connect 56 14 53 0;
#X connect 56 15 54 0;
#X coords 0 -1 1 1 150 40 2 50 100;
