#N canvas 0 22 617 405 10;
#X obj 128 108 tgl 20 0 empty empty empty 17 7 0 10 -232576 -1 -1 0
1;
#X obj 107 108 tgl 20 0 empty empty empty 17 7 0 10 -232576 -1 -1 1
1;
#X obj 170 108 tgl 20 0 empty empty empty 17 7 0 10 -232576 -1 -1 1
1;
#X obj 149 108 tgl 20 0 empty empty empty 17 7 0 10 -232576 -1 -1 0
1;
#X obj 166 16 inlet;
#X obj 343 107 f 1;
#X obj 373 107 + 1;
#X obj 114 226 f 0;
#X obj 136 226 f 0;
#X obj 158 226 f 0;
#X obj 180 226 f 0;
#X obj 342 128 mod 4;
#X obj 222 165 route 0 1 2 3;
#X obj 197 108 bng 20 250 50 0 empty empty empty 17 7 0 10 -261682
-260097 -1;
#X obj 238 18 inlet;
#X obj 285 20 inlet;
#X obj 333 20 inlet;
#X obj 375 19 inlet;
#X obj 257 354 outlet;
#X obj 173 348 outlet;
#X obj 209 281 route 1 0;
#X msg 191 320 1;
#X msg 246 323 0;
#X obj 333 358 outlet;
#X obj 333 81 bang;
#X msg 411 72 0;
#X obj 446 21 inlet;
#X obj 416 356 outlet;
#X connect 0 0 8 1;
#X connect 1 0 7 1;
#X connect 2 0 10 1;
#X connect 3 0 9 1;
#X connect 4 0 13 0;
#X connect 4 0 24 0;
#X connect 5 0 6 0;
#X connect 5 0 11 0;
#X connect 6 0 5 1;
#X connect 7 0 20 0;
#X connect 8 0 20 0;
#X connect 9 0 20 0;
#X connect 10 0 20 0;
#X connect 11 0 12 0;
#X connect 11 0 27 0;
#X connect 12 0 7 0;
#X connect 12 1 8 0;
#X connect 12 2 9 0;
#X connect 12 3 10 0;
#X connect 14 0 1 0;
#X connect 15 0 0 0;
#X connect 16 0 3 0;
#X connect 17 0 2 0;
#X connect 20 0 21 0;
#X connect 20 1 22 0;
#X connect 21 0 19 0;
#X connect 21 0 23 0;
#X connect 22 0 18 0;
#X connect 22 0 23 0;
#X connect 24 0 5 0;
#X connect 25 0 5 1;
#X connect 26 0 25 0;
#X coords 0 -1 1 1 150 35 2 100 100;
