#N canvas 123 23 1100 738 10;
#X obj 93 22 inlet;
#X obj 512 93 f 1;
#X obj 542 93 + 1;
#X obj 293 262 f 0;
#X obj 315 262 f 0;
#X obj 337 262 f 0;
#X obj 359 262 f 0;
#X obj 138 28 inlet;
#X obj 172 28 inlet;
#X obj 206 28 inlet;
#X obj 240 28 inlet;
#X obj 436 390 outlet;
#X obj 352 384 outlet;
#X msg 463 351 1;
#X msg 518 354 0;
#X obj 493 389 outlet;
#X obj 502 67 bang;
#X obj 391 151 route 0 1 2 3 4 5 6 7;
#X obj 381 262 f 0;
#X obj 403 262 f 0;
#X obj 425 262 f 0;
#X obj 447 262 f 0;
#X obj 430 33 inlet;
#X obj 274 28 inlet;
#X obj 308 28 inlet;
#X obj 342 28 inlet;
#X obj 376 28 inlet;
#X obj 511 114 mod 8;
#X obj 547 388 outlet;
#X obj 103 204 tgl15 68 169;
#X obj 26 289 s \$0-step1snd;
#X obj 36 309 s \$0-step2snd;
#X obj 46 329 s \$0-step3snd;
#X obj 56 349 s \$0-step4snd;
#X obj 129 288 s \$0-step5snd;
#X obj 139 308 s \$0-step6snd;
#X obj 149 329 s \$0-step7snd;
#X obj 159 348 s \$0-step8snd;
#X obj 31 54 r \$0-step1rcv;
#X obj 41 74 r \$0-step2rcv;
#X obj 51 94 r \$0-step3rcv;
#X obj 61 114 r \$0-step4rcv;
#X obj 137 53 r \$0-step5rcv;
#X obj 147 72 r \$0-step6rcv;
#X obj 157 93 r \$0-step7rcv;
#X obj 167 113 r \$0-step8rcv;
#X obj 119 204 tgl15 68 169;
#X obj 135 204 tgl15 68 169;
#X obj 151 204 tgl15 68 169;
#X obj 167 204 tgl15 68 169;
#X obj 183 204 tgl15 68 169;
#X obj 199 204 tgl15 68 169;
#X obj 215 204 tgl15 68 169;
#X obj 573 196 + 0.5;
#X obj 573 218 s \$0-statusrcv;
#X obj 122 207 cnv 4 4 4 empty \$0-cnv empty 0 0 0 14 -61638 -66577
0;
#X obj 574 314 pack f \$0;
#X msg 574 336 \; \$2-cnv pos \$1 207;
#X obj 546 238 expr $f1*16+106;
#N canvas 262 61 570 321 state_loading 1;
#X obj 57 157 s \$0-step1rcv;
#X obj 67 177 s \$0-step2rcv;
#X obj 77 197 s \$0-step3rcv;
#X obj 87 217 s \$0-step4rcv;
#X obj 163 156 s \$0-step5rcv;
#X obj 173 175 s \$0-step6rcv;
#X obj 183 196 s \$0-step7rcv;
#X obj 193 216 s \$0-step8rcv;
#X text 118 239 state loading;
#X obj 92 34 loadbang;
#X obj 92 56 pack \$1 \$2 \$3 \$4 \$5 \$6 \$7 \$8 \$9;
#X obj 92 78 unpack f f f f f f f f f;
#X obj 50 117 s \$0-indexrcv;
#X obj 321 40 r recallpreset-\$1;
#X connect 9 0 10 0;
#X connect 10 0 11 0;
#X connect 11 0 12 0;
#X connect 11 1 0 0;
#X connect 11 2 1 0;
#X connect 11 3 2 0;
#X connect 11 4 3 0;
#X connect 11 5 4 0;
#X connect 11 6 5 0;
#X connect 11 7 6 0;
#X connect 11 8 7 0;
#X connect 13 0 11 0;
#X restore 616 76 pd state_loading;
#N canvas 0 22 610 380 state_saving 0;
#X obj 151 58 r \$0-step1snd;
#X obj 166 78 r \$0-step2snd;
#X obj 176 98 r \$0-step3snd;
#X obj 186 118 r \$0-step4snd;
#X obj 259 57 r \$0-step5snd;
#X obj 269 77 r \$0-step6snd;
#X obj 279 98 r \$0-step7snd;
#X obj 289 117 r \$0-step8snd;
#X obj 147 234 pack \$1 f f f f f f f f, f 32;
#X text 103 17 state saving;
#X obj 147 256 outlet;
#X obj 147 197 cyclone/bondo 9, f 32;
#X obj 72 86 r \$0-indexsnd;
#X obj 420 130 r storebang;
#X obj 420 152 t b b b;
#X msg 463 227 1;
#X obj 408 283 spigot;
#X msg 401 229 0;
#X obj 408 346 s storeinfo;
#X obj 408 305 reject0;
#X connect 0 0 11 1;
#X connect 1 0 11 2;
#X connect 2 0 11 3;
#X connect 3 0 11 4;
#X connect 4 0 11 5;
#X connect 5 0 11 6;
#X connect 6 0 11 7;
#X connect 7 0 11 8;
#X connect 8 0 10 0;
#X connect 8 0 16 0;
#X connect 11 0 8 0;
#X connect 11 1 8 1;
#X connect 11 2 8 2;
#X connect 11 3 8 3;
#X connect 11 4 8 4;
#X connect 11 5 8 5;
#X connect 11 6 8 6;
#X connect 11 7 8 7;
#X connect 11 8 8 8;
#X connect 12 0 11 0;
#X connect 13 0 14 0;
#X connect 14 0 17 0;
#X connect 14 1 11 0;
#X connect 14 2 15 0;
#X connect 15 0 16 1;
#X connect 16 0 19 0;
#X connect 17 0 16 1;
#X connect 19 0 18 0;
#X restore 616 96 pd state_saving;
#X obj 616 117 canvasargs;
#X obj 388 317 sel 1 0;
#X obj 558 32 r allsequencers;
#N canvas 724 33 556 519 offset 0;
#X obj 206 149 r \$0-step1snd;
#X obj 216 169 r \$0-step2snd;
#X obj 226 189 r \$0-step3snd;
#X obj 236 209 r \$0-step4snd;
#X obj 309 148 r \$0-step5snd;
#X obj 319 168 r \$0-step6snd;
#X obj 329 189 r \$0-step7snd;
#X obj 339 208 r \$0-step8snd;
#X obj 204 284 f 0;
#X obj 234 284 f 0;
#X obj 264 284 f 0;
#X obj 294 284 f 0;
#X obj 324 284 f 0;
#X obj 354 284 f 0;
#X obj 384 284 f 0;
#X obj 414 284 f 0;
#X msg 57 281 2;
#X obj 52 359 makefilename \$0-step%drcv;
#X msg 52 381 symbol \$1;
#X obj 91 436 send;
#X obj 184 314 f 0;
#X obj 214 314 f 0;
#X obj 244 314 f 0;
#X obj 274 314 f 0;
#X obj 304 314 f 0;
#X obj 334 314 f 0;
#X obj 364 314 f 0;
#X obj 394 314 f 0;
#X obj 57 303 t b f b;
#X msg 50 17 8;
#X obj 49 86 until;
#X msg 103 67 0;
#X obj 49 108 f 0;
#X obj 88 108 + 1;
#X obj 76 171 mod 8;
#X obj 166 213 bang;
#X obj 50 39 t f f b;
#X obj 40 214 sel 0 1 2 3 4 5 6 7;
#X obj 49 130 t f f;
#X obj 76 193 + 1;
#X obj 76 150 + 1;
#X obj 204 33 r \$0-offsetsnd;
#X connect 0 0 8 1;
#X connect 1 0 9 1;
#X connect 2 0 10 1;
#X connect 3 0 11 1;
#X connect 4 0 12 1;
#X connect 5 0 13 1;
#X connect 6 0 14 1;
#X connect 7 0 15 1;
#X connect 8 0 20 1;
#X connect 9 0 21 1;
#X connect 10 0 22 1;
#X connect 11 0 23 1;
#X connect 12 0 24 1;
#X connect 13 0 25 1;
#X connect 14 0 26 1;
#X connect 15 0 27 1;
#X connect 16 0 28 0;
#X connect 17 0 18 0;
#X connect 18 0 19 1;
#X connect 20 0 19 0;
#X connect 21 0 19 0;
#X connect 22 0 19 0;
#X connect 23 0 19 0;
#X connect 24 0 19 0;
#X connect 25 0 19 0;
#X connect 26 0 19 0;
#X connect 27 0 19 0;
#X connect 28 0 20 0;
#X connect 28 1 17 0;
#X connect 28 2 8 0;
#X connect 29 0 36 0;
#X connect 30 0 32 0;
#X connect 31 0 32 1;
#X connect 32 0 33 0;
#X connect 32 0 38 0;
#X connect 33 0 32 1;
#X connect 34 0 39 0;
#X connect 35 0 8 0;
#X connect 35 0 9 0;
#X connect 35 0 10 0;
#X connect 35 0 11 0;
#X connect 35 0 12 0;
#X connect 35 0 13 0;
#X connect 35 0 14 0;
#X connect 35 0 15 0;
#X connect 36 0 30 0;
#X connect 36 1 31 0;
#X connect 36 2 35 0;
#X connect 37 0 20 0;
#X connect 37 1 21 0;
#X connect 37 2 22 0;
#X connect 37 3 23 0;
#X connect 37 4 24 0;
#X connect 37 5 25 0;
#X connect 37 6 26 0;
#X connect 37 7 27 0;
#X connect 38 0 37 0;
#X connect 38 1 40 0;
#X connect 39 0 17 0;
#X connect 40 0 34 0;
#X connect 41 0 29 0;
#X restore 261 320 pd offset;
#X obj 232 204 bng 15 250 50 0 \$0-offsetsnd \$0-offsetrcv o 5 7 0
10 -145664 -184192 -1;
#X obj 562 274 spigot;
#X obj 646 264 r allguis;
#X obj 774 138 propertybang;
#N canvas 469 151 124 63 \$0-properties 0;
#X floatatom 62 24 5 0 0 0 index #0-indexrcv #0-indexsnd, f 5;
#X restore 791 274 pd \$0-properties;
#X msg 774 187 \; pd-\$1-properties vis 1;
#X obj 774 160 f \$0;
#X connect 0 0 16 0;
#X connect 1 0 2 0;
#X connect 1 0 27 0;
#X connect 2 0 1 1;
#X connect 3 0 62 0;
#X connect 4 0 62 0;
#X connect 5 0 62 0;
#X connect 6 0 62 0;
#X connect 7 0 29 0;
#X connect 8 0 46 0;
#X connect 9 0 47 0;
#X connect 10 0 48 0;
#X connect 13 0 15 0;
#X connect 14 0 15 0;
#X connect 16 0 1 0;
#X connect 17 0 3 0;
#X connect 17 1 4 0;
#X connect 17 2 5 0;
#X connect 17 3 6 0;
#X connect 17 4 18 0;
#X connect 17 5 19 0;
#X connect 17 6 20 0;
#X connect 17 7 21 0;
#X connect 18 0 62 0;
#X connect 19 0 62 0;
#X connect 20 0 62 0;
#X connect 21 0 62 0;
#X connect 22 0 1 1;
#X connect 23 0 49 0;
#X connect 24 0 50 0;
#X connect 25 0 51 0;
#X connect 26 0 52 0;
#X connect 27 0 17 0;
#X connect 27 0 28 0;
#X connect 27 0 53 0;
#X connect 27 0 58 0;
#X connect 29 0 3 1;
#X connect 29 0 30 0;
#X connect 38 0 29 0;
#X connect 39 0 46 0;
#X connect 40 0 47 0;
#X connect 41 0 48 0;
#X connect 42 0 49 0;
#X connect 43 0 50 0;
#X connect 44 0 51 0;
#X connect 45 0 52 0;
#X connect 46 0 4 1;
#X connect 46 0 31 0;
#X connect 47 0 5 1;
#X connect 47 0 32 0;
#X connect 48 0 6 1;
#X connect 48 0 33 0;
#X connect 49 0 18 1;
#X connect 49 0 34 0;
#X connect 50 0 19 1;
#X connect 50 0 35 0;
#X connect 51 0 20 1;
#X connect 51 0 36 0;
#X connect 52 0 21 1;
#X connect 52 0 37 0;
#X connect 53 0 54 0;
#X connect 56 0 57 0;
#X connect 58 0 66 0;
#X connect 60 0 61 0;
#X connect 62 0 13 0;
#X connect 62 0 12 0;
#X connect 62 1 14 0;
#X connect 62 1 11 0;
#X connect 63 0 1 1;
#X connect 66 0 56 0;
#X connect 67 0 66 1;
#X connect 68 0 71 0;
#X connect 71 0 70 0;
#X coords 0 -1 1 1 150 23 2 100 200;
