#N canvas 122 72 450 300 10;
#X obj 102 102 cnv 15 81 136 empty empty empty 20 12 0 14 -1 -262144
0;
#X msg 330 144 flashtime 1 1;
#X obj 230 140 bng 15 250 50 0 empty empty empty 17 7 0 10 -262144
-1 -1;
#X obj 237 161 f 0;
#X obj 270 155 + 1;
#X floatatom 207 218 5 0 0 0 - - -, f 5;
#X msg 256 136 0;
#X obj 105 103 bng 15 250 50 0 \$0-slubsnd empty SLUB 17 7 0 10 -260097
-118750 -262144;
#X obj 125 167 bng 10 50 10 0 \$0-allbangssnd \$0-allbangsrcv 629.362
0 0 0 10 -258744 -262095 -262144;
#X obj 135 167 bng 10 50 10 0 \$0-allbangssnd \$0-allbangsrcv 629.362
0 0 0 10 -258744 -262095 -262144;
#X obj 145 167 bng 10 50 10 0 \$0-allbangssnd \$0-allbangsrcv 629.362
0 0 0 10 -258744 -262095 -262144;
#X obj 155 167 bng 10 50 10 0 \$0-allbangssnd \$0-allbangsrcv 629.362
0 0 0 10 -258744 -262095 -262144;
#X obj 330 117 loadbang;
#X obj 330 166 s \$0-allbangsrcv;
#X msg 356 247 label \$1;
#X obj 304 274 l2s;
#X obj 125 169 bng 10 50 10 0 \$0-allbangssnd \$0-allbangsrcv 629.362
0 0 0 10 -258744 -262095 -262144;
#X obj 135 169 bng 10 50 10 0 \$0-allbangssnd \$0-allbangsrcv 629.362
0 0 0 10 -258744 -262095 -262144;
#X obj 145 169 bng 10 50 10 0 \$0-allbangssnd \$0-allbangsrcv 629.362
0 0 0 10 -258744 -262095 -262144;
#X obj 155 169 bng 10 50 10 0 \$0-allbangssnd \$0-allbangsrcv 629.362
0 0 0 10 -258744 -262095 -262144;
#X obj 251 237 / 4.02356;
#X obj 251 259 pow 1.44499;
#X obj 251 215 pipe 1;
#X obj 233 43 r \$0-slubsnd;
#X obj 234 83 t b b b;
#X obj 197 113 spigot;
#X msg 188 57 1;
#X msg 220 66 0;
#X obj 215 186 sel 400;
#X obj 125 167 bng 10 50 10 0 \$0-allbangssnd \$0-allbangsrcv 629.362
0 0 0 10 -258744 -262095 -262144;
#X obj 135 167 bng 10 50 10 0 \$0-allbangssnd \$0-allbangsrcv 629.362
0 0 0 10 -258744 -262095 -262144;
#X obj 145 167 bng 10 50 10 0 \$0-allbangssnd \$0-allbangsrcv 629.362
0 0 0 10 -258744 -262095 -262144;
#X obj 155 167 bng 10 50 10 0 \$0-allbangssnd \$0-allbangsrcv 629.362
0 0 0 10 -258744 -262095 -262144;
#X obj 125 169 bng 10 50 10 0 \$0-allbangssnd \$0-allbangsrcv 629.362
0 0 0 10 -258744 -262095 -262144;
#X obj 135 169 bng 10 50 10 0 \$0-allbangssnd \$0-allbangsrcv 629.362
0 0 0 10 -258744 -262095 -262144;
#X obj 145 169 bng 10 50 10 0 \$0-allbangssnd \$0-allbangsrcv 629.362
0 0 0 10 -258744 -262095 -262144;
#X obj 155 169 bng 10 50 10 0 \$0-allbangssnd \$0-allbangsrcv 629.362
0 0 0 10 -258744 -262095 -262144;
#X obj 115 177 bng 10 50 10 0 \$0-allbangssnd \$0-allbangsrcv 629.362
0 0 0 10 -258744 -262095 -262144;
#X obj 125 177 bng 10 50 10 0 \$0-allbangssnd \$0-allbangsrcv 629.362
0 0 0 10 -258744 -262095 -262144;
#X obj 135 177 bng 10 50 10 0 \$0-allbangssnd \$0-allbangsrcv 629.362
0 0 0 10 -258744 -262095 -262144;
#X obj 145 177 bng 10 50 10 0 \$0-allbangssnd \$0-allbangsrcv 629.362
0 0 0 10 -258744 -262095 -262144;
#X obj 155 177 bng 10 50 10 0 \$0-allbangssnd \$0-allbangsrcv 629.362
0 0 0 10 -258744 -262095 -262144;
#X obj 115 187 bng 10 50 10 0 \$0-allbangssnd \$0-allbangsrcv 629.362
0 0 0 10 -258744 -262095 -262144;
#X obj 125 187 bng 10 50 10 0 \$0-allbangssnd \$0-allbangsrcv 629.362
0 0 0 10 -258744 -262095 -262144;
#X obj 135 187 bng 10 50 10 0 \$0-allbangssnd \$0-allbangsrcv 629.362
0 0 0 10 -258744 -262095 -262144;
#X obj 145 187 bng 10 50 10 0 \$0-allbangssnd \$0-allbangsrcv 629.362
0 0 0 10 -258744 -262095 -262144;
#X obj 155 187 bng 10 50 10 0 \$0-allbangssnd \$0-allbangsrcv 629.362
0 0 0 10 -258744 -262095 -262144;
#X obj 115 197 bng 10 50 10 0 \$0-allbangssnd \$0-allbangsrcv 629.362
0 0 0 10 -258744 -262095 -262144;
#X obj 125 197 bng 10 50 10 0 \$0-allbangssnd \$0-allbangsrcv 629.362
0 0 0 10 -258744 -262095 -262144;
#X obj 135 197 bng 10 50 10 0 \$0-allbangssnd \$0-allbangsrcv 629.362
0 0 0 10 -258744 -262095 -262144;
#X obj 145 197 bng 10 50 10 0 \$0-allbangssnd \$0-allbangsrcv 629.362
0 0 0 10 -258744 -262095 -262144;
#X obj 155 197 bng 10 50 10 0 \$0-allbangssnd \$0-allbangsrcv 629.362
0 0 0 10 -258744 -262095 -262144;
#X obj 115 209 bng 10 50 10 0 \$0-allbangssnd \$0-allbangsrcv 629.362
0 0 0 10 -258744 -262095 -262144;
#X obj 125 209 bng 10 50 10 0 \$0-allbangssnd \$0-allbangsrcv 629.362
0 0 0 10 -258744 -262095 -262144;
#X obj 135 209 bng 10 50 10 0 \$0-allbangssnd \$0-allbangsrcv 629.362
0 0 0 10 -258744 -262095 -262144;
#X obj 145 209 bng 10 50 10 0 \$0-allbangssnd \$0-allbangsrcv 629.362
0 0 0 10 -258744 -262095 -262144;
#X obj 155 209 bng 10 50 10 0 \$0-allbangssnd \$0-allbangsrcv 629.362
0 0 0 10 -258744 -262095 -262144;
#X obj 115 219 bng 10 50 10 0 \$0-allbangssnd \$0-allbangsrcv 629.362
0 0 0 10 -258744 -262095 -262144;
#X obj 125 219 bng 10 50 10 0 \$0-allbangssnd \$0-allbangsrcv 629.362
0 0 0 10 -258744 -262095 -262144;
#X obj 135 219 bng 10 50 10 0 \$0-allbangssnd \$0-allbangsrcv 629.362
0 0 0 10 -258744 -262095 -262144;
#X obj 145 219 bng 10 50 10 0 \$0-allbangssnd \$0-allbangsrcv 629.362
0 0 0 10 -258744 -262095 -262144;
#X obj 155 219 bng 10 50 10 0 \$0-allbangssnd \$0-allbangsrcv 629.362
0 0 0 10 -258744 -262095 -262144;
#X obj 115 219 bng 10 50 10 0 \$0-allbangssnd \$0-allbangsrcv 629.362
0 0 0 10 -258744 -262095 -262144;
#X obj 125 219 bng 10 50 10 0 \$0-allbangssnd \$0-allbangsrcv 629.362
0 0 0 10 -258744 -262095 -262144;
#X obj 135 219 bng 10 50 10 0 \$0-allbangssnd \$0-allbangsrcv 629.362
0 0 0 10 -258744 -262095 -262144;
#X obj 145 219 bng 10 50 10 0 \$0-allbangssnd \$0-allbangsrcv 629.362
0 0 0 10 -258744 -262095 -262144;
#X obj 155 219 bng 10 50 10 0 \$0-allbangssnd \$0-allbangsrcv 629.362
0 0 0 10 -258744 -262095 -262144;
#X obj 115 189 bng 10 50 10 0 \$0-allbangssnd \$0-allbangsrcv 629.362
0 0 0 10 -258744 -262095 -262144;
#X obj 125 189 bng 10 50 10 0 \$0-allbangssnd \$0-allbangsrcv 629.362
0 0 0 10 -258744 -262095 -262144;
#X obj 135 189 bng 10 50 10 0 \$0-allbangssnd \$0-allbangsrcv 629.362
0 0 0 10 -258744 -262095 -262144;
#X obj 145 189 bng 10 50 10 0 \$0-allbangssnd \$0-allbangsrcv 629.362
0 0 0 10 -258744 -262095 -262144;
#X obj 155 189 bng 10 50 10 0 \$0-allbangssnd \$0-allbangsrcv 629.362
0 0 0 10 -258744 -262095 -262144;
#X obj 115 199 bng 10 50 10 0 \$0-allbangssnd \$0-allbangsrcv 629.362
0 0 0 10 -258744 -262095 -262144;
#X obj 125 199 bng 10 50 10 0 \$0-allbangssnd \$0-allbangsrcv 629.362
0 0 0 10 -258744 -262095 -262144;
#X obj 135 199 bng 10 50 10 0 \$0-allbangssnd \$0-allbangsrcv 629.362
0 0 0 10 -258744 -262095 -262144;
#X obj 145 199 bng 10 50 10 0 \$0-allbangssnd \$0-allbangsrcv 629.362
0 0 0 10 -258744 -262095 -262144;
#X obj 155 199 bng 10 50 10 0 \$0-allbangssnd \$0-allbangsrcv 629.362
0 0 0 10 -258744 -262095 -262144;
#X obj 115 209 bng 10 50 10 0 \$0-allbangssnd \$0-allbangsrcv 629.362
0 0 0 10 -258744 -262095 -262144;
#X obj 125 209 bng 10 50 10 0 \$0-allbangssnd \$0-allbangsrcv 629.362
0 0 0 10 -258744 -262095 -262144;
#X obj 135 209 bng 10 50 10 0 \$0-allbangssnd \$0-allbangsrcv 629.362
0 0 0 10 -258744 -262095 -262144;
#X obj 145 209 bng 10 50 10 0 \$0-allbangssnd \$0-allbangsrcv 629.362
0 0 0 10 -258744 -262095 -262144;
#X obj 155 209 bng 10 50 10 0 \$0-allbangssnd \$0-allbangsrcv 629.362
0 0 0 10 -258744 -262095 -262144;
#X obj 115 219 bng 10 50 10 0 \$0-allbangssnd \$0-allbangsrcv 629.362
0 0 0 10 -258744 -262095 -262144;
#X obj 125 219 bng 10 50 10 0 \$0-allbangssnd \$0-allbangsrcv 629.362
0 0 0 10 -258744 -262095 -262144;
#X obj 135 219 bng 10 50 10 0 \$0-allbangssnd \$0-allbangsrcv 629.362
0 0 0 10 -258744 -262095 -262144;
#X obj 145 219 bng 10 50 10 0 \$0-allbangssnd \$0-allbangsrcv 629.362
0 0 0 10 -258744 -262095 -262144;
#X obj 155 219 bng 10 50 10 0 \$0-allbangssnd \$0-allbangsrcv 629.362
0 0 0 10 -258744 -262095 -262144;
#X obj 115 179 bng 10 50 10 0 \$0-allbangssnd \$0-allbangsrcv 629.362
0 0 0 10 -258744 -262095 -262144;
#X obj 125 179 bng 10 50 10 0 \$0-allbangssnd \$0-allbangsrcv 629.362
0 0 0 10 -258744 -262095 -262144;
#X obj 135 179 bng 10 50 10 0 \$0-allbangssnd \$0-allbangsrcv 629.362
0 0 0 10 -258744 -262095 -262144;
#X obj 145 179 bng 10 50 10 0 \$0-allbangssnd \$0-allbangsrcv 629.362
0 0 0 10 -258744 -262095 -262144;
#X obj 155 179 bng 10 50 10 0 \$0-allbangssnd \$0-allbangsrcv 629.362
0 0 0 10 -258744 -262095 -262144;
#X obj 115 189 bng 10 50 10 0 \$0-allbangssnd \$0-allbangsrcv 629.362
0 0 0 10 -258744 -262095 -262144;
#X obj 125 189 bng 10 50 10 0 \$0-allbangssnd \$0-allbangsrcv 629.362
0 0 0 10 -258744 -262095 -262144;
#X obj 135 189 bng 10 50 10 0 \$0-allbangssnd \$0-allbangsrcv 629.362
0 0 0 10 -258744 -262095 -262144;
#X obj 145 189 bng 10 50 10 0 \$0-allbangssnd \$0-allbangsrcv 629.362
0 0 0 10 -258744 -262095 -262144;
#X obj 155 189 bng 10 50 10 0 \$0-allbangssnd \$0-allbangsrcv 629.362
0 0 0 10 -258744 -262095 -262144;
#X obj 115 199 bng 10 50 10 0 \$0-allbangssnd \$0-allbangsrcv 629.362
0 0 0 10 -258744 -262095 -262144;
#X obj 125 199 bng 10 50 10 0 \$0-allbangssnd \$0-allbangsrcv 629.362
0 0 0 10 -258744 -262095 -262144;
#X obj 135 199 bng 10 50 10 0 \$0-allbangssnd \$0-allbangsrcv 629.362
0 0 0 10 -258744 -262095 -262144;
#X obj 145 199 bng 10 50 10 0 \$0-allbangssnd \$0-allbangsrcv 629.362
0 0 0 10 -258744 -262095 -262144;
#X obj 155 199 bng 10 50 10 0 \$0-allbangssnd \$0-allbangsrcv 629.362
0 0 0 10 -258744 -262095 -262144;
#X obj 115 177 bng 10 50 10 0 \$0-allbangssnd \$0-allbangsrcv 629.362
0 0 0 10 -258744 -262095 -262144;
#X obj 125 177 bng 10 50 10 0 \$0-allbangssnd \$0-allbangsrcv 629.362
0 0 0 10 -258744 -262095 -262144;
#X obj 135 177 bng 10 50 10 0 \$0-allbangssnd \$0-allbangsrcv 629.362
0 0 0 10 -258744 -262095 -262144;
#X obj 145 177 bng 10 50 10 0 \$0-allbangssnd \$0-allbangsrcv 629.362
0 0 0 10 -258744 -262095 -262144;
#X obj 155 177 bng 10 50 10 0 \$0-allbangssnd \$0-allbangsrcv 629.362
0 0 0 10 -258744 -262095 -262144;
#X obj 115 187 bng 10 50 10 0 \$0-allbangssnd \$0-allbangsrcv 629.362
0 0 0 10 -258744 -262095 -262144;
#X obj 125 187 bng 10 50 10 0 \$0-allbangssnd \$0-allbangsrcv 629.362
0 0 0 10 -258744 -262095 -262144;
#X obj 135 187 bng 10 50 10 0 \$0-allbangssnd \$0-allbangsrcv 629.362
0 0 0 10 -258744 -262095 -262144;
#X obj 145 187 bng 10 50 10 0 \$0-allbangssnd \$0-allbangsrcv 629.362
0 0 0 10 -258744 -262095 -262144;
#X obj 155 187 bng 10 50 10 0 \$0-allbangssnd \$0-allbangsrcv 629.362
0 0 0 10 -258744 -262095 -262144;
#X obj 115 197 bng 10 50 10 0 \$0-allbangssnd \$0-allbangsrcv 629.362
0 0 0 10 -258744 -262095 -262144;
#X obj 125 197 bng 10 50 10 0 \$0-allbangssnd \$0-allbangsrcv 629.362
0 0 0 10 -258744 -262095 -262144;
#X obj 135 197 bng 10 50 10 0 \$0-allbangssnd \$0-allbangsrcv 629.362
0 0 0 10 -258744 -262095 -262144;
#X obj 145 197 bng 10 50 10 0 \$0-allbangssnd \$0-allbangsrcv 629.362
0 0 0 10 -258744 -262095 -262144;
#X obj 155 197 bng 10 50 10 0 \$0-allbangssnd \$0-allbangsrcv 629.362
0 0 0 10 -258744 -262095 -262144;
#X obj 115 209 bng 10 50 10 0 \$0-allbangssnd \$0-allbangsrcv 629.362
0 0 0 10 -258744 -262095 -262144;
#X obj 125 209 bng 10 50 10 0 \$0-allbangssnd \$0-allbangsrcv 629.362
0 0 0 10 -258744 -262095 -262144;
#X obj 135 209 bng 10 50 10 0 \$0-allbangssnd \$0-allbangsrcv 629.362
0 0 0 10 -258744 -262095 -262144;
#X obj 145 209 bng 10 50 10 0 \$0-allbangssnd \$0-allbangsrcv 629.362
0 0 0 10 -258744 -262095 -262144;
#X obj 155 209 bng 10 50 10 0 \$0-allbangssnd \$0-allbangsrcv 629.362
0 0 0 10 -258744 -262095 -262144;
#X obj 115 219 bng 10 50 10 0 \$0-allbangssnd \$0-allbangsrcv 629.362
0 0 0 10 -258744 -262095 -262144;
#X obj 125 219 bng 10 50 10 0 \$0-allbangssnd \$0-allbangsrcv 629.362
0 0 0 10 -258744 -262095 -262144;
#X obj 135 219 bng 10 50 10 0 \$0-allbangssnd \$0-allbangsrcv 629.362
0 0 0 10 -258744 -262095 -262144;
#X obj 145 219 bng 10 50 10 0 \$0-allbangssnd \$0-allbangsrcv 629.362
0 0 0 10 -258744 -262095 -262144;
#X obj 155 219 bng 10 50 10 0 \$0-allbangssnd \$0-allbangsrcv 629.362
0 0 0 10 -258744 -262095 -262144;
#X obj 115 219 bng 10 50 10 0 \$0-allbangssnd \$0-allbangsrcv 629.362
0 0 0 10 -258744 -262095 -262144;
#X obj 125 219 bng 10 50 10 0 \$0-allbangssnd \$0-allbangsrcv 629.362
0 0 0 10 -258744 -262095 -262144;
#X obj 135 219 bng 10 50 10 0 \$0-allbangssnd \$0-allbangsrcv 629.362
0 0 0 10 -258744 -262095 -262144;
#X obj 145 219 bng 10 50 10 0 \$0-allbangssnd \$0-allbangsrcv 629.362
0 0 0 10 -258744 -262095 -262144;
#X obj 155 219 bng 10 50 10 0 \$0-allbangssnd \$0-allbangsrcv 629.362
0 0 0 10 -258744 -262095 -262144;
#X obj 115 189 bng 10 50 10 0 \$0-allbangssnd \$0-allbangsrcv 629.362
0 0 0 10 -258744 -262095 -262144;
#X obj 125 189 bng 10 50 10 0 \$0-allbangssnd \$0-allbangsrcv 629.362
0 0 0 10 -258744 -262095 -262144;
#X obj 135 189 bng 10 50 10 0 \$0-allbangssnd \$0-allbangsrcv 629.362
0 0 0 10 -258744 -262095 -262144;
#X obj 145 189 bng 10 50 10 0 \$0-allbangssnd \$0-allbangsrcv 629.362
0 0 0 10 -258744 -262095 -262144;
#X obj 155 189 bng 10 50 10 0 \$0-allbangssnd \$0-allbangsrcv 629.362
0 0 0 10 -258744 -262095 -262144;
#X obj 115 199 bng 10 50 10 0 \$0-allbangssnd \$0-allbangsrcv 629.362
0 0 0 10 -258744 -262095 -262144;
#X obj 125 199 bng 10 50 10 0 \$0-allbangssnd \$0-allbangsrcv 629.362
0 0 0 10 -258744 -262095 -262144;
#X obj 135 199 bng 10 50 10 0 \$0-allbangssnd \$0-allbangsrcv 629.362
0 0 0 10 -258744 -262095 -262144;
#X obj 145 199 bng 10 50 10 0 \$0-allbangssnd \$0-allbangsrcv 629.362
0 0 0 10 -258744 -262095 -262144;
#X obj 155 199 bng 10 50 10 0 \$0-allbangssnd \$0-allbangsrcv 629.362
0 0 0 10 -258744 -262095 -262144;
#X obj 115 209 bng 10 50 10 0 \$0-allbangssnd \$0-allbangsrcv 629.362
0 0 0 10 -258744 -262095 -262144;
#X obj 125 209 bng 10 50 10 0 \$0-allbangssnd \$0-allbangsrcv 629.362
0 0 0 10 -258744 -262095 -262144;
#X obj 135 209 bng 10 50 10 0 \$0-allbangssnd \$0-allbangsrcv 629.362
0 0 0 10 -258744 -262095 -262144;
#X obj 145 209 bng 10 50 10 0 \$0-allbangssnd \$0-allbangsrcv 629.362
0 0 0 10 -258744 -262095 -262144;
#X obj 155 209 bng 10 50 10 0 \$0-allbangssnd \$0-allbangsrcv 629.362
0 0 0 10 -258744 -262095 -262144;
#X obj 115 219 bng 10 50 10 0 \$0-allbangssnd \$0-allbangsrcv 629.362
0 0 0 10 -258744 -262095 -262144;
#X obj 125 219 bng 10 50 10 0 \$0-allbangssnd \$0-allbangsrcv 629.362
0 0 0 10 -258744 -262095 -262144;
#X obj 135 219 bng 10 50 10 0 \$0-allbangssnd \$0-allbangsrcv 629.362
0 0 0 10 -258744 -262095 -262144;
#X obj 145 219 bng 10 50 10 0 \$0-allbangssnd \$0-allbangsrcv 629.362
0 0 0 10 -258744 -262095 -262144;
#X obj 155 219 bng 10 50 10 0 \$0-allbangssnd \$0-allbangsrcv 629.362
0 0 0 10 -258744 -262095 -262144;
#X obj 115 179 bng 10 50 10 0 \$0-allbangssnd \$0-allbangsrcv 629.362
0 0 0 10 -258744 -262095 -262144;
#X obj 125 179 bng 10 50 10 0 \$0-allbangssnd \$0-allbangsrcv 629.362
0 0 0 10 -258744 -262095 -262144;
#X obj 135 179 bng 10 50 10 0 \$0-allbangssnd \$0-allbangsrcv 629.362
0 0 0 10 -258744 -262095 -262144;
#X obj 145 179 bng 10 50 10 0 \$0-allbangssnd \$0-allbangsrcv 629.362
0 0 0 10 -258744 -262095 -262144;
#X obj 155 179 bng 10 50 10 0 \$0-allbangssnd \$0-allbangsrcv 629.362
0 0 0 10 -258744 -262095 -262144;
#X obj 115 189 bng 10 50 10 0 \$0-allbangssnd \$0-allbangsrcv 629.362
0 0 0 10 -258744 -262095 -262144;
#X obj 125 189 bng 10 50 10 0 \$0-allbangssnd \$0-allbangsrcv 629.362
0 0 0 10 -258744 -262095 -262144;
#X obj 135 189 bng 10 50 10 0 \$0-allbangssnd \$0-allbangsrcv 629.362
0 0 0 10 -258744 -262095 -262144;
#X obj 145 189 bng 10 50 10 0 \$0-allbangssnd \$0-allbangsrcv 629.362
0 0 0 10 -258744 -262095 -262144;
#X obj 155 189 bng 10 50 10 0 \$0-allbangssnd \$0-allbangsrcv 629.362
0 0 0 10 -258744 -262095 -262144;
#X obj 115 199 bng 10 50 10 0 \$0-allbangssnd \$0-allbangsrcv 629.362
0 0 0 10 -258744 -262095 -262144;
#X obj 125 199 bng 10 50 10 0 \$0-allbangssnd \$0-allbangsrcv 629.362
0 0 0 10 -258744 -262095 -262144;
#X obj 135 199 bng 10 50 10 0 \$0-allbangssnd \$0-allbangsrcv 629.362
0 0 0 10 -258744 -262095 -262144;
#X obj 145 199 bng 10 50 10 0 \$0-allbangssnd \$0-allbangsrcv 629.362
0 0 0 10 -258744 -262095 -262144;
#X obj 155 199 bng 10 50 10 0 \$0-allbangssnd \$0-allbangsrcv 629.362
0 0 0 10 -258744 -262095 -262144;
#X obj 106 119 hsl 74 15 10 1000 0 0 empty empty how_much_slub -2 19
0 10 -257992 -258441 -262144 2500 1;
#X text 48 11 if slub fails to slub your nitro-cooled supercomputer
\, copy and paste the pink bangs for additional slub.;
#X obj 104 145 bng 15 250 50 0 empty empty PANIC 17 7 0 10 -57315 -218304
-262144;
#X floatatom 46 160 5 0 0 0 - - -, f 5;
#X obj 202 163 int;
#X connect 1 0 13 0;
#X connect 2 0 3 0;
#X connect 3 0 4 0;
#X connect 3 0 5 0;
#X connect 3 0 28 0;
#X connect 4 0 3 1;
#X connect 6 0 3 1;
#X connect 12 0 1 0;
#X connect 14 0 13 0;
#X connect 15 0 14 0;
#X connect 20 0 21 0;
#X connect 21 0 15 0;
#X connect 22 0 13 0;
#X connect 22 0 20 0;
#X connect 22 0 25 0;
#X connect 23 0 24 0;
#X connect 24 0 2 0;
#X connect 24 1 6 0;
#X connect 24 2 26 0;
#X connect 25 0 2 0;
#X connect 26 0 25 1;
#X connect 27 0 25 1;
#X connect 28 0 27 0;
#X connect 28 1 22 0;
#X connect 167 0 170 0;
#X connect 167 0 171 0;
#X connect 169 0 27 0;
#X connect 171 0 28 1;
#X coords 0 -1 1 1 85 140 1 100 100;
