#N canvas 299 81 450 300 10;
#X obj 102 51 inlet;
#X obj 143 136 line~;
#X obj 153 217 outlet~;
#X obj 129 97 pack 0 \$1;
#X obj 252 52 inlet;
#X connect 0 0 3 0;
#X connect 1 0 2 0;
#X connect 3 0 1 0;
#X connect 4 0 3 1;
