#N canvas 75 59 597 303 10;
#X obj 111 39 inlet;
#X obj 111 67 unpack f f;
#X obj 112 265 outlet;
#X obj 108 165 pack f f;
#X obj 229 198 ==;
#X obj 247 175 spigot;
#X msg 286 153 1;
#X msg 315 152 0;
#X obj 237 98 sel 0;
#X obj 237 120 t b b;
#X obj 122 225 spigot;
#X obj 111 89 t f f f;
#X text 208 33 striptease outputs note offs for only the last notedown
, f 19;
#X connect 0 0 1 0;
#X connect 1 0 11 0;
#X connect 1 1 8 0;
#X connect 1 1 3 1;
#X connect 3 0 10 0;
#X connect 4 0 10 1;
#X connect 5 0 4 1;
#X connect 6 0 5 1;
#X connect 7 0 5 1;
#X connect 8 0 9 0;
#X connect 8 1 6 0;
#X connect 9 1 7 0;
#X connect 10 0 2 0;
#X connect 11 0 3 0;
#X connect 11 1 4 0;
#X connect 11 2 5 0;
