#N canvas 898 61 344 512 10;
#X obj 229 105 + 1, f 4;
#X obj 168 152 t b f;
#X obj 230 127 sel 511;
#X obj 268 169 t b f;
#X obj 171 102 bng 15 250 50 0 empty empty empty 17 7 0 10 -262144
-1 -1;
#X obj 168 129 f 0;
#X obj 171 56 bng 15 250 50 0 empty empty empty 17 7 0 10 -262144 -1
-1;
#X msg 198 101 0;
#X obj 269 147 pipe 0.01;
#X obj 79 392 array set \$1;
#X obj 102 14 inlet;
#X obj 171 79 t b b b;
#X msg 101 102 0;
#X obj 146 191 t f f;
#X obj 72 236 expr $f1/256 - 1;
#X obj 81 307 expr if ($f1>0.5 \, $f1*(-1)+1 \, $f1);
#X obj 80 277 expr if ($f1<(-0.5) \, $f1*(-1)-1 \, $f1);
#X connect 0 0 2 0;
#X connect 1 1 13 0;
#X connect 2 1 8 0;
#X connect 3 0 4 0;
#X connect 3 1 5 1;
#X connect 4 0 5 0;
#X connect 5 0 0 0;
#X connect 5 0 1 0;
#X connect 6 0 11 0;
#X connect 7 0 5 1;
#X connect 8 0 3 0;
#X connect 10 0 6 0;
#X connect 11 0 4 0;
#X connect 11 1 7 0;
#X connect 11 2 12 0;
#X connect 13 0 14 0;
#X connect 13 1 9 1;
#X connect 14 0 16 0;
#X connect 15 0 9 0;
#X connect 16 0 15 0;
