#N canvas 379 99 450 300 10;
#X obj 127 208 text delete \$1;
#X obj 272 135 text search \$1;
#X obj 99 26 inlet;
#X obj 272 157 sel -1;
#X obj 123 98 f;
#X obj 99 48 t b f;
#X obj 307 188 bang;
#X connect 1 0 3 0;
#X connect 2 0 5 0;
#X connect 3 1 0 0;
#X connect 3 1 6 0;
#X connect 4 0 1 0;
#X connect 5 0 4 0;
#X connect 5 1 4 1;
#X connect 6 0 4 0;
