#N canvas 0 22 450 300 10;
#X obj 100 100 tgl 15 0 empty empty empty 17 7 0 10 -228992 -228992
-262144 0 1;
#X obj 174 58 inlet;
#X obj 175 183 outlet;
#X obj 206 94 sel 0 1;
#X msg 206 127 68;
#X msg 222 162 color \$1 \$1 0;
#X msg 248 130 169;
#X obj 314 47 loadbang;
#X obj 312 102 f \$1;
#X obj 360 102 f \$2;
#X msg 308 132 set \$1;
#X msg 370 132 set \$1;
#X obj 318 71 t b b;
#X obj 249 22 inlet;
#X obj 246 52 unpack f f;
#X connect 0 0 2 0;
#X connect 0 0 3 0;
#X connect 1 0 0 0;
#X connect 3 0 4 0;
#X connect 3 1 6 0;
#X connect 4 0 5 0;
#X connect 5 0 0 0;
#X connect 6 0 5 0;
#X connect 7 0 12 0;
#X connect 8 0 10 0;
#X connect 9 0 11 0;
#X connect 10 0 4 0;
#X connect 11 0 6 0;
#X connect 12 1 9 0;
#X connect 12 1 8 0;
#X connect 13 0 14 0;
#X connect 14 0 10 0;
#X connect 14 1 11 0;
#X coords 0 -1 1 1 15 15 2 100 100;
