#N canvas 456 41 450 300 10;
#X obj 90 61 sel 1 0;
#X obj 132 183 rgb, f 9;
#X msg 132 212 color \$1 \$1;
#X msg 160 153 112 144 238;
#X obj 132 249 outlet;
#X obj 94 19 inlet;
#X msg 85 153 251 89 215;
#X connect 0 0 6 0;
#X connect 0 1 3 0;
#X connect 1 0 2 0;
#X connect 2 0 4 0;
#X connect 3 0 1 0;
#X connect 5 0 0 0;
#X connect 6 0 1 0;
