#N canvas 309 47 450 300 10;
#X obj 115 30 inlet;
#X text 249 57 outputs one bang until reset;
#X obj 202 51 inlet;
#X obj 202 73 route reset;
#X msg 187 133 1;
#X msg 155 134 0;
#X obj 124 177 spigot;
#X obj 124 223 outlet;
#X obj 245 99 loadbang;
#X obj 139 81 f 0;
#X obj 177 80 + 1;
#X obj 139 103 sel 1;
#X msg 210 98 0;
#X obj 115 52 t b b;
#X connect 0 0 13 0;
#X connect 2 0 3 0;
#X connect 3 0 4 0;
#X connect 3 0 12 0;
#X connect 4 0 6 1;
#X connect 5 0 6 1;
#X connect 6 0 7 0;
#X connect 8 0 4 0;
#X connect 9 0 10 0;
#X connect 9 0 11 0;
#X connect 10 0 9 1;
#X connect 11 0 5 0;
#X connect 11 0 6 0;
#X connect 12 0 9 1;
#X connect 13 0 9 0;
#X connect 13 1 6 0;
