#N canvas 222 127 489 406 10;
#X obj 133 53 inlet;
#X msg 173 120 0;
#X obj 128 173 f 0;
#X obj 177 175 + 1;
#X obj 146 272 spigot;
#X msg 208 45 4;
#X obj 133 74 t b f b b;
#X obj 151 225 == 0;
#X obj 151 246 t b f;
#X obj 151 204 > 3;
#X obj 178 151 - 2;
#X obj 107 345 outlet nums;
#X obj 180 345 outlet bangs;
#X obj 122 322 bang;
#X obj 146 293 delay \$1;
#X connect 0 0 6 0;
#X connect 1 0 2 1;
#X connect 2 0 3 0;
#X connect 2 0 9 0;
#X connect 2 0 11 0;
#X connect 2 0 13 0;
#X connect 3 0 2 1;
#X connect 4 0 14 0;
#X connect 5 0 6 0;
#X connect 6 0 2 0;
#X connect 6 1 10 0;
#X connect 6 2 1 0;
#X connect 7 0 8 0;
#X connect 8 0 4 0;
#X connect 8 1 4 1;
#X connect 9 0 7 0;
#X connect 10 0 9 1;
#X connect 13 0 12 0;
#X connect 14 0 2 0;
