#N canvas 613 405 1723 767 10;
#X declare -lib /Users/shree/Library/Pd/arraysize;
#X declare -path /Users/shree/Documents/Pd/abs;
#X declare -path /Users/shree/Documents/Pd/abs;
#X declare -path /Users/shree/Documents/Pd/abs;
#N canvas 1059 447 1384 729 (subpatch) 0;
#X obj 23 58 tgl 20 0 \$0on \$0on empty 17 7 0 10 -261234 -1 -1 1 1
;
#N canvas 0 22 800 532 (subpatch) 0;
#X array \$0loop 352802 float 2;
#X coords 0 1 352802 -1 212 70 1;
#X restore 4 106 graph;
#X obj 7 178 hsl 207 8 0 352802 0 0 empty \$0pos empty -2 -8 0 10 -262144
-1 -1 4120 1;
#X text 14 43 ON/OFF;
#X obj 87 58 bng 20 250 50 0 \$0open \$0open empty 17 7 0 10 -261234
-1 -1;
#X text 84 22 Open;
#X text 74 33 WAV/AIFF;
#X text 78 42 sample;
#X obj 152 59 nbx 3 20 0 1e+26 0 0 \$0tempo \$0tempo empty 0 -8 0 10
-261234 -1 -1 59.9997 256;
#X text 154 20 Tempo;
#X text 146 31 (Slices;
#X text 139 42 per minute);
#N canvas 976 211 638 388 open 0;
#X restore 14 231 pd open file;
#N canvas 0 22 669 514 read 0;
#X obj 184 136 pack f f f;
#X obj 184 188 vline~;
#X msg 184 163 \$1 \, \$2 \$3;
#X obj 128 142 line;
#X obj 184 211 tabread~ \$0loop;
#X obj 130 171 s \$0pos;
#X obj 188 243 outlet~;
#X obj 107 29 inlet;
#X obj 173 32 inlet;
#X obj 234 36 inlet;
#X connect 0 0 2 0;
#X connect 1 0 4 0;
#X connect 2 0 1 0;
#X connect 2 0 3 0;
#X connect 3 0 5 0;
#X connect 4 0 6 0;
#X connect 7 0 0 0;
#X connect 8 0 0 1;
#X connect 9 0 0 2;
#X restore 305 497 pd read table;
#X obj 292 566 throw~ \$0beat;
#X obj 572 -9 loadbang;
#X msg 573 34 \; pd dsp 1;
#X obj 650 48 s \$0ns;
#X msg 651 26 8;
#X obj 401 53 f;
#X obj 467 53 f;
#X obj 308 164 f;
#X obj 453 229 *;
#X obj 524 289 f;
#X obj 429 282 +;
#X obj 400 325 f;
#X obj 308 53 t b b b;
#X obj 308 16 metro 100;
#X obj 504 168 bng 15 250 50 0 empty empty empty 17 7 0 10 -262144
-1 -1;
#X obj 504 191 t b b;
#X floatatom 487 107 5 0 0 0 - #0ns -, f 5;
#X obj 614 314 spigot;
#X obj 647 283 tgl 15 0 empty empty empty 17 7 0 10 -262144 -1 -1 1
1;
#X obj 306 -45 r \$0on;
#X obj 416 -11 r \$0smp;
#X obj 482 -12 r \$0ms;
#X obj 565 214 r \$0slice;
#X obj 647 252 r \$0rev;
#X obj 250 114 s \$0oo;
#X obj 318 -13 b;
#X obj 302 524 *~;
#X obj 347 526 r \$0on;
#N canvas 0 22 450 300 tempo 0;
#X obj 101 238 s \$0ms;
#X obj 102 19 r \$0length;
#X obj 100 88 s \$0tempo;
#X obj 102 114 r \$0tempo;
#X obj 100 43 expr 60000 / $f1;
#X obj 101 147 expr 60000 / $f1;
#X obj 99 62 * 8;
#X obj 98 192 * 8;
#X obj 303 92 r \$0ns;
#X connect 1 0 4 0;
#X connect 3 0 5 0;
#X connect 4 0 6 0;
#X connect 5 0 7 0;
#X connect 6 0 2 0;
#X connect 7 0 0 0;
#X connect 8 0 7 1;
#X connect 8 0 6 1;
#X restore 15 282 pd tempo;
#X obj 386 163 / 8;
#X obj 452 163 / 8;
#X connect 8 0 39 0;
#X connect 13 0 40 0;
#X connect 15 0 16 0;
#X connect 15 0 18 0;
#X connect 18 0 17 0;
#X connect 19 0 43 0;
#X connect 20 0 44 0;
#X connect 21 0 13 0;
#X connect 22 0 23 1;
#X connect 22 0 24 1;
#X connect 22 0 21 1;
#X connect 23 0 13 1;
#X connect 24 0 25 1;
#X connect 24 0 13 1;
#X connect 25 0 13 0;
#X connect 26 0 21 0;
#X connect 26 1 19 0;
#X connect 26 2 20 0;
#X connect 27 0 26 0;
#X connect 27 0 31 0;
#X connect 27 0 38 0;
#X connect 28 0 29 0;
#X connect 29 0 25 0;
#X connect 29 1 23 0;
#X connect 30 0 43 1;
#X connect 30 0 44 1;
#X connect 31 0 28 0;
#X connect 32 0 31 1;
#X connect 33 0 27 0;
#X connect 34 0 19 1;
#X connect 35 0 20 1;
#X connect 36 0 22 1;
#X connect 37 0 32 0;
#X connect 39 0 27 0;
#X connect 40 0 14 0;
#X connect 41 0 40 1;
#X connect 43 0 22 0;
#X connect 43 0 24 0;
#X connect 44 0 13 2;
#X connect 44 0 27 1;
#X coords 0 1 100 -1 220 189 1 0 0;
#X restore 181 103 graph;
#N canvas 0 22 1079 829 (subpatch) 0;
#X obj 264 252 + 1;
#X obj 236 333 sel 0 1 2 3 4 5 6 7;
#X obj 427 426 i;
#X obj 399 426 i;
#X obj 373 426 i;
#X obj 345 426 i;
#X obj 318 426 i;
#X obj 290 426 i;
#X obj 264 426 i;
#X obj 236 426 i;
#X obj 116 3 vradio 15 1 0 8 empty empty empty 0 -8 0 10 -262144 -1
-1 2;
#X obj 100 3 vradio 15 1 0 8 empty empty empty 0 -8 0 10 -262144 -1
-1 0;
#X obj 84 3 vradio 15 1 0 8 empty empty empty 0 -8 0 10 -262144 -1
-1 1;
#X obj 68 3 vradio 15 1 0 8 empty empty empty 0 -8 0 10 -262144 -1
-1 6;
#X obj 52 3 vradio 15 1 0 8 empty empty empty 0 -8 0 10 -262144 -1
-1 1;
#X obj 36 3 vradio 15 1 0 8 empty empty empty 0 -8 0 10 -262144 -1
-1 6;
#X obj 20 3 vradio 15 1 0 8 empty empty empty 0 -8 0 10 -262144 -1
-1 2;
#X obj 4 3 vradio 15 1 0 8 empty empty empty 0 -8 0 10 -262144 -1 -1
1;
#X obj 711 366 i;
#X obj 684 366 i;
#X obj 655 366 i;
#X obj 628 366 i;
#X obj 601 366 i;
#X obj 574 366 i;
#X obj 545 366 i;
#X obj 518 366 i;
#X obj 116 132 tgl 15 0 empty empty empty 17 7 0 10 -262144 -1 -1 1
1;
#X obj 100 132 tgl 15 0 empty empty empty 17 7 0 10 -262144 -1 -1 1
1;
#X obj 84 132 tgl 15 0 empty empty empty 17 7 0 10 -262144 -1 -1 0
1;
#X obj 68 132 tgl 15 0 empty empty empty 17 7 0 10 -262144 -1 -1 1
1;
#X obj 52 132 tgl 15 0 empty empty empty 17 7 0 10 -262144 -1 -1 0
1;
#X obj 36 132 tgl 15 0 empty empty empty 17 7 0 10 -262144 -1 -1 1
1;
#X obj 20 132 tgl 15 0 empty empty empty 17 7 0 10 -262144 -1 -1 1
1;
#X obj 3 132 tgl 15 0 empty empty empty 17 7 0 10 -262144 -1 -1 1 1
;
#X text 141 131 REVERSE;
#X obj 115 168 bng 15 100 50 0 empty empty empty 17 7 0 10 -1 -258113
-1;
#X obj 99 168 bng 15 100 50 0 empty empty empty 17 7 0 10 -1 -258113
-1;
#X obj 83 168 bng 15 100 50 0 empty empty empty 17 7 0 10 -1 -258113
-1;
#X obj 67 168 bng 15 100 50 0 empty empty empty 17 7 0 10 -1 -258113
-1;
#X obj 51 168 bng 15 100 50 0 empty empty empty 17 7 0 10 -1 -258113
-1;
#X obj 35 168 bng 15 100 50 0 empty empty empty 17 7 0 10 -1 -258113
-1;
#X obj 19 168 bng 15 100 50 0 empty empty empty 17 7 0 10 -1 -258113
-1;
#X obj 3 168 bng 15 100 50 0 empty empty empty 17 7 0 10 -1 -258113
-1;
#X obj 133 5 bng 15 250 50 0 empty empty straight 17 7 0 10 -262144
-1 -1;
#X msg 246 34 0;
#X msg 255 55 1;
#X msg 264 74 2;
#X msg 269 95 3;
#X msg 281 119 4;
#X msg 287 139 5;
#X msg 295 160 6;
#X msg 311 183 7;
#X obj 133 25 bng 15 250 50 0 empty empty random 17 7 0 10 -262144
-1 -1;
#X obj 366 39 random 8;
#X obj 378 64 random 8;
#X obj 391 92 random 8;
#X obj 405 114 random 8;
#X obj 418 136 random 8;
#X obj 431 160 random 8;
#X obj 443 189 random 8;
#X obj 457 211 random 8;
#X obj 135 149 bng 15 250 50 0 empty empty random 17 7 0 10 -262144
-1 -1;
#X obj 106 255 random 2;
#X obj 87 272 random 2;
#X obj 76 293 random 2;
#X obj 66 315 random 2;
#X obj 54 334 random 2;
#X obj 41 360 random 2;
#X obj 17 408 random 2;
#X obj 121 235 random 2;
#X obj 300 11 loadbang;
#X obj 133 43 bng 15 250 50 0 empty empty back 17 7 0 10 -262144 -1
-1;
#X msg 629 25 0;
#X msg 612 47 1;
#X msg 595 69 2;
#X msg 585 91 3;
#X msg 572 112 4;
#X msg 559 133 5;
#X msg 547 154 6;
#X msg 537 177 7;
#X obj 498 478 s \$0rev;
#X obj 237 475 s \$0slice;
#X obj 236 226 r \$0oo;
#X floatatom 236 308 5 0 0 0 - - -, f 5;
#X obj 236 252 f;
#X obj 236 287 mod 8;
#X connect 0 0 84 1;
#X connect 1 0 9 0;
#X connect 1 0 25 0;
#X connect 1 0 42 0;
#X connect 1 1 8 0;
#X connect 1 1 24 0;
#X connect 1 1 41 0;
#X connect 1 2 7 0;
#X connect 1 2 23 0;
#X connect 1 2 40 0;
#X connect 1 3 6 0;
#X connect 1 3 22 0;
#X connect 1 3 39 0;
#X connect 1 4 5 0;
#X connect 1 4 21 0;
#X connect 1 4 38 0;
#X connect 1 5 4 0;
#X connect 1 5 20 0;
#X connect 1 5 37 0;
#X connect 1 6 3 0;
#X connect 1 6 19 0;
#X connect 1 6 36 0;
#X connect 1 7 2 0;
#X connect 1 7 18 0;
#X connect 1 7 35 0;
#X connect 2 0 81 0;
#X connect 3 0 81 0;
#X connect 4 0 81 0;
#X connect 5 0 81 0;
#X connect 6 0 81 0;
#X connect 7 0 81 0;
#X connect 8 0 81 0;
#X connect 9 0 81 0;
#X connect 10 0 2 1;
#X connect 11 0 3 1;
#X connect 12 0 4 1;
#X connect 13 0 5 1;
#X connect 14 0 6 1;
#X connect 15 0 7 1;
#X connect 16 0 8 1;
#X connect 17 0 9 1;
#X connect 18 0 80 0;
#X connect 19 0 80 0;
#X connect 20 0 80 0;
#X connect 21 0 80 0;
#X connect 22 0 80 0;
#X connect 23 0 80 0;
#X connect 24 0 80 0;
#X connect 25 0 80 0;
#X connect 26 0 18 1;
#X connect 27 0 19 1;
#X connect 28 0 20 1;
#X connect 29 0 21 1;
#X connect 30 0 22 1;
#X connect 31 0 23 1;
#X connect 32 0 24 1;
#X connect 33 0 25 1;
#X connect 43 0 44 0;
#X connect 43 0 45 0;
#X connect 43 0 46 0;
#X connect 43 0 47 0;
#X connect 43 0 48 0;
#X connect 43 0 49 0;
#X connect 43 0 50 0;
#X connect 43 0 51 0;
#X connect 44 0 17 0;
#X connect 45 0 16 0;
#X connect 46 0 15 0;
#X connect 47 0 14 0;
#X connect 48 0 13 0;
#X connect 49 0 12 0;
#X connect 50 0 11 0;
#X connect 51 0 10 0;
#X connect 52 0 53 0;
#X connect 52 0 54 0;
#X connect 52 0 55 0;
#X connect 52 0 56 0;
#X connect 52 0 57 0;
#X connect 52 0 58 0;
#X connect 52 0 59 0;
#X connect 52 0 60 0;
#X connect 53 0 17 0;
#X connect 54 0 16 0;
#X connect 55 0 15 0;
#X connect 56 0 14 0;
#X connect 57 0 13 0;
#X connect 58 0 12 0;
#X connect 59 0 11 0;
#X connect 60 0 10 0;
#X connect 61 0 69 0;
#X connect 61 0 62 0;
#X connect 61 0 63 0;
#X connect 61 0 64 0;
#X connect 61 0 65 0;
#X connect 61 0 66 0;
#X connect 61 0 67 0;
#X connect 61 0 68 0;
#X connect 62 0 27 0;
#X connect 63 0 28 0;
#X connect 64 0 29 0;
#X connect 65 0 30 0;
#X connect 66 0 31 0;
#X connect 67 0 32 0;
#X connect 68 0 33 0;
#X connect 69 0 26 0;
#X connect 70 0 43 0;
#X connect 71 0 72 0;
#X connect 71 0 73 0;
#X connect 71 0 74 0;
#X connect 71 0 75 0;
#X connect 71 0 76 0;
#X connect 71 0 77 0;
#X connect 71 0 78 0;
#X connect 71 0 79 0;
#X connect 72 0 10 0;
#X connect 73 0 11 0;
#X connect 74 0 12 0;
#X connect 75 0 13 0;
#X connect 76 0 14 0;
#X connect 77 0 15 0;
#X connect 78 0 16 0;
#X connect 79 0 17 0;
#X connect 82 0 84 0;
#X connect 83 0 1 0;
#X connect 84 0 0 0;
#X connect 84 0 85 0;
#X connect 85 0 83 0;
#X coords 0 1 100 -1 200 189 1 0 0;
#X restore 404 103 graph;
#X msg 712 21 bang;
#X msg 824 124 stop;
#X obj 687 171 tabwrite~ \$0loop;
#X obj 764 90 bng 15 250 50 0 empty empty empty 17 7 0 10 -262144 -1
-1;
#X obj 669 20 adc~;
#X obj 793 290 / 44.1;
#X obj 720 316 s \$0pos;
#X msg 720 297 range 0 \$1;
#X obj 663 296 s \$0smp;
#X obj 794 338 s \$0length;
#X obj 112 20 declare -lib /Users/shree/Library/Pd/arraysize;
#X msg 826 164 bang;
#X obj 826 187 arraysize \$0loop;
#X obj 860 104 del 20;
#X obj 860 130 bng 15 250 50 0 empty empty empty 17 7 0 10 -262144
-1 -1;
#X obj 763 66 del 8000;
#X obj 1069 134 vsl 15 160 0 120 0 0 empty empty empty 0 -9 0 10 -262144
-1 -1 9450 1;
#X obj 1069 69 loadbang;
#N canvas 1259 509 960 658 output~ 0;
#X obj 44 400 dac~;
#X text 89 377 audio;
#X obj 54 36 inlet~;
#X obj 45 370 *~;
#X text 15 20 ouput~;
#X obj 566 173 dbtorms;
#X obj 519 91 inlet;
#X text 519 68 level;
#X obj 566 219 line~;
#X text 576 155 show level;
#X obj 566 197 pack 0 500;
#X obj 566 110 loadbang;
#X msg 566 131 100;
#X obj 194 455 r~ 1-nothing;
#X obj 399 460 r~ 1-nothing;
#X obj 194 435 r \$1-\$2L-r;
#X obj 403 434 r \$1-\$2R-r;
#X obj 399 520 s~ \$1-\$2R;
#X obj 194 515 s~ \$1-\$2L;
#N canvas 401 243 448 396 output_mixer 0;
#X obj 169 11 inlet bass;
#X obj 245 11 inlet mids;
#X obj 321 11 inlet highs;
#X obj 22 357 outlet~;
#X obj 191 255 *~;
#X obj 221 255 *~;
#X obj 151 255 *~;
#X obj 22 318 *~;
#X obj 130 318 *~;
#N canvas 172 59 711 324 biquad~ 0;
#X obj 26 15 inlet~;
#X obj 26 255 outlet~;
#X obj 154 255 outlet~;
#X obj 296 255 outlet~;
#X obj 26 55 biquad~ 1.86972 -0.872325 0.000650245 0.00130049 0.000650245
;
#X obj 26 75 biquad~ 1.86972 -0.872325 0.000650245 0.00130049 0.000650245
;
#X obj 26 95 biquad~ 1.86972 -0.872325 0.000650245 0.00130049 0.000650245
;
#X obj 154 125 biquad~ 1.36591 -0.385279 0.307361 0 -0.307361;
#X obj 154 145 biquad~ 1.36591 -0.385279 0.307361 0 -0.307361;
#X obj 154 165 biquad~ 1.36591 -0.385279 0.307361 0 -0.307361;
#X obj 296 195 biquad~ 1.63386 -0.729864 0.840931 -1.68186 0.840931
;
#X obj 296 215 biquad~ 1.63386 -0.729864 0.840931 -1.68186 0.840931
;
#X connect 0 0 4 0;
#X connect 0 0 7 0;
#X connect 0 0 10 0;
#X connect 4 0 5 0;
#X connect 5 0 6 0;
#X connect 6 0 1 0;
#X connect 7 0 8 0;
#X connect 8 0 9 0;
#X connect 9 0 2 0;
#X connect 10 0 11 0;
#X connect 11 0 3 0;
#X restore 128 161 pd biquad~;
#X obj 22 11 inlet~;
#X obj 38 258 cos;
#X obj 88 258 sin;
#X obj 71 41 * 0.015708;
#X obj 38 298 line~;
#X msg 38 278 \$1 50;
#X obj 88 298 line~;
#X msg 88 278 \$1 50;
#X obj 71 11 inlet dry-wet;
#X connect 0 0 6 1;
#X connect 1 0 4 1;
#X connect 2 0 5 1;
#X connect 4 0 8 1;
#X connect 5 0 8 1;
#X connect 6 0 8 1;
#X connect 7 0 3 0;
#X connect 8 0 3 0;
#X connect 9 0 6 0;
#X connect 9 1 4 0;
#X connect 9 2 5 0;
#X connect 10 0 7 0;
#X connect 10 0 9 0;
#X connect 11 0 15 0;
#X connect 12 0 17 0;
#X connect 13 0 12 0;
#X connect 13 0 11 0;
#X connect 14 0 7 1;
#X connect 15 0 14 0;
#X connect 16 0 8 0;
#X connect 17 0 16 0;
#X connect 18 0 13 0;
#X restore 194 485 pd output_mixer;
#X obj 464 213 * 4;
#X obj 521 254 * 4;
#X obj 594 284 * 4;
#X obj 630 342 * 4;
#X obj 280 372 * 0.04;
#X obj 354 375 * 0.04;
#X obj 416 373 * 0.04;
#X obj 218 380 * 4;
#N canvas 401 243 448 396 output_mixer 0;
#X obj 169 11 inlet bass;
#X obj 245 11 inlet mids;
#X obj 321 11 inlet highs;
#X obj 22 357 outlet~;
#X obj 191 255 *~;
#X obj 221 255 *~;
#X obj 151 255 *~;
#X obj 22 318 *~;
#X obj 130 318 *~;
#N canvas 172 59 711 324 biquad~ 0;
#X obj 26 15 inlet~;
#X obj 26 255 outlet~;
#X obj 154 255 outlet~;
#X obj 296 255 outlet~;
#X obj 26 55 biquad~ 1.86972 -0.872325 0.000650245 0.00130049 0.000650245
;
#X obj 26 75 biquad~ 1.86972 -0.872325 0.000650245 0.00130049 0.000650245
;
#X obj 26 95 biquad~ 1.86972 -0.872325 0.000650245 0.00130049 0.000650245
;
#X obj 154 125 biquad~ 1.36591 -0.385279 0.307361 0 -0.307361;
#X obj 154 145 biquad~ 1.36591 -0.385279 0.307361 0 -0.307361;
#X obj 154 165 biquad~ 1.36591 -0.385279 0.307361 0 -0.307361;
#X obj 296 195 biquad~ 1.63386 -0.729864 0.840931 -1.68186 0.840931
;
#X obj 296 215 biquad~ 1.63386 -0.729864 0.840931 -1.68186 0.840931
;
#X connect 0 0 4 0;
#X connect 0 0 7 0;
#X connect 0 0 10 0;
#X connect 4 0 5 0;
#X connect 5 0 6 0;
#X connect 6 0 1 0;
#X connect 7 0 8 0;
#X connect 8 0 9 0;
#X connect 9 0 2 0;
#X connect 10 0 11 0;
#X connect 11 0 3 0;
#X restore 128 161 pd biquad~;
#X obj 22 11 inlet~;
#X obj 38 258 cos;
#X obj 88 258 sin;
#X obj 71 41 * 0.015708;
#X obj 38 298 line~;
#X msg 38 278 \$1 50;
#X obj 88 298 line~;
#X msg 88 278 \$1 50;
#X obj 71 11 inlet dry-wet;
#X connect 0 0 6 1;
#X connect 1 0 4 1;
#X connect 2 0 5 1;
#X connect 4 0 8 1;
#X connect 5 0 8 1;
#X connect 6 0 8 1;
#X connect 7 0 3 0;
#X connect 8 0 3 0;
#X connect 9 0 6 0;
#X connect 9 1 4 0;
#X connect 9 2 5 0;
#X connect 10 0 7 0;
#X connect 10 0 9 0;
#X connect 11 0 15 0;
#X connect 12 0 17 0;
#X connect 13 0 12 0;
#X connect 13 0 11 0;
#X connect 14 0 7 1;
#X connect 15 0 14 0;
#X connect 16 0 8 0;
#X connect 17 0 16 0;
#X connect 18 0 13 0;
#X restore 399 490 pd output_mixer;
#X obj 204 213 mmm-ctrl \$1 \$2 1 dry-wet 0 25 25 ext;
#X obj 281 254 mmm-ctrl \$1 \$2 2 bass 0 25 25 ext;
#X obj 355 284 mmm-ctrl \$1 \$2 3 mids 0 25 25 ext;
#X obj 415 340 mmm-ctrl \$1 \$2 4 high 0 25 25 ext;
#X msg 212 698 version 0.3.1;
#X obj 213 725 declare -path /Users/shree/Documents/Pd/abs;
#X obj 675 64 declare -path /Users/shree/Documents/Pd/abs;
#X connect 2 0 3 0;
#X connect 3 0 0 1;
#X connect 3 0 0 0;
#X connect 5 0 10 0;
#X connect 6 0 5 0;
#X connect 8 0 3 1;
#X connect 10 0 8 0;
#X connect 11 0 12 0;
#X connect 12 0 5 0;
#X connect 13 0 19 0;
#X connect 14 0 28 0;
#X connect 15 0 13 0;
#X connect 16 0 14 0;
#X connect 19 0 18 0;
#X connect 20 0 29 1;
#X connect 21 0 30 1;
#X connect 22 0 31 1;
#X connect 23 0 32 1;
#X connect 24 0 19 2;
#X connect 24 0 28 2;
#X connect 25 0 19 3;
#X connect 25 0 28 3;
#X connect 26 0 19 4;
#X connect 26 0 28 4;
#X connect 27 0 19 1;
#X connect 27 0 28 1;
#X connect 28 0 17 0;
#X connect 29 0 27 0;
#X connect 29 2 20 0;
#X connect 30 0 24 0;
#X connect 30 2 21 0;
#X connect 31 0 25 0;
#X connect 31 2 22 0;
#X connect 32 0 26 0;
#X connect 32 2 23 0;
#X restore 967 169 pd output~;
#X msg 1071 106 100;
#X obj 177 452 catch~ \$0beat;
#X obj 208 591 r~ 1-nothing;
#X obj 413 568 r~ 1-nothing;
#X obj 208 571 r \$1-\$2L-r;
#X obj 413 548 r \$1-\$2R-r;
#X obj 413 656 s~ \$1-\$2R;
#X obj 208 651 s~ \$1-\$2L;
#N canvas 401 243 448 396 output_mixer 0;
#X obj 169 11 inlet bass;
#X obj 245 11 inlet mids;
#X obj 321 11 inlet highs;
#X obj 22 357 outlet~;
#X obj 191 255 *~;
#X obj 221 255 *~;
#X obj 151 255 *~;
#X obj 22 318 *~;
#X obj 130 318 *~;
#N canvas 172 59 711 324 biquad~ 0;
#X obj 26 15 inlet~;
#X obj 26 255 outlet~;
#X obj 154 255 outlet~;
#X obj 296 255 outlet~;
#X obj 26 55 biquad~ 1.86972 -0.872325 0.000650245 0.00130049 0.000650245
;
#X obj 26 75 biquad~ 1.86972 -0.872325 0.000650245 0.00130049 0.000650245
;
#X obj 26 95 biquad~ 1.86972 -0.872325 0.000650245 0.00130049 0.000650245
;
#X obj 154 125 biquad~ 1.36591 -0.385279 0.307361 0 -0.307361;
#X obj 154 145 biquad~ 1.36591 -0.385279 0.307361 0 -0.307361;
#X obj 154 165 biquad~ 1.36591 -0.385279 0.307361 0 -0.307361;
#X obj 296 195 biquad~ 1.63386 -0.729864 0.840931 -1.68186 0.840931
;
#X obj 296 215 biquad~ 1.63386 -0.729864 0.840931 -1.68186 0.840931
;
#X connect 0 0 4 0;
#X connect 0 0 7 0;
#X connect 0 0 10 0;
#X connect 4 0 5 0;
#X connect 5 0 6 0;
#X connect 6 0 1 0;
#X connect 7 0 8 0;
#X connect 8 0 9 0;
#X connect 9 0 2 0;
#X connect 10 0 11 0;
#X connect 11 0 3 0;
#X restore 128 161 pd biquad~;
#X obj 22 11 inlet~;
#X obj 38 258 cos;
#X obj 88 258 sin;
#X obj 71 41 * 0.015708;
#X obj 38 298 line~;
#X msg 38 278 \$1 50;
#X obj 88 298 line~;
#X msg 88 278 \$1 50;
#X obj 71 11 inlet dry-wet;
#X connect 0 0 6 1;
#X connect 1 0 4 1;
#X connect 2 0 5 1;
#X connect 4 0 8 1;
#X connect 5 0 8 1;
#X connect 6 0 8 1;
#X connect 7 0 3 0;
#X connect 8 0 3 0;
#X connect 9 0 6 0;
#X connect 9 1 4 0;
#X connect 9 2 5 0;
#X connect 10 0 7 0;
#X connect 10 0 9 0;
#X connect 11 0 15 0;
#X connect 12 0 17 0;
#X connect 13 0 12 0;
#X connect 13 0 11 0;
#X connect 14 0 7 1;
#X connect 15 0 14 0;
#X connect 16 0 8 0;
#X connect 17 0 16 0;
#X connect 18 0 13 0;
#X restore 208 621 pd output_mixer;
#X obj 478 349 * 4;
#X obj 535 390 * 4;
#X obj 608 420 * 4;
#X obj 644 478 * 4;
#X obj 294 508 * 0.04;
#X obj 368 511 * 0.04;
#X obj 430 509 * 0.04;
#X obj 232 516 * 4;
#N canvas 401 243 448 396 output_mixer 0;
#X obj 169 11 inlet bass;
#X obj 245 11 inlet mids;
#X obj 321 11 inlet highs;
#X obj 22 357 outlet~;
#X obj 191 255 *~;
#X obj 221 255 *~;
#X obj 151 255 *~;
#X obj 22 318 *~;
#X obj 130 318 *~;
#N canvas 172 59 711 324 biquad~ 0;
#X obj 26 15 inlet~;
#X obj 26 255 outlet~;
#X obj 154 255 outlet~;
#X obj 296 255 outlet~;
#X obj 26 55 biquad~ 1.86972 -0.872325 0.000650245 0.00130049 0.000650245
;
#X obj 26 75 biquad~ 1.86972 -0.872325 0.000650245 0.00130049 0.000650245
;
#X obj 26 95 biquad~ 1.86972 -0.872325 0.000650245 0.00130049 0.000650245
;
#X obj 154 125 biquad~ 1.36591 -0.385279 0.307361 0 -0.307361;
#X obj 154 145 biquad~ 1.36591 -0.385279 0.307361 0 -0.307361;
#X obj 154 165 biquad~ 1.36591 -0.385279 0.307361 0 -0.307361;
#X obj 296 195 biquad~ 1.63386 -0.729864 0.840931 -1.68186 0.840931
;
#X obj 296 215 biquad~ 1.63386 -0.729864 0.840931 -1.68186 0.840931
;
#X connect 0 0 4 0;
#X connect 0 0 7 0;
#X connect 0 0 10 0;
#X connect 4 0 5 0;
#X connect 5 0 6 0;
#X connect 6 0 1 0;
#X connect 7 0 8 0;
#X connect 8 0 9 0;
#X connect 9 0 2 0;
#X connect 10 0 11 0;
#X connect 11 0 3 0;
#X restore 128 161 pd biquad~;
#X obj 22 11 inlet~;
#X obj 38 258 cos;
#X obj 88 258 sin;
#X obj 71 41 * 0.015708;
#X obj 38 298 line~;
#X msg 38 278 \$1 50;
#X obj 88 298 line~;
#X msg 88 278 \$1 50;
#X obj 71 11 inlet dry-wet;
#X connect 0 0 6 1;
#X connect 1 0 4 1;
#X connect 2 0 5 1;
#X connect 4 0 8 1;
#X connect 5 0 8 1;
#X connect 6 0 8 1;
#X connect 7 0 3 0;
#X connect 8 0 3 0;
#X connect 9 0 6 0;
#X connect 9 1 4 0;
#X connect 9 2 5 0;
#X connect 10 0 7 0;
#X connect 10 0 9 0;
#X connect 11 0 15 0;
#X connect 12 0 17 0;
#X connect 13 0 12 0;
#X connect 13 0 11 0;
#X connect 14 0 7 1;
#X connect 15 0 14 0;
#X connect 16 0 8 0;
#X connect 17 0 16 0;
#X connect 18 0 13 0;
#X restore 413 626 pd output_mixer;
#X obj 218 349 mmm-ctrl \$1 \$2 1 dry-wet 0 25 25 ext;
#X obj 295 390 mmm-ctrl \$1 \$2 2 bass 0 25 25 ext;
#X obj 369 420 mmm-ctrl \$1 \$2 3 mids 0 25 25 ext;
#X obj 429 476 mmm-ctrl \$1 \$2 4 high 0 25 25 ext;
#X msg 212 698 version 0.3.1;
#X obj 213 725 declare -path /Users/shree/Documents/Pd/abs;
#X obj 1004 106 r~ \$1-\$2R;
#X obj 962 86 r~ \$1-\$2L;
#X connect 2 0 4 0;
#X connect 2 0 17 0;
#X connect 3 0 4 0;
#X connect 5 0 3 0;
#X connect 5 0 15 0;
#X connect 6 0 4 0;
#X connect 6 1 4 0;
#X connect 7 0 11 0;
#X connect 9 0 8 0;
#X connect 13 0 14 0;
#X connect 14 0 10 0;
#X connect 14 0 9 0;
#X connect 14 0 7 0;
#X connect 15 0 16 0;
#X connect 16 0 13 0;
#X connect 17 0 5 0;
#X connect 18 0 20 1;
#X connect 19 0 21 0;
#X connect 21 0 18 0;
#X connect 22 0 29 0;
#X connect 22 0 27 0;
#X connect 23 0 29 0;
#X connect 24 0 38 0;
#X connect 25 0 23 0;
#X connect 26 0 24 0;
#X connect 29 0 28 0;
#X connect 30 0 39 1;
#X connect 31 0 40 1;
#X connect 32 0 41 1;
#X connect 33 0 42 1;
#X connect 34 0 29 2;
#X connect 34 0 38 2;
#X connect 35 0 29 3;
#X connect 35 0 38 3;
#X connect 36 0 29 4;
#X connect 36 0 38 4;
#X connect 37 0 29 1;
#X connect 37 0 38 1;
#X connect 38 0 27 0;
#X connect 39 0 37 0;
#X connect 39 2 30 0;
#X connect 40 0 34 0;
#X connect 40 2 31 0;
#X connect 41 0 35 0;
#X connect 41 2 32 0;
#X connect 42 0 36 0;
#X connect 42 2 33 0;
#X connect 45 0 20 0;
#X connect 46 0 20 0;
