#N canvas 1 23 1418 834 10;
#N canvas 417 264 450 403 armoire 0;
#X obj 30 46 table tab_43;
#X obj 30 65 table tab_44;
#X obj 30 84 table tab_45;
#X obj 30 103 table tab_46;
#X obj 30 122 table tab_47;
#X obj 30 141 table tab_48;
#X obj 30 160 table tab_49;
#X obj 30 179 table tab_50;
#X obj 30 198 table tab_51;
#X obj 30 217 table tab_52;
#X obj 30 236 table tab_53;
#X obj 30 255 table tab_54;
#X obj 30 274 table tab_55;
#X obj 115 46 table tab_56;
#X obj 115 65 table tab_57;
#X obj 115 84 table tab_58;
#X obj 115 103 table tab_59;
#X obj 115 122 table tab_60;
#X obj 115 141 table tab_61;
#X obj 115 160 table tab_62;
#X obj 115 179 table tab_63;
#X obj 115 198 table tab_64;
#X obj 115 217 table tab_65;
#X obj 115 236 table tab_66;
#X obj 115 255 table tab_67;
#X obj 115 274 table tab_68;
#X obj 200 46 table tab_69;
#X obj 200 65 table tab_70;
#X obj 200 84 table tab_71;
#X obj 200 103 table tab_72;
#X obj 200 122 table tab_73;
#X obj 200 141 table tab_74;
#X obj 200 160 table tab_75;
#X obj 200 179 table tab_76;
#X obj 200 198 table tab_77;
#X restore 744 -94 pd armoire;
#X obj 41 365 pack 0 0 0;
#X obj 39 387 route 1 2 3 4 5 6;
#X obj 1026 77 s release;
#X obj 841 168 hsl 128 15 0 0.125 0 0 empty empty empty -2 -8 0 10
-262144 -1 -1 0 1;
#X obj 738 255 s pitch;
#X obj 738 205 - 0.0625;
#X obj 742 107 bendin;
#X obj 742 129 / 16383;
#X obj 743 152 / 8;
#X text 726 -142 This is where all the notes;
#X text 727 -127 for the instrument are stored;
#X text 727 -113 in tables.;
#X obj 841 139 r set-pitch;
#X obj 64 186 r notes;
#X obj 31 257 unpack 0 0;
#X obj 151 790 throw~ outL;
#X obj 237 790 throw~ outR;
#X obj 245 59 r aux;
#X obj 309 67 sel 1;
#X obj 418 671 soundfiler;
#X obj 464 503 until;
#X obj 465 577 textfile;
#X msg 531 553 rewind;
#X msg 464 526 bang;
#X obj 464 441 pipe 1;
#X msg 500 524 read notemap.txt cr;
#X obj 418 612 unpack s f;
#X obj 418 632 pack s s f;
#X obj 401 410 symbol;
#X obj 464 420 t s b;
#X obj 464 459 t b b;
#X msg 418 652 read -resize ./\$2/\$1 tab_\$3;
#X msg 464 483 35;
#X symbolatom 319 383 10 0 0 0 - - -, f 10;
#X text 330 358 Chargé;
#X obj 434 211 sel 0 1 2 3 4 5 6 7 8 9;
#X msg 491 364 Cello;
#X msg 427 250 MKIIFlute;
#X msg 515 407 CombinedChoir;
#X msg 468 319 MKIIViolin;
#X msg 503 386 StringSection;
#X msg 550 288 Woodwind;
#X msg 565 315 GC3Brass;
#X msg 440 273 M300A;
#X msg 452 297 M300B;
#X msg 480 342 MKIIBrass;
#X obj 41 340 poly 6 1;
#X obj 891 364 s vibrato;
#X obj 953 225 metro 5;
#X msg 958 203 1;
#X obj 72 588 chorus~;
#X obj 1295 449 s chor-mod;
#X obj 1204 449 s chor-freq;
#X obj 1129 448 s chor-dw;
#X obj 1129 306 vsl 15 128 0 1 0 0 empty empty empty 0 -9 0 10 -262144
-1 -1 0 1;
#X obj 1206 303 vsl 15 128 0 1 0 0 empty empty empty 0 -9 0 10 -262144
-1 -1 2159 1;
#X obj 1296 305 vsl 15 128 0 1 0 0 empty empty empty 0 -9 0 10 -262144
-1 -1 8255 1;
#X obj 905 252 snapshot~;
#X obj 887 225 osc~;
#X obj 988 168 loadbang;
#X obj 167 688 loadbang;
#X obj 34 772 dattorroplate~;
#X text 61 714 Predelay;
#X text 171 715 Bandwidth;
#X text 254 713 Damping;
#X text 343 713 Gain;
#X msg 171 736 0.591;
#X msg 267 733 0.345;
#X msg 78 737 49.448;
#X msg 345 735 0.363;
#X msg 1203 268 0.17;
#X obj 814 232 +~ 1;
#X msg 1150 269 0.5;
#X obj 588 -31 i;
#X obj 1029 19 s attack;
#X msg 975 0 5;
#X obj 799 -44 sel 0;
#X obj 799 -24 sel 1;
#X obj 799 -4 sel 2;
#X obj 800 17 sel 3;
#X msg 975 21 500;
#X floatatom 678 241 5 0 0 0 - - -, f 5;
#X obj 837 304 spigot;
#X obj 34 630 *~ 0.5;
#X obj 236 207 bng 15 250 50 0 empty empty empty 17 7 0 10 -262144
-1 -1;
#X msg 167 305 \; pd dsp 0, f 10;
#X msg 250 321 \; pd dsp 1, f 10;
#X msg 975 80 500;
#X msg 975 103 1200;
#X msg 975 60 50;
#X obj 588 -55 * 4.9999;
#X obj 801 39 sel 4;
#X msg 974 40 1000;
#X obj 814 207 osc~ 0.94;
#X msg 1279 -8 12;
#X msg 1247 -8 0;
#N canvas 0 23 728 420 octaveselect 0;
#X obj 54 82 inlet;
#X obj 136 81 inlet;
#X obj 224 83 inlet;
#X obj 296 85 inlet;
#X obj 375 86 inlet;
#X obj 455 81 inlet;
#X obj 550 85 inlet;
#X floatatom 57 250 5 0 0 0 - - -, f 5;
#X obj 57 271 pack 0 0;
#X obj 53 120 unpack 0 0;
#X obj 55 167 -;
#X obj 547 121 f;
#X obj 58 297 outlet;
#X floatatom 138 250 5 0 0 0 - - -, f 5;
#X obj 138 271 pack 0 0;
#X obj 135 121 unpack 0 0;
#X obj 136 167 -;
#X obj 139 297 outlet;
#X floatatom 217 250 5 0 0 0 - - -, f 5;
#X obj 217 271 pack 0 0;
#X obj 214 121 unpack 0 0;
#X obj 215 167 -;
#X obj 218 297 outlet;
#X floatatom 299 250 5 0 0 0 - - -, f 5;
#X obj 299 271 pack 0 0;
#X obj 296 121 unpack 0 0;
#X obj 297 167 -;
#X obj 300 297 outlet;
#X floatatom 379 250 5 0 0 0 - - -, f 5;
#X obj 379 271 pack 0 0;
#X obj 376 121 unpack 0 0;
#X obj 377 167 -;
#X obj 380 297 outlet;
#X floatatom 458 251 5 0 0 0 - - -, f 5;
#X obj 458 272 pack 0 0;
#X obj 455 122 unpack 0 0;
#X obj 456 168 -;
#X obj 459 298 outlet;
#X connect 0 0 9 0;
#X connect 1 0 15 0;
#X connect 2 0 20 0;
#X connect 3 0 25 0;
#X connect 4 0 30 0;
#X connect 5 0 35 0;
#X connect 6 0 11 0;
#X connect 7 0 8 0;
#X connect 8 0 12 0;
#X connect 9 0 10 0;
#X connect 9 1 8 1;
#X connect 10 0 7 0;
#X connect 11 0 36 1;
#X connect 11 0 31 1;
#X connect 11 0 26 1;
#X connect 11 0 21 1;
#X connect 11 0 16 1;
#X connect 11 0 10 1;
#X connect 13 0 14 0;
#X connect 14 0 17 0;
#X connect 15 0 16 0;
#X connect 15 1 14 1;
#X connect 16 0 13 0;
#X connect 18 0 19 0;
#X connect 19 0 22 0;
#X connect 20 0 21 0;
#X connect 20 1 19 1;
#X connect 21 0 18 0;
#X connect 23 0 24 0;
#X connect 24 0 27 0;
#X connect 25 0 26 0;
#X connect 25 1 24 1;
#X connect 26 0 23 0;
#X connect 28 0 29 0;
#X connect 29 0 32 0;
#X connect 30 0 31 0;
#X connect 30 1 29 1;
#X connect 31 0 28 0;
#X connect 33 0 34 0;
#X connect 34 0 37 0;
#X connect 35 0 36 0;
#X connect 35 1 34 1;
#X connect 36 0 33 0;
#X restore 41 414 pd octaveselect;
#X obj 168 388 r oct;
#X msg 1311 -9 24;
#X obj 1245 35 s oct;
#X obj 40 566 *~ 0.5;
#X obj 1230 -100 * 2.999;
#X obj 1229 -76 i;
#X obj 1323 -43 sel 2;
#X obj 1278 -43 sel 1;
#X obj 1233 -43 sel 0;
#X obj 139 228 s kill;
#X obj 781 485 sel 0 1 2 3 4 5 6 7 8 9;
#X obj 334 210 s soundselect;
#X obj 777 381 r soundselect;
#X obj 699 383 r kill;
#X obj 669 483 delay 2 1 sec;
#X obj 780 449 value;
#X obj 694 414 bng 15 250 50 0 empty empty empty 17 7 0 10 -262144
-1 -1;
#X obj 676 640 s screenLine1;
#X msg 907 637 Cello;
#X msg 968 686 CombinedChoir;
#X msg 853 595 MKIIViolin;
#X msg 932 663 StringSection;
#X msg 1001 708 Woodwind;
#X msg 1031 731 GC3Brass;
#X msg 809 546 M300A;
#X msg 829 570 M300B;
#X msg 878 617 MKIIBrass;
#X msg 783 524 MKII Flute;
#X msg 676 523 Loading...;
#X obj 254 283 delay 2 1 sec;
#X obj 745 505 loadbang;
#X obj 167 285 bng 15 250 50 0 empty empty empty 17 7 0 10 -262144
-1 -1;
#X obj 166 265 delay 500;
#X obj 369 70 delay 500;
#X obj 252 304 bng 15 250 50 0 empty empty empty 17 7 0 10 -262144
-1 -1;
#X obj 210 543 yelloscillator;
#X obj 3 466 yelloscillator;
#X obj 112 467 yelloscillator;
#X obj 216 509 yelloscillator;
#X obj 210 584 yelloscillator;
#X obj 219 467 yelloscillator;
#X obj 418 -13 r knob1;
#X obj 419 13 * 8.999;
#X obj 419 35 i;
#X obj 400 95 value;
#X obj 55 -87 sel 0 1 2 3 4 5 6 7 8 9;
#X msg 48 -48 --MKIIFlute--;
#X msg 61 -25 --M300A--;
#X msg 73 -1 --M300B--;
#X msg 89 21 --MKIIViolin--;
#X msg 101 44 --MKIIBrass--;
#X msg 112 66 --Cello--;
#X msg 124 88 --StringSection--;
#X msg 136 109 --CombinedChoir--;
#X msg 202 -19 --Woodwind--;
#X msg 240 7 --GC3Brass--;
#X obj 1179 137 s screenLine3;
#X obj 1229 -133 r knob2;
#X obj 588 -84 r knob3;
#X obj 1108 -134 s screenLine4;
#X obj 1193 220 loadbang;
#X obj 1089 154 r knob4;
#X obj 1089 176 * 3.999;
#X obj 1089 199 i;
#X obj 1087 232 sel 0 1 2 3;
#X obj 369 95 bng 15 250 50 0 empty empty empty 17 7 0 10 -262144 -1
-1;
#X msg 31 85 1: \$1;
#X obj 32 123 s screenLine2;
#X msg 1107 271 0;
#X obj 1164 177 == 2;
#X obj 1165 198 == 3;
#X obj 1046 574 s screenLine5;
#X msg 1080 497 4: Chorus;
#X msg 1080 520 4: Tape Flutter;
#X msg 1080 474 4: No Effects;
#X msg 1080 545 4: Chorus + Flutter;
#X obj 447 105 loadbang;
#X msg 439 133 0;
#X obj 30 48 symbol;
#X msg 1180 102 2: Transpose: -\$1 st.;
#X msg 988 -134 3: Fast A + R;
#X msg 987 -114 3: Fast A + Med.R;
#X msg 987 -94 3: Med A + Med.R;
#X msg 987 -73 3: Long A + Med R;
#X msg 987 -50 3: Long A + R;
#X floatatom 892 334 5 0 0 0 - - -, f 5;
#X obj 1200 176 s flutter1;
#X obj 1200 197 s flutter2;
#X obj 783 282 r flutter1;
#X obj 952 276 r flutter2;
#X obj 892 304 spigot;
#X msg 952 333 0;
#X obj 907 275 / 670;
#X msg 1294 270 0.65;
#X obj 814 254 *~ 0.3;
#X connect 1 0 2 0;
#X connect 2 0 97 0;
#X connect 2 1 97 1;
#X connect 2 2 97 2;
#X connect 2 3 97 3;
#X connect 2 4 97 4;
#X connect 2 5 97 5;
#X connect 4 0 6 0;
#X connect 6 0 5 0;
#X connect 6 0 82 0;
#X connect 7 0 8 0;
#X connect 8 0 9 0;
#X connect 9 0 4 0;
#X connect 13 0 4 0;
#X connect 14 0 15 0;
#X connect 15 0 47 0;
#X connect 15 1 47 1;
#X connect 18 0 19 0;
#X connect 19 0 85 0;
#X connect 19 0 131 0;
#X connect 21 0 24 0;
#X connect 22 0 27 0;
#X connect 23 0 22 0;
#X connect 24 0 22 0;
#X connect 25 0 31 0;
#X connect 26 0 22 0;
#X connect 27 0 28 0;
#X connect 27 1 28 2;
#X connect 28 0 32 0;
#X connect 29 0 28 1;
#X connect 29 0 30 0;
#X connect 29 0 34 0;
#X connect 30 0 25 0;
#X connect 30 1 26 0;
#X connect 31 0 33 0;
#X connect 31 1 23 0;
#X connect 32 0 20 0;
#X connect 33 0 21 0;
#X connect 36 0 38 0;
#X connect 36 1 44 0;
#X connect 36 2 45 0;
#X connect 36 3 40 0;
#X connect 36 4 46 0;
#X connect 36 5 37 0;
#X connect 36 6 41 0;
#X connect 36 7 39 0;
#X connect 36 8 42 0;
#X connect 36 9 43 0;
#X connect 37 0 29 0;
#X connect 38 0 29 0;
#X connect 39 0 29 0;
#X connect 40 0 29 0;
#X connect 41 0 29 0;
#X connect 42 0 29 0;
#X connect 43 0 29 0;
#X connect 44 0 29 0;
#X connect 45 0 29 0;
#X connect 46 0 29 0;
#X connect 47 0 1 0;
#X connect 47 1 1 1;
#X connect 47 2 1 2;
#X connect 49 0 58 0;
#X connect 50 0 49 0;
#X connect 51 0 84 0;
#X connect 51 0 16 0;
#X connect 51 1 84 0;
#X connect 51 1 17 0;
#X connect 55 0 54 0;
#X connect 56 0 53 0;
#X connect 57 0 52 0;
#X connect 58 0 190 0;
#X connect 59 0 58 0;
#X connect 60 0 50 0;
#X connect 61 0 69 0;
#X connect 61 0 67 0;
#X connect 61 0 70 0;
#X connect 61 0 68 0;
#X connect 62 0 16 0;
#X connect 62 1 17 0;
#X connect 67 0 62 2;
#X connect 68 0 62 3;
#X connect 69 0 62 1;
#X connect 70 0 62 4;
#X connect 71 0 56 0;
#X connect 72 0 192 0;
#X connect 73 0 55 0;
#X connect 74 0 77 0;
#X connect 74 0 78 0;
#X connect 74 0 79 0;
#X connect 74 0 80 0;
#X connect 74 0 92 0;
#X connect 76 0 75 0;
#X connect 77 0 178 0;
#X connect 77 0 76 0;
#X connect 77 0 90 0;
#X connect 78 0 179 0;
#X connect 78 0 76 0;
#X connect 78 0 88 0;
#X connect 79 0 180 0;
#X connect 79 0 88 0;
#X connect 79 0 81 0;
#X connect 80 0 181 0;
#X connect 80 0 88 0;
#X connect 80 0 93 0;
#X connect 81 0 75 0;
#X connect 83 0 183 0;
#X connect 84 0 62 0;
#X connect 85 0 107 0;
#X connect 85 0 127 0;
#X connect 85 0 130 0;
#X connect 88 0 3 0;
#X connect 89 0 3 0;
#X connect 90 0 3 0;
#X connect 91 0 74 0;
#X connect 92 0 93 0;
#X connect 92 0 89 0;
#X connect 92 0 182 0;
#X connect 93 0 75 0;
#X connect 94 0 72 0;
#X connect 95 0 100 0;
#X connect 95 0 177 0;
#X connect 96 0 100 0;
#X connect 96 0 177 0;
#X connect 97 0 134 0;
#X connect 97 1 135 0;
#X connect 97 2 138 0;
#X connect 97 3 133 0;
#X connect 97 4 136 0;
#X connect 97 5 137 0;
#X connect 98 0 97 6;
#X connect 99 0 100 0;
#X connect 99 0 177 0;
#X connect 101 0 51 0;
#X connect 102 0 103 0;
#X connect 103 0 104 0;
#X connect 103 0 105 0;
#X connect 103 0 106 0;
#X connect 104 0 99 0;
#X connect 105 0 95 0;
#X connect 106 0 96 0;
#X connect 108 0 125 0;
#X connect 108 1 122 0;
#X connect 108 2 123 0;
#X connect 108 3 118 0;
#X connect 108 4 124 0;
#X connect 108 5 116 0;
#X connect 108 6 119 0;
#X connect 108 7 117 0;
#X connect 108 8 120 0;
#X connect 108 9 121 0;
#X connect 110 0 113 0;
#X connect 111 0 114 0;
#X connect 112 0 113 0;
#X connect 113 0 108 0;
#X connect 114 0 112 0;
#X connect 114 0 126 0;
#X connect 116 0 115 0;
#X connect 117 0 115 0;
#X connect 118 0 115 0;
#X connect 119 0 115 0;
#X connect 120 0 115 0;
#X connect 121 0 115 0;
#X connect 122 0 115 0;
#X connect 123 0 115 0;
#X connect 124 0 115 0;
#X connect 125 0 115 0;
#X connect 126 0 115 0;
#X connect 127 0 132 0;
#X connect 128 0 125 0;
#X connect 129 0 86 0;
#X connect 130 0 129 0;
#X connect 131 0 163 0;
#X connect 132 0 87 0;
#X connect 133 0 101 0;
#X connect 134 0 101 0;
#X connect 135 0 101 0;
#X connect 136 0 101 0;
#X connect 137 0 101 0;
#X connect 138 0 101 0;
#X connect 139 0 140 0;
#X connect 140 0 141 0;
#X connect 141 0 143 0;
#X connect 141 0 142 0;
#X connect 142 0 109 0;
#X connect 142 0 36 0;
#X connect 143 0 144 0;
#X connect 143 1 145 0;
#X connect 143 2 146 0;
#X connect 143 3 147 0;
#X connect 143 4 148 0;
#X connect 143 5 149 0;
#X connect 143 6 150 0;
#X connect 143 7 151 0;
#X connect 143 8 152 0;
#X connect 143 9 153 0;
#X connect 144 0 176 0;
#X connect 145 0 176 0;
#X connect 146 0 176 0;
#X connect 147 0 176 0;
#X connect 148 0 176 0;
#X connect 149 0 176 0;
#X connect 150 0 176 0;
#X connect 151 0 176 0;
#X connect 152 0 176 0;
#X connect 153 0 176 0;
#X connect 155 0 102 0;
#X connect 156 0 91 0;
#X connect 158 0 71 0;
#X connect 158 0 191 0;
#X connect 159 0 160 0;
#X connect 160 0 161 0;
#X connect 161 0 162 0;
#X connect 161 0 167 0;
#X connect 161 0 168 0;
#X connect 162 0 166 0;
#X connect 162 0 172 0;
#X connect 162 0 189 0;
#X connect 162 1 73 0;
#X connect 162 1 170 0;
#X connect 162 1 189 0;
#X connect 162 2 166 0;
#X connect 162 2 171 0;
#X connect 162 3 73 0;
#X connect 162 3 173 0;
#X connect 163 0 142 0;
#X connect 164 0 165 0;
#X connect 166 0 55 0;
#X connect 167 0 184 0;
#X connect 168 0 185 0;
#X connect 170 0 169 0;
#X connect 171 0 169 0;
#X connect 172 0 169 0;
#X connect 173 0 169 0;
#X connect 174 0 175 0;
#X connect 175 0 36 0;
#X connect 175 0 109 0;
#X connect 176 0 164 0;
#X connect 177 0 154 0;
#X connect 178 0 157 0;
#X connect 179 0 157 0;
#X connect 180 0 157 0;
#X connect 181 0 157 0;
#X connect 182 0 157 0;
#X connect 183 0 48 0;
#X connect 186 0 83 1;
#X connect 187 0 188 1;
#X connect 188 0 183 0;
#X connect 189 0 183 0;
#X connect 190 0 83 0;
#X connect 190 0 188 0;
#X connect 191 0 57 0;
#X connect 192 0 59 0;
