#N canvas 140 131 728 591 10;
#X obj 344 498 outlet~;
#X obj 343 466 *~;
#X obj 399 342 line~;
#X msg 471 289 0;
#X msg 343 404 set tab_\$1;
#X obj 252 185 t b f;
#X obj 516 252 r release;
#X obj 471 311 pack 0 5;
#X obj 173 395 phasor~;
#X obj 173 435 *~ 8;
#X obj 173 415 *~ 44100;
#X msg 290 402 0;
#X obj 173 458 threshold~ 352700 10;
#X obj 173 302 spigot;
#X obj 173 342 line~;
#X obj 174 223 + 0.125;
#X obj 174 202 f;
#X obj 174 173 r pitch;
#X msg 235 223 1;
#X msg 267 253 0;
#X obj 173 321 pack 0 5;
#X obj 343 431 tabread4~;
#X obj 271 374 t b b b;
#X msg 352 259 0;
#X obj 173 366 *~ 1;
#X obj 235 -26 inlet;
#X obj 541 285 / 127;
#X obj 235 0 swap;
#X obj 235 22 pack 0 0;
#X obj 236 46 route 0;
#X obj 276 67 swap;
#X obj 275 97 pack 0 0;
#X obj 276 116 unpack 0 0;
#X text 496 227 This is for attack and release.;
#X text 424 394 The name of the table to read;
#X text 424 408 is set depending on the midi note;
#X text 424 421 (see [pd armoire]).;
#X text 407 522 Pierre Massat \, Guitar Extended \, 2014;
#X obj 174 245 +;
#X obj 81 216 r vibrato;
#X obj 81 247 t b f;
#X obj 541 318 pack f f;
#X obj 593 252 r attack;
#X obj 397 266 r kill;
#X obj 395 290 bng 15 250 50 0 empty empty empty 17 7 0 10 -262144
-1 -1;
#X msg 380 312 0 0;
#X connect 1 0 0 0;
#X connect 2 0 1 1;
#X connect 3 0 7 0;
#X connect 4 0 21 0;
#X connect 5 0 16 0;
#X connect 5 1 18 0;
#X connect 5 1 19 0;
#X connect 5 1 4 0;
#X connect 6 0 7 1;
#X connect 7 0 2 0;
#X connect 8 0 10 0;
#X connect 9 0 12 0;
#X connect 9 0 21 0;
#X connect 10 0 9 0;
#X connect 11 0 12 1;
#X connect 12 0 22 0;
#X connect 13 0 20 0;
#X connect 14 0 24 0;
#X connect 15 0 38 0;
#X connect 16 0 15 0;
#X connect 17 0 16 0;
#X connect 18 0 13 1;
#X connect 18 0 24 1;
#X connect 19 0 8 1;
#X connect 20 0 14 0;
#X connect 21 0 1 0;
#X connect 22 1 11 0;
#X connect 22 2 23 0;
#X connect 23 0 13 1;
#X connect 23 0 24 1;
#X connect 23 0 8 1;
#X connect 24 0 8 0;
#X connect 25 0 27 0;
#X connect 26 0 41 0;
#X connect 27 0 28 0;
#X connect 27 1 28 1;
#X connect 28 0 29 0;
#X connect 29 0 3 0;
#X connect 29 1 30 0;
#X connect 30 0 31 0;
#X connect 30 1 31 1;
#X connect 31 0 32 0;
#X connect 32 0 5 0;
#X connect 32 1 26 0;
#X connect 38 0 13 0;
#X connect 39 0 40 0;
#X connect 40 0 38 0;
#X connect 40 1 38 1;
#X connect 41 0 2 0;
#X connect 42 0 41 1;
#X connect 43 0 44 0;
#X connect 44 0 45 0;
#X connect 45 0 2 0;
