#N canvas 155 23 1285 739 10;
#X obj 165 708 throw~ outL;
#X obj 408 708 throw~ outR;
#X obj 482 53 r notes;
#X obj 472 164 pack 0 0 0;
#X obj 663 531 s feedbackamt;
#N canvas 0 246 1440 590 stringvoice 0;
#X obj 1075 248 noise~;
#X obj 1075 297 *~;
#X obj 825 175 *~;
#X obj 734 304 +~;
#X obj 509 11 unpack;
#X obj 1269 157 sel 0;
#X obj 1153 278 line~;
#X obj 456 3 inlet;
#X obj 844 96 r feedbackamt;
#X obj 1456 176 r dc;
#X obj 1495 181 r su;
#X obj 704 267 lop~, f 7;
#X msg 1153 215 1 0 \, 0 20;
#X obj 409 370 bp~, f 6;
#X obj 327 371 bp~, f 6;
#X obj 240 371 bp~, f 6;
#X obj 241 420 *~;
#X obj 419 420 *~;
#X obj 330 416 *~;
#X obj 505 368 bp~, f 6;
#X obj 505 420 *~;
#X obj 263 393 r f1;
#X obj 443 393 r f3;
#X obj 530 395 r f4;
#X obj 348 394 r f2;
#X obj 521 279 r res;
#X obj 254 253 r h1;
#X obj 237 300 *;
#X obj 305 297 *;
#X obj 311 254 r h2;
#X obj 416 297 *;
#X obj 373 255 r h3;
#X obj 514 135 t b f;
#X obj 514 196 /;
#X msg 507 170 1;
#X obj 514 226 * 1000;
#X obj 71 121 mtof;
#X floatatom 513 50 5 0 0 0 - - -, f 5;
#X obj 571 140 delread~ emily1 500;
#X obj 733 360 delwrite~ emily1 500;
#X obj 1238 500 block~ 1;
#X obj 640 511 /;
#X floatatom 641 540 5 0 0 0 - - -, f 5;
#X obj 679 467 t b f;
#X obj 332 473 *~;
#X obj 331 534 outlet~;
#X obj 639 444 loadbang;
#X msg 640 467 100;
#X obj 670 513 *;
#X floatatom 805 115 5 0 0 0 - - -, f 5;
#X obj 771 49 t b f;
#X obj 804 92 *;
#X obj 803 70 / 1300;
#X obj 805 132 +;
#X floatatom 806 152 5 0 0 0 - - -, f 5;
#X obj 889 279 -;
#X obj 954 264 r damper;
#X obj 920 214 log;
#X obj 889 233 *;
#X obj 870 213 t b f;
#X obj 888 258 * 16;
#X obj 775 263 clip 1000 6000;
#X obj 330 155 line;
#X obj 339 214 +;
#X obj 342 182 t b f;
#X floatatom 332 100 5 0 0 0 - - -, f 5;
#X obj 403 61 t b;
#X obj 263 49 r detune;
#X obj 269 73 *;
#X obj 336 51 / 130;
#X obj 11 69 sel 0;
#X obj 40 463 / 127;
#X obj 332 501 *~;
#X obj 43 485 clip 0.3 1;
#X floatatom 417 222 5 0 0 0 - - -, f 5;
#X msg 331 124 \$1 10;
#X obj 402 101 delay 10;
#X msg 399 124 0 10;
#X connect 0 0 1 0;
#X connect 1 0 3 0;
#X connect 2 0 11 0;
#X connect 3 0 19 0;
#X connect 3 0 13 0;
#X connect 3 0 14 0;
#X connect 3 0 15 0;
#X connect 3 0 39 0;
#X connect 4 0 37 0;
#X connect 4 0 66 0;
#X connect 4 0 69 0;
#X connect 4 1 5 0;
#X connect 4 1 70 0;
#X connect 5 1 12 0;
#X connect 6 0 1 1;
#X connect 7 0 4 0;
#X connect 8 0 53 1;
#X connect 11 0 3 0;
#X connect 12 0 6 0;
#X connect 13 0 17 0;
#X connect 14 0 18 0;
#X connect 15 0 16 0;
#X connect 16 0 44 0;
#X connect 17 0 44 0;
#X connect 18 0 44 0;
#X connect 19 0 20 0;
#X connect 20 0 44 0;
#X connect 21 0 16 1;
#X connect 22 0 17 1;
#X connect 23 0 20 1;
#X connect 24 0 18 1;
#X connect 25 0 19 2;
#X connect 25 0 13 2;
#X connect 25 0 14 2;
#X connect 25 0 15 2;
#X connect 26 0 27 1;
#X connect 27 0 14 1;
#X connect 28 0 13 1;
#X connect 29 0 28 1;
#X connect 30 0 19 1;
#X connect 31 0 30 1;
#X connect 32 0 34 0;
#X connect 32 1 33 1;
#X connect 33 0 35 0;
#X connect 34 0 33 0;
#X connect 35 0 38 0;
#X connect 36 0 15 1;
#X connect 36 0 27 0;
#X connect 36 0 28 0;
#X connect 36 0 30 0;
#X connect 36 0 63 0;
#X connect 37 0 43 0;
#X connect 37 0 50 0;
#X connect 37 0 59 0;
#X connect 37 0 36 0;
#X connect 38 0 2 0;
#X connect 41 0 48 0;
#X connect 41 0 48 1;
#X connect 42 0 44 1;
#X connect 43 0 41 0;
#X connect 43 0 48 0;
#X connect 43 1 41 1;
#X connect 44 0 72 0;
#X connect 46 0 47 0;
#X connect 47 0 41 0;
#X connect 48 0 42 0;
#X connect 49 0 53 0;
#X connect 50 0 51 0;
#X connect 50 1 52 0;
#X connect 51 0 49 0;
#X connect 52 0 51 0;
#X connect 52 0 51 1;
#X connect 53 0 54 0;
#X connect 54 0 2 1;
#X connect 55 0 61 0;
#X connect 56 0 55 1;
#X connect 57 0 58 1;
#X connect 58 0 60 0;
#X connect 59 0 58 0;
#X connect 59 1 57 0;
#X connect 59 1 58 0;
#X connect 60 0 55 0;
#X connect 61 0 11 1;
#X connect 62 0 64 0;
#X connect 63 0 32 0;
#X connect 63 0 74 0;
#X connect 64 0 63 0;
#X connect 64 1 63 1;
#X connect 65 0 75 0;
#X connect 66 0 65 0;
#X connect 66 0 76 0;
#X connect 67 0 68 0;
#X connect 68 0 65 0;
#X connect 69 0 68 1;
#X connect 70 1 71 0;
#X connect 71 0 73 0;
#X connect 72 0 45 0;
#X connect 73 0 72 1;
#X connect 75 0 62 0;
#X connect 76 0 77 0;
#X connect 77 0 62 0;
#X restore 33 280 pd stringvoice;
#X obj 963 574 s f1;
#X obj 1022 574 s f2;
#X obj 1081 576 s f3;
#X obj 493 601 s res;
#X obj 1142 576 s f4;
#X msg 494 569 9.76;
#X obj 593 447 loadbang;
#X obj 963 538 r knob1;
#X obj 1021 537 r knob2;
#X obj 1080 537 r knob3;
#X obj 1142 537 r knob4;
#X obj 477 135 poly 12 1;
#X obj 455 204 route 1 2 3 4 5 6 7 8 9 10 11 12;
#X obj 969 418 s h1;
#X obj 1069 416 s h2;
#X obj 1165 416 s h3;
#X msg 1017 301 4;
#X msg 1018 357 1.5;
#X msg 1097 357 1.5;
#X msg 1199 358 1.5;
#X msg 1199 387 1.25;
#X msg 1096 386 1.25;
#X msg 1018 384 1.25;
#X msg 1017 329 2;
#X msg 1096 330 2;
#X msg 1198 332 2;
#X msg 1096 304 4;
#X msg 1197 305 4;
#X obj 878 228 loadbang;
#X text 1047 237 Harmonics Comb-Filter;
#X msg 854 641 1: Fundamental \$1;
#X obj 859 616 i;
#X obj 854 663 s screenLine1;
#X obj 969 702 s screenLine2;
#X msg 969 680 2: 1st Harmonic \$1;
#X obj 1129 700 s screenLine3;
#X obj 813 558 s screenLine4;
#X msg 813 536 4: 3nd Harmonic \$1;
#X msg 1129 678 3: 2nd Harmonic \$1;
#X obj 892 594 * 100;
#X obj 829 508 i;
#X obj 911 491 * 100;
#X obj 993 640 i;
#X obj 992 617 * 100;
#X obj 1120 643 i;
#X obj 1182 620 * 100;
#X text 463 623 Don't touch!!!;
#X obj 154 439 loadbang;
#X obj 61 625 dattorroplate~;
#X text -9 514 Predelay;
#X text 101 515 Bandwidth;
#X text 184 513 Damping;
#X text 273 513 Gain;
#X msg 101 536 0.591;
#X msg 197 533 0.345;
#X msg 8 537 49.448;
#X msg 275 535 0.363;
#X obj 493 79 unpack;
#X obj 464 103 moses 36;
#X obj 659 649 s damper;
#X msg 605 654 2000;
#X msg 605 587 500;
#X obj 532 103 moses 97;
#X msg 604 609 1000;
#X msg 605 630 1500;
#X obj 44 604 hip~ 500;
#X msg 604 564 250;
#X msg 604 542 125;
#X text 660 621 Damper:;
#X msg 603 518 0;
#X msg 662 509 0.99;
#X text 622 487 String-Decay (can't go any higher!!!!);
#X obj 360 517 *~ 0.6;
#X obj 840 38 vsl 15 128 0 20 0 0 empty empty empty 0 -9 0 10 -262144
-1 -1 3175 1;
#X floatatom 840 173 5 0 0 0 - - -, f 5;
#X obj 840 203 s detune;
#N canvas 0 246 1440 590 stringvoice 0;
#X obj 1075 248 noise~;
#X obj 1075 297 *~;
#X obj 825 175 *~;
#X obj 734 304 +~;
#X obj 528 23 unpack;
#X obj 1269 157 sel 0;
#X obj 1153 278 line~;
#X obj 857 17 inlet;
#X obj 844 96 r feedbackamt;
#X obj 1456 176 r dc;
#X obj 1495 181 r su;
#X obj 704 267 lop~, f 7;
#X msg 1153 215 1 0 \, 0 20;
#X obj 409 370 bp~, f 6;
#X obj 327 371 bp~, f 6;
#X obj 240 371 bp~, f 6;
#X obj 241 420 *~;
#X obj 419 420 *~;
#X obj 330 416 *~;
#X obj 505 368 bp~, f 6;
#X obj 505 420 *~;
#X obj 263 393 r f1;
#X obj 443 393 r f3;
#X obj 530 395 r f4;
#X obj 348 394 r f2;
#X obj 521 279 r res;
#X obj 254 253 r h1;
#X obj 237 300 *;
#X obj 305 297 *;
#X obj 311 254 r h2;
#X obj 416 297 *;
#X obj 373 255 r h3;
#X obj 514 135 t b f;
#X obj 514 196 /;
#X msg 507 170 1;
#X obj 514 226 * 1000;
#X obj 71 121 mtof;
#X floatatom 513 50 5 0 0 0 - - -, f 5;
#X obj 1238 500 block~ 1;
#X obj 640 511 /;
#X floatatom 641 540 5 0 0 0 - - -, f 5;
#X obj 679 467 t b f;
#X obj 332 473 *~;
#X obj 331 534 outlet~;
#X obj 639 444 loadbang;
#X msg 640 467 100;
#X obj 670 513 *;
#X floatatom 805 115 5 0 0 0 - - -, f 5;
#X obj 771 49 t b f;
#X obj 804 92 *;
#X obj 803 70 / 1300;
#X obj 805 132 +;
#X floatatom 806 152 5 0 0 0 - - -, f 5;
#X obj 889 279 -;
#X obj 954 264 r damper;
#X obj 920 214 log;
#X obj 889 233 *;
#X obj 870 213 t b f;
#X obj 888 258 * 16;
#X obj 775 263 clip 1000 6000;
#X obj 330 155 line;
#X obj 339 214 +;
#X obj 342 182 t b f;
#X floatatom 332 100 5 0 0 0 - - -, f 5;
#X obj 403 61 t b;
#X obj 402 101 delay 10;
#X obj 269 42 r detune;
#X obj 269 73 *;
#X obj 336 42 / 130;
#X obj 12 80 sel 0;
#X obj 40 463 / 127;
#X obj 333 502 *~;
#X obj 43 485 clip 0.3 1;
#X obj 571 140 delread~ emily2 500;
#X obj 733 360 delwrite~ emily2 500;
#X msg 331 124 \$1 10;
#X msg 399 124 0 10;
#X connect 0 0 1 0;
#X connect 1 0 3 0;
#X connect 2 0 11 0;
#X connect 3 0 19 0;
#X connect 3 0 13 0;
#X connect 3 0 14 0;
#X connect 3 0 15 0;
#X connect 3 0 74 0;
#X connect 4 0 37 0;
#X connect 4 0 64 0;
#X connect 4 0 68 0;
#X connect 4 1 5 0;
#X connect 4 1 69 0;
#X connect 5 1 12 0;
#X connect 6 0 1 1;
#X connect 7 0 4 0;
#X connect 8 0 51 1;
#X connect 11 0 3 0;
#X connect 12 0 6 0;
#X connect 13 0 17 0;
#X connect 14 0 18 0;
#X connect 15 0 16 0;
#X connect 16 0 42 0;
#X connect 17 0 42 0;
#X connect 18 0 42 0;
#X connect 19 0 20 0;
#X connect 20 0 42 0;
#X connect 21 0 16 1;
#X connect 22 0 17 1;
#X connect 23 0 20 1;
#X connect 24 0 18 1;
#X connect 25 0 19 2;
#X connect 25 0 13 2;
#X connect 25 0 14 2;
#X connect 25 0 15 2;
#X connect 26 0 27 1;
#X connect 27 0 14 1;
#X connect 28 0 13 1;
#X connect 29 0 28 1;
#X connect 30 0 19 1;
#X connect 31 0 30 1;
#X connect 32 0 34 0;
#X connect 32 1 33 1;
#X connect 33 0 35 0;
#X connect 34 0 33 0;
#X connect 35 0 73 0;
#X connect 36 0 15 1;
#X connect 36 0 27 0;
#X connect 36 0 28 0;
#X connect 36 0 30 0;
#X connect 36 0 61 0;
#X connect 37 0 41 0;
#X connect 37 0 48 0;
#X connect 37 0 57 0;
#X connect 37 0 36 0;
#X connect 39 0 46 0;
#X connect 39 0 46 1;
#X connect 40 0 42 1;
#X connect 41 0 39 0;
#X connect 41 0 46 0;
#X connect 41 1 39 1;
#X connect 42 0 71 0;
#X connect 44 0 45 0;
#X connect 45 0 39 0;
#X connect 46 0 40 0;
#X connect 47 0 51 0;
#X connect 48 0 49 0;
#X connect 48 1 50 0;
#X connect 49 0 47 0;
#X connect 50 0 49 0;
#X connect 50 0 49 1;
#X connect 51 0 52 0;
#X connect 52 0 2 1;
#X connect 53 0 59 0;
#X connect 54 0 53 1;
#X connect 55 0 56 1;
#X connect 56 0 58 0;
#X connect 57 0 56 0;
#X connect 57 1 55 0;
#X connect 57 1 56 0;
#X connect 58 0 53 0;
#X connect 59 0 11 1;
#X connect 60 0 62 0;
#X connect 61 0 32 0;
#X connect 62 0 61 0;
#X connect 62 1 61 1;
#X connect 63 0 75 0;
#X connect 64 0 63 0;
#X connect 64 0 65 0;
#X connect 65 0 76 0;
#X connect 66 0 67 0;
#X connect 67 0 63 0;
#X connect 68 0 67 1;
#X connect 69 1 70 0;
#X connect 70 0 72 0;
#X connect 71 0 43 0;
#X connect 72 0 71 1;
#X connect 73 0 2 0;
#X connect 75 0 60 0;
#X connect 76 0 60 0;
#X restore 142 281 pd stringvoice;
#N canvas 0 246 1440 590 stringvoice 0;
#X obj 1075 248 noise~;
#X obj 1075 297 *~;
#X obj 825 175 *~;
#X obj 734 304 +~;
#X obj 528 23 unpack;
#X obj 1269 157 sel 0;
#X obj 1153 278 line~;
#X obj 857 17 inlet;
#X obj 844 96 r feedbackamt;
#X obj 1456 176 r dc;
#X obj 1495 181 r su;
#X obj 704 267 lop~, f 7;
#X msg 1153 215 1 0 \, 0 20;
#X obj 409 370 bp~, f 6;
#X obj 327 371 bp~, f 6;
#X obj 240 371 bp~, f 6;
#X obj 241 420 *~;
#X obj 419 420 *~;
#X obj 330 416 *~;
#X obj 505 368 bp~, f 6;
#X obj 505 420 *~;
#X obj 263 393 r f1;
#X obj 443 393 r f3;
#X obj 530 395 r f4;
#X obj 348 394 r f2;
#X obj 521 279 r res;
#X obj 254 253 r h1;
#X obj 237 300 *;
#X obj 305 297 *;
#X obj 311 254 r h2;
#X obj 416 297 *;
#X obj 373 255 r h3;
#X obj 514 135 t b f;
#X obj 514 196 /;
#X msg 507 170 1;
#X obj 514 226 * 1000;
#X obj 71 121 mtof;
#X floatatom 513 50 5 0 0 0 - - -, f 5;
#X obj 1238 500 block~ 1;
#X obj 640 511 /;
#X floatatom 641 540 5 0 0 0 - - -, f 5;
#X obj 679 467 t b f;
#X obj 332 473 *~;
#X obj 331 534 outlet~;
#X obj 639 444 loadbang;
#X msg 640 467 100;
#X obj 670 513 *;
#X floatatom 805 115 5 0 0 0 - - -, f 5;
#X obj 771 49 t b f;
#X obj 804 92 *;
#X obj 803 70 / 1300;
#X obj 805 132 +;
#X floatatom 806 152 5 0 0 0 - - -, f 5;
#X obj 889 279 -;
#X obj 954 264 r damper;
#X obj 920 214 log;
#X obj 889 233 *;
#X obj 870 213 t b f;
#X obj 888 258 * 16;
#X obj 775 263 clip 1000 6000;
#X obj 330 155 line;
#X obj 339 214 +;
#X obj 342 182 t b f;
#X floatatom 332 100 5 0 0 0 - - -, f 5;
#X obj 403 61 t b;
#X obj 402 101 delay 10;
#X obj 269 42 r detune;
#X obj 269 73 *;
#X obj 336 42 / 130;
#X obj 16 60 sel 0;
#X obj 40 463 / 127;
#X obj 331 507 *~;
#X obj 43 485 clip 0.3 1;
#X obj 733 360 delwrite~ emily3 500;
#X obj 571 140 delread~ emily3 500;
#X msg 331 124 \$1 10;
#X msg 399 124 0 10;
#X connect 0 0 1 0;
#X connect 1 0 3 0;
#X connect 2 0 11 0;
#X connect 3 0 19 0;
#X connect 3 0 13 0;
#X connect 3 0 14 0;
#X connect 3 0 15 0;
#X connect 3 0 73 0;
#X connect 4 0 37 0;
#X connect 4 0 64 0;
#X connect 4 0 68 0;
#X connect 4 1 5 0;
#X connect 4 1 69 0;
#X connect 5 1 12 0;
#X connect 6 0 1 1;
#X connect 7 0 4 0;
#X connect 8 0 51 1;
#X connect 11 0 3 0;
#X connect 12 0 6 0;
#X connect 13 0 17 0;
#X connect 14 0 18 0;
#X connect 15 0 16 0;
#X connect 16 0 42 0;
#X connect 17 0 42 0;
#X connect 18 0 42 0;
#X connect 19 0 20 0;
#X connect 20 0 42 0;
#X connect 21 0 16 1;
#X connect 22 0 17 1;
#X connect 23 0 20 1;
#X connect 24 0 18 1;
#X connect 25 0 19 2;
#X connect 25 0 13 2;
#X connect 25 0 14 2;
#X connect 25 0 15 2;
#X connect 26 0 27 1;
#X connect 27 0 14 1;
#X connect 28 0 13 1;
#X connect 29 0 28 1;
#X connect 30 0 19 1;
#X connect 31 0 30 1;
#X connect 32 0 34 0;
#X connect 32 1 33 1;
#X connect 33 0 35 0;
#X connect 34 0 33 0;
#X connect 35 0 74 0;
#X connect 36 0 15 1;
#X connect 36 0 27 0;
#X connect 36 0 28 0;
#X connect 36 0 30 0;
#X connect 36 0 61 0;
#X connect 37 0 41 0;
#X connect 37 0 48 0;
#X connect 37 0 57 0;
#X connect 37 0 36 0;
#X connect 39 0 46 0;
#X connect 39 0 46 1;
#X connect 40 0 42 1;
#X connect 41 0 39 0;
#X connect 41 0 46 0;
#X connect 41 1 39 1;
#X connect 42 0 71 0;
#X connect 44 0 45 0;
#X connect 45 0 39 0;
#X connect 46 0 40 0;
#X connect 47 0 51 0;
#X connect 48 0 49 0;
#X connect 48 1 50 0;
#X connect 49 0 47 0;
#X connect 50 0 49 0;
#X connect 50 0 49 1;
#X connect 51 0 52 0;
#X connect 52 0 2 1;
#X connect 53 0 59 0;
#X connect 54 0 53 1;
#X connect 55 0 56 1;
#X connect 56 0 58 0;
#X connect 57 0 56 0;
#X connect 57 1 55 0;
#X connect 57 1 56 0;
#X connect 58 0 53 0;
#X connect 59 0 11 1;
#X connect 60 0 62 0;
#X connect 61 0 32 0;
#X connect 62 0 61 0;
#X connect 62 1 61 1;
#X connect 63 0 75 0;
#X connect 64 0 63 0;
#X connect 64 0 65 0;
#X connect 65 0 76 0;
#X connect 66 0 67 0;
#X connect 67 0 63 0;
#X connect 68 0 67 1;
#X connect 69 1 70 0;
#X connect 70 0 72 0;
#X connect 71 0 43 0;
#X connect 72 0 71 1;
#X connect 74 0 2 0;
#X connect 75 0 60 0;
#X connect 76 0 60 0;
#X restore 249 281 pd stringvoice;
#N canvas 0 246 1440 590 stringvoice 0;
#X obj 1075 248 noise~;
#X obj 1075 297 *~;
#X obj 825 175 *~;
#X obj 734 304 +~;
#X obj 528 23 unpack;
#X obj 1269 157 sel 0;
#X obj 1153 278 line~;
#X obj 857 17 inlet;
#X obj 844 96 r feedbackamt;
#X obj 1456 176 r dc;
#X obj 1495 181 r su;
#X obj 704 267 lop~, f 7;
#X msg 1153 215 1 0 \, 0 20;
#X obj 409 370 bp~, f 6;
#X obj 327 371 bp~, f 6;
#X obj 240 371 bp~, f 6;
#X obj 241 420 *~;
#X obj 419 420 *~;
#X obj 330 416 *~;
#X obj 505 368 bp~, f 6;
#X obj 505 420 *~;
#X obj 263 393 r f1;
#X obj 443 393 r f3;
#X obj 530 395 r f4;
#X obj 348 394 r f2;
#X obj 521 279 r res;
#X obj 254 253 r h1;
#X obj 237 300 *;
#X obj 305 297 *;
#X obj 311 254 r h2;
#X obj 416 297 *;
#X obj 373 255 r h3;
#X obj 514 135 t b f;
#X obj 514 196 /;
#X msg 507 170 1;
#X obj 514 226 * 1000;
#X obj 71 121 mtof;
#X floatatom 513 50 5 0 0 0 - - -, f 5;
#X obj 1238 500 block~ 1;
#X obj 640 511 /;
#X floatatom 641 540 5 0 0 0 - - -, f 5;
#X obj 679 467 t b f;
#X obj 332 473 *~;
#X obj 331 534 outlet~;
#X obj 639 444 loadbang;
#X msg 640 467 100;
#X obj 670 513 *;
#X floatatom 805 115 5 0 0 0 - - -, f 5;
#X obj 771 49 t b f;
#X obj 804 92 *;
#X obj 803 70 / 1300;
#X obj 805 132 +;
#X floatatom 806 152 5 0 0 0 - - -, f 5;
#X obj 889 279 -;
#X obj 954 264 r damper;
#X obj 920 214 log;
#X obj 889 233 *;
#X obj 870 213 t b f;
#X obj 888 258 * 16;
#X obj 775 263 clip 1000 6000;
#X obj 330 155 line;
#X obj 339 214 +;
#X obj 342 182 t b f;
#X floatatom 332 100 5 0 0 0 - - -, f 5;
#X obj 403 61 t b;
#X obj 402 101 delay 10;
#X obj 269 42 r detune;
#X obj 269 73 *;
#X obj 336 42 / 130;
#X obj 6 65 sel 0;
#X obj 40 463 / 127;
#X obj 331 507 *~;
#X obj 43 485 clip 0.3 1;
#X obj 571 140 delread~ emily4 500;
#X obj 733 360 delwrite~ emily4 500;
#X msg 399 124 0 10;
#X msg 331 124 \$1 10;
#X connect 0 0 1 0;
#X connect 1 0 3 0;
#X connect 2 0 11 0;
#X connect 3 0 19 0;
#X connect 3 0 13 0;
#X connect 3 0 14 0;
#X connect 3 0 15 0;
#X connect 3 0 74 0;
#X connect 4 0 37 0;
#X connect 4 0 64 0;
#X connect 4 0 68 0;
#X connect 4 1 5 0;
#X connect 4 1 69 0;
#X connect 5 1 12 0;
#X connect 6 0 1 1;
#X connect 7 0 4 0;
#X connect 8 0 51 1;
#X connect 11 0 3 0;
#X connect 12 0 6 0;
#X connect 13 0 17 0;
#X connect 14 0 18 0;
#X connect 15 0 16 0;
#X connect 16 0 42 0;
#X connect 17 0 42 0;
#X connect 18 0 42 0;
#X connect 19 0 20 0;
#X connect 20 0 42 0;
#X connect 21 0 16 1;
#X connect 22 0 17 1;
#X connect 23 0 20 1;
#X connect 24 0 18 1;
#X connect 25 0 19 2;
#X connect 25 0 13 2;
#X connect 25 0 14 2;
#X connect 25 0 15 2;
#X connect 26 0 27 1;
#X connect 27 0 14 1;
#X connect 28 0 13 1;
#X connect 29 0 28 1;
#X connect 30 0 19 1;
#X connect 31 0 30 1;
#X connect 32 0 34 0;
#X connect 32 1 33 1;
#X connect 33 0 35 0;
#X connect 34 0 33 0;
#X connect 35 0 73 0;
#X connect 36 0 15 1;
#X connect 36 0 27 0;
#X connect 36 0 28 0;
#X connect 36 0 30 0;
#X connect 36 0 61 0;
#X connect 37 0 41 0;
#X connect 37 0 48 0;
#X connect 37 0 57 0;
#X connect 37 0 36 0;
#X connect 39 0 46 0;
#X connect 39 0 46 1;
#X connect 40 0 42 1;
#X connect 41 0 39 0;
#X connect 41 0 46 0;
#X connect 41 1 39 1;
#X connect 42 0 71 0;
#X connect 44 0 45 0;
#X connect 45 0 39 0;
#X connect 46 0 40 0;
#X connect 47 0 51 0;
#X connect 48 0 49 0;
#X connect 48 1 50 0;
#X connect 49 0 47 0;
#X connect 50 0 49 0;
#X connect 50 0 49 1;
#X connect 51 0 52 0;
#X connect 52 0 2 1;
#X connect 53 0 59 0;
#X connect 54 0 53 1;
#X connect 55 0 56 1;
#X connect 56 0 58 0;
#X connect 57 0 56 0;
#X connect 57 1 55 0;
#X connect 57 1 56 0;
#X connect 58 0 53 0;
#X connect 59 0 11 1;
#X connect 60 0 62 0;
#X connect 61 0 32 0;
#X connect 62 0 61 0;
#X connect 62 1 61 1;
#X connect 63 0 76 0;
#X connect 64 0 63 0;
#X connect 64 0 65 0;
#X connect 65 0 75 0;
#X connect 66 0 67 0;
#X connect 67 0 63 0;
#X connect 68 0 67 1;
#X connect 69 1 70 0;
#X connect 70 0 72 0;
#X connect 71 0 43 0;
#X connect 72 0 71 1;
#X connect 73 0 2 0;
#X connect 75 0 60 0;
#X connect 76 0 60 0;
#X restore 358 282 pd stringvoice;
#N canvas 0 246 1440 590 stringvoice 0;
#X obj 1075 248 noise~;
#X obj 1075 297 *~;
#X obj 825 175 *~;
#X obj 734 304 +~;
#X obj 528 23 unpack;
#X obj 1269 157 sel 0;
#X obj 1153 278 line~;
#X obj 857 17 inlet;
#X obj 844 96 r feedbackamt;
#X obj 1456 176 r dc;
#X obj 1495 181 r su;
#X obj 704 267 lop~, f 7;
#X msg 1153 215 1 0 \, 0 20;
#X obj 409 370 bp~, f 6;
#X obj 327 371 bp~, f 6;
#X obj 240 371 bp~, f 6;
#X obj 241 420 *~;
#X obj 419 420 *~;
#X obj 330 416 *~;
#X obj 505 368 bp~, f 6;
#X obj 505 420 *~;
#X obj 263 393 r f1;
#X obj 443 393 r f3;
#X obj 530 395 r f4;
#X obj 348 394 r f2;
#X obj 521 279 r res;
#X obj 254 253 r h1;
#X obj 237 300 *;
#X obj 305 297 *;
#X obj 311 254 r h2;
#X obj 416 297 *;
#X obj 373 255 r h3;
#X obj 514 135 t b f;
#X obj 514 196 /;
#X msg 507 170 1;
#X obj 514 226 * 1000;
#X obj 71 121 mtof;
#X floatatom 513 50 5 0 0 0 - - -, f 5;
#X obj 1238 500 block~ 1;
#X obj 640 511 /;
#X floatatom 641 540 5 0 0 0 - - -, f 5;
#X obj 679 467 t b f;
#X obj 332 473 *~;
#X obj 331 534 outlet~;
#X obj 639 444 loadbang;
#X msg 640 467 100;
#X obj 670 513 *;
#X floatatom 805 115 5 0 0 0 - - -, f 5;
#X obj 771 49 t b f;
#X obj 804 92 *;
#X obj 803 70 / 1300;
#X obj 805 132 +;
#X floatatom 806 152 5 0 0 0 - - -, f 5;
#X obj 889 279 -;
#X obj 954 264 r damper;
#X obj 920 214 log;
#X obj 889 233 *;
#X obj 870 213 t b f;
#X obj 888 258 * 16;
#X obj 775 263 clip 1000 6000;
#X obj 330 155 line;
#X obj 339 214 +;
#X obj 342 182 t b f;
#X floatatom 332 100 5 0 0 0 - - -, f 5;
#X obj 403 61 t b;
#X obj 402 101 delay 10;
#X obj 269 42 r detune;
#X obj 269 73 *;
#X obj 336 42 / 130;
#X obj 12 77 sel 0;
#X obj 40 463 / 127;
#X obj 331 507 *~;
#X obj 43 485 clip 0.3 1;
#X obj 571 140 delread~ emily5 500;
#X obj 733 360 delwrite~ emily5 500;
#X msg 331 124 \$1 10;
#X msg 399 124 0 10;
#X connect 0 0 1 0;
#X connect 1 0 3 0;
#X connect 2 0 11 0;
#X connect 3 0 19 0;
#X connect 3 0 13 0;
#X connect 3 0 14 0;
#X connect 3 0 15 0;
#X connect 3 0 74 0;
#X connect 4 0 37 0;
#X connect 4 0 64 0;
#X connect 4 0 68 0;
#X connect 4 1 5 0;
#X connect 4 1 69 0;
#X connect 5 1 12 0;
#X connect 6 0 1 1;
#X connect 7 0 4 0;
#X connect 8 0 51 1;
#X connect 11 0 3 0;
#X connect 12 0 6 0;
#X connect 13 0 17 0;
#X connect 14 0 18 0;
#X connect 15 0 16 0;
#X connect 16 0 42 0;
#X connect 17 0 42 0;
#X connect 18 0 42 0;
#X connect 19 0 20 0;
#X connect 20 0 42 0;
#X connect 21 0 16 1;
#X connect 22 0 17 1;
#X connect 23 0 20 1;
#X connect 24 0 18 1;
#X connect 25 0 19 2;
#X connect 25 0 13 2;
#X connect 25 0 14 2;
#X connect 25 0 15 2;
#X connect 26 0 27 1;
#X connect 27 0 14 1;
#X connect 28 0 13 1;
#X connect 29 0 28 1;
#X connect 30 0 19 1;
#X connect 31 0 30 1;
#X connect 32 0 34 0;
#X connect 32 1 33 1;
#X connect 33 0 35 0;
#X connect 34 0 33 0;
#X connect 35 0 73 0;
#X connect 36 0 15 1;
#X connect 36 0 27 0;
#X connect 36 0 28 0;
#X connect 36 0 30 0;
#X connect 36 0 61 0;
#X connect 37 0 41 0;
#X connect 37 0 48 0;
#X connect 37 0 57 0;
#X connect 37 0 36 0;
#X connect 39 0 46 0;
#X connect 39 0 46 1;
#X connect 40 0 42 1;
#X connect 41 0 39 0;
#X connect 41 0 46 0;
#X connect 41 1 39 1;
#X connect 42 0 71 0;
#X connect 44 0 45 0;
#X connect 45 0 39 0;
#X connect 46 0 40 0;
#X connect 47 0 51 0;
#X connect 48 0 49 0;
#X connect 48 1 50 0;
#X connect 49 0 47 0;
#X connect 50 0 49 0;
#X connect 50 0 49 1;
#X connect 51 0 52 0;
#X connect 52 0 2 1;
#X connect 53 0 59 0;
#X connect 54 0 53 1;
#X connect 55 0 56 1;
#X connect 56 0 58 0;
#X connect 57 0 56 0;
#X connect 57 1 55 0;
#X connect 57 1 56 0;
#X connect 58 0 53 0;
#X connect 59 0 11 1;
#X connect 60 0 62 0;
#X connect 61 0 32 0;
#X connect 62 0 61 0;
#X connect 62 1 61 1;
#X connect 63 0 75 0;
#X connect 64 0 63 0;
#X connect 64 0 65 0;
#X connect 65 0 76 0;
#X connect 66 0 67 0;
#X connect 67 0 63 0;
#X connect 68 0 67 1;
#X connect 69 1 70 0;
#X connect 70 0 72 0;
#X connect 71 0 43 0;
#X connect 72 0 71 1;
#X connect 73 0 2 0;
#X connect 75 0 60 0;
#X connect 76 0 60 0;
#X restore 460 313 pd stringvoice;
#N canvas 0 246 1440 590 stringvoice 0;
#X obj 1075 248 noise~;
#X obj 1075 297 *~;
#X obj 825 175 *~;
#X obj 734 304 +~;
#X obj 528 23 unpack;
#X obj 1269 157 sel 0;
#X obj 1153 278 line~;
#X obj 857 17 inlet;
#X obj 844 96 r feedbackamt;
#X obj 1456 176 r dc;
#X obj 1495 181 r su;
#X obj 704 267 lop~, f 7;
#X msg 1153 215 1 0 \, 0 20;
#X obj 409 370 bp~, f 6;
#X obj 327 371 bp~, f 6;
#X obj 240 371 bp~, f 6;
#X obj 241 420 *~;
#X obj 419 420 *~;
#X obj 330 416 *~;
#X obj 505 368 bp~, f 6;
#X obj 505 420 *~;
#X obj 263 393 r f1;
#X obj 443 393 r f3;
#X obj 530 395 r f4;
#X obj 348 394 r f2;
#X obj 521 279 r res;
#X obj 254 253 r h1;
#X obj 237 300 *;
#X obj 305 297 *;
#X obj 311 254 r h2;
#X obj 416 297 *;
#X obj 373 255 r h3;
#X obj 514 135 t b f;
#X obj 514 196 /;
#X msg 507 170 1;
#X obj 514 226 * 1000;
#X obj 71 121 mtof;
#X floatatom 513 50 5 0 0 0 - - -, f 5;
#X obj 1238 500 block~ 1;
#X obj 640 511 /;
#X floatatom 641 540 5 0 0 0 - - -, f 5;
#X obj 679 467 t b f;
#X obj 332 473 *~;
#X obj 331 534 outlet~;
#X obj 639 444 loadbang;
#X msg 640 467 100;
#X obj 670 513 *;
#X floatatom 805 115 5 0 0 0 - - -, f 5;
#X obj 771 49 t b f;
#X obj 804 92 *;
#X obj 803 70 / 1300;
#X obj 805 132 +;
#X floatatom 806 152 5 0 0 0 - - -, f 5;
#X obj 889 279 -;
#X obj 954 264 r damper;
#X obj 920 214 log;
#X obj 889 233 *;
#X obj 870 213 t b f;
#X obj 888 258 * 16;
#X obj 775 263 clip 1000 6000;
#X obj 330 155 line;
#X obj 339 214 +;
#X obj 342 182 t b f;
#X floatatom 332 100 5 0 0 0 - - -, f 5;
#X obj 403 61 t b;
#X obj 402 101 delay 10;
#X obj 269 42 r detune;
#X obj 269 73 *;
#X obj 336 42 / 130;
#X obj 10 65 sel 0;
#X obj 40 463 / 127;
#X obj 331 507 *~;
#X obj 43 485 clip 0.3 1;
#X obj 571 140 delread~ emily6 500;
#X obj 733 360 delwrite~ emily6 500;
#X msg 331 124 \$1 10;
#X msg 399 124 0 10;
#X connect 0 0 1 0;
#X connect 1 0 3 0;
#X connect 2 0 11 0;
#X connect 3 0 19 0;
#X connect 3 0 13 0;
#X connect 3 0 14 0;
#X connect 3 0 15 0;
#X connect 3 0 74 0;
#X connect 4 0 37 0;
#X connect 4 0 64 0;
#X connect 4 0 68 0;
#X connect 4 1 5 0;
#X connect 4 1 69 0;
#X connect 5 1 12 0;
#X connect 6 0 1 1;
#X connect 7 0 4 0;
#X connect 8 0 51 1;
#X connect 11 0 3 0;
#X connect 12 0 6 0;
#X connect 13 0 17 0;
#X connect 14 0 18 0;
#X connect 15 0 16 0;
#X connect 16 0 42 0;
#X connect 17 0 42 0;
#X connect 18 0 42 0;
#X connect 19 0 20 0;
#X connect 20 0 42 0;
#X connect 21 0 16 1;
#X connect 22 0 17 1;
#X connect 23 0 20 1;
#X connect 24 0 18 1;
#X connect 25 0 19 2;
#X connect 25 0 13 2;
#X connect 25 0 14 2;
#X connect 25 0 15 2;
#X connect 26 0 27 1;
#X connect 27 0 14 1;
#X connect 28 0 13 1;
#X connect 29 0 28 1;
#X connect 30 0 19 1;
#X connect 31 0 30 1;
#X connect 32 0 34 0;
#X connect 32 1 33 1;
#X connect 33 0 35 0;
#X connect 34 0 33 0;
#X connect 35 0 73 0;
#X connect 36 0 15 1;
#X connect 36 0 27 0;
#X connect 36 0 28 0;
#X connect 36 0 30 0;
#X connect 36 0 61 0;
#X connect 37 0 41 0;
#X connect 37 0 48 0;
#X connect 37 0 57 0;
#X connect 37 0 36 0;
#X connect 39 0 46 0;
#X connect 39 0 46 1;
#X connect 40 0 42 1;
#X connect 41 0 39 0;
#X connect 41 0 46 0;
#X connect 41 1 39 1;
#X connect 42 0 71 0;
#X connect 44 0 45 0;
#X connect 45 0 39 0;
#X connect 46 0 40 0;
#X connect 47 0 51 0;
#X connect 48 0 49 0;
#X connect 48 1 50 0;
#X connect 49 0 47 0;
#X connect 50 0 49 0;
#X connect 50 0 49 1;
#X connect 51 0 52 0;
#X connect 52 0 2 1;
#X connect 53 0 59 0;
#X connect 54 0 53 1;
#X connect 55 0 56 1;
#X connect 56 0 58 0;
#X connect 57 0 56 0;
#X connect 57 1 55 0;
#X connect 57 1 56 0;
#X connect 58 0 53 0;
#X connect 59 0 11 1;
#X connect 60 0 62 0;
#X connect 61 0 32 0;
#X connect 62 0 61 0;
#X connect 62 1 61 1;
#X connect 63 0 75 0;
#X connect 64 0 63 0;
#X connect 64 0 65 0;
#X connect 65 0 76 0;
#X connect 66 0 67 0;
#X connect 67 0 63 0;
#X connect 68 0 67 1;
#X connect 69 1 70 0;
#X connect 70 0 72 0;
#X connect 71 0 43 0;
#X connect 72 0 71 1;
#X connect 73 0 2 0;
#X connect 75 0 60 0;
#X connect 76 0 60 0;
#X restore 569 314 pd stringvoice;
#N canvas 0 246 1440 590 stringvoice 0;
#X obj 1075 248 noise~;
#X obj 1075 297 *~;
#X obj 825 175 *~;
#X obj 734 304 +~;
#X obj 528 23 unpack;
#X obj 1269 157 sel 0;
#X obj 1153 278 line~;
#X obj 857 17 inlet;
#X obj 844 96 r feedbackamt;
#X obj 1456 176 r dc;
#X obj 1495 181 r su;
#X obj 704 267 lop~, f 7;
#X msg 1153 215 1 0 \, 0 20;
#X obj 409 370 bp~, f 6;
#X obj 327 371 bp~, f 6;
#X obj 240 371 bp~, f 6;
#X obj 241 420 *~;
#X obj 419 420 *~;
#X obj 330 416 *~;
#X obj 505 368 bp~, f 6;
#X obj 505 420 *~;
#X obj 263 393 r f1;
#X obj 443 393 r f3;
#X obj 530 395 r f4;
#X obj 348 394 r f2;
#X obj 521 279 r res;
#X obj 254 253 r h1;
#X obj 237 300 *;
#X obj 305 297 *;
#X obj 311 254 r h2;
#X obj 416 297 *;
#X obj 373 255 r h3;
#X obj 514 135 t b f;
#X obj 514 196 /;
#X msg 507 170 1;
#X obj 514 226 * 1000;
#X obj 71 121 mtof;
#X floatatom 513 50 5 0 0 0 - - -, f 5;
#X obj 1238 500 block~ 1;
#X obj 640 511 /;
#X floatatom 641 540 5 0 0 0 - - -, f 5;
#X obj 679 467 t b f;
#X obj 332 473 *~;
#X obj 331 534 outlet~;
#X obj 639 444 loadbang;
#X msg 640 467 100;
#X obj 670 513 *;
#X floatatom 805 115 5 0 0 0 - - -, f 5;
#X obj 771 49 t b f;
#X obj 804 92 *;
#X obj 803 70 / 1300;
#X obj 805 132 +;
#X floatatom 806 152 5 0 0 0 - - -, f 5;
#X obj 889 279 -;
#X obj 954 264 r damper;
#X obj 920 214 log;
#X obj 889 233 *;
#X obj 870 213 t b f;
#X obj 888 258 * 16;
#X obj 775 263 clip 1000 6000;
#X obj 330 155 line;
#X obj 339 214 +;
#X obj 342 182 t b f;
#X floatatom 332 100 5 0 0 0 - - -, f 5;
#X obj 403 61 t b;
#X obj 402 101 delay 10;
#X obj 269 42 r detune;
#X obj 269 73 *;
#X obj 336 42 / 130;
#X obj 16 93 sel 0;
#X obj 40 463 / 127;
#X obj 331 507 *~;
#X obj 43 485 clip 0.3 1;
#X obj 571 140 delread~ emily7 500;
#X obj 733 360 delwrite~ emily7 500;
#X msg 331 124 \$1 10;
#X msg 399 124 0 10;
#X connect 0 0 1 0;
#X connect 1 0 3 0;
#X connect 2 0 11 0;
#X connect 3 0 19 0;
#X connect 3 0 13 0;
#X connect 3 0 14 0;
#X connect 3 0 15 0;
#X connect 3 0 74 0;
#X connect 4 0 37 0;
#X connect 4 0 64 0;
#X connect 4 0 68 0;
#X connect 4 1 5 0;
#X connect 4 1 69 0;
#X connect 5 1 12 0;
#X connect 6 0 1 1;
#X connect 7 0 4 0;
#X connect 8 0 51 1;
#X connect 11 0 3 0;
#X connect 12 0 6 0;
#X connect 13 0 17 0;
#X connect 14 0 18 0;
#X connect 15 0 16 0;
#X connect 16 0 42 0;
#X connect 17 0 42 0;
#X connect 18 0 42 0;
#X connect 19 0 20 0;
#X connect 20 0 42 0;
#X connect 21 0 16 1;
#X connect 22 0 17 1;
#X connect 23 0 20 1;
#X connect 24 0 18 1;
#X connect 25 0 19 2;
#X connect 25 0 13 2;
#X connect 25 0 14 2;
#X connect 25 0 15 2;
#X connect 26 0 27 1;
#X connect 27 0 14 1;
#X connect 28 0 13 1;
#X connect 29 0 28 1;
#X connect 30 0 19 1;
#X connect 31 0 30 1;
#X connect 32 0 34 0;
#X connect 32 1 33 1;
#X connect 33 0 35 0;
#X connect 34 0 33 0;
#X connect 35 0 73 0;
#X connect 36 0 15 1;
#X connect 36 0 27 0;
#X connect 36 0 28 0;
#X connect 36 0 30 0;
#X connect 36 0 61 0;
#X connect 37 0 41 0;
#X connect 37 0 48 0;
#X connect 37 0 57 0;
#X connect 37 0 36 0;
#X connect 39 0 46 0;
#X connect 39 0 46 1;
#X connect 40 0 42 1;
#X connect 41 0 39 0;
#X connect 41 0 46 0;
#X connect 41 1 39 1;
#X connect 42 0 71 0;
#X connect 44 0 45 0;
#X connect 45 0 39 0;
#X connect 46 0 40 0;
#X connect 47 0 51 0;
#X connect 48 0 49 0;
#X connect 48 1 50 0;
#X connect 49 0 47 0;
#X connect 50 0 49 0;
#X connect 50 0 49 1;
#X connect 51 0 52 0;
#X connect 52 0 2 1;
#X connect 53 0 59 0;
#X connect 54 0 53 1;
#X connect 55 0 56 1;
#X connect 56 0 58 0;
#X connect 57 0 56 0;
#X connect 57 1 55 0;
#X connect 57 1 56 0;
#X connect 58 0 53 0;
#X connect 59 0 11 1;
#X connect 60 0 62 0;
#X connect 61 0 32 0;
#X connect 62 0 61 0;
#X connect 62 1 61 1;
#X connect 63 0 75 0;
#X connect 64 0 63 0;
#X connect 64 0 65 0;
#X connect 65 0 76 0;
#X connect 66 0 67 0;
#X connect 67 0 63 0;
#X connect 68 0 67 1;
#X connect 69 1 70 0;
#X connect 70 0 72 0;
#X connect 71 0 43 0;
#X connect 72 0 71 1;
#X connect 73 0 2 0;
#X connect 75 0 60 0;
#X connect 76 0 60 0;
#X restore 676 314 pd stringvoice;
#N canvas 0 246 1440 590 stringvoice 0;
#X obj 1075 248 noise~;
#X obj 1075 297 *~;
#X obj 825 175 *~;
#X obj 734 304 +~;
#X obj 528 23 unpack;
#X obj 1269 157 sel 0;
#X obj 1153 278 line~;
#X obj 857 17 inlet;
#X obj 844 96 r feedbackamt;
#X obj 1456 176 r dc;
#X obj 1495 181 r su;
#X obj 704 267 lop~, f 7;
#X msg 1153 215 1 0 \, 0 20;
#X obj 409 370 bp~, f 6;
#X obj 327 371 bp~, f 6;
#X obj 240 371 bp~, f 6;
#X obj 241 420 *~;
#X obj 419 420 *~;
#X obj 330 416 *~;
#X obj 505 368 bp~, f 6;
#X obj 505 420 *~;
#X obj 263 393 r f1;
#X obj 443 393 r f3;
#X obj 530 395 r f4;
#X obj 348 394 r f2;
#X obj 521 279 r res;
#X obj 254 253 r h1;
#X obj 237 300 *;
#X obj 305 297 *;
#X obj 311 254 r h2;
#X obj 416 297 *;
#X obj 373 255 r h3;
#X obj 514 135 t b f;
#X obj 514 196 /;
#X msg 507 170 1;
#X obj 514 226 * 1000;
#X obj 71 121 mtof;
#X floatatom 513 50 5 0 0 0 - - -, f 5;
#X obj 1238 500 block~ 1;
#X obj 640 511 /;
#X floatatom 641 540 5 0 0 0 - - -, f 5;
#X obj 679 467 t b f;
#X obj 332 473 *~;
#X obj 331 534 outlet~;
#X obj 639 444 loadbang;
#X msg 640 467 100;
#X obj 670 513 *;
#X floatatom 805 115 5 0 0 0 - - -, f 5;
#X obj 771 49 t b f;
#X obj 804 92 *;
#X obj 803 70 / 1300;
#X obj 805 132 +;
#X floatatom 806 152 5 0 0 0 - - -, f 5;
#X obj 889 279 -;
#X obj 954 264 r damper;
#X obj 920 214 log;
#X obj 889 233 *;
#X obj 870 213 t b f;
#X obj 888 258 * 16;
#X obj 775 263 clip 1000 6000;
#X obj 330 155 line;
#X obj 339 214 +;
#X obj 342 182 t b f;
#X floatatom 332 100 5 0 0 0 - - -, f 5;
#X obj 403 61 t b;
#X obj 402 101 delay 10;
#X obj 269 42 r detune;
#X obj 269 73 *;
#X obj 336 42 / 130;
#X obj 13 93 sel 0;
#X obj 40 463 / 127;
#X obj 331 507 *~;
#X obj 43 485 clip 0.3 1;
#X obj 571 140 delread~ emily8 500;
#X obj 733 360 delwrite~ emily8 500;
#X msg 331 124 \$1 10;
#X msg 399 124 0 10;
#X connect 0 0 1 0;
#X connect 1 0 3 0;
#X connect 2 0 11 0;
#X connect 3 0 19 0;
#X connect 3 0 13 0;
#X connect 3 0 14 0;
#X connect 3 0 15 0;
#X connect 3 0 74 0;
#X connect 4 0 37 0;
#X connect 4 0 64 0;
#X connect 4 0 68 0;
#X connect 4 1 5 0;
#X connect 4 1 69 0;
#X connect 5 1 12 0;
#X connect 6 0 1 1;
#X connect 7 0 4 0;
#X connect 8 0 51 1;
#X connect 11 0 3 0;
#X connect 12 0 6 0;
#X connect 13 0 17 0;
#X connect 14 0 18 0;
#X connect 15 0 16 0;
#X connect 16 0 42 0;
#X connect 17 0 42 0;
#X connect 18 0 42 0;
#X connect 19 0 20 0;
#X connect 20 0 42 0;
#X connect 21 0 16 1;
#X connect 22 0 17 1;
#X connect 23 0 20 1;
#X connect 24 0 18 1;
#X connect 25 0 19 2;
#X connect 25 0 13 2;
#X connect 25 0 14 2;
#X connect 25 0 15 2;
#X connect 26 0 27 1;
#X connect 27 0 14 1;
#X connect 28 0 13 1;
#X connect 29 0 28 1;
#X connect 30 0 19 1;
#X connect 31 0 30 1;
#X connect 32 0 34 0;
#X connect 32 1 33 1;
#X connect 33 0 35 0;
#X connect 34 0 33 0;
#X connect 35 0 73 0;
#X connect 36 0 15 1;
#X connect 36 0 27 0;
#X connect 36 0 28 0;
#X connect 36 0 30 0;
#X connect 36 0 61 0;
#X connect 37 0 41 0;
#X connect 37 0 48 0;
#X connect 37 0 57 0;
#X connect 37 0 36 0;
#X connect 39 0 46 0;
#X connect 39 0 46 1;
#X connect 40 0 42 1;
#X connect 41 0 39 0;
#X connect 41 0 46 0;
#X connect 41 1 39 1;
#X connect 42 0 71 0;
#X connect 44 0 45 0;
#X connect 45 0 39 0;
#X connect 46 0 40 0;
#X connect 47 0 51 0;
#X connect 48 0 49 0;
#X connect 48 1 50 0;
#X connect 49 0 47 0;
#X connect 50 0 49 0;
#X connect 50 0 49 1;
#X connect 51 0 52 0;
#X connect 52 0 2 1;
#X connect 53 0 59 0;
#X connect 54 0 53 1;
#X connect 55 0 56 1;
#X connect 56 0 58 0;
#X connect 57 0 56 0;
#X connect 57 1 55 0;
#X connect 57 1 56 0;
#X connect 58 0 53 0;
#X connect 59 0 11 1;
#X connect 60 0 62 0;
#X connect 61 0 32 0;
#X connect 62 0 61 0;
#X connect 62 1 61 1;
#X connect 63 0 75 0;
#X connect 64 0 63 0;
#X connect 64 0 65 0;
#X connect 65 0 76 0;
#X connect 66 0 67 0;
#X connect 67 0 63 0;
#X connect 68 0 67 1;
#X connect 69 1 70 0;
#X connect 70 0 72 0;
#X connect 71 0 43 0;
#X connect 72 0 71 1;
#X connect 73 0 2 0;
#X connect 75 0 60 0;
#X connect 76 0 60 0;
#X restore 785 315 pd stringvoice;
#N canvas 0 246 1440 590 stringvoice 0;
#X obj 1075 248 noise~;
#X obj 1075 297 *~;
#X obj 825 175 *~;
#X obj 734 304 +~;
#X obj 528 23 unpack;
#X obj 1269 157 sel 0;
#X obj 1153 278 line~;
#X obj 857 17 inlet;
#X obj 844 96 r feedbackamt;
#X obj 1456 176 r dc;
#X obj 1495 181 r su;
#X obj 704 267 lop~, f 7;
#X msg 1153 215 1 0 \, 0 20;
#X obj 409 370 bp~, f 6;
#X obj 327 371 bp~, f 6;
#X obj 240 371 bp~, f 6;
#X obj 241 420 *~;
#X obj 419 420 *~;
#X obj 330 416 *~;
#X obj 505 368 bp~, f 6;
#X obj 505 420 *~;
#X obj 263 393 r f1;
#X obj 443 393 r f3;
#X obj 530 395 r f4;
#X obj 348 394 r f2;
#X obj 521 279 r res;
#X obj 254 253 r h1;
#X obj 237 300 *;
#X obj 305 297 *;
#X obj 311 254 r h2;
#X obj 416 297 *;
#X obj 373 255 r h3;
#X obj 514 135 t b f;
#X obj 514 196 /;
#X msg 507 170 1;
#X obj 514 226 * 1000;
#X obj 71 121 mtof;
#X floatatom 513 50 5 0 0 0 - - -, f 5;
#X obj 1238 500 block~ 1;
#X obj 640 511 /;
#X floatatom 641 540 5 0 0 0 - - -, f 5;
#X obj 679 467 t b f;
#X obj 332 473 *~;
#X obj 331 534 outlet~;
#X obj 639 444 loadbang;
#X msg 640 467 100;
#X obj 670 513 *;
#X floatatom 805 115 5 0 0 0 - - -, f 5;
#X obj 771 49 t b f;
#X obj 804 92 *;
#X obj 803 70 / 1300;
#X obj 805 132 +;
#X floatatom 806 152 5 0 0 0 - - -, f 5;
#X obj 889 279 -;
#X obj 954 264 r damper;
#X obj 920 214 log;
#X obj 889 233 *;
#X obj 870 213 t b f;
#X obj 888 258 * 16;
#X obj 775 263 clip 1000 6000;
#X obj 330 155 line;
#X obj 339 214 +;
#X obj 342 182 t b f;
#X floatatom 332 100 5 0 0 0 - - -, f 5;
#X obj 403 61 t b;
#X obj 402 101 delay 10;
#X obj 269 42 r detune;
#X obj 269 73 *;
#X obj 336 42 / 130;
#X obj 9 77 sel 0;
#X obj 40 463 / 127;
#X obj 331 507 *~;
#X obj 43 485 clip 0.3 1;
#X obj 571 140 delread~ emily9 500;
#X obj 733 360 delwrite~ emily9 500;
#X msg 331 124 \$1 10;
#X msg 399 124 0 10;
#X connect 0 0 1 0;
#X connect 1 0 3 0;
#X connect 2 0 11 0;
#X connect 3 0 19 0;
#X connect 3 0 13 0;
#X connect 3 0 14 0;
#X connect 3 0 15 0;
#X connect 3 0 74 0;
#X connect 4 0 37 0;
#X connect 4 0 64 0;
#X connect 4 0 68 0;
#X connect 4 1 5 0;
#X connect 4 1 69 0;
#X connect 5 1 12 0;
#X connect 6 0 1 1;
#X connect 7 0 4 0;
#X connect 8 0 51 1;
#X connect 11 0 3 0;
#X connect 12 0 6 0;
#X connect 13 0 17 0;
#X connect 14 0 18 0;
#X connect 15 0 16 0;
#X connect 16 0 42 0;
#X connect 17 0 42 0;
#X connect 18 0 42 0;
#X connect 19 0 20 0;
#X connect 20 0 42 0;
#X connect 21 0 16 1;
#X connect 22 0 17 1;
#X connect 23 0 20 1;
#X connect 24 0 18 1;
#X connect 25 0 19 2;
#X connect 25 0 13 2;
#X connect 25 0 14 2;
#X connect 25 0 15 2;
#X connect 26 0 27 1;
#X connect 27 0 14 1;
#X connect 28 0 13 1;
#X connect 29 0 28 1;
#X connect 30 0 19 1;
#X connect 31 0 30 1;
#X connect 32 0 34 0;
#X connect 32 1 33 1;
#X connect 33 0 35 0;
#X connect 34 0 33 0;
#X connect 35 0 73 0;
#X connect 36 0 15 1;
#X connect 36 0 27 0;
#X connect 36 0 28 0;
#X connect 36 0 30 0;
#X connect 36 0 61 0;
#X connect 37 0 41 0;
#X connect 37 0 48 0;
#X connect 37 0 57 0;
#X connect 37 0 36 0;
#X connect 39 0 46 0;
#X connect 39 0 46 1;
#X connect 40 0 42 1;
#X connect 41 0 39 0;
#X connect 41 0 46 0;
#X connect 41 1 39 1;
#X connect 42 0 71 0;
#X connect 44 0 45 0;
#X connect 45 0 39 0;
#X connect 46 0 40 0;
#X connect 47 0 51 0;
#X connect 48 0 49 0;
#X connect 48 1 50 0;
#X connect 49 0 47 0;
#X connect 50 0 49 0;
#X connect 50 0 49 1;
#X connect 51 0 52 0;
#X connect 52 0 2 1;
#X connect 53 0 59 0;
#X connect 54 0 53 1;
#X connect 55 0 56 1;
#X connect 56 0 58 0;
#X connect 57 0 56 0;
#X connect 57 1 55 0;
#X connect 57 1 56 0;
#X connect 58 0 53 0;
#X connect 59 0 11 1;
#X connect 60 0 62 0;
#X connect 61 0 32 0;
#X connect 62 0 61 0;
#X connect 62 1 61 1;
#X connect 63 0 75 0;
#X connect 64 0 63 0;
#X connect 64 0 65 0;
#X connect 65 0 76 0;
#X connect 66 0 67 0;
#X connect 67 0 63 0;
#X connect 68 0 67 1;
#X connect 69 1 70 0;
#X connect 70 0 72 0;
#X connect 71 0 43 0;
#X connect 72 0 71 1;
#X connect 73 0 2 0;
#X connect 75 0 60 0;
#X connect 76 0 60 0;
#X restore 30 354 pd stringvoice;
#N canvas 0 246 1440 590 stringvoice 0;
#X obj 1075 248 noise~;
#X obj 1075 297 *~;
#X obj 825 175 *~;
#X obj 734 304 +~;
#X obj 528 23 unpack;
#X obj 1269 157 sel 0;
#X obj 1153 278 line~;
#X obj 857 17 inlet;
#X obj 844 96 r feedbackamt;
#X obj 1456 176 r dc;
#X obj 1495 181 r su;
#X obj 704 267 lop~, f 7;
#X msg 1153 215 1 0 \, 0 20;
#X obj 409 370 bp~, f 6;
#X obj 327 371 bp~, f 6;
#X obj 240 371 bp~, f 6;
#X obj 241 420 *~;
#X obj 419 420 *~;
#X obj 330 416 *~;
#X obj 505 368 bp~, f 6;
#X obj 505 420 *~;
#X obj 263 393 r f1;
#X obj 443 393 r f3;
#X obj 530 395 r f4;
#X obj 348 394 r f2;
#X obj 521 279 r res;
#X obj 254 253 r h1;
#X obj 237 300 *;
#X obj 305 297 *;
#X obj 311 254 r h2;
#X obj 416 297 *;
#X obj 373 255 r h3;
#X obj 514 135 t b f;
#X obj 514 196 /;
#X msg 507 170 1;
#X obj 514 226 * 1000;
#X obj 71 121 mtof;
#X floatatom 513 50 5 0 0 0 - - -, f 5;
#X obj 1238 500 block~ 1;
#X obj 640 511 /;
#X floatatom 641 540 5 0 0 0 - - -, f 5;
#X obj 679 467 t b f;
#X obj 332 473 *~;
#X obj 331 534 outlet~;
#X obj 639 444 loadbang;
#X msg 640 467 100;
#X obj 670 513 *;
#X floatatom 805 115 5 0 0 0 - - -, f 5;
#X obj 771 49 t b f;
#X obj 804 92 *;
#X obj 803 70 / 1300;
#X obj 805 132 +;
#X floatatom 806 152 5 0 0 0 - - -, f 5;
#X obj 889 279 -;
#X obj 954 264 r damper;
#X obj 920 214 log;
#X obj 889 233 *;
#X obj 870 213 t b f;
#X obj 888 258 * 16;
#X obj 775 263 clip 1000 6000;
#X obj 330 155 line;
#X obj 339 214 +;
#X obj 342 182 t b f;
#X floatatom 332 100 5 0 0 0 - - -, f 5;
#X obj 403 61 t b;
#X obj 402 101 delay 10;
#X obj 269 42 r detune;
#X obj 269 73 *;
#X obj 336 42 / 130;
#X obj 10 68 sel 0;
#X obj 40 463 / 127;
#X obj 331 507 *~;
#X obj 43 485 clip 0.3 1;
#X obj 571 140 delread~ emily10 500;
#X obj 733 360 delwrite~ emily10 500;
#X msg 331 124 \$1 10;
#X msg 399 124 0 10;
#X connect 0 0 1 0;
#X connect 1 0 3 0;
#X connect 2 0 11 0;
#X connect 3 0 19 0;
#X connect 3 0 13 0;
#X connect 3 0 14 0;
#X connect 3 0 15 0;
#X connect 3 0 74 0;
#X connect 4 0 37 0;
#X connect 4 0 64 0;
#X connect 4 0 68 0;
#X connect 4 1 5 0;
#X connect 4 1 69 0;
#X connect 5 1 12 0;
#X connect 6 0 1 1;
#X connect 7 0 4 0;
#X connect 8 0 51 1;
#X connect 11 0 3 0;
#X connect 12 0 6 0;
#X connect 13 0 17 0;
#X connect 14 0 18 0;
#X connect 15 0 16 0;
#X connect 16 0 42 0;
#X connect 17 0 42 0;
#X connect 18 0 42 0;
#X connect 19 0 20 0;
#X connect 20 0 42 0;
#X connect 21 0 16 1;
#X connect 22 0 17 1;
#X connect 23 0 20 1;
#X connect 24 0 18 1;
#X connect 25 0 19 2;
#X connect 25 0 13 2;
#X connect 25 0 14 2;
#X connect 25 0 15 2;
#X connect 26 0 27 1;
#X connect 27 0 14 1;
#X connect 28 0 13 1;
#X connect 29 0 28 1;
#X connect 30 0 19 1;
#X connect 31 0 30 1;
#X connect 32 0 34 0;
#X connect 32 1 33 1;
#X connect 33 0 35 0;
#X connect 34 0 33 0;
#X connect 35 0 73 0;
#X connect 36 0 15 1;
#X connect 36 0 27 0;
#X connect 36 0 28 0;
#X connect 36 0 30 0;
#X connect 36 0 61 0;
#X connect 37 0 41 0;
#X connect 37 0 48 0;
#X connect 37 0 57 0;
#X connect 37 0 36 0;
#X connect 39 0 46 0;
#X connect 39 0 46 1;
#X connect 40 0 42 1;
#X connect 41 0 39 0;
#X connect 41 0 46 0;
#X connect 41 1 39 1;
#X connect 42 0 71 0;
#X connect 44 0 45 0;
#X connect 45 0 39 0;
#X connect 46 0 40 0;
#X connect 47 0 51 0;
#X connect 48 0 49 0;
#X connect 48 1 50 0;
#X connect 49 0 47 0;
#X connect 50 0 49 0;
#X connect 50 0 49 1;
#X connect 51 0 52 0;
#X connect 52 0 2 1;
#X connect 53 0 59 0;
#X connect 54 0 53 1;
#X connect 55 0 56 1;
#X connect 56 0 58 0;
#X connect 57 0 56 0;
#X connect 57 1 55 0;
#X connect 57 1 56 0;
#X connect 58 0 53 0;
#X connect 59 0 11 1;
#X connect 60 0 62 0;
#X connect 61 0 32 0;
#X connect 62 0 61 0;
#X connect 62 1 61 1;
#X connect 63 0 75 0;
#X connect 64 0 63 0;
#X connect 64 0 65 0;
#X connect 65 0 76 0;
#X connect 66 0 67 0;
#X connect 67 0 63 0;
#X connect 68 0 67 1;
#X connect 69 1 70 0;
#X connect 70 0 72 0;
#X connect 71 0 43 0;
#X connect 72 0 71 1;
#X connect 73 0 2 0;
#X connect 75 0 60 0;
#X connect 76 0 60 0;
#X restore 139 355 pd stringvoice;
#N canvas 0 246 1440 590 stringvoice 0;
#X obj 1075 248 noise~;
#X obj 1075 297 *~;
#X obj 825 175 *~;
#X obj 734 304 +~;
#X obj 528 23 unpack;
#X obj 1269 157 sel 0;
#X obj 1153 278 line~;
#X obj 857 17 inlet;
#X obj 844 96 r feedbackamt;
#X obj 1456 176 r dc;
#X obj 1495 181 r su;
#X obj 704 267 lop~, f 7;
#X msg 1153 215 1 0 \, 0 20;
#X obj 409 370 bp~, f 6;
#X obj 327 371 bp~, f 6;
#X obj 240 371 bp~, f 6;
#X obj 241 420 *~;
#X obj 419 420 *~;
#X obj 330 416 *~;
#X obj 505 368 bp~, f 6;
#X obj 505 420 *~;
#X obj 263 393 r f1;
#X obj 443 393 r f3;
#X obj 530 395 r f4;
#X obj 348 394 r f2;
#X obj 521 279 r res;
#X obj 254 253 r h1;
#X obj 237 300 *;
#X obj 305 297 *;
#X obj 311 254 r h2;
#X obj 416 297 *;
#X obj 373 255 r h3;
#X obj 514 135 t b f;
#X obj 514 196 /;
#X msg 507 170 1;
#X obj 514 226 * 1000;
#X obj 71 121 mtof;
#X floatatom 513 50 5 0 0 0 - - -, f 5;
#X obj 1238 500 block~ 1;
#X obj 640 511 /;
#X floatatom 641 540 5 0 0 0 - - -, f 5;
#X obj 679 467 t b f;
#X obj 332 473 *~;
#X obj 331 534 outlet~;
#X obj 639 444 loadbang;
#X msg 640 467 100;
#X obj 670 513 *;
#X floatatom 805 115 5 0 0 0 - - -, f 5;
#X obj 771 49 t b f;
#X obj 804 92 *;
#X obj 803 70 / 1300;
#X obj 805 132 +;
#X floatatom 806 152 5 0 0 0 - - -, f 5;
#X obj 889 279 -;
#X obj 954 264 r damper;
#X obj 920 214 log;
#X obj 889 233 *;
#X obj 870 213 t b f;
#X obj 888 258 * 16;
#X obj 775 263 clip 1000 6000;
#X obj 330 155 line;
#X obj 339 214 +;
#X obj 342 182 t b f;
#X floatatom 332 100 5 0 0 0 - - -, f 5;
#X obj 403 61 t b;
#X obj 402 101 delay 10;
#X obj 269 42 r detune;
#X obj 269 73 *;
#X obj 336 42 / 130;
#X obj 11 74 sel 0;
#X obj 40 463 / 127;
#X obj 331 507 *~;
#X obj 43 485 clip 0.3 1;
#X obj 571 140 delread~ emily11 500;
#X obj 733 360 delwrite~ emily11 500;
#X msg 331 124 \$1 10;
#X msg 399 124 0 10;
#X connect 0 0 1 0;
#X connect 1 0 3 0;
#X connect 2 0 11 0;
#X connect 3 0 19 0;
#X connect 3 0 13 0;
#X connect 3 0 14 0;
#X connect 3 0 15 0;
#X connect 3 0 74 0;
#X connect 4 0 37 0;
#X connect 4 0 64 0;
#X connect 4 0 68 0;
#X connect 4 1 5 0;
#X connect 4 1 69 0;
#X connect 5 1 12 0;
#X connect 6 0 1 1;
#X connect 7 0 4 0;
#X connect 8 0 51 1;
#X connect 11 0 3 0;
#X connect 12 0 6 0;
#X connect 13 0 17 0;
#X connect 14 0 18 0;
#X connect 15 0 16 0;
#X connect 16 0 42 0;
#X connect 17 0 42 0;
#X connect 18 0 42 0;
#X connect 19 0 20 0;
#X connect 20 0 42 0;
#X connect 21 0 16 1;
#X connect 22 0 17 1;
#X connect 23 0 20 1;
#X connect 24 0 18 1;
#X connect 25 0 19 2;
#X connect 25 0 13 2;
#X connect 25 0 14 2;
#X connect 25 0 15 2;
#X connect 26 0 27 1;
#X connect 27 0 14 1;
#X connect 28 0 13 1;
#X connect 29 0 28 1;
#X connect 30 0 19 1;
#X connect 31 0 30 1;
#X connect 32 0 34 0;
#X connect 32 1 33 1;
#X connect 33 0 35 0;
#X connect 34 0 33 0;
#X connect 35 0 73 0;
#X connect 36 0 15 1;
#X connect 36 0 27 0;
#X connect 36 0 28 0;
#X connect 36 0 30 0;
#X connect 36 0 61 0;
#X connect 37 0 41 0;
#X connect 37 0 48 0;
#X connect 37 0 57 0;
#X connect 37 0 36 0;
#X connect 39 0 46 0;
#X connect 39 0 46 1;
#X connect 40 0 42 1;
#X connect 41 0 39 0;
#X connect 41 0 46 0;
#X connect 41 1 39 1;
#X connect 42 0 71 0;
#X connect 44 0 45 0;
#X connect 45 0 39 0;
#X connect 46 0 40 0;
#X connect 47 0 51 0;
#X connect 48 0 49 0;
#X connect 48 1 50 0;
#X connect 49 0 47 0;
#X connect 50 0 49 0;
#X connect 50 0 49 1;
#X connect 51 0 52 0;
#X connect 52 0 2 1;
#X connect 53 0 59 0;
#X connect 54 0 53 1;
#X connect 55 0 56 1;
#X connect 56 0 58 0;
#X connect 57 0 56 0;
#X connect 57 1 55 0;
#X connect 57 1 56 0;
#X connect 58 0 53 0;
#X connect 59 0 11 1;
#X connect 60 0 62 0;
#X connect 61 0 32 0;
#X connect 62 0 61 0;
#X connect 62 1 61 1;
#X connect 63 0 75 0;
#X connect 64 0 63 0;
#X connect 64 0 65 0;
#X connect 65 0 76 0;
#X connect 66 0 67 0;
#X connect 67 0 63 0;
#X connect 68 0 67 1;
#X connect 69 1 70 0;
#X connect 70 0 72 0;
#X connect 71 0 43 0;
#X connect 72 0 71 1;
#X connect 73 0 2 0;
#X connect 75 0 60 0;
#X connect 76 0 60 0;
#X restore 246 355 pd stringvoice;
#N canvas 0 246 1440 590 stringvoice 0;
#X obj 1075 248 noise~;
#X obj 1075 297 *~;
#X obj 825 175 *~;
#X obj 734 304 +~;
#X obj 528 23 unpack;
#X obj 1269 157 sel 0;
#X obj 1153 278 line~;
#X obj 857 17 inlet;
#X obj 844 96 r feedbackamt;
#X obj 1456 176 r dc;
#X obj 1495 181 r su;
#X obj 704 267 lop~, f 7;
#X msg 1153 215 1 0 \, 0 20;
#X obj 409 370 bp~, f 6;
#X obj 327 371 bp~, f 6;
#X obj 240 371 bp~, f 6;
#X obj 241 420 *~;
#X obj 419 420 *~;
#X obj 330 416 *~;
#X obj 505 368 bp~, f 6;
#X obj 505 420 *~;
#X obj 263 393 r f1;
#X obj 443 393 r f3;
#X obj 530 395 r f4;
#X obj 348 394 r f2;
#X obj 521 279 r res;
#X obj 254 253 r h1;
#X obj 237 300 *;
#X obj 305 297 *;
#X obj 311 254 r h2;
#X obj 416 297 *;
#X obj 373 255 r h3;
#X obj 514 135 t b f;
#X obj 514 196 /;
#X msg 507 170 1;
#X obj 514 226 * 1000;
#X obj 71 121 mtof;
#X floatatom 513 50 5 0 0 0 - - -, f 5;
#X obj 1238 500 block~ 1;
#X obj 640 511 /;
#X floatatom 641 540 5 0 0 0 - - -, f 5;
#X obj 679 467 t b f;
#X obj 332 473 *~;
#X obj 331 534 outlet~;
#X obj 639 444 loadbang;
#X msg 640 467 100;
#X obj 670 513 *;
#X floatatom 805 115 5 0 0 0 - - -, f 5;
#X obj 771 49 t b f;
#X obj 804 92 *;
#X obj 803 70 / 1300;
#X obj 805 132 +;
#X floatatom 806 152 5 0 0 0 - - -, f 5;
#X obj 889 279 -;
#X obj 954 264 r damper;
#X obj 920 214 log;
#X obj 889 233 *;
#X obj 870 213 t b f;
#X obj 888 258 * 16;
#X obj 775 263 clip 1000 6000;
#X obj 330 155 line;
#X obj 339 214 +;
#X obj 342 182 t b f;
#X floatatom 332 100 5 0 0 0 - - -, f 5;
#X obj 403 61 t b;
#X obj 402 101 delay 10;
#X obj 269 42 r detune;
#X obj 269 73 *;
#X obj 336 42 / 130;
#X obj 12 42 sel 0;
#X obj 40 463 / 127;
#X obj 331 507 *~;
#X obj 43 485 clip 0.3 1;
#X obj 571 140 delread~ emily12 500;
#X obj 733 360 delwrite~ emily12 500;
#X msg 331 124 \$1 10;
#X msg 399 124 0 10;
#X connect 0 0 1 0;
#X connect 1 0 3 0;
#X connect 2 0 11 0;
#X connect 3 0 19 0;
#X connect 3 0 13 0;
#X connect 3 0 14 0;
#X connect 3 0 15 0;
#X connect 3 0 74 0;
#X connect 4 0 37 0;
#X connect 4 0 64 0;
#X connect 4 0 68 0;
#X connect 4 1 5 0;
#X connect 4 1 69 0;
#X connect 5 1 12 0;
#X connect 6 0 1 1;
#X connect 7 0 4 0;
#X connect 8 0 51 1;
#X connect 11 0 3 0;
#X connect 12 0 6 0;
#X connect 13 0 17 0;
#X connect 14 0 18 0;
#X connect 15 0 16 0;
#X connect 16 0 42 0;
#X connect 17 0 42 0;
#X connect 18 0 42 0;
#X connect 19 0 20 0;
#X connect 20 0 42 0;
#X connect 21 0 16 1;
#X connect 22 0 17 1;
#X connect 23 0 20 1;
#X connect 24 0 18 1;
#X connect 25 0 19 2;
#X connect 25 0 13 2;
#X connect 25 0 14 2;
#X connect 25 0 15 2;
#X connect 26 0 27 1;
#X connect 27 0 14 1;
#X connect 28 0 13 1;
#X connect 29 0 28 1;
#X connect 30 0 19 1;
#X connect 31 0 30 1;
#X connect 32 0 34 0;
#X connect 32 1 33 1;
#X connect 33 0 35 0;
#X connect 34 0 33 0;
#X connect 35 0 73 0;
#X connect 36 0 15 1;
#X connect 36 0 27 0;
#X connect 36 0 28 0;
#X connect 36 0 30 0;
#X connect 36 0 61 0;
#X connect 37 0 41 0;
#X connect 37 0 48 0;
#X connect 37 0 57 0;
#X connect 37 0 36 0;
#X connect 39 0 46 0;
#X connect 39 0 46 1;
#X connect 40 0 42 1;
#X connect 41 0 39 0;
#X connect 41 0 46 0;
#X connect 41 1 39 1;
#X connect 42 0 71 0;
#X connect 44 0 45 0;
#X connect 45 0 39 0;
#X connect 46 0 40 0;
#X connect 47 0 51 0;
#X connect 48 0 49 0;
#X connect 48 1 50 0;
#X connect 49 0 47 0;
#X connect 50 0 49 0;
#X connect 50 0 49 1;
#X connect 51 0 52 0;
#X connect 52 0 2 1;
#X connect 53 0 59 0;
#X connect 54 0 53 1;
#X connect 55 0 56 1;
#X connect 56 0 58 0;
#X connect 57 0 56 0;
#X connect 57 1 55 0;
#X connect 57 1 56 0;
#X connect 58 0 53 0;
#X connect 59 0 11 1;
#X connect 60 0 62 0;
#X connect 61 0 32 0;
#X connect 62 0 61 0;
#X connect 62 1 61 1;
#X connect 63 0 75 0;
#X connect 64 0 63 0;
#X connect 64 0 65 0;
#X connect 65 0 76 0;
#X connect 66 0 67 0;
#X connect 67 0 63 0;
#X connect 68 0 67 1;
#X connect 69 1 70 0;
#X connect 70 0 72 0;
#X connect 71 0 43 0;
#X connect 72 0 71 1;
#X connect 73 0 2 0;
#X connect 75 0 60 0;
#X connect 76 0 60 0;
#X restore 352 355 pd stringvoice;
#X obj 771 22 loadbang;
#X obj 153 652 *~ 2;
#X obj 30 654 *~ 2;
#X obj 362 597 lop~ 2500;
#X obj 401 551 hip~ 100;
#X msg 840 12 5;
#X connect 2 0 63 0;
#X connect 3 0 18 0;
#X connect 5 0 78 0;
#X connect 11 0 9 0;
#X connect 12 0 11 0;
#X connect 12 0 76 0;
#X connect 12 0 75 0;
#X connect 13 0 6 0;
#X connect 13 0 45 0;
#X connect 14 0 7 0;
#X connect 14 0 49 0;
#X connect 15 0 8 0;
#X connect 15 0 51 0;
#X connect 16 0 10 0;
#X connect 16 0 47 0;
#X connect 17 0 3 0;
#X connect 17 1 3 1;
#X connect 17 2 3 2;
#X connect 18 0 5 0;
#X connect 18 1 82 0;
#X connect 18 2 83 0;
#X connect 18 3 84 0;
#X connect 18 4 85 0;
#X connect 18 5 86 0;
#X connect 18 6 87 0;
#X connect 18 7 88 0;
#X connect 18 8 89 0;
#X connect 18 9 90 0;
#X connect 18 10 91 0;
#X connect 18 11 92 0;
#X connect 22 0 19 0;
#X connect 23 0 19 0;
#X connect 24 0 20 0;
#X connect 25 0 21 0;
#X connect 26 0 21 0;
#X connect 27 0 20 0;
#X connect 28 0 19 0;
#X connect 29 0 19 0;
#X connect 30 0 20 0;
#X connect 31 0 21 0;
#X connect 32 0 20 0;
#X connect 33 0 21 0;
#X connect 34 0 24 0;
#X connect 34 0 28 0;
#X connect 34 0 31 0;
#X connect 36 0 38 0;
#X connect 37 0 36 0;
#X connect 40 0 39 0;
#X connect 43 0 42 0;
#X connect 44 0 41 0;
#X connect 45 0 37 0;
#X connect 46 0 43 0;
#X connect 47 0 46 0;
#X connect 48 0 40 0;
#X connect 49 0 48 0;
#X connect 50 0 44 0;
#X connect 51 0 50 0;
#X connect 53 0 61 0;
#X connect 53 0 59 0;
#X connect 53 0 62 0;
#X connect 53 0 60 0;
#X connect 54 0 95 0;
#X connect 54 1 94 0;
#X connect 59 0 54 2;
#X connect 60 0 54 3;
#X connect 61 0 54 1;
#X connect 62 0 54 4;
#X connect 63 0 64 0;
#X connect 63 1 17 1;
#X connect 64 1 68 0;
#X connect 66 0 65 0;
#X connect 67 0 65 0;
#X connect 68 0 17 0;
#X connect 69 0 65 0;
#X connect 70 0 65 0;
#X connect 71 0 54 0;
#X connect 72 0 65 0;
#X connect 73 0 65 0;
#X connect 75 0 65 0;
#X connect 76 0 4 0;
#X connect 78 0 71 0;
#X connect 78 0 97 0;
#X connect 79 0 80 0;
#X connect 80 0 81 0;
#X connect 82 0 78 0;
#X connect 83 0 78 0;
#X connect 84 0 78 0;
#X connect 85 0 78 0;
#X connect 86 0 78 0;
#X connect 87 0 78 0;
#X connect 88 0 78 0;
#X connect 89 0 78 0;
#X connect 90 0 78 0;
#X connect 91 0 78 0;
#X connect 92 0 78 0;
#X connect 93 0 98 0;
#X connect 94 0 1 0;
#X connect 95 0 0 0;
#X connect 96 0 1 0;
#X connect 96 0 0 0;
#X connect 97 0 96 0;
#X connect 98 0 79 0;
