#N canvas 15 35 573 318 10;
#N canvas 0 23 645 536 cymbal 0;
#X obj 161 56 noise~;
#X floatatom 413 87 5 0 0 0 - - -;
#N canvas 0 23 858 387 six_pulse_oscs 0;
#X obj 37 37 inlet;
#X obj 26 156 phasor~;
#X obj 26 177 expr~ $v1 > 0.55;
#X obj 26 232 *~ 0.9;
#X obj 130 121 * 1.342;
#X obj 131 156 phasor~;
#X obj 131 177 expr~ $v1 > 0.55;
#X obj 235 156 phasor~;
#X obj 235 177 expr~ $v1 > 0.55;
#X obj 340 156 phasor~;
#X obj 340 177 expr~ $v1 > 0.55;
#X obj 444 156 phasor~;
#X obj 444 177 expr~ $v1 > 0.55;
#X obj 549 156 phasor~;
#X obj 549 177 expr~ $v1 > 0.55;
#X obj 234 123 * 1.2312;
#X obj 341 121 * 1.6532;
#X obj 444 122 * 1.9523;
#X obj 548 120 * 2.1523;
#X obj 26 253 outlet~;
#X connect 0 0 4 0;
#X connect 0 0 18 0;
#X connect 0 0 17 0;
#X connect 0 0 16 0;
#X connect 0 0 15 0;
#X connect 0 0 1 0;
#X connect 1 0 2 0;
#X connect 2 0 3 0;
#X connect 3 0 19 0;
#X connect 4 0 5 0;
#X connect 5 0 6 0;
#X connect 6 0 3 0;
#X connect 7 0 8 0;
#X connect 8 0 3 0;
#X connect 9 0 10 0;
#X connect 10 0 3 0;
#X connect 11 0 12 0;
#X connect 12 0 3 0;
#X connect 13 0 14 0;
#X connect 14 0 3 0;
#X connect 15 0 7 0;
#X connect 16 0 9 0;
#X connect 17 0 11 0;
#X connect 18 0 13 0;
#X restore 413 107 pd six_pulse_oscs;
#X obj 161 258 *~;
#X floatatom 371 69 5 0 0 0 - - -;
#X obj 328 66 bng 15 250 50 0 empty empty empty 17 7 0 10 -262144 -1
-1;
#X obj 161 117 *~;
#N canvas 0 23 305 203 vol_env 0;
#X obj 74 76 f 250;
#X obj 72 43 inlet;
#X obj 128 38 inlet;
#X obj 76 126 vline~;
#X obj 76 147 outlet~;
#X msg 76 105 1 2 \, 0.4 \$1 2 \, 0 \$1 \$1;
#X connect 0 0 5 0;
#X connect 1 0 0 0;
#X connect 2 0 0 1;
#X connect 3 0 4 0;
#X connect 5 0 3 0;
#X restore 179 234 pd vol_env;
#N canvas 0 23 305 203 noise_env 0;
#X obj 72 43 inlet;
#X obj 128 38 inlet;
#X obj 68 141 line~;
#X msg 69 117 1 \, 0.6 \$1;
#X obj 87 72 f 250;
#X obj 87 93 * 0.5;
#X obj 71 171 outlet~;
#X connect 0 0 4 0;
#X connect 1 0 4 1;
#X connect 2 0 6 0;
#X connect 3 0 2 0;
#X connect 4 0 5 0;
#X connect 5 0 3 0;
#X restore 198 102 pd noise_env;
#X obj 161 197 freeverb~;
#X obj 193 273 delread~ \$0-del 5;
#X obj 31 296 delwrite~ \$0-del 10;
#N canvas 0 23 450 300 filters 0;
#X obj 36 37 inlet~;
#X obj 43 248 biquad~ 1.86507 -0.892661 0.894294 -1.78859 0.894294
;
#X obj 38 124 biquad~ 0.88843 -0.568945 0.614344 -1.22869 0.614344
;
#X obj 42 201 biquad~ 0.88843 -0.568945 0.614344 -1.22869 0.614344
;
#X obj 42 81 biquad~ 0.638282 -0.176456 0.134544 0.269087 0.134544
;
#X text 214 106 6800Hz resonant hipass \, Q=1.5;
#X text 210 53 7000Hz resonant lowpass \, Q=0.6;
#X text 220 182 6800Hz resonant hipass \, Q=1.5;
#X text 228 230 1200Hz resonant hipass \, Q=1.5;
#X obj 43 269 outlet~;
#X connect 0 0 4 0;
#X connect 1 0 9 0;
#X connect 2 0 3 0;
#X connect 3 0 1 0;
#X connect 4 0 2 0;
#X restore 161 154 pd filters;
#X obj 330 38 inlet;
#X obj 372 42 inlet;
#X obj 416 43 inlet;
#X text 461 47 basefreq;
#X text 368 24 dur;
#X text 290 21 trig;
#X obj 161 349 outlet~;
#X obj 161 315 *~ 0.5;
#X obj 413 128 *~ 1;
#X obj 461 65 loadbang;
#X msg 461 86 220;
#X connect 0 0 6 0;
#X connect 1 0 2 0;
#X connect 2 0 21 0;
#X connect 3 0 11 0;
#X connect 3 0 20 0;
#X connect 4 0 7 1;
#X connect 4 0 8 1;
#X connect 5 0 7 0;
#X connect 5 0 8 0;
#X connect 6 0 12 0;
#X connect 7 0 3 1;
#X connect 8 0 6 1;
#X connect 9 0 3 0;
#X connect 10 0 20 0;
#X connect 12 0 9 0;
#X connect 13 0 5 0;
#X connect 14 0 4 0;
#X connect 15 0 1 0;
#X connect 20 0 19 0;
#X connect 21 0 12 0;
#X connect 22 0 23 0;
#X connect 23 0 1 0;
#X restore 51 206 pd cymbal;
#X obj 30 138 bng 15 250 50 0 empty empty empty 17 7 0 10 -262144 -1
-1;
#X floatatom 92 173 5 0 0 1 decay - -;
#X obj 93 24 vsl 15 128 50 2000 1 0 empty hh_decay empty 0 -9 0 10
-262144 -1 -1 0 1;
#X floatatom 170 177 5 0 0 1 pitch - -;
#X obj 171 33 vsl 15 128 100 1000 1 0 empty hh_pitch empty 0 -9 0 10
-262144 -1 -1 0 1;
#X obj 51 227 dac~;
#X msg 276 86 \; hh_decay 250 \; hh_pitch 250 \;;
#X msg 375 86 \; hh_decay 70 \; hh_pitch 500 \;;
#X msg 276 130 \; hh_decay 170 \; hh_pitch 200 \;;
#X msg 373 130 \; hh_decay 750 \; hh_pitch 450 \;;
#N canvas 0 23 374 160 filter_calculation_tool 0;
#N canvas 868 536 706 476 calculate_biquad_coefficients 0;
#X obj 131 15 inlet;
#X obj 353 10 inlet;
#X obj 486 98 expr pow(10 \, abs(1/20));
#X text 631 98 V;
#X obj 141 377 print;
#X obj 380 67 f 1;
#N canvas 1009 506 605 495 lowpass 0;
#X obj 37 37 inlet;
#X obj 57 98 expr tan(3.14159265 * $f1);
#X text 223 94 K;
#X obj 297 32 t f f;
#X text 28 154 norm;
#X obj 46 312 pack f f f f f;
#X obj 62 124 t f f;
#X text 103 226 lp_a0;
#X obj 69 267 * 2;
#X obj 49 225 t f f f;
#X obj 63 174 t f f;
#X obj 196 202 expr 2 * $f1 * (($f2*$f2) - 1);
#X obj 299 9 inlet;
#X obj 46 333 outlet;
#X obj 214 244 expr (1 - ($f2 / $f3) + ($f2*$f2)) * $f1;
#X obj 63 153 expr 1 / (1 + ($f1/$f2) + ($f1*$f1));
#X obj 49 204 expr $f2 * $f2 * $f1;
#X connect 0 0 1 0;
#X connect 1 0 6 0;
#X connect 3 0 14 2;
#X connect 3 0 15 1;
#X connect 5 0 13 0;
#X connect 6 0 15 0;
#X connect 6 1 11 1;
#X connect 6 1 14 1;
#X connect 6 1 16 1;
#X connect 8 0 5 1;
#X connect 9 0 5 0;
#X connect 9 1 8 0;
#X connect 9 2 5 2;
#X connect 10 0 16 0;
#X connect 10 1 11 0;
#X connect 10 1 14 0;
#X connect 11 0 5 3;
#X connect 12 0 3 0;
#X connect 14 0 5 4;
#X connect 15 0 10 0;
#X connect 16 0 9 0;
#X restore 172 173 pd lowpass;
#X obj 443 7 loadbang;
#X obj 185 60 loadbang;
#X obj 174 311 outlet;
#X obj 353 31 t b f;
#X obj 131 36 / 44100;
#X text 72 162 a0 a1 a2 b1 b2;
#N canvas 0 23 450 300 convert_to_pd_biquad 0;
#X obj 24 18 inlet;
#X obj 52 69 unpack f f f f f;
#X obj 121 112 * -1;
#X obj 155 113 * -1;
#X obj 61 175 pack f f f f f;
#X obj 49 141 f 0;
#X obj 24 39 t b l;
#X obj 61 196 outlet;
#X connect 0 0 6 0;
#X connect 1 0 4 2;
#X connect 1 1 4 3;
#X connect 1 2 4 4;
#X connect 1 3 2 0;
#X connect 1 4 3 0;
#X connect 2 0 5 1;
#X connect 3 0 4 1;
#X connect 4 0 7 0;
#X connect 5 0 4 0;
#X connect 6 0 5 0;
#X connect 6 1 1 0;
#X restore 172 194 pd convert_to_pd_biquad;
#X obj 170 103 f 0.01;
#X text 68 216 -b1 -b2 a0 a1 a2;
#N canvas 0 23 450 300 convert_to_pd_biquad 0;
#X obj 24 18 inlet;
#X obj 52 69 unpack f f f f f;
#X obj 121 112 * -1;
#X obj 155 113 * -1;
#X obj 61 175 pack f f f f f;
#X obj 49 141 f 0;
#X obj 24 39 t b l;
#X obj 61 196 outlet;
#X connect 0 0 6 0;
#X connect 1 0 4 2;
#X connect 1 1 4 3;
#X connect 1 2 4 4;
#X connect 1 3 2 0;
#X connect 1 4 3 0;
#X connect 2 0 5 1;
#X connect 3 0 4 1;
#X connect 4 0 7 0;
#X connect 5 0 4 0;
#X connect 6 0 5 0;
#X connect 6 1 1 0;
#X restore 348 196 pd convert_to_pd_biquad;
#N canvas 1009 506 605 495 highpass 0;
#X obj 37 37 inlet;
#X obj 57 98 expr tan(3.14159265 * $f1);
#X text 223 94 K;
#X obj 297 32 t f f;
#X text 28 154 norm;
#X obj 46 312 pack f f f f f;
#X obj 62 124 t f f;
#X obj 49 225 t f f f, f 12;
#X obj 63 174 t f f;
#X obj 196 202 expr 2 * $f1 * (($f2*$f2) - 1);
#X obj 299 9 inlet;
#X obj 46 333 outlet;
#X obj 214 244 expr (1 - ($f2 / $f3) + ($f2*$f2)) * $f1;
#X obj 63 153 expr 1 / (1 + ($f1/$f2) + ($f1*$f1));
#X obj 69 267 * -2;
#X connect 0 0 1 0;
#X connect 1 0 6 0;
#X connect 3 0 12 2;
#X connect 3 0 13 1;
#X connect 5 0 11 0;
#X connect 6 0 13 0;
#X connect 6 1 9 1;
#X connect 6 1 12 1;
#X connect 7 0 5 0;
#X connect 7 1 14 0;
#X connect 7 2 5 2;
#X connect 8 0 7 0;
#X connect 8 1 9 0;
#X connect 8 1 12 0;
#X connect 9 0 5 3;
#X connect 10 0 3 0;
#X connect 12 0 5 4;
#X connect 13 0 8 0;
#X connect 14 0 5 1;
#X restore 348 175 pd highpass;
#X obj 170 15 samplerate~;
#X obj 347 309 outlet;
#X obj 527 308 outlet;
#N canvas 1003 702 450 300 convert_to_pd_biquad 0;
#X obj 24 18 inlet;
#X obj 52 69 unpack f f f f f;
#X obj 121 112 * -1;
#X obj 155 113 * -1;
#X obj 61 175 pack f f f f f;
#X obj 49 141 f 0;
#X obj 24 39 t b l;
#X obj 61 196 outlet;
#X connect 0 0 6 0;
#X connect 1 0 4 2;
#X connect 1 1 4 3;
#X connect 1 2 4 4;
#X connect 1 3 2 0;
#X connect 1 4 3 0;
#X connect 2 0 5 1;
#X connect 3 0 4 1;
#X connect 4 0 7 0;
#X connect 5 0 4 0;
#X connect 6 0 5 0;
#X connect 6 1 1 0;
#X restore 522 200 pd convert_to_pd_biquad;
#N canvas 1009 506 605 495 bandpass 0;
#X obj 37 37 inlet;
#X obj 57 98 expr tan(3.14159265 * $f1);
#X text 223 94 K;
#X obj 297 32 t f f;
#X text 28 154 norm;
#X obj 62 124 t f f;
#X obj 49 225 t f f f;
#X obj 63 174 t f f;
#X obj 196 202 expr 2 * $f1 * (($f2*$f2) - 1);
#X obj 299 9 inlet;
#X obj 46 333 outlet;
#X obj 214 244 expr (1 - ($f2 / $f3) + ($f2*$f2)) * $f1;
#X obj 63 153 expr 1 / (1 + ($f1/$f2) + ($f1*$f1));
#X obj 49 204 expr $f2 / ($f3 * $f1);
#X obj 46 312 pack f 0 f f f;
#X obj 88 269 * -1;
#X connect 0 0 1 0;
#X connect 1 0 5 0;
#X connect 3 0 11 2;
#X connect 3 0 12 1;
#X connect 3 0 13 2;
#X connect 5 0 12 0;
#X connect 5 1 8 1;
#X connect 5 1 11 1;
#X connect 5 1 13 1;
#X connect 6 0 14 0;
#X connect 6 2 15 0;
#X connect 7 0 13 0;
#X connect 7 1 8 0;
#X connect 7 1 11 0;
#X connect 8 0 14 3;
#X connect 9 0 3 0;
#X connect 11 0 14 4;
#X connect 12 0 7 0;
#X connect 13 0 6 0;
#X connect 14 0 10 0;
#X connect 15 0 14 2;
#X restore 523 177 pd bandpass;
#X connect 0 0 11 0;
#X connect 1 0 10 0;
#X connect 5 0 6 1;
#X connect 5 0 17 1;
#X connect 5 0 22 1;
#X connect 6 0 13 0;
#X connect 7 0 5 0;
#X connect 8 0 14 0;
#X connect 10 0 14 0;
#X connect 10 1 5 0;
#X connect 11 0 14 0;
#X connect 13 0 9 0;
#X connect 14 0 6 0;
#X connect 14 0 17 0;
#X connect 14 0 22 0;
#X connect 16 0 19 0;
#X connect 17 0 16 0;
#X connect 18 0 11 1;
#X connect 21 0 20 0;
#X connect 22 0 21 0;
#X restore 21 47 pd calculate_biquad_coefficients;
#X floatatom 21 23 5 0 0 1 cutoff - -;
#X floatatom 210 25 5 0 0 1 resonance - -;
#X obj 21 74 print lowpass;
#X obj 115 74 print highpass;
#X obj 209 77 print bandpass;
#X connect 0 0 3 0;
#X connect 0 1 4 0;
#X connect 0 2 5 0;
#X connect 1 0 0 0;
#X connect 2 0 0 1;
#X restore 333 243 pd filter_calculation_tool;
#X connect 0 0 6 0;
#X connect 0 0 6 1;
#X connect 1 0 0 0;
#X connect 2 0 0 1;
#X connect 3 0 2 0;
#X connect 4 0 0 2;
#X connect 5 0 4 0;
