#N canvas 0 23 1003 507 10;
#X obj 100 160 mtof;
#X obj 155 400 *~;
#N canvas 512 287 1078 523 env 0;
#X obj 58 115 line~;
#X obj 49 41 bng 15 250 50 0 empty empty empty 17 7 0 10 -262144 -1
-1;
#X obj 88 78 pack 0 500;
#X floatatom 185 46 5 0 0 0 - - -;
#X obj 59 137 *~;
#X text 91 137 square the output;
#X obj 59 156 *~;
#X text 221 45 decay time;
#X msg 42 86 1 3;
#X obj 44 7 inlet;
#X obj 57 191 outlet~;
#X text 111 191 note the ~ !!;
#X obj 189 8 inlet;
#X obj 88 60 del 10;
#X connect 0 0 4 0;
#X connect 0 0 4 1;
#X connect 1 0 8 0;
#X connect 1 0 13 0;
#X connect 2 0 0 0;
#X connect 3 0 2 1;
#X connect 4 0 6 0;
#X connect 4 0 6 1;
#X connect 6 0 10 0;
#X connect 8 0 0 0;
#X connect 9 0 1 0;
#X connect 12 0 3 0;
#X connect 13 0 2 0;
#X restore 748 178 pd env;
#X floatatom 780 154 5 0 0 0 - - -;
#X text 824 154 decay time;
#X obj 77 298 phasor~;
#N canvas 512 287 1078 523 env 0;
#X obj 58 115 line~;
#X obj 49 41 bng 15 250 50 0 empty empty empty 17 7 0 10 -262144 -1
-1;
#X obj 88 78 pack 0 500;
#X floatatom 185 46 5 0 0 0 - - -;
#X obj 59 137 *~;
#X text 91 137 square the output;
#X text 221 45 decay time;
#X obj 44 7 inlet;
#X obj 57 191 outlet~;
#X text 111 191 note the ~ !!;
#X obj 189 8 inlet;
#X msg 42 86 1;
#X obj 87 54 del 10;
#X connect 0 0 4 0;
#X connect 0 0 4 1;
#X connect 1 0 11 0;
#X connect 1 0 12 0;
#X connect 2 0 0 0;
#X connect 3 0 2 1;
#X connect 4 0 8 0;
#X connect 7 0 1 0;
#X connect 10 0 3 0;
#X connect 11 0 0 0;
#X connect 12 0 2 0;
#X restore 414 210 pd env;
#X floatatom 476 172 5 0 0 0 - - -;
#X text 548 170 decay time;
#X obj 402 288 +~ 50;
#X obj 402 262 *~ 4000;
#X floatatom 441 242 5 0 0 0 - - -;
#X obj 103 355 vcf~ 2, f 12;
#X obj 102 112 t f b b, f 108;
#X obj 288 196 * 4;
#X obj 103 66 inlet;
#X obj 155 421 outlet~;
#X text 311 168 scale filter;
#X text 225 257 offset filter;
#X obj 230 276 * 2;
#X obj 303 145 r filterScale;
#X obj 251 232 r filterOffset;
#X obj 780 122 r decayTime;
#X obj 481 147 r filterTime;
#X obj 251 344 r filterResonance;
#X obj 132 300 phasor~;
#X obj 134 266 * 1.002;
#X connect 0 0 5 0;
#X connect 0 0 14 0;
#X connect 0 0 19 0;
#X connect 0 0 26 0;
#X connect 1 0 16 0;
#X connect 2 0 1 1;
#X connect 3 0 2 1;
#X connect 5 0 12 0;
#X connect 6 0 10 0;
#X connect 7 0 6 1;
#X connect 9 0 12 1;
#X connect 10 0 9 0;
#X connect 11 0 10 1;
#X connect 12 1 1 0;
#X connect 13 0 0 0;
#X connect 13 1 6 0;
#X connect 13 2 2 0;
#X connect 14 0 11 0;
#X connect 15 0 13 0;
#X connect 19 0 9 1;
#X connect 20 0 14 1;
#X connect 21 0 19 1;
#X connect 22 0 3 0;
#X connect 23 0 7 0;
#X connect 24 0 12 2;
#X connect 25 0 12 0;
#X connect 26 0 25 0;
