#N canvas 0 23 473 485 10;
#X obj 59 129 dac~;
#X obj 59 111 *~ 0.25;
#X msg 77 43 all bang;
#X obj 59 92 clone clonePatch.cl 8;
#X text 137 45 re-randomise;
#X connect 1 0 0 0;
#X connect 1 0 0 1;
#X connect 2 0 3 0;
#X connect 3 0 1 0;
