#N canvas 571 218 1015 658 10;
#X obj 51 116 mtof;
#X obj 50 165 osc~;
#X obj 119 147 bng 15 250 50 0 empty empty empty 17 7 0 10 -262144
-1 -1;
#X msg 119 164 1 5;
#X obj 161 162 del 10;
#X obj 161 180 pack 0 500;
#X obj 161 199 line~;
#X obj 161 222 *~;
#X obj 161 244 *~;
#X obj 51 263 *~;
#X text 226 107 decay;
#X floatatom 228 125 5 0 0 0 - - -;
#X obj 53 34 inlet;
#X obj 48 283 outlet~;
#X obj 292 89 loadbang;
#X msg 292 108 2000;
#X obj 223 57 r decay;
#X connect 0 0 1 0;
#X connect 0 0 2 0;
#X connect 1 0 9 0;
#X connect 2 0 3 0;
#X connect 2 0 4 0;
#X connect 3 0 6 0;
#X connect 4 0 5 0;
#X connect 5 0 6 0;
#X connect 6 0 7 0;
#X connect 6 0 7 1;
#X connect 7 0 8 0;
#X connect 7 0 8 1;
#X connect 8 0 9 1;
#X connect 9 0 13 0;
#X connect 11 0 5 1;
#X connect 12 0 0 0;
#X connect 14 0 15 0;
#X connect 15 0 11 0;
#X connect 16 0 11 0;
