#N canvas 22 23 871 544 10;
#N canvas 1265 53 634 693 kick_synth 0;
#X floatatom 267 137 5 0 0 0 - - -;
#X text 270 197 fDec = 250;
#X floatatom 292 356 5 0 0 0 - - -;
#X text 327 360 pScale = 1;
#X obj 233 401 *~ 1;
#X obj 233 422 phasor~;
#X obj 214 107 bng 15 250 50 0 empty empty empty 17 7 0 10 -262144
-1 -1;
#X obj 233 442 expr~ if ($v1 > 0.5 \, 0 \, 1);
#X obj 265 471 noise~;
#X floatatom 450 371 5 0 0 0 - - -;
#X obj 339 413 *~ 1.5;
#X obj 236 514 vcf~ 0.5;
#X obj 199 625 *~;
#X obj 357 535 osc~;
#X floatatom 488 471 5 0 0 0 - - -;
#X obj 356 504 *~ 1;
#X obj 221 160 f 250;
#X obj 210 46 inlet;
#X text 204 25 trig;
#X obj 265 115 inlet;
#X text 265 93 decay time;
#X obj 292 325 inlet;
#X text 290 305 pitchScale;
#X text 432 322 filterScale;
#X obj 432 336 inlet;
#X text 453 448 sineVol;
#X obj 199 646 outlet~;
#X obj 500 447 inlet;
#N canvas 0 23 450 300 vol_env 0;
#X obj 125 167 vline~;
#X obj 125 188 *~;
#X msg 115 115 0.5 \, 1 5 \, 0.5 60 5 \, 0 \$1 65;
#X obj 108 69 inlet;
#X obj 125 209 outlet~;
#X connect 0 0 1 0;
#X connect 0 0 1 1;
#X connect 1 0 4 0;
#X connect 2 0 0 0;
#X connect 3 0 2 0;
#X restore 51 502 pd vol_env;
#N canvas 0 23 450 300 pitch_env 0;
#X obj 37 37 inlet;
#X obj 33 107 vline~;
#X obj 36 222 mtof~;
#X msg 36 73 1 \, 0.5 5 \, 0 \$1 5;
#X obj 33 155 *~ 80;
#X obj 33 176 +~ 29;
#X obj 33 128 *~;
#X obj 36 243 outlet~;
#X connect 0 0 3 0;
#X connect 1 0 6 0;
#X connect 1 0 6 1;
#X connect 2 0 7 0;
#X connect 3 0 1 0;
#X connect 4 0 5 0;
#X connect 5 0 2 0;
#X connect 6 0 4 0;
#X restore 221 247 pd pitch_env;
#X connect 0 0 16 1;
#X connect 2 0 4 1;
#X connect 4 0 5 0;
#X connect 5 0 7 0;
#X connect 6 0 16 0;
#X connect 7 0 11 0;
#X connect 8 0 11 0;
#X connect 9 0 10 1;
#X connect 10 0 11 1;
#X connect 11 1 12 1;
#X connect 12 0 26 0;
#X connect 13 0 12 1;
#X connect 14 0 15 1;
#X connect 15 0 13 0;
#X connect 16 0 28 0;
#X connect 16 0 29 0;
#X connect 17 0 6 0;
#X connect 19 0 0 0;
#X connect 21 0 2 0;
#X connect 24 0 9 0;
#X connect 27 0 14 0;
#X connect 28 0 12 0;
#X connect 29 0 4 0;
#X connect 29 0 10 0;
#X connect 29 0 15 0;
#X restore 41 346 pd kick_synth;
#X f 64;
#X obj 38 97 bng 15 250 50 0 empty empty empty 17 7 0 10 -262144 -1
-1;
#X floatatom 114 306 5 0 0 1 decay - -;
#X obj 115 157 vsl 15 128 50 2000 1 0 empty kick_decay empty 0 -9 0
10 -262144 -1 -1 0 1;
#X floatatom 193 310 5 0 0 1 pitch_scale - -;
#X obj 193 166 vsl 15 128 0.1 3 0 0 empty kick_pitch empty 0 -9 0 10
-262144 -1 -1 9416 1;
#X floatatom 419 311 5 0 0 1 sine_scale - -;
#X obj 419 167 vsl 15 128 0 2 0 0 empty kick_sine empty 0 -9 0 10 -262144
-1 -1 5080 1;
#X obj 41 367 *~ 0.25;
#X obj 41 388 dac~;
#X obj 38 75 r kick;
#X floatatom 300 312 5 0 0 1 filter_scale - -;
#X obj 300 168 vsl 15 128 0.1 3 0 0 empty kick_filter empty 0 -9 0
10 -262144 -1 -1 6131 1;
#X msg 527 291 \; kick_decay 250 \; kick_pitch 1 \; kick_filter 1.5
\; kick_sine 1 \;;
#X msg 674 289 \; kick_decay 150 \; kick_pitch 0.5 \; kick_filter 1.5
\; kick_sine 1 \;;
#X msg 524 363 \; kick_decay 450 \; kick_pitch 0.25 \; kick_filter
0.5 \; kick_sine 1 \;;
#X obj 674 102 tgl 15 0 empty empty empty 17 7 0 10 -262144 -1 -1 1
1;
#X obj 674 144 s kick;
#X obj 674 123 metro 450;
#X msg 694 361 \; kick_decay 1500 \; kick_pitch 0.5 \; kick_filter
0.5 \; kick_sine 0.5 \;;
#X msg 520 432 \; kick_decay 50 \; kick_pitch 2.25 \; kick_filter 1.5
\; kick_sine 0.8 \;;
#X connect 0 0 8 0;
#X connect 1 0 0 0;
#X connect 2 0 0 1;
#X connect 3 0 2 0;
#X connect 4 0 0 2;
#X connect 5 0 4 0;
#X connect 6 0 0 4;
#X connect 7 0 6 0;
#X connect 8 0 9 0;
#X connect 8 0 9 1;
#X connect 10 0 1 0;
#X connect 11 0 0 3;
#X connect 12 0 11 0;
#X connect 16 0 18 0;
#X connect 18 0 17 0;
