#N canvas 85 91 763 389 10;
#X floatatom 51 84 5 0 0 0 - - -;
#X obj 51 136 mtof;
#X obj 50 286 dac~;
#X text 86 85 MIDI pitch;
#X obj 521 246 tgl 15 0 empty empty empty 17 7 0 10 -262144 -1 -1 0
1;
#N canvas 0 23 450 300 two_notes 0;
#X obj 37 37 inlet;
#X obj 37 58 metro 500;
#X obj 37 79 tgl 15 0 empty empty empty 17 7 0 10 -262144 -1 -1 0 1
;
#X obj 37 100 sel 0 1;
#X msg 38 122 55;
#X msg 69 122 67;
#X floatatom 69 143 5 0 0 0 - - -;
#X obj 69 163 outlet;
#X connect 0 0 1 0;
#X connect 1 0 2 0;
#X connect 2 0 3 0;
#X connect 3 0 4 0;
#X connect 3 1 5 0;
#X connect 4 0 6 0;
#X connect 5 0 6 0;
#X connect 6 0 7 0;
#X restore 520 268 pd two_notes;
#X obj 604 247 tgl 15 0 empty empty empty 17 7 0 10 -262144 -1 -1 0
1;
#N canvas 0 23 450 300 many_notes 0;
#X obj 37 37 inlet;
#X obj 37 241 outlet;
#X obj 37 96 f 0;
#X obj 36 138 % 8;
#X obj 179 150 table pitches;
#X msg 179 174 \; pitches 0 60 67 62 58 63 70 72 65;
#X obj 37 188 tabread pitches;
#X obj 37 58 metro 170;
#X floatatom 37 212 5 0 0 0 - - -;
#X obj 37 117 + 1;
#X floatatom 37 159 5 0 0 0 - - -;
#X connect 0 0 7 0;
#X connect 2 0 9 0;
#X connect 3 0 2 1;
#X connect 3 0 10 0;
#X connect 6 0 8 0;
#X connect 7 0 2 0;
#X connect 8 0 1 0;
#X connect 9 0 3 0;
#X connect 10 0 6 0;
#X restore 604 269 pd many_notes;
#X obj 521 317 s notes;
#X floatatom 521 293 5 0 0 0 - - -;
#X obj 51 58 r notes;
#N canvas 544 239 981 331 oscs 0;
#X obj 37 37 inlet;
#X obj 32 121 osc~;
#X obj 206 123 osc~;
#X obj 204 70 * 1.015;
#X obj 374 127 osc~;
#X obj 372 74 * 0.503;
#X text 359 165 octave below;
#X obj 620 126 osc~;
#X obj 619 78 * 1.496;
#X obj 620 163 *~ 0.5;
#X obj 757 126 osc~;
#X obj 756 78 * 2.01;
#X obj 757 163 *~ 0.25;
#X text 745 202 octave up;
#X text 573 214 fifth up;
#X obj 73 256 outlet~;
#X connect 0 0 1 0;
#X connect 0 0 3 0;
#X connect 0 0 11 0;
#X connect 0 0 8 0;
#X connect 0 0 5 0;
#X connect 1 0 15 0;
#X connect 2 0 15 0;
#X connect 3 0 2 0;
#X connect 4 0 15 0;
#X connect 5 0 4 0;
#X connect 7 0 9 0;
#X connect 8 0 7 0;
#X connect 9 0 15 0;
#X connect 10 0 12 0;
#X connect 11 0 10 0;
#X connect 12 0 15 0;
#X restore 49 169 pd oscs;
#N canvas 0 23 450 300 env 0;
#X obj 119 125 bng 15 250 50 0 empty empty empty 17 7 0 10 -262144
-1 -1;
#X msg 119 164 1 5;
#X obj 161 180 pack 0 500;
#X obj 161 199 line~;
#X obj 161 222 *~;
#X obj 161 244 *~;
#X text 226 107 decay;
#X floatatom 228 125 5 0 0 0 - - -;
#X obj 113 73 inlet;
#X obj 234 90 inlet;
#X obj 161 162 del 50;
#X obj 161 265 outlet~;
#X connect 0 0 1 0;
#X connect 0 0 10 0;
#X connect 1 0 3 0;
#X connect 2 0 3 0;
#X connect 3 0 4 0;
#X connect 3 0 4 1;
#X connect 4 0 5 0;
#X connect 4 0 5 1;
#X connect 5 0 11 0;
#X connect 7 0 2 1;
#X connect 8 0 0 0;
#X connect 9 0 7 0;
#X connect 10 0 2 0;
#X restore 145 157 pd env;
#X text 226 107 decay;
#X floatatom 228 125 5 0 0 0 - - -;
#X obj 51 104 t f b;
#X obj 51 211 *~;
#X obj 51 251 *~ 0.25;
#X connect 0 0 15 0;
#X connect 1 0 11 0;
#X connect 4 0 5 0;
#X connect 5 0 9 0;
#X connect 6 0 7 0;
#X connect 7 0 9 0;
#X connect 9 0 8 0;
#X connect 10 0 0 0;
#X connect 11 0 16 0;
#X connect 12 0 16 1;
#X connect 14 0 12 1;
#X connect 15 0 1 0;
#X connect 15 1 12 0;
#X connect 16 0 17 0;
#X connect 17 0 2 0;
#X connect 17 0 2 1;
