#N canvas 155 76 497 260 10;
#X obj 24 166 *~ 0.25;
#X obj 24 187 dac~;
#X obj 24 28 r notes;
#X obj 374 112 tgl 15 0 empty empty empty 17 7 0 10 -262144 -1 -1 1
1;
#X obj 374 184 s notes;
#X floatatom 374 163 5 0 0 0 - - -;
#N canvas 1093 183 619 320 melody_player 0;
#X obj 37 13 inlet;
#X obj 39 290 outlet;
#X floatatom 37 159 5 0 0 0 - - -;
#X floatatom 39 235 5 0 0 0 - - -;
#X obj 149 114 list length;
#X obj 286 225 array set notepattern;
#X obj 39 214 tabread notepattern;
#X obj 288 248 array define notepattern;
#X floatatom 97 11 5 0 0 0 - - -;
#X obj 288 196 r noteList;
#X obj 369 154 s noteList;
#X obj 150 90 r noteList;
#X floatatom 149 135 5 0 0 0 - - -;
#X obj 37 34 metro 400;
#X msg 343 98 72 75 79 60 67 65 74 77 63 68 58 82;
#X obj 37 55 random 24;
#X obj 109 55 random 60;
#X obj 39 255 sel 0;
#X obj 345 70 loadbang;
#X connect 0 0 13 0;
#X connect 2 0 6 0;
#X connect 3 0 17 0;
#X connect 4 0 12 0;
#X connect 6 0 3 0;
#X connect 8 0 13 1;
#X connect 9 0 5 0;
#X connect 11 0 4 0;
#X connect 13 0 15 0;
#X connect 13 0 16 0;
#X connect 14 0 10 0;
#X connect 15 0 2 0;
#X connect 16 0 2 0;
#X connect 17 1 1 0;
#X connect 18 0 14 0;
#X restore 374 134 pd melody_player;
#X obj 24 143 clone stringSynth.cl 16;
#N canvas 0 23 450 300 handle_polyphony 0;
#X obj 37 37 inlet;
#X obj 37 149 pack 0 0 0;
#X obj 38 120 - 1;
#X obj 38 78 poly 16 1;
#X obj 37 170 outlet;
#X connect 0 0 3 0;
#X connect 1 0 4 0;
#X connect 2 0 1 0;
#X connect 3 0 2 0;
#X connect 3 1 1 1;
#X connect 3 2 1 2;
#X restore 24 106 pd handle_polyphony;
#X floatatom 24 46 5 0 0 0 - - -;
#N canvas 0 23 450 367 create_midi_notes 0;
#X obj 37 37 inlet;
#X obj 36 194 makenote 100 500;
#X floatatom 36 120 5 0 0 0 - - -;
#X obj 36 236 pack 0 0;
#X obj 34 68 t i b;
#X obj 128 114 random 60;
#X obj 128 156 + 50;
#X obj 36 257 outlet;
#X connect 0 0 4 0;
#X connect 1 0 3 0;
#X connect 1 1 3 1;
#X connect 2 0 1 0;
#X connect 3 0 7 0;
#X connect 4 0 2 0;
#X connect 4 1 5 0;
#X connect 5 0 6 0;
#X connect 6 0 1 1;
#X restore 24 76 pd create_midi_notes;
#X connect 0 0 1 0;
#X connect 0 0 1 1;
#X connect 2 0 9 0;
#X connect 3 0 6 0;
#X connect 5 0 4 0;
#X connect 6 0 5 0;
#X connect 7 0 0 0;
#X connect 8 0 7 0;
#X connect 9 0 10 0;
#X connect 10 0 8 0;
