#N canvas 216 144 709 394 10;
#X obj 50 286 dac~;
#X obj 397 225 tgl 15 0 empty empty empty 17 7 0 10 -262144 -1 -1 0
1;
#N canvas 0 23 450 300 two_notes 0;
#X obj 37 37 inlet;
#X obj 37 58 metro 500;
#X obj 37 79 tgl 15 0 empty empty empty 17 7 0 10 -262144 -1 -1 0 1
;
#X obj 37 100 sel 0 1;
#X msg 38 122 55;
#X msg 69 122 67;
#X floatatom 69 143 5 0 0 0 - - -;
#X obj 69 163 outlet;
#X connect 0 0 1 0;
#X connect 1 0 2 0;
#X connect 2 0 3 0;
#X connect 3 0 4 0;
#X connect 3 1 5 0;
#X connect 4 0 6 0;
#X connect 5 0 6 0;
#X connect 6 0 7 0;
#X restore 397 248 pd two_notes;
#X obj 481 227 tgl 15 0 empty empty empty 17 7 0 10 -262144 -1 -1 1
1;
#N canvas 0 23 450 300 many_notes 0;
#X obj 37 37 inlet;
#X obj 37 255 outlet;
#X obj 37 96 f 0;
#X obj 36 138 % 8;
#X obj 179 150 table pitches;
#X obj 37 188 tabread pitches;
#X floatatom 37 212 5 0 0 0 - - -;
#X obj 37 117 + 1;
#X floatatom 37 159 5 0 0 0 - - -;
#X obj 182 43 loadbang;
#X msg 180 81 \; pitches 0 60 72 48 58 63 70 80 65;
#X obj 37 58 metro 250;
#X connect 0 0 11 0;
#X connect 2 0 7 0;
#X connect 3 0 2 1;
#X connect 3 0 8 0;
#X connect 5 0 6 0;
#X connect 6 0 1 0;
#X connect 7 0 3 0;
#X connect 8 0 5 0;
#X connect 9 0 10 0;
#X connect 11 0 2 0;
#X restore 481 249 pd many_notes;
#X obj 397 315 s notes;
#X floatatom 397 291 5 0 0 0 - - -;
#X obj 53 89 r notes;
#X floatatom 52 118 5 36 144 0 - - -;
#X msg 52 135 next \$1;
#N canvas 0 23 450 300 more_notes 0;
#X obj 37 37 inlet;
#X obj 37 255 outlet;
#X obj 37 96 f 0;
#X obj 37 188 tabread pitches;
#X floatatom 37 212 5 0 0 0 - - -;
#X obj 37 117 + 1;
#X floatatom 37 159 5 0 0 0 - - -;
#X obj 182 43 loadbang;
#X obj 37 58 metro 250;
#X msg 182 80 \; pitches 0 60 72 84 87 63 70 80 65 75 77;
#X msg 183 123 \; pitches 0 60 72 84 91 63 70 80 65 75 77;
#X msg 186 167 \; pitches 0 60 72 84 91 63 89 80 87 82 77;
#X obj 37 138 % 9;
#X connect 0 0 8 0;
#X connect 2 0 5 0;
#X connect 3 0 4 0;
#X connect 4 0 1 0;
#X connect 5 0 12 0;
#X connect 6 0 3 0;
#X connect 7 0 9 0;
#X connect 8 0 2 0;
#X connect 12 0 2 1;
#X connect 12 0 6 0;
#X restore 573 249 pd more_notes;
#X obj 222 173 s decay;
#X floatatom 222 148 5 0 0 0 - - -;
#X obj 51 168 clone synth.cl 64;
#X obj 51 251 *~ 0.25;
#X connect 1 0 2 0;
#X connect 2 0 6 0;
#X connect 3 0 4 0;
#X connect 3 0 10 0;
#X connect 4 0 6 0;
#X connect 6 0 5 0;
#X connect 7 0 8 0;
#X connect 8 0 9 0;
#X connect 9 0 13 0;
#X connect 10 0 6 0;
#X connect 12 0 11 0;
#X connect 13 0 14 0;
#X connect 14 0 0 0;
#X connect 14 0 0 1;
