#N canvas 266 141 725 390 10;
#X floatatom 51 84 5 0 0 0 - - -;
#X obj 51 116 mtof;
#X obj 50 286 dac~;
#X floatatom 104 230 5 0 0 0 - - -;
#X obj 51 251 *~;
#X text 138 229 vol;
#X text 86 85 MIDI pitch;
#X obj 543 248 tgl 15 0 empty empty empty 17 7 0 10 -262144 -1 -1 0
1;
#N canvas 0 23 450 300 two_notes 0;
#X obj 37 37 inlet;
#X obj 37 58 metro 500;
#X obj 37 79 tgl 15 0 empty empty empty 17 7 0 10 -262144 -1 -1 0 1
;
#X obj 37 100 sel 0 1;
#X msg 38 122 55;
#X msg 69 122 67;
#X floatatom 69 143 5 0 0 0 - - -;
#X obj 69 163 outlet;
#X connect 0 0 1 0;
#X connect 1 0 2 0;
#X connect 2 0 3 0;
#X connect 3 0 4 0;
#X connect 3 1 5 0;
#X connect 4 0 6 0;
#X connect 5 0 6 0;
#X connect 6 0 7 0;
#X restore 542 270 pd two_notes;
#X obj 626 249 tgl 15 0 empty empty empty 17 7 0 10 -262144 -1 -1 0
1;
#N canvas 0 23 450 300 many_notes 0;
#X obj 37 37 inlet;
#X obj 37 241 outlet;
#X obj 37 96 f 0;
#X obj 36 138 % 8;
#X obj 179 150 table pitches;
#X msg 179 174 \; pitches 0 60 67 62 58 63 70 72 65;
#X obj 37 188 tabread pitches;
#X obj 37 58 metro 170;
#X floatatom 37 212 5 0 0 0 - - -;
#X obj 37 117 + 1;
#X floatatom 37 159 5 0 0 0 - - -;
#X connect 0 0 7 0;
#X connect 2 0 9 0;
#X connect 3 0 2 1;
#X connect 3 0 10 0;
#X connect 6 0 8 0;
#X connect 7 0 2 0;
#X connect 8 0 1 0;
#X connect 9 0 3 0;
#X connect 10 0 6 0;
#X restore 626 271 pd many_notes;
#X obj 543 319 s notes;
#X floatatom 543 295 5 0 0 0 - - -;
#X obj 51 58 r notes;
#N canvas 544 239 981 331 oscs 0;
#X obj 37 37 inlet;
#X obj 32 121 osc~;
#X obj 206 123 osc~;
#X obj 204 70 * 1.015;
#X obj 374 127 osc~;
#X obj 372 74 * 0.503;
#X text 359 165 octave below;
#X obj 620 126 osc~;
#X obj 619 78 * 1.496;
#X obj 620 163 *~ 0.5;
#X obj 757 126 osc~;
#X obj 756 78 * 2.01;
#X obj 757 163 *~ 0.25;
#X text 745 202 octave up;
#X text 573 214 fifth up;
#X obj 73 256 outlet~;
#X connect 0 0 1 0;
#X connect 0 0 3 0;
#X connect 0 0 11 0;
#X connect 0 0 8 0;
#X connect 0 0 5 0;
#X connect 1 0 15 0;
#X connect 2 0 15 0;
#X connect 3 0 2 0;
#X connect 4 0 15 0;
#X connect 5 0 4 0;
#X connect 7 0 9 0;
#X connect 8 0 7 0;
#X connect 9 0 15 0;
#X connect 10 0 12 0;
#X connect 11 0 10 0;
#X connect 12 0 15 0;
#X restore 51 159 pd oscs;
#X connect 0 0 1 0;
#X connect 1 0 14 0;
#X connect 3 0 4 1;
#X connect 4 0 2 0;
#X connect 4 0 2 1;
#X connect 7 0 8 0;
#X connect 8 0 12 0;
#X connect 9 0 10 0;
#X connect 10 0 12 0;
#X connect 12 0 11 0;
#X connect 13 0 0 0;
#X connect 14 0 4 0;
