#N canvas 264 141 867 385 10;
#X floatatom 56 48 5 0 0 0 - - -;
#X obj 50 316 dac~;
#X text 91 49 MIDI pitch;
#X obj 453 235 tgl 15 0 empty empty empty 17 7 0 10 -262144 -1 -1 0
1;
#N canvas 0 23 450 300 two_notes 0;
#X obj 37 37 inlet;
#X obj 37 58 metro 500;
#X obj 37 79 tgl 15 0 empty empty empty 17 7 0 10 -262144 -1 -1 0 1
;
#X obj 37 100 sel 0 1;
#X msg 38 122 55;
#X msg 69 122 67;
#X floatatom 69 143 5 0 0 0 - - -;
#X obj 69 163 outlet;
#X connect 0 0 1 0;
#X connect 1 0 2 0;
#X connect 2 0 3 0;
#X connect 3 0 4 0;
#X connect 3 1 5 0;
#X connect 4 0 6 0;
#X connect 5 0 6 0;
#X connect 6 0 7 0;
#X restore 452 257 pd two_notes;
#X obj 536 236 tgl 15 0 empty empty empty 17 7 0 10 -262144 -1 -1 1
1;
#N canvas 0 23 512 386 many_notes 0;
#X obj 37 37 inlet;
#X obj 37 266 outlet;
#X obj 37 96 f 0;
#X obj 36 138 % 8;
#X obj 179 150 table pitches;
#X obj 37 188 tabread pitches;
#X obj 37 58 metro 170;
#X floatatom 37 212 5 0 0 0 - - -;
#X obj 37 117 + 1;
#X floatatom 37 159 5 0 0 0 - - -;
#X obj 103 25 inlet;
#X obj 37 232 - 24;
#X obj 286 149 loadbang;
#X msg 180 174 \; pitches 0 48 67 62 58 51 70 72 65;
#X connect 0 0 6 0;
#X connect 2 0 8 0;
#X connect 3 0 2 1;
#X connect 3 0 9 0;
#X connect 5 0 7 0;
#X connect 6 0 2 0;
#X connect 7 0 11 0;
#X connect 8 0 3 0;
#X connect 9 0 5 0;
#X connect 10 0 6 1;
#X connect 11 0 1 0;
#X connect 12 0 13 0;
#X restore 536 258 pd many_notes;
#X obj 453 306 s notes;
#X floatatom 453 282 5 0 0 0 - - -;
#X obj 56 22 r notes;
#X floatatom 606 238 5 0 0 0 - - -;
#X obj 56 162 clone filterSynth.cl 32;
#X msg 56 102 next \$1;
#X obj 268 70 s filterScale;
#X floatatom 267 48 5 0 0 0 - - -;
#X floatatom 268 96 5 0 0 0 - - -;
#X obj 268 121 s filterOffset;
#X floatatom 272 276 5 0 0 0 - - -;
#X obj 273 299 s decayTime;
#X floatatom 268 147 5 0 0 0 - - -;
#X obj 268 172 s filterTime;
#X floatatom 268 198 5 0 0 0 - - -;
#X obj 269 221 s filterResonance;
#X obj 651 237 tgl 15 0 empty empty empty 17 7 0 10 -262144 -1 -1 0
1;
#N canvas 0 23 512 386 many_notes 0;
#X obj 37 37 inlet;
#X obj 37 266 outlet;
#X obj 37 96 f 0;
#X obj 36 138 % 8;
#X obj 37 188 tabread pitches;
#X obj 37 58 metro 170;
#X floatatom 37 212 5 0 0 0 - - -;
#X obj 37 117 + 1;
#X floatatom 37 159 5 0 0 0 - - -;
#X obj 103 25 inlet;
#X obj 40 232 - 12;
#X connect 0 0 5 0;
#X connect 2 0 7 0;
#X connect 3 0 2 1;
#X connect 3 0 8 0;
#X connect 4 0 6 0;
#X connect 5 0 2 0;
#X connect 6 0 10 0;
#X connect 7 0 3 0;
#X connect 8 0 4 0;
#X connect 9 0 5 1;
#X connect 10 0 1 0;
#X restore 651 259 pd many_notes;
#X floatatom 723 236 5 0 0 0 - - -;
#X obj 52 289 *~ 0.75;
#X connect 0 0 12 0;
#X connect 3 0 4 0;
#X connect 4 0 8 0;
#X connect 5 0 6 0;
#X connect 6 0 8 0;
#X connect 8 0 7 0;
#X connect 9 0 0 0;
#X connect 10 0 6 1;
#X connect 11 0 26 0;
#X connect 12 0 11 0;
#X connect 14 0 13 0;
#X connect 15 0 16 0;
#X connect 17 0 18 0;
#X connect 19 0 20 0;
#X connect 21 0 22 0;
#X connect 23 0 24 0;
#X connect 24 0 8 0;
#X connect 25 0 24 1;
#X connect 26 0 1 0;
#X connect 26 0 1 1;
