#N canvas 950 0 958 962 24;
#X obj 839 647 throw~ outL;
#X obj 982 647 throw~ outR;
#X obj 1569 21 loadbang;
#X obj 1634 157 r knob1;
#X obj 1634 310 r knob2;
#X obj 1634 268 s screenLine1;
#X obj 1634 202 int;
#X obj 602 62 tgl 15 0 empty empty empty 17 7 0 10 -262144 -1 -1 1
1;
#X obj 602 28 r fs;
#X obj 762 266 r~ inL;
#X obj 84 356 r~ inL;
#X obj 1634 507 int;
#X obj 1634 459 r knob3;
#X obj 1636 614 r knob4;
#X obj 1634 574 s screenLine3;
#X obj 658 108 s led;
#X obj 1636 658 int;
#X obj 1636 637 * 100;
#X obj 1636 726 s screenLine4;
#X obj 1634 355 int;
#X obj 1634 333 * 100;
#X obj 1634 422 s screenLine2;
#X obj 23 356 r~ inR;
#X obj 1634 224 change -1;
#X obj 1634 377 change -1;
#X obj 1634 529 change -1;
#X obj 1636 680 change -1;
#X obj 846 263 r~ inR;
#X obj 658 85 * 1;
#X obj 995 82 r notes;
#X floatatom 995 325 5 0 0 0 - - -;
#X obj 995 110 unpack f f;
#X obj 995 142 - 60;
#X obj 995 172 / 24;
#X obj 995 227 *;
#X obj 995 194 t f f;
#X obj 1634 484 * 100;
#X msg 1634 398 2: Feedback B \$1 %;
#X obj 1634 179 * 100;
#X msg 1634 245 1: Feedback A \$1 % \;;
#X msg 1634 552 3: Feedback C \$1 % \;;
#X msg 1636 702 4: Feedback D \$1 %;
#X obj 544 149 line~;
#X obj 33 502 *~;
#X msg 544 128 \$1 2;
#X obj 544 105 ==;
#X obj 602 257 line~;
#X msg 602 230 \$1 2;
#X obj 845 316 *~;
#X text 25 327 audio in (clean audio out);
#X text 728 220 audio in for delays;
#X obj 745 21 loadbang;
#X text 954 61 set delay time with keys;
#X text 19 40 Delay time set with keys;
#X text 19 23 Quad Delay with independent feedback control;
#X msg 1569 46 \; screenLine1 1: Feedback A \; screenLine2 2: Feedback
B \; screenLine3 3: Feedback C \; screenLine4 4: Feedback D \; screenLine5
Root Delay \;;
#X text 1080 143 sets lowest 'C' key to 0 ms;
#X text 1085 182 remove this with external MIDI notes;
#X obj 870 565 delay2sec 2;
#X msg 746 42 1;
#X obj 695 -12 bng 15 250 50 0 empty empty empty 17 7 0 10 -262144
-1 -1;
#X obj 1080 278 * 4000;
#X obj 982 495 * 1;
#X obj 664 470 hsl 128 15 200 2000 0 0 empty empty empty -2 -8 0 10
-262144 -1 -1 11900 1;
#X floatatom 640 506 5 0 0 0 - - -;
#X connect 2 0 55 0;
#X connect 3 0 38 0;
#X connect 4 0 20 0;
#X connect 6 0 23 0;
#X connect 7 0 28 0;
#X connect 7 0 45 0;
#X connect 7 0 47 0;
#X connect 8 0 7 0;
#X connect 9 0 48 0;
#X connect 10 0 43 0;
#X connect 11 0 25 0;
#X connect 12 0 36 0;
#X connect 13 0 17 0;
#X connect 16 0 26 0;
#X connect 17 0 16 0;
#X connect 19 0 24 0;
#X connect 20 0 19 0;
#X connect 22 0 43 0;
#X connect 23 0 39 0;
#X connect 24 0 37 0;
#X connect 25 0 40 0;
#X connect 26 0 41 0;
#X connect 27 0 48 0;
#X connect 28 0 15 0;
#X connect 29 0 31 0;
#X connect 30 0 62 0;
#X connect 31 0 32 0;
#X connect 32 0 33 0;
#X connect 33 0 35 0;
#X connect 34 0 61 0;
#X connect 35 0 34 0;
#X connect 35 1 34 1;
#X connect 36 0 11 0;
#X connect 37 0 21 0;
#X connect 38 0 6 0;
#X connect 39 0 5 0;
#X connect 40 0 14 0;
#X connect 41 0 18 0;
#X connect 42 0 43 1;
#X connect 43 0 0 0;
#X connect 43 0 1 0;
#X connect 44 0 42 0;
#X connect 45 0 44 0;
#X connect 46 0 48 1;
#X connect 47 0 46 0;
#X connect 48 0 58 0;
#X connect 51 0 59 0;
#X connect 58 0 0 0;
#X connect 58 0 1 0;
#X connect 59 0 7 0;
#X connect 60 0 51 0;
#X connect 61 0 30 0;
#X connect 62 0 58 1;
#X connect 63 0 58 1;
#X connect 63 0 64 0;
