#N canvas -11 -11 1920 1016 16;
#X obj -1008 336 expr (($f1 - $f2) / ($f3 - $f2)) * 100;
#X obj -769 506 outlet;
#X obj -1041 76 inlet;
#X obj -921 192 max;
#X obj -950 149 iter;
#X floatatom -864 189 5 0 0 0 - - -;
#X obj -803 107 bng 15 250 50 0 empty empty empty 17 7 0 10 -262144
-1 -1;
#X obj -864 141 -1000;
#X obj -1069 231 list;
#X obj -1069 191 bng 15 250 50 0 empty empty empty 17 7 0 10 -262144
-1 -1;
#X floatatom -761 189 5 0 0 0 - - -;
#X obj -804 191 min;
#X obj -761 141 1000;
#X obj -1023 301 iter;
#X obj -769 410 list prepend;
#X obj -769 458 list length;
#X floatatom -768 458 5 0 0 0 - - -;
#X obj -619 382 t l;
#X msg -952 31 44 0.2 100 22 33 2 3 4 99 22 44;
#X text -548 62 Take list;
#X text -544 101 Reset min \, max \, and normalized list;
#X text -544 146 Get min and max of list;
#X text -551 465 Send out normalized list;
#X obj -950 101 t b l b;
#X obj -1054 433 bng 15 250 50 0 empty empty empty 17 7 0 10 -262144
-1 -1;
#X obj -830 456 list;
#X obj -1069 267 t b l;
#X obj -602 247 list;
#X obj -888 564 print;
#X text -535 336 Then \, Normalize list using Min and max values;
#X connect 0 0 14 0;
#X connect 2 0 8 1;
#X connect 2 0 23 0;
#X connect 3 0 5 0;
#X connect 4 0 3 0;
#X connect 4 0 11 0;
#X connect 5 0 3 1;
#X connect 5 0 0 2;
#X connect 6 0 7 0;
#X connect 6 0 12 0;
#X connect 6 0 27 0;
#X connect 7 0 5 0;
#X connect 8 0 26 0;
#X connect 9 0 8 0;
#X connect 10 0 11 1;
#X connect 10 0 0 1;
#X connect 11 0 10 0;
#X connect 12 0 10 0;
#X connect 13 0 0 0;
#X connect 14 0 15 0;
#X connect 14 0 17 0;
#X connect 14 0 25 1;
#X connect 15 0 16 0;
#X connect 17 0 14 1;
#X connect 18 0 8 1;
#X connect 18 0 23 0;
#X connect 23 0 9 0;
#X connect 23 1 4 0;
#X connect 23 2 6 0;
#X connect 24 0 25 0;
#X connect 25 0 1 0;
#X connect 25 0 28 0;
#X connect 26 0 24 0;
#X connect 26 1 13 0;
#X connect 27 0 14 1;
