#N canvas 0 0 1900 968 24;
#X declare -lib mrpeach;
#X obj -114 -1162 vsl 22 222 0 1 0 0 knob1 empty empty 0 -22 0 22 -4034
-1 -1 13260 1;
#X floatatom -115 -916 5 0 0 0 - - -;
#X floatatom -197 -915 5 0 0 0 - - -;
#X obj -333 -1040 adc~;
#N canvas 2 99 1009 675 quad_delay~ 0;
#X obj 390 -266 tgl 15 0 empty empty empty 17 7 0 10 -262144 -1 -1
1 1;
#X floatatom 607 -282 5 0 0 0 - - -;
#X obj 226 -89 line~;
#X obj 211 131 *~;
#X msg 268 -150 \$1 2;
#X obj 305 -228 ==;
#X obj 389 -152 line~;
#X msg 396 -227 \$1 2;
#X obj 296 -15 *~;
#X obj 387 -377 loadbang;
#X msg 388 -320 1;
#X obj 387 -405 bng 15 250 50 0 empty empty empty 17 7 0 10 -262144
-1 -1;
#X obj 168 265 outlet~;
#X obj 371 266 outlet~;
#X obj 616 -344 inlet;
#X obj 56 -290 inlet~;
#X obj 627 -207 inlet;
#X obj 370 111 delay2sec 2;
#X connect 0 0 5 0;
#X connect 0 0 7 0;
#X connect 1 0 17 1;
#X connect 2 0 3 1;
#X connect 3 0 12 0;
#X connect 3 0 13 0;
#X connect 4 0 2 0;
#X connect 5 0 4 0;
#X connect 6 0 8 1;
#X connect 7 0 6 0;
#X connect 8 0 17 0;
#X connect 9 0 10 0;
#X connect 10 0 0 0;
#X connect 14 0 1 0;
#X connect 15 0 3 0;
#X connect 15 0 8 0;
#X connect 16 0 17 2;
#X connect 17 0 12 0;
#X connect 17 0 13 0;
#X restore -223 -785 pd quad_delay~;
#N canvas 0 50 1912 978 audioIO 0;
#X obj 774 530 dac~;
#X obj 872 225 catch~ outR;
#X obj 667 264 catch~ outL;
#X obj 453 360 adc~;
#X obj 546 439 s~ inR;
#X obj 371 438 s~ inL;
#X obj 748 467 *~;
#X obj 837 469 *~;
#X obj 1120 120 r vol;
#X obj 1071 316 *;
#X obj 1101 256 t f f;
#X obj 1071 344 sig~;
#X obj 1071 370 lop~ 2;
#X obj 743 373 clip~ -1 1;
#X obj 832 373 clip~ -1 1;
#X text 424 131 Receives and sends audio to patch. Outgoing audio is
run through a compressor to provide some headroom if things get too
loud. Also sends values to the Organelle's OLED VU meter.;
#X obj 1003 554 vsl 15 128 0 1 0 0 empty empty empty 0 -9 0 10 -262144
-1 -1 0 1;
#X obj 1003 520 r vol;
#X obj 746 328 *~ 0.25;
#X obj 843 327 *~ 0.25;
#X obj 1253 65 vsl 15 128 0 1 0 0 empty empty empty 0 -9 0 10 -262144
-1 -1 0 1;
#X obj 1251 238 s vol;
#X connect 1 0 19 0;
#X connect 2 0 18 0;
#X connect 3 0 5 0;
#X connect 3 1 4 0;
#X connect 6 0 0 0;
#X connect 7 0 0 1;
#X connect 8 0 10 0;
#X connect 9 0 11 0;
#X connect 10 0 9 0;
#X connect 10 1 9 1;
#X connect 11 0 12 0;
#X connect 12 0 7 1;
#X connect 12 0 6 1;
#X connect 13 0 6 0;
#X connect 14 0 7 0;
#X connect 17 0 16 0;
#X connect 18 0 13 0;
#X connect 19 0 14 0;
#X connect 20 0 21 0;
#X restore 1075 -465 pd audioIO;
#X obj 1076 -365 delay 300;
#X msg 1081 -327 \; pd dsp 1;
#N canvas 0 50 450 300 (subpatch) 0;
#X array output 500 float 2;
#X coords 0 -0.8 500 0.8 500 333 1 0 0;
#X restore 300 -1199 graph;
#X obj 233 -633 tabwrite~ output;
#X msg 281 -750 1;
#X obj -228 -1849 loadbang;
#X obj -225 -1811 s mbang;
#X obj 283 -694 tgl 15 0 empty empty empty 17 7 0 10 -262144 -1 -1
1 1;
#X obj -302 -1842 bng 15 250 50 0 empty empty empty 17 7 0 10 -262144
-1 -1;
#X obj 280 -802 r mbang;
#X obj 1076 -421 r mbang;
#X obj -20 -753 lop~;
#X obj 68 -1145 vsl 22 222 0 0.9 0 0 depth empty empty 0 -22 0 22 -257985
-1 -1 4911 1;
#X floatatom 69 -912 5 0 0 0 - - -;
#X obj 57 -662 dac~;
#X text 70 -1195 volume;
#X text -116 -1189 delay1;
#X obj -68 -1160 vsl 22 222 0.96 0.99 0 0 knob1 empty empty 0 -9 0
22 -4034 -1 -33289 0 1;
#X obj -200 -1154 vsl 22 222 0 5000 0 0 depth empty empty 0 -9 0 22
-257985 -1 -1 3315 1;
#X obj -131 -1273 r mbang;
#X obj -162 -1155 vsl 22 222 5 50 0 0 depth empty empty 0 -22 0 22
-257985 -1 -1 0 1;
#X obj 282 -675 metro 360;
#X obj -21 -1226 1000;
#X obj -519 -440 unpackOSC;
#X floatatom -342 -336 4 0 0 0 - - -;
#X floatatom -277 -344 4 0 0 0 - - -;
#X floatatom -186 -337 4 0 0 0 - - -;
#X floatatom -75 -333 4 0 0 0 - - -;
#X floatatom 47 -335 4 0 0 0 - - -;
#X floatatom 150 -339 4 0 0 0 - - -;
#X obj -337 -409 unpack s f f f f f f f f f f f f f f f f f f f f f
f f f f f f f;
#X obj -550 -463 bng 15 250 50 0 empty empty empty 17 7 0 10 -262144
-1 -1;
#X floatatom -504 -351 5 0 0 0 - - -;
#N canvas 0 50 450 300 (subpatch) 0;
#X array f1 50 float 0;
#X coords 0 100 49 0 200 222 1 0 0;
#X restore 39 -1742 graph;
#X obj -17 -1158 vsl 22 222 0 1000 0 0 depth empty empty 0 -22 0 22
-159808 -1 -1 22100 1;
#X floatatom -19 -917 5 0 0 0 - - -;
#X text -20 -1195 cutoff;
#X obj -518 -312 s tableCount;
#N canvas 0 50 450 300 (subpatch) 0;
#X array f2 50 float 0;
#X coords 0 100 50 0 200 222 1 0 0;
#X restore 245 -1741 graph;
#N canvas 0 50 450 300 (subpatch) 0;
#X array f3 50 float 0;
#X coords 0 110 50 0 200 222 1 0 0;
#X restore 459 -1744 graph;
#N canvas 0 50 50 300 (subpatch) 0;
#X array f4 50 float 0;
#X coords 0 0 49 1000 200 222 1 0 0;
#X restore 34 -1496 graph;
#N canvas 0 50 450 300 (subpatch) 0;
#X array f5 50 float 0;
#X coords 0 100 49 0 200 222 1 0 0;
#X restore 247 -1495 graph;
#N canvas 0 50 450 300 (subpatch) 0;
#X array f6 50 float 0;
#X coords 0 100 49 0 200 222 1 0 0;
#X restore 457 -1494 graph;
#X obj -348 -295 s f1;
#X obj -264 -300 s f2;
#X obj -191 -299 s f3;
#X obj -81 -290 s f4;
#X obj 37 -290 s f5;
#X obj 136 -290 s f6;
#N canvas 0 0 1902 978 recieves 0;
#X obj -5 29 r f2;
#X obj 144 0 r f3;
#X obj 276 57 r f4;
#X obj 484 -16 r f5;
#X obj 633 -19 r f6;
#X obj 772 -27 r f7;
#X obj -365 -331 outlet;
#X obj -212 -330 outlet;
#X obj -23 -324 outlet;
#X obj 159 -365 outlet;
#X obj 328 -367 outlet;
#X obj 508 -411 outlet;
#X obj 707 -405 outlet;
#X obj -364 -386 tabwrite f1;
#X obj -210 -392 tabwrite f2;
#X obj 157 -430 tabwrite f4;
#X obj 503 -648 tabwrite f6;
#X obj 713 -447 tabwrite f7;
#X obj -21 -379 tabwrite f3;
#X obj 330 -412 tabwrite f5;
#X floatatom -149 34 5 0 0 0 - - -;
#X floatatom -5 68 5 0 0 0 - - -;
#X floatatom 155 56 5 0 0 0 - - -;
#X floatatom 342 57 5 0 0 0 - - -;
#X floatatom 485 50 5 0 0 0 - - -;
#X floatatom 633 51 5 0 0 0 - - -;
#X floatatom 786 58 5 0 0 0 - - -;
#X obj -140 103 min;
#X floatatom -153 163 5 0 0 0 - - -;
#X obj 11 115 min;
#X floatatom 14 174 5 0 0 0 - - -;
#X obj -147 223 max;
#X floatatom -147 287 5 0 0 0 - - -;
#X obj -8 230 max;
#X floatatom -8 285 5 0 0 0 - - -;
#X obj 140 122 min;
#X floatatom 131 183 5 0 0 0 - - -;
#X obj 140 242 max;
#X floatatom 156 302 5 0 0 0 - - -;
#X obj 281 93 min;
#X floatatom 346 94 5 0 0 0 - - -;
#X obj 282 128 max;
#X floatatom 348 128 5 0 0 0 - - -;
#X obj 481 111 min;
#X floatatom 480 172 5 0 0 0 - - -;
#X obj 481 231 max;
#X floatatom 481 286 5 0 0 0 - - -;
#X obj 635 129 min;
#X floatatom 634 190 5 0 0 0 - - -;
#X obj 635 249 max;
#X floatatom 635 304 5 0 0 0 - - -;
#X obj 797 145 min;
#X floatatom 796 206 5 0 0 0 - - -;
#X obj 797 265 max;
#X floatatom 797 320 5 0 0 0 - - -;
#X floatatom -234 31 5 0 0 0 - - -;
#X msg -236 -26 1000;
#X floatatom -237 221 5 0 0 0 - - -;
#X obj -152 345 s f1Mx;
#X obj -14 347 s f2Mx;
#X obj 152 355 s f3Mx;
#X obj 345 187 s f4Mx;
#X obj 483 374 s f5Mx;
#X obj 629 378 s f6Mx;
#X obj 787 380 s f7Mx;
#X obj -164 404 s f1Mn;
#X obj 134 415 s f3Mn;
#X obj 345 157 s f4Mn;
#X obj 635 435 s f6Mn;
#X obj 801 442 s f7Mn;
#X obj 482 430 s f5Mn;
#X obj -16 407 s f2Mn;
#X msg -239 164 -1000;
#X obj -147 -21 r f1;
#X obj -379 -605 r f1;
#X obj -371 -658 r f1Mx;
#X obj -381 -554 r f1Mn;
#N canvas 0 50 1912 978 Norm 0;
#X floatatom -1610 58 5 0 0 0 - - -;
#X obj -1612 6 expr (($f1 - $f2) / ($f3 - $f2)) * 100;
#X obj -1616 150 outlet;
#X obj -1595 -161 inlet;
#X obj -1141 -150 inlet;
#X obj -971 -173 inlet;
#X connect 0 0 2 0;
#X connect 1 0 0 0;
#X connect 3 0 1 0;
#X connect 4 0 1 1;
#X connect 5 0 1 2;
#X restore -367 -447 pd Norm;
#N canvas 0 50 1912 978 Norm 0;
#X floatatom -1610 58 5 0 0 0 - - -;
#X obj -1612 6 expr (($f1 - $f2) / ($f3 - $f2)) * 100;
#X obj -1616 150 outlet;
#X obj -1595 -161 inlet;
#X obj -1141 -150 inlet;
#X obj -971 -173 inlet;
#X connect 0 0 2 0;
#X connect 1 0 0 0;
#X connect 3 0 1 0;
#X connect 4 0 1 1;
#X connect 5 0 1 2;
#X restore -205 -457 pd Norm;
#N canvas 0 50 1902 978 Norm 0;
#X floatatom -1449 192 5 0 0 0 - - -;
#X obj -1451 140 expr (($f1 - $f2) / ($f3 - $f2)) * 100;
#X obj -1455 284 outlet;
#X obj -1434 -27 inlet;
#X obj -1240 -29 inlet;
#X obj -1025 -25 inlet;
#X connect 0 0 2 0;
#X connect 1 0 0 0;
#X connect 3 0 1 0;
#X connect 4 0 1 1;
#X connect 5 0 1 2;
#X restore -7 -479 pd Norm;
#N canvas 0 50 1912 978 Norm 0;
#X floatatom -1610 58 5 0 0 0 - - -;
#X obj -1612 6 expr (($f1 - $f2) / ($f3 - $f2)) * 100;
#X obj -1616 150 outlet;
#X obj -1595 -161 inlet;
#X obj -1141 -150 inlet;
#X obj -971 -173 inlet;
#X connect 0 0 2 0;
#X connect 1 0 0 0;
#X connect 3 0 1 0;
#X connect 4 0 1 1;
#X connect 5 0 1 2;
#X restore 501 -481 pd Norm;
#N canvas 0 50 1912 978 Norm 0;
#X floatatom -1610 58 5 0 0 0 - - -;
#X obj -1612 6 expr (($f1 - $f2) / ($f3 - $f2)) * 100;
#X obj -1616 150 outlet;
#X obj -1595 -161 inlet;
#X obj -1141 -150 inlet;
#X obj -971 -173 inlet;
#X connect 0 0 2 0;
#X connect 1 0 0 0;
#X connect 3 0 1 0;
#X connect 4 0 1 1;
#X connect 5 0 1 2;
#X restore 332 -451 pd Norm;
#N canvas 0 50 1912 978 Norm 0;
#X floatatom -1610 58 5 0 0 0 - - -;
#X obj -1612 6 expr (($f1 - $f2) / ($f3 - $f2)) * 100;
#X obj -1616 150 outlet;
#X obj -1595 -161 inlet;
#X obj -1141 -150 inlet;
#X obj -971 -173 inlet;
#X connect 0 0 2 0;
#X connect 1 0 0 0;
#X connect 3 0 1 0;
#X connect 4 0 1 1;
#X connect 5 0 1 2;
#X restore 699 -492 pd Norm;
#X obj -220 -607 r f2;
#X obj 20 -639 r f3;
#X obj 149 -642 r f4;
#X obj 334 -539 r f5;
#X obj 528 -564 r f6;
#X obj 701 -591 r f7;
#X obj -218 -662 r f2Mx;
#X obj -222 -554 r f2Mn;
#X obj 20 -692 r f3Mx;
#X obj 19 -588 r f3Mn;
#X obj 152 -692 r f4Mx;
#X obj 149 -581 r f4Mn;
#X obj 334 -589 r f5Mx;
#X obj 334 -487 r f5Mn;
#X obj 535 -616 r f6Mx;
#X obj 528 -516 r f6Mn;
#X obj 701 -642 r f7Mx;
#X obj 701 -535 r f7Mn;
#X obj -280 -101 bng 15 250 50 0 empty empty empty 17 7 0 10 -262144
-1 -1;
#N canvas 0 57 1024 675 NormSCntr 0;
#X floatatom 163 333 5 0 0 0 - - -;
#X obj 157 425 outlet;
#X obj 178 114 inlet;
#X obj 380 129 inlet;
#X obj 463 128 inlet;
#X obj 151 239 expr (($f1 - $f2)/($f3-$f2))*100;
#X connect 0 0 1 0;
#X connect 2 0 5 0;
#X connect 3 0 5 1;
#X connect 4 0 5 2;
#X connect 5 0 0 0;
#X restore 152 -480 pd NormSCntr;
#X obj -361 -144 inlet;
#X obj -313 -69 counter 2 1 20;
#X obj -330 130 * -1;
#X text 80 -791 Does normalization of the values coming from the Spectral
Analysis.;
#X text -43 -268 Setting the Max and Min values to be used in the normalization.
This can be improved so that the max and min is more adaptive to a
more narrow time frame \, rather than all the data that has come through
the system.;
#X obj -355 -246 list_normalizedAndStats;
#X connect 0 0 21 0;
#X connect 1 0 22 0;
#X connect 2 0 23 0;
#X connect 3 0 24 0;
#X connect 4 0 25 0;
#X connect 5 0 26 0;
#X connect 20 0 27 0;
#X connect 20 0 31 0;
#X connect 21 0 29 0;
#X connect 21 0 33 0;
#X connect 22 0 35 0;
#X connect 22 0 37 0;
#X connect 23 0 39 0;
#X connect 23 0 41 0;
#X connect 24 0 43 0;
#X connect 24 0 45 0;
#X connect 25 0 47 0;
#X connect 25 0 49 0;
#X connect 26 0 51 0;
#X connect 26 0 53 0;
#X connect 27 0 28 0;
#X connect 28 0 27 1;
#X connect 28 0 65 0;
#X connect 29 0 30 0;
#X connect 30 0 29 1;
#X connect 30 0 71 0;
#X connect 31 0 32 0;
#X connect 32 0 31 1;
#X connect 32 0 58 0;
#X connect 33 0 34 0;
#X connect 34 0 33 1;
#X connect 34 0 59 0;
#X connect 35 0 36 0;
#X connect 36 0 35 1;
#X connect 36 0 66 0;
#X connect 37 0 38 0;
#X connect 38 0 37 1;
#X connect 38 0 60 0;
#X connect 39 0 40 0;
#X connect 40 0 39 1;
#X connect 40 0 67 0;
#X connect 41 0 42 0;
#X connect 42 0 41 1;
#X connect 42 0 61 0;
#X connect 43 0 44 0;
#X connect 44 0 43 1;
#X connect 44 0 70 0;
#X connect 45 0 46 0;
#X connect 46 0 45 1;
#X connect 46 0 62 0;
#X connect 47 0 48 0;
#X connect 48 0 47 1;
#X connect 48 0 68 0;
#X connect 49 0 50 0;
#X connect 50 0 49 1;
#X connect 50 0 63 0;
#X connect 51 0 52 0;
#X connect 52 0 51 1;
#X connect 53 0 54 0;
#X connect 54 0 53 1;
#X connect 55 0 28 0;
#X connect 55 0 30 0;
#X connect 55 0 36 0;
#X connect 55 0 40 0;
#X connect 55 0 44 0;
#X connect 55 0 48 0;
#X connect 55 0 52 0;
#X connect 56 0 55 0;
#X connect 57 0 32 0;
#X connect 57 0 34 0;
#X connect 57 0 38 0;
#X connect 57 0 42 0;
#X connect 57 0 46 0;
#X connect 57 0 50 0;
#X connect 57 0 54 0;
#X connect 72 0 57 0;
#X connect 73 0 20 0;
#X connect 74 0 77 0;
#X connect 75 0 77 2;
#X connect 76 0 77 1;
#X connect 77 0 13 0;
#X connect 77 0 6 0;
#X connect 78 0 7 0;
#X connect 78 0 14 0;
#X connect 79 0 8 0;
#X connect 79 0 18 0;
#X connect 80 0 16 0;
#X connect 80 0 11 0;
#X connect 81 0 19 0;
#X connect 81 0 10 0;
#X connect 82 0 12 0;
#X connect 82 0 17 0;
#X connect 83 0 78 0;
#X connect 84 0 79 0;
#X connect 85 0 102 0;
#X connect 86 0 81 0;
#X connect 87 0 80 0;
#X connect 88 0 82 0;
#X connect 89 0 78 2;
#X connect 90 0 78 1;
#X connect 91 0 79 2;
#X connect 92 0 79 1;
#X connect 93 0 102 2;
#X connect 94 0 102 1;
#X connect 95 0 81 2;
#X connect 96 0 81 1;
#X connect 97 0 80 2;
#X connect 98 0 80 1;
#X connect 99 0 82 2;
#X connect 100 0 82 1;
#X connect 101 0 104 0;
#X connect 102 0 9 0;
#X connect 102 0 15 0;
#X connect 103 0 101 0;
#X connect 103 0 104 0;
#X connect 104 0 56 0;
#X connect 104 0 105 0;
#X connect 105 0 72 0;
#X restore -287 -1761 pd recieves;
#X obj -518 -387 counter 3 1 50;
#X obj -207 -1695 hsl 222 22 0 100 0 0 empty empty zcr -2 -22 0 22
-131073 -262144 -1 0 1;
#X obj -211 -1639 hsl 222 22 0 100 0 0 empty empty e_energy -2 -22
0 22 -131073 -262144 -33289 0 1;
#X obj -215 -1500 hsl 222 22 0 244 0 0 empty empty s_centroid -2 -22
0 22 -86277 -262144 -33289 0 1;
#X obj -213 -1568 hsl 222 22 0 350 0 0 empty empty e_entropy -2 -22
0 22 -131073 -262144 -33289 0 1;
#X obj -218 -1375 hsl 222 22 0 100 0 0 empty empty s_entropy -2 -22
0 22 -1 -262144 -33289 0 1;
#X obj -217 -1436 hsl 222 22 0 100 0 0 empty empty s_spread -2 -22
0 22 -131073 -262144 -1 0 1;
#X floatatom -289 -1698 5 0 0 0 - - -;
#X floatatom -288 -1569 5 0 0 0 - - -;
#X floatatom -295 -1640 5 0 0 0 - - -;
#X floatatom -295 -1500 5 0 0 0 - - -;
#X floatatom -295 -1436 5 0 0 0 - - -;
#X floatatom -297 -1375 5 0 0 0 - - -;
#X floatatom 252 -339 4 0 0 0 - - -;
#X msg -521 -559 set 1;
#N canvas 2 129 1009 675 oscPlayer 0;
#X obj 444 306 osc~;
#X msg 646 13 300;
#X msg 734 17 400;
#X msg 780 74 500;
#X msg 782 135 1000;
#X msg 791 210 100;
#X obj 416 118 tgl 15 0 empty empty empty 17 7 0 10 -262144 -1 -1 0
1;
#X obj 646 540 s counterReset;
#X obj 647 503 bng 15 250 50 0 empty empty empty 17 7 0 10 -262144
-1 -1;
#X floatatom 654 436 5 0 0 0 - - -;
#X obj 635 355 counter 2 200 333;
#X obj 492 533 outlet~;
#X obj 366 35 inlet;
#X obj 649 279 metro 333;
#X obj 517 37 inlet;
#X floatatom 486 185 5 0 0 0 - - -;
#X obj 388 363 *~ 0.2;
#X obj 484 128 expr ($f1 * 100)-440;
#X connect 0 0 16 0;
#X connect 1 0 0 0;
#X connect 2 0 0 0;
#X connect 3 0 0 0;
#X connect 4 0 0 0;
#X connect 5 0 0 0;
#X connect 6 0 0 0;
#X connect 10 0 0 0;
#X connect 10 0 9 0;
#X connect 10 3 7 0;
#X connect 10 3 8 0;
#X connect 12 0 6 0;
#X connect 12 0 1 0;
#X connect 13 0 10 0;
#X connect 13 0 0 0;
#X connect 14 0 17 0;
#X connect 16 0 11 0;
#X connect 17 0 0 0;
#X connect 17 0 15 0;
#X restore -325 -638 pd oscPlayer;
#X obj -253 -449 bng 15 250 50 0 empty empty empty 17 7 0 10 -262144
-1 -1;
#X obj -189 -1225 750;
#X text -202 -1188 delay;
#X obj -224 -1317 hsl 222 22 0 100 0 0 empty empty s_flux -2 -22 0
22 -131073 -262144 -33289 0 1;
#X floatatom -297 -1317 5 0 0 0 - - -;
#X text 117 -1819 osc in # # # # # # # # # # # # # # # # # #;
#X obj -324 -674 r oscbang;
#X obj -645 -1785 s oscbang;
#X obj -644 -1807 bng 15 250 50 0 empty empty empty 17 7 0 10 -262144
-1 -1;
#X obj -180 -696 r freq;
#X obj -78 -1470 s freq;
#X obj -331 -819 *~ 0.8;
#X floatatom 416 -754 5 0 0 0 - - -;
#X obj -173 -1274 bng 15 250 50 0 empty empty empty 17 7 0 10 -262144
-1 -1;
#X obj -112 -1225 0.6;
#X floatatom -665 -1366 5 0 0 0 - - -;
#X obj 73 -1225 0.2;
#X text -325 -490 unpacking the OSC message;
#X text -423 -950 audio in;
#X text 130 -706 audio out;
#X text -75 -812 effects;
#X text -545 -776 lowering audio gain alittle;
#X floatatom -180 -638 5 0 0 0 - - -;
#X obj -644 -1842 r tableCount;
#X floatatom -638 -1570 5 0 0 0 - - -;
#X obj -520 -499 udpreceive 8100;
#X obj 1043 -599 import mrpeach;
#X obj -641 -1612 expr (($f1 - 20)/(80)) *1000;
#X obj -669 -1405 expr (($f1 - 22)/(30)) *1000;
#N canvas 0 0 1912 978 soundLogic 0;
#X obj 1301 -161 + 0;
#X obj 1359 -163 + 0;
#X floatatom 1304 -118 11 0 0 0 - - -;
#X obj 1239 -115 bng 15 250 50 0 empty empty empty 17 7 0 10 -262144
-1 -1;
#X text 1118 -197 add up the array then turn the counter off;
#X obj 1240 -85 / 50;
#X floatatom 1230 -31 5 0 0 0 - - -;
#N canvas 0 0 450 300 (subpatch) 0;
#X array my_array66 5 float 0;
#X array my_array77 8 float 0;
#X coords 0 1 8 -1 200 140 1;
#X restore 1679 -2 graph;
#X obj 1370 -20 loadbang;
#X msg 1118 30 \; my_array66 resize 5 \; my_array77 resize 8 \; my_array66
0.1 0.3 0.2 0.5 0.2 -0.1 \; my_array77 0.1 0.1 0.2 0.3 0.5 0.8 0.13
0.21 0.34;
#X obj 425 -626 tabdump f1;
#X obj 428 -674 bng 15 250 50 0 empty empty empty 17 7 0 10 -262144
-1 -1;
#X obj 571 -597 list \$1;
#X obj 274 -558 list length;
#X floatatom 329 -520 5 0 0 0 - - -;
#X msg 578 -671 set f2;
#X msg 504 -675 bang;
#X obj 557 -556 iter;
#X obj 425 -450 print avg;
#X obj 562 -505 print actual;
#X obj 422 -502 average 8;
#X obj -672 -1263 edge;
#X obj -672 -1291 nbx 5 14 -1e+037 1e+037 0 0 empty empty empty 0 -8
0 10 -262144 -1 -1 0 256;
#X obj -672 -1210 bng 15 250 50 0 empty empty empty 17 7 0 10 -262144
-1 -1;
#X obj -636 -1209 bng 15 250 50 0 empty empty empty 17 7 0 10 -262144
-1 -1;
#X obj -662 -1253 edge;
#X obj -662 -1281 nbx 5 14 -1e+037 1e+037 0 0 empty empty empty 0 -8
0 10 -262144 -1 -1 0 256;
#X obj -662 -1200 bng 15 250 50 0 empty empty empty 17 7 0 10 -262144
-1 -1;
#X obj -626 -1199 bng 15 250 50 0 empty empty empty 17 7 0 10 -262144
-1 -1;
#X obj -652 -1243 edge;
#X obj -652 -1271 nbx 5 14 -1e+037 1e+037 0 0 empty empty empty 0 -8
0 10 -262144 -1 -1 0 256;
#X obj -652 -1190 bng 15 250 50 0 empty empty empty 17 7 0 10 -262144
-1 -1;
#X obj -616 -1189 bng 15 250 50 0 empty empty empty 17 7 0 10 -262144
-1 -1;
#X obj -642 -1233 edge;
#X obj -642 -1261 nbx 5 14 -1e+037 1e+037 0 0 empty empty empty 0 -8
0 10 -262144 -1 -1 0 256;
#X obj -642 -1180 bng 15 250 50 0 empty empty empty 17 7 0 10 -262144
-1 -1;
#X obj -606 -1179 bng 15 250 50 0 empty empty empty 17 7 0 10 -262144
-1 -1;
#X obj 114 -704 metro 50;
#X obj 140 -644 bng 15 250 50 0 empty empty empty 17 7 0 10 -262144
-1 -1;
#X connect 0 0 1 0;
#X connect 0 0 2 0;
#X connect 1 0 0 1;
#X connect 2 0 5 1;
#X connect 3 0 5 0;
#X connect 5 0 6 0;
#X connect 8 0 9 0;
#X connect 10 0 12 0;
#X connect 11 0 10 0;
#X connect 12 0 17 0;
#X connect 13 0 14 0;
#X connect 15 0 10 0;
#X connect 16 0 10 0;
#X connect 17 0 19 0;
#X connect 17 0 20 0;
#X connect 20 0 18 0;
#X connect 21 0 23 0;
#X connect 21 1 24 0;
#X connect 22 0 21 0;
#X connect 25 0 27 0;
#X connect 25 1 28 0;
#X connect 26 0 25 0;
#X connect 29 0 31 0;
#X connect 29 1 32 0;
#X connect 30 0 29 0;
#X connect 33 0 35 0;
#X connect 33 1 36 0;
#X connect 34 0 33 0;
#X connect 37 0 38 0;
#X restore -655 -1701 pd soundLogic;
#X obj -735 -936 bng 15 250 50 0 empty empty empty 17 7 0 10 -262144
-1 -1;
#N canvas 0 0 450 300 testAudioStuff 0;
#X obj -738 -1010 threshold~ 0 0 0 0;
#X text -744 -1052 additional zero crossing rate test;
#X obj -730 -1143 inlet~;
#X text -803 -958 bang when zcr;
#X restore -705 -933 pd testAudioStuff;
#X obj -532 -1209 + 1;
#X obj -632 -1223 edge;
#X obj -632 -1251 nbx 5 14 -1e+037 1e+037 0 0 empty empty empty 0 -8
0 10 -262144 -1 -1 0 256;
#X obj -632 -1170 bng 15 250 50 0 empty empty empty 17 7 0 10 -262144
-1 -1;
#X obj -596 -1169 bng 15 250 50 0 empty empty empty 17 7 0 10 -262144
-1 -1;
#N canvas 0 0 1902 968 recievesChunk 0;
#X obj -5 31 r f2;
#X obj 144 0 r f3;
#X obj 276 68 r f4;
#X obj 484 0 r f5;
#X obj 633 -26 r f6;
#X obj 772 -26 r f7;
#X obj -407 -581 outlet;
#X obj -243 -573 outlet;
#X obj -56 -576 outlet;
#X obj 150 -571 outlet;
#X obj 337 -579 outlet;
#X obj 506 -591 outlet;
#X obj -403 -309 tabwrite f1;
#X obj -256 -308 tabwrite f2;
#X obj 138 -301 tabwrite f4;
#X obj 498 -303 tabwrite f6;
#X obj -66 -306 tabwrite f3;
#X obj 308 -304 tabwrite f5;
#X floatatom -147 32 5 0 0 0 - - -;
#X floatatom -5 89 5 0 0 0 - - -;
#X floatatom 155 68 5 0 0 0 - - -;
#X floatatom 342 68 5 0 0 0 - - -;
#X floatatom 484 58 5 0 0 0 - - -;
#X floatatom 633 68 5 0 0 0 - - -;
#X floatatom 786 68 5 0 0 0 - - -;
#X obj -140 103 min;
#X floatatom -153 164 5 0 0 0 - - -;
#X obj -5 146 min;
#X floatatom 14 164 5 0 0 0 - - -;
#X obj -153 221 max;
#X floatatom -147 287 5 0 0 0 - - -;
#X obj -8 221 max;
#X floatatom -8 287 5 0 0 0 - - -;
#X obj 140 130 min;
#X floatatom 140 188 5 0 0 0 - - -;
#X obj 149 253 max;
#X floatatom 151 315 5 0 0 0 - - -;
#X obj 276 126 min;
#X floatatom 342 125 5 0 0 0 - - -;
#X obj 276 184 max;
#X floatatom 342 182 5 0 0 0 - - -;
#X obj 484 115 min;
#X floatatom 484 173 5 0 0 0 - - -;
#X obj 484 230 max;
#X floatatom 484 288 5 0 0 0 - - -;
#X obj 635 130 min;
#X floatatom 635 188 5 0 0 0 - - -;
#X obj 635 249 max;
#X floatatom 635 307 5 0 0 0 - - -;
#X obj 797 130 min;
#X floatatom 796 221 5 0 0 0 - - -;
#X obj 796 278 max;
#X floatatom 796 336 5 0 0 0 - - -;
#X floatatom -236 32 5 0 0 0 - - -;
#X msg -236 -26 1000;
#X floatatom -239 222 5 0 0 0 - - -;
#X obj -147 344 s f1Mx;
#X obj -8 344 s f2Mx;
#X obj 146 408 s f3Mx;
#X obj 342 239 s f4Mx;
#X obj 483 374 s f5Mx;
#X obj 629 374 s f6Mx;
#X obj 796 393 s f7Mx;
#X obj -147 402 s f1Mn;
#X obj 126 365 s f3Mn;
#X obj 345 164 s f4Mn;
#X obj 629 432 s f6Mn;
#X obj 796 451 s f7Mn;
#X obj 483 432 s f5Mn;
#X obj -8 402 s f2Mn;
#X msg -239 164 -1000;
#X obj -147 -26 r f1;
#X obj -309 -875 r f1;
#X obj -111 -873 r f2;
#X obj 77 -881 r f3;
#X obj 267 -871 r f4;
#X obj 445 -885 r f5;
#X obj 638 -891 r f6;
#X obj 815 -892 r f7;
#X obj -280 -101 bng 15 250 50 0 empty empty empty 17 7 0 10 -262144
-1 -1;
#X obj -361 -144 inlet;
#X obj -313 -69 counter 2 1 20;
#X obj -330 130 * -1;
#X text 101 -1022 Does normalization of the values coming from the
Spectral Analysis.;
#X text 225 -145 Setting the Max and Min values to be used in the normalization.
This can be improved so that the max and min is more adaptive to a
more narrow time frame \, rather than all the data that has come through
the system.;
#X obj -417 -998 tgl 15 0 empty empty empty 17 7 0 10 -262144 -1 -1
0 48;
#X text 386 243 clear;
#X obj -440 -976 metro 360;
#X obj -341 -1025 r mBang;
#X floatatom -423 -430 5 0 0 0 - - -;
#X obj -430 -919 bng 15 250 50 0 empty empty empty 17 7 0 10 -262144
-1 -1;
#X obj -425 -468 counter 3 1 50;
#X obj 705 -581 outlet;
#X obj -425 -818 list_pushAndPop;
#X obj -238 -818 list_pushAndPop;
#X obj -57 -817 list_pushAndPop;
#X obj 139 -819 list_pushAndPop;
#X obj 694 -818 list_pushAndPop;
#X obj 502 -817 list_pushAndPop;
#X obj 319 -819 list_pushAndPop;
#X obj -205 -699 list_normalizedAndStats;
#X connect 0 0 19 0;
#X connect 1 0 20 0;
#X connect 2 0 21 0;
#X connect 3 0 22 0;
#X connect 4 0 23 0;
#X connect 5 0 24 0;
#X connect 18 0 25 0;
#X connect 18 0 29 0;
#X connect 19 0 27 0;
#X connect 19 0 31 0;
#X connect 20 0 33 0;
#X connect 20 0 35 0;
#X connect 21 0 37 0;
#X connect 21 0 39 0;
#X connect 22 0 41 0;
#X connect 22 0 43 0;
#X connect 23 0 45 0;
#X connect 23 0 47 0;
#X connect 24 0 49 0;
#X connect 24 0 51 0;
#X connect 25 0 26 0;
#X connect 26 0 25 1;
#X connect 26 0 63 0;
#X connect 27 0 28 0;
#X connect 28 0 27 1;
#X connect 28 0 69 0;
#X connect 29 0 30 0;
#X connect 30 0 29 1;
#X connect 30 0 56 0;
#X connect 31 0 32 0;
#X connect 32 0 31 1;
#X connect 32 0 57 0;
#X connect 33 0 34 0;
#X connect 34 0 33 1;
#X connect 34 0 64 0;
#X connect 35 0 36 0;
#X connect 36 0 35 1;
#X connect 36 0 58 0;
#X connect 37 0 38 0;
#X connect 38 0 37 1;
#X connect 38 0 65 0;
#X connect 39 0 40 0;
#X connect 40 0 39 1;
#X connect 40 0 59 0;
#X connect 41 0 42 0;
#X connect 42 0 41 1;
#X connect 42 0 68 0;
#X connect 43 0 44 0;
#X connect 44 0 43 1;
#X connect 44 0 60 0;
#X connect 45 0 46 0;
#X connect 46 0 45 1;
#X connect 46 0 66 0;
#X connect 47 0 48 0;
#X connect 48 0 47 1;
#X connect 48 0 61 0;
#X connect 49 0 50 0;
#X connect 50 0 49 1;
#X connect 51 0 52 0;
#X connect 52 0 51 1;
#X connect 53 0 26 0;
#X connect 53 0 28 0;
#X connect 53 0 34 0;
#X connect 53 0 38 0;
#X connect 53 0 42 0;
#X connect 53 0 46 0;
#X connect 53 0 50 0;
#X connect 54 0 53 0;
#X connect 55 0 30 0;
#X connect 55 0 32 0;
#X connect 55 0 36 0;
#X connect 55 0 40 0;
#X connect 55 0 44 0;
#X connect 55 0 48 0;
#X connect 55 0 52 0;
#X connect 70 0 55 0;
#X connect 71 0 18 0;
#X connect 72 0 93 1;
#X connect 73 0 94 1;
#X connect 74 0 95 1;
#X connect 75 0 96 1;
#X connect 76 0 99 1;
#X connect 77 0 98 1;
#X connect 78 0 97 1;
#X connect 79 0 81 0;
#X connect 80 0 79 0;
#X connect 80 0 81 0;
#X connect 81 0 54 0;
#X connect 81 0 82 0;
#X connect 82 0 70 0;
#X connect 85 0 87 0;
#X connect 87 0 90 0;
#X connect 87 0 91 0;
#X connect 88 0 85 0;
#X connect 89 0 12 1;
#X connect 89 0 13 1;
#X connect 89 0 16 1;
#X connect 89 0 14 1;
#X connect 89 0 17 1;
#X connect 89 0 15 1;
#X connect 90 0 93 0;
#X connect 91 0 89 0;
#X connect 93 0 6 0;
#X connect 93 0 12 0;
#X connect 94 0 7 0;
#X connect 94 0 13 0;
#X connect 95 0 8 0;
#X connect 95 0 16 0;
#X connect 96 0 9 0;
#X connect 96 0 14 0;
#X connect 97 0 92 0;
#X connect 98 0 11 0;
#X connect 98 0 15 0;
#X connect 99 0 10 0;
#X connect 99 0 17 0;
#X restore 748 -1668 pd recievesChunk;
#X obj 52 -725 *~ 0.5;
#X connect 0 0 1 0;
#X connect 1 0 4 2;
#X connect 2 0 4 1;
#X connect 3 0 83 0;
#X connect 3 1 83 0;
#X connect 4 0 17 0;
#X connect 4 1 17 0;
#X connect 6 0 7 0;
#X connect 10 0 13 0;
#X connect 11 0 12 0;
#X connect 13 0 27 0;
#X connect 14 0 12 0;
#X connect 14 0 55 0;
#X connect 15 0 10 0;
#X connect 16 0 6 0;
#X connect 17 0 110 0;
#X connect 18 0 19 0;
#X connect 19 0 110 1;
#X connect 23 0 1 0;
#X connect 24 0 2 0;
#X connect 25 0 28 0;
#X connect 25 0 73 0;
#X connect 25 0 86 0;
#X connect 25 0 88 0;
#X connect 26 0 2 0;
#X connect 27 0 9 0;
#X connect 28 0 40 0;
#X connect 29 0 36 0;
#X connect 29 0 37 0;
#X connect 30 0 49 0;
#X connect 31 0 50 0;
#X connect 32 0 51 0;
#X connect 33 0 52 0;
#X connect 34 0 53 0;
#X connect 35 0 54 0;
#X connect 36 1 30 0;
#X connect 36 2 31 0;
#X connect 36 3 32 0;
#X connect 36 4 33 0;
#X connect 36 5 34 0;
#X connect 36 6 35 0;
#X connect 36 7 69 0;
#X connect 37 0 56 0;
#X connect 40 0 41 0;
#X connect 41 0 17 1;
#X connect 55 0 57 0;
#X connect 55 0 63 0;
#X connect 55 1 58 0;
#X connect 55 1 65 0;
#X connect 55 2 60 0;
#X connect 55 2 64 0;
#X connect 55 3 59 0;
#X connect 55 3 66 0;
#X connect 55 4 62 0;
#X connect 55 4 67 0;
#X connect 55 5 61 0;
#X connect 55 5 68 0;
#X connect 55 6 75 0;
#X connect 55 6 76 0;
#X connect 56 0 38 0;
#X connect 56 0 43 0;
#X connect 63 0 99 0;
#X connect 65 0 100 0;
#X connect 66 0 82 0;
#X connect 70 0 56 0;
#X connect 72 0 36 0;
#X connect 73 0 24 0;
#X connect 78 0 71 0;
#X connect 80 0 79 0;
#X connect 81 0 71 1;
#X connect 81 0 94 0;
#X connect 83 0 4 0;
#X connect 84 0 27 1;
#X connect 85 0 86 0;
#X connect 86 0 0 0;
#X connect 88 0 18 0;
#X connect 95 0 80 0;
#X connect 97 0 29 0;
#X connect 99 0 96 0;
#X connect 100 0 87 0;
#X connect 105 0 107 0;
#X connect 105 1 108 0;
#X connect 106 0 105 0;
#X connect 110 0 9 0;
#X connect 110 0 20 0;
#X connect 110 0 20 1;
#X coords 0 0 3 3 0 0 0;
