#N canvas 0 0 1902 968 24;
#X obj 555 460 throw~ outL;
#X obj 716 460 throw~ outR;
#X obj 392 175 r notes;
#X obj 392 228 pack 0 0 0;
#X obj 392 201 poly 8;
#X obj 566 195 route 1 2 3 4 5 6 7 8;
#X obj 972 1212 sig~;
#X obj 972 1234 lop~ 5;
#X obj 1165 1205 sig~;
#X obj 1165 1227 lop~ 5;
#X obj 972 1188 r knob2;
#X obj 1165 1183 r knob3;
#X obj 1351 1180 r knob4;
#X obj 973 1256 s~ smoothKnob2;
#X obj 1165 1249 s~ smoothKnob3;
#X obj 922 1323 i;
#X obj 1116 1340 i;
#X obj 1116 1315 * 100;
#X obj 1325 1273 i;
#X obj 922 1399 s screenLine2;
#X obj 1116 1416 s screenLine3;
#X obj 1325 1349 s screenLine4;
#X obj 77 912 loadbang;
#X msg 922 1373 2: Vibrato Rate \$1 Hz;
#X msg 1116 1390 3: Vibrato Depth \$1 %;
#X msg 1325 1322 4: Decay Time \$1 ms;
#X obj 90 1170 r aux;
#X obj 68 1272 i 0;
#X obj 138 1272 + 1;
#X floatatom 68 1342 5 0 0 0 - - -;
#X obj 90 1233 sel 1;
#X obj 68 1363 s led;
#X obj 922 1299 * 50;
#X obj 1326 1251 + 5;
#X obj 1326 1229 * 2000;
#X text 992 1194 smooth knobs 1-3 \, send param updates to screen;
#X text 75 890 screen lines;
#X obj 922 1346 change -1;
#X obj 1116 1363 change -1;
#X obj 1325 1296 change -1;
#X obj -36 1329 s waveform;
#X obj 68 1298 % 4;
#X obj 68 1320 + 2;
#X obj 68 1134 loadbang;
#X text 169 1269 the aux button changes waveform;
#X msg 77 935 \; screenLine1 1: Tune \; screenLine2 2: Vibrato Rate
\; screenLine3 3: Vibrato Depth \; screenLine4 4: Decay \; screenLine5
Aux: Wave \;;
#X obj 128 1345 sel 0 1 2 3;
#X msg 232 1381 Aux: Square Wave;
#X obj 232 1407 s screenLine5;
#X obj 128 1463 s screenLine5;
#X msg 128 1437 Aux: Sine Wave;
#X obj 336 1469 s screenLine5;
#X obj 440 1401 s screenLine5;
#X msg 336 1443 Aux: Sawtooth Wave;
#X msg 440 1375 Aux: Triangle Wave;
#X text 416 143 basic polyphonic patch with 8 voices;
#X obj 165 1168 r fs;
#X text 797 256 aircraft carrier;
#X obj 929 1230 t f f;
#X obj 929 1252 *;
#X obj 779 1358 send~ f;
#X obj 778 1302 sig~;
#X obj 777 1333 lop~ 5;
#X obj 723 1432 change -1;
#X obj 778 1231 / 100;
#X obj 778 1253 mtof;
#X obj 778 1275 / 8.1785;
#X obj 775 1206 * 2400;
#X obj 772 1181 r knob1;
#X msg 723 1458 1: Tune \$1 cents;
#X obj 723 1482 s screenLine1;
#X obj 722 1405 i;
#X obj 589 305 voice;
#X obj 518 305 voice;
#X obj 448 304 voice;
#X obj 800 307 voice;
#X obj 730 306 voice;
#X obj 941 306 voice;
#X obj 659 305 voice;
#X obj 871 305 voice;
#X obj 606 373 *~ 0.3;
#X obj 327 507 loadbang;
#X obj 329 556 s G_loadbang;
#X obj 387 731 r G_loadbang;
#X obj 81 832 s waveform;
#X obj 440 485 bng 66 250 50 0 empty empty empty 17 7 0 66 -260097
-1 -1;
#X obj 166 799 2;
#X obj 230 840 s knob1;
#X obj 227 803 0.1;
#X obj 323 802 0.1;
#X obj 326 839 s knob2;
#X obj 419 804 0.1;
#X obj 422 841 s knob3;
#X obj 526 805 0.1;
#X obj 529 842 s knob4;
#X floatatom 426 946 5 0 0 0 - - -;
#X floatatom 430 978 5 0 0 0 - - -;
#X floatatom 434 1011 5 0 0 0 - - -;
#X floatatom 435 1047 5 0 0 0 - - -;
#X obj 1105 811 snapshot~;
#X floatatom 1113 861 5 0 0 0 - - -;
#X obj 1406 863 s notes;
#X obj 1288 779 env~;
#X floatatom 1286 821 5 0 0 0 - - -;
#X floatatom 1142 582 5 0 0 0 - - -;
#X obj 1061 622 osc~ 777;
#X obj 16 566 s pitchChange;
#X obj 1353 308 r pitchChange;
#X obj 1388 714 throw~ outL;
#X obj 10 599 s ampChange;
#X obj 1353 379 *;
#X obj 1353 346 t f f;
#X obj 1360 420 sig~;
#X obj 1102 665 *~;
#X obj 11 437 bng 15 250 50 0 empty empty empty 17 7 0 10 -262144 -1
-1;
#X floatatom 62 534 5 0 0 0 - - -;
#X obj 1195 921 * 127;
#X floatatom 1258 979 5 0 0 0 - - -;
#X obj 1265 948 mtof;
#X obj 1541 908 pack 0 0;
#X obj 1503 967 print;
#X obj 1539 867 delay 555;
#X obj 543 253 bng 15 250 50 0 empty empty empty 17 7 0 10 -262144
-1 -1;
#X obj 584 251 bng 15 250 50 0 empty empty empty 17 7 0 10 -262144
-1 -1;
#X obj 1262 1014 pack 0 100;
#X obj 506 691 s metroPluck;
#X obj 39 410 r metroPluck;
#X obj 1296 660 throw~ outR;
#X obj 1102 776 r metroPluck;
#X obj 1347 565 *~;
#X obj 446 656 metro 755;
#X obj 42 498 / 1;
#X obj 1362 503 lop~ 2;
#X obj 1064 717 +~ 0;
#X obj 39 468 random 10;
#X text 1386 458 reduces some zippary sound;
#X obj 29 193 threshold~ 1.92 19 1 10;
#X connect 2 0 4 0;
#X connect 3 0 5 0;
#X connect 4 0 3 0;
#X connect 4 1 3 1;
#X connect 4 2 3 2;
#X connect 5 0 74 0;
#X connect 5 0 122 0;
#X connect 5 1 73 0;
#X connect 5 1 123 0;
#X connect 5 2 72 0;
#X connect 5 3 78 0;
#X connect 5 4 76 0;
#X connect 5 5 75 0;
#X connect 5 6 79 0;
#X connect 5 7 77 0;
#X connect 6 0 7 0;
#X connect 7 0 13 0;
#X connect 8 0 9 0;
#X connect 9 0 14 0;
#X connect 10 0 6 0;
#X connect 10 0 58 0;
#X connect 11 0 8 0;
#X connect 11 0 17 0;
#X connect 12 0 34 0;
#X connect 15 0 37 0;
#X connect 16 0 38 0;
#X connect 17 0 16 0;
#X connect 18 0 39 0;
#X connect 22 0 45 0;
#X connect 23 0 19 0;
#X connect 24 0 20 0;
#X connect 25 0 21 0;
#X connect 26 0 30 0;
#X connect 27 0 28 0;
#X connect 27 0 41 0;
#X connect 28 0 27 1;
#X connect 29 0 31 0;
#X connect 30 0 27 0;
#X connect 32 0 15 0;
#X connect 33 0 18 0;
#X connect 34 0 33 0;
#X connect 37 0 23 0;
#X connect 38 0 24 0;
#X connect 39 0 25 0;
#X connect 41 0 42 0;
#X connect 41 0 40 0;
#X connect 41 0 46 0;
#X connect 42 0 29 0;
#X connect 43 0 27 0;
#X connect 46 0 50 0;
#X connect 46 1 47 0;
#X connect 46 2 53 0;
#X connect 46 3 54 0;
#X connect 47 0 48 0;
#X connect 50 0 49 0;
#X connect 53 0 51 0;
#X connect 54 0 52 0;
#X connect 56 0 30 0;
#X connect 58 0 59 0;
#X connect 58 1 59 1;
#X connect 59 0 32 0;
#X connect 61 0 62 0;
#X connect 62 0 60 0;
#X connect 63 0 69 0;
#X connect 64 0 65 0;
#X connect 65 0 66 0;
#X connect 66 0 61 0;
#X connect 67 0 64 0;
#X connect 67 0 71 0;
#X connect 68 0 67 0;
#X connect 69 0 70 0;
#X connect 71 0 63 0;
#X connect 72 0 80 0;
#X connect 73 0 80 0;
#X connect 74 0 80 0;
#X connect 75 0 80 0;
#X connect 76 0 80 0;
#X connect 77 0 80 0;
#X connect 78 0 80 0;
#X connect 79 0 80 0;
#X connect 80 0 0 0;
#X connect 80 0 1 0;
#X connect 81 0 82 0;
#X connect 83 0 86 0;
#X connect 83 0 88 0;
#X connect 83 0 89 0;
#X connect 83 0 91 0;
#X connect 83 0 93 0;
#X connect 83 0 130 0;
#X connect 85 0 82 0;
#X connect 86 0 84 0;
#X connect 88 0 87 0;
#X connect 88 0 95 0;
#X connect 89 0 90 0;
#X connect 89 0 96 0;
#X connect 91 0 92 0;
#X connect 91 0 97 0;
#X connect 93 0 94 0;
#X connect 93 0 98 0;
#X connect 99 0 100 0;
#X connect 100 0 116 0;
#X connect 102 0 103 0;
#X connect 104 0 105 1;
#X connect 105 0 113 0;
#X connect 107 0 111 0;
#X connect 110 0 112 0;
#X connect 111 0 110 0;
#X connect 111 1 110 1;
#X connect 112 0 132 0;
#X connect 113 0 133 0;
#X connect 113 0 127 0;
#X connect 114 0 134 0;
#X connect 116 0 118 0;
#X connect 117 0 119 0;
#X connect 117 0 124 0;
#X connect 118 0 117 0;
#X connect 119 0 120 0;
#X connect 121 0 119 0;
#X connect 126 0 114 0;
#X connect 128 0 99 0;
#X connect 129 0 113 1;
#X connect 130 0 125 0;
#X connect 131 0 106 0;
#X connect 131 0 115 0;
#X connect 131 0 109 0;
#X connect 132 0 129 0;
#X connect 132 0 129 1;
#X connect 133 0 102 0;
#X connect 133 0 99 0;
#X connect 134 0 106 0;
#X connect 134 0 131 0;
