#N canvas 632 20 1082 940 24;
#X obj 790 617 cnv 15 244 244 empty empty RELEASE_OF_KEYBOARD 20 12
0 22 -159808 -262144 0;
#X obj 304 142 mtof;
#X obj 304 191 sig~;
#X obj 303 325 *~;
#X text 379 37 note messages;
#X obj 313 501 +~;
#X obj 359 444 osc~;
#X text 336 255 knob 1 controls overall pitch;
#X text 389 310 knobs 2 and 3 control pitch modulation (speed and depth)
;
#X obj 799 754 f;
#X obj 799 712 bng 15 250 50 0 empty empty empty 17 7 0 10 -262144
-1 -1;
#X obj 799 819 line~;
#X msg 799 790 0 \$1;
#X msg 965 746 1 5;
#X obj 965 707 bng 15 250 50 0 empty empty empty 17 7 0 10 -262144
-1 -1;
#X obj 304 96 unpack;
#X obj 889 542 sel 0;
#X obj 304 44 inlet;
#X obj 317 864 outlet~;
#X obj 367 343 r~ smoothKnob2;
#X obj 358 410 *~ 50;
#X obj 543 410 *~ 100;
#X obj 546 343 r~ smoothKnob3;
#X obj 819 711 + 10;
#X obj 819 659 r knob4;
#X obj 356 474 *~;
#X obj 819 685 * 2000;
#X text 837 757 decay time;
#X obj 359 379 *~;
#X obj 542 379 *~;
#X text 685 15 synth voice with waveform change;
#X obj 791 894 *~;
#X obj 331 283 r~ f;
#X obj 33 635 osc~ 440;
#X obj 311 817 *~;
#X obj 312 546 /~ 4;
#X obj 458 677 blsaw;
#X obj 236 683 s_blsquare;
#X obj 61 285 r waveform;
#X msg 336 627 0;
#X msg 366 690 1;
#X msg 553 705 1;
#X msg 66 684 1;
#N canvas 7 50 727 452 triangle 0;
#X obj 130 207 outlet~;
#X obj 131 65 inlet~;
#N canvas 699 258 779 606 triangle 0;
#X obj 80 290 -~ 0.5;
#X obj 228 290 -~ 0.5;
#X obj 134 340 -~;
#X obj 220 480 outlet~;
#X obj 80 91 phasor~ 0;
#X text 131 55 frequency;
#X obj 228 236 wrap~;
#N canvas 0 50 540 420 4*$v1*(1-$v1) 0;
#X obj 182 177 *~ 4;
#X obj 132 177 sig~ 1;
#X obj 132 200 -~;
#X obj 132 228 *~;
#X obj 182 76 inlet~;
#X obj 132 253 outlet~;
#X connect 0 0 3 1;
#X connect 1 0 2 0;
#X connect 2 0 3 0;
#X connect 3 0 5 0;
#X connect 4 0 2 1;
#X connect 4 0 0 0;
#X restore 228 262 pd 4*$v1*(1-$v1);
#N canvas 0 50 540 420 4*$v1*(1-$v1) 0;
#X obj 182 177 *~ 4;
#X obj 132 177 sig~ 1;
#X obj 132 200 -~;
#X obj 132 228 *~;
#X obj 182 76 inlet~;
#X obj 132 253 outlet~;
#X connect 0 0 3 1;
#X connect 1 0 2 0;
#X connect 2 0 3 0;
#X connect 3 0 5 0;
#X connect 4 0 2 1;
#X connect 4 0 0 0;
#X restore 79 261 pd 4*$v1*(1-$v1);
#X text 489 64 tri-saw factor (0-1);
#X obj 80 54 inlet~;
#X obj 430 66 inlet;
#X obj 430 89 clip 0.01 0.99;
#X obj 294 372 line~;
#X obj 294 350 pack 0 10;
#N canvas 0 50 540 420 4*$f1*(1-$f1) 0;
#X obj 185 177 * 4;
#X obj 137 72 inlet;
#X msg 137 171 1 \$1;
#X obj 137 200 -;
#X obj 137 228 *;
#X obj 137 107 t a a;
#X obj 137 253 outlet;
#X connect 0 0 4 1;
#X connect 1 0 5 0;
#X connect 2 0 3 0;
#X connect 3 0 4 0;
#X connect 4 0 6 0;
#X connect 5 0 2 0;
#X connect 5 1 0 0;
#X restore 430 290 pd 4*$f1*(1-$f1);
#X obj 245 151 line~;
#X obj 245 129 pack 0 10;
#X obj 227 177 +~;
#X obj 245 77 loadbang;
#X msg 245 98 0.5;
#X obj 220 414 /~;
#X obj 294 297 loadbang;
#X msg 294 318 1;
#X obj 241 45 inlet;
#X connect 0 0 2 0;
#X connect 1 0 2 1;
#X connect 2 0 21 0;
#X connect 4 0 8 0;
#X connect 4 0 18 0;
#X connect 6 0 7 0;
#X connect 7 0 1 0;
#X connect 8 0 0 0;
#X connect 10 0 4 0;
#X connect 11 0 12 0;
#X connect 12 0 15 0;
#X connect 12 0 17 0;
#X connect 13 0 21 1;
#X connect 14 0 13 0;
#X connect 15 0 14 0;
#X connect 16 0 18 1;
#X connect 17 0 16 0;
#X connect 18 0 6 0;
#X connect 19 0 20 0;
#X connect 20 0 17 0;
#X connect 21 0 3 0;
#X connect 22 0 23 0;
#X connect 23 0 14 0;
#X connect 24 0 4 1;
#X restore 130 162 pd triangle;
#X text 202 48 slope;
#X obj 189 96 loadbang;
#X msg 194 123 0.5;
#X connect 1 0 2 0;
#X connect 2 0 0 0;
#X connect 4 0 5 0;
#X connect 5 0 2 2;
#X restore 614 673 pd triangle;
#X obj 65 440 sel 0 1 2 3;
#X msg 637 707 1;
#X text 62 526 change waveform;
#X obj 33 353 delay 2;
#X obj 100 397 f;
#X obj 68 314 t b a b;
#X obj 31 751 smoothswitch;
#X obj 242 747 smoothswitch;
#X obj 456 746 smoothswitch;
#X obj 610 736 smoothswitch;
#X obj 49 180 r metroCount;
#X text 778 578 selects note off messages;
#X text 131 354 set the number;
#X floatatom 94 496 5 0 0 0 - - -;
#X connect 1 0 2 0;
#X connect 2 0 3 0;
#X connect 3 0 5 0;
#X connect 5 0 35 0;
#X connect 6 0 25 0;
#X connect 9 0 12 0;
#X connect 10 0 9 0;
#X connect 11 0 31 1;
#X connect 11 0 31 0;
#X connect 12 0 11 0;
#X connect 13 0 11 0;
#X connect 14 0 13 0;
#X connect 15 0 1 0;
#X connect 15 1 16 0;
#X connect 16 0 10 0;
#X connect 16 1 14 0;
#X connect 17 0 15 0;
#X connect 19 0 28 1;
#X connect 19 0 28 0;
#X connect 20 0 6 0;
#X connect 21 0 25 1;
#X connect 22 0 29 1;
#X connect 22 0 29 0;
#X connect 23 0 9 1;
#X connect 24 0 26 0;
#X connect 25 0 5 1;
#X connect 26 0 23 0;
#X connect 28 0 20 0;
#X connect 29 0 21 0;
#X connect 31 0 34 1;
#X connect 32 0 3 1;
#X connect 33 0 50 0;
#X connect 34 0 18 0;
#X connect 35 0 33 0;
#X connect 35 0 36 0;
#X connect 35 0 37 0;
#X connect 35 0 43 0;
#X connect 36 0 52 0;
#X connect 37 0 51 0;
#X connect 38 0 49 0;
#X connect 39 0 50 1;
#X connect 39 0 51 1;
#X connect 39 0 52 1;
#X connect 39 0 53 1;
#X connect 40 0 51 1;
#X connect 41 0 52 1;
#X connect 42 0 50 1;
#X connect 43 0 53 0;
#X connect 44 0 42 0;
#X connect 44 1 40 0;
#X connect 44 1 57 0;
#X connect 44 2 41 0;
#X connect 44 3 45 0;
#X connect 45 0 53 1;
#X connect 47 0 48 0;
#X connect 48 0 44 0;
#X connect 49 0 47 0;
#X connect 49 1 48 1;
#X connect 49 2 39 0;
#X connect 50 0 34 0;
#X connect 51 0 34 0;
#X connect 52 0 34 0;
#X connect 53 0 34 0;
