#N canvas 533 125 804 276 10;
#X text 635 14 TouchOSC;
#X text 636 29 http://hexler.net/touchosc;
#X obj 228 218 sendOSC;
#X obj 32 75 dumpOSC 8000;
#X text 636 44 basic.pd v1.0;
#X obj 32 108 print osc;
#X text 381 185 Use osc address of control. OSC messages are constructed
like this: /pagenumber/controlname;
#X text 228 108 Sending values to the iPhone on port 9000 Replace 10.10.10.10
with the ip-address of the iPhone;
#X text 29 19 Receiving values on port 8000 from the iPhone. Send values
from the iPhone to see the osc adress of the control for sending values
;
#X msg 228 152 connect 192.168.43.1 9000;
#X msg 265 184 send /2/fader1 0.8;
#X obj 133 100 nbx 5 14 0 1 0 0 empty empty empty 0 -8 0 10 -262144
-1 -1 1 256;
#X obj 106 251 print;
#X msg 205 104 send /2/fader4 f;
#X msg 37 163 send;
#X obj 32 211 pack s s f;
#X obj 111 59 bng 15 250 50 0 empty empty empty 17 7 0 10 -262144 -1
-1;
#X msg 92 152 symbol /2/fader3;
#X connect 3 0 5 0;
#X connect 9 0 2 0;
#X connect 10 0 2 0;
#X connect 11 0 15 2;
#X connect 13 0 2 0;
#X connect 13 0 12 0;
#X connect 14 0 15 0;
#X connect 15 0 2 0;
#X connect 15 0 12 0;
#X connect 16 0 11 0;
#X connect 16 0 14 0;
#X connect 16 0 17 0;
#X connect 17 0 15 1;
#X coords 0 0 1 1 85 60 0;
