#N canvas 0 0 1912 978 24;
#X declare -lib mrpeach;
#X obj 24 -106 adumpOSC 8000;
#X obj 1092 -119 cnv 15 820 130 empty empty empty 20 12 0 14 -261207
-66577 0;
#X floatatom 398 196 3 0 0 0 - - -;
#X floatatom 446 196 3 0 0 0 - - -;
#X floatatom 473 196 3 0 0 0 - - -;
#X floatatom 500 196 3 0 0 0 - - -;
#X text 338 192 from;
#X obj 62 140 unpackOSC;
#X obj 61 239 pipelist;
#X obj 18 -56 unpackOSCstream;
#X obj 55 193 print unpacked;
#X obj 365 149 unpack 0 0 0 0 0;
#X floatatom 542 196 8 0 0 0 - - -;
#X obj 269 96 route received from;
#X floatatom 264 158 5 0 0 0 - - -;
#X text 631 195 bytes;
#N canvas 500 255 494 344 META 0;
#X text 12 155 HELP_PATCH_AUTHORS "pd meta" information added by Jonathan
Wilkes for Pd version 0.42.;
#X text 12 25 LICENSE GPL v2 or later;
#X text 12 5 KEYWORDS control list_op;
#X text 12 75 INLET_0 list verbosity paths set;
#X text 12 95 OUTLET_N list;
#X text 12 115 OUTLET_R list;
#X text 12 135 AUTHOR Martin Peach;
#X text 12 45 DESCRIPTION routes lists as OSC packets.;
#X restore 2012 742 pd META;
#X obj 195 -104 import mrpeach;
#X msg 75 321 paths;
#X msg 203 320 verbosity \$1;
#X obj 172 330 tgl 15 0 empty empty empty 17 7 0 10 -262144 -1 -1 0
1;
#X obj 67 356 routeOSC /test /west /one/two;
#X obj 62 101 udpreceive 8100;
#X text 1035 -73;
#X text 447 279;
#X text 552 309;
#X text 14 -19 for a way to send OSC over TCP or serial connections.
;
#X connect 7 0 8 0;
#X connect 7 0 10 0;
#X connect 7 1 8 1;
#X connect 8 0 21 0;
#X connect 11 0 2 0;
#X connect 11 1 3 0;
#X connect 11 2 4 0;
#X connect 11 3 5 0;
#X connect 11 4 12 0;
#X connect 13 0 14 0;
#X connect 13 1 11 0;
#X connect 18 0 21 0;
#X connect 19 0 21 0;
#X connect 20 0 19 0;
#X connect 22 0 7 0;
#X connect 22 1 13 0;
#X coords 0 0 1 1 85 60 0;
