#N canvas 728 101 530 300 10;
#X declare -path crater;
#X obj 23 36 cnv 30 480 140 empty empty empty 20 12 0 14 -257972 -66577
0;
#N canvas 141 335 356 96 shrine 0;
#X obj 10 50 declare -path crater;
#X text 11 24 declares path for abstractions;
#X restore 32 89 pd shrine;
#N canvas 771 87 493 451 startup 0;
#X obj 11 105 r aux;
#X obj 240 17 loadbang;
#X obj 294 57 s midiOutGate;
#X obj 240 57 t f f;
#X obj 240 76 s midiInGate;
#N canvas 679 206 575 330 MEMORIES 0;
#X msg 30 270 write crater/memories/000-MEMORIES.txt;
#X obj 16 15 loadbang;
#X obj 16 125 text get 000-MEMORIES;
#X obj 335 119 outlet;
#X obj 372 98 outlet;
#X obj 16 145 list trim;
#X obj 335 55 route memory;
#X obj 16 77 f;
#X obj 47 77 + 1;
#X obj 91 77 sel 0;
#X obj 16 55 until;
#X text 90 55 output contents of file;
#X text 107 166 route file;
#X obj 16 165 s MEMORIES;
#X obj 335 35 r MEMORIES;
#X obj 335 75 sel 1;
#X msg 16 226 read crater/memories/000-MEMORIES.txt;
#X obj 16 206 loadbang;
#X obj 48 97 mod 5;
#X obj 30 249 r storeMemories;
#X obj 234 143 loadbang;
#X msg 234 163 read crater/memories/002-creation.txt;
#X obj 16 35 del 5;
#X obj 234 183 text define 002-creation;
#X obj 16 292 text define 000-MEMORIES;
#X connect 0 0 24 0;
#X connect 1 0 22 0;
#X connect 2 0 5 0;
#X connect 5 0 13 0;
#X connect 6 0 15 0;
#X connect 7 0 8 0;
#X connect 7 0 2 0;
#X connect 8 0 18 0;
#X connect 9 0 10 1;
#X connect 10 0 7 0;
#X connect 14 0 6 0;
#X connect 15 0 3 0;
#X connect 15 1 4 0;
#X connect 16 0 24 0;
#X connect 17 0 16 0;
#X connect 18 0 7 1;
#X connect 18 0 9 0;
#X connect 19 0 0 0;
#X connect 20 0 21 0;
#X connect 21 0 23 0;
#X connect 22 0 10 0;
#X restore 56 24 pd MEMORIES;
#N canvas 397 50 731 775 CREATION 0;
#X obj 49 43 inlet;
#X obj 373 287 text set 000-MEMORIES;
#X obj 85 176 f;
#X obj 124 175 + 1;
#X obj 85 154 spigot 0;
#X msg 146 98 1;
#X obj 85 323 s consciousness;
#X obj 106 270 s awareness;
#X obj 127 247 s emergence;
#X obj 148 224 s evolve;
#X obj 85 200 sel 0 1 2 3;
#X obj 374 100 f;
#X obj 413 99 + 1;
#X obj 374 123 t f f;
#X msg 374 264 list memory 1;
#X obj 400 229 s storeMemories;
#N canvas 921 424 373 374 thoughts 0;
#X obj 36 176 text get 002-creation;
#X obj 36 54 neuron 30;
#X obj 36 29 inlet;
#X obj 142 130 + 1;
#X obj 73 95 neuron 6;
#X obj 142 150 s led;
#X obj 73 115 t b f;
#X msg 73 155 0;
#X obj 36 196 t s b;
#X msg 73 239 \; screenLine5 press AUX to proceed \;;
#X obj 73 135 del 250;
#X obj 36 73 t f b;
#X obj 73 217 del 2000;
#X msg 36 272 \; screenLine1 ::: \; screenLine2 ::: \; screenLine3
\$1 \; screenLine4 ::: \; screenLine5 ::: \;;
#X connect 0 0 8 0;
#X connect 1 0 11 0;
#X connect 2 0 1 0;
#X connect 3 0 5 0;
#X connect 4 0 6 0;
#X connect 6 0 10 0;
#X connect 6 1 3 0;
#X connect 7 0 5 0;
#X connect 8 0 13 0;
#X connect 8 1 12 0;
#X connect 10 0 7 0;
#X connect 11 0 0 0;
#X connect 11 1 4 0;
#X connect 12 0 9 0;
#X restore 223 493 pd thoughts;
#X obj 85 220 t b b;
#X msg 427 193 \; screenLine5 reload patch \;;
#X obj 374 77 t b;
#X obj 85 300 del 50;
#X msg 122 350 \; screenLine1 ::: \; screenLine2 ::: \; screenLine3
::: \; screenLine4 ::: \; screenLine5 ::: \;;
#X msg 49 643 \; screenLine1 VOIDPULSE \; screenLine2 ::: \; screenLine3
find a quiet place \; screenLine4 ::: \; screenLine5 ::: \;;
#X msg 75 580 \; screenLine5 press AUX to proceed \;;
#X obj 49 63 t b b b;
#X obj 85 110 r aux;
#X obj 374 148 sel 0 1;
#X obj 85 132 sel 1;
#X obj 75 556 del 100;
#X obj 49 619 del 50;
#X obj 427 171 t b;
#X connect 0 0 24 0;
#X connect 2 0 3 0;
#X connect 2 0 10 0;
#X connect 3 0 2 1;
#X connect 4 0 2 0;
#X connect 5 0 4 1;
#X connect 10 0 17 0;
#X connect 10 1 7 0;
#X connect 10 1 16 0;
#X connect 10 2 8 0;
#X connect 10 2 16 0;
#X connect 10 3 9 0;
#X connect 10 3 16 0;
#X connect 10 4 19 0;
#X connect 11 0 12 0;
#X connect 11 0 13 0;
#X connect 12 0 11 1;
#X connect 13 0 26 0;
#X connect 13 1 1 1;
#X connect 14 0 1 0;
#X connect 17 0 20 0;
#X connect 17 1 21 0;
#X connect 19 0 11 0;
#X connect 20 0 6 0;
#X connect 20 0 16 0;
#X connect 24 0 29 0;
#X connect 24 1 28 0;
#X connect 24 2 5 0;
#X connect 25 0 27 0;
#X connect 26 0 14 0;
#X connect 26 0 16 0;
#X connect 26 1 16 0;
#X connect 26 1 15 0;
#X connect 26 2 30 0;
#X connect 27 0 4 0;
#X connect 28 0 23 0;
#X connect 29 0 22 0;
#X connect 30 0 18 0;
#X restore 130 48 pd CREATION;
#X obj 11 127 spigot;
#X obj 56 46 t b b;
#X msg 56 68 1;
#X obj 11 154 sel 1;
#X obj 43 202 spigot 1;
#X msg 136 211 0;
#X obj 11 174 t b b;
#X obj 11 274 s auxa;
#X obj 69 244 neuron 3;
#X obj 69 268 sel 0 1 2;
#X obj 69 337 s consciousness;
#X obj 92 314 s awareness;
#X obj 115 291 s emergence;
#X obj 43 222 t b b b;
#X obj 43 360 s evolve;
#X obj 245 292 f;
#X obj 276 292 + 1;
#X obj 320 292 sel 0;
#X obj 245 379 s led;
#X obj 245 356 neuron 32;
#X text 244 399 chaos check;
#X obj 245 332 t b;
#X obj 245 246 tgl 15 0 empty empty empty 17 7 0 10 -262144 -1 -1 0
1;
#X obj 245 206 loadbang;
#X obj 245 227 del 100;
#X obj 245 267 metro 77;
#X msg 328 356 0;
#X text 313 18 disable MIDI note IO;
#X text 15 385 implement chaos;
#X obj 277 312 mod 20;
#X obj 328 336 del 50;
#X obj 88 80 s gfxEnable;
#X msg 240 37 1;
#X connect 0 0 7 0;
#X connect 1 0 39 0;
#X connect 3 0 4 0;
#X connect 3 1 2 0;
#X connect 5 0 8 0;
#X connect 5 1 6 0;
#X connect 7 0 10 0;
#X connect 8 0 9 0;
#X connect 8 1 38 0;
#X connect 9 0 7 1;
#X connect 10 0 13 0;
#X connect 11 0 20 0;
#X connect 12 0 11 1;
#X connect 13 0 14 0;
#X connect 13 1 11 0;
#X connect 15 0 16 0;
#X connect 16 0 17 0;
#X connect 16 1 18 0;
#X connect 16 2 19 0;
#X connect 20 0 21 0;
#X connect 20 1 15 0;
#X connect 20 2 12 0;
#X connect 22 0 23 0;
#X connect 22 0 28 0;
#X connect 23 0 36 0;
#X connect 24 0 29 0;
#X connect 24 0 37 0;
#X connect 26 0 25 0;
#X connect 28 0 26 0;
#X connect 29 0 32 0;
#X connect 30 0 31 0;
#X connect 31 0 29 0;
#X connect 32 0 22 0;
#X connect 33 0 25 0;
#X connect 36 0 22 1;
#X connect 36 0 24 0;
#X connect 37 0 33 0;
#X connect 39 0 3 0;
#X restore 32 110 pd startup;
#X text 139 150 < primary patch;
#X obj 226 47 cnv 30 1 1 empty empty DUST 20 12 0 32 -257972 -56165
0;
#X obj 187 89 cnv 30 1 1 empty empty voidpulse 20 12 0 32 -257972 -99731
0;
#X obj 23 187 neuralCore;
#N canvas 143 104 602 810 GFXengine 0;
#X obj 49 769 s oscOut;
#X obj 50 53 tgl 15 0 empty empty empty 17 7 0 10 -262144 -1 -1 1 1
;
#X msg 127 746 /oled/gShowInfoBar 3 0;
#X msg 50 699 /oled/gFlip 3;
#X msg 301 100 /oled/gClear 3 1;
#X obj 50 28 r gfxEnable;
#X obj 127 724 loadbang;
#X obj 197 154 t b b b;
#X obj 135 442 until;
#N canvas 739 249 433 609 waveformReader 0;
#X obj 27 32 inlet;
#X obj 135 409 list prepend;
#X msg 99 136 128;
#X obj 99 158 until;
#X obj 104 203 f 0;
#X obj 260 416 t l;
#X obj 104 225 i;
#X obj 104 269 * 0.5;
#X obj 104 291 + 0.5;
#X obj 104 355 i;
#X msg 24 457 sendtyped /oled/gWaveform ib 3;
#X obj 88 513 list append;
#X obj 88 535 list trim;
#X obj 88 557 outlet;
#X obj 104 247 tabread scope;
#X obj 158 204 + 8;
#X msg 148 162 0;
#N canvas 4 50 450 250 (subpatch) 0;
#X array scope 1024 float 2;
#X coords 0 1 1024 -1 128 64 1 0 0;
#X restore 251 299 graph;
#X obj 254 215 tabwrite~ scope;
#X obj 76 94 t b b b b b b;
#X obj 254 188 inlet~;
#X obj 104 313 * 64;
#X obj 104 335 + 0;
#X connect 0 0 19 0;
#X connect 1 0 5 0;
#X connect 1 0 11 1;
#X connect 2 0 3 0;
#X connect 3 0 4 0;
#X connect 4 0 6 0;
#X connect 4 0 15 0;
#X connect 5 0 1 1;
#X connect 6 0 14 0;
#X connect 7 0 8 0;
#X connect 8 0 21 0;
#X connect 9 0 1 0;
#X connect 10 0 11 0;
#X connect 11 0 12 0;
#X connect 12 0 13 0;
#X connect 14 0 7 0;
#X connect 15 0 4 1;
#X connect 16 0 4 1;
#X connect 19 0 10 0;
#X connect 19 1 2 0;
#X connect 19 2 16 0;
#X connect 19 3 1 0;
#X connect 19 4 1 1;
#X connect 19 5 18 0;
#X connect 20 0 18 0;
#X connect 21 0 22 0;
#X connect 22 0 9 0;
#X restore 90 210 pd waveformReader;
#X obj 50 183 t b b b b;
#X obj 50 158 t b b;
#X obj 50 74 metro 90;
#X obj 206 186 r~ scopeVis;
#X obj 135 413 neuron 10;
#X msg 134 594 /oled/gSetPixel 3 \$1 \$2 1;
#X obj 134 570 pack f f;
#X msg 388 533 /oled/gBox 3 \$1 \$2 3 3 1;
#X obj 135 523 neuron 128;
#X obj 167 493 neuron 64;
#X obj 135 465 t b b;
#X obj 245 268 r knob1;
#X obj 245 290 t f f;
#X obj 245 312 * 12;
#X obj 245 334 + 2;
#X obj 245 356 i;
#X obj 449 268 * 5;
#X obj 449 312 i;
#X obj 449 290 + 0.4;
#X obj 389 376 until;
#X obj 389 347 neuron 10;
#X obj 388 504 pack f f;
#X obj 389 457 neuron 128;
#X obj 421 427 neuron 64;
#X obj 389 399 t b b;
#X obj 187 240 r~ shifter;
#N canvas 832 202 433 609 waveformReader 0;
#X obj 27 32 inlet;
#X obj 135 409 list prepend;
#X msg 99 136 128;
#X obj 99 158 until;
#X obj 104 203 f 0;
#X obj 260 416 t l;
#X obj 104 225 i;
#X obj 104 269 * 0.5;
#X obj 104 291 + 0.5;
#X obj 104 355 i;
#X msg 24 457 sendtyped /oled/gWaveform ib 3;
#X obj 88 513 list append;
#X obj 88 535 list trim;
#X obj 88 557 outlet;
#X obj 158 204 + 8;
#X msg 148 162 0;
#N canvas 5 50 450 250 (subpatch) 0;
#X array shifter 1024 float 2;
#X coords 0 1 1024 -1 128 64 1 0 0;
#X restore 251 299 graph;
#X obj 76 94 t b b b b b b;
#X obj 254 188 inlet~;
#X obj 104 313 * 64;
#X obj 104 335 + 0;
#X obj 254 215 tabwrite~ shifter;
#X obj 104 247 tabread shifter;
#X connect 0 0 17 0;
#X connect 1 0 5 0;
#X connect 1 0 11 1;
#X connect 2 0 3 0;
#X connect 3 0 4 0;
#X connect 4 0 6 0;
#X connect 4 0 14 0;
#X connect 5 0 1 1;
#X connect 6 0 22 0;
#X connect 7 0 8 0;
#X connect 8 0 19 0;
#X connect 9 0 1 0;
#X connect 10 0 11 0;
#X connect 11 0 12 0;
#X connect 12 0 13 0;
#X connect 14 0 4 1;
#X connect 15 0 4 1;
#X connect 17 0 10 0;
#X connect 17 1 2 0;
#X connect 17 2 15 0;
#X connect 17 3 1 0;
#X connect 17 4 1 1;
#X connect 17 5 21 0;
#X connect 18 0 21 0;
#X connect 19 0 20 0;
#X connect 20 0 9 0;
#X connect 22 0 7 0;
#X restore 70 267 pd waveformReader;
#X connect 1 0 12 0;
#X connect 2 0 0 0;
#X connect 3 0 0 0;
#X connect 4 0 0 0;
#X connect 5 0 1 0;
#X connect 6 0 2 0;
#X connect 7 0 14 0;
#X connect 7 1 30 0;
#X connect 8 0 20 0;
#X connect 9 0 0 0;
#X connect 10 0 3 0;
#X connect 10 1 36 0;
#X connect 10 2 9 0;
#X connect 10 3 7 0;
#X connect 11 0 10 0;
#X connect 11 1 4 0;
#X connect 12 0 11 0;
#X connect 13 0 9 1;
#X connect 14 0 8 0;
#X connect 15 0 0 0;
#X connect 16 0 15 0;
#X connect 17 0 0 0;
#X connect 18 0 16 0;
#X connect 19 0 16 1;
#X connect 20 0 18 0;
#X connect 20 1 19 0;
#X connect 21 0 22 0;
#X connect 22 0 23 0;
#X connect 22 1 26 0;
#X connect 23 0 24 0;
#X connect 24 0 25 0;
#X connect 25 0 14 1;
#X connect 26 0 28 0;
#X connect 27 0 30 1;
#X connect 28 0 27 0;
#X connect 29 0 34 0;
#X connect 30 0 29 0;
#X connect 31 0 17 0;
#X connect 32 0 31 0;
#X connect 33 0 31 1;
#X connect 34 0 32 0;
#X connect 34 1 33 0;
#X connect 35 0 36 1;
#X connect 36 0 0 0;
#X restore 32 46 pd GFXengine;
#X text 374 129 by kyle Werle \; • usage: CC \, BY \; • no warranties
\;;
#X obj 32 151 _DUST;
