#N canvas 0 22 450 300 10;
#X obj 127 162 tgl 15 0 empty empty empty 17 7 0 10 -262144 -1 -1 0
1;
#X obj 127 83 sel \$1;
#X obj 127 44 inlet;
#X obj 127 197 outlet;
#X obj 106 107 delay 10;
#X msg 160 107 1;
#X msg 106 131 0;
#X obj 193 72 loadbang;
#X connect 0 0 3 0;
#X connect 1 0 4 0;
#X connect 1 1 5 0;
#X connect 2 0 1 0;
#X connect 4 0 6 0;
#X connect 5 0 0 0;
#X connect 6 0 0 0;
#X connect 7 0 5 0;
