#N canvas 0 22 450 300 10;
#X obj 117 126 tgl 15 0 empty empty empty 17 7 0 10 -262144 -1 -1 0
1;
#X obj 117 73 sel \$1;
#X msg 150 97 0;
#X obj 117 34 inlet;
#X obj 117 161 outlet;
#X obj 96 97 delay 10;
#X connect 0 0 4 0;
#X connect 1 0 5 0;
#X connect 1 1 2 0;
#X connect 2 0 0 0;
#X connect 3 0 1 0;
#X connect 5 0 0 0;
