#N canvas -11 -11 1920 1016 10;
#X obj 228 582 fm~ 2 5;
#X obj 425 407 abs;
#X obj 26 214 stoicheia 3 1 15;
#X obj 153 454 tonic;
#X obj 162 1134 dac~;
#X obj 502 472 adr~ 300 400 700;
#X obj 454 556 * 300;
#X obj 509 211 random_source 1 45 1000;
#X obj 197 258 stoicheia 5 3 15;
#X obj 348 257 stoicheia 13 5 17;
#X obj 193 126 chronos 1800;
#X obj 391 728 *~;
#X obj 388 651 vcf_2pole~ 2000 3;
#X obj 462 607 * 5;
#X obj 550 583 adr~ 200 150 70;
#X obj 744 102 r Channel-A;
#X obj 1092 386 r Channel-B;
#X obj 1506 216 r Channel-C;
#X obj 821 211 * 2000;
#X obj 824 247 + 100;
#X obj 825 290 s \$0-tempo;
#X obj 339 24 r \$0-tempo;
#X obj 826 151 hsl 128 15 0 1 0 0 empty empty empty -2 -8 0 10 -262144
-1 -1 9300 1;
#X obj 1220 423 hsl 128 15 0 1 0 0 empty empty empty -2 -8 0 10 -262144
-1 -1 0 1;
#X obj 1487 423 s \$0-intensity;
#X obj 1111 561 s \$0-transpose;
#X obj 1118 487 * 60;
#X obj 1117 529 + 30;
#X obj 85 399 f;
#X obj 106 369 r \$0-transpose;
#X obj 1648 264 hsl 128 15 0 1 0 0 empty empty empty -2 -8 0 10 -262144
-1 -1 6100 1;
#X obj 523 416 * 700;
#X obj 522 442 + 50;
#X obj 525 395 r \$0-intensity;
#X obj 462 49 r \$0-intensity;
#X obj 491 118 * 3000;
#X obj 513 184 -;
#X obj 611 114 t b f;
#X msg 546 138 50;
#X obj 586 88 * 49.99;
#X obj 1637 333 s \$0-space;
#X obj 30 521 r \$0-space;
#X obj 23 567 * 7;
#X obj 23 596 + 1;
#X obj 23 638 int;
#X obj 32 706 t b f;
#X msg 32 738 8;
#X obj 29 771 -;
#X obj 62 571 * 0.9;
#X obj 97 50 loadbang;
#X obj 300 134 -;
#X obj 398 64 t b f;
#X msg 333 88 2150;
#X obj 86 427 int;
#X obj 744 124 * 20;
#X obj 744 146 int;
#X obj 744 168 change;
#X obj 744 190 / 20;
#X obj 1510 263 * 20;
#X obj 1510 285 int;
#X obj 1510 307 change;
#X obj 1510 329 / 20;
#X obj 1047 427 * 20;
#X obj 1047 449 int;
#X obj 1047 471 change;
#X obj 1047 493 / 20;
#X obj 488 752 r \$0-mastertemp;
#X obj 330 152 s \$0-mastertemp;
#X obj 321 1089 clip~ -0.99 0.99;
#X obj 437 1100 clip~ -0.99 0.99;
#X obj 228 647 *~ 0.5;
#X obj 392 787 *~ 0.5;
#X obj 327 1065 *~ 0.5;
#X obj 477 1075 *~ 0.5;
#X obj 330 847 pingpong2vd~ 2 0.8 0.6 0;
#X obj 392 756 *~;
#X obj 698 695 r \$0-intensity;
#X msg 701 727 \$1 5;
#X obj 703 774 line~;
#X obj 869 48 r knob1;
#X obj 999 54 r knob2;
#X obj 1173 55 r knob3;
#X obj 1465 62 r knob4;
#X text 1118 17 parameters;
#X connect 0 0 70 0;
#X connect 1 0 0 2;
#X connect 1 0 13 0;
#X connect 1 0 14 3;
#X connect 2 1 3 1;
#X connect 3 1 0 0;
#X connect 5 1 6 0;
#X connect 6 0 0 1;
#X connect 7 0 12 0;
#X connect 7 2 1 0;
#X connect 8 0 14 0;
#X connect 8 1 3 5;
#X connect 9 1 3 3;
#X connect 10 0 2 0;
#X connect 10 0 5 0;
#X connect 10 0 8 0;
#X connect 10 0 9 0;
#X connect 10 0 28 0;
#X connect 11 0 75 0;
#X connect 12 0 11 0;
#X connect 13 0 12 1;
#X connect 14 0 11 1;
#X connect 15 0 54 0;
#X connect 16 0 62 0;
#X connect 17 0 58 0;
#X connect 18 0 19 0;
#X connect 19 0 20 0;
#X connect 21 0 51 0;
#X connect 22 0 18 0;
#X connect 23 0 26 0;
#X connect 26 0 27 0;
#X connect 27 0 25 0;
#X connect 28 0 53 0;
#X connect 29 0 28 1;
#X connect 30 0 24 0;
#X connect 30 0 40 0;
#X connect 31 0 32 0;
#X connect 32 0 6 1;
#X connect 33 0 31 0;
#X connect 34 0 35 0;
#X connect 34 0 39 0;
#X connect 35 0 7 2;
#X connect 36 0 7 0;
#X connect 37 0 38 0;
#X connect 37 1 36 1;
#X connect 38 0 36 0;
#X connect 39 0 37 0;
#X connect 41 0 42 0;
#X connect 41 0 48 0;
#X connect 42 0 43 0;
#X connect 43 0 44 0;
#X connect 44 0 45 0;
#X connect 45 0 46 0;
#X connect 45 1 47 1;
#X connect 46 0 47 0;
#X connect 47 0 74 2;
#X connect 48 0 74 4;
#X connect 48 0 74 5;
#X connect 49 0 10 0;
#X connect 50 0 10 1;
#X connect 50 0 67 0;
#X connect 51 0 52 0;
#X connect 51 1 50 1;
#X connect 52 0 50 0;
#X connect 53 0 3 0;
#X connect 54 0 55 0;
#X connect 55 0 56 0;
#X connect 56 0 57 0;
#X connect 57 0 18 0;
#X connect 58 0 59 0;
#X connect 59 0 60 0;
#X connect 60 0 61 0;
#X connect 61 0 24 0;
#X connect 61 0 40 0;
#X connect 62 0 63 0;
#X connect 63 0 64 0;
#X connect 64 0 65 0;
#X connect 65 0 26 0;
#X connect 66 0 74 1;
#X connect 68 0 4 0;
#X connect 69 0 4 1;
#X connect 70 0 74 0;
#X connect 71 0 74 0;
#X connect 72 0 68 0;
#X connect 73 0 69 0;
#X connect 74 0 72 0;
#X connect 74 1 73 0;
#X connect 75 0 71 0;
#X connect 76 0 77 0;
#X connect 77 0 78 0;
#X connect 78 0 75 1;
#X connect 79 0 22 0;
#X connect 80 0 23 0;
#X connect 81 0 30 0;
