#N canvas -11 -11 1920 1016 10;
#X obj 97 607 tonic;
#X obj 283 602 tonic;
#X obj 444 601 tonic;
#X obj 199 1643 dac~;
#X obj 92 -38 chronos 2000;
#X obj 89 1204 *~;
#X obj 99 53 stoicheia 1 0 13;
#X obj 253 64 stoicheia 1 2 17;
#X obj 394 66 stoicheia 1 5 11;
#X obj 530 70 stoicheia 1 7 9;
#X obj 665 237 * -1;
#X obj 318 1208 adr~ 550 250 850;
#X obj 655 54 random_source 0.5 48 1;
#X obj 925 452 r Channel-A;
#X obj 1097 601 r Channel-B;
#X obj 1313 415 r Channel-C;
#X obj 982 552 s \$0-tempo;
#X obj 985 488 hsl 128 15 0 1 0 0 empty empty empty -2 -8 0 10 -262144
-1 -1 0 1;
#X obj 1166 674 hsl 128 15 0 1 0 0 empty empty empty -2 -8 0 10 -262144
-1 -1 0 1;
#X obj 1323 559 s \$0-intensity;
#X obj 1089 736 s \$0-transpose;
#X obj 1390 505 hsl 128 15 0 1 0 0 empty empty empty -2 -8 0 10 -262144
-1 -1 0 1;
#X obj 90 -227 r \$0-tempo;
#X obj 91 -191 * 4000;
#X obj 95 -164 t b f;
#X obj 115 -87 -;
#X obj 28 -93 loadbang;
#X obj -56 213 r \$0-transpose;
#X obj 9 399 i;
#X obj 72 437 + 2;
#X obj 122 440 - 2;
#X obj -38 353 + 40;
#X obj -45 318 * 25;
#X obj 237 -54 s \$0-mastertempo;
#X obj 526 960 r \$0-mastertempo;
#X obj 474 998 * 0.25;
#X obj 540 1003 * 0.5;
#X obj 284 907 r \$0-intensity;
#X obj 322 1000 + 0.01;
#X obj 334 1164 *;
#X obj 396 1150 f;
#X obj 331 1121 f;
#X obj 324 1034 t b f b;
#X obj 377 1076 t b b f;
#X obj 849 -152 r \$0-tempo;
#X obj 842 -109 * 4;
#X msg 93 -136 4300;
#X obj 848 -67 + 0.3;
#X obj 549 1285 r \$0-intensity;
#X obj 454 1291 * 0.85;
#X obj 310 931 t b f;
#X obj 329 973 -;
#X msg 299 952 1;
#X obj 257 1053 * 60;
#X obj -25 732 quantizer2;
#N canvas 0 22 450 278 (subpatch) 0;
#X array minor_scale 128 float 1;
#A 0 0 2 2 3 3 5 5 7 9 10 10 12 14 14 15 15 17 17 19 21 22 22 24 26
26 27 27 29 29 31 33 34 34 36 38 38 39 39 41 41 43 45 46 46 48 50 50
51 51 53 53 55 57 58 58 60 62 62 63 63 65 65 67 69 70 70 72 74 74 75
75 77 77 79 81 82 82 84 86 86 87 87 89 89 91 93 94 94 96 98 98 99 99
101 101 103 105 106 106 108 110 110 111 111 113 113 115 117 118 118
120 122 122 123 123 125 125 127 129 130 130 132 134 134 135 135 137
0;
#X coords 0 0 127 127 200 140 1 0 0;
#X restore 1362 951 graph;
#N canvas 0 22 450 278 (subpatch) 0;
#X array major_scale 128 float 1;
#A 0 0 2 2 4 4 5 5 7 9 11 11 12 14 14 16 16 17 17 19 21 23 23 24 26
26 28 28 29 29 31 33 35 35 36 38 38 40 40 41 41 43 45 47 47 48 50 50
52 52 53 53 55 57 59 59 60 62 62 64 64 65 65 67 69 71 71 72 74 74 76
76 77 77 79 81 83 83 84 86 86 88 88 89 89 91 93 95 95 96 98 98 100
100 101 101 103 105 107 107 108 110 110 112 112 113 113 115 117 119
119 120 122 122 124 124 125 125 127 129 131 131 132 134 134 136 136
137 0;
#X coords 0 0 127 127 200 140 1 0 0;
#X restore 1586 933 graph;
#X obj 279 732 quantizer2;
#X obj 531 720 quantizer2;
#X obj 255 242 * 8;
#X obj 257 285 - 6;
#X obj 668 272 * 14;
#X obj 658 317 - 6;
#X obj 778 269 * 15;
#X obj 776 314 - 3;
#X obj 55 1079 sine_droneAP 2;
#X obj 171 1604 clip~ -0.99 0.99;
#X obj 292 1613 clip~ -0.99 0.99;
#X obj 59 966 r \$0-mastertempo;
#X obj 925 474 * 20;
#X obj 925 496 int;
#X obj 925 518 change;
#X obj 925 540 / 20;
#X obj 1327 439 * 20;
#X obj 1327 461 int;
#X obj 1327 483 change;
#X obj 1327 505 / 20;
#X obj 1087 632 * 20;
#X obj 1087 654 int;
#X obj 1087 676 change;
#X obj 1087 698 / 20;
#X obj 186 1349 pingpong2vd~ 3 0.7 0.5 0.5;
#X obj 180 1572 *~ 0.7;
#X obj 303 1581 *~ 0.7;
#X obj 975 277 r knob1;
#X obj 1105 283 r knob2;
#X obj 1279 284 r knob3;
#X obj 1571 291 r knob4;
#X text 1224 246 parameters;
#X connect 0 1 54 0;
#X connect 1 1 57 0;
#X connect 2 1 58 0;
#X connect 4 0 6 0;
#X connect 4 0 7 0;
#X connect 4 0 8 0;
#X connect 4 0 9 0;
#X connect 4 0 11 0;
#X connect 4 0 28 0;
#X connect 4 2 59 0;
#X connect 5 0 81 0;
#X connect 6 1 0 1;
#X connect 6 1 1 3;
#X connect 7 1 0 2;
#X connect 7 1 0 5;
#X connect 7 1 2 2;
#X connect 7 1 1 5;
#X connect 8 1 1 4;
#X connect 8 1 2 4;
#X connect 9 1 0 4;
#X connect 9 1 2 5;
#X connect 9 1 1 1;
#X connect 10 0 61 0;
#X connect 11 0 5 1;
#X connect 12 2 10 0;
#X connect 12 2 63 0;
#X connect 13 0 69 0;
#X connect 14 0 77 0;
#X connect 15 0 73 0;
#X connect 17 0 16 0;
#X connect 18 0 20 0;
#X connect 21 0 19 0;
#X connect 22 0 23 0;
#X connect 23 0 24 0;
#X connect 24 0 46 0;
#X connect 24 1 25 1;
#X connect 25 0 4 1;
#X connect 25 0 33 0;
#X connect 26 0 4 0;
#X connect 27 0 32 0;
#X connect 28 0 0 0;
#X connect 28 0 29 0;
#X connect 28 0 30 0;
#X connect 29 0 1 0;
#X connect 30 0 2 0;
#X connect 31 0 28 1;
#X connect 32 0 31 0;
#X connect 34 0 35 0;
#X connect 34 0 36 0;
#X connect 35 0 11 2;
#X connect 35 0 43 0;
#X connect 36 0 11 3;
#X connect 37 0 50 0;
#X connect 38 0 42 0;
#X connect 38 0 53 0;
#X connect 39 0 11 1;
#X connect 40 0 39 1;
#X connect 41 0 39 0;
#X connect 42 0 41 0;
#X connect 42 1 41 1;
#X connect 42 2 40 0;
#X connect 43 0 41 0;
#X connect 43 1 40 0;
#X connect 43 2 40 1;
#X connect 44 0 45 0;
#X connect 45 0 47 0;
#X connect 46 0 25 0;
#X connect 47 0 12 0;
#X connect 48 0 49 0;
#X connect 49 0 81 4;
#X connect 50 0 52 0;
#X connect 50 1 51 1;
#X connect 51 0 38 0;
#X connect 52 0 51 0;
#X connect 53 0 65 3;
#X connect 54 0 65 0;
#X connect 57 0 65 1;
#X connect 58 0 65 2;
#X connect 59 0 60 0;
#X connect 60 0 1 6;
#X connect 61 0 62 0;
#X connect 62 0 2 6;
#X connect 63 0 64 0;
#X connect 64 0 0 6;
#X connect 65 0 5 0;
#X connect 66 0 3 0;
#X connect 67 0 3 1;
#X connect 68 0 81 1;
#X connect 69 0 70 0;
#X connect 70 0 71 0;
#X connect 71 0 72 0;
#X connect 72 0 16 0;
#X connect 73 0 74 0;
#X connect 74 0 75 0;
#X connect 75 0 76 0;
#X connect 76 0 19 0;
#X connect 77 0 78 0;
#X connect 78 0 79 0;
#X connect 79 0 80 0;
#X connect 80 0 20 0;
#X connect 81 0 82 0;
#X connect 81 1 83 0;
#X connect 82 0 66 0;
#X connect 83 0 67 0;
#X connect 84 0 17 0;
#X connect 85 0 18 0;
#X connect 86 0 21 0;
