#N canvas 0 27 1366 719 10;
#X obj 379 693 dac~;
#X obj 522 -103 stoicheia 4 0 8;
#X obj 762 -193 r Channel-A;
#X obj 764 -100 * 20;
#X obj 764 -78 int;
#X obj 762 -55 change;
#X obj 763 -23 / 20;
#X obj 762 65 s \$0-tempo;
#X obj 862 -68 r \$0-tempo;
#X obj 876 -207 hsl 128 15 0 1 0 0 empty empty tempo -2 -8 0 10 -262144
-1 -1 0 1;
#X obj 423 -208 r \$0-tempo;
#X obj 322 -111 metro;
#X obj 262 -145 loadbang;
#X obj 312 68 r \$0-tempo;
#X obj 115 33 f;
#X obj 101 -60 r \$0-tranpose;
#X obj 553 154 f;
#X obj 596 103 r \$0-tranpose;
#X obj 1082 -129 r Channel-B;
#X obj 1082 -63 int;
#X obj 1082 -41 change;
#X obj 1176 -126 hsl 128 15 0 1 0 0 empty empty transpose -2 -8 0 10
-262144 -1 -1 0 1;
#X obj 1082 -19 s \$0-tranpose;
#X obj 308 125 / 8;
#X obj 762 -171 t b f;
#X msg 762 -149 1;
#X obj 773 -127 -;
#X obj 1152 87 hsl 128 15 0 1 0 0 empty empty intensity -2 -8 0 10
-262144 -1 -1 0 1;
#X obj 1057 90 r Channel-C;
#X obj 1057 200 s \$0-intensity;
#X obj 1057 112 * 20;
#X obj 1057 134 int;
#X obj 1057 156 change;
#X obj 1057 178 / 20;
#X obj 643 -197 r \$0-intensity;
#X obj 644 -128 + 8;
#X obj 644 -150 * 6;
#X obj 588 -147 + 8;
#X obj 584 -171 * 12;
#X obj 1082 -107 * 12;
#X obj 243 175 swinger4 0;
#X obj 735 333 swinger4 0;
#X obj 39 -229 chronos;
#X obj 109 -139 * 4;
#X obj 115 -117 + 1;
#X obj 506 -154 + 8;
#X obj 502 -178 * 4;
#X obj 399 101 phoreo 4 8;
#X obj 77 -132 * 3;
#X obj 76 -96 + 4;
#X obj 336 -184 * 100;
#X obj 747 213 tonic 0 0 0 0 0 -4;
#X msg 1311 334 -1 2 8 16 -4;
#X msg 1118 343 -1 2 7 12 -4;
#X msg 1016 343 0 -3 0 12 0;
#X msg 896 343 0 -5 0 7 0;
#X msg 1306 279 20 0 8 17 -4;
#X obj 679 -128 + 8;
#X obj 679 -150 * 4;
#X obj 158 -148 * 3;
#X obj 159 -121 + 4;
#X msg 1222 337 -1 2 9 12 0;
#X obj 114 68 tonic 0 0 0 0 0 2;
#X obj 322 -71 stoicheia 5 0 8;
#X obj 832 35 stoicheia 4 0 8;
#X obj 190 -100 stoicheia 5 0 8;
#X obj 944 45 stoicheia 4 0 8;
#X obj 1187 243 sel 12 10 8 6 4 2 0;
#X obj 1304 82 - 36;
#X msg 1308 210 20 0 9 14 2;
#X obj 762 2 * 300;
#X obj 832 -34 / 4;
#X obj 764 34 + 250;
#X obj 122 433 *~ 0.5;
#X obj 432 417 *~ 0.5;
#X obj 500 423 r \$0-intensity;
#X obj 565 443 r \$0-intensity;
#X obj 565 465 * 0.5;
#X obj 565 487 + 0.2;
#X obj 684 455 r \$0-clocks;
#X obj 678 33 s \$0-clocks;
#X obj 684 477 * 20;
#X obj 684 499 mod 8;
#X obj 419 664 clip~ -0.99 0.99;
#X obj 248 675 clip~ -0.99 0.99;
#X obj 10 -3 stoicheia 5 0 8;
#X obj 101 -38 - 12;
#X obj 501 453 * 0.75;
#X obj 432 222 fmperc~ 0 0.038 0.102 0.015;
#X obj 122 238 fmperc~ 0 0.034 0.07 0.015;
#X obj 1082 -85 + 36;
#X obj 254 460 pingpong2vdhp~ 2 0.6 0.3 0.2;
#X connect 1 0 16 0;
#X connect 1 1 16 0;
#X connect 1 1 64 0;
#X connect 2 0 24 0;
#X connect 3 0 4 0;
#X connect 4 0 5 0;
#X connect 5 0 6 0;
#X connect 6 0 70 0;
#X connect 6 0 80 0;
#X connect 8 0 71 0;
#X connect 9 0 24 0;
#X connect 10 0 11 1;
#X connect 10 0 50 0;
#X connect 10 0 91 1;
#X connect 11 0 63 0;
#X connect 12 0 11 0;
#X connect 13 0 23 0;
#X connect 14 0 62 0;
#X connect 15 0 86 0;
#X connect 16 0 51 0;
#X connect 17 0 16 1;
#X connect 18 0 39 0;
#X connect 19 0 20 0;
#X connect 20 0 22 0;
#X connect 20 0 68 0;
#X connect 21 0 39 0;
#X connect 23 0 40 1;
#X connect 24 0 25 0;
#X connect 24 1 26 1;
#X connect 25 0 26 0;
#X connect 26 0 3 0;
#X connect 27 0 30 0;
#X connect 28 0 30 0;
#X connect 30 0 31 0;
#X connect 31 0 32 0;
#X connect 32 0 33 0;
#X connect 33 0 29 0;
#X connect 34 0 36 0;
#X connect 34 0 38 0;
#X connect 34 0 46 0;
#X connect 34 0 58 0;
#X connect 35 0 1 3;
#X connect 35 0 47 2;
#X connect 36 0 35 0;
#X connect 37 0 65 3;
#X connect 38 0 37 0;
#X connect 39 0 90 0;
#X connect 40 0 89 0;
#X connect 41 0 88 0;
#X connect 42 1 43 0;
#X connect 42 1 48 0;
#X connect 42 2 59 0;
#X connect 43 0 44 0;
#X connect 44 0 65 1;
#X connect 44 0 66 1;
#X connect 45 0 63 3;
#X connect 46 0 45 0;
#X connect 47 1 1 0;
#X connect 48 0 49 0;
#X connect 49 0 1 1;
#X connect 50 0 42 1;
#X connect 51 1 41 0;
#X connect 51 1 88 0;
#X connect 52 0 51 7;
#X connect 53 0 51 7;
#X connect 54 0 51 7;
#X connect 55 0 51 7;
#X connect 56 0 51 7;
#X connect 57 0 66 3;
#X connect 57 0 64 3;
#X connect 58 0 57 0;
#X connect 59 0 60 0;
#X connect 60 0 64 1;
#X connect 61 0 51 7;
#X connect 62 1 40 0;
#X connect 62 1 89 0;
#X connect 63 0 65 0;
#X connect 63 1 47 0;
#X connect 64 0 51 2;
#X connect 64 1 66 0;
#X connect 65 0 14 0;
#X connect 65 1 14 0;
#X connect 65 1 85 0;
#X connect 66 0 51 3;
#X connect 66 1 51 5;
#X connect 67 0 55 0;
#X connect 67 1 54 0;
#X connect 67 2 53 0;
#X connect 67 3 61 0;
#X connect 67 4 52 0;
#X connect 67 5 56 0;
#X connect 68 0 67 0;
#X connect 69 0 51 7;
#X connect 70 0 72 0;
#X connect 71 0 41 1;
#X connect 72 0 7 0;
#X connect 73 0 91 0;
#X connect 74 0 91 0;
#X connect 75 0 87 0;
#X connect 76 0 77 0;
#X connect 77 0 78 0;
#X connect 78 0 91 5;
#X connect 79 0 81 0;
#X connect 81 0 82 0;
#X connect 82 0 91 2;
#X connect 83 0 0 1;
#X connect 84 0 0 0;
#X connect 85 0 62 6;
#X connect 85 1 62 1;
#X connect 86 0 14 1;
#X connect 87 0 91 4;
#X connect 88 0 74 0;
#X connect 89 0 73 0;
#X connect 90 0 19 0;
#X connect 91 0 84 0;
#X connect 91 1 83 0;
