#N canvas -11 -11 1920 1016 10;
#X obj 222 -37 loadbang;
#X obj 155 1024 dac~;
#X obj 613 552 tonic 0 0 0 0 0 -5;
#X obj 93 655 fm2 3.1 4000 0 0 19 0 20 300;
#X obj 721 688 fm2 3.1 4000 0 0 19 0 20 300;
#X obj 494 317 stoicheia 5 0 8;
#X obj 1261 634 s \$0-tempo;
#X obj 1326 425 hsl 128 15 0 1 0 0 empty empty empty -2 -8 0 10 -262144
-1 -1 0 1;
#X obj 1267 482 t b f;
#X msg 1266 516 1;
#X obj 1266 538 -;
#X obj 1265 570 * 2000;
#X obj 1649 458 hsl 128 15 0 1 0 0 empty empty empty -2 -8 0 10 -262144
-1 -1 0 1;
#X obj 1565 639 s \$0-transpose;
#X obj 1825 610 s \$0-intensity;
#X obj 1252 370 r Channel-A;
#X obj 1554 455 r Channel-B;
#X obj 1825 446 r Channel-C;
#X obj 1265 599 + 350;
#X obj 142 -57 r \$0-tempo;
#X obj 171 466 f;
#X obj 505 495 f;
#X obj 327 320 stoicheia 4 0 8;
#X obj 223 294 stoicheia 3 0 8;
#X obj 617 416 stoicheia 5 0 8;
#X obj 725 417 stoicheia 2 0 8;
#X obj 209 482 tonic 0 0 0 0 0 9;
#X obj 139 397 r \$0-transpose;
#X obj 534 452 r \$0-transpose;
#X obj 303 564 tonic 0 0 0 0 0 12;
#X obj 1252 392 * 20;
#X obj 1252 414 int;
#X obj 1252 460 / 20;
#X obj 1565 580 int;
#X obj 1252 436 change;
#X obj 1565 602 change;
#X obj 1831 497 int;
#X obj 1831 519 change;
#X obj 517 35 r \$0-intensity;
#X obj 1920 480 hsl 128 15 0 1 0 0 empty empty empty -2 -8 0 10 -262144
-1 -1 0 1;
#X obj 342 -73 r \$0-intensity;
#X obj 353 52 + 8;
#X obj 523 109 + 8;
#X obj 523 87 * 8;
#X obj 510 -86 r \$0-intensity;
#X obj 516 -34 * 8;
#X obj 370 447 stoicheia 2 0 8;
#X obj 517 1 + 14;
#X obj 1831 475 * 20;
#X obj 1831 556 / 20;
#X obj 436 869 * 20;
#X obj 436 913 + 1;
#X obj 436 891 mod 8;
#X obj 327 796 r \$0-intensity;
#X obj 327 818 + 0.5;
#X obj 327 840 / 2;
#X obj 36 15 chronos;
#X floatatom 88 23 5 0 0 0 - - -;
#X obj 399 170 scaling 0 1 8 14;
#X obj 349 10 * 4;
#X obj 932 205 r \$0-intensity;
#X obj 928 303 s \$0-chaos;
#X obj 397 278 spigot;
#X obj 445 247 r \$0-chaos;
#X obj 99 -11 * 100;
#X obj 929 258 > 0.8;
#X obj 913 425 r \$0-intensity;
#X obj 935 472 r \$0-chaos;
#X obj 917 507 spigot;
#X obj 920 563 - 0.8;
#X obj 87 723 *~ 0.3;
#X obj 721 753 *~ 0.3;
#X obj 974 591 * 25;
#X obj 995 632 + 8;
#X obj 919 532 clip 0.8 1;
#X obj 622 282 * 1.6;
#X obj 436 847 r \$0-tempobase;
#X obj 1335 570 s \$0-tempobase;
#X obj 1565 558 + 40;
#X obj 1563 509 * 24;
#X obj 70 795 pingpong2vd~ 3 0.7 0.8 0.5;
#X obj 183 -21 / 4;
#X obj 209 22 metro 200;
#X obj 44 229 * 1.2;
#X obj 18 121 scaling 0 1 2 6;
#X obj 1028 -100 r knob1;
#X obj 1158 -94 r knob2;
#X obj 1332 -93 r knob3;
#X obj 1624 -86 r knob4;
#X text 1277 -131 parameters;
#X connect 0 0 82 0;
#X connect 2 1 4 0;
#X connect 3 0 70 0;
#X connect 4 0 71 0;
#X connect 5 0 21 0;
#X connect 5 1 24 0;
#X connect 7 0 8 0;
#X connect 8 0 9 0;
#X connect 8 1 10 1;
#X connect 9 0 10 0;
#X connect 10 0 11 0;
#X connect 11 0 18 0;
#X connect 12 0 79 0;
#X connect 15 0 30 0;
#X connect 16 0 79 0;
#X connect 17 0 48 0;
#X connect 18 0 6 0;
#X connect 19 0 64 0;
#X connect 19 0 80 1;
#X connect 19 0 81 0;
#X connect 20 0 26 0;
#X connect 21 0 2 0;
#X connect 22 0 26 5;
#X connect 22 1 26 1;
#X connect 22 1 26 3;
#X connect 23 0 20 0;
#X connect 23 0 22 0;
#X connect 24 1 25 0;
#X connect 25 0 2 2;
#X connect 25 1 2 5;
#X connect 26 1 29 0;
#X connect 26 1 46 0;
#X connect 27 0 20 1;
#X connect 28 0 21 1;
#X connect 29 1 3 0;
#X connect 30 0 31 0;
#X connect 31 0 34 0;
#X connect 32 0 8 0;
#X connect 32 0 77 0;
#X connect 33 0 35 0;
#X connect 34 0 32 0;
#X connect 35 0 13 0;
#X connect 36 0 37 0;
#X connect 37 0 49 0;
#X connect 38 0 43 0;
#X connect 39 0 48 0;
#X connect 40 0 59 0;
#X connect 41 0 23 3;
#X connect 42 0 5 3;
#X connect 43 0 42 0;
#X connect 44 0 45 0;
#X connect 45 0 47 0;
#X connect 46 1 29 5;
#X connect 47 0 46 3;
#X connect 48 0 36 0;
#X connect 49 0 14 0;
#X connect 50 0 52 0;
#X connect 51 0 80 2;
#X connect 52 0 51 0;
#X connect 53 0 54 0;
#X connect 54 0 55 0;
#X connect 55 0 80 4;
#X connect 56 1 58 0;
#X connect 56 1 84 0;
#X connect 58 0 62 0;
#X connect 58 0 75 0;
#X connect 59 0 41 0;
#X connect 60 0 65 0;
#X connect 62 0 23 3;
#X connect 63 0 62 1;
#X connect 64 0 56 1;
#X connect 65 0 61 0;
#X connect 66 0 68 0;
#X connect 67 0 68 1;
#X connect 68 0 74 0;
#X connect 69 0 72 0;
#X connect 70 0 80 0;
#X connect 71 0 80 0;
#X connect 72 0 73 0;
#X connect 73 0 58 4;
#X connect 74 0 69 0;
#X connect 75 0 5 3;
#X connect 76 0 50 0;
#X connect 78 0 33 0;
#X connect 79 0 78 0;
#X connect 80 0 1 0;
#X connect 80 1 1 1;
#X connect 81 0 82 1;
#X connect 82 0 23 0;
#X connect 82 0 5 0;
#X connect 83 0 22 1;
#X connect 84 0 23 1;
#X connect 84 0 83 0;
#X connect 84 0 24 1;
#X connect 85 0 7 0;
#X connect 86 0 12 0;
#X connect 87 0 39 0;
