#N canvas 0 22 818 552 10;
#N canvas 0 22 503 436 tweetypie 0;
#X obj 116 86 osc~;
#X obj 167 86 osc~;
#X obj 136 113 *~;
#X obj 135 188 osc~;
#X obj 136 162 +~;
#X obj 136 138 *~;
#X obj 114 221 vcf~;
#X obj 153 221 vcf~;
#X obj 132 299 outlet~;
#X obj 115 47 inlet~;
#X obj 167 47 inlet~;
#X obj 221 47 inlet~;
#X obj 276 47 inlet~;
#X obj 332 47 inlet~;
#X obj 383 47 inlet~;
#X obj 437 47 inlet;
#X obj 133 275 lop~ 5000;
#X text 197 223 Trachea \, throat and beak;
#X text 56 113 Syrinx;
#X text 56 187 Modulation;
#X text 177 13 Bird voice core DSP;
#X obj 133 251 *~ 0.1;
#X connect 0 0 2 0;
#X connect 1 0 2 1;
#X connect 2 0 5 0;
#X connect 3 0 6 0;
#X connect 3 0 7 0;
#X connect 4 0 3 0;
#X connect 5 0 4 0;
#X connect 6 0 21 0;
#X connect 7 0 21 0;
#X connect 9 0 0 0;
#X connect 10 0 1 0;
#X connect 11 0 5 1;
#X connect 12 0 4 1;
#X connect 13 0 6 1;
#X connect 14 0 7 1;
#X connect 15 0 6 2;
#X connect 15 0 7 2;
#X connect 16 0 8 0;
#X connect 21 0 16 0;
#X restore 469 424 pd tweetypie;
#X obj 307 45 line~;
#X msg 307 23 \$1 300;
#X obj 385 43 line~;
#X obj 616 45 line~;
#X msg 616 23 \$1 300;
#X obj 463 46 line~;
#X msg 463 24 \$1 300;
#X obj 756 43 line~;
#X msg 756 21 \$1 300;
#X obj 884 42 line~;
#X msg 884 20 \$1 300;
#X msg 385 21 \$1 500;
#X obj 409 341 +~;
#X obj 438 341 +~;
#X obj 155 59 line~;
#X msg 155 37 \$1 300;
#X obj 231 45 line~;
#X msg 231 23 \$1 500;
#X obj 409 318 *~;
#X obj 438 318 *~;
#X obj 540 42 line~;
#X msg 540 20 \$1 300;
#X obj 530 317 *~;
#X obj 453 291 +~;
#X obj 530 341 +~;
#X obj 464 318 +~;
#X obj 496 317 *~;
#X obj 685 43 line~;
#X msg 685 21 \$1 300;
#X obj 495 341 *~;
#X text 598 420 Synrinx + tracheal cavity + beak;
#X obj 558 317 *~;
#X obj 820 43 line~;
#X msg 820 21 \$1 300;
#X obj 557 341 +~;
#X obj 589 317 *~;
#X obj 588 341 +~;
#X obj 949 42 line~;
#X msg 949 20 \$1 300;
#X text 945 246 Base freq;
#X text 946 307 Modulation base;
#X text 946 327 Tracheal formant 1;
#X text 947 348 Tracheal base 1;
#X text 947 368 Tracheal formant 2;
#X obj -2 214 line~;
#X msg -2 192 \$1 300;
#X text 76 229 autotweet;
#X obj 60 253 s~ \$0-modall;
#X obj 500 84 r~ \$0-modall;
#X obj 31 298 cos~;
#X obj 31 275 clip~ -0.25 0.25;
#X obj 30 325 *~;
#X obj 62 134 osc~ 0.15;
#X obj 62 29 noise~;
#X obj 62 71 abs~;
#X obj 62 163 *~;
#X obj 31 253 -~;
#X obj 61 92 *~;
#X obj 78 113 *~;
#X obj 469 492 vcf~ 1 1;
#X msg 552 468 0.1;
#X obj 552 446 loadbang;
#X obj 496 469 *~ 1000;
#X obj 62 50 lop~ 0.01;
#X text 945 126 Beak articulation;
#X obj 495 448 sqrt~;
#X obj 96 71 * 1000;
#X obj 61 184 phasor~ 1;
#X obj 61 206 lop~ 2;
#X obj 155 15 * 3000;
#X obj 231 2 * 200;
#X obj 307 0 * 3000;
#X obj 385 -1 * 200;
#X obj 540 -3 * 3000;
#X obj 463 0 * 5000;
#X obj 685 -1 * 50;
#X obj 756 -1 * 3000;
#X obj 820 -2 * 3000;
#X obj 884 -3 * 3000;
#X obj 949 -4 * 3000;
#X obj 1012 -7 * 20;
#X obj 1012 16 + 2;
#X obj 78 1 * 3;
#X obj 467 601 outlet~;
#X obj 616 -1 * 2000;
#X text 945 144 Random tweetyness;
#X text 945 165 Syrinx t1 freq;
#X text 945 185 Syrinx t1 mod amnt;
#X text 945 206 Syrinx t2 freq;
#X text 945 226 Syrinx t2 mod amnt;
#X text 944 266 Sweep extent;
#X text 946 287 Modulation amnt;
#X text 947 389 Tracheal base 2;
#X text 947 408 Trachea filter resonance;
#X text 949 430 Global amps;
#X text 328 331 mod matrix;
#X obj -2 -24 r \$0-artic-r;
#X obj 78 -29 r \$0-tweet-r;
#X obj 155 -23 r \$0-syr1a-r;
#X obj 231 -23 r \$0-syr1m-r;
#X obj 307 -23 r \$0-syr2a-r;
#X obj 385 -23 r \$0-syr2m-r;
#X obj 463 -24 r \$0-basef-r;
#X obj 540 -25 r \$0-sweep-r;
#X obj 616 -25 r \$0-moda-r;
#X obj 685 -25 r \$0-modb-r;
#X obj 756 -25 r \$0-tf1-r;
#X obj 820 -25 r \$0-tb1-r;
#X obj 884 -26 r \$0-tf2-r;
#X obj 949 -26 r \$0-tb2-r;
#X obj 1012 -27 r \$0-reson-r;
#X obj 1089 -27 r \$0-vol-r;
#N canvas 0 22 799 255 tweet 0;
#X obj 201 -37 inlet;
#X obj 68 88 s \$0-artic-r;
#X obj 161 88 s \$0-tweet-r;
#X obj 253 88 s \$0-syr1a-r;
#X obj 341 88 s \$0-syr1m-r;
#X obj 430 88 s \$0-syr2a-r;
#X obj 519 88 s \$0-syr2m-r;
#X obj 610 88 s \$0-basef-r;
#X obj 699 88 s \$0-sweep-r;
#X obj -4 132 s \$0-moda-r;
#X obj 89 132 s \$0-modb-r;
#X obj 175 132 s \$0-tf1-r;
#X obj 252 132 s \$0-tb1-r;
#X obj 330 132 s \$0-tf2-r;
#X obj 408 132 s \$0-tb2-r;
#X obj 486 132 s \$0-reson-r;
#X obj 578 132 s \$0-vol-r;
#X obj 201 -13 unpack s f f f f f f f f f f f f f f f f;
#X obj -7 88 s \$0-name;
#X connect 0 0 17 0;
#X connect 17 0 18 0;
#X connect 17 1 1 0;
#X connect 17 2 2 0;
#X connect 17 3 3 0;
#X connect 17 4 4 0;
#X connect 17 5 5 0;
#X connect 17 6 6 0;
#X connect 17 7 7 0;
#X connect 17 8 8 0;
#X connect 17 9 9 0;
#X connect 17 10 10 0;
#X connect 17 11 11 0;
#X connect 17 12 12 0;
#X connect 17 13 13 0;
#X connect 17 14 14 0;
#X connect 17 15 15 0;
#X connect 17 16 16 0;
#X restore 66 593 pd tweet loader;
#N canvas 0 23 594 667 presets 0;
#X obj 23 28 inlet;
#X obj 17 825 outlet;
#X msg 6 93 blue-tailed-wibble 0.683544 0.658228 0.177215 0.0886076
0.911392 0.0126582 0.291139 0.772152 0.0886076 0.632911 0.316456 0.860759
0.227848 0.620253 0.417722 0.199808;
#X obj 23 59 select 0 1 2 3 4 5 6 7 8 9 10 11 12 13;
#X msg 39 144 irish-bushrubber 0.683544 0.582278 0.405063 0.78481 0.911392
0.0126582 0.848101 0.0506329 0.0886076 0.632911 0.316456 0.240506 0.113924
0.620253 0.417722 0.199808;
#X msg 37 194 lesser-spotted-snork 0.924051 0.936709 0.886076 0.78481
0 0.291139 0.126582 0.721519 0.0253165 0.189873 0.0759494 0.810127
0.329114 0.139241 0.0759494 0.243502;
#X msg 47 258 whippersnapper 0.21519 0.518987 0.379747 1 0.0126582
0.0126582 0.405063 1 0.0506329 0.620253 0.949367 0.164557 0.848101
0.164557 0.746835 0.372008;
#X msg 38 311 snafflenoop 0.886076 0.518987 0 0.0632911 0.0126582 0.0126582
0.278481 0.417722 0.0506329 0.278481 0.443038 0.164557 0.544304 0.164557
0.746835 0.372008;
#X msg 40 367 pig-hen 0.962025 0.898734 0 0.278481 0.164557 0.822785
0.0759494 0.417722 0.556962 0.113924 0.291139 0.126582 0.544304 0.151899
0.911392 0.372008;
#X msg 57 416 gruffbeard 0.164557 0.974684 0.734177 0.670886 0.240506
0.202532 0.227848 0.392405 0.0253165 0.392405 0.291139 0.126582 0.544304
0.734177 0.379747 0.868261;
#X msg 69 473 puddle-gull 0.708861 0.721519 0.253165 0.0759494 0.658228
0.177215 0.746835 0.202532 0.329114 0.202532 0.417722 0.177215 0.392405
0.405063 1 0.314002;
#X msg 60 536 common-freakfeather 0.392405 0.721519 0.0759494 0.316456
0.658228 0.177215 0.177215 0.848101 0.0886076 0.202532 0.417722 0.177215
0.392405 0.405063 1 0.314002;
#X connect 0 0 3 0;
#X connect 2 0 1 0;
#X connect 3 0 2 0;
#X connect 3 1 4 0;
#X connect 3 2 5 0;
#X connect 3 3 11 0;
#X connect 3 4 6 0;
#X connect 3 5 7 0;
#X connect 3 6 8 0;
#X connect 3 7 9 0;
#X connect 3 8 10 0;
#X connect 4 0 1 0;
#X connect 5 0 1 0;
#X connect 6 0 1 0;
#X connect 7 0 1 0;
#X connect 8 0 1 0;
#X connect 9 0 1 0;
#X connect 10 0 1 0;
#X connect 11 0 1 0;
#X restore 66 573 pd presets;
#X obj 470 516 *~ 0.1;
#X obj 466 569 clip~ -0.99 0.99;
#X obj 37 433 inlet;
#X obj 38 482 * 9;
#X obj 38 508 int;
#X obj 111 411 loadbang;
#X obj 111 433 metro 1000;
#X obj 70 542 moses 1;
#X msg 200 439 0;
#X obj 111 455 random 30;
#X connect 0 0 60 0;
#X connect 1 0 13 1;
#X connect 1 0 26 0;
#X connect 2 0 1 0;
#X connect 3 0 26 1;
#X connect 4 0 27 1;
#X connect 5 0 4 0;
#X connect 6 0 25 1;
#X connect 7 0 6 0;
#X connect 8 0 32 1;
#X connect 9 0 8 0;
#X connect 10 0 36 1;
#X connect 11 0 10 0;
#X connect 12 0 3 0;
#X connect 13 0 0 0;
#X connect 14 0 0 1;
#X connect 15 0 19 1;
#X connect 15 0 24 0;
#X connect 16 0 15 0;
#X connect 17 0 24 1;
#X connect 18 0 17 0;
#X connect 19 0 13 0;
#X connect 20 0 14 0;
#X connect 21 0 23 1;
#X connect 22 0 21 0;
#X connect 23 0 25 0;
#X connect 24 0 20 1;
#X connect 25 0 0 3;
#X connect 26 0 14 1;
#X connect 27 0 30 0;
#X connect 28 0 30 1;
#X connect 29 0 28 0;
#X connect 30 0 0 2;
#X connect 32 0 35 0;
#X connect 33 0 35 1;
#X connect 34 0 33 0;
#X connect 35 0 0 4;
#X connect 36 0 37 0;
#X connect 37 0 0 5;
#X connect 38 0 37 1;
#X connect 39 0 38 0;
#X connect 45 0 57 0;
#X connect 46 0 45 0;
#X connect 49 0 19 0;
#X connect 49 0 20 0;
#X connect 49 0 23 0;
#X connect 49 0 27 0;
#X connect 49 0 32 0;
#X connect 49 0 36 0;
#X connect 50 0 52 0;
#X connect 50 0 52 1;
#X connect 51 0 50 0;
#X connect 52 0 66 0;
#X connect 53 0 56 0;
#X connect 54 0 64 0;
#X connect 55 0 58 0;
#X connect 56 0 68 0;
#X connect 57 0 51 0;
#X connect 58 0 53 0;
#X connect 58 0 59 0;
#X connect 59 0 56 1;
#X connect 60 0 115 0;
#X connect 61 0 60 2;
#X connect 62 0 61 0;
#X connect 63 0 60 1;
#X connect 64 0 55 0;
#X connect 66 0 63 0;
#X connect 67 0 58 1;
#X connect 68 0 69 0;
#X connect 69 0 48 0;
#X connect 69 0 57 1;
#X connect 70 0 16 0;
#X connect 71 0 18 0;
#X connect 72 0 2 0;
#X connect 73 0 12 0;
#X connect 74 0 22 0;
#X connect 75 0 7 0;
#X connect 76 0 29 0;
#X connect 77 0 9 0;
#X connect 78 0 34 0;
#X connect 79 0 11 0;
#X connect 80 0 39 0;
#X connect 81 0 82 0;
#X connect 82 0 0 6;
#X connect 83 0 59 1;
#X connect 83 0 67 0;
#X connect 85 0 5 0;
#X connect 97 0 46 0;
#X connect 98 0 83 0;
#X connect 99 0 70 0;
#X connect 100 0 71 0;
#X connect 101 0 72 0;
#X connect 102 0 73 0;
#X connect 103 0 75 0;
#X connect 104 0 74 0;
#X connect 105 0 85 0;
#X connect 106 0 76 0;
#X connect 107 0 77 0;
#X connect 108 0 78 0;
#X connect 109 0 79 0;
#X connect 110 0 80 0;
#X connect 111 0 81 0;
#X connect 112 0 115 1;
#X connect 114 0 113 0;
#X connect 115 0 116 0;
#X connect 116 0 84 0;
#X connect 117 0 118 0;
#X connect 118 0 119 0;
#X connect 119 0 122 1;
#X connect 120 0 121 0;
#X connect 120 0 123 0;
#X connect 121 0 124 0;
#X connect 122 0 114 0;
#X connect 123 0 114 0;
#X connect 124 0 122 0;
