#N canvas 0 23 760 579 10;
#X obj 92 192 metro;
#X floatatom 145 133 5 0 0 0 - - -, f 5;
#X obj 128 133 tgl 15 0 empty empty empty 17 7 0 10 -262144 -1 -1 1
1;
#X obj 171 179 / 1000;
#X obj 170 262 /;
#X msg 171 231 1;
#X obj 171 206 t b f;
#X obj 167 308 osc~;
#X obj 219 309 phasor~;
#X obj 93 335 outlet;
#X obj 90 90 inlet;
#X obj 241 47 inlet;
#X obj 222 366 snapshot~;
#X obj 322 303 metro 1;
#X obj 328 212 loadbang;
#X obj 326 261 tgl 15 0 empty empty empty 17 7 0 10 -262144 -1 -1 1
1;
#X obj 159 367 snapshot~;
#X obj 150 475 outlet;
#X obj 226 475 outlet;
#X obj 157 418 + 1;
#X obj 154 443 / 2;
#X obj 221 422 + 1;
#X obj 222 447 / 2;
#X obj 110 133 bng 15 250 50 0 empty empty empty 17 7 0 10 -262144
-1 -1;
#X obj 244 90 \$1;
#X obj 322 40 loadbang;
#X obj 437 253 outlet;
#X obj 443 164 del 20;
#X obj 434 216 int;
#X connect 0 0 23 0;
#X connect 1 0 3 0;
#X connect 1 0 0 1;
#X connect 1 0 27 0;
#X connect 1 0 28 1;
#X connect 2 0 0 0;
#X connect 3 0 6 0;
#X connect 4 0 7 0;
#X connect 4 0 8 0;
#X connect 5 0 4 0;
#X connect 6 0 5 0;
#X connect 6 1 4 1;
#X connect 7 0 16 0;
#X connect 8 0 12 0;
#X connect 10 0 2 0;
#X connect 11 0 24 0;
#X connect 12 0 21 0;
#X connect 13 0 12 0;
#X connect 13 0 16 0;
#X connect 14 0 15 0;
#X connect 15 0 13 0;
#X connect 16 0 19 0;
#X connect 19 0 20 0;
#X connect 20 0 17 0;
#X connect 21 0 22 0;
#X connect 22 0 18 0;
#X connect 23 0 9 0;
#X connect 24 0 1 0;
#X connect 25 0 24 0;
#X connect 27 0 28 0;
#X connect 28 0 26 0;
#X coords 0 -1 1 1 85 60 1 100 100;
