#N canvas 0 23 750 470 10;
#X obj 237 348 line~;
#X msg 237 190 0 \, 1 \$1;
#X obj 319 243 delay;
#X floatatom 299 136 5 0 0 0 D - -, f 5;
#X floatatom 253 136 5 0 0 0 A - -, f 5;
#X obj 239 163 f;
#X msg 251 309 1 \, 0 \$1;
#X floatatom 357 136 5 0 0 0 R - -, f 5;
#X obj 319 275 f;
#X obj 348 218 +;
#X obj 328 177 t b f;
#X obj 106 429 osc~;
#X obj 84 32 mtof;
#X obj 108 396 +~;
#X obj 143 370 *~;
#X obj 176 344 *~;
#X floatatom 205 137 5 0 0 0 depth - -, f 5;
#X obj 133 268 osc~;
#X obj 131 225 *~;
#X floatatom 138 138 5 0 0 0 ratio - -, f 5;
#X text 222 112 carrier;
#X obj 98 71 t f f b b b b;
#X obj 398 349 line~;
#X msg 398 191 0 \, 1 \$1;
#X obj 480 244 delay;
#X floatatom 460 137 5 0 0 0 D - -, f 5;
#X floatatom 414 137 5 0 0 0 A - -, f 5;
#X obj 400 164 f;
#X msg 412 310 1 \, 0 \$1;
#X floatatom 518 137 5 0 0 0 R - -, f 5;
#X obj 480 276 f;
#X obj 509 219 +;
#X obj 489 178 t b f;
#X text 458 111 amp;
#X obj 103 463 *~;
#X obj 82 7 inlet;
#X obj 308 9 loadbang;
#X obj 234 47 f \$1;
#X obj 284 48 f \$2;
#X obj 327 49 f \$3;
#X obj 377 50 f \$4;
#X obj 419 50 f \$5;
#X obj 469 51 f \$6;
#X obj 512 52 f \$7;
#X obj 562 53 f \$8;
#X obj 103 505 outlet~;
#X connect 0 0 15 1;
#X connect 1 0 0 0;
#X connect 2 0 8 0;
#X connect 3 0 10 0;
#X connect 4 0 5 1;
#X connect 4 0 9 0;
#X connect 5 0 1 0;
#X connect 6 0 0 0;
#X connect 7 0 8 1;
#X connect 8 0 6 0;
#X connect 9 0 2 1;
#X connect 10 0 9 0;
#X connect 10 1 9 1;
#X connect 11 0 34 0;
#X connect 12 0 21 0;
#X connect 13 0 11 0;
#X connect 14 0 13 1;
#X connect 15 0 14 1;
#X connect 16 0 15 0;
#X connect 17 0 14 0;
#X connect 18 0 17 0;
#X connect 19 0 18 1;
#X connect 21 0 13 0;
#X connect 21 1 18 0;
#X connect 21 2 2 0;
#X connect 21 3 5 0;
#X connect 21 4 24 0;
#X connect 21 5 27 0;
#X connect 22 0 34 1;
#X connect 23 0 22 0;
#X connect 24 0 30 0;
#X connect 25 0 32 0;
#X connect 26 0 27 1;
#X connect 26 0 31 0;
#X connect 27 0 23 0;
#X connect 28 0 22 0;
#X connect 29 0 30 1;
#X connect 30 0 28 0;
#X connect 31 0 24 1;
#X connect 32 0 31 0;
#X connect 32 1 31 1;
#X connect 34 0 45 0;
#X connect 35 0 12 0;
#X connect 36 0 37 0;
#X connect 36 0 38 0;
#X connect 36 0 39 0;
#X connect 36 0 40 0;
#X connect 36 0 41 0;
#X connect 36 0 42 0;
#X connect 36 0 44 0;
#X connect 37 0 19 0;
#X connect 38 0 16 0;
#X connect 39 0 4 0;
#X connect 40 0 3 0;
#X connect 41 0 7 0;
#X connect 42 0 26 0;
#X connect 43 0 25 0;
#X connect 44 0 29 0;
#X coords 0 -1 1 1 540 60 1 100 100;
