#N canvas 442 51 1053 586 10;
#X obj -173 222 inlet~;
#X obj 320 540 *~;
#X obj -223 526 *~;
#X obj -167 692 outlet~;
#X obj 258 684 outlet~;
#X obj 149 210 inlet;
#X obj 343 234 inlet;
#X obj 482 238 inlet;
#X obj 151 260 * 127;
#X obj 149 292 mtof;
#X obj 274 320 clip 0 0.99;
#X obj 28 27 hsl 100 15 1 1000 0 1 empty empty empty -2 -8 0 10 -262144
-1 -1 0 1;
#X obj -34 207 inlet;
#X obj 30 71 hsl 100 15 0 1 0 1 empty empty empty -2 -8 0 10 -262144
-1 -1 0 1;
#X obj 34 115 hsl 100 15 0 1 0 1 empty empty empty -2 -8 0 10 -262144
-1 -1 0 1;
#X obj 34 161 hsl 100 15 0 1 0 1 empty empty empty -2 -8 0 10 -262144
-1 -1 0 1;
#X obj -166 570 *~;
#X obj -84 578 *~;
#X obj 252 583 *~;
#X obj 297 585 *~;
#X obj 473 385 sqrt;
#X obj 535 317 t f b;
#X msg 566 363 1;
#X obj 541 401 -;
#X obj 531 450 sqrt;
#X text 95 46 time;
#X text 94 92 tone;
#X text 72 137 feedback;
#X text 105 185 mix;
#X obj 4 -85 \$1;
#X obj 50 -84 \$2;
#X obj 96 -83 \$3;
#X obj 143 -82 \$4;
#X obj 24 -152 loadbang;
#X obj 247 421 delread~ \$0-pong 100;
#X obj -171 401 delread~ \$0-ping 100;
#X obj -170 357 delwrite~ \$0-ping 2000;
#X obj 247 382 delwrite~ \$0-pong 2000;
#X obj -59 291 line~;
#X msg -101 65 \$1 5;
#X obj -171 469 lop~ 3000;
#X obj 251 487 lop~ 3000;
#X connect 0 0 17 0;
#X connect 0 0 19 0;
#X connect 0 0 36 0;
#X connect 1 0 36 0;
#X connect 2 0 37 0;
#X connect 5 0 13 0;
#X connect 6 0 14 0;
#X connect 7 0 15 0;
#X connect 8 0 9 0;
#X connect 9 0 40 1;
#X connect 9 0 41 1;
#X connect 10 0 1 1;
#X connect 10 0 2 1;
#X connect 11 0 39 0;
#X connect 12 0 11 0;
#X connect 13 0 8 0;
#X connect 14 0 10 0;
#X connect 15 0 20 0;
#X connect 15 0 21 0;
#X connect 16 0 3 0;
#X connect 17 0 3 0;
#X connect 18 0 4 0;
#X connect 19 0 4 0;
#X connect 20 0 16 1;
#X connect 20 0 18 1;
#X connect 21 0 23 1;
#X connect 21 1 22 0;
#X connect 22 0 23 0;
#X connect 23 0 24 0;
#X connect 24 0 19 1;
#X connect 24 0 17 1;
#X connect 29 0 11 0;
#X connect 30 0 13 0;
#X connect 31 0 14 0;
#X connect 32 0 15 0;
#X connect 33 0 29 0;
#X connect 33 0 30 0;
#X connect 33 0 31 0;
#X connect 33 0 32 0;
#X connect 34 0 41 0;
#X connect 35 0 40 0;
#X connect 38 0 34 0;
#X connect 38 0 35 0;
#X connect 39 0 38 0;
#X connect 40 0 2 0;
#X connect 40 0 16 0;
#X connect 41 0 1 0;
#X connect 41 0 18 0;
#X coords 0 -1 1 1 150 200 1 0 0;
