#N canvas 0 22 746 521 10;
#X obj 103 67 inlet;
#X text 137 41 in low;
#X text 195 39 in high;
#X obj 149 66 \$1;
#X obj 195 66 \$2;
#X obj 166 -25 loadbang;
#X obj 164 7 t b b b b;
#X floatatom 143 120 5 0 0 0 - - -, f 5;
#X floatatom 179 122 5 0 0 0 - - -, f 5;
#X obj 133 184 -;
#X obj 144 152 t b f;
#X floatatom 133 224 5 0 0 0 - - -, f 5;
#X text 178 225 in range;
#X obj 58 275 /;
#X text 91 276 scale input 0 - 1;
#X floatatom 106 120 5 0 0 0 - - -, f 5;
#X floatatom 215 122 5 0 0 0 - - -, f 5;
#X floatatom 253 123 5 0 0 0 - - -, f 5;
#X obj 249 65 \$3;
#X obj 295 65 \$4;
#X obj 291 194 -;
#X obj 302 162 t b f;
#X text 246 44 out low;
#X text 295 48 out high;
#X text 106 299 multiply by output range;
#X obj 63 302 *;
#X floatatom 108 135 5 0 0 0 - - -, f 5;
#X obj 61 429 outlet;
#X text 102 335 add lowest output;
#X obj 58 330 +;
#X obj 409 9 inlet;
#X obj 354 5 inlet;
#X obj 305 3 inlet;
#X obj 250 -1 inlet;
#X connect 0 0 15 0;
#X connect 3 0 7 0;
#X connect 4 0 8 0;
#X connect 5 0 6 0;
#X connect 6 0 19 0;
#X connect 6 1 18 0;
#X connect 6 2 4 0;
#X connect 6 3 3 0;
#X connect 7 0 10 0;
#X connect 8 0 9 0;
#X connect 9 0 11 0;
#X connect 10 0 9 0;
#X connect 10 1 9 1;
#X connect 11 0 13 1;
#X connect 13 0 25 0;
#X connect 15 0 13 0;
#X connect 16 0 21 0;
#X connect 16 0 29 1;
#X connect 17 0 20 0;
#X connect 18 0 16 0;
#X connect 19 0 17 0;
#X connect 20 0 25 1;
#X connect 21 0 20 0;
#X connect 21 1 20 1;
#X connect 25 0 29 0;
#X connect 26 0 27 0;
#X connect 29 0 26 0;
#X connect 30 0 17 0;
#X connect 31 0 16 0;
#X connect 32 0 8 0;
#X connect 33 0 7 0;
#X coords 0 -1 1 1 185 60 1 100 100;
