#N canvas 0 23 1096 699 10;
#X obj 468 221 + 1;
#X obj 510 218 f;
#X text 690 86 add delay every nth between;
#X obj 426 572 spigot 1;
#X obj 538 568 spigot 0;
#X msg 465 486 0;
#X msg 505 486 1;
#X obj 582 534 == 0;
#X obj 880 88 inlet;
#X text 926 88 delay time;
#X obj 470 682 outlet;
#X obj 452 43 inlet;
#X text 317 78 bangs in;
#X text 321 348 count the bangs;
#X text 232 589 gates switch every nth bang;
#X text 627 616 this could be related to master clock?;
#X obj 457 120 t f f b;
#X obj 465 349 % 4;
#X obj 468 449 sel 3;
#X obj 533 631 pipe \$1;
#X connect 0 0 1 1;
#X connect 0 0 17 0;
#X connect 1 0 0 0;
#X connect 3 0 10 0;
#X connect 4 0 19 0;
#X connect 5 0 3 1;
#X connect 5 0 7 0;
#X connect 6 0 3 1;
#X connect 6 0 7 0;
#X connect 7 0 4 1;
#X connect 8 0 19 1;
#X connect 11 0 16 0;
#X connect 16 0 3 0;
#X connect 16 1 4 0;
#X connect 16 2 1 0;
#X connect 17 0 18 0;
#X connect 18 0 5 0;
#X connect 18 1 6 0;
#X connect 19 0 10 0;
