#N canvas -8 0 1920 1026 12;
#N canvas 6 139 1920 1026 clock 0;
#X floatatom 67 305 5 0 0 0 - - - 0;
#X msg 130 301 1;
#X obj 8 41 bng 40 250 50 0 empty empty empty 17 7 0 10 #ff0400 #000000 #000000;
#X obj 51 332 + 1;
#X obj 56 42 tgl 40 0 empty empty empty 17 7 0 10 #ff0400 #000000 #000000 0 1;
#X floatatom 271 357 5 0 0 0 - - - 0;
#X obj 267 400 s timeCount;
#X obj 104 261 metro 55, f 16;
#X obj 181 297 loadbang;
#X obj 23 372 s bang;
#X floatatom 536 302 5 0 0 0 - - - 0;
#X obj 261 46 hradio 30 1 0 10 empty empty \ 24\ 50\ 55\ 60\ 70\ 80\ 90100110200 0 22 0 16 #fcfcfc #000000 #000000 0;
#X floatatom 181 46 5 0 0 0 Speed - - 24;
#X msg 519 188 24;
#X msg 566 243 50;
#X msg 594 210 55;
#X msg 644 276 60;
#X msg 645 304 70;
#X msg 681 220 80;
#X msg 681 248 90;
#X msg 681 276 110;
#X obj 519 157 sel 0 1 2 3 4 5 6 7 8 9 10;
#X msg 681 304 100;
#X msg 784 254 200;
#X obj 130 466 % 8;
#X floatatom 130 490 5 0 0 0 - - - 0;
#X obj 133 530 sel 0;
#X obj 133 554 bng 19 250 50 0 empty empty empty 0 -10 0 12 #fcfcfc #000000 #000000;
#X obj 133 578 s timeCount8th;
#X obj 312 501 + 1;
#X floatatom 373 500 5 0 0 0 - - - 0;
#X msg 275 465 1;
#X obj 373 523 % 4;
#X floatatom 373 547 5 0 0 0 - - - 0;
#X obj 563 533 hradio 19 1 0 8 empty empty empty 0 -10 0 12 #fcfcfc #000000 #000000 0;
#X obj 563 571 hradio 19 1 0 4 empty empty empty 0 -10 0 12 #fcfcfc #000000 #000000 0;
#X obj 36 427 expr if($f1 < $f2 \, $f1 \, 0);
#X msg 83 376 64;
#X obj 243 629 show;
#X obj 596 701;
#X msg 596 725 \; testD 44;
#X obj 574 42 hsl 500 38 0 1 0 0 empty empty Speed -2 -10 0 12 #fcfcfc #000000 #000000 0 1;
#X obj 613 127 int;
#X obj 665 115 * 2000;
#X obj 7 7 hradio 29 1 0 64 empty timeCount empty 0 -10 0 12 #2f004d #00ff04 #00ff04 0;
#X connect 0 0 3 0;
#X connect 1 0 0 0;
#X connect 2 0 0 0;
#X connect 2 0 9 0;
#X connect 3 0 36 0;
#X connect 4 0 7 0;
#X connect 5 0 3 1;
#X connect 5 0 6 0;
#X connect 5 0 24 0;
#X connect 7 0 2 0;
#X connect 8 0 1 0;
#X connect 8 0 37 0;
#X connect 10 0 12 0;
#X connect 11 0 21 0;
#X connect 12 0 7 1;
#X connect 13 0 10 0;
#X connect 14 0 10 0;
#X connect 15 0 10 0;
#X connect 16 0 10 0;
#X connect 17 0 10 0;
#X connect 18 0 10 0;
#X connect 19 0 10 0;
#X connect 20 0 10 0;
#X connect 21 0 13 0;
#X connect 21 1 14 0;
#X connect 21 2 15 0;
#X connect 21 3 16 0;
#X connect 21 4 17 0;
#X connect 21 5 18 0;
#X connect 21 6 19 0;
#X connect 21 7 22 0;
#X connect 21 8 20 0;
#X connect 21 9 23 0;
#X connect 22 0 10 0;
#X connect 23 0 10 0;
#X connect 24 0 25 0;
#X connect 25 0 26 0;
#X connect 25 0 34 0;
#X connect 26 0 27 0;
#X connect 27 0 28 0;
#X connect 27 0 31 0;
#X connect 29 0 30 0;
#X connect 30 0 29 1;
#X connect 30 0 32 0;
#X connect 31 0 29 0;
#X connect 32 0 33 0;
#X connect 33 0 35 0;
#X connect 36 0 5 0;
#X connect 37 0 36 1;
#X connect 39 0 40 0;
#X connect 41 0 43 0;
#X connect 42 0 12 0;
#X connect 43 0 42 0;
#X coords 0 -1 1 1 1900 85 2 1 1;
#X restore 20 -1 pd clock;
#X obj 476 90 slideControl2;
#X obj 24 647 slideControl1;
#X obj 927 89 slideControl3;
#X obj 23 366 slideControl5;
#X obj 476 369 slideControl6;
#X obj 1377 89 slideControl4;
#X obj 927 370 slideControl7;
#X obj 1377 371 slideControl8;
#N canvas 192 192 1920 1026 presets 0;
#X obj 1495 131 bng 44 250 50 0 empty empty 4\ on\ the\ floor 0 11 0 36 #ffc7c6 #000000 #000000;
#X obj 1332 179 loadbang;
#X msg 55 43 \; cntrl_length_1 4 \; cntrl_pulse_1 1 \; cntrl_channel_1 10 \; cntrl_note_1 0 \;;
#X msg 216 2 \; cntrl_length_2 8 \; cntrl_pulse_2 5 \; cntrl_offset_2 1 \; cntrl_channel_2 10 \; cntrl_note_2 1 \;;
#X msg 383 4 \; cntrl_length_3 8 \; cntrl_pulse_3 8 \; cntrl_offset_3 0 \; cntrl_channel_3 10 \; cntrl_note_3 2 \;;
#X msg 546 2 \; cntrl_length_4 16 \; cntrl_pulse_4 4 \; cntrl_offset_4 0 \; cntrl_channel_4 10 \; cntrl_note_4 3 \;;
#X msg 57 129 \; cntrl_length_5 64 \; cntrl_pulse_5 64 \; cntrl_channel_5 10 \; cntrl_note_5 4 \;;
#X msg 215 132 \; cntrl_length_6 7 \; cntrl_pulse_6 3 \; cntrl_channel_6 10 \; cntrl_note_6 5 \;;
#X msg 384 135 \; cntrl_length_7 7 \; cntrl_pulse_7 7 \; cntrl_channel_7 10 \; cntrl_note_7 6 \;;
#X msg 545 136 \; cntrl_length_8 64 \; cntrl_pulse_8 1 \; cntrl_offset_8 -1 \; cntrl_channel_8 10 \; cntrl_note_8 7 \;;
#X msg 26 232 \; cntrl_length_1 64 \; \;, f 19;
#X msg 793 51 \; cntrl_channel_1 10 \; cntrl_channel_2 10 \; cntrl_channel_3 10 \; cntrl_channel_4 10 \; cntrl_channel_5 10 \; cntrl_channel_6 10 \; cntrl_channel_7 10 \; cntrl_channel_8 10 \;;
#X msg 964 52 \; cntrl_note_1 0 \; cntrl_note_2 1 \; cntrl_note_3 2 \; cntrl_note_4 3 \; cntrl_note_5 4 \; cntrl_note_6 5 \; cntrl_note_7 6 \; cntrl_note_8 7 \;;
#X msg 1089 50 \; cntrl_length_1 64 \; cntrl_length_2 64 \; cntrl_length_3 64 \; cntrl_length_4 64 \; cntrl_length_5 64 \; cntrl_length_6 64 \; cntrl_length_7 64 \; cntrl_length_8 64 \;;
#X msg 795 187 \; cntrl_pulse_1 16 \; cntrl_pulse_2 64 \; cntrl_pulse_3 64 \; cntrl_pulse_4 64 \; cntrl_pulse_5 64 \; cntrl_pulse_6 64 \; cntrl_pulse_7 64 \; cntrl_pulse_8 1 \; cntrl_offset_8 -1 \;;
#X msg 964 196 \; cntrl_mute_1 1 \; cntrl_mute_2 1 \; cntrl_mute_3 1 \; cntrl_mute_4 1 \; cntrl_mute_5 1 \; cntrl_mute_6 1 \; cntrl_mute_7 1 \; cntrl_mute_8 1 \;;
#X msg 794 379 \; cntrl_pulse_1 23 \; cntrl_pulse_2 56 \; cntrl_pulse_3 23 \; cntrl_pulse_4 33 \; cntrl_pulse_5 61 \; cntrl_pulse_6 23 \; cntrl_pulse_7 6 \; cntrl_pulse_8 1 \; cntrl_offset_8 -1 \;;
#X msg 802 542 \; cntrl_shuffle_1 111 \; cntrl_shuffle_2 111 \; cntrl_shuffle_3 111 \; cntrl_shuffle_4 111 \; cntrl_shuffle_5 111 \; cntrl_shuffle_6 111 \; cntrl_shuffle_7 111 \; cntrl_shuffle_8 111 \; cntrl_offset_8 -1 \;;
#X msg 1331 70 \; pulse_1 16 \; length_1 64 \; offset_1 0 \; note_1 35 \; channel_1 1 \;;
#X msg 1331 201 \; cntrl_pulse_1 16 \; cntrl_length_1 64 \; cntrl_offset_1 0 \; cntrl_note_1 40 \; cntrl_channel_1 1 \;, f 19;
#X connect 0 0 18 0;
#X connect 1 0 19 0;
#X restore 55 273 pd presets;
#N canvas -8 0 1920 1026 sequencer 1;
#X obj 260 1468 osc~;
#X obj 271 1560 dac~;
#X floatatom 825 917 5 0 0 0 - - - 0;
#X msg 244 1151 48;
#X msg 275 1151 60;
#X msg 213 1152 36;
#X text 304 1151 Octive;
#X floatatom 298 1206 5 0 0 0 - - - 0;
#X obj 194 1219 + 36;
#X floatatom 477 1370 8 0 0 0 - - - 0;
#X obj 477 1344 line 0 100;
#X obj 669 1289 bng 16 250 50 0 empty empty empty 0 -8 0 10 #fcfcfc #000000 #000000;
#X obj 316 1002 expr $f1 % ($f2 - $f3) + $f3;
#X obj 378 975 random 100;
#X obj 333 844 bng 16 250 50 0 empty empty empty 0 -8 0 10 #fcfcfc #000000 #000000;
#X floatatom 325 915 5 0 0 0 - - - 0;
#X floatatom 316 1023 5 0 0 0 - - - 0;
#X obj 261 1445 mtof;
#X obj 937 1375 % 12;
#X floatatom 984 1390 5 0 0 0 - - - 0;
#X floatatom 1069 1497 5 0 0 0 - - - 0;
#X msg 1071 1524 -1;
#X msg 970 1496 0;
#X obj 732 1597 +;
#X floatatom 742 1619 5 0 0 0 - - - 0;
#X obj 1130 1306 select 0 2 4 7 9;
#X msg 1126 1346 0;
#X floatatom 1223 1337 5 0 0 0 - - - 0;
#X obj 1224 1357 -1;
#X obj 1218 1392 select 0 2 4 7 9;
#X floatatom 1306 1434 5 0 0 0 - - - 0;
#X msg 1298 1469 -2;
#X msg 1214 1432 -1;
#X obj 1144 1557 +;
#X floatatom 887 1554 5 0 0 0 - - - 0;
#X text 1159 1285 major pentatonic;
#X text 1154 1263 intervals \, degrees;
#X obj 1193 960 select 0 2 4 5 7 9 11;
#X text 1239 937 major scale;
#X obj 925 1458 select 0 2 3 5 7 8 10 12;
#X text 971 1435 minor scale;
#X text 1237 1004 melodic minor;
#X obj 1191 1027 select 0 2 3 5 7 9 11 12;
#X text 1245 1065 harmonic minor;
#X obj 1199 1088 select 0 2 3 5 7 8 11 12;
#X obj 722 892 % 16;
#X msg 525 1315 1 \, 0 500 10;
#X floatatom 1136 920 3 0 127 0 - - - 0;
#X obj 1291 789 tabread;
#X obj 1543 975 loadbang;
#X text 1605 1113 index;
#X floatatom 1572 1114 4 0 9 0 - - - 0;
#X floatatom 1572 1232 5 0 0 0 - - - 0;
#X text 1682 1148 change array name;
#X text 1615 1233 output = table-ex[index];
#N canvas 0 50 450 250 (subpatch) 0;
#X array velArray1 16 float 3;
#A 0 54.6099 66.0398 74.9297 77.4697 67.3098 57.1499 58.4199 62.2298 67.3098 74.9297 96.5195 101.599 58.4199 60.9598 66.0398 67.3098;
#X coords 0 127 16 0 480 100 1 0 0;
#X restore 541 475 graph;
#X msg 1588 1148 set randArray;
#X obj 1572 1188 tabread randArray;
#X floatatom 694 1018 4 0 127 0 - - - 0;
#X floatatom 831 1143 4 0 9 0 - - - 0;
#X msg 424 958 60;
#X msg 395 957 83;
#X obj 251 1525 *~ 0.01;
#X msg 1543 1007 \; randArray resize 16 \; randArray bounds 0 127 16 0 \; randArray xlabel 1 2 3 4 5 6 7 8 9 10 11 12 13 14 15 16 \; randArray ylabel 0 12 24 36 48 60 72 84 96 108 120 127 \; randArray 81 88 51 39 14 59 66 57 99 \;;
#X obj 728 840 r timeCount;
#X floatatom 728 864 10 0 0 0 - - - 0;
#X obj 977 1640 noteout 12;
#X obj 763 1276 int;
#N canvas 0 50 450 250 (subpatch) 0;
#X array noteArray1 16 float 3;
#A 0 122.767 45.72 46.99 49.5301 54.6101 59.6902 64.347 71.1204 75.7771 80.0105 90.594 97.7908 106.681 117.264 121.921 3.81;
#X coords 0 127 16 0 480 300 1 0 0;
#X restore 543 155 graph;
#X obj 694 1177 tabwrite noteArray1;
#X obj 763 1252 tabread noteArray1;
#X obj 903 1206 tabread velArray1;
#X obj 581 1065 tabwrite velArray1;
#X obj 942 1593 makenote 250 250;
#N canvas 0 50 450 250 (subpatch) 0;
#X array lenArray1 16 float 3;
#A 0 73 920 3960 3120 1080 600 3680 1080 200 2120 2000 3680 920 1800 1920 2840;
#X coords 0 4000 16 0 480 100 1 0 0;
#X restore 542 596 graph;
#X obj 1131 1201 tabread lenArray1;
#X obj 511 1131 tabwrite velArray1;
#X obj 509 1176 tabwrite lenArray1;
#X obj 694 1041 * 40;
#X msg 489 955 0;
#X msg 460 954 100;
#X obj 543 105 hradio 30 1 0 16 empty loc1 empty 0 -10 0 24 #fcfcfc #000000 #000000 0;
#X obj 828 945 s loc1;
#X msg 1295 547 \; velArray1 xlabel 0 \; lenArray1 xlabel 0 \; velArray1 ylabel 0 \;;
#X msg 985 844 \; noteArray1 24 39 29 43 23 19 39 100 94 29 22 99 11 0 33 88 \;;
#X connect 0 0 62 0;
#X connect 2 0 82 0;
#X connect 3 0 7 0;
#X connect 3 0 8 1;
#X connect 4 0 7 0;
#X connect 4 0 8 1;
#X connect 5 0 7 0;
#X connect 5 0 8 1;
#X connect 9 0 62 1;
#X connect 10 0 9 0;
#X connect 11 0 46 0;
#X connect 12 0 16 0;
#X connect 13 0 15 0;
#X connect 14 0 13 0;
#X connect 15 0 12 0;
#X connect 16 0 58 0;
#X connect 17 0 0 0;
#X connect 18 0 19 0;
#X connect 18 0 25 0;
#X connect 18 0 39 0;
#X connect 20 0 21 0;
#X connect 23 0 24 0;
#X connect 24 0 17 0;
#X connect 25 0 26 0;
#X connect 25 1 26 0;
#X connect 25 2 26 0;
#X connect 25 3 26 0;
#X connect 25 4 26 0;
#X connect 25 5 27 0;
#X connect 26 0 33 1;
#X connect 27 0 28 0;
#X connect 28 0 29 0;
#X connect 29 0 32 0;
#X connect 29 1 32 0;
#X connect 29 2 32 0;
#X connect 29 3 32 0;
#X connect 29 4 32 0;
#X connect 29 5 30 0;
#X connect 30 0 31 0;
#X connect 31 0 33 1;
#X connect 32 0 33 1;
#X connect 33 0 34 0;
#X connect 34 0 23 0;
#X connect 34 0 73 0;
#X connect 39 0 22 0;
#X connect 39 1 22 0;
#X connect 39 2 22 0;
#X connect 39 3 22 0;
#X connect 39 4 22 0;
#X connect 39 5 22 0;
#X connect 39 6 22 0;
#X connect 39 7 22 0;
#X connect 39 8 20 0;
#X connect 45 0 2 0;
#X connect 45 0 59 0;
#X connect 46 0 10 0;
#X connect 49 0 63 0;
#X connect 51 0 57 0;
#X connect 56 0 57 0;
#X connect 57 0 52 0;
#X connect 58 0 69 0;
#X connect 58 0 72 0;
#X connect 58 0 76 0;
#X connect 58 0 78 0;
#X connect 59 0 18 0;
#X connect 59 0 69 1;
#X connect 59 0 70 0;
#X connect 59 0 71 0;
#X connect 59 0 72 1;
#X connect 59 0 75 0;
#X connect 59 0 77 1;
#X connect 59 0 76 1;
#X connect 60 0 12 2;
#X connect 61 0 12 1;
#X connect 62 0 1 0;
#X connect 64 0 45 0;
#X connect 64 0 65 0;
#X connect 67 0 33 0;
#X connect 70 0 67 0;
#X connect 71 0 73 1;
#X connect 73 0 66 0;
#X connect 73 1 66 1;
#X connect 75 0 73 2;
#X connect 78 0 77 0;
#X connect 79 0 12 2;
#X connect 80 0 12 1;
#X coords 0 -1 1 1 925 600 1 100 100;
#X restore 24 743 pd sequencer;
