#N canvas 952 0 1920 1026 12;
#X floatatom 172 45 5 0 0 0 Pulse\ Count - pulse_3 24;
#X floatatom 172 82 5 0 0 0 Length - length_3 24;
#X floatatom 174 192 5 35 42 0 Drum\ No. - note_3 24;
#X floatatom 174 121 5 0 0 0 Offset - offset_3 24;
#X floatatom 175 157 5 0 5 0 Vel.\ Shuf. - - 24;
#X floatatom 174 227 5 0 16 0 Channel - - 24;
#X floatatom 994 646 5 0 0 0 - - - 0;
#X obj 878 619 bng 16 250 50 0 empty empty empty 0 -8 0 10 #fcfcfc #000000 #000000;
#X obj 1017 586 bng 16 250 50 0 empty empty empty 0 -8 0 10 #fcfcfc #000000 #000000;
#X obj 1043 676 makenote 250 250;
#X obj 1105 588 sel 0 1;
#X floatatom 1106 564 5 0 0 0 - - - 0;
#X floatatom 1106 645 5 0 0 0 - - - 0;
#X obj 1081 711 noteout 10;
#X obj 797 535 r pulse_3;
#X obj 918 537 r offset_3;
#X obj 1023 535 r length_3;
#X obj 1104 536 r note_3;
#X obj 1174 541 r randomV_3;
#N canvas 770 122 833 1026 rhythm_3 0;
#X obj 331 447 outlet;
#X obj 329 351 % \$3;
#X obj 332 317 * \$1;
#X obj 331 383 < \$1;
#X obj 331 259 +;
#X obj 331 281 %;
#X obj 331 405 select 1;
#X floatatom 291 216 5 0 0 0 - - - 0;
#X floatatom 322 176 5 0 0 0 - - - 0;
#X floatatom 385 164 5 0 0 0 - - - 0;
#X obj 305 459 bng 15 250 50 0 empty empty empty 17 7 0 10 #fcfcfc #000000 #000000;
#X msg 138 248 1;
#X msg 137 270 2;
#X msg 138 293 3;
#X msg 136 320 4;
#X msg 140 219 0;
#X msg 139 350 8, f 11;
#X obj 556 118 r barLength;
#X obj 412 100 r euc1Offset;
#X obj 291 98 r euc1HitAmt;
#X obj 113 123 r timeCount;
#X obj 257 72 inlet;
#X obj 404 63 inlet;
#X obj 548 61 inlet;
#X floatatom 514 169 5 0 0 0 - - - 0;
#X connect 1 0 3 0;
#X connect 2 0 1 0;
#X connect 3 0 6 0;
#X connect 4 0 5 0;
#X connect 5 0 2 0;
#X connect 6 0 0 0;
#X connect 6 0 10 0;
#X connect 7 0 4 0;
#X connect 8 0 2 1;
#X connect 8 0 3 1;
#X connect 9 0 4 1;
#X connect 11 0 7 0;
#X connect 12 0 7 0;
#X connect 13 0 7 0;
#X connect 14 0 7 0;
#X connect 15 0 7 0;
#X connect 16 0 7 0;
#X connect 20 0 7 0;
#X connect 21 0 8 0;
#X connect 22 0 9 0;
#X connect 23 0 5 1;
#X connect 23 0 24 0;
#X connect 24 0 5 1;
#X connect 24 0 1 1;
#X coords 0 1026 1 1025 0 0 0;
#X restore 912 586 pd rhythm_3;
#X obj 1263 539 r channel_3;
#X obj 880 648 random 127;
#X obj 944 676 + 1;
#X obj 1110 619 random 250 250;
#X floatatom 212 501 5 0 16 0 Drum\ Channel - - 24;
#X obj 774 596 s rhythm3;
#X obj 251 8 bng 33 250 50 0 empty rhythm3 empty 0 -10 0 12 #ff0400 #000000 #000000;
#X msg 806 7 \; pulse_3 16 \; length_3 64 \; offset_3 0 \; cntrl_randomV_3 1 \; note_3 35 \; channel_3 1 \;, f 19;
#X obj 480 16 bng 44 250 50 0 empty empty 4\ on\ the\ floor 0 11 0 36 #ffc7c6 #000000 #000000;
#X obj 657 105 loadbang;
#X obj 256 227 hsl 200 33 0 16 0 0 empty cntrl_channel_3 empty -2 -10 0 12 #fcfcfc #000000 #000000 0 1;
#X obj 218 237 int;
#X obj 257 191 hsl 200 33 35 42 0 0 empty cntrl_note_3 empty -2 -10 0 12 #fcfcfc #000000 #000000 0 1;
#X obj 259 158 hradio 28 1 0 4 randomV_3 cntrl_randomV_3 empty 0 -10 0 12 #fcfcfc #000000 #000000 0;
#X obj 259 119 hsl 200 33 0 8 0 0 empty cntrl_offset_3 empty -2 -10 0 12 #fcfcfc #000000 #000000 0 1;
#X obj 258 80 hsl 200 33 0 64 0 0 empty cntrl_length_3 empty -2 -10 0 12 #fcfcfc #000000 #000000 0 1;
#X msg 808 117 \; cntrl_pulse_3 16 \; cntrl_length_3 64 \; cntrl_offset_3 0 \; cntrl_randomV_3 1 \; cntrl_note_3 40 \; cntrl_channel_3 1 \;, f 19;
#X obj 256 44 hsl 200 33 0 64 0 0 empty cntrl_pulse_3 empty -2 -10 0 12 #fcfcfc #000000 #000000 0 1;
#X obj 216 93 int;
#X obj 219 132 int;
#X obj 220 202 int;
#X obj 218 55 int;
#X connect 6 0 9 0;
#X connect 7 0 6 0;
#X connect 7 0 11 0;
#X connect 8 0 6 0;
#X connect 9 0 13 0;
#X connect 9 1 13 1;
#X connect 10 1 23 0;
#X connect 11 0 10 0;
#X connect 12 0 9 1;
#X connect 14 0 19 0;
#X connect 15 0 19 1;
#X connect 16 0 19 2;
#X connect 17 0 6 0;
#X connect 18 0 11 0;
#X connect 19 0 7 0;
#X connect 19 0 25 0;
#X connect 20 0 13 2;
#X connect 21 0 22 0;
#X connect 22 0 6 0;
#X connect 23 0 12 0;
#X connect 28 0 27 0;
#X connect 29 0 36 0;
#X connect 30 0 31 0;
#X connect 31 0 5 0;
#X connect 32 0 40 0;
#X connect 33 0 4 0;
#X connect 34 0 39 0;
#X connect 35 0 38 0;
#X connect 37 0 41 0;
#X connect 38 0 1 0;
#X connect 39 0 3 0;
#X connect 40 0 2 0;
#X coords 0 -1 1 1 800 300 2 1 1;
