#N canvas 952 0 1920 1026 12;
#X floatatom 172 46 5 0 0 0 Pulse\ Count - pulse_8 24;
#X floatatom 172 82 5 0 0 0 Length - length_8 24;
#X floatatom 174 192 5 35 42 0 Drum\ No. - note_8 24;
#X floatatom 174 121 5 0 0 0 Offset - offset_8 24;
#X floatatom 175 157 5 0 5 0 Vel.\ Shuf. - - 24;
#X floatatom 174 227 5 0 16 0 Channel - channel_8 24;
#X floatatom 707 425 5 0 0 0 - - - 0;
#X obj 540 408 bng 16 250 50 0 empty empty empty 0 -8 0 10 #fcfcfc #000000 #000000;
#X obj 659 544 makenote 250 250;
#X obj 800 389 sel 0 1;
#X floatatom 801 365 5 0 0 0 - - - 0;
#X floatatom 801 446 5 0 0 0 - - - 0;
#X obj 697 579 noteout 10;
#X obj 472 332 r pulse_8;
#X obj 546 331 r offset_8;
#X obj 627 333 r length_8;
#X obj 709 333 r note_8;
#X obj 802 335 r randomV_8;
#X obj 995 337 r channel_8;
#X obj 805 420 random 250 250;
#X obj 211 5 bng 33 250 50 0 empty rhythm1 Drum\ Channel\ 8 40 18 0 24 #ff0400 #000000 #000000;
#X msg 1572 742 \; pulse_8 16 \; length_8 64 \; offset_8 0 \; cntrl_randomV_8 1 \; note_8 35 \; channel_8 1 \;, f 19;
#X obj 1576 693 bng 44 250 50 0 empty empty 4\ on\ the\ floor 0 11 0 36 #ffc7c6 #000000 #000000;
#X obj 1573 851 loadbang;
#X obj 256 227 hsl 200 33 0 16 0 0 empty cntrl_channel_8 empty -2 -10 0 12 #fcfcfc #000000 #000000 0 1;
#X obj 218 237 int;
#X obj 257 191 hsl 200 33 1 127 0 0 empty cntrl_note_8 empty -2 -10 0 12 #fcfcfc #000000 #000000 0 1;
#X obj 259 158 hradio 28 1 0 2 randomV_8 cntrl_randomV_8 empty 0 -10 0 12 #fcfcfc #000000 #000000 0;
#X obj 259 119 hsl 200 33 0 8 0 0 empty cntrl_offset_8 empty -2 -10 0 12 #fcfcfc #000000 #000000 0 1;
#X obj 258 80 hsl 200 33 0 64 0 0 empty cntrl_length_8 empty -2 -10 0 12 #fcfcfc #000000 #000000 0 1;
#X msg 1572 873 \; cntrl_pulse_8 16 \; cntrl_length_8 64 \; cntrl_offset_8 0 \; cntrl_randomV_8 1 \; cntrl_note_8 40 \; cntrl_channel_8 1 \;, f 19;
#X obj 256 44 hsl 200 33 0 64 0 0 empty cntrl_pulse_8 empty -2 -10 0 12 #fcfcfc #000000 #000000 0 1;
#X obj 216 93 int;
#X obj 219 132 int;
#X obj 220 202 int;
#X obj 218 55 int;
#N canvas 770 122 833 1026 rhythm 0;
#X obj 331 447 outlet;
#X obj 329 351 % \$3;
#X obj 332 317 * \$1;
#X obj 331 383 < \$1;
#X obj 331 259 +;
#X obj 331 281 %;
#X obj 331 405 select 1;
#X floatatom 291 216 5 0 0 0 - - - 0;
#X floatatom 322 176 5 0 0 0 - - - 0;
#X floatatom 385 164 5 0 0 0 - - - 0;
#X obj 305 459 bng 15 250 50 0 empty empty empty 17 7 0 10 #fcfcfc #000000 #000000;
#X obj 113 123 r timeCount;
#X obj 257 72 inlet;
#X obj 404 63 inlet;
#X obj 548 61 inlet;
#X floatatom 514 169 5 0 0 0 - - - 0;
#X connect 1 0 3 0;
#X connect 2 0 1 0;
#X connect 3 0 6 0;
#X connect 4 0 5 0;
#X connect 5 0 2 0;
#X connect 6 0 0 0;
#X connect 6 0 10 0;
#X connect 7 0 4 0;
#X connect 8 0 2 1;
#X connect 8 0 3 1;
#X connect 9 0 4 1;
#X connect 11 0 7 0;
#X connect 12 0 8 0;
#X connect 13 0 9 0;
#X connect 14 0 5 1;
#X connect 14 0 15 0;
#X connect 15 0 5 1;
#X connect 15 0 1 1;
#X coords 0 1026 1 1025 0 0 0;
#X restore 540 380 pd rhythm;
#X obj 802 282 r timeCount;
#X obj 802 306 bng 19 250 50 0 empty empty empty 0 -10 0 12 #fcfcfc #000000 #000000;
#X obj 536 432 s rhythm1;
#X connect 6 0 8 0;
#X connect 7 0 6 0;
#X connect 7 0 39 0;
#X connect 8 0 12 0;
#X connect 8 1 12 1;
#X connect 9 1 19 0;
#X connect 10 0 9 0;
#X connect 11 0 8 1;
#X connect 13 0 36 0;
#X connect 14 0 36 1;
#X connect 15 0 36 2;
#X connect 16 0 6 0;
#X connect 17 0 10 0;
#X connect 18 0 12 2;
#X connect 19 0 11 0;
#X connect 22 0 21 0;
#X connect 23 0 30 0;
#X connect 24 0 25 0;
#X connect 25 0 5 0;
#X connect 26 0 34 0;
#X connect 27 0 4 0;
#X connect 28 0 33 0;
#X connect 29 0 32 0;
#X connect 31 0 35 0;
#X connect 32 0 1 0;
#X connect 33 0 3 0;
#X connect 34 0 2 0;
#X connect 35 0 0 0;
#X connect 36 0 7 0;
#X connect 37 0 38 0;
#X connect 38 0 10 0;
#X coords 0 -1 1 1 500 275 1 1 1;
