#N canvas 309 16 675 596 10;
#X floatatom 172 106 5 0 0 0 - - -;
#X obj 121 170 float;
#X obj 186 170 + 1;
#X floatatom 121 216 5 0 0 0 - - -;
#X obj 121 84 tgl 15 0 empty empty empty 17 7 0 10 -262144 -1 -1 0
127;
#X obj 228 311 hradio 40 1 0 8 empty empty empty 0 -8 0 10 -262144
-1 -1 7;
#X obj 121 251 mod 8;
#X obj 121 129 metro 100;
#X obj 208 375 select 0 1 2 3 4 5 6 7;
#X obj 208 412 f;
#X obj 240 153 vsl 15 128 0 127 0 0 empty empty empty 0 -9 0 10 -262144
-1 -1 5200 1;
#X obj 247 412 f;
#X obj 279 154 vsl 15 128 0 127 0 0 empty empty empty 0 -9 0 10 -262144
-1 -1 5000 1;
#X obj 283 411 f;
#X obj 319 153 vsl 15 128 0 127 0 0 empty empty empty 0 -9 0 10 -262144
-1 -1 5400 1;
#X obj 319 411 f;
#X obj 358 153 vsl 15 128 0 127 0 0 empty empty empty 0 -9 0 10 -262144
-1 -1 5200 1;
#X obj 357 412 f;
#X obj 398 153 vsl 15 128 0 127 0 0 empty empty empty 0 -9 0 10 -262144
-1 -1 4600 1;
#X obj 395 412 f;
#X obj 437 153 vsl 15 128 0 127 0 0 empty empty empty 0 -9 0 10 -262144
-1 -1 4500 1;
#X obj 430 412 f;
#X obj 475 153 vsl 15 128 0 127 0 0 empty empty empty 0 -9 0 10 -262144
-1 -1 4900 1;
#X obj 466 412 f;
#X obj 515 153 vsl 15 128 0 127 0 0 empty empty empty 0 -9 0 10 -262144
-1 -1 5000 1;
#X obj 356 460 mtof;
#X obj 356 485 osc~;
#X obj 358 549 dac~;
#X msg 40 178 \; pd dsp 1;
#X msg 6 212 \; pd dsp 0;
#X floatatom 240 294 5 0 0 0 - - -;
#X floatatom 279 294 5 0 0 0 - - -;
#X floatatom 319 294 5 0 0 0 - - -;
#X floatatom 358 294 5 0 0 0 - - -;
#X floatatom 398 294 5 0 0 0 - - -;
#X floatatom 437 294 5 0 0 0 - - -;
#X floatatom 475 294 5 0 0 0 - - -;
#X floatatom 515 294 5 0 0 0 - - -;
#X obj 571 153 vsl 15 128 0 127 0 0 empty empty empty 0 -9 0 10 -191407
-1 -1 5000 1;
#X obj 357 508 *~;
#X text 58 84 On/Off;
#X text 207 106 Velocidad;
#X text 573 132 Volumen;
#X text 366 125 Pitch;
#X msg 590 98 0 500;
#X obj 533 123 line;
#X text 607 74 Mute;
#X obj 590 75 bng 15 250 50 0 empty empty empty 17 7 0 10 -262144 -1
-1;
#N canvas 138 352 450 300 control 0;
#X floatatom 45 79 5 0 0 0 - - -;
#X obj 45 124 outlet;
#X obj 45 47 ctlin 112;
#X floatatom 109 79 5 0 0 0 - - -;
#X obj 109 124 outlet;
#X obj 109 47 ctlin 113;
#X connect 0 0 1 0;
#X connect 2 0 0 0;
#X connect 3 0 4 0;
#X connect 5 0 3 0;
#X restore 314 12 pd control midi botones;
#N canvas 404 39 737 252 control 0;
#X floatatom 29 87 5 0 0 0 - - -;
#X obj 29 53 ctlin 102;
#X floatatom 92 87 5 0 0 0 - - -;
#X obj 92 53 ctlin 103;
#X floatatom 155 87 5 0 0 0 - - -;
#X floatatom 218 87 5 0 0 0 - - -;
#X floatatom 282 85 5 0 0 0 - - -;
#X floatatom 345 85 5 0 0 0 - - -;
#X floatatom 408 85 5 0 0 0 - - -;
#X floatatom 472 85 5 0 0 0 - - -;
#X obj 29 129 outlet;
#X obj 92 129 outlet;
#X obj 155 129 outlet;
#X obj 218 129 outlet;
#X obj 282 130 outlet;
#X obj 345 130 outlet;
#X obj 408 130 outlet;
#X obj 472 130 outlet;
#X obj 155 53 ctlin 104;
#X obj 218 53 ctlin 105;
#X obj 282 53 ctlin 106;
#X obj 345 53 ctlin 107;
#X obj 408 53 ctlin 108;
#X obj 472 53 ctlin 109;
#X floatatom 536 85 5 0 0 0 - - -;
#X obj 536 130 outlet;
#X floatatom 598 85 5 0 0 0 - - -;
#X obj 598 130 outlet;
#X obj 598 53 ctlin 111;
#X obj 536 53 ctlin 110;
#X connect 0 0 10 0;
#X connect 1 0 0 0;
#X connect 2 0 11 0;
#X connect 3 0 2 0;
#X connect 4 0 12 0;
#X connect 5 0 13 0;
#X connect 6 0 14 0;
#X connect 7 0 15 0;
#X connect 8 0 16 0;
#X connect 9 0 17 0;
#X connect 18 0 4 0;
#X connect 19 0 5 0;
#X connect 20 0 6 0;
#X connect 21 0 7 0;
#X connect 22 0 8 0;
#X connect 23 0 9 0;
#X connect 24 0 25 0;
#X connect 26 0 27 0;
#X connect 28 0 26 0;
#X connect 29 0 24 0;
#X restore 322 46 pd control midi potes;
#X floatatom 6 136 5 0 0 0 - - -;
#X obj 6 156 select 0 127;
#X obj 571 432 / 127;
#X floatatom 571 454 5 0 0 0 - - -;
#X obj 571 475 line;
#X msg 533 99 50 500;
#X connect 0 0 7 1;
#X connect 1 0 2 0;
#X connect 1 0 3 0;
#X connect 2 0 1 1;
#X connect 3 0 6 0;
#X connect 4 0 7 0;
#X connect 4 0 55 0;
#X connect 4 0 50 0;
#X connect 5 0 8 0;
#X connect 6 0 5 0;
#X connect 7 0 1 0;
#X connect 8 0 9 0;
#X connect 8 1 11 0;
#X connect 8 2 13 0;
#X connect 8 3 15 0;
#X connect 8 4 17 0;
#X connect 8 5 19 0;
#X connect 8 6 21 0;
#X connect 8 7 23 0;
#X connect 9 0 25 0;
#X connect 10 0 30 0;
#X connect 11 0 25 0;
#X connect 12 0 31 0;
#X connect 13 0 25 0;
#X connect 14 0 32 0;
#X connect 15 0 25 0;
#X connect 16 0 33 0;
#X connect 17 0 25 0;
#X connect 18 0 34 0;
#X connect 19 0 25 0;
#X connect 20 0 35 0;
#X connect 21 0 25 0;
#X connect 22 0 36 0;
#X connect 23 0 25 0;
#X connect 24 0 37 0;
#X connect 25 0 26 0;
#X connect 26 0 39 0;
#X connect 30 0 9 1;
#X connect 31 0 11 1;
#X connect 32 0 13 1;
#X connect 33 0 15 1;
#X connect 34 0 17 1;
#X connect 35 0 19 1;
#X connect 36 0 21 1;
#X connect 37 0 23 1;
#X connect 38 0 52 0;
#X connect 39 0 27 0;
#X connect 39 0 27 1;
#X connect 44 0 45 0;
#X connect 45 0 38 0;
#X connect 47 0 44 0;
#X connect 48 0 4 0;
#X connect 48 1 47 0;
#X connect 49 0 10 0;
#X connect 49 1 12 0;
#X connect 49 2 14 0;
#X connect 49 3 16 0;
#X connect 49 4 18 0;
#X connect 49 5 20 0;
#X connect 49 6 22 0;
#X connect 49 7 24 0;
#X connect 49 8 0 0;
#X connect 49 9 38 0;
#X connect 50 0 51 0;
#X connect 51 0 29 0;
#X connect 51 1 28 0;
#X connect 52 0 53 0;
#X connect 53 0 54 0;
#X connect 54 0 39 1;
#X connect 55 0 45 0;
