#N canvas 1600 60 1024 708 16;
#N canvas 67 89 1365 496 noteOnAndOff 0;
#X msg 220 36 \$1 \;;
#X obj 110 154 bng 15 250 50 0 empty empty empty 17 7 0 10 -262144
-1 -1;
#X msg 282 287 \$1 100 \;;
#X msg 132 244 \$1 0 \;, f 8;
#X msg 279 352 112 100;
#X msg 276 322 set \$1 \$2;
#X obj 180 43 bng 15 250 50 0 empty empty empty 17 7 0 10 -262144 -1
-1;
#X obj 178 74 t b b f;
#X msg 121 290 set \$1 \$2;
#X msg 125 330 112 0;
#X obj 209 226 + 1;
#X floatatom 454 153 5 0 0 0 - - -, f 5;
#X obj 151 159 delay 200 1 msec;
#X msg 77 57 111;
#X obj 82 19 inlet;
#X obj 227 420 outlet;
#X connect 0 0 7 0;
#X connect 2 0 5 0;
#X connect 3 0 8 0;
#X connect 4 0 15 0;
#X connect 5 0 4 0;
#X connect 6 0 7 0;
#X connect 7 0 12 0;
#X connect 7 1 4 0;
#X connect 7 2 10 0;
#X connect 8 0 9 0;
#X connect 9 0 15 0;
#X connect 10 0 3 0;
#X connect 10 0 2 0;
#X connect 11 0 10 1;
#X connect 12 0 1 0;
#X connect 12 0 9 0;
#X connect 13 0 0 0;
#X connect 14 0 13 0;
#X restore 792 831 pd noteOnAndOff;
#X obj 164 330 netreceive 8200 1;
#X obj 141 330 bng 15 250 50 0 empty empty empty 17 7 0 10 -262144
-1 -1;
#X obj 62 390 s n;
#X obj 266 388 s y;
#X obj 364 388 s z;
#X obj 66 478 tabwrite x;
#X obj 135 452 r n;
#X obj 66 452 r x;
#X obj 198 452 r y;
#X obj 326 449 r z;
#X obj 198 478 tabwrite y;
#X obj 326 475 tabwrite z;
#X obj 282 444 r n;
#X obj 402 441 r n;
#X obj 1518 197 bng 15 250 50 0 empty empty empty 17 7 0 10 -262144
-1 -1;
#X obj 125 727 s x;
#X obj 176 727 s y;
#X obj 231 727 s z;
#X obj 286 727 s xsmooth;
#X obj 393 727 s ysmooth;
#X obj 499 727 s zsmooth;
#X obj 611 672 0;
#X obj 875 584 1;
#X obj 801 598 + 1, f 4;
#X obj 583 617 tgl 15 0 empty empty empty 17 7 0 10 -262144 -1 -1 0
1;
#X obj 623 580 bng 15 250 50 0 empty empty empty 17 7 0 10 -262144
-1 -1;
#X obj 722 617 0;
#X obj 597 726 s mag;
#X obj 654 727 s vel;
#X obj 708 727 s accel;
#X obj 790 727 s jerked;
#X obj 880 727 s snapped;
#X obj 980 727 s cracked;
#X obj 63 330 s newN;
#X floatatom 932 618 5 0 0 0 - - -, f 5;
#X obj 945 515 + 1;
#X obj 875 515 0;
#X floatatom 801 573 5 0 0 0 - - -, f 5;
#X msg 922 573 0;
#X obj 875 567 bng 15 250 50 0 empty empty empty 17 7 0 10 -262144
-1 -1;
#X obj 120 53 s notes, f 9;
#X obj 305 94 bng 15 250 50 0 empty empty empty 17 7 0 10 -262144 -1
-1;
#X obj 343 330 r n;
#X floatatom 388 330 5 0 0 0 - - -, f 5;
#X obj 22 -16 int;
#X obj 106 3 pack \$1 100;
#X obj 605 62 s knob1;
#X obj 1095 671 1;
#X obj 1055 672 + 1, f 4;
#X obj 1055 646 0;
#X obj 1165 520 r newN;
#X floatatom 1129 732 5 0 0 0 - - -, f 5;
#X obj 1245 580 + 1;
#X obj 1169 585 0;
#X floatatom 1095 646 5 0 0 0 - - -, f 5;
#X msg 1226 682 0;
#X obj 1166 682 bng 15 250 50 0 empty empty empty 17 7 0 10 -262144
-1 -1;
#X obj 868 648 s n;
#X obj 504 62 s knob3;
#X obj 737 62 s clear;
#X obj 538 580 r clear;
#X obj 740 -68 tgl 15 0 empty empty empty 17 7 0 10 -262144 -1 -1 0
1;
#X text 111 107 Tabular Arrays, f 15;
#X text 744 -23 Toggle on until data clear, f 12;
#X text 415 -42 Send Smoothed data to synth;
#X text 64 417 Write the sent data to a tabular Arrays., f 80;
#X obj 1114 777 s n;
#X msg 1100 471 0;
#X floatatom 35 44 5 0 0 0 - - -, f 5;
#X msg 305 15 68 0;
#X msg 313 -33 set \$1 0;
#X obj 611 646 metro 11;
#X obj 63 356 route n x y z, f 45;
#X text 60 272 Recieve UDP data on Port 8200 route each message by
the key and then sending the value \, like ('x .42'), f 80;
#X obj 502 -68 r y;
#X obj 603 -68 r x;
#X obj 897 -71 r z;
#X obj 899 59 s knob2;
#X obj 167 -82 t b i b i;
#X obj 621 27 tgl 15 0 empty empty empty 17 7 0 10 -262144 -1 -1 0
1;
#X obj 198 -31 delay 100;
#X obj 71 -110 r x;
#X obj 1169 611 select 0 2;
#X obj 162 405 s x;
#X obj 875 541 select 0 2;
#X floatatom 110 -81 5 0 0 0 - - -, f 5;
#X obj 38 -76 * 255;
#X connect 1 0 2 0;
#X connect 1 0 73 0;
#X connect 2 0 34 0;
#X connect 7 0 6 1;
#X connect 8 0 6 0;
#X connect 9 0 11 0;
#X connect 10 0 12 0;
#X connect 13 0 11 1;
#X connect 14 0 12 1;
#X connect 22 0 16 0;
#X connect 22 0 17 0;
#X connect 22 0 18 0;
#X connect 22 0 19 0;
#X connect 22 0 20 0;
#X connect 22 0 21 0;
#X connect 22 0 28 0;
#X connect 22 0 29 0;
#X connect 22 0 30 0;
#X connect 22 0 31 0;
#X connect 22 0 32 0;
#X connect 22 0 33 0;
#X connect 23 0 24 0;
#X connect 23 0 35 0;
#X connect 23 0 58 0;
#X connect 24 0 23 1;
#X connect 25 0 27 0;
#X connect 25 0 72 0;
#X connect 27 0 23 0;
#X connect 36 0 37 1;
#X connect 37 0 36 0;
#X connect 37 0 38 0;
#X connect 37 0 85 0;
#X connect 39 0 37 0;
#X connect 40 0 23 0;
#X connect 43 0 44 0;
#X connect 45 0 69 0;
#X connect 45 0 79 0;
#X connect 46 0 41 0;
#X connect 48 0 49 0;
#X connect 48 0 52 0;
#X connect 49 0 48 1;
#X connect 50 0 48 0;
#X connect 51 0 54 0;
#X connect 52 0 67 0;
#X connect 53 0 54 1;
#X connect 54 0 53 0;
#X connect 54 0 55 0;
#X connect 54 0 83 0;
#X connect 56 0 54 0;
#X connect 57 0 48 0;
#X connect 61 0 25 0;
#X connect 61 0 68 0;
#X connect 62 0 60 0;
#X connect 68 0 49 0;
#X connect 70 0 42 0;
#X connect 70 0 41 0;
#X connect 71 0 70 0;
#X connect 72 0 22 0;
#X connect 72 0 23 0;
#X connect 72 0 26 0;
#X connect 73 0 3 0;
#X connect 73 1 84 0;
#X connect 73 2 4 0;
#X connect 73 3 5 0;
#X connect 75 0 59 0;
#X connect 76 0 47 0;
#X connect 77 0 78 0;
#X connect 79 0 81 0;
#X connect 79 1 71 0;
#X connect 79 3 46 0;
#X connect 79 3 69 0;
#X connect 81 0 70 0;
#X connect 82 0 86 0;
#X connect 82 0 87 0;
#X connect 83 0 57 0;
#X connect 83 1 56 0;
#X connect 85 0 40 0;
#X connect 85 1 39 0;
#X connect 87 0 45 0;
