#N canvas 862 22 715 863 10;
#X obj 145 143 inlet;
#X text 107 192 Note;
#X obj 512 159 inlet~;
#X text 509 135 LFO input;
#X obj 145 189 stripnote;
#X msg 226 193 \$2;
#X text 256 193 velocity (and note off);
#X text 145 117 Note velocity input;
#X text 146 51 Juno-104 polyphonic voice;
#X obj 145 330 lfo_pitch_depth;
#X obj 512 276 lfo_delay_time;
#X obj 226 382 pulse_width_modulation;
#X obj 145 427 106_oscillator;
#X obj 489 437 envelope_generator;
#X obj 145 475 noise_mix;
#X obj 145 544 voltage_controlled_filter;
#X obj 145 707 outlet~;
#X text 145 735 Voice audio output (signal);
#X obj 145 642 voltage_controlled_amplifier;
#X connect 0 0 4 0;
#X connect 0 0 5 0;
#X connect 2 0 10 0;
#X connect 4 0 9 0;
#X connect 4 0 15 2;
#X connect 5 0 10 1;
#X connect 5 0 13 0;
#X connect 9 0 12 0;
#X connect 10 0 9 1;
#X connect 10 0 11 0;
#X connect 10 0 15 3;
#X connect 11 0 12 1;
#X connect 12 0 14 0;
#X connect 13 0 18 1;
#X connect 13 1 15 1;
#X connect 13 1 18 2;
#X connect 14 0 15 0;
#X connect 15 0 18 0;
#X connect 18 0 16 0;
