#N canvas 0 22 1518 939 10;
#X obj 161 200 line~;
#X obj 381 197 line~;
#X obj 145 459 *~;
#X obj 366 462 *~;
#X obj 706 195 inlet~;
#X obj 227 287 phasor~ 80;
#X obj 255 565 +~;
#X obj 925 229 inlet~;
#X text 976 230 PWM input;
#X text 399 399 Square wave;
#X text 70 460 Saw wave;
#X text 446 191 Switch;
#X text 748 197 frequency input;
#X text 729 117 [Phasor~] produit une onde en dent de scie qui va de
0 à 1 Pour avoir une onde bipolaire (-1 à 1) il faut donc doubler
son amplitude et soustraire 1 : [expr~ ($v1 * 2) -1];
#X text 1136 178 En changeant la valeur de comparaison \, on modifie
l'épaisseur de l'onde carrée (Pulse Width).;
#X text 1136 103 Pour produire une onde carrée à partir de [phasor~]
(bipolaire) \, il faut comparer chaque sample à un chiffre entre 0
et 1 (ex.: < 0) et dire que si le résultat de la comparaison est vrai
\, output le chiffre 1 \, sinon \, -1, f 54;
#X msg 161 177 \$1 5;
#X msg 381 174 \$1 5;
#X text 158 121 Toggle input (saw wave on/off);
#X text 380 120 Toggle input (square wave on/off);
#X obj 706 413 phasor~;
#X obj 706 390 *~ 0.5;
#X text 946 496 from saw wave to square wave;
#X text 830 461 Scale waveform from (0. \, 1.) to (-1. \, 1.);
#X text 250 879 Oscillator output;
#X obj 255 788 *~;
#X obj 270 761 line~;
#X obj 706 748 *~, f 7;
#X obj 745 719 line~;
#X obj 270 706 expr ($f1 * -1) + 1;
#X obj 255 829 +~;
#X msg 745 691 \$1 5;
#X msg 270 733 \$1 5;
#X text 467 543 Mix slider input (0. \, 1.);
#X obj 255 853 outlet~;
#X text 429 715 Crossfade between oscillator and sub oscillator, f
28;
#X obj 463 618 loadbang;
#X msg 463 641 0;
#X obj 366 423 expr~ if ($v1 > $v2 \, 1 \, -1);
#X obj 706 492 expr~ if ($v1 > $v2 \, 1 \, -1), f 37;
#X obj 161 145 r 106_saw_switch;
#X obj 381 145 r 106_square_switch;
#X obj 468 574 r 106_sub_mix;
#X obj 227 315 *~ 2;
#X obj 227 338 -~ 1;
#X obj 706 438 *~ 2;
#X obj 706 461 -~ 1;
#X connect 0 0 2 1;
#X connect 1 0 3 1;
#X connect 2 0 6 0;
#X connect 3 0 6 1;
#X connect 4 0 5 0;
#X connect 4 0 21 0;
#X connect 5 0 43 0;
#X connect 6 0 25 0;
#X connect 7 0 38 1;
#X connect 7 0 39 1;
#X connect 16 0 0 0;
#X connect 17 0 1 0;
#X connect 20 0 45 0;
#X connect 21 0 20 0;
#X connect 25 0 30 0;
#X connect 26 0 25 1;
#X connect 27 0 30 1;
#X connect 28 0 27 1;
#X connect 29 0 32 0;
#X connect 30 0 34 0;
#X connect 31 0 28 0;
#X connect 32 0 26 0;
#X connect 36 0 37 0;
#X connect 37 0 29 0;
#X connect 37 0 31 0;
#X connect 38 0 3 0;
#X connect 39 0 27 0;
#X connect 40 0 16 0;
#X connect 41 0 17 0;
#X connect 42 0 31 0;
#X connect 42 0 29 0;
#X connect 43 0 44 0;
#X connect 44 0 38 0;
#X connect 44 0 2 0;
#X connect 45 0 46 0;
#X connect 46 0 39 0;
