#N canvas 0 22 1055 711 10;
#X obj 72 152 inlet~;
#X obj 348 415 +~;
#X obj 333 620 outlet~;
#X obj 87 317 inlet;
#X obj 72 518 *~;
#X obj 87 355 sel 0 1;
#X msg 155 386 0;
#X msg 87 386 1;
#X obj 333 577 +~;
#X msg 118 386 0;
#X msg 187 386 1;
#X obj 348 526 *~;
#X text 86 292 Chorus on/off (toggle);
#X msg 155 409 \$1 5;
#X msg 87 407 \$1 5;
#X text 72 132 Audio input;
#X obj 155 430 line~;
#X obj 87 428 line~;
#X obj 286 329 +~ 2;
#X obj 491 322 +~ 2;
#X obj 363 329 +~ 2;
#X obj 563 323 +~ 2;
#X obj 533 621 outlet~;
#X obj 533 578 +~;
#X obj 548 528 *~;
#X obj 548 416 +~;
#X obj 348 439 *~ 0.75;
#X obj 548 440 *~ 0.75;
#X text 524 74 Chorus;
#X obj 286 305 osc~ 0.05;
#X obj 491 298 osc~ 0.3;
#X obj 363 305 osc~ 0.55;
#X obj 563 299 osc~ 0.8;
#X obj 563 348 *~ 1.6;
#X obj 286 357 *~ 1.6;
#X obj 491 349 *~ 1.6;
#X obj 363 354 *~ 1.6;
#X obj 96 202 delwrite~ chorus 10000;
#X obj 287 384 vd~ chorus;
#X obj 491 378 vd~ chorus;
#X obj 363 384 vd~ chorus;
#X obj 563 378 vd~ chorus;
#X text 591 621 Audio output R;
#X text 391 620 Audio output L;
#X connect 0 0 4 0;
#X connect 0 0 37 0;
#X connect 1 0 26 0;
#X connect 3 0 5 0;
#X connect 4 0 8 0;
#X connect 4 0 23 0;
#X connect 5 0 6 0;
#X connect 5 0 7 0;
#X connect 5 1 9 0;
#X connect 5 1 10 0;
#X connect 6 0 13 0;
#X connect 7 0 14 0;
#X connect 8 0 2 0;
#X connect 9 0 14 0;
#X connect 10 0 13 0;
#X connect 11 0 8 1;
#X connect 13 0 16 0;
#X connect 14 0 17 0;
#X connect 16 0 11 1;
#X connect 16 0 24 1;
#X connect 17 0 4 1;
#X connect 18 0 34 0;
#X connect 19 0 35 0;
#X connect 20 0 36 0;
#X connect 21 0 33 0;
#X connect 23 0 22 0;
#X connect 24 0 23 1;
#X connect 25 0 27 0;
#X connect 26 0 11 0;
#X connect 27 0 24 0;
#X connect 29 0 18 0;
#X connect 30 0 19 0;
#X connect 31 0 20 0;
#X connect 32 0 21 0;
#X connect 33 0 41 0;
#X connect 34 0 38 0;
#X connect 35 0 39 0;
#X connect 36 0 40 0;
#X connect 38 0 1 0;
#X connect 39 0 25 0;
#X connect 40 0 1 1;
#X connect 41 0 25 1;
