#N canvas 0 22 999 1002 10;
#X obj 390 883 *~;
#X obj 296 784 line~;
#X obj 116 947 +~;
#X obj 296 710 mtof;
#X obj 296 648 t b f;
#X obj 296 681 *, f 5;
#X obj 296 735 - 8.1758;
#X obj 116 1016 outlet~;
#X text 173 1019 Pitch (frequency) value (signal);
#X obj 390 835 inlet~;
#X text 442 834 LFO input (signal), f 19;
#X obj 116 887 mtof~;
#X text 375 714 Midi note 0 = 8.1758 hz \, so if we want our slider
in the zero position to give us zero modulation \, we must subtract
8.1758;
#X text 372 660 By multiplying midi notes numbers with a number from
0 to 1 \, the modulation of the frequency is proportionnal to the frequency.
;
#X msg 296 759 \$1 5;
#X text 302 595 LFO Pitch Depth slider (0. \, 1.);
#X obj 116 587 line~;
#X obj 181 587 line;
#X text 162 66 Midi note input (0 127);
#X obj 155 444 pack 0 0 0;
#X obj 116 392 route 0;
#X msg 116 364 \$2 \$1;
#X obj 116 336 pack 0 0;
#X msg 155 417 \$2;
#X msg 155 471 \$2 \, \$1 \$3;
#X text 393 40 LFO Pitch modulation depth and portamento;
#X obj 131 745 bendin;
#X obj 116 843 +~;
#X msg 131 770 \$1 5;
#X obj 131 795 line~;
#X text 134 720 Pitch bend;
#X obj 296 621 r 106_LFO_pitch_depth;
#X obj 212 295 r 106_portamento;
#X obj 116 65 inlet;
#X text 317 295 Portamento slider input (0. \, 1000.), f 18;
#X obj 183 165 pipe 20;
#X obj 183 136 r note_portamento;
#X connect 0 0 2 1;
#X connect 1 0 0 1;
#X connect 2 0 7 0;
#X connect 3 0 6 0;
#X connect 4 0 5 0;
#X connect 4 1 5 1;
#X connect 5 0 3 0;
#X connect 6 0 14 0;
#X connect 9 0 0 0;
#X connect 11 0 2 0;
#X connect 14 0 1 0;
#X connect 16 0 27 0;
#X connect 17 0 5 0;
#X connect 19 0 24 0;
#X connect 20 0 16 0;
#X connect 20 0 17 0;
#X connect 20 1 23 0;
#X connect 21 0 20 0;
#X connect 22 0 21 0;
#X connect 23 0 19 0;
#X connect 24 0 16 0;
#X connect 24 0 17 0;
#X connect 26 0 28 0;
#X connect 27 0 11 0;
#X connect 28 0 29 0;
#X connect 29 0 27 1;
#X connect 31 0 4 0;
#X connect 32 0 22 1;
#X connect 32 0 19 2;
#X connect 33 0 22 0;
#X connect 35 0 19 1;
#X connect 36 0 35 0;
