#N canvas 27 22 1599 947 10;
#X obj 1072 233 hsl 128 15 0 1 0 0 empty empty Pulse_width -2 -8 0
10 -262144 -1 -1 0 1;
#X obj 241 960 hsl 128 15 0 1 0 0 empty empty Master_Volume -2 -8 0
10 -262144 -1 -1 6350 1;
#X obj 566 230 hsl 128 15 0 1 0 0 empty empty LFO_Rate -2 -8 0 10 -262144
-1 -1 1905 1;
#X obj 1233 234 hsl 128 15 0 1 0 0 empty empty PWM_Depth -2 -8 0 10
-262144 -1 -1 5080 1;
#X obj 927 233 hsl 127 15 0 1 0 0 empty empty LFO_pitch_depth -2 -8
0 10 -262144 -1 -1 1260 1;
#X obj 1105 530 hsl 128 15 0 1 0 0 empty empty Sub -2 -8 0 10 -262144
-1 -1 4445 1;
#X obj 271 603 hsl 128 15 0 1 0 0 empty empty HPF_freq -2 -8 0 10 -262144
-1 -1 0 1;
#X obj 567 781 hsl 128 15 0 1 0 0 empty empty Freq -2 -8 0 10 -262144
-1 -1 8890 1;
#X obj 713 782 hsl 128 15 0 1 0 0 empty empty Res -2 -8 0 10 -262144
-1 -1 0 1;
#X obj 1148 782 hsl 128 15 0 1 0 0 empty empty LFO -2 -8 0 10 -262144
-1 -1 2540 1;
#X obj 1246 529 hsl 128 15 0 1 0 0 empty empty Noise -2 -8 0 10 -262144
-1 -1 762 1;
#X obj 831 519 tgl 15 0 empty empty empty 17 7 0 10 -262144 -1 -1 0
1;
#X obj 877 392 loadbang;
#X msg 831 445 0;
#X obj 1440 1091 hsl 128 15 0 1 0 1 empty empty Release -2 -8 0 10
-262144 -1 -1 3175 1;
#X obj 921 1093 hsl 128 15 0 1 0 1 empty empty Attack -2 -8 0 10 -262144
-1 -1 889 1;
#X obj 1291 1091 hsl 128 15 0 1 0 1 empty empty Sustain -2 -8 0 10
-262144 -1 -1 6350 1;
#X obj 1107 1092 hsl 128 15 0 1 0 1 empty empty Decay -2 -8 0 10 -262144
-1 -1 1905 1;
#X obj 717 231 hsl 128 15 0 1 0 0 empty empty LFO_Delay_time -2 -8
0 10 -262144 -1 -1 0 1;
#X obj 238 895 loadbang;
#X msg 238 915 0.5;
#X text 850 521 Saw on/off, f 7;
#X obj 965 522 tgl 15 0 empty empty empty 17 7 0 10 -262144 -1 -1 1
1;
#X text 989 521 Square on/off, f 7;
#X msg 965 449 1;
#X text 176 676 Only one in the synth (not per voice), f 21;
#X obj 722 1092 hsl 128 15 0 1 0 0 empty empty VCA_volume -2 -8 0 10
-262144 -1 -1 12700 1;
#X obj 519 1125 tgl 15 0 empty empty empty 17 7 0 10 -262144 -1 -1
0 1;
#X text 419 1114 Env type (normal : off \, gate : on), f 14;
#N canvas 0 22 1413 877 Master_vol 0;
#X obj 217 300 *~;
#X obj 217 332 clip~ -1 1;
#X obj 232 272 line~;
#X obj 232 205 inlet;
#X obj 217 165 inlet~;
#X obj 217 369 outlet~;
#X obj 62 298 *~;
#X obj 62 330 clip~ -1 1;
#X obj 77 270 line~;
#X obj 62 163 inlet~;
#X text 60 143 Audio L input (signal);
#X text 218 144 Audio R input (signal);
#X text 216 394 Audio R output (signal);
#X text 54 394 Audio R output (signal);
#X obj 62 364 outlet~;
#X text 446 46 Master volume (stereo);
#X text 279 204 Master volume slider input (0. \, 1.);
#X msg 77 242 \$1 10;
#X msg 232 244 \$1 10;
#X connect 0 0 1 0;
#X connect 1 0 5 0;
#X connect 2 0 0 1;
#X connect 3 0 18 0;
#X connect 3 0 17 0;
#X connect 4 0 0 0;
#X connect 6 0 7 0;
#X connect 7 0 14 0;
#X connect 8 0 6 1;
#X connect 9 0 6 0;
#X connect 17 0 8 0;
#X connect 18 0 2 0;
#X restore 163 988 pd Master_vol;
#X obj 1138 987 loadbang;
#X msg 710 720 0;
#N canvas 0 22 1268 884 highpass_filter 0;
#X obj 112 335 hip~;
#X obj 175 195 inlet;
#X text 222 264 smooth transition;
#X obj 112 373 outlet~;
#X text 152 334 1 pole high pass filter;
#X obj 112 110 inlet~;
#X text 164 109 Audio input (signal);
#X text 168 374 Audio output (signal);
#X msg 175 255 \$1 10;
#X text 224 195 Frequency slider input (0. to 1.);
#X obj 175 277 line;
#X text 380 263 Smooth doesn't work that much here cause the right
inlet of [hip~] doesn't take audio rate signal...;
#X connect 0 0 3 0;
#X connect 1 0 8 0;
#X connect 5 0 0 0;
#X connect 8 0 10 0;
#X connect 10 0 0 1;
#X restore 163 653 pd highpass_filter;
#X obj 1006 782 hsl 128 15 0 1 0 0 empty empty Env -2 -8 0 10 -262144
-1 -1 2540 1;
#X obj 875 781 tgl 15 0 empty empty empty 17 7 0 10 -262144 -1 -1 0
1;
#X text 871 826 Envelope mode (off = normal \, on = inverted), f 15
;
#X obj 1290 782 hsl 128 15 0 1 0 0 empty empty Kybd -2 -8 0 10 -262144
-1 -1 6350 1;
#X obj 163 317 pack 0 0 0;
#X obj 924 255 s 106_LFO_pitch_depth;
#X obj 714 325 s 106_LFO_delay_time;
#X obj 1069 341 s 106_manual_PW;
#X obj 1230 266 s 106_PWM_depth;
#X text 329 365 Only one LFO in the synth (not per voice), f 21;
#X obj 831 564 s 106_saw_switch;
#X obj 965 563 s 106_square_switch;
#X obj 1102 555 s 106_sub_mix;
#X text 1103 128 DCO;
#X obj 1243 555 s 106noise_mix;
#X text 693 134 LFO;
#X obj 875 808 s 106_VCF_env_mode;
#X obj 564 832 s 106_VCF_freq;
#X obj 711 887 s 106_VCF_Res;
#X obj 1145 833 s 106_VCF_LFO;
#X obj 1003 892 s 106_VCF_env_depth;
#X text 910 658 VCF;
#X obj 918 1216 s 106_attack;
#X obj 1104 1216 s 106_decay;
#X obj 1288 1118 s 106_sustain;
#X obj 1437 1208 s 106_release;
#X text 1145 941 ENV;
#X obj 719 1139 s 106_VCA_level;
#X obj 519 1155 s 106_VCA_env_type;
#X obj 163 602 +~;
#X obj 214 817 tgl 15 0 empty empty empty 17 7 0 10 -262144 -1 -1 0
1;
#X obj 587 660 s 106_portamento;
#X obj 590 531 hsl 128 15 0 1 0 0 empty empty Portamento -2 -8 0 10
-262144 -1 -1 0 1;
#X msg 1288 1031 0.5;
#X obj 1003 676 loadbang;
#X msg 1003 726 0.2;
#X msg 1287 725 0.5;
#X msg 1102 455 0.35;
#X msg 1243 460 0.06;
#X obj 924 114 loadbang;
#X msg 1230 177 0.4;
#X msg 924 169 0.1;
#X text 109 852 Chorus;
#X text 583 78 hen_mi@hotmail.com;
#X text 584 62 by Rawticks (Jean Michel Pepin);
#X obj 263 193 hsl 128 15 0 1 0 0 empty empty Transpose -2 -8 0 10
-262144 -1 -1 6350 1;
#X obj 261 141 loadbang;
#N canvas 0 22 710 476 transpose 0;
#X obj 98 194 sel 0 1 2 3 4, f 37;
#X msg 141 221 -12;
#X msg 185 221 0;
#X msg 98 221 -24;
#X msg 229 221 12;
#X msg 273 221 24;
#X obj 98 122 i;
#X obj 98 147 change;
#X floatatom 108 171 5 0 0 0 - - -, f 5;
#X obj 83 252 +;
#X obj 83 68 inlet;
#X obj 98 97 inlet;
#X text 80 48 Note input (0 127);
#X obj 83 290 clip 0 127;
#X obj 83 330 outlet;
#X text 83 353 Note output;
#X text 315 18 Transpose;
#X text 143 99 Transpose slider input (0. \, 1.);
#X connect 0 0 3 0;
#X connect 0 1 1 0;
#X connect 0 2 2 0;
#X connect 0 3 4 0;
#X connect 0 4 5 0;
#X connect 1 0 9 1;
#X connect 2 0 9 1;
#X connect 3 0 9 1;
#X connect 4 0 9 1;
#X connect 5 0 9 1;
#X connect 6 0 7 0;
#X connect 7 0 0 0;
#X connect 7 0 8 0;
#X connect 9 0 13 0;
#X connect 10 0 9 0;
#X connect 11 0 6 0;
#X connect 13 0 14 0;
#X restore 191 262 pd transpose;
#X msg 564 719 0.7;
#X msg 719 1037 1;
#X msg 1145 724 0.2;
#X msg 918 1034 0.07;
#X msg 1104 1030 0.15;
#X msg 1437 1030 0.25;
#X obj 260 215 * 4.9;
#X msg 260 162 0.5;
#N canvas 0 22 450 300 LFO_Rate_scale 0;
#X obj 29 73 t f f;
#X obj 29 95 *;
#X obj 29 49 expr ($f1 * 5.4) + 0.1;
#X text 72 84 Square;
#X text 194 50 scale to (0.1 \, 5.5);
#X obj 29 26 inlet;
#X obj 29 119 outlet;
#X connect 0 0 1 0;
#X connect 0 1 1 1;
#X connect 1 0 6 0;
#X connect 2 0 0 0;
#X connect 5 0 2 0;
#X restore 563 314 pd LFO_Rate_scale;
#X msg 563 168 0.15;
#X obj 714 300 * 5000;
#X msg 587 462 0;
#X obj 587 606 * 1000;
#X obj 1069 316 * 0.9;
#X text 1103 318 Scale to (0. \, 0.9);
#X obj 1287 891 s 106_VCF_kybd;
#X obj 1287 866 * 1.5;
#X text 1330 868 Scale to (0. \, 1.5);
#X text 635 606 Scale to (0. \, 1000);
#X text 760 301 Scale to (0. \, 5000);
#N canvas 0 22 604 514 VCF_freq_scale 0;
#X obj 52 209 t f f;
#X obj 52 234 *;
#X text 100 210 Square conversion, f 11;
#X obj 52 46 inlet;
#X obj 52 256 outlet;
#X obj 52 158 * 50;
#X obj 52 181 + 0.2;
#X text 97 156 Scale to (0. \, 50.);
#X obj 64 101 s param;
#X text 121 97 Sends value to array \, which can then be saved as a
preset;
#X msg 64 73 \$1 17;
#X text 103 74 Second number is index (17);
#X connect 0 0 1 0;
#X connect 0 1 1 1;
#X connect 1 0 4 0;
#X connect 3 0 5 0;
#X connect 3 0 10 0;
#X connect 5 0 6 0;
#X connect 6 0 0 0;
#X connect 10 0 8 0;
#X restore 564 806 pd VCF_freq_scale;
#N canvas 0 22 304 217 VCF_LFO_scale 0;
#X obj 52 93 t f f;
#X obj 52 118 *;
#X text 100 94 Square conversion, f 11;
#X obj 52 46 inlet;
#X obj 52 140 outlet;
#X obj 52 69 * 50;
#X text 97 67 Scale to (0. \, 50.);
#X connect 0 0 1 0;
#X connect 0 1 1 1;
#X connect 1 0 4 0;
#X connect 3 0 5 0;
#X connect 5 0 0 0;
#X restore 1145 808 pd VCF_LFO_scale;
#X obj 719 1114 * 0.4;
#X text 717 1163 Scale to (0. \, 0.4.);
#X obj 918 1192 expr ($f1 * 2998.5) + 1.5;
#X text 915 1238 Scale to (1.5 \, 3000);
#X obj 1104 1193 expr ($f1 * 11998.5) + 1.5;
#X text 1104 1238 Scale to (1.5 \, 12000);
#X obj 1437 1184 expr ($f1 * 11998.5) + 1.5;
#X text 1441 1230 Scale to (1.5 \, 12000) ms;
#N canvas 0 22 883 681 HPF_scale 0;
#X obj 52 198 t f f;
#X obj 52 223 *;
#X text 100 199 Square conversion, f 11;
#X obj 52 46 inlet;
#X obj 52 245 outlet;
#X obj 52 174 * 100;
#X text 107 174 Scale to (0. \, 100.);
#X obj 63 105 s param;
#X text 120 101 Sends value to array \, which can then be saved as
a preset;
#X msg 63 77 \$1 22;
#X text 101 78 Second number is index (22);
#X connect 0 0 1 0;
#X connect 0 1 1 1;
#X connect 1 0 4 0;
#X connect 3 0 5 0;
#X connect 3 0 9 0;
#X connect 5 0 0 0;
#X connect 9 0 7 0;
#X restore 268 624 pd HPF_scale;
#X obj 163 1036 throw~ outL;
#X obj 238 1036 throw~ outR;
#X text 161 1062 Audio output to Organelle DAC, f 15;
#X obj 163 349 route 1 2 3 4, f 14;
#X obj 163 93 r notes;
#X text 161 74 Organelle notes;
#X text 379 565 Smoothing doesn't work on organelle..., f 21;
#X text 584 47 a four voices Juno-106 emulation for Organelle;
#X obj 3529 250;
#N canvas 3 106 1232 808 screen_transpose 0;
#X obj 70 276 i;
#X obj 70 323 change -1;
#X obj 70 74 inlet;
#X obj 70 300 - 2;
#X obj 204 241 r page_select;
#X obj 204 267 sel 0;
#X obj 70 587 spigot;
#X obj 204 352 change;
#X msg 238 318 0;
#X obj 204 290 delay 10;
#X msg 70 523 1: Transpose \$1 oct;
#X msg 204 318 1;
#X obj 70 621 s screenLine1;
#X obj 204 377 t b f;
#X text 252 267 page 0;
#X obj 70 496 f;
#X obj 70 451 t b f;
#X text 104 487 Parameter Value is stored here and recalled when user
gets back to this page, f 41;
#X connect 0 0 3 0;
#X connect 1 0 16 0;
#X connect 2 0 0 0;
#X connect 3 0 1 0;
#X connect 4 0 5 0;
#X connect 5 0 9 0;
#X connect 5 1 8 0;
#X connect 6 0 12 0;
#X connect 7 0 13 0;
#X connect 8 0 7 0;
#X connect 9 0 11 0;
#X connect 10 0 6 0;
#X connect 11 0 7 0;
#X connect 13 0 15 0;
#X connect 13 1 6 1;
#X connect 15 0 10 0;
#X connect 16 0 15 0;
#X connect 16 1 15 1;
#X restore 281 262 pd screen_transpose;
#N canvas 256 81 931 736 screen_portamento 0;
#X obj 39 34 inlet;
#X obj 39 467 spigot;
#X obj 39 499 s screenLine2;
#X msg 39 419 2: Portamento \$1 ms;
#X obj 39 232 i;
#X obj 173 161 r page_select;
#X obj 173 272 change;
#X msg 207 238 0;
#X obj 173 210 delay 10;
#X msg 173 238 1;
#X obj 173 297 t b f;
#X obj 173 187 sel 0;
#X text 221 187 page 0;
#X obj 39 374 f;
#X obj 39 329 t b f;
#X connect 0 0 4 0;
#X connect 1 0 2 0;
#X connect 3 0 1 0;
#X connect 4 0 14 0;
#X connect 5 0 11 0;
#X connect 6 0 10 0;
#X connect 7 0 6 0;
#X connect 8 0 9 0;
#X connect 9 0 6 0;
#X connect 10 0 13 0;
#X connect 10 1 1 1;
#X connect 11 0 8 0;
#X connect 11 1 7 0;
#X connect 13 0 3 0;
#X connect 14 0 13 0;
#X connect 14 1 13 1;
#X restore 601 635 pd screen_portamento;
#N canvas 256 81 965 725 screen_chorus 0;
#X obj 39 12 inlet;
#X obj 39 450 spigot;
#X obj 39 479 s screenLine3;
#X obj 173 117 r page_select;
#X obj 173 228 change;
#X msg 207 194 0;
#X obj 173 166 delay 10;
#X msg 173 194 1;
#X obj 173 253 t b f;
#X obj 173 143 sel 0;
#X text 221 143 page 0;
#X obj 39 347 sel 0 1;
#X obj 39 321 f;
#X obj 39 165 t b f;
#X msg 39 383 3: Chorus Off;
#X msg 58 411 3: Chorus On;
#X obj 67 74 s param;
#X text 124 70 Sends value to array \, which can then be saved as a
preset;
#X msg 67 46 \$1 3;
#X text 105 47 Second number is index (3);
#X connect 0 0 13 0;
#X connect 0 0 18 0;
#X connect 1 0 2 0;
#X connect 3 0 9 0;
#X connect 4 0 8 0;
#X connect 5 0 4 0;
#X connect 6 0 7 0;
#X connect 7 0 4 0;
#X connect 8 0 12 0;
#X connect 8 1 1 1;
#X connect 9 0 6 0;
#X connect 9 1 5 0;
#X connect 11 0 14 0;
#X connect 11 1 15 0;
#X connect 12 0 11 0;
#X connect 13 0 12 0;
#X connect 13 1 12 1;
#X connect 14 0 1 0;
#X connect 15 0 1 0;
#X connect 18 0 16 0;
#X restore 238 852 pd screen_chorus;
#N canvas 256 81 975 753 screen_volume 0;
#X obj 39 33 inlet;
#X obj 39 498 spigot;
#X obj 39 238 * 100;
#X obj 39 260 i;
#X obj 39 530 s screenLine4;
#X msg 39 450 4: Volume \$1;
#X obj 173 172 r page_select;
#X obj 173 283 change;
#X msg 207 249 0;
#X obj 173 221 delay 10;
#X msg 173 249 1;
#X obj 173 308 t b f;
#X obj 173 198 sel 0;
#X text 221 198 page 0;
#X obj 39 421 f;
#X obj 39 376 t b f;
#X obj 61 93 s param;
#X text 118 89 Sends value to array \, which can then be saved as a
preset;
#X msg 61 65 \$1 4;
#X text 99 66 Second number is index (4);
#X connect 0 0 2 0;
#X connect 0 0 18 0;
#X connect 1 0 4 0;
#X connect 2 0 3 0;
#X connect 3 0 15 0;
#X connect 5 0 1 0;
#X connect 6 0 12 0;
#X connect 7 0 11 0;
#X connect 8 0 7 0;
#X connect 9 0 10 0;
#X connect 10 0 7 0;
#X connect 11 0 14 0;
#X connect 11 1 1 1;
#X connect 12 0 9 0;
#X connect 12 1 8 0;
#X connect 14 0 5 0;
#X connect 15 0 14 0;
#X connect 15 1 14 1;
#X connect 18 0 16 0;
#X restore 252 989 pd screen_volume;
#N canvas 414 91 769 536 screen_LFO_rate 0;
#X obj 39 631 s screenLine1;
#X obj 39 33 inlet;
#X msg 39 548 1: LFO Rate \$1 Hz;
#X obj 39 585 spigot;
#X obj 259 255 r page_select;
#X obj 259 366 change;
#X msg 293 332 0;
#X obj 259 304 delay 10;
#X msg 259 332 1;
#X obj 259 391 t b f;
#X obj 259 281 sel 1;
#X obj 101 211 > 1;
#X obj 126 273 sel 0 1;
#X obj 68 298 spigot;
#X obj 101 234 change;
#X obj 68 320 i;
#X obj 39 185 t f f;
#X obj 39 350 spigot;
#X msg 160 297 0;
#X msg 126 297 1;
#X text 133 175 if > 1 then integer \, else float;
#X obj 39 523 f;
#X obj 39 478 t b f;
#X connect 1 0 16 0;
#X connect 2 0 3 0;
#X connect 3 0 0 0;
#X connect 4 0 10 0;
#X connect 5 0 9 0;
#X connect 6 0 5 0;
#X connect 7 0 8 0;
#X connect 8 0 5 0;
#X connect 9 0 21 0;
#X connect 9 1 3 1;
#X connect 10 0 7 0;
#X connect 10 1 6 0;
#X connect 11 0 14 0;
#X connect 12 0 19 0;
#X connect 12 1 18 0;
#X connect 13 0 15 0;
#X connect 14 0 13 1;
#X connect 14 0 12 0;
#X connect 15 0 22 0;
#X connect 16 0 13 0;
#X connect 16 0 17 0;
#X connect 16 1 11 0;
#X connect 17 0 22 0;
#X connect 18 0 17 1;
#X connect 19 0 17 1;
#X connect 21 0 2 0;
#X connect 22 0 21 0;
#X connect 22 1 21 1;
#X restore 573 343 pd screen_LFO_rate;
#N canvas 256 81 894 684 screen_LFO_Pitch 0;
#X obj 39 33 inlet;
#X obj 39 472 spigot;
#X obj 39 219 * 100;
#X obj 39 240 i;
#X obj 39 497 s screenLine3;
#X msg 39 417 3: LFO Pitch \$1;
#X obj 173 172 r page_select;
#X obj 173 283 change;
#X msg 207 249 0;
#X obj 173 221 delay 10;
#X msg 173 249 1;
#X obj 173 308 t b f;
#X obj 173 198 sel 1;
#X text 221 198 page 1;
#X obj 39 386 f;
#X obj 39 291 t b f;
#X obj 61 93 s param;
#X text 118 89 Sends value to array \, which can then be saved as a
preset;
#X msg 61 65 \$1 7;
#X text 99 66 Second number is index (7);
#X connect 0 0 2 0;
#X connect 0 0 18 0;
#X connect 1 0 4 0;
#X connect 2 0 3 0;
#X connect 3 0 15 0;
#X connect 5 0 1 0;
#X connect 6 0 12 0;
#X connect 7 0 11 0;
#X connect 8 0 7 0;
#X connect 9 0 10 0;
#X connect 10 0 7 0;
#X connect 11 0 14 0;
#X connect 11 1 1 1;
#X connect 12 0 9 0;
#X connect 12 1 8 0;
#X connect 14 0 5 0;
#X connect 15 0 14 0;
#X connect 15 1 14 1;
#X connect 18 0 16 0;
#X restore 939 279 pd screen_LFO_Pitch;
#N canvas 256 81 612 628 screen_LFO_VCF 0;
#X obj 39 33 inlet;
#X obj 39 526 spigot;
#X obj 39 236 i;
#X obj 39 558 s screenLine4;
#X msg 39 466 4: LFO VCF \$1;
#X obj 173 139 r page_select;
#X obj 173 250 change;
#X msg 207 216 0;
#X obj 173 188 delay 10;
#X msg 173 216 1;
#X obj 173 275 t b f;
#X obj 173 165 sel 1;
#X text 221 165 page 1;
#X obj 39 202 * 100;
#X obj 39 394 f;
#X obj 39 349 t b f;
#X obj 61 93 s param;
#X text 118 89 Sends value to array \, which can then be saved as a
preset;
#X msg 61 65 \$1 8;
#X text 99 66 Second number is index (8);
#X connect 0 0 13 0;
#X connect 0 0 18 0;
#X connect 1 0 3 0;
#X connect 2 0 15 0;
#X connect 4 0 1 0;
#X connect 5 0 11 0;
#X connect 6 0 10 0;
#X connect 7 0 6 0;
#X connect 8 0 9 0;
#X connect 9 0 6 0;
#X connect 10 0 14 0;
#X connect 10 1 1 1;
#X connect 11 0 8 0;
#X connect 11 1 7 0;
#X connect 13 0 2 0;
#X connect 14 0 4 0;
#X connect 15 0 14 0;
#X connect 15 1 14 1;
#X connect 18 0 16 0;
#X restore 1154 857 pd screen_LFO_VCF;
#N canvas 256 81 781 696 screen_square_osc 0;
#X obj 39 468 s screenLine1;
#X obj 39 17 inlet;
#X obj 39 439 spigot;
#X obj 173 122 r page_select;
#X obj 173 233 change;
#X msg 207 199 0;
#X obj 173 171 delay 10;
#X msg 173 199 1;
#X obj 173 258 t b f;
#X obj 173 148 sel 2;
#X text 266 121 page 2;
#X obj 39 352 sel 0 1;
#X obj 39 326 f;
#X obj 39 170 t b f;
#X msg 58 407 1: Square Osc On;
#X msg 39 381 1: Square Osc Off;
#X obj 60 78 s param;
#X text 117 74 Sends value to array \, which can then be saved as a
preset;
#X msg 60 51 \$1 9;
#X text 98 51 Second number is index (9);
#X connect 1 0 13 0;
#X connect 1 0 18 0;
#X connect 2 0 0 0;
#X connect 3 0 9 0;
#X connect 4 0 8 0;
#X connect 5 0 4 0;
#X connect 6 0 7 0;
#X connect 7 0 4 0;
#X connect 8 0 12 0;
#X connect 8 1 2 1;
#X connect 9 0 6 0;
#X connect 9 1 5 0;
#X connect 11 0 15 0;
#X connect 11 1 14 0;
#X connect 12 0 11 0;
#X connect 13 0 12 0;
#X connect 13 1 12 1;
#X connect 14 0 2 0;
#X connect 15 0 2 0;
#X connect 18 0 16 0;
#X restore 987 587 pd screen_square_osc;
#N canvas 256 81 715 592 screen_saw_osc 0;
#X obj 39 562 s screenLine1;
#X obj 39 12 inlet;
#X obj 39 533 spigot;
#X obj 173 198 r page_select;
#X obj 173 309 change;
#X msg 207 275 0;
#X obj 173 247 delay 10;
#X msg 173 275 1;
#X obj 173 334 t b f;
#X obj 173 224 sel 3;
#X text 221 224 page 3;
#X msg 58 495 1: Saw Osc On;
#X obj 39 428 sel 0 1;
#X obj 39 402 f;
#X obj 39 246 t b f;
#X msg 39 464 1: Saw Osc Off;
#X obj 61 93 s param;
#X text 118 89 Sends value to array \, which can then be saved as a
preset;
#X msg 61 65 \$1 13;
#X text 99 66 Second number is index (13);
#X connect 1 0 14 0;
#X connect 1 0 18 0;
#X connect 2 0 0 0;
#X connect 3 0 9 0;
#X connect 4 0 8 0;
#X connect 5 0 4 0;
#X connect 6 0 7 0;
#X connect 7 0 4 0;
#X connect 8 0 13 0;
#X connect 8 1 2 1;
#X connect 9 0 6 0;
#X connect 9 1 5 0;
#X connect 11 0 2 0;
#X connect 12 0 15 0;
#X connect 12 1 11 0;
#X connect 13 0 12 0;
#X connect 14 0 13 0;
#X connect 14 1 13 1;
#X connect 15 0 2 0;
#X connect 18 0 16 0;
#X restore 843 588 pd screen_saw_osc;
#N canvas 272 130 833 588 screen_sub_osc 0;
#X obj 39 12 inlet;
#X obj 39 494 spigot;
#X obj 39 220 * 100;
#X obj 39 244 i;
#X obj 39 523 s screenLine2;
#X msg 39 454 2: Sub Osc Vol \$1;
#X obj 173 191 r page_select;
#X obj 173 302 change;
#X msg 207 268 0;
#X obj 173 240 delay 10;
#X msg 173 268 1;
#X obj 173 327 t b f;
#X obj 173 217 sel 3;
#X text 221 217 page 3;
#X obj 39 413 f;
#X obj 39 368 t b f;
#X obj 61 93 s param;
#X text 118 89 Sends value to array \, which can then be saved as a
preset;
#X msg 61 65 \$1 14;
#X text 99 66 Second number is index (14);
#X connect 0 0 2 0;
#X connect 0 0 18 0;
#X connect 1 0 4 0;
#X connect 2 0 3 0;
#X connect 3 0 15 0;
#X connect 5 0 1 0;
#X connect 6 0 12 0;
#X connect 7 0 11 0;
#X connect 8 0 7 0;
#X connect 9 0 10 0;
#X connect 10 0 7 0;
#X connect 11 0 14 0;
#X connect 11 1 1 1;
#X connect 12 0 9 0;
#X connect 12 1 8 0;
#X connect 14 0 5 0;
#X connect 15 0 14 0;
#X connect 15 1 14 1;
#X connect 18 0 16 0;
#X restore 1123 579 pd screen_sub_osc;
#N canvas 272 130 882 678 screen_noise 0;
#X obj 39 12 inlet;
#X obj 39 434 spigot;
#X obj 39 146 * 100;
#X obj 39 170 i;
#X obj 39 463 s screenLine3;
#X msg 39 394 3: Noise Vol \$1;
#X obj 173 117 r page_select;
#X obj 173 228 change;
#X msg 207 194 0;
#X obj 173 166 delay 10;
#X msg 173 194 1;
#X obj 173 253 t b f;
#X obj 173 143 sel 3;
#X text 221 143 page 3;
#X obj 39 353 f;
#X obj 39 308 t b f;
#X obj 58 77 s param;
#X text 115 73 Sends value to array \, which can then be saved as a
preset;
#X msg 58 49 \$1 15;
#X text 96 50 Second number is index (15);
#X connect 0 0 2 0;
#X connect 0 0 18 0;
#X connect 1 0 4 0;
#X connect 2 0 3 0;
#X connect 3 0 15 0;
#X connect 5 0 1 0;
#X connect 6 0 12 0;
#X connect 7 0 11 0;
#X connect 8 0 7 0;
#X connect 9 0 10 0;
#X connect 10 0 7 0;
#X connect 11 0 14 0;
#X connect 11 1 1 1;
#X connect 12 0 9 0;
#X connect 12 1 8 0;
#X connect 14 0 5 0;
#X connect 15 0 14 0;
#X connect 15 1 14 1;
#X connect 18 0 16 0;
#X restore 1257 582 pd screen_noise;
#X msg 714 164 0;
#N canvas 272 130 467 450 screen_PW 0;
#X obj 39 12 inlet;
#X obj 39 368 spigot;
#X obj 39 56 * 100;
#X obj 39 80 i;
#X obj 39 397 s screenLine2;
#X msg 39 328 2: Pulse Width \$1;
#X obj 173 9 r page_select;
#X obj 173 120 change;
#X msg 207 86 0;
#X obj 173 58 delay 10;
#X msg 173 86 1;
#X obj 173 145 t b f;
#X obj 173 35 sel 2;
#X text 221 35 page 2;
#X obj 39 238 f;
#X obj 39 193 t b f;
#X connect 0 0 2 0;
#X connect 1 0 4 0;
#X connect 2 0 3 0;
#X connect 3 0 15 0;
#X connect 5 0 1 0;
#X connect 6 0 12 0;
#X connect 7 0 11 0;
#X connect 8 0 7 0;
#X connect 9 0 10 0;
#X connect 10 0 7 0;
#X connect 11 0 14 0;
#X connect 11 1 1 1;
#X connect 12 0 9 0;
#X connect 12 1 8 0;
#X connect 14 0 5 0;
#X connect 15 0 14 0;
#X connect 15 1 14 1;
#X restore 1087 367 pd screen_PW;
#N canvas 272 130 893 650 screen_PWM 0;
#X obj 39 12 inlet;
#X obj 39 434 spigot;
#X obj 39 186 * 100;
#X obj 39 210 i;
#X obj 39 463 s screenLine3;
#X msg 39 394 3: PWM \$1;
#X obj 173 139 r page_select;
#X obj 173 250 change;
#X msg 207 216 0;
#X obj 173 188 delay 10;
#X msg 173 216 1;
#X obj 173 275 t b f;
#X obj 173 165 sel 2;
#X text 221 165 page 2;
#X obj 39 352 f;
#X obj 39 307 t b f;
#X obj 61 93 s param;
#X text 118 89 Sends value to array \, which can then be saved as a
preset;
#X msg 61 65 \$1 11;
#X text 99 66 Second number is index (11);
#X connect 0 0 2 0;
#X connect 0 0 18 0;
#X connect 1 0 4 0;
#X connect 2 0 3 0;
#X connect 3 0 15 0;
#X connect 5 0 1 0;
#X connect 6 0 12 0;
#X connect 7 0 11 0;
#X connect 8 0 7 0;
#X connect 9 0 10 0;
#X connect 10 0 7 0;
#X connect 11 0 14 0;
#X connect 11 1 1 1;
#X connect 12 0 9 0;
#X connect 12 1 8 0;
#X connect 14 0 5 0;
#X connect 15 0 14 0;
#X connect 15 1 14 1;
#X connect 18 0 16 0;
#X restore 1248 297 pd screen_PWM;
#N canvas 272 130 450 300 screen_VCF_Res 0;
#X obj 39 12 inlet;
#X obj 39 338 spigot;
#X obj 39 62 i;
#X obj 39 38 * 95;
#X obj 39 367 s screenLine2;
#X msg 39 298 2: VCF Res \$1;
#X obj 173 9 r page_select;
#X obj 173 120 change;
#X msg 207 86 0;
#X obj 173 58 delay 10;
#X msg 173 86 1;
#X obj 173 145 t b f;
#X obj 173 35 sel 4;
#X text 220 35 page 4;
#X obj 39 254 f;
#X obj 39 209 t b f;
#X connect 0 0 3 0;
#X connect 1 0 4 0;
#X connect 2 0 15 0;
#X connect 3 0 2 0;
#X connect 5 0 1 0;
#X connect 6 0 12 0;
#X connect 7 0 11 0;
#X connect 8 0 7 0;
#X connect 9 0 10 0;
#X connect 10 0 7 0;
#X connect 11 0 14 0;
#X connect 11 1 1 1;
#X connect 12 0 9 0;
#X connect 12 1 8 0;
#X connect 14 0 5 0;
#X connect 15 0 14 0;
#X connect 15 1 14 1;
#X restore 721 916 pd screen_VCF_Res;
#N canvas 272 130 450 300 screen_VCF_Freq 0;
#X obj 39 354 s screenLine1;
#X obj 39 12 inlet;
#X obj 39 321 spigot;
#X obj 39 62 i;
#X msg 39 285 1: VCF Freq \$1 Hz;
#X obj 173 9 r page_select;
#X obj 173 120 change;
#X msg 207 86 0;
#X obj 173 58 delay 10;
#X msg 173 86 1;
#X obj 173 145 t b f;
#X obj 173 35 sel 4;
#X text 221 35 page 4;
#X obj 39 249 f;
#X obj 39 204 t b f;
#X connect 1 0 3 0;
#X connect 2 0 0 0;
#X connect 3 0 14 0;
#X connect 4 0 2 0;
#X connect 5 0 11 0;
#X connect 6 0 10 0;
#X connect 7 0 6 0;
#X connect 8 0 9 0;
#X connect 9 0 6 0;
#X connect 10 0 13 0;
#X connect 10 1 2 1;
#X connect 11 0 8 0;
#X connect 11 1 7 0;
#X connect 13 0 4 0;
#X connect 14 0 13 0;
#X connect 14 1 13 1;
#X restore 575 858 pd screen_VCF_Freq;
#N canvas 256 81 900 722 screen_env_mode 0;
#X obj 39 12 inlet;
#X obj 39 443 spigot;
#X obj 39 472 s screenLine3;
#X obj 173 130 r page_select;
#X obj 173 241 change;
#X msg 207 207 0;
#X obj 173 179 delay 10;
#X msg 173 207 1;
#X obj 173 266 t b f;
#X obj 173 156 sel 4;
#X text 221 156 page 4;
#X obj 39 360 sel 0 1;
#X obj 39 334 f;
#X obj 39 178 t b f;
#X msg 58 414 3: VCF Env Mode: Inv;
#X msg 39 389 3: VCF Env Mode: Norm;
#X obj 61 93 s param;
#X text 118 89 Sends value to array \, which can then be saved as a
preset;
#X msg 61 65 \$1 19;
#X text 99 66 Second number is index (19);
#X connect 0 0 13 0;
#X connect 0 0 18 0;
#X connect 1 0 2 0;
#X connect 3 0 9 0;
#X connect 4 0 8 0;
#X connect 5 0 4 0;
#X connect 6 0 7 0;
#X connect 7 0 4 0;
#X connect 8 0 12 0;
#X connect 8 1 1 1;
#X connect 9 0 6 0;
#X connect 9 1 5 0;
#X connect 11 0 15 0;
#X connect 11 1 14 0;
#X connect 12 0 11 0;
#X connect 13 0 12 0;
#X connect 13 1 12 1;
#X connect 14 0 1 0;
#X connect 15 0 1 0;
#X connect 18 0 16 0;
#X restore 885 876 pd screen_env_mode;
#N canvas 272 130 450 300 screen_env_depth 0;
#X obj 39 12 inlet;
#X obj 39 342 spigot;
#X obj 39 62 i;
#X obj 39 38 * 100;
#X obj 39 371 s screenLine4;
#X msg 39 302 4: VCF Env Depth \$1;
#X obj 173 9 r page_select;
#X obj 173 120 change;
#X msg 207 86 0;
#X obj 173 58 delay 10;
#X msg 173 86 1;
#X obj 173 145 t b f;
#X obj 173 35 sel 4;
#X text 221 35 page 4;
#X obj 39 230 f;
#X obj 39 185 t b f;
#X connect 0 0 3 0;
#X connect 1 0 4 0;
#X connect 2 0 15 0;
#X connect 3 0 2 0;
#X connect 5 0 1 0;
#X connect 6 0 12 0;
#X connect 7 0 11 0;
#X connect 8 0 7 0;
#X connect 9 0 10 0;
#X connect 10 0 7 0;
#X connect 11 0 14 0;
#X connect 11 1 1 1;
#X connect 12 0 9 0;
#X connect 12 1 8 0;
#X connect 14 0 5 0;
#X connect 15 0 14 0;
#X connect 15 1 14 1;
#X restore 1020 919 pd screen_env_depth;
#N canvas 272 130 566 754 screen_VCF_kybd_track 0;
#X obj 39 349 s screenLine1;
#X obj 39 12 inlet;
#X obj 39 320 spigot;
#X obj 39 62 i;
#X obj 39 38 * 100;
#X msg 39 280 1: VCF Kybd Trk \$1;
#X obj 173 9 r page_select;
#X obj 173 120 change;
#X msg 207 86 0;
#X obj 173 58 delay 10;
#X msg 173 86 1;
#X obj 173 145 t b f;
#X obj 173 35 sel 5;
#X text 221 35 page 5;
#X obj 39 215 f;
#X obj 39 170 t b f;
#X connect 1 0 4 0;
#X connect 2 0 0 0;
#X connect 3 0 15 0;
#X connect 4 0 3 0;
#X connect 5 0 2 0;
#X connect 6 0 12 0;
#X connect 7 0 11 0;
#X connect 8 0 7 0;
#X connect 9 0 10 0;
#X connect 10 0 7 0;
#X connect 11 0 14 0;
#X connect 11 1 2 1;
#X connect 12 0 9 0;
#X connect 12 1 8 0;
#X connect 14 0 5 0;
#X connect 15 0 14 0;
#X connect 15 1 14 1;
#X restore 1303 915 pd screen_VCF_kybd_track;
#N canvas 272 130 450 300 screen_HPF_Freq 0;
#X obj 39 12 inlet;
#X obj 39 303 spigot;
#X obj 39 62 i;
#X obj 39 332 s screenLine2;
#X msg 39 263 2: HPF Freq \$1 Hz;
#X obj 173 9 r page_select;
#X obj 173 120 change;
#X msg 207 86 0;
#X obj 173 58 delay 10;
#X msg 173 86 1;
#X obj 173 145 t b f;
#X obj 173 35 sel 5;
#X text 221 35 page 5;
#X obj 39 228 f;
#X obj 39 183 t b f;
#X connect 0 0 2 0;
#X connect 1 0 3 0;
#X connect 2 0 14 0;
#X connect 4 0 1 0;
#X connect 5 0 11 0;
#X connect 6 0 10 0;
#X connect 7 0 6 0;
#X connect 8 0 9 0;
#X connect 9 0 6 0;
#X connect 10 0 13 0;
#X connect 10 1 1 1;
#X connect 11 0 8 0;
#X connect 11 1 7 0;
#X connect 13 0 4 0;
#X connect 14 0 13 0;
#X connect 14 1 13 1;
#X restore 289 652 pd screen_HPF_Freq;
#N canvas 256 81 817 701 screen_VCA_env_mode 0;
#X obj 39 12 inlet;
#X obj 39 510 spigot;
#X obj 39 539 s screenLine4;
#X obj 173 193 r page_select;
#X obj 173 304 change;
#X msg 207 270 0;
#X obj 173 242 delay 10;
#X msg 173 270 1;
#X obj 173 329 t b f;
#X obj 173 219 sel 5;
#X text 221 219 page 5;
#X obj 39 423 sel 0 1;
#X obj 39 397 f;
#X obj 39 241 t b f;
#X msg 58 478 4: VCA Env Mode: Gate;
#X msg 39 456 4: VCA Env Mode: ADSR;
#X obj 61 93 s param;
#X text 118 89 Sends value to array \, which can then be saved as a
preset;
#X msg 61 65 \$1 24;
#X text 99 66 Second number is index (24);
#X connect 0 0 13 0;
#X connect 0 0 18 0;
#X connect 1 0 2 0;
#X connect 3 0 9 0;
#X connect 4 0 8 0;
#X connect 5 0 4 0;
#X connect 6 0 7 0;
#X connect 7 0 4 0;
#X connect 8 0 12 0;
#X connect 8 1 1 1;
#X connect 9 0 6 0;
#X connect 9 1 5 0;
#X connect 11 0 15 0;
#X connect 11 1 14 0;
#X connect 12 0 11 0;
#X connect 13 0 12 0;
#X connect 13 1 12 1;
#X connect 14 0 1 0;
#X connect 15 0 1 0;
#X connect 18 0 16 0;
#X restore 529 1181 pd screen_VCA_env_mode;
#N canvas 272 130 471 625 screen_Attack 0;
#X obj 39 421 s screenLine1;
#X obj 39 12 inlet;
#X obj 39 392 spigot;
#X obj 39 62 i;
#X msg 39 352 1: Attack \$1 ms;
#X obj 173 9 r page_select;
#X obj 173 120 change;
#X msg 207 86 0;
#X obj 173 58 delay 10;
#X msg 173 86 1;
#X obj 173 145 t b f;
#X obj 173 35 sel 6;
#X text 221 35 page 6;
#X obj 39 259 f;
#X obj 39 214 t b f;
#X connect 1 0 3 0;
#X connect 2 0 0 0;
#X connect 3 0 14 0;
#X connect 4 0 2 0;
#X connect 5 0 11 0;
#X connect 6 0 10 0;
#X connect 7 0 6 0;
#X connect 8 0 9 0;
#X connect 9 0 6 0;
#X connect 10 0 13 0;
#X connect 10 1 2 1;
#X connect 11 0 8 0;
#X connect 11 1 7 0;
#X connect 13 0 4 0;
#X connect 14 0 13 0;
#X connect 14 1 13 1;
#X restore 925 1261 pd screen_Attack;
#N canvas 272 130 543 497 screen_Decay 0;
#X obj 39 12 inlet;
#X obj 39 356 spigot;
#X obj 39 62 i;
#X obj 39 384 s screenLine2;
#X msg 39 316 2: Decay \$1 ms;
#X obj 173 9 r page_select;
#X obj 173 120 change;
#X msg 207 86 0;
#X obj 173 58 delay 10;
#X msg 173 86 1;
#X obj 173 145 t b f;
#X obj 173 35 sel 6;
#X text 221 35 page 6;
#X obj 39 239 f;
#X obj 39 194 t b f;
#X connect 0 0 2 0;
#X connect 1 0 3 0;
#X connect 2 0 14 0;
#X connect 4 0 1 0;
#X connect 5 0 11 0;
#X connect 6 0 10 0;
#X connect 7 0 6 0;
#X connect 8 0 9 0;
#X connect 9 0 6 0;
#X connect 10 0 13 0;
#X connect 10 1 1 1;
#X connect 11 0 8 0;
#X connect 11 1 7 0;
#X connect 13 0 4 0;
#X connect 14 0 13 0;
#X connect 14 1 13 1;
#X restore 1121 1263 pd screen_Decay;
#N canvas 272 130 600 661 screen_Sustain 0;
#X obj 39 12 inlet;
#X obj 39 574 spigot;
#X obj 39 209 i;
#X obj 39 186 * 100;
#X obj 39 603 s screenLine3;
#X msg 39 543 3: Sustain \$1;
#X obj 173 156 r page_select;
#X obj 173 267 change;
#X msg 207 233 0;
#X obj 173 205 delay 10;
#X msg 173 233 1;
#X obj 173 292 t b f;
#X obj 173 182 sel 6;
#X text 221 182 page 6;
#X obj 39 406 f;
#X obj 39 361 t b f;
#X obj 56 70 s param;
#X text 113 66 Sends value to array \, which can then be saved as a
preset;
#X msg 56 42 \$1 27;
#X text 94 43 Second number is index (27);
#X connect 0 0 3 0;
#X connect 0 0 18 0;
#X connect 1 0 4 0;
#X connect 2 0 15 0;
#X connect 3 0 2 0;
#X connect 5 0 1 0;
#X connect 6 0 12 0;
#X connect 7 0 11 0;
#X connect 8 0 7 0;
#X connect 9 0 10 0;
#X connect 10 0 7 0;
#X connect 11 0 5 0;
#X connect 11 0 14 0;
#X connect 11 1 1 1;
#X connect 12 0 9 0;
#X connect 12 1 8 0;
#X connect 14 0 5 0;
#X connect 15 0 14 0;
#X connect 15 1 14 1;
#X connect 18 0 16 0;
#X restore 1295 1144 pd screen_Sustain;
#N canvas 272 130 450 300 screen_Release 0;
#X obj 39 12 inlet;
#X obj 39 326 spigot;
#X obj 39 62 i;
#X obj 39 355 s screenLine4;
#X msg 39 297 4: Release \$1 ms;
#X obj 173 9 r page_select;
#X obj 173 120 change;
#X msg 207 86 0;
#X obj 173 58 delay 10;
#X msg 173 86 1;
#X obj 173 145 t b f;
#X obj 173 35 sel 6;
#X text 221 35 page 6;
#X obj 39 253 f;
#X obj 39 208 t b f;
#X connect 0 0 2 0;
#X connect 1 0 3 0;
#X connect 2 0 14 0;
#X connect 4 0 1 0;
#X connect 5 0 11 0;
#X connect 6 0 10 0;
#X connect 7 0 6 0;
#X connect 8 0 9 0;
#X connect 9 0 6 0;
#X connect 10 0 13 0;
#X connect 10 1 1 1;
#X connect 11 0 8 0;
#X connect 11 1 7 0;
#X connect 13 0 4 0;
#X connect 14 0 13 0;
#X connect 14 1 13 1;
#X restore 1453 1248 pd screen_Release;
#N canvas 256 81 888 703 screen_LFO_Delay 0;
#X obj 39 33 inlet;
#X obj 39 532 spigot;
#X obj 39 564 s screenLine2;
#X msg 39 484 2: LFO Delay \$1 ms;
#X obj 39 261 i;
#X obj 173 192 r page_select;
#X obj 173 303 change;
#X msg 207 269 0;
#X obj 173 241 delay 10;
#X msg 173 269 1;
#X obj 173 328 t b f;
#X obj 173 217 sel 1;
#X text 221 218 page 1;
#X obj 39 458 f;
#X obj 39 413 t b f;
#X connect 0 0 4 0;
#X connect 1 0 2 0;
#X connect 3 0 1 0;
#X connect 4 0 14 0;
#X connect 5 0 11 0;
#X connect 6 0 10 0;
#X connect 7 0 6 0;
#X connect 8 0 9 0;
#X connect 9 0 6 0;
#X connect 10 0 13 0;
#X connect 10 1 1 1;
#X connect 11 0 8 0;
#X connect 11 1 7 0;
#X connect 13 0 3 0;
#X connect 14 0 13 0;
#X connect 14 1 13 1;
#X restore 728 348 pd screen_LFO_Delay;
#X obj 271 761 loadbang;
#X msg 271 784 0;
#X msg 875 711 0;
#X msg 1069 174 0;
#X msg 519 1041 0;
#X text 1460 136 Page 0 : 1:Transpose \, 2:Portamento \, 3:Chorus \,
4:Volume;
#X text 1460 153 Page 1 : 1:LFO rate \, 2:LFO delay time \, 3:LFO Pitch
\, 4:LFO VCF, f 61;
#X text 1460 170 Page 2 : 1:Square Osc \, 2:Pulse Width \, 3:PWM \,
4:----- (nothing), f 63;
#X text 1460 187 Page 3 : 1:Saw Osc \, 2:Sub Osc \, 3:Noise \, 4:-----
;
#X text 1460 206 Page 4 : 1:VCF Freq \, 2:VCF Res \, 3:VCF Env mode
\, 4:VCF Env depth, f 63;
#X text 1460 224 Page 5 : 1:VCF kybd \, 2:HPF Freq \, 3:----- \, 4:VCA
Env type;
#X text 1460 243 Page 6 : 1:Attack \, 2:Decay \, 3:Sustain \, 4:Release
;
#X obj 351 158 r p0_k1;
#X obj 596 497 r p0_k2;
#X obj 214 745 r p0_k3;
#X obj 270 917 r p0_k4;
#X obj 574 192 r p1_k1;
#X obj 725 189 r p1_k2;
#X obj 942 193 r p1_k3;
#X obj 1159 748 r p1_k4;
#X obj 1000 446 r p2_k1;
#X obj 1079 198 r p2_k2;
#X obj 1249 201 r p2_k3;
#X obj 870 445 r p3_k1;
#X obj 1115 485 r p3_k2;
#X obj 1255 487 r p3_k3;
#X obj 575 742 r p4_k1;
#X obj 720 744 r p4_k2;
#X obj 908 712 r p4_k3;
#X obj 1012 749 r p4_k4;
#X obj 1321 743 r p5_k1;
#X obj 268 566 r p5_k2;
#X obj 561 1043 r p5_k4;
#X obj 1448 1055 r p6_k4;
#X obj 1297 1056 r p6_k3;
#X obj 1120 1058 r p6_k2;
#X obj 930 1056 r p6_k1;
#X obj 1000 491 change;
#X obj 1000 469 > 0.5;
#X obj 870 491 change;
#X obj 870 467 > 0.5;
#X obj 214 787 change;
#X obj 214 766 > 0.5;
#X obj 908 754 change;
#X obj 908 733 > 0.5;
#X obj 561 1089 change;
#X obj 561 1065 > 0.5;
#X obj 711 863 * 3.9;
#X text 746 863 scale to (0. \, 3.9);
#X obj 1003 868 * 4000;
#X obj 2056 591 r p7_k1;
#X obj 2055 699 r p7_k2;
#N canvas 9 22 1631 950 organelle_knobs_screen 0;
#X obj 215 314 r knob1;
#X obj 215 389 pack 0 0;
#X msg 215 412 \$2 \$1;
#X obj 516 388 pack 0 0;
#X msg 516 411 \$2 \$1;
#X obj 516 314 r knob2;
#X obj 864 388 pack 0 0;
#X msg 864 411 \$2 \$1;
#X obj 1135 386 pack 0 0;
#X msg 1135 409 \$2 \$1;
#X obj 864 313 r knob3;
#X obj 1135 311 r knob4;
#X obj 260 365 r page_select;
#X obj 561 364 r page_select;
#X obj 909 365 r page_select;
#X obj 1180 362 r page_select;
#X obj 864 436 route 0 1 2 3 4 5 6, f 20;
#X obj 1135 434 route 0 1 2 3 4 5 6, f 20;
#X text 145 728 Page 0;
#X text 146 688 Page 1;
#X text 147 652 Page 2;
#X text 1172 653 -----;
#X text 148 616 Page 3;
#X text 1174 614 -----;
#X text 149 582 Page 4;
#X text 150 547 Page 5;
#X text 948 546 -----;
#X text 151 512 Page 6;
#N canvas 0 22 1138 857 knob_move_detector 0;
#X obj 380 395 -, f 5;
#X obj 380 423 abs;
#X obj 206 148 sel 1;
#X obj 380 112 inlet;
#X obj 308 289 outlet;
#N canvas 0 22 918 613 counter 0;
#X obj 157 104 bang;
#X msg 293 124 0;
#X obj 197 162 + 1;
#X obj 157 162 0;
#X msg 157 251 1;
#X msg 189 251 0;
#X obj 177 282 change;
#X obj 132 36 inlet;
#X obj 117 498 outlet;
#X obj 157 73 inlet;
#X text 306 161 This section counts 5 modifications of input and then
let pass the last one. It creates a small delay between 2 read values
of the knob \, which makes it easier to compare.;
#X obj 132 306 spigot 0;
#X obj 157 210 sel 1 5;
#X obj 117 410 f;
#X connect 0 0 3 0;
#X connect 1 0 3 0;
#X connect 2 0 3 1;
#X connect 3 0 2 0;
#X connect 3 0 12 0;
#X connect 4 0 6 0;
#X connect 5 0 6 0;
#X connect 6 0 11 1;
#X connect 7 0 11 0;
#X connect 9 0 0 0;
#X connect 11 0 13 1;
#X connect 12 0 4 0;
#X connect 12 1 5 0;
#X connect 12 1 13 0;
#X connect 12 1 1 0;
#X connect 12 2 5 0;
#X connect 13 0 8 0;
#X restore 380 328 pd counter;
#X text 434 421 Turns difference into absolute number;
#X text 431 446 If difference is greater than x \, then it's human
movement so let pass the data through the gate [spigot];
#X obj 380 289 t f f f, f 37;
#X text 433 113 Receive knob value;
#X obj 605 99 r page_select;
#X obj 605 124 bang;
#X text 648 130 Reset when page changes;
#X text 376 484 This value might have to be adjusted for better performance
, f 31;
#X text 479 348 The counter maximum might have to be adjusted for better
performance, f 41;
#X obj 380 261 spigot 1;
#X obj 308 260 spigot 0;
#X obj 605 146 t b b;
#X msg 637 171 0;
#X msg 605 169 1;
#X obj 172 182 t b b;
#X msg 199 204 0;
#X msg 172 204 1;
#X obj 380 452 > 0.005;
#X text 455 328 Creates a delay between reading values of knob;
#X text 371 25 The organelle's knobs seems to update values every now
and then (without touching the knobs) and this can be problematic when
switching from one page to the other. This patch is to make sure the
knob movement comes from a human, f 78;
#X connect 0 0 1 0;
#X connect 1 0 23 0;
#X connect 2 0 20 0;
#X connect 3 0 15 0;
#X connect 3 0 16 0;
#X connect 5 0 0 0;
#X connect 8 0 5 0;
#X connect 8 1 5 1;
#X connect 8 2 0 1;
#X connect 10 0 11 0;
#X connect 11 0 17 0;
#X connect 15 0 8 0;
#X connect 16 0 4 0;
#X connect 17 0 19 0;
#X connect 17 1 18 0;
#X connect 18 0 16 1;
#X connect 19 0 15 1;
#X connect 20 0 22 0;
#X connect 20 1 21 0;
#X connect 21 0 15 1;
#X connect 22 0 16 1;
#X connect 23 0 2 0;
#X restore 1135 338 pd knob_move_detector;
#X obj 299 545 s p5_k1;
#X obj 216 731 s p0_k1;
#X obj 232 692 s p1_k1;
#X obj 249 653 s p2_k1;
#X obj 266 615 s p3_k1;
#X obj 282 581 s p4_k1;
#X obj 316 510 s p6_k1;
#X text 289 723 Nomenclature : [s p0_k1] = send page 0 \, knob 1,
f 25;
#X text 294 686 Nomenclature : [s p1_k1] = send page 1 \, knob 1,
f 25;
#X text 219 116 Page 0 : 1:Transpose \, 2:Portamento \, 3:Chorus \,
4:Volume;
#X text 219 133 Page 1 : 1:LFO rate \, 2:LFO delay time \, 3:LFO Pitch
\, 4:LFO VCF, f 61;
#X text 219 150 Page 2 : 1:Square Osc \, 2:Pulse Width \, 3:PWM \,
4:----- (nothing), f 63;
#X text 219 167 Page 3 : 1:Saw Osc \, 2:Sub Osc \, 3:Noise \, 4:-----
;
#X text 219 186 Page 4 : 1:VCF Freq \, 2:VCF Res \, 3:VCF Env mode
\, 4:VCF Env depth, f 63;
#X text 219 204 Page 5 : 1:VCF kybd \, 2:HPF Freq \, 3:----- \, 4:VCA
Env type;
#X text 219 223 Page 6 : 1:Attack \, 2:Decay \, 3:Sustain \, 4:Release
;
#X obj 516 731 s p0_k2;
#X obj 532 691 s p1_k2;
#X obj 549 653 s p2_k2;
#X obj 566 613 s p3_k2;
#X obj 582 582 s p4_k2;
#X obj 599 546 s p5_k2;
#X obj 616 508 s p6_k2;
#X obj 864 737 s p0_k3;
#X obj 880 692 s p1_k3;
#X text 218 286 Knob 1;
#X text 545 280 Knob 2;
#X text 868 273 Knob 3;
#X text 1146 268 Knob 4;
#X obj 897 653 s p2_k3;
#X obj 914 615 s p3_k3;
#X obj 930 578 s p4_k3;
#X obj 964 508 s p6_k3;
#X obj 1135 734 s p0_k4;
#X obj 1151 698 s p1_k4;
#X obj 1201 579 s p4_k4;
#X obj 1218 549 s p5_k4;
#X obj 1235 512 s p6_k4;
#N canvas 0 22 1138 857 knob_move_detector 0;
#X obj 380 395 -, f 5;
#X obj 380 423 abs;
#X obj 206 148 sel 1;
#X obj 380 112 inlet;
#X obj 308 289 outlet;
#N canvas 0 22 918 613 counter 0;
#X obj 157 104 bang;
#X msg 293 124 0;
#X obj 197 162 + 1;
#X obj 157 162 0;
#X msg 157 251 1;
#X msg 189 251 0;
#X obj 177 282 change;
#X obj 132 36 inlet;
#X obj 117 498 outlet;
#X obj 157 73 inlet;
#X text 306 161 This section counts 5 modifications of input and then
let pass the last one. It creates a small delay between 2 read values
of the knob \, which makes it easier to compare.;
#X obj 132 306 spigot 0;
#X obj 157 210 sel 1 5;
#X obj 117 410 f;
#X connect 0 0 3 0;
#X connect 1 0 3 0;
#X connect 2 0 3 1;
#X connect 3 0 2 0;
#X connect 3 0 12 0;
#X connect 4 0 6 0;
#X connect 5 0 6 0;
#X connect 6 0 11 1;
#X connect 7 0 11 0;
#X connect 9 0 0 0;
#X connect 11 0 13 1;
#X connect 12 0 4 0;
#X connect 12 1 5 0;
#X connect 12 1 13 0;
#X connect 12 1 1 0;
#X connect 12 2 5 0;
#X connect 13 0 8 0;
#X restore 380 328 pd counter;
#X text 434 421 Turns difference into absolute number;
#X text 431 446 If difference is greater than x \, then it's human
movement so let pass the data through the gate [spigot];
#X obj 380 289 t f f f, f 37;
#X text 433 113 Receive knob value;
#X obj 605 99 r page_select;
#X obj 605 124 bang;
#X text 648 130 Reset when page changes;
#X text 376 484 This value might have to be adjusted for better performance
, f 31;
#X text 479 348 The counter maximum might have to be adjusted for better
performance, f 41;
#X obj 380 261 spigot 1;
#X obj 308 260 spigot 0;
#X obj 605 146 t b b;
#X msg 637 171 0;
#X msg 605 169 1;
#X obj 172 182 t b b;
#X msg 199 204 0;
#X msg 172 204 1;
#X obj 380 452 > 0.005;
#X text 455 328 Creates a delay between reading values of knob;
#X text 371 25 The organelle's knobs seems to update values every now
and then (without touching the knobs) and this can be problematic when
switching from one page to the other. This patch is to make sure the
knob movement comes from a human, f 78;
#X connect 0 0 1 0;
#X connect 1 0 23 0;
#X connect 2 0 20 0;
#X connect 3 0 15 0;
#X connect 3 0 16 0;
#X connect 5 0 0 0;
#X connect 8 0 5 0;
#X connect 8 1 5 1;
#X connect 8 2 0 1;
#X connect 10 0 11 0;
#X connect 11 0 17 0;
#X connect 15 0 8 0;
#X connect 16 0 4 0;
#X connect 17 0 19 0;
#X connect 17 1 18 0;
#X connect 18 0 16 1;
#X connect 19 0 15 1;
#X connect 20 0 22 0;
#X connect 20 1 21 0;
#X connect 21 0 15 1;
#X connect 22 0 16 1;
#X connect 23 0 2 0;
#X restore 864 338 pd knob_move_detector;
#N canvas 0 22 1138 857 knob_move_detector 0;
#X obj 380 395 -, f 5;
#X obj 380 423 abs;
#X obj 206 148 sel 1;
#X obj 380 112 inlet;
#X obj 308 289 outlet;
#N canvas 0 22 918 613 counter 0;
#X obj 157 104 bang;
#X msg 293 124 0;
#X obj 197 162 + 1;
#X obj 157 162 0;
#X msg 157 251 1;
#X msg 189 251 0;
#X obj 177 282 change;
#X obj 132 36 inlet;
#X obj 117 498 outlet;
#X obj 157 73 inlet;
#X text 306 161 This section counts 5 modifications of input and then
let pass the last one. It creates a small delay between 2 read values
of the knob \, which makes it easier to compare.;
#X obj 132 306 spigot 0;
#X obj 157 210 sel 1 5;
#X obj 117 410 f;
#X connect 0 0 3 0;
#X connect 1 0 3 0;
#X connect 2 0 3 1;
#X connect 3 0 2 0;
#X connect 3 0 12 0;
#X connect 4 0 6 0;
#X connect 5 0 6 0;
#X connect 6 0 11 1;
#X connect 7 0 11 0;
#X connect 9 0 0 0;
#X connect 11 0 13 1;
#X connect 12 0 4 0;
#X connect 12 1 5 0;
#X connect 12 1 13 0;
#X connect 12 1 1 0;
#X connect 12 2 5 0;
#X connect 13 0 8 0;
#X restore 380 328 pd counter;
#X text 434 421 Turns difference into absolute number;
#X text 431 446 If difference is greater than x \, then it's human
movement so let pass the data through the gate [spigot];
#X obj 380 289 t f f f, f 37;
#X text 433 113 Receive knob value;
#X obj 605 99 r page_select;
#X obj 605 124 bang;
#X text 648 130 Reset when page changes;
#X text 376 484 This value might have to be adjusted for better performance
, f 31;
#X text 479 348 The counter maximum might have to be adjusted for better
performance, f 41;
#X obj 380 261 spigot 1;
#X obj 308 260 spigot 0;
#X obj 605 146 t b b;
#X msg 637 171 0;
#X msg 605 169 1;
#X obj 172 182 t b b;
#X msg 199 204 0;
#X msg 172 204 1;
#X obj 380 452 > 0.005;
#X text 455 328 Creates a delay between reading values of knob;
#X text 371 25 The organelle's knobs seems to update values every now
and then (without touching the knobs) and this can be problematic when
switching from one page to the other. This patch is to make sure the
knob movement comes from a human, f 78;
#X connect 0 0 1 0;
#X connect 1 0 23 0;
#X connect 2 0 20 0;
#X connect 3 0 15 0;
#X connect 3 0 16 0;
#X connect 5 0 0 0;
#X connect 8 0 5 0;
#X connect 8 1 5 1;
#X connect 8 2 0 1;
#X connect 10 0 11 0;
#X connect 11 0 17 0;
#X connect 15 0 8 0;
#X connect 16 0 4 0;
#X connect 17 0 19 0;
#X connect 17 1 18 0;
#X connect 18 0 16 1;
#X connect 19 0 15 1;
#X connect 20 0 22 0;
#X connect 20 1 21 0;
#X connect 21 0 15 1;
#X connect 22 0 16 1;
#X connect 23 0 2 0;
#X restore 516 337 pd knob_move_detector;
#N canvas 0 22 1138 857 knob_move_detector 0;
#X obj 380 395 -, f 5;
#X obj 380 423 abs;
#X obj 206 148 sel 1;
#X obj 380 112 inlet;
#X obj 308 289 outlet;
#N canvas 0 22 918 613 counter 0;
#X obj 157 104 bang;
#X msg 293 124 0;
#X obj 197 162 + 1;
#X obj 157 162 0;
#X msg 157 251 1;
#X msg 189 251 0;
#X obj 177 282 change;
#X obj 132 36 inlet;
#X obj 117 498 outlet;
#X obj 157 73 inlet;
#X text 306 161 This section counts 5 modifications of input and then
let pass the last one. It creates a small delay between 2 read values
of the knob \, which makes it easier to compare.;
#X obj 132 306 spigot 0;
#X obj 157 210 sel 1 5;
#X obj 117 410 f;
#X connect 0 0 3 0;
#X connect 1 0 3 0;
#X connect 2 0 3 1;
#X connect 3 0 2 0;
#X connect 3 0 12 0;
#X connect 4 0 6 0;
#X connect 5 0 6 0;
#X connect 6 0 11 1;
#X connect 7 0 11 0;
#X connect 9 0 0 0;
#X connect 11 0 13 1;
#X connect 12 0 4 0;
#X connect 12 1 5 0;
#X connect 12 1 13 0;
#X connect 12 1 1 0;
#X connect 12 2 5 0;
#X connect 13 0 8 0;
#X restore 380 328 pd counter;
#X text 434 421 Turns difference into absolute number;
#X text 431 446 If difference is greater than x \, then it's human
movement so let pass the data through the gate [spigot];
#X obj 380 289 t f f f, f 37;
#X text 433 113 Receive knob value;
#X obj 605 99 r page_select;
#X obj 605 124 bang;
#X text 648 130 Reset when page changes;
#X text 376 484 This value might have to be adjusted for better performance
, f 31;
#X text 479 348 The counter maximum might have to be adjusted for better
performance, f 41;
#X obj 380 261 spigot 1;
#X obj 308 260 spigot 0;
#X obj 605 146 t b b;
#X msg 637 171 0;
#X msg 605 169 1;
#X obj 172 182 t b b;
#X msg 199 204 0;
#X msg 172 204 1;
#X obj 380 452 > 0.005;
#X text 455 328 Creates a delay between reading values of knob;
#X text 371 25 The organelle's knobs seems to update values every now
and then (without touching the knobs) and this can be problematic when
switching from one page to the other. This patch is to make sure the
knob movement comes from a human, f 78;
#X connect 0 0 1 0;
#X connect 1 0 23 0;
#X connect 2 0 20 0;
#X connect 3 0 15 0;
#X connect 3 0 16 0;
#X connect 5 0 0 0;
#X connect 8 0 5 0;
#X connect 8 1 5 1;
#X connect 8 2 0 1;
#X connect 10 0 11 0;
#X connect 11 0 17 0;
#X connect 15 0 8 0;
#X connect 16 0 4 0;
#X connect 17 0 19 0;
#X connect 17 1 18 0;
#X connect 18 0 16 1;
#X connect 19 0 15 1;
#X connect 20 0 22 0;
#X connect 20 1 21 0;
#X connect 21 0 15 1;
#X connect 22 0 16 1;
#X connect 23 0 2 0;
#X restore 215 341 pd knob_move_detector;
#N canvas 0 62 1054 846 page_selection 0;
#X text 398 36 Page selection counter and Aux LED color;
#X obj 321 466 spigot 0;
#X obj 366 329 r page_select;
#X obj 321 174 r aux;
#X obj 321 529 f 0;
#X obj 351 529 + 1;
#X obj 366 435 t f b;
#X msg 393 467 0;
#X obj 270 571 f;
#X obj 270 509 sel 0;
#X obj 321 722 s save;
#X text 110 657 if button isn't pressed long enough \, go to next page
, f 30;
#X obj 81 452 spigot 0;
#X obj 270 619 sel 1;
#N canvas 376 22 928 581 page_change 0;
#X text 239 82 Auxilary button input;
#X obj 445 425 send led;
#X text 510 426 Change auxilary's LED color (number from 1 to 7);
#X msg 445 321 1;
#X obj 445 289 loadbang;
#X msg 408 322 0;
#X text 330 31 Parameter page select using auxilary button;
#X obj 300 153 sel 0;
#X text 237 132 note off (0) change pages;
#X obj 300 109 inlet;
#X obj 300 420 outlet;
#X obj 331 234 + 1;
#X msg 314 204 0;
#X obj 315 345 + 1;
#X obj 314 181 inlet;
#X obj 300 234 f 1;
#X connect 3 0 1 0;
#X connect 4 0 5 0;
#X connect 4 0 3 0;
#X connect 5 0 10 0;
#X connect 7 0 15 0;
#X connect 9 0 7 0;
#X connect 11 0 15 1;
#X connect 12 0 15 0;
#X connect 13 0 1 0;
#X connect 14 0 12 0;
#X connect 15 0 11 0;
#X connect 15 0 13 0;
#X connect 15 0 10 0;
#X restore 81 513 pd page_change;
#X obj 81 545 s page_select;
#X obj 321 506 metro 50;
#X obj 321 577 sel 20;
#X obj 270 595 < 20;
#X obj 270 534 t b b;
#X obj 366 354 pipe 20;
#X obj 126 429 < 7;
#X obj 366 410 == 7;
#N canvas 0 22 935 725 led_flash 0;
#X obj 85 246 send led;
#X msg 86 93 1;
#X obj 86 133 metro 100;
#X obj 86 161 f 0;
#X obj 116 161 + 1;
#X obj 85 184 sel 0 1 2 3 4 5 6 7;
#X msg 172 94 0;
#X obj 86 58 inlet;
#X msg 85 209 7;
#X msg 114 209 0;
#X connect 1 0 2 0;
#X connect 2 0 3 0;
#X connect 3 0 4 0;
#X connect 3 0 5 0;
#X connect 4 0 3 1;
#X connect 5 0 8 0;
#X connect 5 1 9 0;
#X connect 5 2 8 0;
#X connect 5 3 9 0;
#X connect 5 4 8 0;
#X connect 5 5 9 0;
#X connect 5 6 8 0;
#X connect 5 7 9 0;
#X connect 5 7 6 0;
#X connect 5 8 8 0;
#X connect 6 0 3 1;
#X connect 6 0 2 0;
#X connect 7 0 1 0;
#X connect 8 0 0 0;
#X connect 9 0 0 0;
#X restore 352 602 pd led_flash;
#X obj 321 684 spigot 0;
#X obj 388 684 spigot 0;
#X obj 388 722 s load;
#X obj 394 656 < 5;
#X obj 433 656 >= 5;
#X obj 433 630 r save_load_select;
#X text 471 567 if button is pressed long enough \, save or load (depending
on knob position) and flash the LED, f 30;
#X connect 1 0 9 0;
#X connect 1 0 16 0;
#X connect 2 0 20 0;
#X connect 3 0 1 0;
#X connect 3 0 12 0;
#X connect 4 0 5 0;
#X connect 4 0 8 1;
#X connect 4 0 17 0;
#X connect 5 0 4 1;
#X connect 6 0 1 1;
#X connect 6 1 7 0;
#X connect 7 0 4 1;
#X connect 8 0 18 0;
#X connect 9 0 19 0;
#X connect 12 0 14 0;
#X connect 13 0 14 1;
#X connect 14 0 15 0;
#X connect 16 0 4 0;
#X connect 17 0 23 0;
#X connect 17 0 24 0;
#X connect 17 0 25 0;
#X connect 18 0 13 0;
#X connect 19 0 7 0;
#X connect 19 1 8 0;
#X connect 20 0 21 0;
#X connect 20 0 22 0;
#X connect 21 0 12 1;
#X connect 22 0 6 0;
#X connect 24 0 10 0;
#X connect 25 0 26 0;
#X connect 27 0 24 1;
#X connect 28 0 25 1;
#X connect 29 0 27 0;
#X connect 29 0 28 0;
#X restore 871 122 pd page_selection;
#X text 218 240 Page 7 : -----Presets----- \, 1:Save a preset/Load
a preset \, 2:Preset slot, f 86;
#X obj 804 822 r page_select;
#X msg 195 898 \; screenLine1 1: Transpose \; screenLine2 2: Portamento
\; screenLine3 3: Chorus \; screenLine4 4: Volume \; screenLine5 Aux:
Go to LFO \;;
#X msg 1286 900 \; screenLine1 1: VCF Kybd Trk \; screenLine2 2: HPF
Freq \; screenLine3 3: ----- \; screenLine4 4: VCA Env Mode \; screenLine5
Aux: Go to Envelope \;;
#X msg 374 898 \; screenLine1 1: LFO Rate \; screenLine2 2: LFO Delay
\; screenLine3 3: LFO Pitch \; screenLine4 4: LFO VCF \; screenLine5
Aux: Go to Osc page 1 \;;
#X msg 609 898 \; screenLine1 1: Square Osc \; screenLine2 2: Pulse
Width \; screenLine3 3: PWM \; screenLine4 4: ----- \; screenLine5
Aux: Go to Osc page 2 \;;
#X msg 846 899 \; screenLine1 1: Saw Osc \; screenLine2 2: Sub Osc
Vol \; screenLine3 3: Noise Vol \; screenLine4 4: ----- \; screenLine5
Aux: Go to Filter p1 \;;
#X msg 1058 899 \; screenLine1 1: VCF Freq \; screenLine2 2: VCF Res
\; screenLine3 3: VCF Env Mode \; screenLine4 4: VCF Env Depth \; screenLine5
Aux: Go to Filter p2 \;;
#X text 249 990 Page 0 (red);
#X text 426 991 Page 1 (yellow);
#X text 672 990 Page 2 (green);
#X text 910 991 Page 3 (light blue);
#X text 1349 993 Page 5 (pink);
#X text 1118 992 Page 4 (dark blue);
#X text 1561 993 Page 6 (white);
#X obj 804 847 sel 0 1 2 3 4 5 6 7;
#X text 151 475 Page 7;
#X obj 216 437 route 0 1 2 3 4 5 6 7;
#X obj 516 436 route 0 1 2 3 4 5 6 7;
#X obj 327 470 s p7_k1;
#X obj 627 468 s p7_k2;
#X text 1777 992 Page 7 (off);
#X msg 1498 900 \; screenLine1 1: Attack \; screenLine2 2: Decay \;
screenLine3 3: Sustain \; screenLine4 4: Release \; screenLine5 Aux:
Go to Presets \;;
#X msg 1714 899 \; screenLine1 ------Presets------ \; screenLine2 1:
Operation \; screenLine3 2: Preset number \; screenLine4 (Hold Aux
to save) \; screenLine5 Aux: Back to page 1 \;;
#X connect 0 0 69 0;
#X connect 1 0 2 0;
#X connect 2 0 88 0;
#X connect 3 0 4 0;
#X connect 4 0 89 0;
#X connect 5 0 68 0;
#X connect 6 0 7 0;
#X connect 7 0 16 0;
#X connect 8 0 9 0;
#X connect 9 0 17 0;
#X connect 10 0 67 0;
#X connect 11 0 28 0;
#X connect 12 0 1 1;
#X connect 13 0 3 1;
#X connect 14 0 6 1;
#X connect 15 0 8 1;
#X connect 16 0 52 0;
#X connect 16 1 53 0;
#X connect 16 2 58 0;
#X connect 16 3 59 0;
#X connect 16 4 60 0;
#X connect 16 6 61 0;
#X connect 17 0 62 0;
#X connect 17 1 63 0;
#X connect 17 4 64 0;
#X connect 17 5 65 0;
#X connect 17 6 66 0;
#X connect 28 0 8 0;
#X connect 67 0 6 0;
#X connect 68 0 3 0;
#X connect 69 0 1 0;
#X connect 72 0 86 0;
#X connect 86 0 73 0;
#X connect 86 1 75 0;
#X connect 86 2 76 0;
#X connect 86 3 77 0;
#X connect 86 4 78 0;
#X connect 86 5 74 0;
#X connect 86 6 93 0;
#X connect 86 7 94 0;
#X connect 88 0 30 0;
#X connect 88 1 31 0;
#X connect 88 2 32 0;
#X connect 88 3 33 0;
#X connect 88 4 34 0;
#X connect 88 5 29 0;
#X connect 88 6 35 0;
#X connect 88 7 90 0;
#X connect 89 0 45 0;
#X connect 89 1 46 0;
#X connect 89 2 47 0;
#X connect 89 3 48 0;
#X connect 89 4 49 0;
#X connect 89 5 50 0;
#X connect 89 6 51 0;
#X connect 89 7 91 0;
#X restore 1540 75 pd organelle_knobs_screen;
#X text 1460 264 Page 7 : -----Presets----- \, 1:Save a preset/Load
a preset \, 2:Preset slot, f 86;
#X obj 2059 633 hsl 128 15 0 1 0 0 empty empty Save_Load -2 -8 0 10
-262144 -1 -1 0 1;
#N canvas 272 130 922 621 save_or_load 0;
#X obj 58 21 inlet;
#X obj 58 467 spigot;
#X obj 192 91 r page_select;
#X obj 192 202 change;
#X msg 226 168 0;
#X obj 192 140 delay 10;
#X msg 192 168 1;
#X obj 192 227 t b f;
#X obj 58 270 f;
#X obj 58 241 t b f;
#X obj 58 496 s screenLine2;
#X msg 58 393 1: Operation: Save;
#X msg 183 393 1: Operation: Load;
#X obj 58 331 sel 1;
#X obj 183 330 sel 1;
#X obj 192 117 sel 7;
#X text 240 117 page 7;
#X obj 58 304 < 5;
#X obj 58 84 * 10;
#X obj 58 107 i;
#X obj 183 304 >= 5;
#X obj 68 135 s save_load_select;
#X obj 58 355 t b b;
#X obj 186 468 spigot;
#X obj 186 497 s screenLine4;
#X msg 85 420 (Hold Aux to save);
#X msg 210 421 (Hold Aux to load);
#X obj 183 357 t b b;
#X connect 0 0 18 0;
#X connect 1 0 10 0;
#X connect 2 0 15 0;
#X connect 3 0 7 0;
#X connect 4 0 3 0;
#X connect 5 0 6 0;
#X connect 6 0 3 0;
#X connect 7 0 8 0;
#X connect 7 1 1 1;
#X connect 7 1 23 1;
#X connect 8 0 17 0;
#X connect 8 0 20 0;
#X connect 9 0 8 0;
#X connect 9 1 8 1;
#X connect 11 0 1 0;
#X connect 12 0 1 0;
#X connect 13 0 22 0;
#X connect 14 0 27 0;
#X connect 15 0 5 0;
#X connect 15 1 4 0;
#X connect 17 0 13 0;
#X connect 18 0 19 0;
#X connect 19 0 9 0;
#X connect 19 0 21 0;
#X connect 20 0 14 0;
#X connect 22 0 11 0;
#X connect 22 1 25 0;
#X connect 23 0 24 0;
#X connect 25 0 23 0;
#X connect 26 0 23 0;
#X connect 27 0 12 0;
#X connect 27 1 26 0;
#X restore 2056 655 pd save_or_load;
#X obj 2058 739 hsl 128 15 0 1 0 0 empty empty Preset_selection -2
-8 0 10 -262144 -1 -1 0 1;
#X floatatom 2010 843 5 0 0 0 - - -, f 5;
#X text 2047 841 Preset selected;
#X obj 1940 692 bng 15 250 50 0 empty empty Save 17 7 0 10 -262144
-1 -1;
#X obj 1965 748 bng 15 250 50 0 empty empty Load 17 7 0 10 -262144
-1 -1;
#X obj 1882 785 r param;
#X obj 1915 1022 s p0_k1;
#X obj 1933 999 s p0_k2;
#X obj 1952 974 s p0_k3;
#X obj 1971 950 s p0_k4;
#X obj 1990 1022 s p1_k1;
#X obj 2008 999 s p1_k2;
#X obj 2027 974 s p1_k3;
#X obj 2046 950 s p1_k4;
#X obj 2065 1024 s p2_k1;
#X obj 2083 999 s p2_k2;
#X obj 2102 974 s p2_k3;
#X obj 2140 1023 s p3_k1;
#X obj 2158 1000 s p3_k2;
#X obj 2177 975 s p3_k3;
#X text 2467 895 Recall preset and send values to parameters, f 24
;
#X text 1766 777 receives indexed parameter value, f 16;
#X obj 1940 660 r save;
#X obj 1965 723 r load;
#X obj 1915 820 presets 28 32;
#X text 2008 818 28 parameters \, 32 preset files;
#N canvas 0 22 1143 755 preset_number 0;
#X obj 39 27 inlet;
#X obj 39 403 spigot;
#X obj 291 117 r page_select;
#X obj 291 228 change;
#X msg 325 194 0;
#X obj 291 166 delay 10;
#X msg 291 194 1;
#X obj 291 253 t b f;
#X obj 39 310 f;
#X obj 39 265 t b f;
#X obj 291 143 sel 7;
#X text 339 143 page 7;
#X obj 39 435 s screenLine3;
#X msg 39 355 2: Preset number: \$1;
#X connect 0 0 9 0;
#X connect 1 0 12 0;
#X connect 2 0 10 0;
#X connect 3 0 7 0;
#X connect 4 0 3 0;
#X connect 5 0 6 0;
#X connect 6 0 3 0;
#X connect 7 0 8 0;
#X connect 7 1 1 1;
#X connect 8 0 13 0;
#X connect 9 0 8 0;
#X connect 9 1 8 1;
#X connect 10 0 5 0;
#X connect 10 1 4 0;
#X connect 13 0 1 0;
#X restore 1990 867 pd preset_number;
#X obj 1915 905 route 1 2 3 4 5 6 7 8 9 10 11 12 13 14 15 16 17 18
19 20 21 22 23 24 25 26 27 28, f 88;
#X obj 2215 1023 s p4_k1;
#X obj 2233 1000 s p4_k2;
#X obj 2252 975 s p4_k3;
#X obj 2271 951 s p4_k4;
#X obj 2290 1023 s p5_k1;
#X obj 2308 1000 s p5_k2;
#X obj 2346 951 s p5_k4;
#X obj 2365 1025 s p6_k1;
#X obj 2383 1002 s p6_k2;
#X obj 2402 977 s p6_k3;
#X obj 2421 953 s p6_k4;
#X obj 726 276 s param;
#X msg 726 254 \$1 6;
#X text 783 278 comment;
#X obj 571 282 s param;
#X msg 571 254 \$1 5;
#X obj 303 239 s param;
#X msg 303 216 \$1 1;
#X obj 599 580 s param;
#X msg 599 556 \$1 2;
#X obj 1082 287 s param;
#X msg 1082 259 \$1 10;
#X obj 721 834 s param;
#X msg 721 806 \$1 18;
#X obj 1012 839 s param;
#X msg 1012 811 \$1 20;
#X obj 1297 834 s param;
#X msg 1297 806 \$1 21;
#X obj 929 1154 s param;
#X msg 929 1126 \$1 25;
#X obj 1119 1149 s param;
#X msg 1119 1121 \$1 26;
#X obj 1455 1144 s param;
#X msg 1455 1116 \$1 28;
#X obj 37 215 s clear_notes;
#X obj 37 136 bng 15 250 50 0 empty empty empty 17 7 0 10 -262144 -1
-1;
#X msg 52 160 clear;
#X obj 37 115 r quitting;
#X text 583 32 Juno-104 v0.93, f 28;
#X text 584 95 May 2016;
#X obj 23 337 s note_portamento;
#X obj 23 316 stripnote;
#X text 21 363 Send every note played for portamento, f 21;
#X obj 163 219 poly 4 1, f 10;
#X obj 163 851 chorus, f 7;
#X obj 223 477 104_voice_v2;
#X obj 203 499 104_voice_v2;
#X obj 183 522 104_voice_v2;
#X obj 163 545 104_voice_v2;
#X obj 370 407 lfo_tri;
#X connect 0 0 94 0;
#X connect 0 0 252 0;
#X connect 1 0 29 2;
#X connect 1 0 124 0;
#X connect 2 0 89 0;
#X connect 2 0 246 0;
#X connect 3 0 41 0;
#X connect 3 0 134 0;
#X connect 4 0 38 0;
#X connect 4 0 126 0;
#X connect 5 0 45 0;
#X connect 5 0 130 0;
#X connect 6 0 111 0;
#X connect 7 0 101 0;
#X connect 8 0 135 0;
#X connect 8 0 194 0;
#X connect 8 0 254 0;
#X connect 9 0 102 0;
#X connect 9 0 127 0;
#X connect 10 0 47 0;
#X connect 10 0 131 0;
#X connect 11 0 43 0;
#X connect 11 0 129 0;
#X connect 12 0 13 0;
#X connect 12 0 24 0;
#X connect 12 0 92 0;
#X connect 12 0 70 0;
#X connect 12 0 71 0;
#X connect 13 0 11 0;
#X connect 14 0 109 0;
#X connect 14 0 264 0;
#X connect 15 0 105 0;
#X connect 15 0 260 0;
#X connect 16 0 57 0;
#X connect 16 0 144 0;
#X connect 17 0 107 0;
#X connect 17 0 262 0;
#X connect 18 0 91 0;
#X connect 18 0 243 0;
#X connect 19 0 20 0;
#X connect 20 0 1 0;
#X connect 22 0 44 0;
#X connect 22 0 128 0;
#X connect 24 0 22 0;
#X connect 26 0 103 0;
#X connect 27 0 61 0;
#X connect 27 0 141 0;
#X connect 29 0 112 0;
#X connect 29 1 113 0;
#X connect 30 0 82 0;
#X connect 30 0 84 0;
#X connect 30 0 85 0;
#X connect 30 0 66 0;
#X connect 30 0 86 0;
#X connect 30 0 151 0;
#X connect 31 0 8 0;
#X connect 32 0 275 0;
#X connect 33 0 138 0;
#X connect 33 0 196 0;
#X connect 33 0 256 0;
#X connect 34 0 49 0;
#X connect 34 0 137 0;
#X connect 36 0 97 0;
#X connect 36 0 258 0;
#X connect 37 0 115 0;
#X connect 62 0 32 0;
#X connect 63 0 123 0;
#X connect 63 0 275 1;
#X connect 65 0 93 0;
#X connect 65 0 250 0;
#X connect 66 0 16 0;
#X connect 67 0 81 0;
#X connect 67 0 31 0;
#X connect 67 0 149 0;
#X connect 67 0 68 0;
#X connect 67 0 83 0;
#X connect 67 0 69 0;
#X connect 68 0 33 0;
#X connect 69 0 36 0;
#X connect 70 0 5 0;
#X connect 71 0 10 0;
#X connect 72 0 74 0;
#X connect 72 0 132 0;
#X connect 72 0 90 0;
#X connect 72 0 150 0;
#X connect 72 0 73 0;
#X connect 73 0 3 0;
#X connect 74 0 4 0;
#X connect 78 0 87 0;
#X connect 78 0 248 0;
#X connect 79 0 88 0;
#X connect 80 0 37 1;
#X connect 80 0 272 0;
#X connect 81 0 7 0;
#X connect 82 0 26 0;
#X connect 83 0 9 0;
#X connect 84 0 15 0;
#X connect 85 0 17 0;
#X connect 86 0 14 0;
#X connect 87 0 80 1;
#X connect 87 0 121 0;
#X connect 88 0 78 0;
#X connect 89 0 125 0;
#X connect 89 0 280 0;
#X connect 90 0 2 0;
#X connect 91 0 39 0;
#X connect 91 0 146 0;
#X connect 92 0 65 0;
#X connect 92 0 6 0;
#X connect 93 0 64 0;
#X connect 93 0 122 0;
#X connect 94 0 40 0;
#X connect 94 0 133 0;
#X connect 97 0 96 0;
#X connect 97 0 139 0;
#X connect 101 0 50 0;
#X connect 101 0 136 0;
#X connect 102 0 52 0;
#X connect 103 0 60 0;
#X connect 105 0 55 0;
#X connect 105 0 142 0;
#X connect 107 0 56 0;
#X connect 107 0 143 0;
#X connect 109 0 58 0;
#X connect 109 0 145 0;
#X connect 111 0 32 1;
#X connect 111 0 140 0;
#X connect 115 0 279 0;
#X connect 115 1 278 0;
#X connect 115 2 277 0;
#X connect 115 3 276 0;
#X connect 116 0 274 0;
#X connect 132 0 18 0;
#X connect 147 0 148 0;
#X connect 148 0 63 0;
#X connect 149 0 34 0;
#X connect 150 0 0 0;
#X connect 151 0 27 0;
#X connect 159 0 78 0;
#X connect 160 0 65 0;
#X connect 161 0 189 0;
#X connect 162 0 1 0;
#X connect 163 0 2 0;
#X connect 164 0 18 0;
#X connect 165 0 4 0;
#X connect 166 0 9 0;
#X connect 167 0 185 0;
#X connect 168 0 0 0;
#X connect 169 0 3 0;
#X connect 170 0 187 0;
#X connect 171 0 5 0;
#X connect 172 0 10 0;
#X connect 173 0 7 0;
#X connect 174 0 8 0;
#X connect 175 0 191 0;
#X connect 176 0 33 0;
#X connect 177 0 36 0;
#X connect 178 0 6 0;
#X connect 179 0 193 0;
#X connect 180 0 14 0;
#X connect 181 0 16 0;
#X connect 182 0 17 0;
#X connect 183 0 15 0;
#X connect 184 0 22 0;
#X connect 185 0 184 0;
#X connect 186 0 11 0;
#X connect 187 0 186 0;
#X connect 188 0 63 0;
#X connect 189 0 188 0;
#X connect 190 0 34 0;
#X connect 191 0 190 0;
#X connect 192 0 27 0;
#X connect 193 0 192 0;
#X connect 194 0 51 0;
#X connect 196 0 53 0;
#X connect 197 0 201 0;
#X connect 198 0 203 0;
#X connect 201 0 202 0;
#X connect 203 0 227 3;
#X connect 206 0 227 1;
#X connect 207 0 227 2;
#X connect 208 0 227 0;
#X connect 225 0 206 0;
#X connect 226 0 207 0;
#X connect 227 0 230 0;
#X connect 227 2 204 0;
#X connect 227 2 229 0;
#X connect 230 0 209 0;
#X connect 230 1 210 0;
#X connect 230 2 211 0;
#X connect 230 3 212 0;
#X connect 230 4 213 0;
#X connect 230 5 214 0;
#X connect 230 6 215 0;
#X connect 230 7 216 0;
#X connect 230 8 217 0;
#X connect 230 9 218 0;
#X connect 230 10 219 0;
#X connect 230 12 220 0;
#X connect 230 13 221 0;
#X connect 230 14 222 0;
#X connect 230 16 231 0;
#X connect 230 17 232 0;
#X connect 230 18 233 0;
#X connect 230 19 234 0;
#X connect 230 20 235 0;
#X connect 230 21 236 0;
#X connect 230 23 237 0;
#X connect 230 24 238 0;
#X connect 230 25 239 0;
#X connect 230 26 240 0;
#X connect 230 27 241 0;
#X connect 243 0 242 0;
#X connect 246 0 245 0;
#X connect 248 0 247 0;
#X connect 250 0 249 0;
#X connect 252 0 251 0;
#X connect 254 0 253 0;
#X connect 256 0 255 0;
#X connect 258 0 257 0;
#X connect 260 0 259 0;
#X connect 262 0 261 0;
#X connect 264 0 263 0;
#X connect 266 0 265 0;
#X connect 266 0 267 0;
#X connect 267 0 274 0;
#X connect 268 0 266 0;
#X connect 272 0 271 0;
#X connect 274 0 37 0;
#X connect 274 1 80 0;
#X connect 274 2 37 2;
#X connect 274 2 272 1;
#X connect 275 0 29 0;
#X connect 275 1 29 1;
#X connect 276 0 62 1;
#X connect 277 0 62 1;
#X connect 278 0 62 0;
#X connect 279 0 62 0;
#X connect 280 0 276 1;
#X connect 280 0 277 1;
#X connect 280 0 278 1;
#X connect 280 0 279 1;
