#N canvas 0 22 761 494 10;
#X obj 134 247 noise~;
#X obj 134 277 *~, f 11;
#X obj 197 246 line~;
#X obj 119 306 +~;
#X obj 119 338 outlet~;
#X msg 197 218 \$1 5;
#X obj 119 133 inlet~;
#X text 179 338 mix out;
#X text 173 133 Oscillator in;
#X text 302 193 Noise volume slider input;
#X obj 197 192 r 106noise_mix;
#X connect 0 0 1 0;
#X connect 1 0 3 1;
#X connect 2 0 1 1;
#X connect 3 0 4 0;
#X connect 5 0 2 0;
#X connect 6 0 3 0;
#X connect 10 0 5 0;
