#N canvas 0 22 1245 801 10;
#X obj 123 594 *~;
#X obj 248 536 *~;
#X msg 625 343 \$1 5;
#X obj 625 367 line~;
#X obj 123 91 inlet~;
#X obj 365 245 inlet~;
#X obj 123 635 outlet~;
#X text 412 25 VCA;
#X text 120 57 Audio input (signal), f 12;
#X text 362 213 Envelope input (signal), f 15;
#X text 182 636 Audio output (signal);
#X obj 515 260 sel 0 1;
#X obj 365 417 *~;
#X msg 451 320 \$1 5;
#X obj 248 473 +~;
#X obj 248 417 *~;
#X msg 515 321 \$1 5;
#X obj 248 293 inlet~;
#X text 246 261 gate input (signal), f 11;
#X text 514 44 Envelope or gate switch (toggle), f 19;
#X obj 525 212 loadbang;
#X msg 525 234 0;
#X msg 451 292 0;
#X msg 482 292 1;
#X msg 515 292 1;
#X msg 551 292 0;
#X obj 515 347 line~;
#X obj 451 344 line~;
#X obj 479 509 s gate_to_env;
#X text 581 502 Bang is sent to the envelope subpatch when switch goes
from gate to envelope mode and cut the tail of the envelope release
stage. Otherwise \, even though the gate could be off \, when switching
back to envelope mode you could hear the release stage.;
#X obj 515 149 r 106_VCA_env_type;
#X obj 625 316 r 106_VCA_level;
#X text 674 353 Smooth data;
#X text 623 289 Volume slider input (0. \, 0.4);
#X connect 0 0 6 0;
#X connect 1 0 0 1;
#X connect 2 0 3 0;
#X connect 3 0 1 1;
#X connect 4 0 0 0;
#X connect 5 0 12 0;
#X connect 11 0 22 0;
#X connect 11 0 24 0;
#X connect 11 0 28 0;
#X connect 11 1 23 0;
#X connect 11 1 25 0;
#X connect 12 0 14 1;
#X connect 13 0 27 0;
#X connect 14 0 1 0;
#X connect 15 0 14 0;
#X connect 16 0 26 0;
#X connect 17 0 15 0;
#X connect 20 0 21 0;
#X connect 21 0 11 0;
#X connect 22 0 13 0;
#X connect 23 0 13 0;
#X connect 24 0 16 0;
#X connect 25 0 16 0;
#X connect 26 0 12 1;
#X connect 27 0 15 1;
#X connect 30 0 11 0;
#X connect 31 0 2 0;
