#N canvas 0 22 1426 866 10;
#X obj 886 388 line~;
#X obj 1241 408 *~;
#X obj 1256 377 line~;
#X obj 601 610 +~;
#X msg 886 364 \$1 5;
#X msg 1256 349 \$1 5;
#X obj 123 623 inlet~;
#X obj 123 739 outlet~;
#X text 181 740 LPF Output (signal);
#X text 122 603 Audio input (signal);
#X text 1240 125 LFO input (signal);
#X text 500 51 Voltage Controled Filter (VCF);
#X obj 123 676 bob~, f 160;
#X text 878 695 4 pole resonant low pass filter;
#X obj 309 233 inlet~;
#X obj 601 570 +~;
#X text 307 212 Envelope in (signal);
#X obj 359 518 *~;
#X obj 374 493 line~;
#X msg 374 469 \$1 5;
#N canvas 364 92 1320 754 env_invert_switch 0;
#X obj 27 151 sel 0 1;
#X obj 425 426 line~;
#X msg 425 402 \$1 5;
#X obj 410 451 *~;
#X msg 27 186 0;
#X msg 58 186 1;
#X msg 118 186 0;
#X msg 88 186 1;
#X obj 395 536 +~;
#X obj 240 419 line~;
#X msg 240 395 \$1 5;
#X obj 225 444 *~;
#X obj 410 215 inlet~;
#X text 83 358 inverted envelope;
#X text 473 413 envelope;
#X obj 27 44 inlet;
#X obj 395 569 outlet~;
#X text 413 194 envelope input (signal);
#X text 452 571 envelope output (signal);
#X text 26 21 Switch input (toggle);
#X obj 40 99 loadbang;
#X msg 40 123 0;
#X text 131 96 Select which envelope to take (off = normal envelope
\, on = inverted envelope), f 41;
#X obj 225 347 *~ -1;
#X connect 0 0 4 0;
#X connect 0 0 5 0;
#X connect 0 1 7 0;
#X connect 0 1 6 0;
#X connect 1 0 3 1;
#X connect 2 0 1 0;
#X connect 3 0 8 1;
#X connect 4 0 10 0;
#X connect 5 0 2 0;
#X connect 6 0 2 0;
#X connect 7 0 10 0;
#X connect 8 0 16 0;
#X connect 9 0 11 1;
#X connect 10 0 9 0;
#X connect 11 0 8 0;
#X connect 12 0 3 0;
#X connect 12 0 23 0;
#X connect 15 0 0 0;
#X connect 20 0 21 0;
#X connect 21 0 0 0;
#X connect 23 0 11 0;
#X restore 192 260 pd env_invert_switch;
#X text 191 128 Switch input (toggle) (off = normal envelope \, on
= inverted envelope), f 24;
#X text 934 378 Smooth, f 11;
#X obj 616 166 inlet;
#X obj 616 218 mtof~;
#X obj 616 193 sig~;
#X obj 616 523 +~;
#X obj 616 471 *~;
#X obj 631 436 line~;
#X msg 631 412 \$1 5;
#X text 615 142 Midi note in (0 127);
#X obj 1080 650 line~;
#X msg 1080 626 \$1 5;
#X text 1128 640 Smooth, f 11;
#X text 373 348 env depth slider input (0 \, 1), f 17;
#X obj 192 176 r 106_VCF_env_mode;
#X obj 374 386 r 106_VCF_env_depth;
#X obj 631 383 r 106_VCF_kybd;
#X obj 886 333 r 106_VCF_freq;
#X obj 1080 599 r 106_VCF_Res;
#X text 1079 577 VCF Res slider input (0. \, 1.);
#X obj 1256 319 r 106_VCF_LFO;
#X obj 1241 144 inlet~;
#X text 637 332 Keyboard track slider input (0. \, 1.5), f 14;
#X text 885 294 VCF Frequency slider input (0. \, 5625.), f 20;
#X text 1256 299 LFO Depth slider input (0 \, 10000);
#X obj 601 643 clip~ 0.2 20000;
#X connect 0 0 26 1;
#X connect 1 0 3 1;
#X connect 2 0 1 1;
#X connect 3 0 46 0;
#X connect 4 0 0 0;
#X connect 5 0 2 0;
#X connect 6 0 12 0;
#X connect 12 0 7 0;
#X connect 14 0 20 1;
#X connect 15 0 3 0;
#X connect 17 0 15 0;
#X connect 18 0 17 1;
#X connect 19 0 18 0;
#X connect 20 0 17 0;
#X connect 23 0 25 0;
#X connect 24 0 27 0;
#X connect 25 0 24 0;
#X connect 26 0 15 1;
#X connect 27 0 26 0;
#X connect 28 0 27 1;
#X connect 29 0 28 0;
#X connect 31 0 12 2;
#X connect 32 0 31 0;
#X connect 35 0 20 0;
#X connect 36 0 19 0;
#X connect 37 0 29 0;
#X connect 38 0 4 0;
#X connect 39 0 32 0;
#X connect 41 0 5 0;
#X connect 42 0 1 0;
#X connect 46 0 12 1;
