#N canvas 0 55 1920 1005 10;
#X obj 108 152 bng 15 250 50 0 empty empty empty 17 7 0 10 -262144
-1 -1;
#X obj 195 214 tgl 15 0 empty empty empty 17 7 0 10 -262144 -1 -1 0
1;
#X floatatom 241 207 5 0 0 0 - - -;
#N canvas 725 337 470 441 tr808-clap 0;
#X obj 79 265 inlet;
#X obj 70 121 noise~;
#X obj 210 257 inlet;
#X obj 79 385 outlet~;
#X obj 98 222 lop~;
#X floatatom 122 150 5 0 0 0 - - -;
#X obj 98 187 hip~;
#X obj 85 353 *~;
#X floatatom 184 128 5 0 0 0 - - -;
#X obj 184 148 t b f;
#X obj 161 184 + 500;
#N canvas 0 23 811 499 multi_env 0;
#X obj 127 101 inlet;
#X floatatom 427 320 5 0 0 1 Decay - -;
#N canvas 0 23 450 300 env2 0;
#X obj 37 37 inlet;
#X obj 38 155 line~;
#X obj 29 204 *~;
#X msg 37 105 0;
#X obj 37 126 pack 0 200;
#X obj 37 84 del 2;
#X obj 37 63 t b b, f 14;
#X obj 29 225 outlet~;
#X obj 187 61 inlet;
#X msg 121 127 1 0;
#X connect 0 0 6 0;
#X connect 1 0 2 0;
#X connect 1 0 2 1;
#X connect 2 0 7 0;
#X connect 3 0 4 0;
#X connect 4 0 1 0;
#X connect 5 0 3 0;
#X connect 6 0 5 0;
#X connect 6 1 9 0;
#X connect 8 0 4 1;
#X connect 9 0 1 0;
#X restore 123 355 pd env2;
#N canvas 0 23 450 300 env2 0;
#X obj 37 37 inlet;
#X obj 38 155 line~;
#X obj 29 204 *~;
#X msg 37 105 0;
#X obj 37 126 pack 0 200;
#X obj 37 84 del 2;
#X obj 37 63 t b b, f 14;
#X obj 29 225 outlet~;
#X obj 187 61 inlet;
#X msg 120 128 1 0;
#X connect 0 0 6 0;
#X connect 1 0 2 0;
#X connect 1 0 2 1;
#X connect 2 0 7 0;
#X connect 3 0 4 0;
#X connect 4 0 1 0;
#X connect 5 0 3 0;
#X connect 6 0 5 0;
#X connect 6 1 9 0;
#X connect 8 0 4 1;
#X connect 9 0 1 0;
#X restore 179 354 pd env2;
#N canvas 0 23 450 300 env2 0;
#X obj 37 37 inlet;
#X obj 38 155 line~;
#X obj 29 204 *~;
#X msg 37 105 0;
#X obj 37 126 pack 0 200;
#X obj 37 84 del 2;
#X obj 37 63 t b b, f 14;
#X obj 29 225 outlet~;
#X obj 187 61 inlet;
#X msg 120 128 1 0;
#X connect 0 0 6 0;
#X connect 1 0 2 0;
#X connect 1 0 2 1;
#X connect 2 0 7 0;
#X connect 3 0 4 0;
#X connect 4 0 1 0;
#X connect 5 0 3 0;
#X connect 6 0 5 0;
#X connect 6 1 9 0;
#X connect 8 0 4 1;
#X connect 9 0 1 0;
#X restore 235 355 pd env2;
#N canvas 0 23 450 300 env2 0;
#X obj 37 37 inlet;
#X obj 38 155 line~;
#X obj 29 204 *~;
#X msg 37 105 0;
#X obj 37 126 pack 0 200;
#X obj 37 84 del 2;
#X obj 37 63 t b b, f 14;
#X obj 29 225 outlet~;
#X obj 187 61 inlet;
#X msg 120 128 1 0;
#X connect 0 0 6 0;
#X connect 1 0 2 0;
#X connect 1 0 2 1;
#X connect 2 0 7 0;
#X connect 3 0 4 0;
#X connect 4 0 1 0;
#X connect 5 0 3 0;
#X connect 6 0 5 0;
#X connect 6 1 9 0;
#X connect 8 0 4 1;
#X connect 9 0 1 0;
#X restore 309 353 pd env2;
#X obj 182 220 del 40;
#X obj 238 277 del 40;
#X obj 308 320 del 40;
#X obj 120 417 *~ 0.25;
#X obj 125 377 *~;
#X obj 177 375 *~;
#X obj 430 349 * 5;
#X obj 524 323 t b f;
#X obj 235 378 *~;
#X obj 308 381 *~;
#X obj 372 78 * 5;
#X obj 120 438 outlet~;
#X obj 372 52 inlet;
#X obj 523 287 inlet;
#X text 378 30 delay;
#X text 562 304 decay;
#X text 428 370 final delay is stretched out by a factor of [decay]
;
#X connect 0 0 6 0;
#X connect 0 0 2 0;
#X connect 1 0 2 1;
#X connect 1 0 3 1;
#X connect 1 0 4 1;
#X connect 1 0 12 0;
#X connect 2 0 10 0;
#X connect 2 0 10 1;
#X connect 3 0 11 0;
#X connect 3 0 11 1;
#X connect 4 0 14 0;
#X connect 4 0 14 1;
#X connect 5 0 15 0;
#X connect 5 0 15 1;
#X connect 6 0 7 0;
#X connect 6 0 3 0;
#X connect 7 0 8 0;
#X connect 7 0 4 0;
#X connect 8 0 5 0;
#X connect 9 0 17 0;
#X connect 10 0 9 0;
#X connect 11 0 9 0;
#X connect 12 0 5 1;
#X connect 13 0 12 0;
#X connect 13 1 12 1;
#X connect 14 0 9 0;
#X connect 15 0 9 0;
#X connect 16 0 1 0;
#X connect 18 0 16 0;
#X connect 18 0 6 1;
#X connect 18 0 7 1;
#X connect 18 0 8 1;
#X connect 19 0 13 0;
#X restore 78 293 pd multi_env;
#X obj 259 259 inlet;
#X obj 120 80 inlet;
#X obj 169 104 inlet;
#X text 299 262 decay;
#X text 206 237 delay;
#X text 180 89 width;
#X text 119 57 cutoff;
#X text 43 262 trig;
#X connect 0 0 11 0;
#X connect 1 0 6 0;
#X connect 2 0 11 1;
#X connect 4 0 7 1;
#X connect 5 0 6 1;
#X connect 5 0 10 0;
#X connect 6 0 4 0;
#X connect 7 0 3 0;
#X connect 8 0 9 0;
#X connect 9 0 10 0;
#X connect 9 1 10 1;
#X connect 10 0 4 1;
#X connect 11 0 7 0;
#X connect 12 0 11 2;
#X connect 13 0 5 0;
#X connect 14 0 8 0;
#X restore 110 174 pd tr808-clap;
#X f 62;
#X obj 128 60 hsl 128 15 50 5000 1 0 empty tr808cp_cutoff empty -2
-8 0 10 -262144 -1 -1 12750 1;
#X obj 287 57 hsl 128 15 50 5000 1 0 empty tr808cp_width empty -2 -8
0 10 -262144 -1 -1 12700 1;
#X obj 588 51 hsl 128 15 1 50 1 0 empty tr808cp_decay empty -2 -8 0
10 -262144 -1 -1 12750 1;
#X obj 439 56 hsl 128 15 2 40 1 0 empty tr808cp_delay empty -2 -8 0
10 -262144 -1 -1 12750 1;
#X floatatom 124 80 5 0 0 1 cutoff - -;
#X floatatom 286 77 5 0 0 1 width - -;
#X floatatom 436 76 5 0 0 1 delay - -;
#X floatatom 585 71 5 0 0 1 decay - -;
#X msg 306 199 \; tr808cp_cutoff 750 \; tr808cp_width 1000 \; tr808cp_delay
11 \; tr808cp_decay 3.5 \;;
#X msg 304 262 \; tr808cp_cutoff 800 \; tr808cp_width 1500 \; tr808cp_delay
8 \; tr808cp_decay 3.5 \;;
#X msg 438 263 \; tr808cp_cutoff 1600 \; tr808cp_width 600 \; tr808cp_delay
18 \; tr808cp_decay 5.5 \;;
#X msg 439 198 \; tr808cp_cutoff 1250 \; tr808cp_width 500 \; tr808cp_delay
14 \; tr808cp_decay 4.5 \;;
#X obj 108 129 r clap;
#X obj 194 295 s clap;
#X obj 111 234 dac~;
#X obj 195 235 metro 150;
#X obj 195 256 random 2;
#X obj 196 276 sel 1;
#X obj 111 214 *~ 1;
#X obj 528 176 loadbang;
#X obj 109 5 inlet;
#X obj 295 6 inlet;
#X obj 293 25 * 5000;
#X obj 108 34 * 5000;
#X obj 436 11 inlet;
#X obj 434 30 * 40;
#X obj 583 5 inlet;
#X obj 581 26 * 50;
#X connect 0 0 3 0;
#X connect 1 0 19 0;
#X connect 2 0 19 1;
#X connect 3 0 22 0;
#X connect 4 0 8 0;
#X connect 5 0 9 0;
#X connect 6 0 11 0;
#X connect 7 0 10 0;
#X connect 8 0 3 1;
#X connect 9 0 3 2;
#X connect 10 0 3 3;
#X connect 11 0 3 4;
#X connect 16 0 0 0;
#X connect 19 0 20 0;
#X connect 20 0 21 0;
#X connect 21 0 17 0;
#X connect 22 0 18 0;
#X connect 22 0 18 1;
#X connect 23 0 15 0;
#X connect 24 0 27 0;
#X connect 25 0 26 0;
#X connect 26 0 9 0;
#X connect 27 0 8 0;
#X connect 28 0 29 0;
#X connect 29 0 10 0;
#X connect 30 0 31 0;
