#N canvas 0 55 1920 1005 10;
#X obj 211 236 clap_808;
#X text 310 21 bass \, snare \, top \, conga \, rimshot \, clavves
\, handclap \, maraca \, cowbell \, cymbal \, highhat open/closed,
f 159;
#X obj 223 313 snare_808;
#X obj 191 169 kick_808;
#X obj 202 382 cymbal_808;
#X msg 300 151 \; kick_decay 250 \; kick_pitch 1 \; kick_filter 1.5
\; kick_sine 1 \;;
#X msg 447 149 \; kick_decay 150 \; kick_pitch 0.5 \; kick_filter 1.5
\; kick_sine 1 \;;
#X msg 562 150 \; kick_decay 450 \; kick_pitch 0.25 \; kick_filter
0.5 \; kick_sine 1 \;;
#X obj 34 161 s kick;
#X msg 680 144 \; kick_decay 1500 \; kick_pitch 0.5 \; kick_filter
0.5 \; kick_sine 0.5 \;;
#X msg 798 143 \; kick_decay 50 \; kick_pitch 2.25 \; kick_filter 1.5
\; kick_sine 0.8 \;;
#X obj 130 25 tgl 15 0 empty empty empty 17 7 0 10 -262144 -1 -1 0
1;
#X floatatom 176 18 5 0 0 0 - - -;
#X msg 300 241 \; tr808cp_cutoff 750 \; tr808cp_width 1000 \; tr808cp_delay
11 \; tr808cp_decay 3.5 \;;
#X msg 730 245 \; tr808cp_cutoff 800 \; tr808cp_width 1500 \; tr808cp_delay
8 \; tr808cp_decay 3.5 \;;
#X msg 440 241 \; tr808cp_cutoff 1600 \; tr808cp_width 600 \; tr808cp_delay
18 \; tr808cp_decay 5.5 \;;
#X msg 584 240 \; tr808cp_cutoff 1250 \; tr808cp_width 500 \; tr808cp_delay
14 \; tr808cp_decay 4.5 \;;
#X obj 32 228 s clap;
#X obj 130 46 metro 150;
#X obj 130 67 random 2;
#X obj 131 87 sel 1;
#X msg 303 328 \; tr808sn_decay 200 \; tr808sn_noise 300 \;;
#X msg 444 324 \; tr808sn_decay 500 \; tr808sn_noise 5000 \;;
#X msg 741 334 \; tr808sn_decay 800 \; tr808sn_noise 3000 \;;
#X msg 597 332 \; tr808sn_decay 300 \; tr808sn_noise 6000 \;;
#X obj 33 310 s snare;
#X msg 309 393 \; hh_decay 250 \; hh_pitch 250 \;;
#X msg 441 383 \; hh_decay 70 \; hh_pitch 500 \;;
#X msg 604 392 \; hh_decay 170 \; hh_pitch 200 \;;
#X msg 743 391 \; hh_decay 750 \; hh_pitch 450 \;;
#X obj 49 492 loadbang;
#X text 47 470 screen lines;
#X msg 50 515 \; screenLine1 1: Tone \; screenLine2 2: Modulation \;
screenLine3 3: Decay \; screenLine4 4: Transpose \; screenLine5 Aux:
Sequencer \;;
#X obj 367 707 i;
#X obj 368 685 + 5;
#X obj 368 663 * 2000;
#X obj 618 752 change -1;
#X obj 367 730 change -1;
#X obj 32 729 change -1;
#X obj 66 624 r knob1;
#X obj 32 779 s screenLine1;
#X obj 31 702 i;
#X obj 91 683 s tone;
#X obj 196 630 r knob2;
#X obj 224 695 * 100;
#X obj 224 720 i;
#X obj 224 755 change -1;
#X obj 224 813 s screenLine2;
#X obj 162 721 s mod;
#X msg 224 785 2: Modulation \$1 %;
#X obj 39 656 * 100;
#X msg 32 755 1: Tone \$1 %;
#X obj 160 678 * 4;
#X obj 455 719 s decay;
#X obj 370 631 r knob3;
#X msg 366 756 3: Decay Time \$1 ms;
#X obj 367 783 s screenLine3;
#X obj 662 638 r knob4;
#X obj 661 693 i;
#X obj 717 755 s transpose;
#X msg 618 779 4: Transpose \$1;
#X obj 618 805 s screenLine4;
#X text 315 593 parameters;
#X obj 661 671 * 24;
#X obj 661 715 - 12;
#X obj 248 519 throw~ outL;
#X obj 353 519 throw~ outR;
#X obj 33 31 sequencer2;
#X obj 354 495 r~ r_sound_out;
#X obj 236 491 r~ l_sound_out;
#X connect 11 0 18 0;
#X connect 12 0 18 1;
#X connect 18 0 19 0;
#X connect 19 0 20 0;
#X connect 30 0 32 0;
#X connect 33 0 37 0;
#X connect 34 0 33 0;
#X connect 34 0 53 0;
#X connect 35 0 34 0;
#X connect 36 0 60 0;
#X connect 37 0 55 0;
#X connect 38 0 51 0;
#X connect 39 0 50 0;
#X connect 39 0 42 0;
#X connect 41 0 38 0;
#X connect 43 0 44 0;
#X connect 43 0 52 0;
#X connect 44 0 45 0;
#X connect 45 0 46 0;
#X connect 46 0 49 0;
#X connect 49 0 47 0;
#X connect 50 0 41 0;
#X connect 51 0 40 0;
#X connect 52 0 48 0;
#X connect 54 0 35 0;
#X connect 55 0 56 0;
#X connect 57 0 63 0;
#X connect 58 0 64 0;
#X connect 60 0 61 0;
#X connect 63 0 58 0;
#X connect 64 0 59 0;
#X connect 64 0 36 0;
#X connect 68 0 66 0;
#X connect 69 0 65 0;
