#N canvas 13 68 1895 980 10;
#X obj 125 -289 clap_808;
#X text 1 -73 bass \, snare \, top \, conga \, rimshot \, clavves \,
handclap \, maraca \, cowbell \, cymbal \, highhat open/closed, f
159;
#X obj 193 -290 snare_808;
#X obj 64 -287 kick_808;
#X obj 267 -289 cymbal_808;
#X obj 199 -723 s kick;
#X obj 215 -697 s clap;
#X obj 231 -676 s snare;
#X obj 508 671 sel 1;
#X obj 377 631 r aux;
#X floatatom 380 666 5 0 0 0 - - -;
#X obj 380 688 sel 1;
#X obj 377 751 v state;
#X obj 377 722 bng 15 250 50 0 empty empty empty 17 7 0 10 -262144
-1 -1;
#X obj 376 776 sel 0 1 2 3;
#X obj 547 645 t f f;
#X obj 532 716 bng 15 250 50 0 empty empty empty 17 7 0 10 -262144
-1 -1;
#X obj 510 693 del 500;
#X obj 184 -419 s led;
#X msg 184 -461 0;
#X obj 79 -419 s led;
#X obj 512 -434 s led;
#X obj 257 -422 s led;
#X msg 257 -454 6;
#X msg 79 -461 3;
#X msg 512 -464 1;
#X text 262 -514 Controls LED & Screen Infomation:;
#X text 367 610 Controls State With Aux Button;
#X obj 33 -811 s aux;
#X obj 489 721 bng 15 250 50 0 empty empty empty 17 7 0 10 -262144
-1 -1;
#X obj 331 664 bng 15 250 50 0 empty empty empty 17 7 0 10 -262144
-1 -1;
#X msg 33 -839 1;
#X floatatom 290 692 5 0 0 0 - - -;
#X obj 265 690 +;
#X msg 263 639 1;
#X obj 198 741 sel 4;
#X obj 163 715 bng 15 250 50 0 empty empty empty 17 7 0 10 -262144
-1 -1;
#X floatatom 232 724 5 0 0 0 - - -;
#X obj 212 695 float 0;
#X text 272 663 Counter;
#X text 128 739 reset at 4;
#X obj 37 -876 bng 15 250 50 0 empty empty empty 17 7 0 10 -262144
-1 -1;
#X text 182 -861 Change the drum program;
#X obj 293 719 v state;
#X obj 183 -806 v state;
#X obj 60 706 s aux;
#X msg 60 678 1;
#X obj 64 641 bng 15 250 50 0 empty empty empty 17 7 0 10 -262144 -1
-1;
#X text 104 656 Change the drum program;
#X obj 285 762 bng 15 250 50 0 empty empty empty 17 7 0 10 -262144
-1 -1;
#X obj 248 -842 r aux;
#X obj 218 -828 bng 15 250 50 0 empty empty empty 17 7 0 10 -262144
-1 -1;
#X obj 380 811 bng 15 250 50 0 empty empty empty 17 7 0 10 -262144
-1 -1;
#X msg 300 747;
#X msg 246 791;
#X floatatom 246 811 5 0 0 0 - - -;
#X floatatom 242 766 5 0 0 0 - - -;
#X floatatom 162 -775 5 0 0 0 - - -;
#X obj 290 -824 r notes;
#X obj 399 -841 s notes;
#X msg 396 -873 0.1;
#X msg 471 -837 0.9;
#X msg 441 -870 0.5;
#X msg 79 734 0;
#X obj 40 -764 tgl 15 0 empty empty empty 17 7 0 10 -262144 -1 -1 0
1;
#X floatatom 86 -771 5 0 0 0 - - -;
#X obj 40 -743 metro 150;
#X obj 40 -722 random 2;
#X obj 41 -702 sel 1;
#X obj 39 -648 s notes;
#X obj 280 -776 pack 0 0;
#X obj 264 -805 t b f;
#X obj 199 -754 route 0 1 2 3;
#X obj 255 -722 s cymbal;
#X obj 231 614 loadbang;
#X obj 93 64 v state;
#X obj 158 28 r aux;
#X obj 128 42 bng 15 250 50 0 empty empty empty 17 7 0 10 -262144 -1
-1;
#X floatatom 72 95 5 0 0 0 - - -;
#X obj 108 94 pack 0 0;
#X obj 154 72 t b f;
#X obj 109 116 route 0 1 2 3;
#X obj 16 6 r knob1;
#X text 402 -891 Note Test;
#X obj 353 54 v state;
#X obj 418 18 r aux;
#X obj 388 32 bng 15 250 50 0 empty empty empty 17 7 0 10 -262144 -1
-1;
#X floatatom 332 85 5 0 0 0 - - -;
#X obj 368 84 pack 0 0;
#X obj 414 62 t b f;
#X obj 260 13 r knob2;
#X obj 583 54 v state;
#X obj 648 18 r aux;
#X obj 618 32 bng 15 250 50 0 empty empty empty 17 7 0 10 -262144 -1
-1;
#X floatatom 562 85 5 0 0 0 - - -;
#X obj 598 84 pack 0 0;
#X obj 644 62 t b f;
#X obj 599 106 route 0 1 2 3;
#X obj 525 20 r knob3;
#X obj 368 109 route 0 1 2 3;
#X obj 783 54 v state;
#X obj 848 18 r aux;
#X obj 818 32 bng 15 250 50 0 empty empty empty 17 7 0 10 -262144 -1
-1;
#X floatatom 762 85 5 0 0 0 - - -;
#X obj 798 84 pack 0 0;
#X obj 844 62 t b f;
#X obj 799 106 route 0 1 2 3;
#X obj 725 20 r knob4;
#X text 10 -902 Change the drum program;
#X obj 300 156 s clap_knob2;
#X obj 65 173 s clap_knob1;
#X obj 616 140 s clap_knob3;
#X obj 816 140 s clap_knob4;
#X obj 14 147 s kick_knob1;
#X obj 141 194 s snare_knob1;
#X obj 165 148 s cymbal_knob1;
#X obj 411 196 s cymbal_knob2;
#X obj 354 176 s snare_knob2;
#X obj 532 134 s kick_knob3;
#X obj 274 137 s kick_knob2;
#X obj 732 134 s kick_knob4;
#X obj 271 -608 s screenLine5;
#X msg 135 -648 Aux: Kick;
#X msg 206 -648 Aux: Clap;
#X msg 276 -648 Aux: Snare;
#X msg 346 -648 Aux: Cymbal;
#X obj 52 362 s screenLine1;
#X obj 244 396 s screenLine2;
#X obj 497 366 s screenLine3;
#X obj 638 388 s screenLine4;
#X msg 244 368 Knob2: \$1;
#X msg 496 339 Knob3: \$1;
#X msg 638 362 Knob4: \$1;
#X obj 100 -547 del 500;
#X obj 106 -581 bng 15 250 50 0 empty empty empty 17 7 0 10 -262144
-1 -1;
#X msg 52 338 Knob1: \$1;
#X connect 8 0 17 0;
#X connect 9 0 10 0;
#X connect 9 0 15 0;
#X connect 9 0 30 0;
#X connect 10 0 11 0;
#X connect 11 0 13 0;
#X connect 12 0 14 0;
#X connect 13 0 12 0;
#X connect 14 0 52 0;
#X connect 15 0 8 0;
#X connect 17 0 16 0;
#X connect 17 0 29 0;
#X connect 19 0 18 0;
#X connect 23 0 22 0;
#X connect 24 0 20 0;
#X connect 25 0 21 0;
#X connect 30 0 38 0;
#X connect 31 0 28 0;
#X connect 32 0 33 1;
#X connect 33 0 38 1;
#X connect 34 0 32 0;
#X connect 35 0 36 0;
#X connect 36 0 63 0;
#X connect 38 0 33 0;
#X connect 38 0 35 0;
#X connect 38 0 37 0;
#X connect 38 0 43 0;
#X connect 41 0 31 0;
#X connect 43 0 49 0;
#X connect 43 0 53 0;
#X connect 43 0 56 0;
#X connect 44 0 57 0;
#X connect 44 0 70 0;
#X connect 46 0 45 0;
#X connect 47 0 46 0;
#X connect 50 0 51 0;
#X connect 51 0 44 0;
#X connect 54 0 55 0;
#X connect 57 0 19 0;
#X connect 58 0 71 0;
#X connect 60 0 59 0;
#X connect 61 0 59 0;
#X connect 62 0 59 0;
#X connect 63 0 38 0;
#X connect 63 0 38 1;
#X connect 64 0 66 0;
#X connect 65 0 66 1;
#X connect 66 0 67 0;
#X connect 67 0 68 0;
#X connect 68 0 69 0;
#X connect 70 0 72 0;
#X connect 71 0 70 0;
#X connect 71 1 70 1;
#X connect 72 0 5 0;
#X connect 72 0 122 0;
#X connect 72 1 6 0;
#X connect 72 1 123 0;
#X connect 72 2 7 0;
#X connect 72 3 73 0;
#X connect 72 3 124 0;
#X connect 72 4 125 0;
#X connect 74 0 34 0;
#X connect 75 0 78 0;
#X connect 75 0 79 0;
#X connect 76 0 77 0;
#X connect 77 0 75 0;
#X connect 79 0 81 0;
#X connect 80 0 79 0;
#X connect 80 1 79 1;
#X connect 81 0 113 0;
#X connect 81 1 110 0;
#X connect 81 2 114 0;
#X connect 81 3 115 0;
#X connect 82 0 80 0;
#X connect 82 0 135 0;
#X connect 84 0 87 0;
#X connect 84 0 88 0;
#X connect 85 0 86 0;
#X connect 86 0 84 0;
#X connect 88 0 99 0;
#X connect 89 0 88 0;
#X connect 89 1 88 1;
#X connect 90 0 89 0;
#X connect 90 0 130 0;
#X connect 91 0 94 0;
#X connect 91 0 95 0;
#X connect 92 0 93 0;
#X connect 93 0 91 0;
#X connect 95 0 97 0;
#X connect 96 0 95 0;
#X connect 96 1 95 1;
#X connect 97 0 118 0;
#X connect 97 1 111 0;
#X connect 98 0 96 0;
#X connect 98 0 131 0;
#X connect 99 0 119 0;
#X connect 99 1 109 0;
#X connect 99 2 117 0;
#X connect 99 3 116 0;
#X connect 100 0 103 0;
#X connect 100 0 104 0;
#X connect 101 0 102 0;
#X connect 102 0 100 0;
#X connect 104 0 106 0;
#X connect 105 0 104 0;
#X connect 105 1 104 1;
#X connect 106 0 120 0;
#X connect 106 1 112 0;
#X connect 107 0 105 0;
#X connect 107 0 132 0;
#X connect 122 0 121 0;
#X connect 122 0 134 0;
#X connect 123 0 121 0;
#X connect 123 0 134 0;
#X connect 124 0 121 0;
#X connect 124 0 134 0;
#X connect 125 0 121 0;
#X connect 125 0 134 0;
#X connect 130 0 127 0;
#X connect 131 0 128 0;
#X connect 132 0 129 0;
#X connect 133 0 24 0;
#X connect 134 0 133 0;
#X connect 135 0 126 0;
