#N canvas 480 55 960 1005 10;
#X obj 597 95 inlet;
#X obj 677 113 inlet;
#X obj 744 116 inlet;
#X obj 740 154 * 40;
#X obj 821 116 inlet;
#X obj 817 158 * 50;
#X obj 595 153 * 2000;
#X obj 591 621 outlet~;
#X obj 54 6 bng 15 250 50 0 empty empty empty 17 7 0 10 -262144 -1
-1;
#X obj 353 316 r snare;
#X obj 353 342 bng 15 250 50 0 empty empty empty 17 7 0 10 -262144
-1 -1;
#X obj 521 596 *~ 0.25;
#X obj 521 617 dac~;
#X obj 535 447 bng 15 250 50 0 empty empty empty 17 7 0 10 -262144
-1 -1;
#N canvas 0 23 746 614 tr808-snare 0;
#X obj 247 36 inlet;
#X obj 174 410 vcf~ 3;
#X obj 205 109 noise~;
#X obj 196 164 *~;
#X floatatom 296 38 5 0 0 1 Decay - -;
#X obj 175 442 hip~ 50;
#X obj 318 271 +~ 100;
#X obj 317 244 *~ 8000;
#X obj 244 410 vcf~ 5;
#X obj 369 244 *~ 5000;
#X obj 373 272 +~ 200;
#X obj 296 15 inlet;
#X obj 175 463 outlet~;
#X obj 483 199 inlet;
#X obj 483 220 * 0.6;
#N canvas 381 209 450 300 vol_env 0;
#X obj 37 37 inlet;
#X obj 29 204 *~;
#X obj 29 225 outlet~;
#X obj 38 155 vline~;
#X msg 37 58 1 0.5 \, 0 \$1 0.5;
#X connect 0 0 4 0;
#X connect 1 0 2 0;
#X connect 3 0 1 0;
#X connect 3 0 1 1;
#X connect 4 0 3 0;
#X restore 132 82 pd vol_env;
#X obj 247 57 f 250;
#N canvas 381 209 450 300 cutoff_env 0;
#X obj 37 37 inlet;
#X obj 29 204 *~;
#X obj 29 225 outlet~;
#X obj 38 155 vline~;
#X msg 37 58 1 0.5 \, 0 \$1 0.5;
#X connect 0 0 4 0;
#X connect 1 0 2 0;
#X connect 3 0 1 0;
#X connect 3 0 1 1;
#X connect 4 0 3 0;
#X restore 400 172 pd cutoff_env;
#X obj 398 137 * 2;
#X text 520 204 Noise;
#N canvas 0 23 450 300 FM_osc 0;
#X obj 63 166 osc~ 150;
#X obj 68 135 +~;
#X obj 60 92 sig~ 150;
#X obj 134 70 osc~ 50;
#X obj 134 91 *~ 30;
#X obj 64 199 *~;
#X obj 220 143 *~;
#X obj 225 109 inlet~;
#X obj 64 220 outlet~;
#X connect 0 0 5 0;
#X connect 1 0 0 0;
#X connect 2 0 1 0;
#X connect 3 0 4 0;
#X connect 4 0 1 1;
#X connect 5 0 8 0;
#X connect 6 0 5 1;
#X connect 7 0 6 0;
#X connect 7 0 6 1;
#X restore 100 177 pd FM_osc;
#X obj 210 138 hip~ 100;
#X connect 0 0 16 0;
#X connect 1 0 5 0;
#X connect 2 0 21 0;
#X connect 3 0 1 0;
#X connect 4 0 16 1;
#X connect 5 0 12 0;
#X connect 6 0 1 1;
#X connect 7 0 6 0;
#X connect 8 0 5 0;
#X connect 9 0 10 0;
#X connect 10 0 8 1;
#X connect 11 0 4 0;
#X connect 13 0 14 0;
#X connect 13 0 7 1;
#X connect 14 0 9 1;
#X connect 15 0 3 0;
#X connect 15 0 20 0;
#X connect 16 0 15 0;
#X connect 16 0 18 0;
#X connect 17 0 7 0;
#X connect 17 0 9 0;
#X connect 18 0 17 0;
#X connect 20 0 1 0;
#X connect 20 0 8 0;
#X connect 21 0 3 1;
#X restore 535 467 pd tr808-snare;
#X floatatom 570 439 5 0 0 1 Decay - -;
#X obj 572 289 vsl 15 128 50 2000 0 0 empty tr808sn_decay empty 0 -9
0 10 -262144 -1 -1 12700 1;
#X floatatom 650 444 5 0 0 1 Noise - -;
#X obj 651 298 vsl 15 128 100 10000 1 0 empty tr808sn_noise empty 0
-9 0 10 -262144 -1 -1 10788 1;
#X obj 360 224 tgl 15 0 empty empty empty 17 7 0 10 -262144 -1 -1 0
1;
#X floatatom 412 212 5 0 0 0 - - -;
#X msg 1170 579 \; tr808sn_decay 200 \; tr808sn_noise 300 \;;
#X msg 1322 576 \; tr808sn_decay 500 \; tr808sn_noise 5000 \;;
#X msg 1326 633 \; tr808sn_decay 800 \; tr808sn_noise 3000 \;;
#X msg 1166 630 \; tr808sn_decay 300 \; tr808sn_noise 6000 \;;
#X obj 1323 556 loadbang;
#X obj 362 245 metro 500;
#X obj 673 151 * 5000;
#X connect 0 0 6 0;
#X connect 1 0 27 0;
#X connect 2 0 3 0;
#X connect 4 0 5 0;
#X connect 6 0 16 0;
#X connect 9 0 10 0;
#X connect 9 0 13 0;
#X connect 10 0 13 0;
#X connect 11 0 12 0;
#X connect 11 0 12 1;
#X connect 13 0 14 0;
#X connect 14 0 11 0;
#X connect 15 0 14 1;
#X connect 16 0 15 0;
#X connect 17 0 14 2;
#X connect 18 0 17 0;
#X connect 19 0 26 0;
#X connect 20 0 26 1;
#X connect 25 0 22 0;
#X connect 26 0 13 0;
#X connect 27 0 18 0;
