#N canvas 0 23 868 636 10;
#X obj 102 345 line~;
#X msg 102 187 0 \, 1 \$1;
#X obj 184 240 delay;
#X floatatom 164 133 5 0 0 0 D - -, f 5;
#X obj 167 96 \$2;
#X obj 162 52 inlet;
#X obj 202 53 loadbang;
#X floatatom 118 133 5 0 0 0 A - -, f 5;
#X obj 104 160 f;
#X obj 100 22 inlet;
#X obj 142 26 loadbang;
#X obj 102 104 \$1;
#X obj -36 69 inlet;
#X msg 116 306 1 \, 0 \$1;
#X floatatom 222 133 5 0 0 0 R - -, f 5;
#X obj 261 38 inlet;
#X obj 301 39 loadbang;
#X obj 266 82 \$3;
#X obj 184 272 f;
#X obj 99 404 outlet~;
#X obj 36 103 t b b;
#X obj 213 215 +;
#X obj 184 174 t b f;
#X obj 309 412 outlet;
#X obj 298 333 line;
#X connect 0 0 19 0;
#X connect 1 0 0 0;
#X connect 1 0 24 0;
#X connect 2 0 18 0;
#X connect 3 0 22 0;
#X connect 4 0 3 0;
#X connect 5 0 4 0;
#X connect 6 0 4 0;
#X connect 7 0 8 1;
#X connect 7 0 21 0;
#X connect 8 0 1 0;
#X connect 9 0 11 0;
#X connect 10 0 11 0;
#X connect 11 0 7 0;
#X connect 12 0 20 0;
#X connect 13 0 0 0;
#X connect 13 0 24 0;
#X connect 14 0 18 1;
#X connect 15 0 17 0;
#X connect 16 0 17 0;
#X connect 17 0 14 0;
#X connect 18 0 13 0;
#X connect 20 0 2 0;
#X connect 20 1 8 0;
#X connect 21 0 2 1;
#X connect 22 0 21 0;
#X connect 22 1 21 1;
#X connect 24 0 23 0;
#X coords 0 -1 1 1 170 60 1 100 100;
