#N canvas 130 37 1185 677 10;
#X obj -206 132 r \$0-trigger;
#X msg -206 298 0.8 \, 0 \$1;
#X obj 110 131 hsl 128 15 0 1 0 0 empty empty Fmod -2 -8 0 10 -262144
-1 -1 0 1;
#X obj 109 165 hsl 128 15 0 1 0 0 empty empty Indice -2 -8 0 10 -262144
-1 -1 1194 1;
#X obj 108 200 hsl 128 15 0 1 0 0 empty empty Crelease -2 -8 0 10 -262144
-1 -1 1295 1;
#X obj -185 187 * 2950;
#X obj -185 209 + 50;
#X obj -206 369 line~;
#X obj -206 263 i, f 4;
#X obj -573 281 mtof;
#X obj -552 175 s \$0-trigger;
#X obj -415 317 mtof;
#X obj -415 292 +, f 5;
#X obj -416 190 * 36;
#X obj -416 234 t b f;
#X obj -415 266 i;
#X obj -416 212 + 12;
#X obj -524 424 *~;
#X obj -592 467 +~;
#X obj -593 511 osc~;
#X obj -502 387 osc~;
#X obj -402 390 * 5000;
#X obj 27 190 s \$0-indice;
#X obj -400 359 r \$0-indice;
#X obj -2 131 s \$0-fmod;
#X obj -119 129 r \$0-trigger;
#X msg -119 295 0.8 \, 0 \$1;
#X obj -98 184 * 2950;
#X obj -98 206 + 50;
#X obj -119 366 line~;
#X obj -119 260 i, f 4;
#X obj 17 239 s \$0-Crelease;
#X obj -185 165 r \$0-Crelease;
#X obj -98 162 r \$0-Mrelease;
#X obj 30 324 s \$0-Mrelease;
#X obj -518 459 *~;
#X obj 108 234 hsl 128 15 0 1 0 0 empty empty Mrelease -2 -8 0 10 -262144
-1 -1 190 1;
#X obj -413 106 r \$0-fmod;
#X obj -32 95 inlet;
#X obj 7 158 inlet;
#X obj 29 214 inlet;
#X obj -584 57 inlet;
#X obj 48 273 inlet;
#X text 43 445 thanks to pixfoil! https://www.rebeltech.org/patch-library/patch/FmPerc/
;
#X obj 36 83 f \$1;
#X obj 34 55 loadbang;
#X obj 100 54 loadbang;
#X obj 164 55 loadbang;
#X obj 230 54 loadbang;
#X obj 102 82 f \$2;
#X obj 166 83 f \$3;
#X obj 232 82 f \$4;
#X obj -598 577 *~;
#X obj -587 659 outlet~;
#X floatatom 243 132 5 0 0 0 - - -, f 5;
#X floatatom 241 166 5 0 0 0 - - -, f 5;
#X floatatom 244 200 5 0 0 0 - - -, f 5;
#X floatatom 242 235 5 0 0 0 - - -, f 5;
#X obj -467 521 noise~;
#X obj -499 598 *~;
#X obj -540 567 line~;
#X obj 293 54 loadbang;
#X obj 295 82 f \$5;
#X obj -522 622 lop~ 1200;
#X msg -548 520 1 \, 0 15;
#X msg -507 294 0.25;
#X obj -582 99 t f b b b;
#X connect 0 0 8 0;
#X connect 1 0 7 0;
#X connect 2 0 24 0;
#X connect 2 0 54 0;
#X connect 3 0 22 0;
#X connect 3 0 55 0;
#X connect 4 0 31 0;
#X connect 4 0 56 0;
#X connect 5 0 6 0;
#X connect 6 0 8 1;
#X connect 7 0 52 1;
#X connect 8 0 1 0;
#X connect 9 0 18 0;
#X connect 11 0 20 0;
#X connect 12 0 11 0;
#X connect 13 0 16 0;
#X connect 14 0 15 0;
#X connect 14 1 12 1;
#X connect 15 0 12 0;
#X connect 16 0 14 0;
#X connect 17 0 35 0;
#X connect 18 0 19 0;
#X connect 19 0 52 0;
#X connect 20 0 17 0;
#X connect 21 0 17 1;
#X connect 23 0 21 0;
#X connect 25 0 30 0;
#X connect 26 0 29 0;
#X connect 27 0 28 0;
#X connect 28 0 30 1;
#X connect 29 0 35 1;
#X connect 30 0 26 0;
#X connect 32 0 5 0;
#X connect 33 0 27 0;
#X connect 35 0 18 1;
#X connect 36 0 34 0;
#X connect 36 0 57 0;
#X connect 37 0 13 0;
#X connect 38 0 24 0;
#X connect 39 0 22 0;
#X connect 40 0 31 0;
#X connect 41 0 66 0;
#X connect 42 0 34 0;
#X connect 44 0 2 0;
#X connect 45 0 44 0;
#X connect 46 0 49 0;
#X connect 47 0 50 0;
#X connect 48 0 51 0;
#X connect 49 0 3 0;
#X connect 50 0 4 0;
#X connect 51 0 36 0;
#X connect 52 0 53 0;
#X connect 58 0 59 1;
#X connect 59 0 63 0;
#X connect 60 0 59 0;
#X connect 61 0 62 0;
#X connect 63 0 53 0;
#X connect 64 0 60 0;
#X connect 65 0 19 1;
#X connect 66 0 9 0;
#X connect 66 0 15 0;
#X connect 66 1 10 0;
#X connect 66 2 64 0;
#X connect 66 3 65 0;
#X coords 0 -1 1 1 180 190 1 100 100;
