#N canvas 297 163 632 615 10;
#X text 59 463 thanks to andy farnell's tutorials and patches. if you
haven't yet \, go buy his "designing sound" - "The War and Peace of
visual programming handbooks";
#X obj 124 175 birds;
#X obj 383 10 r Channel-C;
#X obj 383 35 * 20;
#X obj 381 57 int;
#X obj 383 79 change;
#X obj 383 101 / 20;
#X obj 269 31 r \$0-intensity;
#X obj 217 69 * 2000;
#X obj 217 91 mod 800;
#X obj 324 96 sqrt;
#X obj 443 49 hsl 128 15 0 1 0 0 empty empty empty -2 -8 0 10 -262144
-1 -1 0 1;
#X obj 397 135 s \$0-intensity;
#X obj 330 134 * 0.5;
#X obj 188 454 dac~;
#X obj 14 199 * 20;
#X obj 14 221 int;
#X obj 14 243 change;
#X obj 14 265 / 20;
#X obj 435 91;
#X obj 7 37 hsl 128 15 0 1 0 0 empty empty empty -2 -8 0 10 -262144
-1 -1 0 1;
#X obj 14 177 r Channel-A;
#X obj 388 248 * 20;
#X obj 386 270 int;
#X obj 388 292 change;
#X obj 388 314 / 20;
#X obj 448 262 hsl 128 15 0 1 0 0 empty empty empty -2 -8 0 10 -262144
-1 -1 0 1;
#X obj 388 223 r Channel-B;
#X obj 256 140 * 0.8;
#X obj 128 208 pingpong5~ 100 0.6 0.5 0.5;
#X obj 243 430 *~ 5;
#X obj 158 428 *~ 5;
#X connect 1 0 29 0;
#X connect 2 0 3 0;
#X connect 3 0 4 0;
#X connect 4 0 5 0;
#X connect 5 0 6 0;
#X connect 6 0 12 0;
#X connect 7 0 8 0;
#X connect 7 0 10 0;
#X connect 7 0 28 0;
#X connect 8 0 9 0;
#X connect 9 0 29 1;
#X connect 10 0 13 0;
#X connect 11 0 3 0;
#X connect 13 0 29 4;
#X connect 15 0 16 0;
#X connect 16 0 17 0;
#X connect 17 0 18 0;
#X connect 18 0 1 0;
#X connect 20 0 15 0;
#X connect 21 0 15 0;
#X connect 22 0 23 0;
#X connect 23 0 24 0;
#X connect 24 0 25 0;
#X connect 25 0 29 2;
#X connect 26 0 22 0;
#X connect 27 0 22 0;
#X connect 28 0 29 3;
#X connect 29 0 31 0;
#X connect 29 1 30 0;
#X connect 30 0 14 1;
#X connect 31 0 14 0;
#X coords 0 0 1 1 85 60 0;
