#N canvas 445 40 858 702 10;
#X obj -246 -84 inlet;
#X text -189 -62 input (trigger);
#X obj -247 131 timer;
#X obj -246 18 + 1;
#X obj -247 -8 f;
#X obj -247 59 % 2;
#X obj -246 88 sel 0 1;
#X floatatom -247 166 5 0 0 0 - - -, f 5;
#X text -194 -3 counter;
#X obj -325 154 loadbang;
#X obj -273 374 outlet;
#X text -206 148 speed of incoming bangs in ms;
#X obj 62 224 + 1;
#X obj 18 226 f;
#X obj 63 252 t b f;
#X obj 58 315 spigot;
#X obj 24 349 del 1000;
#X msg 18 144 0;
#X obj -246 -35 t b b b;
#X text 128 310 create a little loop with delay that repeats for x
number of iterations;
#X obj 24 381 outlet;
#X obj 112 24 inlet;
#X obj -318 213 tgl 15 0 empty empty empty 17 7 0 10 -262144 -1 -1
1 1;
#X obj 112 53 int, f 7;
#X floatatom 62 59 5 0 0 0 repetitions - -, f 5;
#X obj 89 281 <=, f 9;
#X obj 172 36 \$2;
#X obj 214 -14 loadbang;
#X obj 87 -51 inlet;
#X obj 87 -5 int, f 7;
#X floatatom 62 31 5 0 0 0 multiplier - -, f 5;
#X obj 136 -71 loadbang;
#X text 61 -34 comment;
#X obj 135 -38 \$1;
#X obj -247 190 /, f 7;
#X obj -272 221 metro 1000;
#X connect 0 0 18 0;
#X connect 2 0 7 0;
#X connect 3 0 4 1;
#X connect 3 0 5 0;
#X connect 4 0 3 0;
#X connect 5 0 6 0;
#X connect 6 0 2 0;
#X connect 6 1 2 1;
#X connect 7 0 34 0;
#X connect 9 0 22 0;
#X connect 12 0 13 1;
#X connect 12 0 14 0;
#X connect 13 0 12 0;
#X connect 14 0 15 0;
#X connect 14 1 25 0;
#X connect 15 0 16 0;
#X connect 16 0 13 0;
#X connect 16 0 20 0;
#X connect 17 0 13 0;
#X connect 18 0 4 0;
#X connect 18 1 16 0;
#X connect 18 2 17 0;
#X connect 21 0 23 0;
#X connect 22 0 35 0;
#X connect 23 0 24 0;
#X connect 24 0 25 1;
#X connect 25 0 15 1;
#X connect 26 0 23 0;
#X connect 27 0 26 0;
#X connect 28 0 29 0;
#X connect 29 0 30 0;
#X connect 30 0 34 1;
#X connect 31 0 33 0;
#X connect 33 0 29 0;
#X connect 34 0 16 1;
#X connect 34 0 35 1;
#X connect 35 0 10 0;
#X coords 0 -1 1 1 120 80 1 0 0;
