#N canvas 928 146 532 564 10;
#X obj -16 319 samphold~;
#X obj 81 271 phasor~;
#X obj 79 239 sig~;
#X obj -105 351 lop~ 3;
#X obj -87 253 noise~;
#X obj -20 398 snapshot~;
#X obj -21 353 lop~ 3;
#X obj 15 502 *;
#X obj -99 514 *~;
#X obj 212 125 hsl 128 15 0.01 50 0 0 empty empty empty -2 -8 0 10
-262144 -1 -1 2200 1;
#X obj 211 166 hsl 128 15 0.01 50 0 0 empty empty empty -2 -8 0 10
-262144 -1 -1 11430 1;
#X obj 160 319 -;
#X obj 142 240 t b f;
#X msg 140 280 50.01;
#X obj -90 623 outlet~;
#X obj 17 626 outlet;
#X obj 214 214 hsl 128 15 1 3000 0 0 empty empty empty -2 -8 0 10 -262144
-1 -1 10499 1;
#X text 303 143 speed;
#X text 295 187 smooth;
#X text 305 233 depth;
#X obj 198 27 loadbang;
#X obj 198 61 \$1;
#X obj 230 60 \$2;
#X obj 264 60 \$3;
#X obj -51 67 inlet;
#X obj 11 69 inlet;
#X obj 81 66 inlet;
#X obj -161 625 outlet~;
#X obj 199 409 metro 1;
#X obj 200 351 loadbang;
#X msg 194 388 1;
#X connect 0 0 6 0;
#X connect 1 0 0 1;
#X connect 2 0 1 0;
#X connect 3 0 8 0;
#X connect 4 0 0 0;
#X connect 4 0 3 0;
#X connect 4 0 27 0;
#X connect 5 0 7 0;
#X connect 6 0 5 0;
#X connect 7 0 15 0;
#X connect 8 0 14 0;
#X connect 9 0 2 0;
#X connect 10 0 12 0;
#X connect 11 0 6 1;
#X connect 11 0 3 1;
#X connect 12 0 13 0;
#X connect 12 1 11 1;
#X connect 13 0 11 0;
#X connect 16 0 8 1;
#X connect 16 0 7 1;
#X connect 20 0 21 0;
#X connect 20 0 22 0;
#X connect 20 0 23 0;
#X connect 21 0 9 0;
#X connect 22 0 10 0;
#X connect 23 0 16 0;
#X connect 24 0 9 0;
#X connect 25 0 10 0;
#X connect 26 0 16 0;
#X connect 28 0 5 0;
#X connect 29 0 30 0;
#X connect 30 0 28 0;
#X coords 0 -1 1 1 150 150 1 200 100;
