#N canvas 503 206 611 643 10;
#X obj -154 351 *~ 0.33;
#X obj -151 436 outlet~;
#X floatatom 113 113 5 0 0 0 - - -, f 5;
#X obj 123 74 inlet;
#X obj 194 97 \$1;
#X obj 200 65 loadbang;
#X text 111 132 porto;
#X obj -158 285 osc~;
#X obj -78 285 osc~;
#X obj 13 285 osc~;
#X obj -150 190 mtof;
#X obj -152 78 inlet;
#X obj -69 74 inlet;
#X obj 23 75 inlet;
#X obj -152 253 line~;
#X obj -150 222 pack f f;
#X obj -76 176 mtof;
#X obj -78 239 line~;
#X obj -76 208 pack f f;
#X obj 5 179 mtof;
#X obj 3 242 line~;
#X obj 5 211 pack f f;
#X connect 0 0 1 0;
#X connect 2 0 15 1;
#X connect 2 0 18 1;
#X connect 2 0 21 1;
#X connect 3 0 2 0;
#X connect 4 0 2 0;
#X connect 5 0 4 0;
#X connect 7 0 0 0;
#X connect 8 0 0 0;
#X connect 9 0 0 0;
#X connect 10 0 15 0;
#X connect 11 0 10 0;
#X connect 12 0 16 0;
#X connect 13 0 19 0;
#X connect 14 0 7 0;
#X connect 15 0 14 0;
#X connect 16 0 18 0;
#X connect 17 0 8 0;
#X connect 18 0 17 0;
#X connect 19 0 21 0;
#X connect 20 0 9 0;
#X connect 21 0 20 0;
#X coords 0 -1 1 1 85 60 1 100 100;
