#N canvas 0 22 841 437 10;
#X obj 306 106 inlet;
#X obj 219 103 inlet;
#X obj 276 136 == 0;
#X obj 289 169 spigot;
#X obj 216 268 outlet;
#X text 51 147 incoming message;
#X obj 285 204 + \$1;
#X obj 369 133 inlet;
#X text 347 105 toggle to two paths;
#X text 350 201 this path gets some maths done to it;
#X obj 217 170 spigot 1;
#X connect 0 0 2 0;
#X connect 0 0 3 1;
#X connect 1 0 3 0;
#X connect 1 0 10 0;
#X connect 2 0 10 1;
#X connect 3 0 6 0;
#X connect 6 0 4 0;
#X connect 7 0 6 1;
#X connect 10 0 4 0;
