#N canvas 487 52 728 539 10;
#X obj 8 -5 inlet;
#X obj 32 -51 inlet;
#X obj 59 -6 inlet;
#X obj 87 -58 inlet;
#X text -231 -74 Using MIDI protocol;
#X obj 159 -7 inlet;
#X obj -97 -30 inlet;
#X obj -36 100 switchr -1;
#X obj -33 135 switchr 2;
#X obj -32 173 switchr 8;
#X obj -34 213 switchr 16;
#X obj -31 274 switchr;
#X text -166 -27 note in;
#X obj 117 -4 inlet;
#X text 16 -35 five toggles for different tunings;
#X obj 50 218 int;
#X text 276 -33 inlet to change tuning;
#X obj -32 316 outlet;
#X obj 7 37 tgl 15 0 empty empty -1 -2 -10 0 10 -262144 -1 -1 0 1;
#X obj 30 37 tgl 15 0 empty empty +2 -2 -10 0 10 -262144 -1 -1 1 1
;
#X obj 52 37 tgl 15 0 empty empty +8 -2 -10 0 10 -262144 -1 -1 1 1
;
#X obj 74 37 tgl 15 0 empty empty +16 -2 -10 0 10 -262144 -1 -1 1 1
;
#X obj 95 38 tgl 15 0 empty empty z 0 -10 0 10 -262144 -1 -1 0 1;
#X obj 13 61 hsl 60 15 -6 12 0 0 empty empty z -10 5 0 10 -262144 -1
-1 656 1;
#X obj 16 -88 \$1;
#X obj 46 -143 loadbang;
#X obj 54 -86 \$2;
#X obj 90 -87 \$3;
#X obj 128 -85 \$4;
#X obj 155 -85 \$5;
#X obj 198 -81 \$6;
#X floatatom 81 61 5 0 0 0 - - -, f 5;
#X obj -88 332 outlet;
#X obj 289 5 inlet;
#X obj 289 34 unpack f f f f f;
#X connect 0 0 18 0;
#X connect 1 0 19 0;
#X connect 2 0 20 0;
#X connect 3 0 21 0;
#X connect 5 0 23 0;
#X connect 6 0 7 0;
#X connect 6 0 32 0;
#X connect 7 0 8 0;
#X connect 8 0 9 0;
#X connect 9 0 10 0;
#X connect 10 0 11 0;
#X connect 11 0 17 0;
#X connect 13 0 22 0;
#X connect 15 0 31 0;
#X connect 18 0 7 1;
#X connect 19 0 8 1;
#X connect 20 0 9 1;
#X connect 21 0 10 1;
#X connect 22 0 11 1;
#X connect 23 0 15 0;
#X connect 24 0 18 0;
#X connect 25 0 24 0;
#X connect 25 0 26 0;
#X connect 25 0 27 0;
#X connect 25 0 28 0;
#X connect 25 0 29 0;
#X connect 25 0 30 0;
#X connect 26 0 19 0;
#X connect 27 0 20 0;
#X connect 28 0 21 0;
#X connect 29 0 22 0;
#X connect 30 0 23 0;
#X connect 31 0 11 2;
#X connect 33 0 34 0;
#X connect 34 0 7 2;
#X connect 34 1 8 2;
#X connect 34 2 9 2;
#X connect 34 3 10 2;
#X connect 34 4 23 0;
#X coords 0 -1 1 1 115 80 1 0 0;
