#N canvas 804 84 634 491 10;
#X obj 12 193 vcf~;
#X obj 12 242 vcf~;
#X obj 10 130 inlet~;
#X obj 109 7 inlet;
#X obj 191 16 inlet;
#X obj 10 281 outlet~;
#X floatatom 109 123 5 0 0 0 - - -, f 5;
#X floatatom 219 121 5 0 0 0 - - -, f 5;
#X obj 278 61 \$1;
#X obj 320 64 \$2;
#X obj 278 19 loadbang;
#X text 151 121 cutoff;
#X text 262 121 Q;
#X obj 138 232 line~;
#X msg 145 192 \$1 20;
#X connect 0 1 1 0;
#X connect 1 1 5 0;
#X connect 2 0 0 0;
#X connect 3 0 6 0;
#X connect 4 0 7 0;
#X connect 6 0 14 0;
#X connect 7 0 0 2;
#X connect 7 0 1 2;
#X connect 8 0 6 0;
#X connect 9 0 7 0;
#X connect 10 0 8 0;
#X connect 10 0 9 0;
#X connect 13 0 0 1;
#X connect 13 0 1 1;
#X connect 14 0 13 0;
#X coords 0 -1 1 1 200 60 1 100 100;
