#N canvas 0 62 1600 857 10;
#X obj 676 129 vsl 15 94 47 58 0 1 nl.note empty empty 0 -9 0 10 -261234
-1 -1 600 0;
#X obj 700 129 vsl 15 94 47 58 0 1 nl.note empty empty 0 -9 0 10 -261234
-1 -1 1800 0;
#X obj 724 129 vsl 15 94 47 58 0 1 nl.note empty empty 0 -9 0 10 -261234
-1 -1 3100 0;
#X obj 748 129 vsl 15 94 47 58 0 1 nl.note empty empty 0 -9 0 10 -261234
-1 -1 4200 0;
#X obj 772 129 vsl 15 94 47 58 0 1 nl.note empty empty 0 -9 0 10 -261234
-1 -1 4300 0;
#X obj 796 129 vsl 15 94 47 58 0 1 nl.note empty empty 0 -9 0 10 -261234
-1 -1 5300 0;
#X obj 820 129 vsl 15 94 47 58 0 1 nl.note empty empty 0 -9 0 10 -261234
-1 -1 6100 0;
#X obj 844 129 vsl 15 94 47 58 0 1 nl.note empty empty 0 -9 0 10 -261234
-1 -1 6800 0;
#X obj 676 230 vradio 15 1 1 4 empty empty empty 0 -8 0 10 -262144
-1 -1 0;
#X text 666 232 1;
#X text 666 246 2;
#X text 666 261 3;
#X text 666 275 4;
#X obj 700 230 vradio 15 1 1 4 empty empty empty 0 -8 0 10 -262144
-1 -1 0;
#X obj 724 230 vradio 15 1 1 4 empty empty empty 0 -8 0 10 -262144
-1 -1 0;
#X obj 748 230 vradio 15 1 1 4 empty empty empty 0 -8 0 10 -262144
-1 -1 0;
#X obj 772 230 vradio 15 1 1 4 empty empty empty 0 -8 0 10 -262144
-1 -1 0;
#X obj 796 230 vradio 15 1 1 4 empty empty empty 0 -8 0 10 -262144
-1 -1 0;
#X obj 820 230 vradio 15 1 1 4 empty empty empty 0 -8 0 10 -262144
-1 -1 0;
#X obj 844 230 vradio 15 1 1 4 empty empty empty 0 -8 0 10 -262144
-1 -1 0;
#X obj 879 290 pack 0 0 0 0 0 0 0 0;
#X obj 674 368 vradio 15 1 0 3 empty empty empty 0 -8 0 10 -262130
-1 -1 0;
#X text 658 369 --;
#X text 658 377 __;
#X obj 698 368 vradio 15 1 0 3 empty empty empty 0 -8 0 10 -262130
-1 -1 0;
#X obj 722 368 vradio 15 1 0 3 empty empty empty 0 -8 0 10 -262130
-1 -1 0;
#X obj 746 368 vradio 15 1 0 3 empty empty empty 0 -8 0 10 -262130
-1 -1 0;
#X obj 770 368 vradio 15 1 0 3 empty empty empty 0 -8 0 10 -262130
-1 -1 0;
#X obj 794 368 vradio 15 1 0 3 empty empty empty 0 -8 0 10 -262130
-1 -1 0;
#X obj 818 368 vradio 15 1 0 3 empty empty empty 0 -8 0 10 -262130
-1 -1 0;
#X obj 842 368 vradio 15 1 0 3 empty empty empty 0 -8 0 10 -262130
-1 -1 0;
#X obj 894 414 pack 0 0 0 0 0 0 0 0;
#X obj 613 412 t b;
#X obj 677 83 select 0 1 2 3 4 5 6 7;
#X obj 677 109 bng 15 100 50 0 empty empty empty 17 7 0 10 -262144
-1 -1;
#X obj 700 109 bng 15 100 50 0 empty empty empty 17 7 0 10 -262144
-1 -1;
#X obj 723 109 bng 15 100 50 0 empty empty empty 17 7 0 10 -262144
-1 -1;
#X obj 747 109 bng 15 100 50 0 empty empty empty 17 7 0 10 -262144
-1 -1;
#X obj 772 109 bng 15 100 50 0 empty empty empty 17 7 0 10 -262144
-1 -1;
#X obj 796 109 bng 15 100 50 0 empty empty empty 17 7 0 10 -262144
-1 -1;
#X obj 820 109 bng 15 100 50 0 empty empty empty 17 7 0 10 -262144
-1 -1;
#X obj 844 109 bng 15 100 50 0 empty empty empty 17 7 0 10 -262144
-1 -1;
#X floatatom 677 64 5 0 0 0 - - -;
#X obj 735 43 r nl.mainBang;
#N canvas 49 107 450 250 (subpatch) 0;
#X array nl.notes 8 float 2;
#X coords 0 60 8 0 100 60 1 0 0;
#X restore 78 71 graph;
#X obj 619 225 t b;
#X obj 878 226 pack 0 0 0 0 0 0 0 0;
#X msg 880 187 \; nl.notes 0 \$1 \$2 \$3 \$4 \$5 \$6 \$7 \$8;
#X msg 1283 116 \; nl.notes bounds 0 60 8 0;
#X text 1292 71 init;
#X msg 1283 275 \; nl.bpm 125;
#X obj 1145 107 loadbang;
#X msg 880 252 \; nl.repeats 0 \$1 \$2 \$3 \$4 \$5 \$6 \$7 \$8;
#N canvas 49 82 450 250 (subpatch) 0;
#X array nl.repeats 8 float 3;
#A 0 0 0 0 0 0 0 0 0;
#X coords 0 4 8 0 100 60 1 0 0;
#X restore 182 70 graph;
#X msg 1283 153 \; nl.repeats bounds 0 4 8 0;
#X obj 564 266 s nl.b1;
#X obj 880 142 r nl.b1;
#X obj 617 289 t b;
#X obj 562 304 s nl.b2;
#X msg 894 437 \; nl.mode 0 \$1 \$2 \$3 \$4 \$5 \$6 \$7 \$8;
#X obj 1007 289 r nl.b2;
#N canvas 0 50 450 250 (subpatch) 0;
#X array nl.mode 8 float 3;
#A 0 0 0 0 0 0 0 0 0;
#X coords 0 3 8 0 100 60 1 0 0;
#X restore 285 71 graph;
#X obj 613 434 s nl.b3;
#X obj 1024 414 r nl.b3;
#X obj 1074 414 delay 10;
#X obj 1057 289 delay 10;
#X obj 880 165 delay 10;
#X msg 1283 193 \; nl.mode bounds 0 3 8 0;
#X msg 1283 232 \; nl.decay bounds 0 127 8 0;
#X obj 1325 566 metro 125;
#X obj 1422 699 + 1;
#X obj 1394 698 i;
#X floatatom 1394 741 5 0 0 0 - - -;
#N canvas 715 607 450 300 nl.Couter 0;
#X obj 195 138 + 1;
#X obj 168 138 i;
#X floatatom 168 160 5 0 0 0 - - -;
#X msg 199 103 0;
#X obj 168 185 moses;
#X text 222 102 reset;
#X obj 168 52 inlet;
#X obj 201 254 outlet;
#X obj 277 52 inlet;
#X floatatom 300 110 5 0 0 0 - - -;
#X obj 168 80 t b;
#X obj 194 217 bng 15 250 50 0 empty empty empty 17 7 0 10 -262144
-1 -1;
#X text 213 219 next step;
#X obj 11 250 outlet;
#X obj 163 222 bng 15 250 50 0 empty empty empty 17 7 0 10 -262144
-1 -1;
#X obj 131 255 outlet;
#X connect 0 0 1 1;
#X connect 1 0 0 0;
#X connect 1 0 2 0;
#X connect 2 0 4 0;
#X connect 2 0 13 0;
#X connect 3 0 1 0;
#X connect 4 0 14 0;
#X connect 4 1 11 0;
#X connect 6 0 10 0;
#X connect 8 0 4 1;
#X connect 8 0 9 0;
#X connect 10 0 1 0;
#X connect 11 0 3 0;
#X connect 11 0 7 0;
#X connect 14 0 15 0;
#X restore 1325 672 pd nl.Couter;
#X floatatom 1325 740 5 0 0 0 - - -;
#X obj 1394 720 mod 8;
#X obj 1394 597 tabread nl.repeats;
#X obj 1394 760 s nl.mainCouter;
#X obj 1394 566 r nl.mainCouter;
#X obj 1394 621 + 1;
#X floatatom 1394 643 5 0 0 0 - - -;
#X obj 677 22 r nl.mainCouter;
#X obj 1276 608 s nl.mainBang;
#X obj 830 73 tgl 30 0 nl.start empty start 0 -7 0 10 -257985 -159808
-4160 0 1;
#N canvas 49 92 450 300 nl.bpm 0;
#X obj 110 58 inlet;
#X obj 110 86 t b f;
#X obj 110 147 /;
#X msg 110 118 15000;
#X obj 110 173 outlet;
#X obj 210 135 outlet;
#X text 211 157 measure frequency;
#X obj 210 111 / 240;
#X text 79 194 quarter note time;
#X text 98 40 bpm input;
#X connect 0 0 1 0;
#X connect 0 0 7 0;
#X connect 1 0 3 0;
#X connect 1 1 2 1;
#X connect 2 0 4 0;
#X connect 3 0 2 0;
#X connect 7 0 5 0;
#X restore 1376 503 pd nl.bpm;
#X obj 1448 534 s nl.timeMs;
#X floatatom 1405 520 5 0 0 0 - - -;
#X floatatom 1376 482 5 0 0 2 bpm nl.bpm -;
#X obj 756 594 r nl.mainCouter;
#X obj 756 618 tabread nl.mode;
#X floatatom 756 640 5 0 0 0 - - -;
#X obj 756 669 moses 1;
#X obj 861 727 tabread nl.notes;
#X obj 861 702 r nl.mainCouter;
#X floatatom 861 773 5 0 0 0 - - -;
#X obj 861 749 i;
#X obj 795 822 i;
#X obj 795 765 delay 10;
#X obj 761 927 noteout;
#X obj 671 868 makenote 100 75;
#X obj 795 869 makenote 100 250;
#X obj 671 796 delay 10;
#X obj 671 829 i;
#X obj 1432 657 s nl.repetNo;
#X obj 929 832 r nl.repetNo;
#X obj 929 852 * 120;
#X floatatom 929 874 5 0 0 0 - - -;
#X obj 1359 801 s nl.beat;
#X obj 609 740 tgl 15 0 empty empty empty 17 7 0 10 -262144 -1 -1 1
1;
#N canvas 49 82 450 300 nl.openGate 0;
#X obj 118 141 expr 1;
#X obj 161 140 expr 0;
#X obj 118 174 outlet;
#X obj 118 100 inlet;
#X obj 161 98 inlet;
#X connect 0 0 2 0;
#X connect 1 0 2 0;
#X connect 3 0 0 0;
#X connect 4 0 1 0;
#X restore 609 687 pd nl.openGate;
#X obj 576 779 spigot;
#X obj 614 635 r nl.mainBang;
#X obj 501 810 r nl.timeMs;
#X floatatom 501 854 5 0 0 0 - - -;
#X obj 501 832 * 0.6;
#X obj 795 706 moses 2;
#X obj 1325 435 r nl.start;
#X obj 677 416 hsl 128 15 50 200 0 0 empty empty empty -2 -8 0 10 -262144
-1 -1 1778 1;
#X obj 674 436 i;
#X floatatom 809 417 4 0 0 1 bpm - nl.bpm;
#X obj 673 472 r nl.bpm;
#N canvas 0 50 450 250 (subpatch) 0;
#X array nl.decay 8 float 3;
#A 0 90.7141 99.7854 98.8783 87.9927 54.4287 45.3573 41.7288 47.1716
;
#X coords 0 127 8 0 200 140 1 0 0;
#X restore 392 78 graph;
#X msg 635 147;
#X obj 385 317 pack f f;
#X msg 186 232 47-58 B2-A3# A 59-70 B3-A4# B 71-82 B4-A5# C 83-94 B5-A6#
D 95-106 B6-A7# E;
#X msg 384 283 47;
#X msg 428 280 58;
#X obj 386 244 bng 15 250 50 0 empty empty empty 17 7 0 10 -262144
-1 -1;
#X msg 379 353 range \$1 \$2;
#X obj 403 256 t b b;
#X obj 340 413 print;
#X obj 384 425 s props;
#X obj 619 84 r props;
#X obj 485 243 s out_props;
#X obj 293 391 r out_props;
#X connect 0 0 45 0;
#X connect 0 0 46 0;
#X connect 0 0 133 0;
#X connect 1 0 45 0;
#X connect 1 0 46 1;
#X connect 1 0 133 0;
#X connect 2 0 45 0;
#X connect 2 0 46 2;
#X connect 2 0 133 0;
#X connect 3 0 45 0;
#X connect 3 0 46 3;
#X connect 3 0 133 0;
#X connect 4 0 45 0;
#X connect 4 0 46 4;
#X connect 4 0 133 0;
#X connect 5 0 45 0;
#X connect 5 0 46 5;
#X connect 5 0 133 0;
#X connect 6 0 45 0;
#X connect 6 0 46 6;
#X connect 6 0 133 0;
#X connect 7 0 45 0;
#X connect 7 0 46 7;
#X connect 7 0 133 0;
#X connect 8 0 20 0;
#X connect 8 0 57 0;
#X connect 13 0 20 1;
#X connect 13 0 57 0;
#X connect 14 0 20 2;
#X connect 14 0 57 0;
#X connect 15 0 20 3;
#X connect 15 0 57 0;
#X connect 16 0 20 4;
#X connect 16 0 57 0;
#X connect 17 0 20 5;
#X connect 17 0 57 0;
#X connect 18 0 20 6;
#X connect 18 0 57 0;
#X connect 19 0 20 7;
#X connect 19 0 57 0;
#X connect 20 0 52 0;
#X connect 21 0 32 0;
#X connect 21 0 31 0;
#X connect 24 0 32 0;
#X connect 24 0 31 1;
#X connect 25 0 32 0;
#X connect 25 0 31 2;
#X connect 26 0 32 0;
#X connect 26 0 31 3;
#X connect 27 0 32 0;
#X connect 27 0 31 4;
#X connect 28 0 32 0;
#X connect 28 0 31 5;
#X connect 29 0 32 0;
#X connect 29 0 31 6;
#X connect 30 0 32 0;
#X connect 30 0 31 7;
#X connect 31 0 59 0;
#X connect 32 0 62 0;
#X connect 33 0 34 0;
#X connect 33 1 35 0;
#X connect 33 2 36 0;
#X connect 33 3 37 0;
#X connect 33 4 38 0;
#X connect 33 5 39 0;
#X connect 33 6 40 0;
#X connect 33 7 41 0;
#X connect 42 0 33 0;
#X connect 43 0 42 0;
#X connect 45 0 55 0;
#X connect 46 0 47 0;
#X connect 51 0 48 0;
#X connect 51 0 50 0;
#X connect 51 0 54 0;
#X connect 51 0 67 0;
#X connect 51 0 68 0;
#X connect 56 0 66 0;
#X connect 57 0 58 0;
#X connect 60 0 65 0;
#X connect 63 0 64 0;
#X connect 64 0 31 0;
#X connect 65 0 20 0;
#X connect 66 0 46 0;
#X connect 69 0 73 0;
#X connect 69 0 82 0;
#X connect 70 0 71 1;
#X connect 71 0 70 0;
#X connect 71 0 75 0;
#X connect 72 0 77 0;
#X connect 73 0 74 0;
#X connect 73 1 107 0;
#X connect 73 2 71 0;
#X connect 75 0 72 0;
#X connect 76 0 79 0;
#X connect 78 0 76 0;
#X connect 79 0 80 0;
#X connect 80 0 73 1;
#X connect 80 0 103 0;
#X connect 81 0 42 0;
#X connect 84 0 86 0;
#X connect 84 0 69 1;
#X connect 86 0 85 0;
#X connect 87 0 84 0;
#X connect 88 0 89 0;
#X connect 89 0 90 0;
#X connect 90 0 91 0;
#X connect 91 0 109 0;
#X connect 91 1 109 1;
#X connect 91 1 115 0;
#X connect 92 0 95 0;
#X connect 93 0 92 0;
#X connect 94 0 96 1;
#X connect 94 0 102 1;
#X connect 95 0 94 0;
#X connect 96 0 100 0;
#X connect 97 0 96 0;
#X connect 99 0 98 0;
#X connect 99 1 98 1;
#X connect 100 0 98 0;
#X connect 100 1 98 1;
#X connect 101 0 102 0;
#X connect 102 0 99 0;
#X connect 104 0 105 0;
#X connect 105 0 100 2;
#X connect 105 0 106 0;
#X connect 108 0 110 1;
#X connect 109 0 108 0;
#X connect 110 0 101 0;
#X connect 111 0 110 0;
#X connect 112 0 114 0;
#X connect 113 0 99 2;
#X connect 114 0 113 0;
#X connect 115 0 97 0;
#X connect 116 0 69 0;
#X connect 117 0 118 0;
#X connect 118 0 119 0;
#X connect 120 0 117 0;
#X connect 123 0 128 0;
#X connect 125 0 123 0;
#X connect 126 0 123 1;
#X connect 127 0 129 0;
#X connect 128 0 130 0;
#X connect 128 0 131 0;
#X connect 129 0 125 0;
#X connect 129 1 126 0;
#X connect 132 0 0 0;
#X connect 132 0 1 0;
#X connect 132 0 2 0;
#X connect 132 0 3 0;
#X connect 132 0 4 0;
#X connect 132 0 5 0;
#X connect 132 0 6 0;
#X connect 132 0 7 0;
#X connect 134 0 130 0;
#X coords 0 -1 1 1 800 480 2 70 60;
