#N canvas -9 -9 1920 1026 10;
#X floatatom 304 158 5 0 0 0 - - -;
#X floatatom 371 154 5 0 0 0 - - -;
#X obj 364 95 hsl 128 15 0 1 0 0 empty empty empty -2 -8 0 10 -262144
-1 -1 5398 1;
#X obj 367 125 expr 1 - $f1;
#X obj 472 -306 loadbang;
#X obj 382 -181 bng 15 250 50 0 empty empty empty 17 7 0 10 -262144
-1 -1;
#X obj 366 -148 snapshot~;
#X obj 416 -248 bng 15 250 50 0 empty empty empty 17 7 0 10 -262144
-1 -1;
#X obj 303 192 sig~;
#X obj 299 215 lop~ 5;
#X obj 369 193 sig~;
#X obj 368 214 lop~ 5;
#X obj 419 -212 metro 20;
#X obj 98 -182 inlet~;
#X obj 240 -181 inlet~;
#X obj 97 270 *~;
#X obj 237 268 *~;
#X obj 348 -404 hsl 128 15 0 18 0 0 empty empty empty -2 -8 0 10 -262144
-1 -1 0 1;
#X obj 322 -439 r panspeed;
#X obj 92 310 outlet~;
#X obj 228 310 outlet~;
#X floatatom 343 -362 5 0 0 0 - - -;
#X obj 300 -232 osc~;
#X obj 349 -340 moses 0.003;
#X obj 273 -323 bng 15 250 50 0 empty empty empty 17 7 0 10 -262144
-1 -1;
#X obj 487 -333 bng 15 250 50 0 empty empty empty 17 7 0 10 -262144
-1 -1;
#X msg 369 -236 0;
#X obj 317 -175 *~;
#X obj 336 -201 tgl 15 0 empty empty empty 17 7 0 10 -262144 -1 -1
1 1;
#X msg 264 -286 0;
#X obj 319 -319 bng 15 250 50 0 empty empty empty 17 7 0 10 -262144
-1 -1;
#X msg 320 -295 1;
#X obj 640 -329 sel 0 1 2 3;
#X obj 645 -386 r pandepth;
#X obj 615 -299 bng 15 250 50 0 empty empty empty 17 7 0 10 -262144
-1 -1;
#X obj 671 -291 bng 15 250 50 0 empty empty empty 17 7 0 10 -262144
-1 -1;
#X obj 725 -292 bng 15 250 50 0 empty empty empty 17 7 0 10 -262144
-1 -1;
#X obj 793 -294 bng 15 250 50 0 empty empty empty 17 7 0 10 -262144
-1 -1;
#X obj 369 -6 expr ((($f1 + 1) / 2) * $f2) + $f3;
#X text 753 -367 fixed depth amounts for ease;
#X msg 752 -252 0.2;
#X msg 821 -250 0.1;
#X msg 646 -251 0.33;
#X msg 717 -252 0.65;
#X msg 874 -415 0;
#X msg 911 -416 1;
#X msg 954 -417 2;
#X obj 929 -381 s pandepth;
#X msg 572 -253 0;
#X floatatom 361 -110 5 0 0 0 - - -;
#X floatatom 371 39 5 0 0 0 - - -;
#X obj 511 -224 s panspeed2;
#X obj 245 -398 r panspeed2;
#X obj 385 -379 bng 15 250 50 0 empty empty empty 17 7 0 10 -262144
-1 -1;
#X msg 682 -251 0.33;
#X msg 787 -251 0.88;
#X connect 0 0 8 0;
#X connect 1 0 10 0;
#X connect 2 0 0 0;
#X connect 2 0 3 0;
#X connect 3 0 1 0;
#X connect 4 0 7 0;
#X connect 4 0 22 0;
#X connect 4 0 26 0;
#X connect 4 0 30 0;
#X connect 5 0 6 0;
#X connect 6 0 49 0;
#X connect 7 0 12 0;
#X connect 8 0 9 0;
#X connect 9 0 15 1;
#X connect 10 0 11 0;
#X connect 11 0 16 1;
#X connect 12 0 5 0;
#X connect 13 0 15 0;
#X connect 14 0 16 0;
#X connect 15 0 19 0;
#X connect 16 0 20 0;
#X connect 17 0 21 0;
#X connect 18 0 17 0;
#X connect 21 0 23 0;
#X connect 22 0 27 0;
#X connect 23 0 24 0;
#X connect 23 1 30 0;
#X connect 23 1 22 0;
#X connect 24 0 26 0;
#X connect 24 0 5 0;
#X connect 24 0 29 0;
#X connect 25 0 4 0;
#X connect 26 0 22 0;
#X connect 27 0 6 0;
#X connect 28 0 27 1;
#X connect 29 0 28 0;
#X connect 30 0 31 0;
#X connect 31 0 28 0;
#X connect 32 0 34 0;
#X connect 32 1 35 0;
#X connect 32 2 36 0;
#X connect 32 3 37 0;
#X connect 33 0 32 0;
#X connect 34 0 48 0;
#X connect 35 0 54 0;
#X connect 35 0 42 0;
#X connect 35 0 53 0;
#X connect 36 0 40 0;
#X connect 36 0 43 0;
#X connect 36 0 53 0;
#X connect 37 0 41 0;
#X connect 37 0 53 0;
#X connect 37 0 55 0;
#X connect 38 0 50 0;
#X connect 40 0 38 2;
#X connect 41 0 38 2;
#X connect 42 0 38 1;
#X connect 43 0 38 1;
#X connect 44 0 47 0;
#X connect 45 0 47 0;
#X connect 46 0 47 0;
#X connect 48 0 51 0;
#X connect 49 0 38 0;
#X connect 50 0 2 0;
#X connect 52 0 23 0;
#X connect 53 0 21 0;
#X connect 54 0 38 2;
#X connect 55 0 38 1;
