#N canvas 352 100 1440 857 10;
#X obj 364 212 sig~;
#X obj 227 385 *~ 1;
#X obj 532 263 lop~ 5;
#X obj 534 232 sig~;
#X obj 525 400 *~;
#X obj 154 76 inlet~;
#X obj 339 123 inlet;
#X obj 503 153 inlet;
#X obj 389 760 outlet~;
#X obj 363 325 vd~ \$0del 5000;
#X obj 157 558 delwrite~ \$0del 5000;
#X obj 363 264 lop~ \$1;
#X obj 608 206 inlet;
#X obj 716 214 inlet;
#X obj 620 512 BobFilter;
#X obj 820 246 loadbang;
#X msg 834 290 70;
#X msg 804 288 0.9;
#X obj 523 760 outlet~;
#X obj 577 645 *~;
#X obj 637 687 *~;
#X obj 841 592 expr 1 - $f1;
#X floatatom 783 592 5 0 0 0 - - -;
#X floatatom 841 621 5 0 0 0 - - -;
#X obj 761 621 sig~;
#X obj 752 655 lop~ 5;
#X obj 831 651 sig~;
#X obj 823 683 lop~ 5;
#X obj 893 551 hsl 128 15 0 1 0 0 empty empty empty -2 -8 0 10 -262144
-1 -1 6477 1;
#X obj 907 404 snapshot~;
#X floatatom 921 434 5 0 0 0 - - -;
#X floatatom 927 490 5 0 0 0 - - -;
#X obj 823 210 metro 50;
#X floatatom 934 144 5 0 0 0 - - -;
#X obj 903 376 osc~;
#X msg 849 309 0;
#X obj 933 220 / 1000;
#X floatatom 954 257 5 0 0 0 - - -;
#X obj 981 299 * -1;
#X floatatom 993 354 5 0 0 0 - - -;
#X obj 962 325 + 2;
#X obj 1040 326 moses 0;
#X obj 920 460 expr ((($f1 + 1) / 2) * .62) + 0.2;
#X floatatom 627 464 5 0 0 0 - - -;
#X floatatom 682 437 5 0 0 0 - - -;
#X obj 633 284 r dfiltmod;
#X obj 731 284 r dresmod;
#X obj 688 401 moses 100;
#X obj 588 374 snapshot~;
#X floatatom 597 399 5 0 0 0 - - -;
#X obj 604 334 +~;
#X obj 698 334 +~;
#X obj 669 356 snapshot~;
#X floatatom 666 381 5 0 0 0 - - -;
#X obj 600 428 moses 0.98;
#X obj 534 488 *~ 0.25;
#X obj 602 590 *~ 0.66;
#X connect 0 0 11 0;
#X connect 1 0 10 0;
#X connect 1 0 8 0;
#X connect 1 0 18 0;
#X connect 2 0 4 1;
#X connect 3 0 2 0;
#X connect 4 0 10 0;
#X connect 4 0 14 0;
#X connect 4 0 55 0;
#X connect 5 0 1 0;
#X connect 6 0 0 0;
#X connect 6 0 33 0;
#X connect 7 0 3 0;
#X connect 9 0 4 0;
#X connect 11 0 9 0;
#X connect 12 0 50 0;
#X connect 13 0 51 0;
#X connect 14 0 56 0;
#X connect 15 0 17 0;
#X connect 15 0 16 0;
#X connect 15 0 32 0;
#X connect 15 0 34 0;
#X connect 15 0 35 0;
#X connect 16 0 14 2;
#X connect 17 0 14 1;
#X connect 19 0 8 0;
#X connect 20 0 18 0;
#X connect 21 0 23 0;
#X connect 22 0 24 0;
#X connect 23 0 26 0;
#X connect 24 0 25 0;
#X connect 25 0 19 1;
#X connect 26 0 27 0;
#X connect 27 0 20 1;
#X connect 28 0 21 0;
#X connect 28 0 22 0;
#X connect 29 0 30 0;
#X connect 30 0 42 0;
#X connect 31 0 28 0;
#X connect 32 0 29 0;
#X connect 32 0 48 0;
#X connect 32 0 52 0;
#X connect 33 0 36 0;
#X connect 34 0 29 0;
#X connect 35 0 34 0;
#X connect 36 0 37 0;
#X connect 37 0 38 0;
#X connect 38 0 40 0;
#X connect 39 0 34 0;
#X connect 40 0 41 0;
#X connect 41 1 39 0;
#X connect 42 0 31 0;
#X connect 43 0 14 1;
#X connect 44 0 14 2;
#X connect 45 0 50 1;
#X connect 46 0 51 1;
#X connect 47 0 44 0;
#X connect 48 0 49 0;
#X connect 49 0 54 0;
#X connect 50 0 48 0;
#X connect 51 0 52 0;
#X connect 52 0 53 0;
#X connect 53 0 47 0;
#X connect 54 0 43 0;
#X connect 55 0 56 0;
#X connect 56 0 19 0;
#X connect 56 0 20 0;
