#N canvas 191 313 450 435 10;
#X obj 135 6 inlet~;
#X obj 82 7 inlet~;
#X obj 144 288 *~;
#X obj 84 369 outlet~;
#X obj 169 372 outlet~;
#X obj 309 15 loadbang;
#X obj 84 289 *~;
#X obj 35 183 sig~;
#X obj 38 211 lop~ 5;
#X obj 28 158 expr (1 - $f1);
#X obj 299 201 sig~;
#X obj 281 231 lop~ 5;
#X msg 290 52 0.5;
#X msg 327 54 1;
#X obj 160 123 lop~ 2200;
#X obj 162 150 lop~ 2200;
#X obj 153 83 clip~ -0.5 0.5;
#X obj 163 178 hip~ 350;
#X obj 163 207 hip~ 350;
#X obj 164 228 *~ 0.95;
#X obj 151 57 *~ 28;
#X obj 290 174 r drivemix;
#X obj 21 131 r drivemix;
#X connect 0 0 6 0;
#X connect 0 0 20 0;
#X connect 1 0 6 0;
#X connect 1 0 20 0;
#X connect 2 0 3 0;
#X connect 2 0 4 0;
#X connect 5 0 12 0;
#X connect 5 0 13 0;
#X connect 6 0 3 0;
#X connect 6 0 4 0;
#X connect 7 0 8 0;
#X connect 8 0 6 1;
#X connect 9 0 7 0;
#X connect 10 0 11 0;
#X connect 11 0 2 1;
#X connect 14 0 15 0;
#X connect 15 0 17 0;
#X connect 16 0 14 0;
#X connect 17 0 18 0;
#X connect 18 0 19 0;
#X connect 19 0 2 0;
#X connect 20 0 16 0;
#X connect 21 0 10 0;
#X connect 22 0 9 0;
