#N canvas 502 142 1428 815 12;
#X obj 154 647 throw~ outL;
#X obj 246 647 throw~ outR;
#X obj 170 491 Verby;
#X obj 174 581 autopanner;
#N canvas 106 69 1206 300 Pages 0;
#X obj 550 272 s page3;
#X obj 586 236 tgl 15 0 empty empty empty 17 7 0 10 -262144 -1 -1 1
1;
#X obj 405 40 r aux;
#X obj 406 73 sel 1;
#X obj 409 113 i 0;
#X obj 455 108 + 1;
#X obj 398 235 tgl 15 0 empty empty empty 17 7 0 10 -262144 -1 -1 1
1;
#X msg 439 223 0;
#X msg 391 205 1;
#X obj 399 272 s page1;
#X obj 487 245 tgl 15 0 empty empty empty 17 7 0 10 -262144 -1 -1 1
1;
#X msg 526 218 0;
#X msg 481 211 1;
#X obj 479 272 s page2;
#X msg 569 208 1;
#X msg 614 205 0;
#X floatatom 362 182 5 0 0 0 - - -;
#X msg 652 207 1;
#X msg 687 206 0;
#X obj 666 236 tgl 15 0 empty empty empty 17 7 0 10 -262144 -1 -1 1
1;
#X obj 619 271 s page4;
#X obj 316 244 s led;
#X msg 723 209 1;
#X msg 757 209 0;
#X obj 741 237 tgl 15 0 empty empty empty 17 7 0 10 -262144 -1 -1 0
1;
#X obj 709 272 s page5;
#X msg 792 207 1;
#X msg 836 206 0;
#X obj 802 242 tgl 15 0 empty empty empty 17 7 0 10 -262144 -1 -1 1
1;
#X obj 784 269 s page6;
#X obj 287 53 r startup;
#X obj 404 145 % 7;
#X obj 582 8 sel 0 1 2 3 4 5 6;
#X obj 896 244 tgl 15 0 empty empty empty 17 7 0 10 -262144 -1 -1 1
1;
#X msg 887 208 1;
#X msg 926 210 0;
#X msg 926 210 0;
#X obj 886 272 s page7;
#X obj 326 211 + 1;
#X connect 1 0 0 0;
#X connect 2 0 3 0;
#X connect 3 0 4 0;
#X connect 4 0 5 0;
#X connect 4 0 31 0;
#X connect 5 0 4 1;
#X connect 6 0 9 0;
#X connect 7 0 6 0;
#X connect 8 0 6 0;
#X connect 10 0 13 0;
#X connect 11 0 10 0;
#X connect 12 0 10 0;
#X connect 14 0 1 0;
#X connect 15 0 1 0;
#X connect 16 0 38 0;
#X connect 17 0 19 0;
#X connect 18 0 19 0;
#X connect 19 0 20 0;
#X connect 22 0 24 0;
#X connect 23 0 24 0;
#X connect 24 0 25 0;
#X connect 26 0 28 0;
#X connect 27 0 28 0;
#X connect 28 0 29 0;
#X connect 30 0 3 0;
#X connect 31 0 16 0;
#X connect 31 0 32 0;
#X connect 32 0 7 0;
#X connect 32 0 12 0;
#X connect 32 0 14 0;
#X connect 32 0 17 0;
#X connect 32 0 22 0;
#X connect 32 0 26 0;
#X connect 32 0 34 0;
#X connect 32 1 8 0;
#X connect 32 1 14 0;
#X connect 32 1 11 0;
#X connect 32 1 17 0;
#X connect 32 1 22 0;
#X connect 32 1 26 0;
#X connect 32 1 34 0;
#X connect 32 2 15 0;
#X connect 32 2 12 0;
#X connect 32 2 8 0;
#X connect 32 2 22 0;
#X connect 32 2 26 0;
#X connect 32 2 34 0;
#X connect 32 2 17 0;
#X connect 32 3 8 0;
#X connect 32 3 12 0;
#X connect 32 3 14 0;
#X connect 32 3 18 0;
#X connect 32 3 22 0;
#X connect 32 3 26 0;
#X connect 32 3 34 0;
#X connect 32 4 23 0;
#X connect 32 4 17 0;
#X connect 32 4 14 0;
#X connect 32 4 12 0;
#X connect 32 4 8 0;
#X connect 32 4 26 0;
#X connect 32 4 34 0;
#X connect 32 5 27 0;
#X connect 32 5 8 0;
#X connect 32 5 12 0;
#X connect 32 5 14 0;
#X connect 32 5 17 0;
#X connect 32 5 22 0;
#X connect 32 5 34 0;
#X connect 32 6 35 0;
#X connect 32 6 8 0;
#X connect 32 6 12 0;
#X connect 32 6 14 0;
#X connect 32 6 17 0;
#X connect 32 6 22 0;
#X connect 32 6 26 0;
#X connect 33 0 37 0;
#X connect 34 0 33 0;
#X connect 35 0 33 0;
#X connect 38 0 21 0;
#X restore 106 99 pd Pages;
#N canvas 655 169 765 629 Load 0;
#X obj 16 -3 loadbang;
#X msg 30 59 0;
#X msg 82 59 1;
#X msg 143 62 4000;
#X msg 257 66 0.01;
#X obj 144 16 bng 15 250 50 0 empty empty empty 17 7 0 10 -262144 -1
-1;
#X obj 170 22 s metro;
#X obj 91 115 s pandepth;
#X msg 7 453 \; screenLine1 1: Cutoff \; screenLine2 2: Resonance \;
screenLine3 3: LFO Speed \; screenLine4 4: HPF \;;
#X obj 22 280 s resonance;
#X obj 163 187 s startup;
#X obj 42 243 s attack;
#X obj 63 199 s LFO2;
#X obj 257 107 s density;
#X obj 110 153 s grain-size;
#X obj 135 223 s wetdry;
#X msg 391 42 100;
#X obj 439 104 s wavechange;
#X obj 465 68 s release;
#X msg 199 60 0;
#X msg 323 62 0;
#X obj 320 157 s octmix;
#X obj 18 324 s noteon;
#X msg 232 222 500;
#X obj 244 257 s loc;
#X obj 440 130 s wavechange2;
#X connect 0 0 1 0;
#X connect 0 0 2 0;
#X connect 0 0 3 0;
#X connect 0 0 19 0;
#X connect 0 0 4 0;
#X connect 0 0 8 0;
#X connect 0 0 5 0;
#X connect 0 0 20 0;
#X connect 0 0 16 0;
#X connect 0 0 23 0;
#X connect 1 0 9 0;
#X connect 1 0 12 0;
#X connect 1 0 15 0;
#X connect 1 0 22 0;
#X connect 2 0 7 0;
#X connect 2 0 10 0;
#X connect 2 0 14 0;
#X connect 2 0 11 0;
#X connect 4 0 13 0;
#X connect 5 0 6 0;
#X connect 16 0 17 0;
#X connect 16 0 18 0;
#X connect 16 0 25 0;
#X connect 20 0 21 0;
#X connect 23 0 24 0;
#X restore 106 74 pd Load;
#N canvas 0 0 1440 857 Screen 0;
#X obj 22 36 r Line1;
#X obj 84 34 r Line2;
#X obj 141 35 r Line3;
#X obj 201 34 r Line4;
#X obj 22 98 s screenLine1;
#X obj 56 73 s screenLine2;
#X obj 172 80 s screenLine4;
#X obj 144 102 s screenLine3;
#X obj 277 35 r Line5;
#X obj 286 72 s screenLine5;
#X connect 0 0 4 0;
#X connect 1 0 5 0;
#X connect 2 0 7 0;
#X connect 3 0 6 0;
#X connect 8 0 9 0;
#X restore 106 124 pd Screen;
#N canvas 607 267 720 557 page1 0;
#X obj 21 -31 r knob1;
#X obj 150 -30 r knob2;
#X obj 381 -40 r knob4;
#X obj 265 -33 r knob3;
#X obj 75 -31 r page1;
#X obj 205 -33 r page1;
#X obj 318 -34 r page1;
#X obj 430 -39 r page1;
#X obj 164 -4 override;
#X obj 296 -5 override;
#X obj 390 -13 override;
#X obj 47 10 override;
#X obj 513 -40 r page1;
#X obj 516 -15 sel 0;
#X floatatom 43 54 5 0 0 0 - - -;
#X floatatom 405 30 5 0 0 0 - - -;
#X floatatom 294 38 5 0 0 0 - - -;
#X obj 46 82 * 4000;
#X obj 57 110 + 150;
#X obj 21 143 s cutoff;
#X msg 89 173 1: Cutoff: \$1 hz;
#X obj 95 138 i;
#X obj 128 114 s resonance;
#X obj 196 69 * 100;
#X obj 213 91 i;
#X obj 232 155 s Line2;
#X msg 220 125 2: Resonance: \$1 %;
#X obj 86 205 s Line1;
#X obj 279 97 s LFO2;
#X msg 332 66 3: LFO Speed: \$1;
#X obj 351 102 s Line3;
#X obj 483 79 * 100;
#X obj 493 109 i;
#X obj 481 182 s Line4;
#X obj 289 67 * 6;
#X obj 141 71 * 4;
#X floatatom 160 37 5 0 0 0 - - -;
#X obj 574 69 s Line5;
#X obj 313 253 loadbang;
#X msg 303 300 4000;
#X msg 349 299 0;
#X msg 391 296 5;
#X obj 297 344 s cutoff;
#X obj 370 362 s resonance;
#X obj 468 326 s hp;
#X obj 505 364 s LFO2;
#X obj 509 46 s drivemix;
#X msg 469 140 4: Dirt: \$1%;
#X msg 568 34 Page 1: Filter/Dirt;
#X connect 0 0 11 0;
#X connect 1 0 8 0;
#X connect 2 0 10 0;
#X connect 3 0 9 0;
#X connect 4 0 11 1;
#X connect 5 0 8 1;
#X connect 6 0 9 1;
#X connect 7 0 10 1;
#X connect 8 0 36 0;
#X connect 9 0 16 0;
#X connect 10 0 15 0;
#X connect 11 0 14 0;
#X connect 12 0 13 0;
#X connect 13 0 31 0;
#X connect 13 0 23 0;
#X connect 13 0 17 0;
#X connect 13 0 48 0;
#X connect 13 0 16 0;
#X connect 14 0 17 0;
#X connect 15 0 31 0;
#X connect 15 0 46 0;
#X connect 16 0 29 0;
#X connect 16 0 34 0;
#X connect 17 0 18 0;
#X connect 18 0 19 0;
#X connect 18 0 21 0;
#X connect 20 0 27 0;
#X connect 21 0 20 0;
#X connect 23 0 24 0;
#X connect 24 0 26 0;
#X connect 26 0 25 0;
#X connect 29 0 30 0;
#X connect 31 0 32 0;
#X connect 32 0 47 0;
#X connect 34 0 28 0;
#X connect 35 0 22 0;
#X connect 36 0 35 0;
#X connect 36 0 23 0;
#X connect 38 0 39 0;
#X connect 38 0 40 0;
#X connect 38 0 41 0;
#X connect 39 0 42 0;
#X connect 40 0 43 0;
#X connect 40 0 45 0;
#X connect 41 0 44 0;
#X connect 47 0 33 0;
#X connect 48 0 37 0;
#X restore 61 160 pd page1;
#N canvas 0 0 1914 990 page5 1;
#X obj 21 -31 r knob1;
#X obj 150 -30 r knob2;
#X obj 381 -40 r knob4;
#X obj 164 -4 override;
#X obj 295 -5 override;
#X obj 390 -13 override;
#X obj 47 10 override;
#X obj 516 -12 sel 0;
#X floatatom 49 53 5 0 0 0 - - -;
#X floatatom 166 66 5 0 0 0 - - -;
#X obj 75 -31 r page5;
#X obj 205 -33 r page5;
#X obj 318 -34 r page5;
#X obj 430 -39 r page5;
#X obj 513 -37 r page5;
#X obj 181 153 i;
#X obj 194 187 change -1;
#X msg 50 214 1: Grain Size \$1 ms;
#X obj 181 132 + 1;
#X obj -88 190 s grain-size;
#X obj 233 115 s density;
#X obj 182 108 * 100;
#X obj 222 81 + 0.01;
#X obj 50 238 s Line1;
#X obj 196 238 s Line2;
#X msg 196 212 2: Density \$1 %;
#X obj 265 -33 r knob3;
#X obj 656 59 s Line5;
#X msg 650 24 Page 5: Grains;
#X obj 365 116 i;
#X obj 365 141 change -1;
#X obj 365 91 * 4000;
#X obj 616 739 s freezeon;
#X obj 610 671 bng 15 250 50 0 empty empty empty 17 7 0 10 -262144
-1 -1;
#X obj 643 673 bng 15 250 50 0 empty empty empty 17 7 0 10 -262144
-1 -1;
#X msg 590 708 0;
#X msg 624 708 1;
#X floatatom 514 32 5 0 0 0 - - -;
#X obj 526 138 * 100;
#X obj 526 184 i;
#X obj 518 215 change -1;
#X obj 526 161 + 1;
#X obj 545 111 s wetdry;
#X msg 526 256 4: Wet / Dry \$1 %;
#X obj 521 300 s Line4;
#X floatatom 323 45 5 0 0 0 - - -;
#X msg 359 211 3: Grain Spread \$1 ms;
#X obj 358 240 s Line3;
#X obj 573 842 s Line5;
#X msg 572 768 Page 5: Grains;
#X msg 620 798 Page 5: Grains (Frozen!);
#X floatatom 8 168 5 0 0 0 - - -;
#X obj 633 456 sel 1;
#X obj 636 496 i 0;
#X obj 682 491 + 1;
#X floatatom 605 565 5 0 0 0 - - -;
#X msg 629 410 1;
#X obj 613 378 bng 15 250 50 0 empty empty empty 17 7 0 10 -262144
-1 -1;
#X obj 631 528 % 2;
#X obj 590 601 moses 1;
#X obj 551 338 moses 100;
#X obj 757 181 loadbang;
#X msg 758 217 1;
#X obj 731 289 s grain-size;
#X obj 843 288 s density;
#X obj 928 286 s loc;
#X obj 979 287 s wetdry;
#X msg 798 217 0;
#X obj 309 167 s loc;
#X obj 38 126 oknob 500 1;
#X connect 0 0 6 0;
#X connect 1 0 3 0;
#X connect 2 0 5 0;
#X connect 3 0 9 0;
#X connect 4 0 45 0;
#X connect 5 0 37 0;
#X connect 6 0 8 0;
#X connect 7 0 28 0;
#X connect 7 0 16 0;
#X connect 7 0 30 0;
#X connect 7 0 40 0;
#X connect 7 0 69 0;
#X connect 8 0 69 0;
#X connect 9 0 22 0;
#X connect 9 0 21 0;
#X connect 10 0 6 1;
#X connect 11 0 3 1;
#X connect 12 0 4 1;
#X connect 13 0 5 1;
#X connect 14 0 7 0;
#X connect 15 0 16 0;
#X connect 16 0 25 0;
#X connect 17 0 23 0;
#X connect 18 0 15 0;
#X connect 21 0 18 0;
#X connect 22 0 20 0;
#X connect 25 0 24 0;
#X connect 26 0 4 0;
#X connect 28 0 27 0;
#X connect 29 0 30 0;
#X connect 30 0 46 0;
#X connect 30 0 68 0;
#X connect 31 0 29 0;
#X connect 33 0 35 0;
#X connect 34 0 36 0;
#X connect 35 0 32 0;
#X connect 36 0 32 0;
#X connect 37 0 38 0;
#X connect 37 0 42 0;
#X connect 38 0 41 0;
#X connect 39 0 40 0;
#X connect 40 0 43 0;
#X connect 40 0 60 0;
#X connect 41 0 39 0;
#X connect 43 0 44 0;
#X connect 45 0 31 0;
#X connect 46 0 47 0;
#X connect 49 0 48 0;
#X connect 50 0 48 0;
#X connect 52 0 53 0;
#X connect 53 0 54 0;
#X connect 53 0 58 0;
#X connect 54 0 53 1;
#X connect 55 0 59 0;
#X connect 56 0 52 0;
#X connect 57 0 56 0;
#X connect 58 0 55 0;
#X connect 59 0 33 0;
#X connect 59 0 49 0;
#X connect 59 1 34 0;
#X connect 59 1 50 0;
#X connect 60 1 57 0;
#X connect 62 0 63 0;
#X connect 62 0 64 0;
#X connect 62 0 65 0;
#X connect 67 0 66 0;
#X connect 69 0 19 0;
#X connect 69 0 51 0;
#X connect 69 1 17 0;
#X restore 261 159 pd page5;
#N canvas 611 181 1223 682 page6 0;
#X obj 21 -31 r knob1;
#X obj 150 -30 r knob2;
#X obj 381 -40 r knob4;
#X obj 265 -33 r knob3;
#X obj 165 66 override;
#X obj 300 4 override;
#X obj 390 -13 override;
#X obj 47 10 override;
#X obj 516 -12 sel 0;
#X obj 75 -31 r page6;
#X obj 209 -32 r page6;
#X obj 318 -34 r page6;
#X obj 430 -39 r page6;
#X obj 513 -37 r page6;
#X obj 218 179 s Line2;
#X obj 470 144 s Line4;
#X obj 337 162 s Line3;
#X obj 541 67 s Line5;
#X floatatom 43 70 5 0 0 0 - - -;
#X msg 534 32 Page 6: LFO/Syn;
#X floatatom 172 99 5 0 0 0 - - -;
#X msg 216 136 2: LFO4 : \$1;
#X obj -26 132 s LFO3;
#X obj 46 179 s Line1;
#X msg 44 136 1: LFO3 : \$1;
#X obj 146 155 * 0.2;
#X obj 145 191 s LFO4;
#X obj 680 136 loadbang;
#X msg 680 165 0;
#X obj 822 204 s LFO3;
#X obj 877 204 s LFO4;
#X msg 321 114 3: O.CycleDepth: \$1;
#X msg 468 110 4: O.CycleFreq : \$1;
#X obj 416 74 * 150;
#X obj 305 234 s cycledepth;
#X obj 408 234 s cyclefreq;
#X obj 644 214 s cycledepth;
#X obj 754 228 s cyclefreq;
#X msg 251 379 30;
#X obj 272 282 moses 30;
#X obj 346 322 moses 80;
#X msg 319 376 55;
#X msg 426 379 82;
#X obj 321 81 * 180;
#X obj 291 440 s cyclefeedback;
#X obj 264 336 bng 15 250 50 0 empty empty empty 17 7 0 10 -262144
-1 -1;
#X obj 329 353 bng 15 250 50 0 empty empty empty 17 7 0 10 -262144
-1 -1;
#X obj 411 356 bng 15 250 50 0 empty empty empty 17 7 0 10 -262144
-1 -1;
#X obj 695 257 s cyclefeedback;
#X obj 172 326 bng 15 250 50 0 empty empty empty 17 7 0 10 -262144
-1 -1;
#X msg 173 346 0;
#X obj 215 255 * 0.7;
#X floatatom 313 46 5 0 0 0 - - -;
#X obj 179 295 moses 7;
#X connect 0 0 7 0;
#X connect 1 0 4 0;
#X connect 2 0 6 0;
#X connect 3 0 5 0;
#X connect 4 0 20 0;
#X connect 5 0 52 0;
#X connect 6 0 33 0;
#X connect 7 0 18 0;
#X connect 8 0 19 0;
#X connect 8 0 18 0;
#X connect 8 0 20 0;
#X connect 8 0 33 0;
#X connect 8 0 52 0;
#X connect 9 0 7 1;
#X connect 10 0 4 1;
#X connect 11 0 5 1;
#X connect 12 0 6 1;
#X connect 13 0 8 0;
#X connect 18 0 22 0;
#X connect 18 0 24 0;
#X connect 19 0 17 0;
#X connect 20 0 21 0;
#X connect 20 0 25 0;
#X connect 21 0 14 0;
#X connect 24 0 23 0;
#X connect 25 0 26 0;
#X connect 27 0 28 0;
#X connect 28 0 29 0;
#X connect 28 0 30 0;
#X connect 28 0 36 0;
#X connect 28 0 37 0;
#X connect 28 0 48 0;
#X connect 31 0 16 0;
#X connect 32 0 15 0;
#X connect 33 0 32 0;
#X connect 33 0 35 0;
#X connect 38 0 44 0;
#X connect 39 0 45 0;
#X connect 39 1 40 0;
#X connect 40 0 46 0;
#X connect 40 1 47 0;
#X connect 41 0 44 0;
#X connect 42 0 44 0;
#X connect 43 0 31 0;
#X connect 43 0 34 0;
#X connect 43 0 51 0;
#X connect 45 0 38 0;
#X connect 46 0 41 0;
#X connect 47 0 42 0;
#X connect 49 0 50 0;
#X connect 50 0 44 0;
#X connect 51 0 53 0;
#X connect 52 0 43 0;
#X connect 53 0 49 0;
#X connect 53 1 39 0;
#X restore 311 184 pd page6;
#N canvas 0 0 1914 998 Filter 0;
#X obj 181 553 inlet~;
#X obj 300 600 moog~;
#X obj 251 748 outlet~;
#X obj 317 533 sig~;
#X obj 315 564 lop~ 5;
#X obj 381 533 sig~;
#X obj 379 564 lop~ 5;
#X obj 410 500 r resonance;
#X obj 244 151 r cutoff;
#X obj 281 468 hsl 128 15 100 4000 0 0 empty empty empty -2 -8 0 10
-262144 -1 -1 163 1;
#X obj 151 424 loadbang;
#X msg 169 456 4000;
#X obj 251 364 moses 100;
#X obj 290 394 moses 4500;
#X floatatom 335 182 5 0 0 0 - - -;
#X floatatom 309 494 5 0 0 0 - - -;
#X floatatom 251 224 9 0 0 0 - - -;
#X obj 291 290 +;
#X obj 340 222 bng 15 250 50 0 empty empty empty 17 7 0 10 -262144
-1 -1;
#X obj 171 484 s cutoff;
#X obj 338 151 r filterspeed;
#X msg 124 457 0;
#X obj 78 490 s drivemix;
#X obj 177 611 drive;
#X connect 0 0 23 0;
#X connect 0 0 23 1;
#X connect 1 0 2 0;
#X connect 3 0 4 0;
#X connect 4 0 1 1;
#X connect 5 0 6 0;
#X connect 6 0 1 2;
#X connect 7 0 5 0;
#X connect 8 0 16 0;
#X connect 9 0 3 0;
#X connect 9 0 15 0;
#X connect 10 0 11 0;
#X connect 10 0 21 0;
#X connect 11 0 9 0;
#X connect 11 0 19 0;
#X connect 12 1 13 0;
#X connect 13 0 9 0;
#X connect 14 0 17 1;
#X connect 14 0 18 0;
#X connect 16 0 17 0;
#X connect 17 0 12 0;
#X connect 18 0 16 0;
#X connect 20 0 14 0;
#X connect 21 0 22 0;
#X connect 23 0 1 0;
#X connect 23 1 1 0;
#X restore 163 393 pd Filter;
#N canvas 725 150 450 437 LFO1 0;
#X obj 31 34 loadbang;
#X obj 53 155 osc~;
#X obj 52 195 snapshot~;
#X floatatom 56 226 5 0 0 0 - - -;
#X obj 53 320 hsl 128 15 0 1 0 0 empty empty empty -2 -8 0 10 -262144
-1 -1 0 1;
#X obj 122 137 metro 50;
#X obj 95 77 bng 15 250 50 0 empty empty empty 17 7 0 10 -262144 -1
-1;
#X msg 32 70 0;
#X obj 288 57 moses 0.01;
#X msg 197 86 0;
#X msg 342 114 1;
#X obj 255 81 bng 15 250 50 0 empty empty empty 17 7 0 10 -262144 -1
-1;
#X obj 338 81 bng 15 250 50 0 empty empty empty 17 7 0 10 -262144 -1
-1;
#X obj 69 292 expr ($f1 + 1) / 2;
#X floatatom 55 352 5 0 0 0 - - -;
#X obj 63 256 spigot;
#X obj 118 228 tgl 15 0 empty empty empty 17 7 0 10 -262144 -1 -1 0
1;
#X obj 288 29 r LFO1Speed;
#X obj 54 390 s LFO1Mod;
#X connect 0 0 6 0;
#X connect 0 0 7 0;
#X connect 1 0 2 0;
#X connect 2 0 3 0;
#X connect 3 0 15 0;
#X connect 4 0 14 0;
#X connect 5 0 2 0;
#X connect 6 0 5 0;
#X connect 7 0 1 0;
#X connect 8 0 11 0;
#X connect 8 1 12 0;
#X connect 8 1 1 0;
#X connect 9 0 1 0;
#X connect 9 0 4 0;
#X connect 10 0 16 0;
#X connect 11 0 9 0;
#X connect 11 0 16 0;
#X connect 12 0 10 0;
#X connect 13 0 4 0;
#X connect 14 0 18 0;
#X connect 15 0 13 0;
#X connect 16 0 15 1;
#X connect 17 0 8 0;
#X restore 191 75 pd LFO1;
#N canvas 912 549 450 409 LFO2 0;
#X obj 21 24 loadbang;
#X obj 43 145 osc~;
#X obj 42 185 snapshot~;
#X floatatom 46 216 5 0 0 0 - - -;
#X obj 43 310 hsl 128 15 0 1 0 0 empty empty empty -2 -8 0 10 -262144
-1 -1 0 1;
#X obj 112 127 metro 50;
#X obj 85 67 bng 15 250 50 0 empty empty empty 17 7 0 10 -262144 -1
-1;
#X msg 22 60 0;
#X obj 278 47 moses 0.01;
#X msg 187 76 0;
#X msg 332 104 1;
#X obj 245 71 bng 15 250 50 0 empty empty empty 17 7 0 10 -262144 -1
-1;
#X obj 328 71 bng 15 250 50 0 empty empty empty 17 7 0 10 -262144 -1
-1;
#X obj 59 282 expr ($f1 + 1) / 2;
#X floatatom 45 342 5 0 0 0 - - -;
#X obj 53 246 spigot;
#X obj 108 218 tgl 15 0 empty empty empty 17 7 0 10 -262144 -1 -1 0
1;
#X obj 44 380 s LFO2Mod;
#X obj 278 19 r LFO2Speed;
#X connect 0 0 6 0;
#X connect 0 0 7 0;
#X connect 1 0 2 0;
#X connect 2 0 3 0;
#X connect 3 0 15 0;
#X connect 4 0 14 0;
#X connect 5 0 2 0;
#X connect 6 0 5 0;
#X connect 7 0 1 0;
#X connect 8 0 11 0;
#X connect 8 1 12 0;
#X connect 8 1 1 0;
#X connect 9 0 1 0;
#X connect 9 0 4 0;
#X connect 10 0 16 0;
#X connect 11 0 9 0;
#X connect 11 0 16 0;
#X connect 12 0 10 0;
#X connect 13 0 4 0;
#X connect 14 0 17 0;
#X connect 15 0 13 0;
#X connect 16 0 15 1;
#X connect 18 0 8 0;
#X restore 190 99 pd LFO2;
#N canvas 351 0 843 939 LFOControl 0;
#X obj 35 103 s LFO1Speed;
#X floatatom 43 71 5 0 0 0 - - -;
#X floatatom 29 197 5 0 0 0 - - -;
#X obj 24 227 s LFO2Speed;
#X obj 49 41 hsl 128 15 0 1 0 0 empty empty empty -2 -8 0 10 -262144
-1 -1 0 1;
#X obj 39 174 hsl 128 15 0 6 0 0 empty empty empty -2 -8 0 10 -262144
-1 -1 0 1;
#X text 35 893 1 LFO will control autopan (leslie) speed 2 LFO will
control the filter sweep;
#X floatatom 244 71 5 0 0 0 - - -;
#X obj 243 42 r LFO1Mod;
#X floatatom 296 115 5 0 0 0 - - -;
#X floatatom 37 412 5 0 0 0 - - -;
#X floatatom 42 623 5 0 0 0 - - -;
#X obj 45 384 hsl 128 15 0 1 0 0 empty empty empty -2 -8 0 10 -262144
-1 -1 0 1;
#X obj 50 597 hsl 128 15 0 1 0 0 empty empty empty -2 -8 0 10 -262144
-1 -1 0 1;
#X floatatom 219 411 5 0 0 0 - - -;
#X floatatom 189 639 5 0 0 0 - - -;
#X obj 220 384 r LFO3Mod;
#X obj 190 599 r LFO4Mod;
#X obj 29 444 s LFO3Speed;
#X obj 37 653 s LFO4Speed;
#X floatatom 350 295 10 0 0 0 - - -;
#X obj 46 10 r LFO1;
#X obj 36 147 r LFO2;
#X obj 50 357 r LFO3;
#X obj 61 569 r LFO4;
#X obj 273 191 r LFO2Mod;
#X floatatom 285 220 5 0 0 0 - - -;
#X obj 287 251 expr (($f1 * 2000) + 100) - 1000;
#X obj 119 211 sel 0;
#X obj 165 240 bng 15 250 50 0 empty empty empty 17 7 0 10 -262144
-1 -1;
#X msg 205 252 0;
#X obj 388 348 s filterspeed;
#X obj 312 139 moses 0.004;
#X obj 382 159 s panspeed;
#X obj 263 94 * 15;
#X obj 545 604 * 100;
#X obj 553 657 i;
#X obj 548 687 change -1;
#X obj 549 713 s wavechange;
#X obj 239 837 s grain-size;
#X obj 549 631 + 105;
#X obj 520 38 cnv 15 100 60 empty empty empty 20 12 0 14 -233017 -66577
0;
#X obj 200 667 * 400;
#X floatatom 221 464 5 0 0 0 - - -;
#X obj 303 485 * 100;
#X floatatom 351 546 5 0 0 0 - - -;
#X obj 331 514 * -1;
#X obj 206 503 s dfiltmod;
#X obj 353 581 s dresmod;
#X obj 223 690 + 1;
#X obj 231 723 * -1;
#X floatatom 237 783 5 0 0 0 - - -;
#X obj 245 751 + 450;
#X obj 218 437 expr (($f1 * 2) - 1) * 0.2;
#X obj 383 768 s feedback;
#X floatatom 325 712 5 0 0 0 - - -;
#X obj 315 680 + 55;
#X obj 288 644 * 30;
#X obj 396 701 s cycledepth;
#X obj 365 632 * 90;
#X obj 383 671 + 10;
#X connect 1 0 0 0;
#X connect 2 0 3 0;
#X connect 2 0 28 0;
#X connect 4 0 1 0;
#X connect 5 0 2 0;
#X connect 7 0 34 0;
#X connect 8 0 7 0;
#X connect 9 0 32 0;
#X connect 10 0 18 0;
#X connect 11 0 19 0;
#X connect 12 0 10 0;
#X connect 13 0 11 0;
#X connect 14 0 53 0;
#X connect 15 0 42 0;
#X connect 16 0 14 0;
#X connect 17 0 15 0;
#X connect 17 0 57 0;
#X connect 17 0 59 0;
#X connect 20 0 31 0;
#X connect 21 0 4 0;
#X connect 22 0 5 0;
#X connect 23 0 12 0;
#X connect 24 0 13 0;
#X connect 25 0 26 0;
#X connect 26 0 27 0;
#X connect 27 0 20 0;
#X connect 28 0 29 0;
#X connect 29 0 30 0;
#X connect 30 0 20 0;
#X connect 32 1 33 0;
#X connect 34 0 9 0;
#X connect 35 0 40 0;
#X connect 36 0 37 0;
#X connect 37 0 38 0;
#X connect 40 0 36 0;
#X connect 42 0 49 0;
#X connect 43 0 44 0;
#X connect 43 0 47 0;
#X connect 44 0 46 0;
#X connect 45 0 48 0;
#X connect 46 0 45 0;
#X connect 49 0 50 0;
#X connect 50 0 52 0;
#X connect 51 0 39 0;
#X connect 52 0 51 0;
#X connect 53 0 43 0;
#X connect 55 0 54 0;
#X connect 56 0 55 0;
#X connect 57 0 56 0;
#X connect 59 0 60 0;
#X connect 60 0 58 0;
#X restore 190 124 pd LFOControl;
#X obj 444 436 r dtime;
#X obj 467 466 r dfbk;
#X obj 493 494 r dfilter;
#X obj 574 499 r dres;
#X obj 117 225 r~ inL;
#X obj 184 224 r~ inR;
#N canvas 224 252 1428 815 LFO3 0;
#X obj 31 34 loadbang;
#X obj 52 195 snapshot~;
#X floatatom 56 226 5 0 0 0 - - -;
#X obj 53 320 hsl 128 15 0 1 0 0 empty empty empty -2 -8 0 10 -262144
-1 -1 0 1;
#X obj 122 137 metro 50;
#X obj 95 77 bng 15 250 50 0 empty empty empty 17 7 0 10 -262144 -1
-1;
#X msg 32 70 0;
#X obj 288 57 moses 0.01;
#X msg 197 86 0;
#X msg 342 114 1;
#X obj 255 81 bng 15 250 50 0 empty empty empty 17 7 0 10 -262144 -1
-1;
#X obj 338 81 bng 15 250 50 0 empty empty empty 17 7 0 10 -262144 -1
-1;
#X floatatom 55 352 5 0 0 0 - - -;
#X obj 63 256 spigot;
#X obj 118 228 tgl 15 0 empty empty empty 17 7 0 10 -262144 -1 -1 0
1;
#X obj 54 390 s LFO3Mod;
#X obj 288 29 r LFO3Speed;
#X obj 53 155 osc~;
#X obj 69 292 expr ($f1 + 1) / 2;
#X connect 0 0 5 0;
#X connect 0 0 6 0;
#X connect 1 0 2 0;
#X connect 2 0 13 0;
#X connect 3 0 12 0;
#X connect 4 0 1 0;
#X connect 5 0 4 0;
#X connect 6 0 17 0;
#X connect 7 0 10 0;
#X connect 7 1 11 0;
#X connect 7 1 17 0;
#X connect 8 0 3 0;
#X connect 8 0 17 0;
#X connect 9 0 14 0;
#X connect 10 0 8 0;
#X connect 10 0 14 0;
#X connect 11 0 9 0;
#X connect 12 0 15 0;
#X connect 13 0 18 0;
#X connect 14 0 13 1;
#X connect 16 0 7 0;
#X connect 17 0 1 0;
#X connect 18 0 3 0;
#X restore 251 74 pd LFO3;
#N canvas 680 336 450 300 LFO4 0;
#X obj 41 44 loadbang;
#X obj 62 205 snapshot~;
#X floatatom 66 236 5 0 0 0 - - -;
#X obj 63 330 hsl 128 15 0 1 0 0 empty empty empty -2 -8 0 10 -262144
-1 -1 0 1;
#X obj 132 147 metro 50;
#X obj 105 87 bng 15 250 50 0 empty empty empty 17 7 0 10 -262144 -1
-1;
#X msg 42 80 0;
#X obj 298 67 moses 0.01;
#X msg 207 96 0;
#X msg 352 124 1;
#X obj 265 91 bng 15 250 50 0 empty empty empty 17 7 0 10 -262144 -1
-1;
#X obj 348 91 bng 15 250 50 0 empty empty empty 17 7 0 10 -262144 -1
-1;
#X obj 79 302 expr ($f1 + 1) / 2;
#X floatatom 65 362 5 0 0 0 - - -;
#X obj 73 266 spigot;
#X obj 128 238 tgl 15 0 empty empty empty 17 7 0 10 -262144 -1 -1 0
1;
#X obj 298 39 r LFO4Speed;
#X obj 64 400 s LFO4Mod;
#X obj 63 165 osc~;
#X connect 0 0 5 0;
#X connect 0 0 6 0;
#X connect 1 0 2 0;
#X connect 2 0 14 0;
#X connect 3 0 13 0;
#X connect 4 0 1 0;
#X connect 5 0 4 0;
#X connect 6 0 18 0;
#X connect 7 0 10 0;
#X connect 7 1 11 0;
#X connect 7 1 18 0;
#X connect 8 0 3 0;
#X connect 8 0 18 0;
#X connect 9 0 15 0;
#X connect 10 0 8 0;
#X connect 10 0 15 0;
#X connect 11 0 9 0;
#X connect 12 0 3 0;
#X connect 13 0 17 0;
#X connect 14 0 12 0;
#X connect 15 0 14 1;
#X connect 16 0 7 0;
#X connect 18 0 1 0;
#X restore 251 99 pd LFO4;
#X obj 179 531 delay5sec 5;
#X text 334 528 filtered panned delay;
#X text 41 462 freeverb yeah!;
#X text 279 578 autopan with width \, speed \, and LFO for leslie effect
;
#X text 257 393 HPF fed into a moog LPF with LFO for sweeping;
#X obj 154 427 grainmain;
#X text 252 430 Critter & G's Granular;
#X obj 142 328 octaver;
#X obj 200 693 dac~;
#N canvas 0 0 1428 815 page7 0;
#X obj 149 86 override;
#X obj 346 80 override;
#X obj 449 75 override;
#X obj 146 53 r knob1;
#X obj 276 116 r knob2;
#X obj 380 105 r knob3;
#X obj 487 95 r knob4;
#X msg 500 276 2: Delay Fbk: \$1 %;
#X msg 500 255 1: Delay Time: \$1 ms;
#X obj 133 174 i;
#X obj 141 201 change -1;
#X obj 246 166 * 0.9;
#X obj 290 148 * 90;
#X obj 289 178 i;
#X obj 295 202 change -1;
#X obj 26 84 sel 0;
#X obj 136 144 * 1500;
#X obj 250 88 override;
#X floatatom 187 255 5 0 0 0 - - -;
#X floatatom 241 256 5 0 0 0 - - -;
#X floatatom 281 254 5 0 0 0 - - -;
#X floatatom 351 250 5 0 0 0 - - -;
#X obj 379 159 * 110;
#X obj 392 183 mtof;
#X obj 453 117 * 100;
#X obj 461 141 i;
#X obj 454 167 change -1;
#X msg 498 300 3: Cutoff: \$1 hz;
#X msg 498 322 4: Filter Mix: \$1 %;
#X obj 155 286 s dtime;
#X obj 210 285 s dfbk;
#X obj 264 288 s dfilter;
#X obj 340 288 s dres;
#X text 303 28 comment;
#X obj 475 347 s Line1;
#X obj 474 367 s Line2;
#X obj 474 385 s Line3;
#X obj 475 405 s Line4;
#X obj 25 50 r page7;
#X obj 206 54 r page7;
#X obj 287 56 r page7;
#X obj 355 49 r page7;
#X obj 500 49 r page7;
#X obj 557 389 s Line5;
#X msg 551 354 Page 7: Delay;
#X obj 334 172 + 0.3;
#X obj 338 141 * 0.7;
#X connect 0 0 16 0;
#X connect 1 0 22 0;
#X connect 1 0 46 0;
#X connect 2 0 24 0;
#X connect 3 0 0 0;
#X connect 4 0 17 0;
#X connect 5 0 1 0;
#X connect 6 0 2 0;
#X connect 7 0 35 0;
#X connect 8 0 34 0;
#X connect 9 0 10 0;
#X connect 10 0 18 0;
#X connect 11 0 30 0;
#X connect 12 0 13 0;
#X connect 13 0 14 0;
#X connect 14 0 19 0;
#X connect 15 0 19 0;
#X connect 15 0 20 0;
#X connect 15 0 21 0;
#X connect 15 0 18 0;
#X connect 15 0 44 0;
#X connect 16 0 9 0;
#X connect 17 0 11 0;
#X connect 17 0 12 0;
#X connect 18 0 8 0;
#X connect 18 0 29 0;
#X connect 19 0 7 0;
#X connect 20 0 27 0;
#X connect 21 0 28 0;
#X connect 22 0 23 0;
#X connect 23 0 20 0;
#X connect 24 0 25 0;
#X connect 25 0 26 0;
#X connect 26 0 21 0;
#X connect 26 0 32 0;
#X connect 27 0 36 0;
#X connect 28 0 37 0;
#X connect 38 0 15 0;
#X connect 39 0 0 1;
#X connect 40 0 17 1;
#X connect 41 0 1 1;
#X connect 42 0 2 1;
#X connect 44 0 43 0;
#X connect 45 0 31 0;
#X connect 46 0 45 0;
#X restore 356 161 pd page7;
#N canvas 0 0 1914 990 page2 0;
#X obj 21 -31 r knob1;
#X obj 150 -30 r knob2;
#X obj 381 -40 r knob4;
#X obj 265 -33 r knob3;
#X obj 164 -4 override;
#X obj 295 -5 override;
#X obj 390 -13 override;
#X obj 47 10 override;
#X obj 600 16 sel 0;
#X floatatom 42 38 5 0 0 0 - - -;
#X floatatom 404 24 5 0 0 0 - - -;
#X floatatom 292 38 5 0 0 0 - - -;
#X floatatom 155 32 5 0 0 0 - - -;
#X obj 13 116 s panspeed;
#X msg 23 161 1: AutoPan Spd: \$1;
#X obj 186 85 i;
#X obj 195 114 change -1;
#X obj 182 164 s pandepth;
#X msg 201 189 2: AutoPan Wide: \$1;
#X obj 62 192 s Line1;
#X obj 215 225 s Line2;
#X obj 320 71 s LFO1;
#X msg 300 108 3: AutoPan LFO: \$1;
#X obj 301 140 s Line3;
#X obj 163 65 * 4;
#X obj 33 67 * 15;
#X obj 486 233 s Line4;
#X obj 288 83 * 1;
#X obj 478 56 * 1;
#X obj 588 91 s octmix;
#X msg 398 188 4: Oct-1: \$1%;
#X msg 656 198 4: Oct+1: \$1%;
#X obj 463 149 moses 0.34;
#X msg 530 189 4: Oct0: \$1%;
#X obj 578 163 moses 0.67;
#X obj 75 -31 r page2;
#X obj 205 -33 r page2;
#X obj 318 -34 r page2;
#X obj 444 -39 r page2;
#X obj 513 -37 r page2;
#X obj 692 88 s Line5;
#X msg 685 53 Page 2: Pan/Synth;
#X connect 0 0 7 0;
#X connect 1 0 4 0;
#X connect 2 0 6 0;
#X connect 3 0 5 0;
#X connect 4 0 12 0;
#X connect 5 0 11 0;
#X connect 6 0 10 0;
#X connect 7 0 9 0;
#X connect 8 0 25 0;
#X connect 8 0 28 0;
#X connect 8 0 41 0;
#X connect 8 0 11 0;
#X connect 8 0 9 0;
#X connect 8 0 16 0;
#X connect 9 0 25 0;
#X connect 10 0 28 0;
#X connect 11 0 21 0;
#X connect 11 0 27 0;
#X connect 12 0 24 0;
#X connect 14 0 19 0;
#X connect 15 0 16 0;
#X connect 16 0 17 0;
#X connect 16 0 18 0;
#X connect 18 0 20 0;
#X connect 22 0 23 0;
#X connect 24 0 15 0;
#X connect 25 0 13 0;
#X connect 25 0 14 0;
#X connect 27 0 22 0;
#X connect 28 0 29 0;
#X connect 28 0 32 0;
#X connect 30 0 26 0;
#X connect 31 0 26 0;
#X connect 32 0 30 0;
#X connect 32 1 34 0;
#X connect 33 0 26 0;
#X connect 34 0 33 0;
#X connect 34 1 31 0;
#X connect 35 0 7 1;
#X connect 36 0 4 1;
#X connect 37 0 5 1;
#X connect 38 0 6 1;
#X connect 39 0 8 0;
#X connect 41 0 40 0;
#X restore 115 184 pd page2;
#N canvas 114 361 720 300 page4 0;
#X obj 21 -31 r knob1;
#X obj 381 -40 r knob4;
#X obj 164 -4 override;
#X obj 295 -5 override;
#X obj 390 -13 override;
#X obj 47 10 override;
#X obj 530 -14 sel 0;
#X floatatom 43 38 5 0 0 0 - - -;
#X floatatom 411 32 5 0 0 0 - - -;
#X floatatom 161 38 5 0 0 0 - - -;
#X obj 19 75 s roomsize;
#X obj 138 67 s damp;
#X obj 252 79 s mix;
#X obj 484 208 s freeze;
#X obj 476 122 moses 0.5;
#X obj 469 151 bng 15 250 50 0 empty empty empty 17 7 0 10 -262144
-1 -1;
#X obj 539 150 bng 15 250 50 0 empty empty empty 17 7 0 10 -262144
-1 -1;
#X msg 482 174 0;
#X msg 531 175 1;
#X obj 35 107 * 100;
#X obj 36 130 i;
#X obj 36 156 change -1;
#X obj 42 217 s Line1;
#X obj 172 99 * 100;
#X obj 173 122 i;
#X obj 173 148 change -1;
#X msg 180 180 2: Damping: \$1 %;
#X obj 291 105 * 100;
#X obj 292 128 i;
#X obj 292 154 change -1;
#X msg 43 188 1: Roomsize: \$1 %;
#X msg 299 186 3: Wet Mix \$1 %;
#X msg 549 253 4: Freeze: \$1;
#X obj 554 283 s Line4;
#X floatatom 313 29 5 0 0 0 - - -;
#X obj 266 52 * 0.7;
#X obj 150 -30 r knob3;
#X obj 265 -33 r knob2;
#X obj 298 215 s Line2;
#X obj 179 209 s Line3;
#X obj 436 80 * 1;
#X obj 75 -31 r page4;
#X obj 209 -33 r page4;
#X obj 326 -34 r page4;
#X obj 441 -39 r page4;
#X obj 527 -39 r page4;
#X obj 604 97 s Line5;
#X msg 598 62 Page 4: Reverb;
#X connect 0 0 5 0;
#X connect 1 0 4 0;
#X connect 2 0 9 0;
#X connect 3 0 34 0;
#X connect 4 0 8 0;
#X connect 5 0 7 0;
#X connect 6 0 21 0;
#X connect 6 0 25 0;
#X connect 6 0 29 0;
#X connect 6 0 40 0;
#X connect 6 0 47 0;
#X connect 7 0 10 0;
#X connect 7 0 19 0;
#X connect 8 0 40 0;
#X connect 9 0 11 0;
#X connect 9 0 23 0;
#X connect 14 0 15 0;
#X connect 14 1 16 0;
#X connect 15 0 17 0;
#X connect 16 0 18 0;
#X connect 17 0 13 0;
#X connect 17 0 32 0;
#X connect 18 0 13 0;
#X connect 18 0 32 0;
#X connect 19 0 20 0;
#X connect 20 0 21 0;
#X connect 21 0 30 0;
#X connect 23 0 24 0;
#X connect 24 0 25 0;
#X connect 25 0 26 0;
#X connect 26 0 39 0;
#X connect 27 0 28 0;
#X connect 28 0 29 0;
#X connect 29 0 31 0;
#X connect 30 0 22 0;
#X connect 31 0 38 0;
#X connect 32 0 33 0;
#X connect 34 0 35 0;
#X connect 34 0 27 0;
#X connect 35 0 12 0;
#X connect 36 0 2 0;
#X connect 37 0 3 0;
#X connect 40 0 14 0;
#X connect 41 0 5 1;
#X connect 42 0 2 1;
#X connect 43 0 3 1;
#X connect 44 0 4 1;
#X connect 45 0 6 0;
#X connect 47 0 46 0;
#X restore 215 183 pd page4;
#N canvas 381 76 1428 815 page3 0;
#X obj 31 -21 r knob1;
#X obj 391 -30 r knob4;
#X obj 275 -24 r knob3;
#X obj 174 6 override;
#X obj 304 5 override;
#X obj 400 -3 override;
#X obj 57 20 override;
#X obj 526 -2 sel 0;
#X floatatom 493 137 5 0 0 0 - - -;
#X obj 37 158 i;
#X obj 41 187 change -1;
#X obj 161 -19 r knob2;
#N canvas 0 0 450 300 (subpatch) 0;
#X array array1 1027 float 2;
#X coords 0 1 1027 -1 200 140 1 0 0;
#X restore 48 457 graph;
#X obj 56 409 soundfiler;
#X obj 59 352 r wavechange;
#X obj 49 112 + 100;
#X obj 39 223 s wavechange;
#X obj 343 111 + 1;
#X obj 464 65 * 3500;
#X obj 466 94 + 25;
#X msg 60 383 read ./wavs/0\$1.wav array1;
#X obj 406 237 s attack;
#X obj 552 242 s release;
#X obj 55 76 * 225;
#X obj 344 202 s Line3;
#X obj 508 218 s Line4;
#X obj 335 74 * 1500;
#X obj 84 294 s Line1;
#X msg 70 263 1: O.Waveform: \$1.wav;
#X obj 85 -21 r page3;
#X obj 215 -23 r page3;
#X obj 328 -25 r page3;
#X obj 440 -29 r page3;
#X obj 523 -27 r page3;
#X obj 594 87 s Line5;
#X msg 588 52 Page 3: Synth;
#X msg 342 159 3: O.Wave Atk: \$1ms;
#X msg 507 172 4: O.Wave Rel: \$1ms;
#X floatatom 25 252 5 0 0 0 - - -;
#N canvas 0 0 450 300 (subpatch) 0;
#X array array2 1027 float 3;
#A 0 0.00872803 0.0335083 0.0425415 0.0371094 0.0558472 0.0978394 0.117371
0.113586 0.110168 0.11084 0.111084 0.111084 0.111084 0.111084 0.111084
0.111084 0.111084 0.111084 0.111084 0.111084 0.111084 0.111084 0.111084
0.111084 0.111084 0.111084 0.111084 0.111084 0.111084 0.111084 0.111084
0.111084 0.111572 0.111755 0.106689 0.106812 0.134338 0.174561 0.187195
0.181641 0.179565 0.180481 0.180542 0.180542 0.180542 0.180542 0.180542
0.180542 0.180542 0.180542 0.180542 0.180542 0.181213 0.180969 0.175293
0.17804 0.209106 0.247437 0.256409 0.250427 0.249084 0.249939 0.249939
0.249939 0.250549 0.250122 0.245483 0.249207 0.27594 0.304504 0.310364
0.305542 0.30481 0.305481 0.305481 0.305481 0.305481 0.305481 0.305481
0.305481 0.305481 0.305481 0.305481 0.305481 0.305481 0.305481 0.305481
0.305481 0.305481 0.305481 0.306396 0.305176 0.299133 0.30835 0.345398
0.377136 0.381042 0.374023 0.367798 0.379028 0.416748 0.447266 0.449463
0.443909 0.443726 0.444397 0.444397 0.444397 0.444397 0.444397 0.444397
0.444397 0.444397 0.444397 0.444397 0.444397 0.444397 0.444397 0.444397
0.444397 0.444397 0.444397 0.444397 0.444397 0.444397 0.444397 0.444397
0.444519 0.445129 0.442932 0.439087 0.451965 0.484985 0.504303 0.502838
0.499359 0.499664 0.499969 0.499969 0.499969 0.499969 0.499969 0.499969
0.499969 0.499969 0.500275 0.500885 0.497498 0.493774 0.514252 0.554474
0.575653 0.571991 0.568512 0.569122 0.569427 0.569427 0.569427 0.569427
0.569794 0.570282 0.566071 0.563751 0.5867 0.628143 0.645416 0.6409
0.637909 0.638641 0.638824 0.638824 0.638824 0.638824 0.638824 0.638824
0.638824 0.638824 0.638824 0.638824 0.638824 0.638824 0.638824 0.638824
0.639374 0.639435 0.634491 0.634552 0.663422 0.702179 0.714996 0.709442
0.707855 0.708649 0.70462 0.705597 0.729218 0.759796 0.769073 0.764435
0.763092 0.763824 0.763824 0.763824 0.763824 0.763824 0.763824 0.763824
0.763824 0.763824 0.763824 0.763824 0.763824 0.763824 0.763824 0.763824
0.763824 0.763824 0.763824 0.763824 0.763824 0.763824 0.764618 0.763947
0.758698 0.763702 0.792145 0.834137 0.874603 0.902985 0.907928 0.902679
0.902008 0.902802 0.902802 0.902802 0.902802 0.902802 0.902802 0.902802
0.902802 0.902802 0.902802 0.902802 0.902802 0.902802 0.902802 0.902802
0.902802 0.902802 0.902802 0.902802 0.902802 0.902802 0.902802 0.902863
0.9039 0.901703 0.894806 0.908661 0.95639 0.990692 0.991669 0.985382
0.985443 0.986115 0.986115 0.986115 0.986115 0.986115 0.986115 0.986115
0.986115 0.986115 0.986115 0.986115 0.986115 0.982819 0.965363 0.999969
0.999969 0.775726 -0.092041 -0.646271 -0.605133 -0.510834 -0.519257
-0.529144 -0.534149 -0.512482 -0.483765 -0.608063 -0.890472 -0.999969
-0.999969 -0.994232 -0.997772 -0.999969 -0.999969 -0.999969 -0.999969
-0.999969 -0.999969 -0.999969 -0.999969 -0.999969 -0.999969 -0.999969
-0.999969 -0.999969 -0.999969 -0.999969 -0.999969 -0.999969 -0.999969
-0.999512 -0.999084 -0.999969 -0.999969 -0.97641 -0.928192 -0.912323
-0.919769 -0.897797 -0.857025 -0.840485 -0.845612 -0.848114 -0.847321
-0.847198 -0.847198 -0.847198 -0.847198 -0.847198 -0.847198 -0.847198
-0.847198 -0.847198 -0.847198 -0.847198 -0.847198 -0.847198 -0.847198
-0.847198 -0.847198 -0.847198 -0.847198 -0.847198 -0.847198 -0.847198
-0.847198 -0.846527 -0.846771 -0.852264 -0.849518 -0.818207 -0.780914
-0.77121 -0.777313 -0.778595 -0.77774 -0.77774 -0.77774 -0.77774 -0.77774
-0.77774 -0.77774 -0.77774 -0.77774 -0.77774 -0.77774 -0.77774 -0.77774
-0.777069 -0.77774 -0.782501 -0.777924 -0.749237 -0.721954 -0.717438
-0.72226 -0.722809 -0.722198 -0.721344 -0.722382 -0.728424 -0.721039
-0.683868 -0.651215 -0.647186 -0.653046 -0.653473 -0.65274 -0.65274
-0.65274 -0.65274 -0.65274 -0.65274 -0.65274 -0.65274 -0.65274 -0.65274
-0.65274 -0.65274 -0.65274 -0.65274 -0.65274 -0.65274 -0.65274 -0.65274
-0.652679 -0.651825 -0.653717 -0.659454 -0.646332 -0.606598 -0.58017
-0.585663 -0.576996 -0.536346 -0.509247 -0.509674 -0.514496 -0.514374
-0.513885 -0.513885 -0.513885 -0.513885 -0.513885 -0.513885 -0.513885
-0.513885 -0.513885 -0.513885 -0.513885 -0.513885 -0.513885 -0.513885
-0.513885 -0.513885 -0.513885 -0.513885 -0.513885 -0.513885 -0.513885
-0.513885 -0.513641 -0.513153 -0.515839 -0.518829 -0.502472 -0.470215
-0.453247 -0.456177 -0.458984 -0.458496 -0.458252 -0.458252 -0.458252
-0.458252 -0.458252 -0.458252 -0.458252 -0.458252 -0.458252 -0.458252
-0.457886 -0.457458 -0.461914 -0.463562 -0.439209 -0.399231 -0.382202
-0.387085 -0.389771 -0.388977 -0.388855 -0.388855 -0.388306 -0.388184
-0.392883 -0.39325 -0.366089 -0.326843 -0.312683 -0.318237 -0.320313
-0.319458 -0.319397 -0.319397 -0.319397 -0.319397 -0.319397 -0.319397
-0.319397 -0.319397 -0.319397 -0.319397 -0.319397 -0.319397 -0.319397
-0.319397 -0.319397 -0.319397 -0.318848 -0.319092 -0.323547 -0.320984
-0.29541 -0.26593 -0.257996 -0.263367 -0.27002 -0.265686 -0.231934
-0.195923 -0.18811 -0.194275 -0.195251 -0.194397 -0.194397 -0.194397
-0.194397 -0.194397 -0.194397 -0.194397 -0.194397 -0.194397 -0.194397
-0.194397 -0.194397 -0.194397 -0.194397 -0.194397 -0.194397 -0.194397
-0.194397 -0.194397 -0.194397 -0.194397 -0.194397 -0.194397 -0.193542
-0.194885 -0.200867 -0.19165 -0.154724 -0.122314 -0.119751 -0.125305
-0.12561 -0.124939 -0.124939 -0.124939 -0.124939 -0.124939 -0.124939
-0.124939 -0.124939 -0.124878 -0.124023 -0.125916 -0.131592 -0.118469
-0.0795288 -0.0515137 -0.0512695 -0.0561523 -0.0560913 -0.055542 -0.055542
-0.055542 -0.055542 -0.0554199 -0.0547485 -0.0567017 -0.0608521 -0.0482788
-0.0165405 0.00421143 0.00292969 -0.000610352 -0.000305176 0 0 0 0
0 0 0 0 0 0 0 0 0 0 0.00012207 0.000549316 -0.00158691 -0.00372314
0 0 0 0 0 0 0 0 0 0 0 0 0 0 0 0 0 0 0 0 0 0 0 0 0 0 0 0 0 0 0 0 0 0
0 0 0 0 0 0 0 0 0 0 0 0 0 0 0 0 0 0 0 0 0 0 0 0 0 0 0 0 0 0 0 0 0 0
0 0 0 0 0 0 0 0 0 0 0 0 0 0 0 0 0 0 0 0 0 0 0 0 0 0 0 0 0 0 0 0 0 0
0 0 0 0 0 0 0 0 0 0 0 0 0 0 0 0 0 0 0 0 0 0 0 0 0 0 0 0 0 0 0 0 0 0
0 0 0 0 0 0 0 0 0 0 0 0 0 0 0 0 0 0 0 0 0 0 0 0 0 0 0 0 0 0 0 0 0 0
0 0 0 0 0 0 0 0 0 0 0 0 0 0 0 0 0 0 0 0 0 0 0 0 0 0 0 0 0 0 0 0 0 0
0 0 0 0 0 0 0 0 0 0 0 0 0 0 0 0 0 0 0 0 0 0 0 0 0 0 0 0 0 0 0 0 0 0
0 0 0 0 0 0 0 0 0 0 0 0 0 0 0 0 0 0 0 0 0 0 0 0 0 0 0 0 0 0 0 0 0 0
0 0 0 0 0 0 0 0 0 0 0 0 0 0 0 0 0 0 0 0 0 0 0 0 0 0 0 0 0 0 0 0 0 0
0 0 0 0 0 0 0 0 0 0 0 0 0 0 0 0 0 0 0 0 0 0 0 0 0 0 0 0 0 0 0 0 0 0
0 0 0 0 0 0 0 0 0 0 0 0 0 0 0 0 0 0 0 0 0 0 0 0 0 0 0 0 0 0 0 0 0 0
0 0 0 0 0 0 0 0 0 0 0 0 0 0 0 0 0 0 0 0 0 0 0 0 0 0;
#A 1000 0 0 0 0 0 0 0 0 0 0 0 0 0 0 0 0 0 0 0 0 0 0 0 0 0 0 0;
#X coords 0 1 1027 -1 200 140 1 0 0;
#X restore 42 621 graph;
#X obj 293 707 soundfiler;
#X obj 296 650 r wavechange2;
#X msg 297 681 read ./wavs/0\$1.wav array2;
#X obj 193 138 i;
#X obj 197 167 change -1;
#X obj 205 92 + 100;
#X obj 211 56 * 225;
#X floatatom 181 232 5 0 0 0 - - -;
#X msg 226 243 2: O.Waveform2: \$1.wav;
#X obj 195 203 s wavechange2;
#X obj 240 274 s Line2;
#X connect 0 0 6 0;
#X connect 1 0 5 0;
#X connect 2 0 4 0;
#X connect 3 0 46 0;
#X connect 4 0 26 0;
#X connect 5 0 18 0;
#X connect 6 0 23 0;
#X connect 7 0 8 0;
#X connect 7 0 26 0;
#X connect 7 0 35 0;
#X connect 7 0 38 0;
#X connect 7 0 10 0;
#X connect 7 0 44 0;
#X connect 8 0 37 0;
#X connect 8 0 22 0;
#X connect 9 0 10 0;
#X connect 10 0 16 0;
#X connect 10 0 28 0;
#X connect 10 0 38 0;
#X connect 11 0 3 0;
#X connect 14 0 20 0;
#X connect 15 0 9 0;
#X connect 17 0 36 0;
#X connect 17 0 21 0;
#X connect 18 0 19 0;
#X connect 19 0 8 0;
#X connect 20 0 13 0;
#X connect 23 0 15 0;
#X connect 26 0 17 0;
#X connect 28 0 27 0;
#X connect 29 0 6 1;
#X connect 30 0 3 1;
#X connect 31 0 4 1;
#X connect 32 0 5 1;
#X connect 33 0 7 0;
#X connect 35 0 34 0;
#X connect 36 0 24 0;
#X connect 37 0 25 0;
#X connect 41 0 42 0;
#X connect 42 0 40 0;
#X connect 43 0 44 0;
#X connect 44 0 48 0;
#X connect 44 0 47 0;
#X connect 44 0 49 0;
#X connect 45 0 43 0;
#X connect 46 0 45 0;
#X connect 48 0 50 0;
#X restore 163 159 pd page3;
#X obj 145 283 *~ 0.6;
#X text 200 282 adjust as needed;
#X text 260 345 comment;
#X text 239 323 monophonic wavetable synth \, tracks guitar notes.
glitchy but cool - runs into a variable delay for weird effects;
#X obj 162 459 *~ 0.4;
#X obj 218 460 *~ 0.4;
#X connect 2 0 22 0;
#X connect 2 1 22 0;
#X connect 3 0 0 0;
#X connect 3 1 1 0;
#X connect 10 0 27 0;
#X connect 10 0 27 1;
#X connect 14 0 22 1;
#X connect 15 0 22 2;
#X connect 16 0 22 3;
#X connect 17 0 22 4;
#X connect 18 0 35 0;
#X connect 19 0 35 0;
#X connect 22 0 3 0;
#X connect 22 1 3 1;
#X connect 27 0 39 0;
#X connect 27 1 40 0;
#X connect 29 0 10 0;
#X connect 29 1 10 0;
#X connect 35 0 29 0;
#X connect 39 0 2 0;
#X connect 40 0 2 1;
