#N canvas -9 -9 1920 1026 10;
#X obj 373 200 inlet~;
#X obj 447 419 outlet~;
#X obj 446 365 vcf~ 4000 1;
#X obj 479 185 hsl 128 15 100 5000 0 0 empty empty empty -2 -8 0 10
-262144 -1 -1 0 1;
#X obj 474 228 sig~;
#X obj 482 333 +~;
#X obj 529 328 r mfres;
#X obj 499 153 r mffreq;
#X obj 504 258 osc~;
#X obj 550 272 r mfamt;
#X obj 565 226 r mfmf;
#X obj 503 293 *~;
#X connect 0 0 2 0;
#X connect 2 0 1 0;
#X connect 3 0 4 0;
#X connect 4 0 5 0;
#X connect 5 0 2 1;
#X connect 6 0 2 2;
#X connect 7 0 3 0;
#X connect 8 0 11 0;
#X connect 9 0 11 1;
#X connect 10 0 8 0;
#X connect 11 0 5 1;
