#N canvas 0 0 1914 990 12;
#X obj 181 32 inlet~;
#X obj 208 942 outlet~;
#X obj 280 941 outlet~;
#X obj 386 242 mtof;
#X obj 398 517 moses 30;
#X msg 379 581 0;
#X obj 408 864 *~;
#X obj 666 119 r octmix;
#X obj 375 369 * \$1;
#X msg 575 249 0.5;
#X obj 597 213 bng 15 250 50 0 empty empty empty 17 7 0 10 -262144
-1 -1;
#X obj 875 246 bng 15 250 50 0 empty empty empty 17 7 0 10 -262144
-1 -1;
#X floatatom 551 358 5 0 0 0 - - -;
#X floatatom 420 456 12 0 0 0 - - -;
#X msg 874 280 2;
#X text 738 114 under 50% - octave down / mix over 50% - octave up
/ mix;
#X obj 751 634 vline~;
#X obj 755 551 pack f f f f;
#X msg 749 592 1 \$2 \, \$4 \$3 \$2;
#X obj 834 460 loadbang;
#X obj 913 555 pack f f;
#X obj 913 587 0 \$2;
#X msg 846 507 1;
#X obj 671 459 r noteon;
#X obj 928 432 r velocity;
#X obj 911 520 sel 0;
#X floatatom 676 504 5 0 0 0 - - -;
#X floatatom 926 476 5 0 0 0 - - -;
#X msg 472 576 1;
#X obj 375 548 bng 15 250 50 0 empty empty empty 17 7 0 10 -262144
-1 -1;
#X obj 461 550 bng 15 250 50 0 empty empty empty 17 7 0 10 -262144
-1 -1;
#X obj 201 583 s noteon;
#X obj 475 607 s noteon;
#X obj 256 619 s velocity;
#X obj 555 594 s velocity;
#X msg 799 509 1000;
#X obj 414 588 sig~;
#X obj 166 750 *~;
#X floatatom 200 720 5 0 0 0 - - -;
#X obj 197 686 expr 1 - $f1;
#X obj 192 648 r orig;
#X floatatom 563 508 5 0 0 0 - - -;
#X obj 500 524 s orig;
#X floatatom 452 232 5 0 0 0 - - -;
#X obj 444 306 bng 15 250 50 0 empty empty empty 17 7 0 10 -262144
-1 -1;
#X obj 493 313 bng 15 250 50 0 empty empty empty 17 7 0 10 -262144
-1 -1;
#X msg 482 345 0;
#X obj 398 414 -;
#X floatatom 315 185 5 0 0 0 - - -;
#X msg 431 343 5000;
#X msg 731 255 1;
#X obj 733 224 bng 15 250 50 0 empty empty empty 17 7 0 10 -262144
-1 -1;
#X obj 296 660 tabosc4~ array1;
#X obj 1056 386 r release;
#X obj 759 421 r attack;
#X obj 657 152 moses 0.34;
#X obj 728 186 moses 0.67;
#X floatatom 599 413 5 0 0 0 - - -;
#X obj 670 254 - 0.33;
#X obj 787 247 - 0.66;
#X obj 661 83 hsl 128 15 0 1 0 0 empty empty empty -2 -8 0 10 -262144
-1 -1 0 1;
#X obj 601 382 * 1.505;
#X obj 567 481 * 1.95;
#X obj 416 765 *~;
#X msg 1015 490 200;
#X msg 762 508 1;
#X obj 417 810 *~ 0.1;
#X obj 485 759 hsl 128 15 0.4 0.9 0 0 empty empty empty -2 -8 0 10
-262144 -1 -1 0 1;
#X floatatom 515 724 5 0 0 0 - - -;
#X obj 538 631 moses 60;
#X floatatom 552 657 5 0 0 0 - - -;
#X obj 538 688 expr (($f1 / 100) - 0.59) * 2.2;
#X text 622 751 rough way of doing velocity/vol;
#X floatatom 493 778 5 0 0 0 - - -;
#X floatatom 338 299 5 0 0 0 - - -;
#X floatatom 375 183 5 0 0 0 - - -;
#X obj 382 129 fiddle~ 2048;
#X obj 444 277 moses 61;
#X obj 416 659 tabosc4~ array2;
#X msg 883 505 0;
#X obj 258 901 VD;
#X obj 388 735 *~ 0.5;
#X connect 0 0 37 0;
#X connect 0 0 76 0;
#X connect 3 0 8 0;
#X connect 3 0 74 0;
#X connect 4 0 29 0;
#X connect 4 1 30 0;
#X connect 4 1 36 0;
#X connect 5 0 31 0;
#X connect 5 0 33 0;
#X connect 6 0 80 0;
#X connect 7 0 55 0;
#X connect 8 0 47 0;
#X connect 9 0 12 0;
#X connect 10 0 9 0;
#X connect 11 0 14 0;
#X connect 12 0 8 1;
#X connect 14 0 12 0;
#X connect 16 0 63 1;
#X connect 17 0 18 0;
#X connect 18 0 16 0;
#X connect 19 0 35 0;
#X connect 19 0 22 0;
#X connect 19 0 65 0;
#X connect 19 0 64 0;
#X connect 19 0 79 0;
#X connect 20 0 21 0;
#X connect 21 0 16 0;
#X connect 22 0 17 3;
#X connect 23 0 26 0;
#X connect 24 0 27 0;
#X connect 25 0 20 0;
#X connect 26 0 17 0;
#X connect 27 0 25 0;
#X connect 28 0 32 0;
#X connect 28 0 34 0;
#X connect 29 0 5 0;
#X connect 30 0 28 0;
#X connect 35 0 17 2;
#X connect 36 0 52 0;
#X connect 36 0 78 0;
#X connect 37 0 80 0;
#X connect 38 0 37 1;
#X connect 39 0 38 0;
#X connect 40 0 39 0;
#X connect 41 0 42 0;
#X connect 41 0 6 1;
#X connect 43 0 69 0;
#X connect 43 0 77 0;
#X connect 44 0 49 0;
#X connect 45 0 46 0;
#X connect 46 0 47 1;
#X connect 47 0 4 0;
#X connect 47 0 13 0;
#X connect 49 0 47 1;
#X connect 50 0 12 0;
#X connect 51 0 50 0;
#X connect 52 0 81 0;
#X connect 53 0 20 1;
#X connect 54 0 17 1;
#X connect 55 0 10 0;
#X connect 55 0 61 0;
#X connect 55 1 56 0;
#X connect 56 0 51 0;
#X connect 56 0 58 0;
#X connect 56 1 11 0;
#X connect 56 1 59 0;
#X connect 57 0 62 0;
#X connect 58 0 61 0;
#X connect 59 0 61 0;
#X connect 60 0 55 0;
#X connect 61 0 57 0;
#X connect 62 0 41 0;
#X connect 63 0 66 0;
#X connect 64 0 20 1;
#X connect 65 0 17 1;
#X connect 66 0 6 0;
#X connect 67 0 66 1;
#X connect 67 0 73 0;
#X connect 68 0 67 0;
#X connect 69 1 70 0;
#X connect 70 0 71 0;
#X connect 71 0 68 0;
#X connect 76 0 48 0;
#X connect 76 2 3 0;
#X connect 76 2 75 0;
#X connect 76 3 43 0;
#X connect 77 0 44 0;
#X connect 77 1 45 0;
#X connect 78 0 81 0;
#X connect 80 0 1 0;
#X connect 80 0 2 0;
#X connect 81 0 63 0;
