#N canvas 597 17 653 671 10;
#X obj 195 503 freeverb~;
#X msg 279 208 roomsize \$1;
#X msg 278 269 damping \$1;
#X msg 271 338 wet \$1;
#X msg 271 381 dry \$1;
#X msg 292 429 freeze \$1;
#X msg 292 469 bypass \$1;
#X obj 292 412 tgl 15 0 empty empty empty 17 7 0 10 -262144 -1 -1 0
1;
#X obj 292 452 tgl 15 0 empty empty empty 17 7 0 10 -262144 -1 -1 0
1;
#X obj 375 295 hsl 128 15 0 1 0 0 empty empty empty -2 -8 0 10 -4032
-1 -1 0 1;
#X floatatom 403 321 5 0 0 0 - - -;
#X obj 334 343 expr 1-$f1;
#X obj 418 178 hsl 128 15 0 1 0 0 empty empty empty -2 -8 0 10 -4034
-1 -1 11684 1;
#X obj 406 244 hsl 128 15 0 1 0 0 empty empty empty -2 -8 0 10 -260097
-1 -1 6350 1;
#X floatatom 403 264 5 0 0 0 - - -;
#X floatatom 401 212 5 0 0 0 - - -;
#X text 383 418 Freeze the reverb;
#X text 383 478 the dry signal pass through.;
#X text 382 465 Trun the reverb off and let;
#X text 453 329 Wet signal to dry signal ratio;
#X text 453 345 (0 : all dry \, 1 : all wet);
#X text 454 264 Damping level;
#X text 453 210 Roomize;
#X text 288 614 Pierre Massat \, GuitarExtended \, 2012;
#X floatatom 377 378 5 0 0 0 - - -;
#X floatatom 325 380 5 0 0 0 - - -;
#X obj 307 88 loadbang;
#X msg 396 135 0;
#X obj 243 65 inlet~;
#X obj 153 589 outlet~;
#X obj 532 110 r mix;
#X obj 333 46 bng 15 250 50 0 empty empty empty 17 7 0 10 -262144 -1
-1;
#X obj 178 69 inlet~;
#X obj 217 588 outlet~;
#X msg 352 137 0.5;
#X msg 310 136 0.92;
#X obj 434 70 r roomsize;
#X obj 563 207 r damp;
#X obj 445 395 r freeze;
#X connect 0 0 29 0;
#X connect 0 1 33 0;
#X connect 1 0 0 0;
#X connect 2 0 0 0;
#X connect 3 0 0 0;
#X connect 3 0 25 0;
#X connect 4 0 0 0;
#X connect 5 0 0 0;
#X connect 6 0 0 0;
#X connect 7 0 5 0;
#X connect 8 0 6 0;
#X connect 9 0 10 0;
#X connect 9 0 3 0;
#X connect 9 0 11 0;
#X connect 11 0 4 0;
#X connect 11 0 24 0;
#X connect 12 0 1 0;
#X connect 12 0 15 0;
#X connect 13 0 2 0;
#X connect 13 0 14 0;
#X connect 26 0 35 0;
#X connect 26 0 34 0;
#X connect 26 0 27 0;
#X connect 27 0 9 0;
#X connect 28 0 0 0;
#X connect 30 0 9 0;
#X connect 31 0 26 0;
#X connect 32 0 0 1;
#X connect 34 0 13 0;
#X connect 35 0 12 0;
#X connect 36 0 12 0;
#X connect 37 0 13 0;
#X connect 38 0 7 0;
