#N canvas -8 0 1920 1026 12;
#X floatatom 101 60 3 0 0 0 Pulses - pulse_8 24;
#X floatatom 100 97 3 0 0 0 Length - length_8 24;
#X floatatom 100 161 3 35 42 0 Note - note_8 24;
#X floatatom 99 132 3 0 0 0 Offset - offset_8 24;
#X floatatom 103 234 3 0 250 0 Shuf. - shuffle_8 24;
#X floatatom 102 198 3 0 16 0 CH - channel_8 24;
#X floatatom 1360 823 5 0 0 0 - - - 0;
#X obj 1296 810 bng 16 250 50 0 empty empty empty 0 -8 0 10 #fcfcfc #000000 #000000;
#X floatatom 1569 622 5 0 0 0 - - - 0;
#X floatatom 1501 762 5 0 0 0 - - - 0;
#X obj 1439 897 noteout 10;
#X obj 1172 648 r pulse_8;
#X obj 1246 647 r offset_8;
#X obj 1327 649 r length_8;
#X obj 1420 641 r note_8;
#X obj 1695 653 r channel_8;
#X obj 14 13 bng 33 444 333 0 empty rhythm_8 Drum\ Channel_8 40 18 0 24 #ff0400 #000000 #000000;
#X obj 189 200 hsl 200 33 0 16 0 0 empty cntrl_channel_8 empty -2 -10 0 12 #fcfcfc #000000 #000000 0 1;
#X obj 122 211 int;
#X obj 189 164 hsl 200 33 1 127 0 0 empty cntrl_note_8 empty -2 -10 0 12 #fcfcfc #000000 #000000 0 1;
#X obj 189 128 hsl 200 33 0 8 0 0 empty cntrl_offset_8 empty -2 -10 0 12 #fcfcfc #000000 #000000 0 1;
#X obj 189 92 hsl 200 33 0 64 0 0 empty cntrl_length_8 empty -2 -10 0 12 #fcfcfc #000000 #000000 0 1;
#X obj 189 56 hsl 200 33 0 64 0 0 empty cntrl_pulse_8 empty -2 -10 0 12 #fcfcfc #000000 #000000 0 1;
#X obj 117 110 int;
#X obj 117 142 int;
#X obj 118 174 int;
#X obj 119 74 int;
#N canvas 770 122 833 1026 rhythm 0;
#X obj 331 447 outlet;
#X obj 329 351 % \$3;
#X obj 332 317 * \$1;
#X obj 331 383 < \$1;
#X obj 331 259 +;
#X obj 331 281 %;
#X obj 331 405 select 1;
#X floatatom 291 216 5 0 0 0 - - - 0;
#X floatatom 322 176 5 0 0 0 - - - 0;
#X floatatom 385 164 5 0 0 0 - - - 0;
#X obj 305 459 bng 15 250 50 0 empty empty empty 17 7 0 10 #fcfcfc #000000 #000000;
#X obj 113 123 r timeCount;
#X obj 257 72 inlet;
#X obj 404 63 inlet;
#X obj 548 61 inlet;
#X floatatom 514 169 5 0 0 0 - - - 0;
#X obj 161 64 inlet;
#X connect 1 0 3 0;
#X connect 2 0 1 0;
#X connect 3 0 6 0;
#X connect 4 0 5 0;
#X connect 5 0 2 0;
#X connect 6 0 0 0;
#X connect 6 0 10 0;
#X connect 7 0 4 0;
#X connect 8 0 2 1;
#X connect 8 0 3 1;
#X connect 9 0 4 1;
#X connect 11 0 7 0;
#X connect 12 0 8 0;
#X connect 13 0 9 0;
#X connect 14 0 5 1;
#X connect 14 0 15 0;
#X connect 15 0 5 1;
#X connect 15 0 1 1;
#X coords 0 1026 1 1025 0 0 0;
#X restore 1240 696 pd rhythm;
#X obj 1507 685 bng 19 250 50 0 empty empty empty 0 -10 0 12 #fcfcfc #000000 #000000;
#X obj 393 164 bng 30 250 50 0 note_8_up empty empty 0 -10 0 12 #c6ffc7 #000000 #000000;
#X msg 364 628 1;
#X obj 366 671 + 1;
#X floatatom 366 695 5 0 0 0 - - - 0;
#X obj 395 651 r note_8;
#X obj 335 594 r note_8_up;
#X obj 152 164 bng 30 250 50 0 note_8_down empty empty 0 -10 0 12 #ffc7c6 #000000 #000000;
#X obj 366 718 s cntrl_note_8;
#X obj 448 597 r note_8_down;
#X msg 449 623 -1;
#X obj 393 59 bng 30 250 50 0 pulse_8_up empty empty 0 -10 0 12 #c6ffc7 #000000 #000000;
#X obj 153 58 bng 30 250 50 0 pulse_8_down empty empty 0 -10 0 12 #ffc7c6 #000000 #000000;
#X obj 393 94 bng 30 250 50 0 length_8_up empty empty 0 -10 0 12 #c6ffc7 #000000 #000000;
#X obj 153 95 bng 30 250 50 0 length_8_down empty empty 0 -10 0 12 #ffc7c6 #000000 #000000;
#X obj 393 129 bng 30 250 50 0 offset_8_up empty empty 0 -10 0 12 #c6ffc7 #000000 #000000;
#X obj 154 130 bng 30 250 50 0 offset_8_down empty empty 0 -10 0 12 #ffc7c6 #000000 #000000;
#X obj 394 201 bng 30 250 50 0 channel_8_up empty empty 0 -10 0 12 #c6ffc7 #000000 #000000;
#X obj 153 200 bng 30 250 50 0 channel_8_down empty empty 0 -10 0 12 #ffc7c6 #000000 #000000;
#X msg 93 452 1;
#X obj 111 497 + 1;
#X floatatom 111 521 5 0 0 0 - - - 0;
#X obj 89 423 r pulse_8_up;
#X obj 111 544 s cntrl_pulse_8;
#X obj 185 423 r pulse_8_down;
#X obj 342 14 tgl 33 0 mute_8 cntrl_mute_8 Mute 38 17 0 24 #9c00ff #ffffff #000000 0 1;
#X obj 143 478 r pulse_8;
#X msg 186 448 -1;
#X msg 95 623 1;
#X obj 97 666 + 1;
#X floatatom 97 690 5 0 0 0 - - - 0;
#X msg 180 618 -1;
#X obj 126 646 r length_8;
#X obj 66 589 r length_8_up;
#X obj 179 592 r length_8_down;
#X obj 97 713 s cntrl_length_8;
#X msg 371 456 1;
#X obj 373 499 + 1;
#X floatatom 373 523 5 0 0 0 - - - 0;
#X msg 456 451 -1;
#X obj 342 422 r offset_8_up;
#X obj 455 425 r offset_8_down;
#X obj 402 479 r offset_8;
#X obj 373 546 s cntrl_offset_8;
#X msg 638 458 1;
#X obj 640 501 + 1;
#X floatatom 640 525 5 0 0 0 - - - 0;
#X msg 723 453 -1;
#X obj 609 424 r channel_8_up;
#X obj 722 427 r channel_8_down;
#X obj 640 548 s cntrl_channel_8;
#X obj 669 481 r channel_8;
#X obj 931 631 r mute_8;
#X obj 1213 777 spigot;
#X obj 1218 862 s rhythm_8;
#X floatatom 1089 674 5 0 0 0 - - - 24;
#X obj 1087 648 r timeCount;
#X obj 1505 736 random 4;
#X obj 192 237 hsl 200 33 0 100 0 0 empty cntrl_shuffle_8 empty -2 -10 0 12 #fcfcfc #000000 #000000 0 1;
#X obj 397 238 bng 30 250 50 0 shuffle_8_up empty empty 0 -10 0 12 #c6ffc7 #000000 #000000;
#X obj 156 237 bng 30 250 50 0 shuffle_8_down empty empty 0 -10 0 12 #ffc7c6 #000000 #000000;
#X msg 626 631 1;
#X obj 628 674 + 1;
#X floatatom 628 698 5 0 0 0 - - - 0;
#X msg 711 626 -1;
#X obj 597 597 r shuffle_8_up;
#X obj 710 600 r shuffle_8_down;
#X obj 657 654 r shuffle_8;
#X obj 628 721 s cntrl_shuffle_8;
#X obj 955 797 tgl 19 0 empty empty empty 0 -10 0 12 #fcfcfc #000000 #000000 0 1;
#X obj 1514 561 r shuffle_8;
#X obj 121 246 int;
#X floatatom 919 659 5 0 0 0 - - - 0;
#X floatatom 1501 809 5 0 0 0 - - - 0;
#X obj 1501 785 + 125;
#X obj 1404 850 makenote 250 250;
#X obj 918 701 != 1;
#X connect 6 0 103 0;
#X connect 7 0 6 0;
#X connect 8 0 85 1;
#X connect 9 0 102 0;
#X connect 11 0 27 1;
#X connect 12 0 27 2;
#X connect 13 0 27 3;
#X connect 14 0 6 0;
#X connect 15 0 10 2;
#X connect 17 0 18 0;
#X connect 18 0 5 0;
#X connect 19 0 25 0;
#X connect 20 0 24 0;
#X connect 21 0 23 0;
#X connect 22 0 26 0;
#X connect 23 0 1 0;
#X connect 24 0 3 0;
#X connect 25 0 2 0;
#X connect 26 0 0 0;
#X connect 27 0 81 0;
#X connect 28 0 85 0;
#X connect 30 0 31 0;
#X connect 31 0 32 0;
#X connect 32 0 36 0;
#X connect 33 0 31 1;
#X connect 34 0 30 0;
#X connect 37 0 38 0;
#X connect 38 0 31 0;
#X connect 47 0 48 0;
#X connect 48 0 49 0;
#X connect 49 0 51 0;
#X connect 50 0 47 0;
#X connect 52 0 55 0;
#X connect 54 0 48 1;
#X connect 55 0 48 0;
#X connect 56 0 57 0;
#X connect 57 0 58 0;
#X connect 58 0 63 0;
#X connect 59 0 57 0;
#X connect 60 0 57 1;
#X connect 61 0 56 0;
#X connect 62 0 59 0;
#X connect 64 0 65 0;
#X connect 65 0 66 0;
#X connect 66 0 71 0;
#X connect 67 0 65 0;
#X connect 68 0 64 0;
#X connect 69 0 67 0;
#X connect 70 0 65 1;
#X connect 72 0 73 0;
#X connect 73 0 74 0;
#X connect 74 0 78 0;
#X connect 75 0 73 0;
#X connect 76 0 72 0;
#X connect 77 0 75 0;
#X connect 79 0 73 1;
#X connect 80 0 100 0;
#X connect 81 0 7 0;
#X connect 81 0 82 0;
#X connect 81 0 28 0;
#X connect 83 0 27 0;
#X connect 84 0 83 0;
#X connect 85 0 9 0;
#X connect 86 0 99 0;
#X connect 89 0 90 0;
#X connect 90 0 91 0;
#X connect 91 0 96 0;
#X connect 92 0 90 0;
#X connect 93 0 89 0;
#X connect 94 0 92 0;
#X connect 95 0 90 1;
#X connect 97 0 81 1;
#X connect 98 0 8 0;
#X connect 99 0 4 0;
#X connect 100 0 104 0;
#X connect 101 0 103 1;
#X connect 102 0 101 0;
#X connect 103 0 10 0;
#X connect 103 1 10 1;
#X connect 104 0 97 0;
#X coords 0 -1 1 1 440 275 1 5 5;
